<?xml version="1.0" encoding="UTF-8"?>
<!DOCTYPE svg PUBLIC "-//W3C//DTD SVG 1.1//EN" "http://www.w3.org/Graphics/SVG/1.1/DTD/svg11.dtd">
<!-- Creator: CorelDRAW X7 -->
<svg xmlns="http://www.w3.org/2000/svg" xml:space="preserve" width="95.508mm" height="44.388mm" version="1.1" style="shape-rendering:geometricPrecision; text-rendering:geometricPrecision; image-rendering:optimizeQuality; fill-rule:evenodd; clip-rule:evenodd"
viewBox="0 0 9551 4439"
 xmlns:xlink="http://www.w3.org/1999/xlink">
 <defs>
  <style type="text/css">
   <![CDATA[
    .fil3 {fill:none}
    .fil5 {fill:#0B599D}
    .fil2 {fill:#EBECEC}
    .fil0 {fill:#EBECEC;fill-rule:nonzero}
    .fil4 {fill:#2B2A29;fill-rule:nonzero}
    .fil1 {fill:#FEFEFE;fill-rule:nonzero}
   ]]>
  </style>
 </defs>
 <g id="Layer_x0020_1">
  <metadata id="CorelCorpID_0Corel-Layer"/>
  <g id="_1434956706368">
   <path class="fil0" d="M127 294l-61 63 0 169 -66 0 0 -499 66 0 0 247 221 -247 80 0 -196 221 211 278 -79 0 -176 -232zm521 -267l67 0 0 354c0,47 -15,85 -43,111 -29,27 -67,41 -115,41 -49,0 -88,-13 -116,-38 -27,-25 -41,-61 -41,-107l66 0c0,29 8,51 23,67 16,16 38,24 68,24 27,0 49,-9 66,-26 17,-17 25,-41 25,-72l0 -354zm325 277c-56,-16 -97,-36 -123,-60 -25,-24 -38,-53 -38,-88 0,-39 15,-71 47,-97 31,-26 72,-39 122,-39 34,0 65,7 92,20 27,13 47,32 62,55 15,23 22,49 22,76l-66 0c0,-30 -9,-54 -29,-71 -19,-17 -46,-26 -81,-26 -32,0 -57,7 -76,22 -18,14 -27,34 -27,59 0,21 9,38 26,52 17,14 47,27 88,38 41,12 74,25 97,39 24,14 41,30 52,49 12,19 17,41 17,66 0,41 -16,73 -47,97 -32,25 -74,37 -126,37 -35,0 -67,-7 -96,-20 -30,-13 -53,-31 -69,-54 -16,-23 -24,-48 -24,-77l66 0c0,30 11,53 33,71 23,17 52,26 90,26 34,0 61,-7 79,-21 19,-14 28,-34 28,-58 0,-24 -8,-43 -26,-57 -17,-13 -48,-26 -93,-39zm636 64c-6,53 -25,93 -58,122 -33,29 -76,43 -131,43 -59,0 -106,-21 -141,-63 -36,-43 -54,-99 -54,-170l0 -48c0,-46 9,-87 25,-122 17,-36 40,-63 71,-81 30,-19 65,-29 105,-29 53,0 95,15 127,45 32,29 51,70 56,122l-66 0c-6,-39 -18,-68 -37,-86 -19,-18 -46,-27 -80,-27 -42,0 -75,16 -99,47 -24,31 -35,75 -35,133l0 48c0,54 11,97 33,129 23,32 55,48 95,48 37,0 65,-8 84,-25 20,-16 33,-45 39,-86l66 0zm372 -72l-216 0 0 176 251 0 0 54 -317 0 0 -499 313 0 0 54 -247 0 0 161 216 0 0 54zm437 8c-57,-16 -98,-36 -123,-60 -26,-24 -39,-53 -39,-88 0,-39 16,-71 47,-97 32,-26 72,-39 122,-39 35,0 65,7 92,20 27,13 48,32 62,55 15,23 22,49 22,76l-66 0c0,-30 -9,-54 -28,-71 -19,-17 -47,-26 -82,-26 -32,0 -57,7 -75,22 -18,14 -27,34 -27,59 0,21 8,38 25,52 18,14 47,27 88,38 42,12 74,25 98,39 23,14 40,30 52,49 11,19 17,41 17,66 0,41 -16,73 -48,97 -31,25 -73,37 -126,37 -34,0 -66,-7 -96,-20 -30,-13 -52,-31 -69,-54 -16,-23 -24,-48 -24,-77l66 0c0,30 12,53 34,71 22,17 52,26 89,26 35,0 61,-7 80,-21 18,-14 28,-34 28,-58 0,-24 -9,-43 -26,-57 -17,-13 -48,-26 -93,-39zm345 -238l0 90 69 0 0 49 -69 0 0 229c0,15 3,26 9,34 6,7 17,11 32,11 7,0 17,-1 30,-4l0 51c-17,5 -33,7 -49,7 -28,0 -49,-9 -64,-26 -14,-17 -21,-41 -21,-73l0 -229 -68 0 0 -49 68 0 0 -90 63 0zm372 423c-25,29 -61,44 -109,44 -39,0 -69,-12 -90,-34 -21,-23 -31,-57 -31,-102l0 -241 63 0 0 239c0,56 23,84 68,84 49,0 81,-18 97,-54l0 -269 63 0 0 370 -60 0 -1 -37zm142 -151c0,-57 14,-103 41,-137 27,-35 62,-52 105,-52 44,0 78,15 103,44l0 -193 64 0 0 526 -58 0 -4 -40c-25,31 -60,47 -105,47 -43,0 -78,-18 -105,-53 -27,-35 -41,-81 -41,-137l0 -5zm63 7c0,42 9,75 27,98 17,24 41,36 71,36 41,0 70,-18 88,-54l0 -170c-19,-35 -48,-52 -87,-52 -31,0 -55,12 -72,36 -18,24 -27,59 -27,106zm502 188c-50,0 -91,-17 -123,-50 -31,-33 -47,-77 -47,-132l0 -12c0,-36 7,-69 21,-98 14,-29 34,-52 59,-68 25,-16 53,-24 82,-24 48,0 85,16 112,47 27,32 40,77 40,137l0 26 -251 0c1,36 12,66 32,88 21,23 47,34 78,34 23,0 42,-5 57,-14 16,-9 29,-21 41,-36l39 30c-32,48 -78,72 -140,72zm-8 -332c-26,0 -47,9 -64,28 -18,18 -28,44 -33,78l186 0 0 -5c-2,-32 -11,-57 -26,-75 -16,-18 -37,-26 -63,-26zm286 -45l2 46c28,-36 65,-53 110,-53 79,0 118,44 119,132l0 245 -63 0 0 -245c-1,-27 -7,-46 -19,-59 -12,-13 -30,-19 -56,-19 -20,0 -38,5 -54,16 -15,11 -27,25 -36,43l0 264 -63 0 0 -370 60 0zm413 -90l0 90 69 0 0 49 -69 0 0 229c0,15 3,26 9,34 6,7 16,11 31,11 8,0 18,-1 30,-4l0 51c-16,5 -32,7 -48,7 -29,0 -50,-9 -64,-26 -15,-17 -22,-41 -22,-73l0 -229 -67 0 0 -49 67 0 0 -90 64 0zm358 362c0,-17 -6,-31 -19,-40 -13,-10 -35,-18 -68,-25 -32,-6 -57,-15 -76,-24 -19,-10 -33,-21 -42,-35 -9,-13 -13,-29 -13,-47 0,-30 13,-56 38,-77 26,-21 59,-31 99,-31 42,0 76,11 102,32 26,22 39,50 39,83l-63 0c0,-17 -8,-32 -23,-45 -14,-12 -33,-18 -55,-18 -23,0 -41,5 -54,15 -13,10 -20,23 -20,39 0,15 6,27 18,35 12,7 34,15 66,22 32,7 57,15 77,25 19,10 34,22 43,36 10,13 15,30 15,50 0,33 -14,60 -40,80 -27,20 -61,30 -103,30 -30,0 -56,-5 -79,-16 -23,-10 -41,-25 -53,-44 -13,-19 -20,-39 -20,-61l63 0c2,21 10,38 26,50 16,13 37,19 63,19 24,0 43,-5 58,-14 14,-10 21,-23 21,-39zm151 -260l-36 -25c21,-30 32,-61 33,-94l0 -49 62 0 0 44c0,23 -6,46 -17,69 -11,22 -25,41 -42,55zm685 200c-6,53 -25,93 -58,122 -33,29 -76,43 -131,43 -59,0 -106,-21 -141,-63 -36,-43 -54,-99 -54,-170l0 -48c0,-46 9,-87 25,-122 17,-36 40,-63 71,-81 30,-19 65,-29 105,-29 53,0 95,15 127,45 32,29 51,70 56,122l-66 0c-6,-39 -18,-68 -37,-86 -19,-18 -46,-27 -80,-27 -42,0 -75,16 -99,47 -24,31 -36,75 -36,133l0 48c0,54 12,97 34,129 23,32 55,48 95,48 37,0 65,-8 84,-25 20,-16 33,-45 39,-86l66 0zm63 -31c0,-36 7,-69 21,-98 15,-29 35,-51 60,-67 25,-15 54,-23 87,-23 51,0 91,17 123,52 31,35 46,81 46,139l0 5c0,36 -7,68 -21,97 -13,29 -33,51 -59,67 -25,16 -55,24 -88,24 -50,0 -91,-18 -122,-52 -31,-35 -47,-82 -47,-139l0 -5zm64 8c0,41 9,74 28,99 19,25 45,37 77,37 32,0 57,-13 76,-38 19,-25 29,-60 29,-106 0,-40 -10,-73 -29,-99 -19,-25 -45,-37 -77,-37 -31,0 -56,12 -76,37 -19,25 -28,60 -28,107zm581 144c-24,29 -60,44 -108,44 -40,0 -70,-12 -90,-34 -21,-23 -31,-57 -32,-102l0 -241 64 0 0 239c0,56 22,84 68,84 49,0 81,-18 97,-54l0 -269 63 0 0 370 -60 0 -2 -37zm218 -333l2 46c29,-36 66,-53 111,-53 79,0 118,44 119,132l0 245 -64 0 0 -245c0,-27 -6,-46 -18,-59 -12,-13 -31,-19 -56,-19 -20,0 -39,5 -54,16 -15,11 -28,25 -36,43l0 264 -64 0 0 -370 60 0zm476 325c22,0 42,-7 59,-20 17,-14 26,-31 28,-52l60 0c-1,22 -9,42 -22,61 -14,19 -32,34 -54,46 -22,11 -46,17 -71,17 -51,0 -91,-17 -121,-51 -29,-33 -44,-79 -44,-138l0 -10c0,-36 6,-69 19,-97 14,-28 33,-50 57,-65 25,-16 54,-23 88,-23 42,0 76,12 104,37 27,25 42,57 44,97l-60 0c-2,-24 -11,-44 -27,-59 -17,-16 -37,-23 -61,-23 -32,0 -57,11 -75,34 -17,24 -26,57 -26,101l0 12c0,42 9,75 26,98 18,23 43,35 76,35zm287 45l-63 0 0 -370 63 0 0 370zm-68 -469c0,-10 3,-19 9,-26 6,-7 16,-11 28,-11 12,0 22,4 28,11 6,7 10,16 10,26 0,10 -4,19 -10,26 -6,7 -16,10 -28,10 -12,0 -22,-3 -28,-10 -6,-7 -9,-16 -9,-26zm238 469l-63 0 0 -526 63 0 0 526zm477 0l-64 0 0 -422 -128 47 0 -58 182 -68 10 0 0 501zm434 -499l0 54 -12 0c-49,1 -88,16 -118,44 -29,28 -46,68 -50,119 26,-30 62,-45 107,-45 44,0 78,15 104,46 26,31 39,70 39,118 0,52 -14,93 -42,124 -28,30 -65,46 -112,46 -48,0 -87,-18 -116,-55 -30,-37 -45,-84 -45,-142l0 -24c0,-92 20,-162 59,-210 39,-49 97,-73 175,-75l11 0zm-83 226c-22,0 -42,7 -60,20 -19,12 -31,29 -38,48l0 23c0,41 9,74 27,99 19,25 42,37 70,37 28,0 51,-10 67,-31 16,-21 24,-48 24,-82 0,-34 -8,-61 -25,-82 -16,-21 -38,-32 -65,-32zm366 87l-167 0 0 -52 167 0 0 52zm264 186l-64 0 0 -422 -128 47 0 -58 182 -68 10 0 0 501zm507 -463l-207 463 -66 0 206 -447 -270 0 0 -52 337 0 0 36z"/>
   <path class="fil1" d="M4381 1279l-95 0 -22 60 -30 0 86 -228 27 0 86 228 -30 0 -22 -60zm-86 -24l77 0 -39 -107 -38 107zm304 -13c0,34 -6,59 -17,75 -12,17 -30,25 -54,25 -25,0 -43,-8 -54,-24 -12,-16 -18,-40 -18,-72l0 -39c0,-33 5,-58 17,-74 11,-17 30,-25 54,-25 25,0 43,8 54,24 12,15 18,40 18,72l0 38zm-29 -40c0,-24 -3,-42 -10,-53 -7,-11 -18,-17 -33,-17 -15,0 -25,6 -32,17 -7,11 -10,28 -11,51l0 46c0,25 4,43 11,55 7,11 18,17 33,17 14,0 24,-5 31,-16 7,-11 11,-29 11,-53l0 -47zm215 137l-149 0 0 -21 79 -88c11,-13 19,-24 24,-32 4,-8 6,-17 6,-26 0,-11 -3,-21 -10,-29 -8,-7 -17,-11 -29,-11 -15,0 -26,4 -34,12 -8,8 -12,20 -12,34l-28 0c0,-21 6,-38 20,-50 13,-13 31,-20 54,-20 21,0 38,6 50,17 12,11 18,26 18,44 0,22 -14,49 -42,80l-61 66 114 0 0 24zm173 -97c0,34 -6,59 -18,75 -11,17 -29,25 -54,25 -24,0 -42,-8 -54,-24 -11,-16 -17,-40 -18,-72l0 -39c0,-33 6,-58 18,-74 11,-17 29,-25 54,-25 24,0 42,8 54,24 11,15 17,40 18,72l0 38zm-29 -40c0,-24 -4,-42 -10,-53 -7,-11 -18,-17 -33,-17 -15,0 -26,6 -32,17 -7,11 -11,28 -11,51l0 46c0,25 4,43 11,55 7,11 18,17 32,17 15,0 25,-5 32,-16 7,-11 11,-29 11,-53l0 -47zm68 182l-17 -11c10,-14 15,-28 16,-42l0 -27 28 0 0 23c0,11 -3,21 -8,32 -5,10 -12,19 -19,25zm236 -75c-8,11 -19,19 -33,25 -13,5 -29,8 -48,8 -18,0 -35,-5 -49,-13 -14,-9 -26,-21 -33,-37 -8,-16 -12,-35 -12,-56l0 -20c0,-34 8,-61 23,-79 16,-19 39,-29 68,-29 24,0 43,6 57,18 14,13 23,30 27,52l-30 0c-6,-30 -24,-45 -54,-45 -20,0 -35,7 -46,21 -10,14 -15,35 -15,61l0 19c0,25 5,46 17,61 12,15 28,22 47,22 12,0 21,-1 30,-4 8,-2 15,-6 21,-12l0 -51 -53 0 0 -24 83 0 0 83zm126 -113c-4,-1 -9,-1 -14,-1 -19,0 -31,8 -38,24l0 120 -29 0 0 -169 28 0 0 19c10,-15 23,-22 41,-22 5,0 10,0 12,2l0 27zm16 57c0,-17 4,-32 10,-45 7,-13 16,-23 27,-31 12,-7 25,-10 40,-10 23,0 41,8 56,24 14,16 21,37 21,63l0 2c0,17 -3,31 -10,44 -6,13 -15,24 -27,31 -11,7 -25,11 -40,11 -23,0 -41,-8 -55,-24 -15,-16 -22,-37 -22,-63l0 -2zm29 3c0,19 5,34 13,45 9,12 21,17 35,17 15,0 26,-6 35,-17 9,-12 13,-28 13,-48 0,-19 -4,-34 -13,-45 -9,-12 -21,-18 -35,-18 -14,0 -26,6 -35,17 -8,12 -13,28 -13,49zm265 66c-11,13 -27,20 -49,20 -18,0 -32,-5 -41,-16 -10,-10 -14,-26 -15,-46l0 -110 29 0 0 109c0,25 11,38 32,38 22,0 36,-8 44,-24l0 -123 28 0 0 169 -27 0 -1 -17zm100 -152l1 21c12,-16 29,-24 50,-24 36,0 54,20 54,60l0 112 -29 0 0 -112c0,-12 -3,-21 -8,-27 -6,-6 -14,-9 -26,-9 -9,0 -17,3 -24,8 -7,5 -13,11 -17,19l0 121 -29 0 0 -169 28 0zm141 83c0,-26 7,-47 19,-63 12,-15 28,-23 48,-23 20,0 36,7 47,20l0 -88 29 0 0 240 -27 0 -1 -18c-12,14 -28,21 -48,21 -20,0 -36,-8 -48,-24 -12,-16 -19,-37 -19,-63l0 -2zm29 3c0,19 4,34 12,45 8,11 19,16 33,16 18,0 32,-8 40,-24l0 -78c-9,-16 -22,-24 -40,-24 -14,0 -25,6 -33,17 -8,11 -12,27 -12,48zm368 -18l-96 0 0 101 -30 0 0 -228 141 0 0 25 -111 0 0 78 96 0 0 24zm78 101l-29 0 0 -240 29 0 0 240zm38 -86c0,-17 3,-32 10,-45 6,-13 15,-23 27,-31 12,-7 25,-10 40,-10 23,0 41,8 56,24 14,16 21,37 21,63l0 2c0,17 -3,31 -10,44 -6,13 -15,24 -27,31 -11,7 -25,11 -40,11 -23,0 -41,-8 -56,-24 -14,-16 -21,-37 -21,-63l0 -2zm29 3c0,19 4,34 13,45 9,12 20,17 35,17 15,0 26,-6 35,-17 9,-12 13,-28 13,-48 0,-19 -4,-34 -13,-45 -9,-12 -21,-18 -35,-18 -15,0 -26,6 -35,17 -8,12 -13,28 -13,49zm153 -3c0,-17 4,-32 10,-45 7,-13 16,-23 27,-31 12,-7 25,-10 40,-10 23,0 41,8 56,24 14,16 21,37 21,63l0 2c0,17 -3,31 -9,44 -7,13 -16,24 -27,31 -12,7 -26,11 -41,11 -23,0 -41,-8 -55,-24 -15,-16 -22,-37 -22,-63l0 -2zm29 3c0,19 5,34 13,45 9,12 21,17 35,17 15,0 27,-6 35,-17 9,-12 13,-28 13,-48 0,-19 -4,-34 -13,-45 -9,-12 -21,-18 -35,-18 -14,0 -26,6 -35,17 -8,12 -13,28 -13,49zm243 -60c-5,-1 -9,-1 -14,-1 -19,0 -32,8 -39,24l0 120 -29 0 0 -169 28 0 1 19c9,-15 23,-22 40,-22 6,0 10,0 13,2l0 27zm6 188l-16 -11c10,-14 15,-28 15,-42l0 -27 28 0 0 23c0,11 -2,21 -7,32 -6,10 -12,19 -20,25z"/>
   <path class="fil1" d="M4313 1616l-27 29 0 77 -30 0 0 -227 30 0 0 112 101 -112 36 0 -90 100 97 127 -36 0 -81 -106zm139 91c0,-5 2,-9 4,-13 3,-3 8,-4 14,-4 6,0 10,1 13,4 3,4 5,8 5,13 0,5 -2,9 -5,12 -3,3 -7,5 -13,5 -6,0 -11,-2 -14,-5 -2,-3 -4,-7 -4,-12zm183 -212l30 0 0 161c0,22 -6,39 -19,51 -13,12 -31,18 -52,18 -23,0 -41,-5 -53,-17 -13,-12 -19,-28 -19,-48l30 0c0,12 3,23 11,30 7,7 17,11 31,11 12,0 22,-4 30,-12 7,-8 11,-19 11,-33l0 -161zm77 212c0,-5 2,-9 5,-13 3,-3 7,-4 13,-4 6,0 11,1 14,4 3,4 4,8 4,13 0,5 -1,9 -4,12 -3,3 -8,5 -14,5 -6,0 -10,-2 -13,-5 -3,-3 -5,-7 -5,-12zm234 -86c-25,-7 -44,-17 -56,-27 -11,-11 -17,-24 -17,-40 0,-18 7,-33 21,-45 14,-11 33,-17 56,-17 15,0 29,3 42,9 12,6 21,14 28,25 7,10 10,22 10,35l-30 0c0,-14 -4,-25 -13,-33 -9,-8 -21,-12 -37,-12 -15,0 -26,4 -35,10 -8,7 -12,16 -12,27 0,9 4,17 12,24 8,6 21,12 40,17 19,6 33,12 44,18 11,6 19,14 24,22 5,9 8,19 8,30 0,19 -8,34 -22,45 -14,11 -34,16 -58,16 -15,0 -30,-3 -43,-9 -14,-6 -24,-14 -31,-24 -8,-11 -11,-22 -11,-36l30 0c0,14 5,25 15,33 10,8 23,12 40,12 16,0 28,-4 37,-10 8,-6 12,-15 12,-26 0,-11 -3,-20 -11,-26 -8,-6 -22,-12 -43,-18zm111 15c0,-16 3,-31 10,-44 6,-14 15,-24 27,-31 11,-7 24,-11 39,-11 23,0 42,8 56,24 14,16 21,37 21,64l0 2c0,16 -3,31 -9,44 -6,13 -15,23 -27,30 -12,8 -25,11 -40,11 -23,0 -42,-8 -56,-24 -14,-15 -21,-37 -21,-63l0 -2zm29 4c0,18 4,33 13,45 8,11 20,17 35,17 14,0 26,-6 35,-18 8,-11 13,-27 13,-48 0,-18 -5,-33 -14,-45 -8,-11 -20,-17 -35,-17 -14,0 -25,6 -34,17 -9,11 -13,27 -13,49zm188 -87l0 19c13,-14 30,-22 51,-22 23,0 39,9 48,27 5,-8 13,-14 22,-19 9,-5 19,-8 32,-8 37,0 55,20 56,59l0 113 -29 0 0 -111c0,-12 -3,-21 -8,-27 -6,-6 -15,-9 -28,-9 -11,0 -19,3 -27,9 -7,7 -11,15 -12,26l0 112 -29 0 0 -110c0,-25 -12,-37 -36,-37 -19,0 -32,8 -39,24l0 123 -29 0 0 -169 28 0zm357 169c-2,-3 -3,-9 -4,-18 -14,14 -30,21 -48,21 -17,0 -31,-4 -41,-14 -11,-9 -16,-21 -16,-36 0,-17 6,-31 20,-41 13,-9 32,-14 56,-14l28 0 0 -13c0,-10 -3,-18 -9,-24 -6,-6 -15,-9 -26,-9 -11,0 -19,2 -26,7 -7,6 -11,12 -11,19l-29 0c0,-8 3,-16 9,-24 6,-8 14,-14 25,-19 10,-4 21,-7 33,-7 20,0 35,5 46,15 11,10 17,23 17,40l0 78c0,15 2,27 6,37l0 2 -30 0zm-48 -21c9,0 18,-3 26,-7 8,-5 14,-11 17,-19l0 -35 -22 0c-36,0 -53,11 -53,32 0,9 3,16 9,21 6,5 13,8 23,8zm149 21l-29 0 0 -169 29 0 0 169zm-31 -213c0,-5 1,-9 4,-12 3,-4 7,-5 13,-5 5,0 10,1 12,5 3,3 5,7 5,12 0,4 -2,8 -5,11 -2,3 -7,5 -12,5 -6,0 -10,-2 -13,-5 -3,-3 -4,-7 -4,-11zm132 171l39 -127 31 0 -68 195c-10,28 -27,42 -50,42l-5 0 -11 -2 0 -24 8 1c10,0 17,-2 23,-6 5,-4 10,-11 13,-22l7 -17 -60 -167 31 0 42 127zm198 42c-2,-3 -3,-9 -4,-18 -14,14 -30,21 -48,21 -17,0 -30,-4 -41,-14 -11,-9 -16,-21 -16,-36 0,-17 7,-31 20,-41 13,-9 32,-14 56,-14l28 0 0 -13c0,-10 -3,-18 -9,-24 -6,-6 -15,-9 -26,-9 -11,0 -19,2 -26,7 -7,6 -11,12 -11,19l-29 0c0,-8 3,-16 9,-24 6,-8 14,-14 25,-19 10,-4 21,-7 33,-7 20,0 35,5 46,15 11,10 17,23 17,40l0 78c0,15 2,27 6,37l0 2 -30 0zm-48 -21c9,0 18,-3 26,-7 8,-5 14,-11 17,-19l0 -35 -22 0c-36,0 -53,11 -53,32 0,9 3,16 9,21 6,5 14,8 23,8zm368 -51c-3,24 -11,43 -26,56 -15,13 -35,19 -60,19 -27,0 -48,-9 -64,-29 -17,-19 -25,-45 -25,-77l0 -22c0,-21 4,-39 12,-55 7,-16 18,-29 32,-37 14,-9 30,-13 48,-13 24,0 43,6 58,20 14,13 23,32 25,56l-30 0c-3,-18 -8,-31 -17,-39 -9,-9 -21,-13 -36,-13 -19,0 -34,7 -45,22 -11,14 -17,34 -17,60l0 22c0,25 6,44 16,59 10,14 25,22 43,22 17,0 29,-4 38,-12 9,-7 15,-20 18,-39l30 0zm29 -14c0,-16 3,-31 10,-44 6,-14 15,-24 27,-31 11,-7 25,-11 39,-11 23,0 42,8 56,24 14,16 21,37 21,64l0 2c0,16 -3,31 -9,44 -6,13 -15,23 -27,30 -12,8 -25,11 -40,11 -23,0 -42,-8 -56,-24 -14,-15 -21,-37 -21,-63l0 -2zm29 4c0,18 4,33 13,45 9,11 20,17 35,17 14,0 26,-6 35,-18 8,-11 13,-27 13,-48 0,-18 -5,-33 -14,-45 -8,-11 -20,-17 -35,-17 -14,0 -25,6 -34,17 -9,11 -13,27 -13,49zm192 82l-29 0 0 -239 29 0 0 239zm78 0l-29 0 0 -239 29 0 0 239zm116 3c-23,0 -42,-7 -56,-22 -14,-15 -22,-35 -22,-61l0 -5c0,-17 4,-32 10,-45 6,-13 15,-23 27,-31 11,-7 24,-11 37,-11 22,0 39,7 51,22 13,14 19,35 19,62l0 12 -115 0c1,17 6,30 15,40 9,11 21,16 35,16 11,0 19,-2 26,-7 7,-4 14,-9 19,-16l17 14c-14,21 -35,32 -63,32zm-4 -151c-11,0 -21,4 -29,13 -8,8 -13,20 -15,35l85 0 0 -2c-1,-14 -5,-26 -12,-34 -7,-8 -17,-12 -29,-12zm96 62c0,-26 6,-47 18,-62 13,-16 29,-24 49,-24 20,0 36,8 48,22l1 -19 27 0 0 165c0,22 -7,39 -20,52 -13,12 -30,19 -52,19 -12,0 -24,-3 -36,-8 -11,-5 -20,-13 -26,-22l15 -17c12,15 27,23 45,23 14,0 25,-4 33,-12 8,-8 12,-19 12,-33l0 -15c-12,14 -28,20 -48,20 -19,0 -35,-8 -48,-24 -12,-15 -18,-37 -18,-65zm29 4c0,19 4,34 12,44 8,11 19,17 33,17 18,0 31,-9 40,-25l0 -77c-9,-16 -22,-24 -40,-24 -14,0 -25,5 -33,16 -8,11 -12,27 -12,49zm227 85c-23,0 -41,-7 -56,-22 -14,-15 -21,-35 -21,-61l0 -5c0,-17 3,-32 9,-45 7,-13 16,-23 27,-31 12,-7 24,-11 38,-11 22,0 39,7 51,22 12,14 18,35 18,62l0 12 -114 0c0,17 5,30 14,40 10,11 21,16 36,16 10,0 19,-2 26,-7 7,-4 13,-9 18,-16l18 14c-14,21 -35,32 -64,32zm-3 -151c-12,0 -22,4 -30,13 -8,8 -12,20 -14,35l84 0 0 -2c-1,-14 -5,-26 -12,-34 -7,-8 -16,-12 -28,-12zm174 62c0,-16 3,-31 10,-44 6,-14 15,-24 27,-31 11,-7 25,-11 39,-11 23,0 42,8 56,24 14,16 21,37 21,64l0 2c0,16 -3,31 -9,44 -6,13 -15,23 -27,30 -12,8 -25,11 -40,11 -23,0 -42,-8 -56,-24 -14,-15 -21,-37 -21,-63l0 -2zm29 4c0,18 4,33 13,45 9,11 20,17 35,17 14,0 26,-6 35,-18 8,-11 13,-27 13,-48 0,-18 -5,-33 -14,-45 -8,-11 -20,-17 -35,-17 -14,0 -25,6 -34,17 -9,11 -13,27 -13,49zm175 82l0 -146 -27 0 0 -23 27 0 0 -17c0,-18 5,-32 14,-42 10,-10 24,-15 41,-15 7,0 14,1 20,3l-1 23c-5,-1 -10,-1 -16,-1 -9,0 -17,3 -22,8 -5,6 -7,13 -7,24l0 17 36 0 0 23 -36 0 0 146 -29 0zm309 -105l-99 0 0 81 114 0 0 24 -144 0 0 -227 143 0 0 25 -113 0 0 73 99 0 0 24zm76 -64l0 22c13,-17 30,-25 51,-25 36,0 54,20 54,61l0 111 -29 0 0 -111c0,-13 -3,-22 -8,-27 -6,-6 -14,-9 -26,-9 -9,0 -17,2 -24,7 -7,5 -13,12 -17,20l0 120 -29 0 0 -169 28 0zm142 83c0,-26 6,-47 18,-62 12,-16 28,-24 48,-24 21,0 37,8 48,22l2 -19 26 0 0 165c0,22 -6,39 -19,52 -13,12 -31,19 -52,19 -13,0 -24,-3 -36,-8 -12,-5 -21,-13 -27,-22l15 -17c13,15 28,23 46,23 14,0 25,-4 32,-12 8,-8 12,-19 12,-33l0 -15c-11,14 -27,20 -47,20 -20,0 -36,-8 -48,-24 -12,-15 -18,-37 -18,-65zm29 4c0,19 4,34 11,44 8,11 19,17 33,17 18,0 32,-9 40,-25l0 -77c-9,-16 -22,-24 -40,-24 -14,0 -25,5 -32,16 -8,11 -12,27 -12,49zm188 82l-29 0 0 -169 29 0 0 169zm-31 -213c0,-5 1,-9 4,-12 3,-4 7,-5 13,-5 6,0 10,1 13,5 3,3 4,7 4,12 0,4 -1,8 -4,11 -3,3 -7,5 -13,5 -6,0 -10,-2 -13,-5 -3,-3 -4,-7 -4,-11zm105 44l0 22c13,-17 30,-25 51,-25 36,0 54,20 54,61l0 111 -29 0 0 -111c0,-13 -3,-22 -8,-27 -6,-6 -14,-9 -26,-9 -9,0 -17,2 -24,7 -7,5 -13,12 -17,20l0 120 -29 0 0 -169 28 0zm219 172c-23,0 -42,-7 -56,-22 -15,-15 -22,-35 -22,-61l0 -5c0,-17 3,-32 10,-45 6,-13 15,-23 27,-31 11,-7 24,-11 37,-11 22,0 39,7 51,22 12,14 18,35 18,62l0 12 -114 0c0,17 5,30 15,40 9,11 21,16 35,16 10,0 19,-2 26,-7 7,-4 13,-9 19,-16l17 14c-14,21 -35,32 -63,32zm-4 -151c-12,0 -21,4 -29,13 -8,8 -13,20 -15,35l85 0 0 -2c-1,-14 -5,-26 -12,-34 -7,-8 -17,-12 -29,-12zm173 151c-23,0 -42,-7 -56,-22 -14,-15 -22,-35 -22,-61l0 -5c0,-17 4,-32 10,-45 6,-13 15,-23 27,-31 11,-7 24,-11 37,-11 22,0 39,7 51,22 13,14 19,35 19,62l0 12 -115 0c1,17 6,30 15,40 9,11 21,16 35,16 11,0 19,-2 26,-7 7,-4 14,-9 19,-16l18 14c-15,21 -36,32 -64,32zm-4 -151c-11,0 -21,4 -29,13 -8,8 -13,20 -15,35l85 0 0 -2c-1,-14 -5,-26 -12,-34 -7,-8 -17,-12 -29,-12zm185 5c-5,-1 -10,-1 -15,-1 -19,0 -31,8 -38,24l0 120 -29 0 0 -169 28 0 1 20c9,-15 22,-23 40,-23 5,0 10,1 13,2l0 27zm58 143l-29 0 0 -169 29 0 0 169zm-32 -213c0,-5 2,-9 5,-12 2,-4 7,-5 12,-5 6,0 10,1 13,5 3,3 4,7 4,12 0,4 -1,8 -4,11 -3,3 -7,5 -13,5 -5,0 -10,-2 -12,-5 -3,-3 -5,-7 -5,-11zm105 44l1 22c13,-17 30,-25 50,-25 36,0 54,20 54,61l0 111 -28 0 0 -111c-1,-13 -3,-22 -9,-27 -5,-6 -14,-9 -25,-9 -10,0 -18,2 -25,7 -7,5 -13,12 -16,20l0 120 -29 0 0 -169 27 0zm142 83c0,-26 6,-47 18,-62 12,-16 29,-24 49,-24 20,0 36,8 48,22l1 -19 27 0 0 165c0,22 -7,39 -20,52 -13,12 -30,19 -52,19 -12,0 -24,-3 -36,-8 -11,-5 -20,-13 -26,-22l15 -17c12,15 27,23 45,23 14,0 25,-4 33,-12 8,-8 12,-19 12,-33l0 -15c-12,14 -28,20 -48,20 -19,0 -35,-8 -48,-24 -12,-15 -18,-37 -18,-65zm29 4c0,19 4,34 12,44 8,11 18,17 33,17 18,0 31,-9 40,-25l0 -77c-9,-16 -22,-24 -40,-24 -14,0 -25,5 -33,16 -8,11 -12,27 -12,49z"/>
   <path class="fil1" d="M4331 2066l65 -188 32 0 -84 228 -26 0 -84 -228 32 0 65 188zm155 40l-29 0 0 -169 29 0 0 169zm-31 -214c0,-5 1,-9 4,-12 3,-3 7,-5 13,-5 5,0 9,2 12,5 3,3 5,7 5,12 0,5 -2,9 -5,12 -3,3 -7,5 -12,5 -6,0 -10,-2 -13,-5 -3,-3 -4,-7 -4,-12zm70 128c0,-26 6,-47 18,-63 13,-15 29,-23 48,-23 20,0 36,7 47,20l0 -88 29 0 0 240 -26 0 -2 -18c-11,14 -27,21 -48,21 -19,0 -35,-8 -48,-24 -12,-16 -18,-37 -18,-63l0 -2zm29 3c0,19 4,34 12,45 7,11 18,16 32,16 19,0 32,-8 40,-24l0 -78c-8,-16 -21,-24 -39,-24 -14,0 -26,6 -33,17 -8,11 -12,27 -12,48zm213 40l40 -126 30 0 -67 195c-11,28 -28,42 -51,42l-5 -1 -11 -2 0 -23 8 0c10,0 17,-2 23,-5 5,-4 10,-12 13,-22l7 -17 -60 -167 31 0 42 126zm198 43c-2,-4 -3,-10 -4,-18 -13,14 -29,21 -48,21 -17,0 -30,-5 -41,-14 -11,-10 -16,-22 -16,-36 0,-18 7,-31 20,-41 13,-10 32,-15 56,-15l29 0 0 -13c0,-10 -3,-18 -9,-24 -7,-6 -15,-9 -27,-9 -10,0 -19,3 -26,8 -7,5 -11,11 -11,19l-29 0c0,-9 3,-17 9,-25 6,-8 15,-14 25,-18 10,-5 21,-7 34,-7 19,0 34,5 45,14 11,10 17,23 17,40l0 78c0,16 2,28 6,37l0 3 -30 0zm-48 -22c9,0 18,-2 26,-7 8,-5 14,-11 18,-18l0 -35 -23 0c-35,0 -53,10 -53,31 0,9 3,16 9,21 6,6 14,8 23,8zm171 -18l42 -129 29 0 -60 169 -22 0 -61 -169 29 0 43 129zm130 40l-28 0 0 -169 28 0 0 169zm-31 -214c0,-5 2,-9 4,-12 3,-3 8,-5 13,-5 6,0 10,2 13,5 3,3 4,7 4,12 0,5 -1,9 -4,12 -3,3 -7,5 -13,5 -5,0 -10,-2 -13,-5 -2,-3 -4,-7 -4,-12zm106 65c13,-15 30,-23 50,-23 36,0 54,20 54,60l0 112 -29 0 0 -112c0,-12 -2,-21 -8,-27 -5,-6 -14,-9 -25,-9 -10,0 -18,3 -25,8 -7,5 -13,11 -17,19l0 121 -28 0 0 -240 28 0 0 91zm252 149c-2,-4 -3,-10 -4,-18 -14,14 -30,21 -48,21 -17,0 -31,-5 -41,-14 -11,-10 -16,-22 -16,-36 0,-18 6,-31 20,-41 13,-10 32,-15 56,-15l28 0 0 -13c0,-10 -3,-18 -9,-24 -6,-6 -15,-9 -27,-9 -10,0 -18,3 -25,8 -7,5 -11,11 -11,19l-29 0c0,-9 3,-17 9,-25 6,-8 14,-14 24,-18 11,-5 22,-7 34,-7 20,0 35,5 46,14 11,10 17,23 17,40l0 78c0,16 2,28 6,37l0 3 -30 0zm-48 -22c9,0 17,-2 26,-7 8,-5 14,-11 17,-18l0 -35 -22 0c-36,0 -53,10 -53,31 0,9 3,16 9,21 6,6 13,8 23,8zm199 -121c-5,-1 -9,-1 -14,-1 -19,0 -32,8 -39,24l0 120 -29 0 0 -169 28 0 1 19c9,-15 23,-22 40,-22 6,0 10,0 13,2l0 27zm6 188l-16 -11c10,-14 15,-28 15,-42l0 -27 28 0 0 23c0,11 -2,21 -7,32 -5,10 -12,19 -20,25zm186 -273l74 186 75 -186 38 0 0 228 -29 0 0 -89 2 -95 -74 184 -23 0 -75 -184 3 95 0 89 -30 0 0 -228 39 0zm340 211c-11,13 -28,20 -49,20 -18,0 -32,-5 -42,-16 -9,-10 -14,-26 -14,-46l0 -110 29 0 0 109c0,25 10,38 31,38 22,0 37,-8 44,-24l0 -123 29 0 0 169 -27 0 -1 -17zm99 -152l1 19c12,-15 29,-22 50,-22 23,0 40,9 48,27 6,-8 13,-15 22,-20 9,-5 20,-7 32,-7 37,0 56,19 56,59l0 113 -29 0 0 -112c0,-12 -2,-21 -8,-27 -5,-6 -15,-9 -28,-9 -10,0 -19,4 -26,10 -7,6 -11,15 -13,26l0 112 -29 0 0 -111c0,-24 -12,-37 -36,-37 -18,0 -31,8 -38,25l0 123 -29 0 0 -169 27 0zm396 86c0,26 -6,47 -18,62 -12,16 -28,24 -48,24 -21,0 -37,-8 -49,-23l-2 20 -26 0 0 -240 29 0 0 89c11,-14 28,-21 48,-21 20,0 37,8 48,23 12,16 18,37 18,64l0 2zm-29 -3c0,-20 -4,-35 -11,-46 -8,-10 -19,-16 -33,-16 -19,0 -33,9 -41,27l0 73c9,17 22,26 41,26 14,0 25,-5 32,-16 8,-11 12,-27 12,-48zm169 86c-1,-4 -3,-10 -4,-18 -13,14 -29,21 -48,21 -16,0 -30,-5 -41,-14 -10,-10 -16,-22 -16,-36 0,-18 7,-31 20,-41 14,-10 33,-15 57,-15l28 0 0 -13c0,-10 -3,-18 -9,-24 -6,-6 -15,-9 -27,-9 -10,0 -19,3 -26,8 -7,5 -10,11 -10,19l-29 0c0,-9 3,-17 9,-25 6,-8 14,-14 24,-18 10,-5 22,-7 34,-7 19,0 35,5 46,14 11,10 16,23 17,40l0 78c0,16 2,28 6,37l0 3 -31 0zm-48 -22c10,0 18,-2 26,-7 8,-5 14,-11 18,-18l0 -35 -23 0c-35,0 -53,10 -53,31 0,9 3,16 9,21 6,6 14,8 23,8zm149 22l-29 0 0 -169 29 0 0 169zm-31 -214c0,-5 2,-9 4,-12 3,-3 8,-5 13,-5 6,0 10,2 13,5 3,3 4,7 4,12 0,5 -1,9 -4,12 -3,3 -7,5 -13,5 -5,0 -10,-2 -13,-5 -2,-3 -4,-7 -4,-12zm275 137l32 0 0 24 -32 0 0 53 -29 0 0 -53 -103 0 0 -17 102 -158 30 0 0 151zm-99 0l70 0 0 -111 -3 6 -67 105zm299 -20c0,34 -5,59 -17,75 -12,17 -30,25 -54,25 -24,0 -42,-8 -54,-24 -12,-16 -18,-40 -18,-72l0 -39c0,-33 6,-58 17,-74 12,-17 30,-25 55,-25 24,0 42,8 54,24 11,15 17,40 17,72l0 38zm-29 -40c0,-24 -3,-42 -10,-53 -7,-11 -18,-17 -32,-17 -15,0 -26,6 -33,17 -6,11 -10,28 -10,51l0 46c0,25 3,43 11,55 7,11 17,17 32,17 14,0 25,-5 32,-16 7,-11 10,-29 10,-53l0 -47zm209 40c0,34 -6,59 -18,75 -11,17 -29,25 -54,25 -24,0 -42,-8 -54,-24 -11,-16 -17,-40 -18,-72l0 -39c0,-33 6,-58 18,-74 11,-17 29,-25 54,-25 24,0 42,8 54,24 11,15 17,40 18,72l0 38zm-29 -40c0,-24 -4,-42 -10,-53 -7,-11 -18,-17 -33,-17 -15,0 -26,6 -32,17 -7,11 -11,28 -11,51l0 46c0,25 4,43 11,55 7,11 18,17 32,17 15,0 25,-5 32,-16 7,-11 11,-29 11,-53l0 -47zm287 40c0,34 -6,59 -17,75 -12,17 -30,25 -54,25 -25,0 -42,-8 -54,-24 -12,-16 -18,-40 -18,-72l0 -39c0,-33 6,-58 17,-74 12,-17 30,-25 54,-25 25,0 43,8 54,24 12,15 18,40 18,72l0 38zm-29 -40c0,-24 -3,-42 -10,-53 -7,-11 -18,-17 -33,-17 -14,0 -25,6 -32,17 -7,11 -10,28 -10,51l0 46c0,25 3,43 10,55 7,11 18,17 33,17 14,0 25,-5 31,-16 7,-11 11,-29 11,-53l0 -47zm213 -74l-94 211 -31 0 94 -204 -123 0 0 -24 154 0 0 17zm179 0l-94 211 -30 0 94 -204 -123 0 0 -24 153 0 0 17zm36 195c0,-5 2,-9 5,-12 3,-3 7,-5 13,-5 6,0 11,2 14,5 3,3 4,7 4,12 0,5 -1,9 -4,12 -3,4 -8,5 -14,5 -6,0 -10,-1 -13,-5 -3,-3 -5,-7 -5,-12z"/>
   <path class="fil1" d="M4339 2556c0,-8 -3,-14 -9,-18 -5,-4 -16,-8 -30,-11 -15,-3 -26,-7 -35,-11 -9,-5 -15,-10 -19,-16 -4,-6 -6,-13 -6,-22 0,-13 6,-25 17,-35 12,-9 27,-14 45,-14 19,0 35,5 47,15 12,10 18,22 18,38l-29 0c0,-8 -4,-15 -10,-21 -7,-5 -16,-8 -26,-8 -10,0 -19,2 -24,6 -6,5 -9,11 -9,18 0,7 2,13 8,16 5,4 15,7 30,10 14,4 26,7 35,12 9,4 15,10 20,16 4,6 6,14 6,23 0,15 -6,27 -18,36 -12,9 -28,14 -47,14 -13,0 -25,-2 -36,-7 -10,-5 -18,-12 -24,-20 -6,-9 -9,-18 -9,-28l29 0c0,10 4,17 12,23 7,6 16,8 28,8 11,0 20,-2 26,-6 7,-5 10,-11 10,-18zm106 -165l0 41 31 0 0 23 -31 0 0 104c0,7 1,12 4,15 3,4 8,5 14,5 4,0 8,0 14,-1l0 23c-7,2 -15,3 -22,3 -13,0 -23,-4 -29,-12 -7,-7 -10,-19 -10,-33l0 -104 -31 0 0 -23 31 0 0 -41 29 0zm169 193c-11,13 -28,20 -49,20 -18,0 -32,-5 -41,-16 -10,-10 -14,-26 -15,-46l0 -110 29 0 0 109c0,26 11,38 31,38 23,0 37,-8 44,-24l0 -123 29 0 0 169 -27 0 -1 -17zm65 -69c0,-26 6,-47 19,-62 12,-16 28,-24 48,-24 20,0 35,7 47,20l0 -88 29 0 0 240 -27 0 -1 -18c-12,14 -28,21 -49,21 -19,0 -35,-8 -47,-24 -13,-16 -19,-37 -19,-63l0 -2zm29 3c0,19 4,34 12,45 8,11 19,16 33,16 18,0 31,-8 40,-24l0 -78c-9,-15 -22,-23 -40,-23 -14,0 -25,5 -33,16 -8,11 -12,27 -12,48zm228 86c-22,0 -41,-7 -55,-22 -15,-16 -22,-36 -22,-61l0 -5c0,-17 3,-32 10,-45 6,-13 15,-23 26,-31 12,-7 24,-11 38,-11 22,0 39,7 51,22 12,14 18,35 18,62l0 12 -114 0c0,16 5,30 14,40 10,10 22,15 36,15 10,0 19,-2 26,-6 7,-4 13,-9 18,-16l18 13c-14,22 -35,33 -64,33zm-3 -151c-12,0 -22,4 -30,12 -7,9 -12,21 -14,36l84 0 0 -2c0,-15 -4,-26 -11,-34 -8,-8 -17,-12 -29,-12zm130 -21l1 21c13,-16 30,-24 50,-24 36,0 54,20 54,60l0 112 -28 0 0 -112c-1,-12 -3,-21 -9,-27 -5,-5 -14,-8 -25,-8 -10,0 -18,2 -25,7 -7,5 -13,12 -16,20l0 120 -29 0 0 -169 27 0zm188 -41l0 41 32 0 0 23 -32 0 0 104c0,7 1,12 4,15 3,4 8,5 15,5 3,0 8,0 13,-1l0 23c-7,2 -15,3 -22,3 -13,0 -22,-4 -29,-12 -6,-7 -10,-19 -10,-33l0 -104 -31 0 0 -23 31 0 0 -41 29 0zm164 165c0,-8 -3,-14 -9,-18 -6,-4 -16,-8 -31,-11 -15,-3 -26,-7 -35,-11 -8,-5 -15,-10 -19,-16 -4,-6 -6,-13 -6,-22 0,-13 6,-25 18,-35 11,-9 26,-14 44,-14 20,0 35,5 47,15 12,10 18,22 18,38l-29 0c0,-8 -3,-15 -10,-21 -7,-5 -15,-8 -26,-8 -10,0 -18,2 -24,6 -6,5 -9,11 -9,18 0,7 3,13 8,16 6,4 16,7 30,10 14,4 26,7 35,12 9,4 16,10 20,16 4,6 6,14 6,23 0,15 -6,27 -18,36 -12,9 -27,14 -47,14 -13,0 -25,-2 -36,-7 -10,-5 -18,-12 -24,-20 -6,-9 -9,-18 -9,-28l29 0c1,10 5,17 12,23 7,6 17,8 28,8 11,0 20,-2 27,-6 6,-5 10,-11 10,-18zm134 24c10,0 19,-3 27,-9 7,-6 12,-14 12,-23l28 0c-1,9 -4,19 -10,27 -6,9 -15,16 -25,21 -10,5 -21,8 -32,8 -23,0 -42,-8 -55,-23 -14,-15 -21,-36 -21,-63l0 -5c0,-16 3,-31 9,-44 6,-12 15,-22 26,-29 12,-7 25,-11 40,-11 19,0 35,6 48,17 12,11 19,26 20,44l-28 0c0,-11 -5,-20 -12,-27 -7,-7 -17,-10 -28,-10 -14,0 -26,5 -34,15 -8,11 -12,26 -12,46l0 6c0,19 4,34 12,45 8,10 20,15 35,15zm92 -65c0,-17 3,-31 9,-45 7,-13 16,-23 27,-30 12,-7 25,-11 40,-11 23,0 42,8 56,24 14,16 21,37 21,63l0 2c0,17 -3,32 -9,45 -7,13 -16,23 -27,30 -12,7 -25,11 -41,11 -22,0 -41,-8 -55,-24 -14,-16 -21,-37 -21,-63l0 -2zm29 3c0,19 4,34 13,45 8,12 20,17 34,17 15,0 27,-5 35,-17 9,-11 13,-27 13,-48 0,-19 -4,-34 -13,-45 -9,-12 -20,-17 -35,-17 -14,0 -26,5 -34,17 -9,11 -13,27 -13,48zm265 66c-12,13 -28,20 -50,20 -18,0 -32,-5 -41,-16 -9,-10 -14,-26 -14,-46l0 -110 29 0 0 109c0,26 10,38 31,38 22,0 36,-8 44,-24l0 -123 29 0 0 169 -28 0 0 -17zm99 -152l1 21c13,-16 30,-24 50,-24 36,0 54,20 54,60l0 112 -29 0 0 -112c0,-12 -2,-21 -8,-27 -5,-5 -14,-8 -25,-8 -10,0 -18,2 -25,7 -7,5 -13,12 -17,20l0 120 -28 0 0 -169 27 0zm216 148c11,0 20,-3 27,-9 8,-6 12,-14 13,-23l27 0c0,9 -3,19 -9,27 -7,9 -15,16 -25,21 -10,5 -21,8 -33,8 -23,0 -41,-8 -54,-23 -14,-15 -21,-36 -21,-63l0 -5c0,-16 3,-31 9,-44 6,-12 15,-22 26,-29 12,-7 25,-11 40,-11 19,0 35,6 47,17 13,11 20,26 20,44l-27 0c-1,-11 -5,-20 -12,-27 -8,-7 -17,-10 -28,-10 -14,0 -26,5 -34,15 -8,11 -12,26 -12,46l0 6c0,19 4,34 12,45 8,10 20,15 34,15zm131 21l-28 0 0 -169 28 0 0 169zm-31 -214c0,-4 2,-8 4,-12 3,-3 8,-4 13,-4 6,0 10,1 13,4 3,4 4,8 4,12 0,5 -1,9 -4,12 -3,3 -7,5 -13,5 -5,0 -10,-2 -13,-5 -2,-3 -4,-7 -4,-12zm109 214l-29 0 0 -240 29 0 0 240zm47 -15c0,-5 1,-9 4,-13 3,-3 8,-5 13,-5 6,0 11,2 14,5 3,4 5,8 5,13 0,4 -2,8 -5,12 -3,3 -8,4 -14,4 -5,0 -10,-1 -13,-4 -3,-4 -4,-8 -4,-12zm153 18c-23,0 -41,-7 -56,-22 -14,-16 -21,-36 -21,-61l0 -5c0,-17 3,-32 9,-45 7,-13 16,-23 27,-31 12,-7 24,-11 38,-11 22,0 39,7 51,22 12,14 18,35 18,62l0 12 -114 0c0,16 5,30 14,40 10,10 21,15 36,15 10,0 19,-2 26,-6 7,-4 13,-9 18,-16l18 13c-14,22 -36,33 -64,33zm-3 -151c-12,0 -22,4 -30,12 -8,9 -13,21 -14,36l84 0 0 -2c-1,-15 -5,-26 -12,-34 -7,-8 -16,-12 -28,-12zm130 -21l1 21c13,-16 29,-24 50,-24 36,0 54,20 54,60l0 112 -29 0 0 -112c0,-12 -3,-21 -8,-27 -5,-5 -14,-8 -26,-8 -9,0 -17,2 -24,7 -7,5 -13,12 -17,20l0 120 -29 0 0 -169 28 0zm142 83c0,-26 6,-47 18,-63 12,-15 28,-23 48,-23 21,0 37,7 49,22l1 -19 26 0 0 165c0,22 -6,39 -19,51 -13,13 -30,19 -52,19 -12,0 -24,-2 -36,-7 -12,-6 -20,-13 -27,-22l15 -17c13,15 28,23 46,23 14,0 25,-4 33,-12 7,-8 11,-19 11,-33l0 -15c-11,13 -27,20 -47,20 -20,0 -36,-8 -48,-24 -12,-16 -18,-37 -18,-65zm29 3c0,19 4,34 12,45 7,11 18,16 32,16 18,0 32,-8 40,-24l0 -77c-8,-16 -22,-24 -39,-24 -14,0 -25,5 -33,16 -8,11 -12,27 -12,48zm150 -3c0,-26 6,-47 18,-63 12,-15 29,-23 49,-23 20,0 36,7 48,22l1 -19 27 0 0 165c0,22 -7,39 -20,51 -13,13 -30,19 -52,19 -12,0 -24,-2 -36,-7 -11,-6 -20,-13 -26,-22l15 -17c12,15 27,23 45,23 14,0 25,-4 33,-12 8,-8 12,-19 12,-33l0 -15c-12,13 -28,20 -48,20 -19,0 -35,-8 -48,-24 -12,-16 -18,-37 -18,-65zm29 3c0,19 4,34 12,45 7,11 18,16 32,16 19,0 32,-8 41,-24l0 -77c-9,-16 -23,-24 -40,-24 -14,0 -25,5 -33,16 -8,11 -12,27 -12,48zm406 5c-1,25 -7,45 -18,59 -12,15 -27,22 -45,22 -20,0 -32,-9 -38,-26 -6,9 -12,15 -19,20 -7,4 -15,6 -23,6 -14,0 -25,-6 -33,-18 -8,-12 -10,-29 -9,-50 2,-17 6,-33 12,-46 7,-14 15,-24 25,-32 10,-8 20,-11 31,-11 8,0 16,1 23,3 6,2 14,7 22,13l-8 87c-2,24 5,36 20,36 12,0 21,-6 28,-18 8,-12 12,-27 12,-46 2,-40 -5,-71 -22,-92 -17,-22 -43,-32 -78,-32 -21,0 -39,5 -56,15 -16,11 -29,25 -38,45 -9,20 -15,42 -16,68 -1,25 2,48 10,67 7,19 19,33 34,43 15,10 34,15 55,15 10,0 19,-1 29,-3 9,-2 17,-5 23,-9l6 18c-7,4 -15,8 -26,10 -10,3 -21,4 -32,4 -26,0 -49,-5 -67,-17 -19,-12 -33,-29 -42,-51 -10,-22 -14,-47 -12,-77 1,-28 7,-54 19,-77 11,-23 27,-40 47,-53 20,-12 42,-18 67,-18 26,0 48,5 66,17 19,12 33,29 42,50 9,22 13,48 11,78zm-160 13c-1,15 0,26 4,34 5,8 11,12 20,12 7,0 13,-3 18,-8 6,-6 11,-13 15,-23l0 -1 7 -79c-6,-3 -12,-4 -19,-4 -12,0 -22,6 -30,18 -8,13 -13,29 -15,51zm296 20c0,-8 -3,-14 -9,-18 -5,-4 -16,-8 -30,-11 -15,-3 -26,-7 -35,-11 -9,-5 -15,-10 -19,-16 -4,-6 -6,-13 -6,-22 0,-13 6,-25 17,-35 12,-9 27,-14 45,-14 19,0 35,5 47,15 12,10 18,22 18,38l-29 0c0,-8 -4,-15 -10,-21 -7,-5 -16,-8 -26,-8 -10,0 -19,2 -24,6 -6,5 -9,11 -9,18 0,7 2,13 8,16 5,4 15,7 30,10 14,4 26,7 35,12 9,4 15,10 20,16 4,6 6,14 6,23 0,15 -6,27 -18,36 -12,9 -28,14 -47,14 -13,0 -25,-2 -36,-7 -10,-5 -18,-12 -24,-20 -6,-9 -9,-18 -9,-28l29 0c0,10 4,17 11,23 8,6 17,8 29,8 11,0 20,-2 26,-6 7,-5 10,-11 10,-18zm59 -41c0,-17 3,-31 10,-45 6,-13 15,-23 27,-30 11,-7 25,-11 40,-11 23,0 41,8 55,24 15,16 22,37 22,63l0 2c0,17 -4,32 -10,45 -6,13 -15,23 -27,30 -11,7 -25,11 -40,11 -23,0 -42,-8 -56,-24 -14,-16 -21,-37 -21,-63l0 -2zm29 3c0,19 4,34 13,45 9,12 20,17 35,17 15,0 26,-5 35,-17 8,-11 13,-27 13,-48 0,-19 -5,-34 -13,-45 -9,-12 -21,-17 -35,-17 -15,0 -26,5 -35,17 -9,11 -13,27 -13,48zm188 -86l1 19c12,-15 29,-22 50,-22 23,0 39,9 48,27 6,-8 13,-15 22,-20 9,-5 20,-7 32,-7 37,0 56,20 56,59l0 113 -29 0 0 -111c0,-12 -2,-22 -8,-27 -5,-6 -15,-9 -28,-9 -10,0 -19,3 -26,9 -7,7 -12,15 -13,26l0 112 -29 0 0 -111c0,-24 -12,-36 -36,-36 -19,0 -32,8 -39,24l0 123 -28 0 0 -169 27 0zm357 169c-2,-3 -3,-9 -4,-18 -13,14 -29,21 -48,21 -17,0 -30,-5 -41,-14 -11,-9 -16,-21 -16,-36 0,-17 7,-31 20,-41 13,-10 32,-14 56,-14l29 0 0 -14c0,-10 -3,-18 -9,-24 -7,-6 -15,-9 -27,-9 -10,0 -19,3 -26,8 -7,5 -11,12 -11,19l-29 0c0,-8 3,-17 9,-25 6,-7 15,-14 25,-18 10,-5 21,-7 34,-7 19,0 34,5 45,15 11,9 17,23 17,40l0 77c0,16 2,28 6,37l0 3 -30 0zm-48 -22c9,0 18,-2 26,-7 8,-4 14,-10 18,-18l0 -35 -23 0c-35,0 -53,11 -53,31 0,9 3,17 9,22 6,5 14,7 23,7zm149 22l-29 0 0 -169 29 0 0 169zm-31 -214c0,-4 1,-8 4,-12 3,-3 7,-4 13,-4 5,0 10,1 13,4 3,4 4,8 4,12 0,5 -1,9 -4,12 -3,3 -8,5 -13,5 -6,0 -10,-2 -13,-5 -3,-3 -4,-7 -4,-12zm132 172l40 -127 31 0 -68 195c-11,28 -27,42 -50,42l-6 -1 -11 -2 0 -23 8 1c10,0 18,-2 23,-6 6,-4 10,-11 14,-22l6 -17 -60 -167 31 0 42 127zm198 42c-1,-3 -3,-9 -4,-18 -13,14 -29,21 -48,21 -17,0 -30,-5 -41,-14 -10,-9 -16,-21 -16,-36 0,-17 7,-31 20,-41 14,-10 32,-14 57,-14l28 0 0 -14c0,-10 -3,-18 -9,-24 -6,-6 -15,-9 -27,-9 -10,0 -19,3 -26,8 -7,5 -10,12 -10,19l-29 0c0,-8 3,-17 9,-25 6,-7 14,-14 24,-18 10,-5 21,-7 34,-7 19,0 34,5 45,15 11,9 17,23 17,40l0 77c0,16 3,28 6,37l0 3 -30 0zm-48 -22c9,0 18,-2 26,-7 8,-4 14,-10 18,-18l0 -35 -23 0c-35,0 -53,11 -53,31 0,9 3,17 9,22 6,5 14,7 23,7zm118 7c0,-5 2,-9 5,-13 3,-3 7,-5 13,-5 6,0 11,2 14,5 3,4 4,8 4,13 0,4 -1,8 -4,12 -3,3 -8,4 -14,4 -6,0 -10,-1 -13,-4 -3,-4 -5,-8 -5,-12zm154 18c-23,0 -42,-7 -56,-22 -14,-16 -21,-36 -21,-61l0 -5c0,-17 3,-32 9,-45 7,-13 15,-23 27,-31 11,-7 24,-11 37,-11 22,0 39,7 51,22 13,14 19,35 19,62l0 12 -115 0c1,16 6,30 15,40 9,10 21,15 35,15 11,0 19,-2 26,-6 7,-4 14,-9 19,-16l18 13c-15,22 -36,33 -64,33zm-4 -151c-11,0 -21,4 -29,12 -8,9 -13,21 -15,36l85 0 0 -2c-1,-15 -5,-26 -12,-34 -7,-8 -17,-12 -29,-12zm96 62c0,-26 6,-47 18,-62 13,-16 29,-24 49,-24 19,0 35,7 47,20l0 -88 28 0 0 240 -26 0 -1 -18c-12,14 -28,21 -49,21 -19,0 -35,-8 -47,-24 -13,-16 -19,-37 -19,-63l0 -2zm29 3c0,19 4,34 12,45 8,11 19,16 33,16 18,0 31,-8 40,-24l0 -78c-9,-15 -22,-23 -40,-23 -14,0 -25,5 -33,16 -8,11 -12,27 -12,48zm262 66c-11,13 -27,20 -49,20 -18,0 -32,-5 -41,-16 -10,-10 -14,-26 -14,-46l0 -110 28 0 0 109c0,26 11,38 32,38 22,0 36,-8 44,-24l0 -123 29 0 0 169 -28 0 -1 -17z"/>
   <path class="fil1" d="M4279 3037l0 80 -47 0 0 -227 88 0c17,0 32,3 45,9 13,7 23,16 30,27 7,12 11,25 11,39 0,23 -8,40 -23,53 -15,13 -36,19 -63,19l-41 0zm0 -38l41 0c13,0 22,-3 29,-8 6,-6 9,-15 9,-25 0,-11 -3,-20 -9,-27 -7,-7 -16,-11 -28,-11l-42 0 0 71zm257 101c-11,14 -26,20 -46,20 -18,0 -32,-5 -42,-15 -9,-11 -14,-26 -14,-46l0 -110 45 0 0 109c0,17 8,26 24,26 15,0 26,-5 31,-16l0 -119 46 0 0 168 -43 0 -1 -17zm230 -66c0,27 -6,49 -18,64 -11,15 -27,22 -48,22 -18,0 -33,-7 -44,-21l-2 18 -40 0 0 -239 45 0 0 86c10,-13 24,-19 41,-19 20,0 36,8 48,23 12,15 18,36 18,64l0 2zm-45 -3c0,-17 -3,-30 -8,-37 -6,-8 -14,-12 -25,-12 -14,0 -24,6 -29,17l0 67c5,12 15,18 30,18 14,0 24,-7 28,-22 2,-6 4,-17 4,-31zm120 86l-45 0 0 -239 45 0 0 239zm85 0l-45 0 0 -168 45 0 0 168zm-48 -212c0,-7 2,-12 7,-17 4,-4 10,-6 18,-6 8,0 14,2 18,6 5,5 7,10 7,17 0,7 -2,12 -7,17 -4,4 -10,6 -18,6 -7,0 -14,-2 -18,-6 -5,-5 -7,-10 -7,-17zm155 179c8,0 15,-2 20,-7 5,-4 8,-10 8,-18l43 0c0,11 -4,22 -10,31 -6,10 -14,17 -25,23 -11,5 -22,7 -35,7 -24,0 -43,-7 -57,-23 -14,-15 -21,-36 -21,-63l0 -3c0,-26 7,-47 21,-62 13,-16 32,-24 56,-24 22,0 38,6 51,18 13,12 19,28 20,48l-43 0c0,-8 -3,-16 -8,-21 -5,-6 -12,-8 -20,-8 -11,0 -19,4 -24,11 -5,8 -8,20 -8,37l0 5c0,18 2,30 8,38 5,7 13,11 24,11zm263 -50l-37 0 0 83 -47 0 0 -227 84 0c27,0 48,6 62,18 15,12 22,29 22,51 0,15 -3,28 -10,39 -7,10 -17,18 -30,24l49 93 0 2 -50 0 -43 -83zm-37 -38l37 0c12,0 21,-3 28,-9 6,-6 9,-14 9,-25 0,-10 -3,-19 -9,-25 -6,-6 -15,-9 -28,-9l-37 0 0 68zm232 124c-25,0 -45,-7 -61,-22 -15,-16 -23,-36 -23,-61l0 -4c0,-17 3,-33 10,-46 6,-13 16,-24 28,-31 12,-7 25,-11 41,-11 23,0 41,8 54,22 13,15 20,35 20,62l0 19 -107 0c1,11 5,19 13,26 7,7 16,10 28,10 17,0 31,-6 40,-19l22 25c-6,10 -15,17 -27,22 -12,6 -24,8 -38,8zm-6 -138c-8,0 -16,3 -21,9 -6,6 -9,15 -11,26l63 0 0 -4c0,-10 -3,-18 -8,-23 -6,-5 -13,-8 -23,-8zm148 135l-45 0 0 -239 45 0 0 239zm135 0c-2,-4 -4,-9 -5,-15 -10,12 -25,18 -42,18 -17,0 -30,-4 -41,-14 -11,-10 -16,-22 -16,-36 0,-18 6,-32 19,-41 14,-10 33,-15 58,-15l21 0 0 -10c0,-7 -2,-14 -6,-18 -4,-5 -11,-7 -19,-7 -8,0 -14,2 -18,5 -4,4 -7,9 -7,15l-45 0c0,-10 3,-19 9,-27 6,-8 15,-15 26,-20 11,-4 23,-7 37,-7 21,0 37,6 50,16 12,10 18,25 18,44l0 73c0,16 2,28 7,37l0 2 -46 0zm-37 -31c6,0 13,-2 18,-5 6,-3 10,-6 13,-11l0 -29 -17 0c-23,0 -35,7 -36,23l0 3c0,5 2,10 6,13 3,4 9,6 16,6zm164 -179l0 42 29 0 0 33 -29 0 0 84c0,6 2,11 4,13 3,3 7,4 14,4 5,0 9,0 13,-1l0 34c-9,3 -18,4 -27,4 -32,0 -48,-16 -49,-47l0 -91 -24 0 0 -33 24 0 0 -42 45 0zm102 210l-45 0 0 -168 45 0 0 168zm-48 -212c0,-7 2,-12 7,-17 4,-4 11,-6 18,-6 8,0 14,2 19,6 4,5 7,10 7,17 0,7 -3,12 -7,17 -5,4 -11,6 -19,6 -7,0 -13,-2 -18,-6 -5,-5 -7,-10 -7,-17zm78 126c0,-16 3,-31 10,-44 6,-14 15,-24 28,-31 12,-7 26,-11 42,-11 23,0 41,7 56,21 14,14 22,33 24,57l0 12c0,26 -7,46 -22,62 -14,16 -34,23 -58,23 -24,0 -44,-7 -58,-23 -15,-16 -22,-37 -22,-64l0 -2zm45 4c0,16 3,28 9,36 6,9 15,13 26,13 11,0 20,-4 26,-13 6,-8 9,-21 9,-40 0,-15 -3,-28 -9,-36 -6,-9 -15,-13 -26,-13 -11,0 -20,4 -26,13 -6,8 -9,22 -9,40zm184 -86l2 19c12,-15 28,-23 48,-23 18,0 31,6 40,16 9,11 13,26 14,47l0 109 -46 0 0 -108c0,-9 -2,-16 -6,-21 -4,-4 -11,-6 -21,-6 -12,0 -22,5 -28,16l0 119 -45 0 0 -168 42 0zm229 122c0,-6 -3,-10 -8,-13 -6,-4 -14,-6 -26,-9 -41,-8 -61,-25 -61,-51 0,-15 7,-28 19,-38 12,-10 29,-15 49,-15 21,0 38,5 51,15 13,11 19,24 19,40l-45 0c0,-7 -2,-12 -6,-16 -4,-4 -11,-6 -19,-6 -8,0 -14,1 -18,5 -4,3 -6,8 -6,13 0,5 2,9 7,12 5,3 13,6 24,8 11,2 20,5 28,7 24,9 36,24 36,46 0,15 -7,28 -20,37 -13,10 -30,14 -51,14 -14,0 -27,-2 -38,-7 -11,-5 -19,-12 -26,-21 -6,-9 -9,-18 -9,-28l43 0c0,8 3,14 9,18 5,4 13,6 22,6 8,0 15,-1 19,-4 5,-4 7,-8 7,-13zm342 -62c0,22 -4,42 -12,59 -8,17 -19,30 -34,39 -15,9 -31,13 -50,13 -19,0 -36,-4 -51,-13 -15,-9 -26,-22 -34,-39 -8,-17 -12,-36 -12,-58l0 -11c0,-23 4,-42 12,-59 8,-17 19,-30 34,-39 14,-10 31,-14 50,-14 19,0 36,4 51,14 14,9 26,22 34,39 8,17 12,36 12,59l0 10zm-47 -11c0,-23 -5,-41 -13,-54 -9,-12 -21,-18 -37,-18 -16,0 -28,6 -36,18 -9,12 -13,30 -13,54l0 11c0,23 4,41 13,54 8,13 20,19 37,19 15,0 27,-6 36,-18 8,-13 12,-31 13,-54l0 -12zm90 119l0 -135 -25 0 0 -33 25 0 0 -15c0,-19 6,-33 17,-44 10,-10 26,-16 45,-16 6,0 14,1 23,4l0 34c-4,-1 -9,-1 -14,-1 -17,0 -25,8 -25,24l0 14 55 0 0 -8c0,-21 7,-38 20,-49 12,-12 31,-18 54,-18 14,0 31,4 51,10l-6 37c-10,-3 -18,-5 -24,-6 -6,-1 -12,-1 -18,-1 -21,0 -32,9 -32,28l0 7 34 0 0 33 -34 0 0 135 -45 0 0 -135 -55 0 0 135 -46 0zm247 0l-45 0 0 -168 45 0 0 168zm108 -33c8,0 15,-2 20,-7 5,-4 8,-10 8,-18l42 0c0,11 -3,22 -9,31 -6,10 -15,17 -25,23 -11,5 -23,7 -36,7 -24,0 -43,-7 -57,-23 -14,-15 -21,-36 -21,-63l0 -3c0,-26 7,-47 21,-62 14,-16 33,-24 57,-24 21,0 38,6 51,18 13,12 19,28 19,48l-42 0c0,-8 -3,-16 -8,-21 -5,-6 -12,-8 -21,-8 -10,0 -18,4 -23,11 -6,8 -8,20 -8,37l0 5c0,18 2,30 7,38 6,7 14,11 25,11zm174 36c-25,0 -45,-7 -61,-22 -15,-16 -23,-36 -23,-61l0 -4c0,-17 3,-33 10,-46 7,-13 16,-24 28,-31 12,-7 26,-11 41,-11 23,0 41,8 54,22 14,15 20,35 20,62l0 19 -107 0c1,11 6,19 13,26 7,7 17,10 28,10 17,0 31,-6 41,-19l22 25c-7,10 -16,17 -28,22 -11,6 -24,8 -38,8zm-5 -138c-9,0 -16,3 -22,9 -6,6 -9,15 -11,26l63 0 0 -4c0,-10 -3,-18 -8,-23 -5,-5 -13,-8 -22,-8zm195 9c-6,-1 -12,-2 -17,-2 -17,0 -28,6 -33,18l0 110 -45 0 0 -168 42 0 2 20c9,-16 21,-24 37,-24 5,0 10,1 14,2l0 44z"/>
   <path class="fil1" d="M4245 3557l0 -228 65 0c19,0 37,5 52,14 15,8 27,21 35,37 8,16 13,34 13,55l0 15c0,21 -4,40 -13,56 -8,16 -20,29 -35,37 -15,9 -33,13 -54,14l-63 0zm30 -203l0 178 32 0c23,0 41,-7 54,-22 13,-14 19,-34 19,-61l0 -13c0,-26 -6,-46 -18,-60 -12,-14 -29,-22 -52,-22l-35 0zm204 54c13,-15 30,-23 50,-23 36,0 54,20 54,60l0 112 -29 0 0 -112c0,-12 -2,-21 -8,-27 -5,-6 -14,-9 -25,-9 -10,0 -18,3 -25,8 -7,5 -13,11 -17,19l0 121 -28 0 0 -240 28 0 0 91zm252 149c-2,-4 -3,-10 -4,-18 -14,14 -30,21 -48,21 -17,0 -31,-5 -41,-14 -11,-10 -16,-22 -16,-36 0,-18 6,-31 20,-41 13,-10 32,-15 56,-15l28 0 0 -13c0,-10 -3,-18 -9,-24 -6,-6 -15,-9 -27,-9 -10,0 -19,3 -25,8 -7,5 -11,11 -11,19l-29 0c0,-9 3,-17 9,-25 6,-8 14,-14 24,-18 11,-5 22,-7 34,-7 20,0 35,5 46,14 11,10 17,23 17,40l0 78c0,16 2,28 6,37l0 3 -30 0zm-48 -22c9,0 17,-2 25,-7 9,-5 14,-11 18,-18l0 -35 -22 0c-36,0 -54,10 -54,31 0,9 3,16 9,21 7,6 14,8 24,8zm199 -121c-5,-1 -9,-1 -14,-1 -19,0 -32,8 -39,24l0 120 -29 0 0 -169 28 0 1 19c9,-15 23,-22 40,-22 6,0 10,0 13,2l0 27zm53 -26l1 19c13,-15 29,-22 50,-22 24,0 40,9 48,27 6,-8 13,-15 22,-20 9,-5 20,-7 32,-7 37,0 56,19 57,58l0 114 -29 0 0 -112c0,-12 -3,-21 -8,-27 -6,-6 -15,-9 -28,-9 -11,0 -20,4 -27,10 -7,6 -11,15 -12,26l0 112 -29 0 0 -111c0,-24 -12,-37 -36,-37 -19,0 -32,8 -39,24l0 124 -29 0 0 -169 27 0zm285 169l-29 0 0 -169 29 0 0 169zm-31 -214c0,-5 1,-9 4,-12 3,-3 7,-5 12,-5 6,0 10,2 13,5 3,3 5,7 5,12 0,5 -2,9 -5,12 -3,3 -7,4 -13,4 -5,0 -9,-1 -12,-4 -3,-3 -4,-7 -4,-12zm175 169c0,-8 -3,-14 -9,-18 -6,-5 -16,-8 -30,-11 -15,-4 -27,-7 -35,-12 -9,-4 -15,-9 -19,-15 -4,-6 -6,-14 -6,-22 0,-14 5,-25 17,-35 12,-9 27,-14 45,-14 19,0 35,5 47,15 12,9 17,22 17,37l-29 0c0,-8 -3,-14 -10,-20 -6,-6 -15,-9 -25,-9 -10,0 -19,3 -25,7 -6,5 -9,11 -9,18 0,7 3,12 9,16 5,3 15,7 30,10 14,3 26,7 35,12 9,4 15,10 20,16 4,6 6,14 6,23 0,15 -6,27 -18,36 -12,9 -28,14 -47,14 -14,0 -26,-3 -36,-7 -10,-5 -18,-12 -24,-20 -6,-9 -9,-18 -9,-28l29 0c0,9 4,17 11,23 8,5 17,8 29,8 11,0 20,-2 26,-6 7,-5 10,-11 10,-18zm95 -104c13,-15 30,-23 50,-23 36,0 54,20 54,60l0 112 -29 0 0 -112c0,-12 -2,-21 -8,-27 -5,-6 -14,-9 -25,-9 -10,0 -18,3 -25,8 -7,5 -13,11 -17,19l0 121 -28 0 0 -240 28 0 0 91zm231 149l0 -228 74 0c25,0 44,6 56,16 12,10 19,25 19,45 0,11 -3,20 -9,28 -6,8 -15,15 -25,19 12,4 22,10 29,20 7,9 11,21 11,34 0,21 -7,37 -20,48 -13,12 -32,18 -56,18l-79 0zm30 -106l0 81 49 0c14,0 25,-4 33,-11 9,-7 13,-17 13,-29 0,-28 -15,-41 -45,-41l-50 0zm0 -25l45 0c13,0 24,-3 32,-10 8,-6 11,-15 11,-26 0,-13 -3,-22 -10,-27 -8,-6 -19,-9 -34,-9l-44 0 0 72zm193 -18c13,-15 30,-23 50,-23 36,0 54,20 54,60l0 112 -29 0 0 -112c0,-12 -3,-21 -8,-27 -5,-6 -14,-9 -26,-9 -9,0 -17,3 -24,8 -7,5 -13,11 -17,19l0 121 -29 0 0 -240 29 0 0 91zm252 149c-2,-4 -3,-10 -4,-18 -14,14 -30,21 -48,21 -17,0 -31,-5 -41,-14 -11,-10 -16,-22 -16,-36 0,-18 6,-31 20,-41 13,-10 32,-15 56,-15l28 0 0 -13c0,-10 -3,-18 -9,-24 -6,-6 -15,-9 -27,-9 -10,0 -19,3 -26,8 -7,5 -10,11 -10,19l-29 0c0,-9 3,-17 9,-25 6,-8 14,-14 24,-18 11,-5 22,-7 34,-7 20,0 35,5 46,14 11,10 17,23 17,40l0 78c0,16 2,28 6,37l0 3 -30 0zm-48 -22c9,0 17,-2 25,-7 9,-5 14,-11 18,-18l0 -35 -23 0c-35,0 -53,10 -53,31 0,9 3,16 9,21 7,6 14,8 24,8zm156 -188l0 41 32 0 0 22 -32 0 0 105c0,7 2,12 5,15 2,3 7,5 14,5 3,0 8,0 14,-2l0 24c-8,2 -15,3 -22,3 -13,0 -23,-4 -30,-12 -6,-8 -9,-19 -9,-33l0 -105 -31 0 0 -22 31 0 0 -41 28 0zm105 0l0 41 31 0 0 22 -31 0 0 105c0,7 1,12 4,15 3,3 8,5 14,5 4,0 8,0 14,-2l0 24c-8,2 -15,3 -22,3 -13,0 -23,-4 -29,-12 -7,-8 -10,-19 -10,-33l0 -105 -31 0 0 -22 31 0 0 -41 29 0zm64 194c0,-5 1,-9 4,-12 3,-3 8,-5 14,-5 6,0 10,2 13,5 3,3 5,7 5,12 0,5 -2,9 -5,12 -3,4 -7,5 -13,5 -6,0 -11,-1 -14,-5 -3,-3 -4,-7 -4,-12zm0 -137c0,-5 2,-9 5,-13 3,-3 7,-5 13,-5 6,0 10,2 13,5 4,4 5,8 5,13 0,4 -1,8 -5,12 -3,3 -7,4 -13,4 -6,0 -10,-1 -13,-4 -3,-4 -5,-8 -5,-12zm292 -15c0,11 -3,21 -9,30 -6,9 -14,16 -24,21 12,5 21,12 28,22 7,10 10,21 10,33 0,20 -6,36 -20,47 -13,12 -30,18 -52,18 -22,0 -39,-6 -52,-18 -13,-12 -20,-27 -20,-47 0,-12 3,-23 10,-33 7,-10 16,-17 28,-22 -10,-5 -18,-12 -24,-21 -6,-9 -9,-19 -9,-30 0,-19 6,-35 19,-46 12,-11 28,-17 48,-17 20,0 36,6 49,17 12,11 18,27 18,46zm-24 106c0,-13 -4,-23 -12,-31 -8,-9 -18,-13 -31,-13 -13,0 -24,4 -31,12 -8,8 -12,19 -12,32 0,12 4,23 11,30 8,7 19,11 32,11 14,0 24,-4 32,-11 8,-7 11,-18 11,-30zm-43 -145c-11,0 -20,3 -27,10 -7,7 -11,17 -11,29 0,12 4,21 10,28 7,7 17,11 28,11 12,0 21,-4 28,-11 7,-7 10,-16 10,-28 0,-11 -3,-21 -11,-28 -7,-7 -16,-11 -27,-11zm257 207l-148 0 0 -21 78 -88c12,-13 20,-24 24,-32 5,-8 7,-17 7,-26 0,-11 -4,-21 -11,-29 -7,-7 -16,-11 -28,-11 -15,0 -26,4 -34,12 -8,8 -12,20 -12,34l-29 0c0,-21 7,-38 21,-50 13,-13 31,-20 54,-20 21,0 37,6 50,17 12,11 18,26 18,44 0,22 -14,49 -43,80l-61 66 114 0 0 24zm142 -100c-6,7 -14,13 -22,17 -8,4 -18,7 -27,7 -14,0 -25,-4 -35,-10 -9,-7 -17,-16 -22,-27 -6,-12 -8,-25 -8,-39 0,-15 3,-29 8,-41 6,-12 14,-22 25,-28 11,-6 23,-10 37,-10 23,0 40,9 53,25 13,17 20,40 20,69l0 9c0,44 -9,76 -27,96 -17,21 -43,31 -79,32l-5 0 0 -25 6 0c24,0 42,-7 55,-19 13,-12 19,-30 21,-56zm-45 0c10,0 19,-3 27,-9 8,-6 14,-13 18,-22l0 -12c0,-18 -4,-34 -13,-45 -8,-12 -18,-18 -31,-18 -12,0 -23,5 -30,14 -8,10 -12,23 -12,39 0,15 4,28 11,38 8,10 18,15 30,15zm208 100l-29 0 0 -193 -58 22 0 -27 83 -31 4 0 0 229zm234 0l-149 0 0 -21 78 -88c12,-13 20,-24 25,-32 4,-8 6,-17 6,-26 0,-11 -3,-21 -11,-29 -7,-7 -16,-11 -28,-11 -15,0 -26,4 -34,12 -8,8 -12,20 -12,34l-29 0c0,-21 7,-38 21,-50 13,-13 31,-20 54,-20 21,0 37,6 50,17 12,11 18,26 18,44 0,22 -14,49 -43,80l-60 66 114 0 0 24zm168 -168c0,11 -3,21 -9,30 -6,9 -14,16 -24,21 12,5 21,12 28,22 7,10 10,21 10,33 0,20 -6,36 -20,47 -13,12 -30,18 -52,18 -22,0 -39,-6 -52,-18 -14,-12 -20,-27 -20,-47 0,-12 3,-23 10,-33 7,-10 16,-17 28,-22 -10,-5 -18,-12 -24,-21 -6,-9 -9,-19 -9,-30 0,-19 6,-35 18,-46 13,-11 29,-17 49,-17 20,0 36,6 48,17 13,11 19,27 19,46zm-24 106c0,-13 -4,-23 -12,-31 -8,-9 -18,-13 -31,-13 -13,0 -24,4 -32,12 -7,8 -11,19 -11,32 0,12 3,23 11,30 8,7 18,11 32,11 13,0 24,-4 32,-11 8,-7 11,-18 11,-30zm-43 -145c-11,0 -21,3 -28,10 -7,7 -10,17 -10,29 0,12 3,21 10,28 7,7 16,11 28,11 12,0 21,-4 28,-11 7,-7 10,-16 10,-28 0,-11 -4,-21 -11,-28 -7,-7 -16,-11 -27,-11zm219 107c-6,7 -13,13 -21,17 -9,4 -18,7 -28,7 -13,0 -25,-4 -34,-10 -10,-7 -17,-16 -23,-27 -5,-12 -8,-25 -8,-39 0,-15 3,-29 9,-41 6,-12 14,-22 24,-28 11,-6 23,-10 38,-10 22,0 40,9 53,25 13,17 19,40 19,69l0 9c0,44 -9,76 -26,96 -18,21 -44,31 -79,32l-6 0 0 -25 6 0c24,0 42,-7 55,-19 13,-12 20,-30 21,-56zm-44 0c9,0 18,-3 26,-9 9,-6 15,-13 18,-22l0 -12c0,-18 -4,-34 -12,-45 -8,-12 -19,-18 -31,-18 -13,0 -23,5 -31,14 -8,10 -11,23 -11,39 0,15 3,28 11,38 7,10 17,15 30,15zm255 3c0,34 -5,59 -17,75 -12,17 -30,25 -54,25 -24,0 -42,-8 -54,-24 -12,-16 -18,-40 -18,-72l0 -39c0,-33 6,-58 17,-74 12,-17 30,-25 55,-25 24,0 42,8 54,24 11,15 17,40 17,72l0 38zm-29 -40c0,-24 -3,-42 -10,-53 -7,-12 -18,-17 -32,-17 -15,0 -26,5 -33,17 -6,11 -10,28 -10,51l0 46c0,25 3,43 11,55 7,11 17,17 32,17 14,0 25,-5 32,-16 7,-11 10,-29 10,-53l0 -47zm204 -31c0,11 -3,21 -9,30 -6,9 -14,16 -24,21 12,5 21,12 28,22 7,10 10,21 10,33 0,20 -6,36 -20,47 -13,12 -30,18 -52,18 -22,0 -39,-6 -52,-18 -14,-12 -20,-27 -20,-47 0,-12 3,-23 10,-33 7,-10 16,-17 28,-22 -10,-5 -18,-12 -24,-21 -6,-9 -9,-19 -9,-30 0,-19 6,-35 19,-46 12,-11 28,-17 48,-17 20,0 36,6 49,17 12,11 18,27 18,46zm-24 106c0,-13 -4,-23 -12,-31 -8,-9 -18,-13 -31,-13 -13,0 -24,4 -32,12 -7,8 -11,19 -11,32 0,12 4,23 11,30 8,7 18,11 32,11 14,0 24,-4 32,-11 8,-7 11,-18 11,-30zm-43 -145c-11,0 -20,3 -27,10 -7,7 -11,17 -11,29 0,12 4,21 10,28 7,7 17,11 28,11 12,0 21,-4 28,-11 7,-7 10,-16 10,-28 0,-11 -3,-21 -11,-28 -7,-7 -16,-11 -27,-11zm219 107c-6,7 -13,13 -21,17 -9,4 -18,7 -28,7 -13,0 -24,-4 -34,-10 -10,-7 -17,-16 -23,-27 -5,-12 -8,-25 -8,-39 0,-15 3,-29 9,-41 6,-12 14,-22 25,-28 10,-6 23,-10 37,-10 22,0 40,9 53,25 13,17 19,40 19,69l0 9c0,44 -8,76 -26,96 -17,21 -44,31 -79,32l-6 0 0 -25 6 0c24,0 43,-7 55,-19 13,-12 20,-30 21,-56zm-44 0c9,0 18,-3 27,-9 8,-6 14,-13 17,-22l0 -12c0,-18 -4,-34 -12,-45 -8,-12 -19,-18 -31,-18 -13,0 -23,5 -31,14 -7,10 -11,23 -11,39 0,15 3,28 11,38 7,10 17,15 30,15z"/>
   <path class="fil1" d="M4293 3760l58 165 58 -165 62 0 0 227 -47 0 0 -62 4 -107 -61 169 -32 0 -61 -169 5 107 0 62 -47 0 0 -227 61 0zm313 227c-2,-4 -3,-9 -4,-15 -11,12 -25,18 -43,18 -16,0 -30,-4 -41,-14 -11,-10 -16,-22 -16,-36 0,-18 7,-32 20,-41 13,-10 32,-15 57,-15l21 0 0 -10c0,-7 -2,-13 -6,-18 -4,-5 -10,-7 -19,-7 -7,0 -13,2 -18,5 -4,4 -6,9 -6,15l-45 0c0,-10 3,-19 9,-27 6,-8 14,-15 25,-20 11,-4 24,-7 37,-7 21,0 38,6 50,16 12,11 18,25 18,44l0 73c0,16 3,28 7,37l0 2 -46 0zm-37 -31c7,0 13,-2 19,-4 5,-3 9,-7 12,-12l0 -29 -17 0c-22,0 -34,7 -36,23l0 3c0,5 2,10 6,13 4,4 9,6 16,6zm206 -95c-6,-1 -12,-2 -16,-2 -17,0 -29,6 -34,18l0 110 -45 0 0 -168 43 0 1 20c9,-16 21,-24 37,-24 5,0 10,1 14,2l0 44zm83 59l-16 16 0 51 -46 0 0 -239 46 0 0 132 8 -11 43 -50 55 0 -61 70 66 98 -52 0 -43 -67zm184 70c-25,0 -45,-7 -61,-22 -15,-16 -23,-36 -23,-61l0 -4c0,-17 3,-33 10,-46 6,-13 16,-24 28,-31 12,-7 25,-11 41,-11 23,0 41,8 54,22 13,15 20,35 20,62l0 19 -107 0c1,11 6,19 13,26 7,7 16,10 28,10 17,0 31,-6 40,-19l23 25c-7,10 -16,17 -28,22 -11,6 -24,8 -38,8zm-5 -138c-9,0 -17,3 -22,9 -6,6 -9,15 -11,26l63 0 0 -4c0,-10 -3,-17 -8,-23 -6,-5 -13,-8 -22,-8zm154 -75l0 42 28 0 0 33 -28 0 0 84c0,6 1,11 3,13 3,3 7,4 14,4 5,0 9,0 13,-1l0 34c-9,3 -18,4 -27,4 -32,0 -48,-15 -48,-47l0 -91 -25 0 0 -33 25 0 0 -42 45 0zm101 210l-45 0 0 -168 45 0 0 168zm-48 -212c0,-7 2,-12 7,-17 4,-4 11,-6 18,-6 8,0 14,2 19,6 4,5 7,10 7,17 0,7 -3,13 -7,17 -5,4 -11,6 -19,6 -7,0 -13,-2 -18,-6 -5,-4 -7,-10 -7,-17zm127 44l1 19c12,-15 28,-23 49,-23 18,0 31,6 40,16 8,11 13,26 13,47l0 109 -45 0 0 -108c0,-9 -2,-16 -6,-21 -4,-4 -11,-6 -21,-6 -13,0 -22,5 -29,16l0 119 -45 0 0 -168 43 0zm131 83c0,-26 6,-47 18,-63 12,-16 29,-24 50,-24 18,0 33,7 43,19l2 -15 41 0 0 163c0,14 -4,27 -10,38 -7,11 -16,19 -29,25 -12,6 -26,9 -42,9 -13,0 -25,-3 -36,-8 -12,-5 -21,-11 -27,-19l20 -27c11,12 25,19 41,19 12,0 21,-4 28,-10 6,-6 10,-15 10,-27l0 -9c-11,12 -24,17 -41,17 -21,0 -37,-8 -50,-23 -12,-16 -18,-37 -18,-63l0 -2zm45 3c0,15 3,27 9,36 6,9 14,13 25,13 14,0 24,-5 30,-15l0 -72c-6,-10 -16,-15 -30,-15 -10,0 -19,4 -25,13 -6,9 -9,22 -9,40zm344 23c0,-9 -3,-16 -10,-21 -6,-4 -17,-9 -33,-15 -17,-5 -29,-10 -39,-15 -26,-14 -38,-33 -38,-57 0,-12 3,-23 10,-32 7,-10 17,-18 30,-23 13,-5 27,-8 43,-8 17,0 31,3 44,9 12,6 22,14 29,25 7,10 11,23 11,36l-47 0c0,-10 -3,-18 -10,-24 -6,-6 -16,-9 -28,-9 -11,0 -20,3 -26,8 -7,4 -10,11 -10,19 0,7 4,13 11,18 8,5 19,10 33,14 27,8 46,18 59,30 12,12 18,27 18,44 0,20 -8,35 -23,47 -14,11 -34,16 -60,16 -17,0 -33,-3 -47,-9 -15,-7 -26,-15 -33,-26 -8,-12 -12,-25 -12,-39l47 0c0,25 15,37 45,37 11,0 20,-2 26,-6 7,-5 10,-11 10,-19zm153 62c-25,0 -45,-7 -60,-22 -16,-16 -24,-36 -24,-61l0 -4c0,-17 4,-33 10,-46 7,-13 16,-24 28,-31 12,-7 26,-11 41,-11 23,0 41,8 55,22 13,15 20,35 20,62l0 19 -108 0c2,11 6,19 13,26 8,7 17,10 28,10 17,0 31,-6 41,-19l22 25c-7,10 -16,17 -28,22 -11,6 -24,8 -38,8zm-5 -138c-9,0 -16,3 -22,9 -5,6 -9,15 -10,26l62 0 0 -4c0,-10 -3,-17 -8,-23 -5,-5 -12,-8 -22,-8zm170 102c8,0 15,-2 20,-7 6,-4 8,-10 9,-18l42 0c0,11 -3,22 -10,31 -6,10 -14,17 -25,23 -10,5 -22,7 -35,7 -24,0 -43,-7 -57,-23 -14,-15 -21,-36 -21,-63l0 -3c0,-26 7,-47 21,-62 13,-16 32,-24 57,-24 21,0 38,6 50,18 13,12 20,28 20,48l-42 0c-1,-8 -3,-16 -9,-21 -5,-5 -12,-8 -20,-8 -11,0 -19,4 -24,11 -5,8 -8,20 -8,38l0 4c0,18 3,30 8,38 5,7 13,11 24,11zm191 -93c-6,-1 -11,-2 -16,-2 -17,0 -28,6 -33,18l0 110 -45 0 0 -168 42 0 1 20c10,-16 22,-24 38,-24 5,0 10,1 14,2l-1 44zm97 129c-25,0 -45,-7 -61,-22 -15,-16 -23,-36 -23,-61l0 -4c0,-17 3,-33 10,-46 7,-13 16,-24 28,-31 12,-7 26,-11 41,-11 23,0 41,8 54,22 14,15 20,35 20,62l0 19 -107 0c1,11 6,19 13,26 7,7 17,10 28,10 17,0 31,-6 41,-19l22 25c-7,10 -16,17 -28,22 -11,6 -24,8 -38,8zm-5 -138c-9,0 -16,3 -22,9 -6,6 -9,15 -11,26l63 0 0 -4c0,-10 -3,-17 -8,-23 -5,-5 -13,-8 -22,-8zm154 -75l0 42 29 0 0 33 -29 0 0 84c0,6 1,11 3,13 3,3 7,4 14,4 5,0 10,0 13,-1l0 34c-8,3 -18,4 -27,4 -32,0 -48,-15 -48,-47l0 -91 -25 0 0 -33 25 0 0 -42 45 0zm152 210c-3,-4 -4,-9 -5,-15 -11,12 -25,18 -43,18 -16,0 -30,-4 -41,-14 -11,-10 -16,-22 -16,-36 0,-18 7,-32 20,-41 13,-10 32,-15 57,-15l21 0 0 -10c0,-7 -2,-13 -6,-18 -4,-5 -10,-7 -19,-7 -7,0 -13,2 -18,5 -4,4 -6,9 -6,15l-45 0c0,-10 3,-19 9,-27 6,-8 14,-15 25,-20 11,-4 24,-7 38,-7 20,0 37,6 49,16 12,11 18,25 18,44l0 73c1,16 3,28 7,37l0 2 -45 0zm-38 -31c7,0 13,-2 19,-4 5,-3 9,-7 12,-12l0 -29 -17 0c-22,0 -34,7 -36,23l0 3c0,5 2,10 6,13 4,4 9,6 16,6zm206 -95c-6,-1 -12,-2 -16,-2 -17,0 -29,6 -34,18l0 110 -45 0 0 -168 43 0 1 20c9,-16 22,-24 37,-24 5,0 10,1 15,2l-1 44zm87 62l32 -104 48 0 -68 194 -4 9c-10,22 -26,33 -50,33 -6,0 -13,-1 -20,-3l0 -34 7 0c9,0 15,-1 19,-4 5,-2 8,-7 10,-13l6 -13 -59 -169 48 0 31 104z"/>
   <path class="fil1" d="M4296 4265l-28 29 0 77 -30 0 0 -227 30 0 0 112 101 -112 36 0 -89 100 96 127 -36 0 -80 -106zm242 106c-2,-4 -3,-9 -4,-18 -14,14 -30,21 -48,21 -17,0 -31,-5 -41,-14 -11,-10 -16,-22 -16,-36 0,-18 7,-31 20,-41 13,-10 32,-14 56,-14l28 0 0 -14c0,-10 -3,-18 -9,-24 -6,-6 -15,-9 -26,-9 -11,0 -19,3 -26,8 -7,5 -11,11 -11,19l-29 0c0,-9 3,-17 9,-25 6,-7 14,-14 25,-18 10,-5 21,-7 33,-7 20,0 35,5 46,14 11,10 17,24 17,41l0 77c0,16 2,28 6,37l0 3 -30 0zm-48 -22c9,0 18,-2 26,-7 8,-4 14,-11 17,-18l0 -35 -22 0c-36,0 -53,10 -53,31 0,9 3,17 9,22 6,5 13,7 23,7zm171 -17l42 -130 29 0 -61 169 -22 0 -61 -169 30 0 43 130zm154 -4l39 -126 31 0 -68 195c-10,28 -27,42 -50,42l-5 -1 -11 -2 0 -23 8 1c10,0 17,-2 23,-6 5,-4 10,-12 13,-22l7 -17 -61 -167 32 0 42 126zm198 43c-2,-4 -3,-9 -4,-18 -14,14 -30,21 -48,21 -17,0 -31,-5 -41,-14 -11,-10 -16,-22 -16,-36 0,-18 6,-31 20,-41 13,-10 32,-14 56,-14l28 0 0 -14c0,-10 -3,-18 -9,-24 -6,-6 -15,-9 -26,-9 -11,0 -19,3 -26,8 -7,5 -11,11 -11,19l-29 0c0,-9 3,-17 9,-25 6,-7 14,-14 25,-18 10,-5 21,-7 33,-7 20,0 35,5 46,14 11,10 17,24 17,41l0 77c0,16 2,28 6,37l0 3 -30 0zm-48 -22c9,0 18,-2 26,-7 8,-4 14,-11 17,-18l0 -35 -22 0c-36,0 -53,10 -53,31 0,9 3,17 9,22 6,5 13,7 23,7zm231 -67l0 89 -30 0 0 -227 84 0c25,0 44,6 58,19 14,12 21,29 21,50 0,22 -7,39 -20,51 -14,12 -34,18 -60,18l-53 0zm0 -25l54 0c16,0 28,-3 37,-11 8,-8 12,-18 12,-33 0,-13 -4,-24 -12,-32 -9,-8 -21,-12 -36,-13l-55 0 0 89zm271 97c-11,13 -28,20 -49,20 -18,0 -32,-5 -41,-16 -10,-10 -15,-26 -15,-46l0 -110 29 0 0 109c0,26 11,38 31,38 22,0 37,-8 44,-24l0 -123 29 0 0 169 -27 0 -1 -17zm154 -126c-5,-1 -9,-1 -15,-1 -19,0 -31,8 -38,24l0 120 -29 0 0 -169 28 0 1 19c9,-15 22,-22 40,-22 5,0 10,1 13,2l0 27zm130 126c-11,13 -27,20 -49,20 -18,0 -32,-5 -41,-16 -10,-10 -14,-26 -14,-46l0 -110 28 0 0 109c0,26 11,38 32,38 22,0 36,-8 44,-24l0 -123 28 0 0 169 -27 0 -1 -17zm171 -28c0,-8 -3,-14 -9,-18 -6,-4 -16,-8 -31,-11 -15,-3 -26,-7 -35,-12 -8,-4 -15,-9 -19,-15 -4,-6 -6,-13 -6,-22 0,-14 6,-25 18,-35 11,-9 26,-14 45,-14 19,0 34,5 46,15 12,10 18,22 18,38l-29 0c0,-8 -3,-15 -10,-21 -7,-6 -15,-8 -25,-8 -11,0 -19,2 -25,6 -6,5 -9,11 -9,18 0,7 3,13 8,16 6,4 16,7 30,10 15,3 26,7 35,12 9,4 16,10 20,16 4,6 6,14 6,23 0,15 -6,27 -18,36 -12,9 -27,14 -47,14 -13,0 -25,-2 -35,-7 -11,-5 -19,-12 -25,-20 -6,-9 -9,-18 -9,-28l29 0c1,10 5,17 12,23 7,5 17,8 28,8 11,0 20,-2 27,-6 6,-5 10,-11 10,-18zm95 -104c13,-15 29,-23 50,-23 35,0 53,20 54,60l0 112 -29 0 0 -112c0,-12 -3,-21 -8,-27 -6,-6 -14,-9 -26,-9 -9,0 -17,3 -25,8 -7,5 -12,11 -16,20l0 120 -29 0 0 -240 29 0 0 91zm139 63c0,-17 4,-32 10,-45 7,-13 16,-23 27,-30 12,-8 25,-11 40,-11 23,0 41,8 56,24 14,16 21,37 21,63l0 2c0,17 -3,31 -10,45 -6,13 -15,23 -27,30 -11,7 -25,11 -40,11 -23,0 -41,-8 -55,-24 -15,-16 -22,-37 -22,-63l0 -2zm29 3c0,19 5,34 13,45 9,12 21,17 35,17 15,0 26,-5 35,-17 9,-11 13,-28 13,-48 0,-19 -4,-34 -13,-45 -9,-12 -21,-17 -35,-17 -14,0 -26,5 -35,16 -8,12 -13,28 -13,49zm200 -127l0 41 32 0 0 22 -32 0 0 105c0,7 2,12 5,15 2,4 7,5 14,5 3,0 8,0 14,-2l0 24c-8,2 -15,3 -22,3 -13,0 -23,-4 -30,-12 -6,-8 -9,-19 -9,-33l0 -105 -31 0 0 -22 31 0 0 -41 28 0zm94 61c13,-15 30,-23 50,-23 36,0 54,20 54,60l0 112 -29 0 0 -112c0,-12 -2,-21 -8,-27 -5,-6 -14,-9 -25,-9 -10,0 -18,3 -25,8 -7,5 -13,11 -17,20l0 120 -28 0 0 -240 28 0 0 91zm252 149c-2,-4 -3,-9 -4,-18 -14,14 -30,21 -48,21 -17,0 -31,-5 -41,-14 -11,-10 -16,-22 -16,-36 0,-18 6,-31 20,-41 13,-10 32,-14 56,-14l28 0 0 -14c0,-10 -3,-18 -9,-24 -6,-6 -15,-9 -27,-9 -10,0 -18,3 -25,8 -7,5 -11,11 -11,19l-29 0c0,-9 3,-17 9,-25 6,-7 14,-14 24,-18 11,-5 22,-7 34,-7 20,0 35,5 46,14 11,10 17,24 17,41l0 77c0,16 2,28 6,37l0 3 -30 0zm-48 -22c9,0 17,-2 26,-7 8,-4 14,-11 17,-18l0 -35 -22 0c-36,0 -53,10 -53,31 0,9 3,17 9,22 6,5 13,7 23,7zm144 -147l1 19c13,-15 29,-22 50,-22 24,0 40,9 48,27 6,-8 13,-15 22,-20 9,-5 20,-7 32,-7 37,0 56,19 57,59l0 113 -29 0 0 -112c0,-12 -3,-21 -8,-27 -6,-6 -15,-9 -28,-9 -11,0 -20,4 -27,10 -7,6 -11,15 -12,26l0 112 -29 0 0 -111c0,-24 -12,-37 -36,-37 -19,0 -32,9 -39,25l0 123 -29 0 0 -169 27 0zm357 169c-1,-4 -3,-9 -4,-18 -13,14 -29,21 -48,21 -16,0 -30,-5 -41,-14 -10,-10 -16,-22 -16,-36 0,-18 7,-31 20,-41 14,-10 33,-14 57,-14l28 0 0 -14c0,-10 -3,-18 -9,-24 -6,-6 -15,-9 -27,-9 -10,0 -19,3 -26,8 -7,5 -10,11 -10,19l-29 0c0,-9 3,-17 9,-25 6,-7 14,-14 24,-18 10,-5 22,-7 34,-7 19,0 35,5 46,14 11,10 16,24 17,41l0 77c0,16 2,28 6,37l0 3 -31 0zm-47 -22c9,0 17,-2 25,-7 8,-4 14,-11 18,-18l0 -35 -23 0c-35,0 -53,10 -53,31 0,9 3,17 9,22 6,5 14,7 24,7zm144 -147l1 21c13,-16 30,-24 51,-24 36,0 53,20 54,60l0 112 -29 0 0 -112c0,-12 -3,-21 -8,-27 -6,-6 -14,-9 -26,-9 -9,0 -17,3 -25,8 -7,5 -12,11 -16,20l0 120 -29 0 0 -169 27 0zm413 69c-6,7 -13,13 -21,17 -9,5 -18,7 -28,7 -13,0 -24,-4 -34,-10 -10,-6 -17,-15 -23,-27 -5,-12 -7,-25 -7,-39 0,-15 2,-29 8,-41 6,-12 14,-21 25,-28 10,-6 23,-10 37,-10 22,0 40,9 53,26 13,16 19,39 19,68l0 9c0,44 -8,76 -26,96 -17,21 -44,31 -79,32l-5 0 0 -25 6 0c23,0 42,-6 54,-18 13,-12 20,-31 21,-57zm-44 0c10,0 19,-3 27,-9 8,-6 14,-13 18,-22l0 -11c0,-19 -5,-35 -13,-46 -8,-12 -18,-18 -31,-18 -13,0 -23,5 -31,14 -7,10 -11,23 -11,39 0,15 4,28 11,38 7,10 17,15 30,15zm224 0c-6,7 -13,13 -22,17 -8,5 -17,7 -27,7 -13,0 -25,-4 -35,-10 -9,-6 -17,-15 -22,-27 -5,-12 -8,-25 -8,-39 0,-15 3,-29 9,-41 5,-12 14,-21 24,-28 11,-6 23,-10 37,-10 23,0 40,9 53,26 13,16 20,39 20,68l0 9c0,44 -9,76 -26,96 -18,21 -44,31 -80,32l-5 0 0 -25 6 0c24,0 42,-6 55,-18 13,-12 20,-31 21,-57zm-45 0c10,0 19,-3 27,-9 8,-6 14,-13 18,-22l0 -11c0,-19 -4,-35 -12,-46 -9,-12 -19,-18 -32,-18 -12,0 -22,5 -30,14 -8,10 -12,23 -12,39 0,15 4,28 11,38 8,10 18,15 30,15zm227 -127l0 24 -6 0c-22,1 -40,7 -53,20 -14,13 -21,31 -23,54 12,-13 28,-20 49,-20 19,0 35,7 47,21 12,14 18,32 18,54 0,23 -7,42 -19,56 -13,14 -30,21 -52,21 -21,0 -39,-8 -52,-25 -14,-17 -21,-38 -21,-65l0 -11c0,-41 9,-73 27,-95 18,-23 44,-34 80,-34l5 0zm-38 102c-10,0 -19,3 -27,9 -9,6 -15,14 -18,22l0 11c0,19 4,34 13,45 8,11 19,17 31,17 13,0 24,-5 31,-14 7,-10 11,-22 11,-38 0,-15 -4,-28 -11,-37 -8,-10 -18,-15 -30,-15zm215 25c-7,7 -14,13 -22,17 -8,5 -18,7 -28,7 -13,0 -24,-4 -34,-10 -10,-6 -17,-15 -22,-27 -6,-12 -8,-25 -8,-39 0,-15 2,-29 8,-41 6,-12 14,-21 25,-28 10,-6 23,-10 37,-10 22,0 40,9 53,26 13,16 20,39 20,68l0 9c0,44 -9,76 -27,96 -17,21 -44,31 -79,32l-5 0 0 -25 6 0c23,0 42,-6 55,-18 12,-12 19,-31 21,-57zm-45 0c10,0 19,-3 27,-9 8,-6 14,-13 18,-22l0 -11c0,-19 -4,-35 -13,-46 -8,-12 -18,-18 -31,-18 -13,0 -23,5 -30,14 -8,10 -12,23 -12,39 0,15 4,28 11,38 8,10 18,15 30,15zm208 100l-29 0 0 -193 -58 22 0 -26 83 -31 4 0 0 228zm227 -97c0,34 -6,59 -17,75 -12,17 -30,25 -54,25 -25,0 -43,-8 -54,-24 -12,-16 -18,-40 -18,-72l0 -39c0,-33 5,-58 17,-74 12,-16 30,-25 54,-25 25,0 43,8 54,24 12,16 18,40 18,72l0 38zm-29 -40c0,-24 -3,-42 -10,-53 -7,-11 -18,-17 -33,-17 -14,0 -25,6 -32,17 -7,11 -10,28 -10,51l0 46c0,25 3,43 10,55 7,11 18,17 33,17 14,0 24,-5 31,-16 7,-11 11,-29 11,-52l0 -48zm215 137l-149 0 0 -21 79 -87c11,-14 19,-24 24,-33 4,-8 6,-17 6,-25 0,-12 -3,-22 -10,-30 -8,-7 -17,-11 -29,-11 -14,0 -26,4 -34,12 -8,8 -11,20 -11,34l-29 0c0,-20 6,-37 20,-50 13,-13 31,-20 54,-20 21,0 38,6 50,17 12,11 18,26 18,44 0,23 -14,49 -42,80l-61 66 114 0 0 24zm72 -128l22 0c14,0 24,-4 32,-11 8,-7 12,-16 12,-28 0,-27 -13,-40 -40,-40 -12,0 -22,4 -30,11 -7,7 -11,16 -11,28l-29 0c0,-18 7,-33 20,-45 13,-12 30,-18 50,-18 21,0 38,6 50,17 13,12 19,28 19,48 0,10 -3,19 -10,29 -6,9 -15,16 -26,20 12,4 22,11 29,20 7,9 10,20 10,34 0,20 -7,36 -20,48 -13,12 -30,18 -52,18 -21,0 -38,-6 -52,-17 -13,-12 -20,-27 -20,-46l29 0c0,12 4,21 12,29 8,7 18,10 31,10 14,0 25,-3 32,-11 8,-7 11,-17 11,-31 0,-13 -4,-23 -12,-30 -8,-7 -20,-11 -35,-11l-22 0 0 -24zm275 -40c0,11 -3,21 -8,30 -6,9 -15,16 -25,21 12,5 21,12 28,22 7,10 11,21 11,33 0,20 -7,36 -20,47 -13,12 -31,18 -52,18 -22,0 -40,-6 -53,-18 -13,-11 -20,-27 -20,-47 0,-12 4,-23 10,-33 7,-10 16,-17 28,-22 -10,-5 -18,-12 -24,-21 -5,-9 -8,-19 -8,-30 0,-19 6,-35 18,-46 12,-11 29,-17 49,-17 20,0 36,6 48,17 12,11 18,27 18,46zm-23 106c0,-13 -4,-23 -12,-31 -8,-8 -19,-12 -32,-12 -13,0 -23,4 -31,12 -8,7 -12,18 -12,31 0,13 4,23 12,30 7,8 18,11 32,11 13,0 24,-3 31,-11 8,-7 12,-17 12,-30zm-43 -145c-12,0 -21,4 -28,11 -7,7 -10,16 -10,28 0,12 3,21 10,28 7,7 16,11 28,11 11,0 20,-4 27,-11 7,-7 11,-16 11,-28 0,-11 -4,-21 -11,-28 -7,-7 -16,-11 -27,-11zm121 93l12 -113 116 0 0 26 -92 0 -6 62c11,-6 23,-9 37,-9 21,0 38,6 50,20 12,14 18,32 18,55 0,24 -6,42 -19,56 -13,13 -30,20 -53,20 -20,0 -36,-6 -49,-17 -13,-11 -20,-26 -22,-46l28 0c1,13 6,23 13,29 8,7 18,10 30,10 13,0 24,-4 32,-13 7,-10 11,-22 11,-38 0,-15 -4,-28 -12,-37 -9,-9 -20,-14 -33,-14 -13,0 -23,3 -30,9l-8 6 -23 -6zm-1782 99c0,-5 2,-10 5,-13 3,-3 7,-5 13,-5 6,0 11,2 14,5 3,3 4,8 4,13 0,4 -1,8 -4,12 -3,3 -8,4 -14,4 -6,0 -10,-1 -13,-4 -3,-4 -5,-8 -5,-12zm1 -138c0,-5 1,-9 4,-13 3,-3 8,-5 13,-5 6,0 11,2 14,5 3,4 5,8 5,13 0,5 -2,9 -5,12 -3,3 -8,5 -14,5 -5,0 -10,-2 -13,-5 -3,-3 -4,-7 -4,-12z"/>
   <path class="fil2" d="M3296 2728c0,-909 -737,-1646 -1646,-1646 -909,0 -1646,737 -1646,1646 0,909 737,1646 1646,1646 909,0 1646,-737 1646,-1646z"/>
   <path class="fil3" d="M3296 2728c0,-909 -737,-1646 -1646,-1646 -909,0 -1646,737 -1646,1646 0,909 737,1646 1646,1646 909,0 1646,-737 1646,-1646z"/>
   <path class="fil4" d="M281 3218l46 -18c-5,11 -5,21 -5,33 0,11 2,21 5,28 2,8 5,13 7,16 3,2 5,7 8,7 5,3 7,5 10,5 3,0 5,0 8,-2 5,0 7,-3 10,-5 2,-5 2,-8 5,-13 0,-5 0,-10 2,-18 0,-5 0,-12 0,-20 0,-18 3,-33 11,-43 5,-10 15,-21 27,-26 11,-2 21,-5 28,-2 11,0 18,2 26,7 7,6 15,13 20,21 8,10 13,18 15,28 5,12 8,20 11,30 2,8 2,15 2,23l-41 18c0,-5 3,-10 3,-15 0,-3 0,-8 -3,-13 0,-5 0,-10 -2,-13 0,-5 0,-10 -3,-13 -2,-5 -5,-10 -7,-12 -3,-5 -5,-8 -8,-10 -2,-3 -5,-3 -10,-3 -3,-2 -5,0 -8,0 -2,3 -5,3 -7,8 -3,2 -5,5 -5,10 0,2 -3,7 -3,13 0,5 0,12 0,20 0,7 0,18 -2,25 0,8 -3,13 -6,21 -2,5 -7,12 -12,17 -5,3 -10,8 -21,11 -10,5 -20,7 -30,5 -8,0 -15,-5 -23,-11 -7,-5 -15,-10 -20,-20 -8,-7 -13,-18 -15,-28 -6,-10 -8,-23 -11,-33 -2,-10 -2,-20 -2,-28zm310 249l-31 -53 -150 86 -25 -43 152 -84 -30 -53 33 -20 84 147 -33 20 0 0zm73 214c-48,40 -91,40 -129,-6 -38,-43 -33,-86 13,-127l94 -81 30 38 -94 79c-25,23 -28,46 -13,66 18,20 41,18 66,-3l94 -81 31 36 -92 79zm-7 121l132 -165 61 46c58,48 66,99 23,152 -21,26 -46,41 -74,44 -28,2 -56,-8 -84,-28l-58 -49 0 0zm147 -104l-86 104 20 16c15,12 33,17 48,15 18,-3 33,-13 46,-28 13,-15 18,-33 18,-48 -3,-18 -13,-31 -28,-46l-18 -13 0 0zm175 328l-109 -64 104 -185 107 61 -20 36 -64 -39 -23 41 59 36 -18 33 -61 -33 -23 40 69 41 -21 33 0 0zm247 104l-46 -18 -33 -157c-3,-8 -3,-15 -3,-20l0 0c-2,7 -7,17 -12,33l-43 109 -41 -15 76 -199 48 18 33 150c0,8 3,15 3,20l0 0c3,-5 5,-12 10,-28l43 -109 41 18 -76 198zm264 -124l-59 -11 -30 171 -46 -8 28 -170 -58 -10 5 -38 168 28 -8 38zm30 172l3 -48c8,8 18,13 28,18 10,2 20,5 30,5 5,0 11,0 16,-3 5,0 7,-2 10,-2 5,-3 5,-5 7,-8 3,-2 3,-5 3,-7 0,-5 0,-8 -3,-13 -2,-3 -5,-5 -10,-8 -5,-2 -10,-7 -15,-10 -5,-2 -10,-5 -18,-7 -15,-8 -28,-16 -35,-26 -8,-10 -13,-23 -13,-35 0,-13 2,-23 8,-31 5,-8 10,-13 17,-18 8,-5 18,-10 28,-10 10,-2 21,-5 31,-5 12,0 23,3 30,3 8,2 15,5 23,7l0 43c-2,-2 -8,-2 -13,-5 -2,-2 -7,-5 -12,-5 -3,-2 -8,-2 -13,-2 -5,-3 -8,-3 -13,-3 -5,0 -10,0 -15,3 -2,0 -8,2 -10,2 -3,3 -5,5 -8,8 -2,2 -2,5 -2,7 0,6 0,8 2,11 3,2 5,5 8,7 2,3 8,5 13,8 5,2 10,5 17,8 8,5 16,7 23,12 5,5 10,10 15,15 6,6 11,11 13,16 0,7 3,15 3,23 0,12 -3,22 -8,30 -5,8 -10,15 -18,20 -7,5 -17,8 -28,11 -10,0 -20,2 -33,2 -10,0 -23,-2 -33,-5 -10,-3 -20,-5 -28,-8zm252 -213l-26 69 -27 0 12 -66 41 -3zm289 160c-15,10 -33,18 -58,25 -30,5 -58,3 -81,-12 -23,-13 -36,-36 -43,-69 -8,-33 -6,-61 10,-86 17,-26 40,-43 73,-51 21,-3 38,-5 54,-3l10 44c-15,-5 -33,-5 -51,0 -18,5 -33,12 -43,28 -8,15 -10,33 -5,55 5,18 13,33 28,44 12,10 30,12 48,7 18,-5 36,-12 48,-25l10 43 0 0zm158 -46c-28,10 -56,10 -81,0 -26,-12 -44,-33 -56,-61 -13,-33 -13,-61 -3,-86 10,-28 31,-46 61,-58 28,-13 54,-13 79,0 25,10 43,33 56,61 12,33 12,60 2,86 -10,28 -30,46 -58,58zm-66 -167c-15,7 -26,17 -31,33 -2,15 -2,33 5,50 8,21 21,33 33,41 16,8 28,10 44,3 15,-5 25,-16 30,-31 5,-15 3,-30 -5,-51 -8,-20 -20,-35 -33,-43 -13,-7 -28,-7 -43,-2zm325 -87c33,54 25,97 -25,127 -49,31 -89,21 -122,-33l-66 -101 40 -28 66 104c18,30 38,38 61,23 23,-13 26,-36 8,-64l-69 -104 41 -28 66 104zm257 -111l-36 33 -155 -36c-10,-3 -18,-5 -20,-5l0 0c5,5 12,13 23,23l81 86 -33 31 -147 -155 38 -36 149 36c8,2 16,5 21,5l0 0c-3,-3 -10,-10 -21,-21l-81 -83 33 -33 148 155zm139 -199c-2,18 -12,36 -25,56 -20,28 -43,43 -69,46 -25,5 -53,-3 -78,-20 -28,-21 -44,-46 -49,-74 -7,-30 0,-58 21,-86 12,-16 22,-28 35,-38l38 28c-15,5 -28,17 -38,33 -10,15 -15,33 -13,48 3,18 13,33 31,46 18,12 33,15 51,12 17,0 30,-10 43,-25 10,-15 15,-33 18,-51l35 25 0 0zm69 -104l-23 41 -185 -104 22 -41 186 104zm89 -198l-46 117 -201 -76 18 -46 163 64 28 -74 38 15z"/>
   <path class="fil5" d="M977 2159c-120,5 -315,86 -379,145 -68,63 -38,114 -2,190 28,56 58,122 89,181 45,96 317,680 345,716l-84 -765 308 51 297 765c25,63 71,218 107,251l393 -1018 305 -49 -81 737c5,18 2,10 7,23 16,-48 64,-142 87,-186 117,-233 236,-508 353,-736 46,-94 13,-137 -46,-183 -74,-51 -302,-135 -406,-137 53,-3 510,160 99,315 -442,165 -1570,109 -1603,-135 -13,-99 145,-127 211,-165l0 0 0 0z"/>
   <path class="fil5" d="M1602 2019c-262,61 -165,468 101,399 254,-63 173,-467 -101,-399z"/>
   <path class="fil5" d="M680 1768c-209,63 -112,378 96,315 203,-64 117,-379 -96,-315z"/>
   <path class="fil5" d="M2519 1773c-214,84 -77,386 119,305 196,-84 81,-384 -119,-305z"/>
   <path class="fil4" d="M1326 1488l-66 20 -98 -80c-1,-1 -5,-5 -10,-10l0 0 34 113 -52 15 -70 -230 52 -16 33 109 1 0c0,-4 1,-9 2,-15l35 -116 61 -18 -46 134 124 94z"/>
   <path class="fil4" d="M1476 1361c5,32 1,58 -11,77 -12,19 -32,31 -60,36 -12,2 -24,1 -35,-1l-8 -51c10,6 21,8 32,6 25,-4 34,-24 28,-60l-22 -142 53 -8 23 143z"/>
   <path class="fil4" d="M1564 1438l-1 -53c10,8 20,13 32,17 11,4 23,6 34,6 7,0 13,-1 18,-2 5,-2 10,-3 13,-6 3,-2 6,-5 7,-7 2,-3 3,-7 3,-10 0,-5 -2,-9 -4,-13 -3,-3 -7,-7 -12,-10 -4,-3 -10,-6 -16,-9 -7,-2 -14,-5 -21,-8 -19,-8 -33,-17 -43,-28 -9,-11 -14,-25 -14,-41 0,-12 2,-23 7,-32 5,-9 11,-17 20,-23 9,-6 18,-10 30,-13 11,-3 23,-5 36,-5 13,0 24,0 33,2 10,1 19,3 27,6l1 50c-4,-2 -8,-5 -13,-7 -5,-2 -10,-3 -15,-5 -5,-1 -10,-2 -15,-3 -5,0 -10,0 -14,0 -6,0 -12,0 -17,2 -5,1 -9,3 -13,5 -3,2 -6,5 -8,8 -1,3 -2,6 -2,10 0,4 1,7 3,10 2,4 5,7 9,9 4,3 9,6 15,8 5,3 12,6 19,9 10,3 18,8 26,12 8,4 15,9 20,15 6,6 10,12 13,19 3,8 5,16 5,26 0,13 -2,25 -7,34 -5,9 -12,17 -21,22 -8,6 -18,11 -30,13 -11,3 -24,4 -36,5 -14,0 -26,-1 -38,-3 -12,-2 -23,-5 -31,-10z"/>
   <path class="fil4" d="M1975 1473c-19,6 -42,6 -70,2 -36,-6 -63,-21 -81,-46 -18,-25 -23,-55 -18,-91 6,-38 23,-67 50,-87 27,-20 60,-27 97,-21 24,4 43,10 58,19l-9 51c-14,-12 -31,-20 -52,-23 -22,-3 -41,1 -57,13 -16,12 -26,30 -30,54 -3,23 0,42 11,58 11,15 27,25 49,28 21,4 41,2 60,-6l-8 49z"/>
   <polygon class="fil4" points="2180,1558 2045,1506 2132,1281 2261,1331 2246,1372 2167,1342 2147,1392 2221,1420 2205,1461 2132,1433 2112,1484 2196,1517 "/>
  </g>
 </g>
 <g id="Layer_x0020_1_0">
  <metadata id="CorelCorpID_1Corel-Layer"/>
 </g>
</svg>
