<?xml version="1.0" encoding="UTF-8"?>
<!DOCTYPE svg PUBLIC "-//W3C//DTD SVG 1.1//EN" "http://www.w3.org/Graphics/SVG/1.1/DTD/svg11.dtd">
<!-- Creator: CorelDRAW X7 -->
<svg xmlns="http://www.w3.org/2000/svg" xml:space="preserve" width="192.109mm" height="102.193mm" version="1.1" style="shape-rendering:geometricPrecision; text-rendering:geometricPrecision; image-rendering:optimizeQuality; fill-rule:evenodd; clip-rule:evenodd"
viewBox="0 0 19211 10219"
 xmlns:xlink="http://www.w3.org/1999/xlink">
 <defs>
  <style type="text/css">
   <![CDATA[
    .str3 {stroke:#61003F;stroke-width:51.57;stroke-linecap:round;stroke-linejoin:round}
    .str2 {stroke:#61003F;stroke-width:51.57;stroke-linecap:round;stroke-linejoin:round}
    .str4 {stroke:#61003F;stroke-width:51.57;stroke-linecap:round;stroke-linejoin:round}
    .str1 {stroke:#61003F;stroke-width:37.55;stroke-linecap:round;stroke-linejoin:round}
    .str0 {stroke:#61003F;stroke-width:37.55;stroke-linecap:round;stroke-linejoin:round}
    .str6 {stroke:#61003F;stroke-width:27.52;stroke-linecap:round;stroke-linejoin:round}
    .str5 {stroke:#61003F;stroke-width:27.52;stroke-linecap:round;stroke-linejoin:round}
    .str7 {stroke:#61003F;stroke-width:27.52;stroke-linecap:round;stroke-linejoin:round}
    .fil4 {fill:none}
    .fil1 {fill:#61003F}
    .fil3 {fill:#FFF4F0}
    .fil5 {fill:#FFF4F0}
    .fil2 {fill:white}
    .fil0 {fill:#61003F;fill-rule:nonzero}
   ]]>
  </style>
 </defs>
 <g id="Layer_x0020_1">
  <metadata id="CorelCorpID_0Corel-Layer"/>
  <g id="_1876337306720">
   <path class="fil0" d="M2877 4725c-11,234 -74,440 -189,619 -115,179 -278,318 -486,416 -208,99 -446,148 -714,148 -441,0 -789,-144 -1042,-431 -254,-288 -381,-694 -381,-1218l0 -166c0,-330 57,-618 172,-864 114,-247 280,-438 495,-573 215,-134 464,-201 747,-201 408,0 735,107 983,322 248,214 388,510 422,886l-807 0c-7,-204 -58,-352 -155,-441 -97,-89 -245,-134 -443,-134 -202,0 -349,75 -443,226 -93,151 -143,392 -148,723l0 238c0,358 45,615 136,769 90,154 245,231 464,231 186,0 329,-44 427,-131 99,-89 150,-228 157,-419l805 0z"/>
   <path id="1" class="fil0" d="M6104 4251c0,327 -61,618 -182,870 -121,253 -294,447 -518,583 -224,137 -479,204 -765,204 -285,0 -540,-66 -761,-197 -221,-132 -394,-320 -518,-565 -124,-244 -188,-525 -195,-842l0 -189c0,-330 60,-620 182,-872 120,-251 293,-446 518,-583 226,-137 482,-205 770,-205 284,0 538,67 761,203 223,135 396,328 521,578 123,250 185,537 187,860l0 155zm-824 -142c0,-335 -55,-588 -167,-761 -111,-174 -270,-260 -478,-260 -407,0 -621,305 -644,915l-2 247c0,329 54,583 164,760 109,177 271,265 486,265 205,0 363,-87 473,-261 111,-174 167,-424 168,-751l0 -154z"/>
   <polygon id="2" class="fil0" points="7587,2502 8336,4839 9083,2502 10150,2502 10150,5861 9338,5861 9338,5077 9416,3471 8604,5861 8069,5861 7254,3469 7333,5077 7333,5861 6523,5861 6523,2502 "/>
   <polygon id="3" class="fil0" points="11527,5861 10720,5861 10720,2502 11527,2502 "/>
   <polygon id="4" class="fil0" points="14894,5861 14090,5861 12899,3770 12899,5861 12090,5861 12090,2502 12899,2502 14087,4593 14087,2502 14894,2502 "/>
   <path id="5" class="fil0" d="M18158 5446c-125,139 -307,250 -547,335 -240,85 -503,127 -789,127 -439,0 -791,-134 -1054,-404 -263,-269 -404,-643 -422,-1123l-3 -291c0,-331 59,-619 176,-866 116,-246 284,-437 501,-570 218,-133 470,-199 756,-199 418,0 743,96 974,287 232,191 367,477 406,857l-781 0c-27,-188 -87,-321 -179,-401 -92,-79 -223,-120 -392,-120 -203,0 -360,86 -471,259 -110,172 -167,418 -169,737l0 203c0,335 58,587 173,755 114,168 294,253 541,253 210,0 367,-48 470,-141l0 -521 -563 0 0 -557 1373 0 0 1380z"/>
   <path id="6" class="fil0" d="M4727 8995c0,-119 -42,-211 -126,-278 -84,-66 -231,-134 -441,-205 -211,-71 -383,-139 -517,-206 -435,-214 -653,-507 -653,-881 0,-186 54,-351 162,-493 109,-143 263,-253 461,-333 198,-79 421,-119 669,-119 241,0 458,44 649,130 192,85 340,208 447,367 106,159 159,341 159,545l-807 0c0,-137 -43,-243 -126,-319 -85,-75 -198,-113 -341,-113 -144,0 -259,32 -342,96 -84,64 -126,146 -126,244 0,87 46,165 139,235 92,70 254,142 486,217 232,75 423,156 572,242 363,209 545,497 545,866 0,294 -111,524 -333,692 -221,168 -525,252 -911,252 -272,0 -518,-49 -739,-147 -220,-97 -387,-231 -498,-401 -112,-170 -167,-366 -167,-588l811 0c0,180 47,313 140,398 93,86 244,128 453,128 134,0 240,-29 318,-86 77,-58 116,-139 116,-243z"/>
   <path id="7" class="fil0" d="M8795 8276c0,328 -61,619 -182,871 -121,252 -294,447 -518,583 -224,136 -479,204 -765,204 -285,0 -540,-66 -761,-198 -221,-131 -394,-319 -518,-564 -124,-244 -188,-525 -195,-843l0 -189c0,-329 60,-619 181,-871 121,-252 294,-446 519,-583 226,-137 482,-206 770,-206 284,0 538,68 761,204 223,135 396,328 520,578 124,250 186,537 188,860l0 154zm-824 -141c0,-335 -55,-588 -167,-762 -111,-173 -271,-260 -478,-260 -407,0 -621,305 -644,915l-2 248c0,329 54,582 164,759 108,178 271,266 486,266 205,0 363,-88 473,-262 111,-174 167,-423 168,-750l0 -154z"/>
   <path id="8" class="fil0" d="M12057 8276c0,328 -61,619 -182,871 -121,252 -294,447 -518,583 -224,136 -479,204 -765,204 -285,0 -540,-66 -761,-198 -221,-131 -394,-319 -518,-564 -124,-244 -188,-525 -195,-843l0 -189c0,-329 60,-619 182,-871 120,-252 293,-446 518,-583 226,-137 482,-206 770,-206 284,0 538,68 761,204 223,135 396,328 521,578 123,250 185,537 187,860l0 154zm-824 -141c0,-335 -55,-588 -167,-762 -111,-173 -270,-260 -478,-260 -407,0 -621,305 -644,915l-2 248c0,329 54,582 164,759 109,178 271,266 486,266 205,0 363,-88 473,-262 111,-174 167,-423 168,-750l0 -154z"/>
   <polygon id="9" class="fil0" points="15281,9887 14476,9887 13285,7796 13285,9887 12476,9887 12476,6528 13285,6528 14473,8618 14473,6528 15281,6528 "/>
   <g>
    <rect class="fil1" x="16029" y="4450" width="2355.34" height="47.2743"/>
    <rect class="fil1" x="12891" y="3371" width="2355.34" height="94.5582"/>
    <rect class="fil1" x="16811" y="4042" width="1370.1" height="27.4975"/>
    <rect class="fil2" x="16677" y="4121" width="2257.8" height="94.5582"/>
    <rect class="fil1" x="13858" y="3240" width="1766.5" height="43.4476"/>
    <rect class="fil2" x="14459" y="3513" width="1370.1" height="27.4975"/>
    <rect class="fil2" x="14707" y="3166" width="1766.5" height="12.1041"/>
    <rect class="fil2" x="17153" y="3557" width="1177.66" height="94.5582"/>
    <rect class="fil1" x="17379" y="3762" width="1080.73" height="62.4283"/>
    <rect class="fil1" x="17741" y="5479" width="1035.97" height="62.4283"/>
    <rect class="fil1" x="18502" y="4765" width="518" height="125"/>
    <rect class="fil1" x="18085" y="4940" width="602.626" height="36.312"/>
    <rect class="fil2" x="18173" y="5044" width="1036" height="125"/>
    <rect class="fil1" x="6101" y="3674" width="2355.34" height="47.2743"/>
    <rect class="fil1" x="3864" y="3837" width="2355.34" height="94.5582"/>
    <rect class="fil1" x="2963" y="2595" width="2355.34" height="94.5582"/>
    <rect class="fil1" x="6883" y="3266" width="1370.1" height="27.4975"/>
    <rect class="fil2" x="7084" y="3345" width="2355.34" height="94.5582"/>
    <rect class="fil2" x="4531" y="2737" width="1370.1" height="27.4975"/>
    <rect class="fil2" x="4779" y="2390" width="1766.5" height="12.1041"/>
    <rect class="fil2" x="7225" y="2781" width="1177.66" height="94.5582"/>
    <rect class="fil1" x="7451" y="2986" width="1080.73" height="62.4283"/>
    <rect class="fil1" x="8194" y="4703" width="1080.73" height="62.4283"/>
    <rect class="fil1" x="8988" y="3989" width="540" height="125"/>
    <rect class="fil1" x="8553" y="4164" width="628.66" height="36.312"/>
    <rect class="fil2" x="8645" y="4268" width="1081" height="125"/>
    <rect class="fil1" x="2334" y="4827" width="742" height="122"/>
    <rect class="fil1" x="1737" y="4997" width="862.795" height="35.3912"/>
    <rect class="fil2" x="1863" y="5098" width="1483" height="122"/>
    <rect class="fil1" x="161" y="4734" width="1483.23" height="60.8452"/>
    <rect class="fil1" x="472" y="4209" width="862.795" height="35.3912"/>
    <rect class="fil2" x="2" y="4310" width="1483" height="122"/>
    <rect class="fil1" x="10430" y="4848" width="483.287" height="79.3107"/>
    <rect class="fil1" x="10740" y="4794" width="562.262" height="23.0635"/>
    <rect class="fil2" x="10253" y="4671" width="966.584" height="79.3107"/>
    <rect class="fil1" x="11869" y="4949" width="966.584" height="39.6513"/>
    <rect class="fil1" x="11643" y="5362" width="483.287" height="79.3107"/>
    <rect class="fil1" x="11953" y="5307" width="562.262" height="23.0635"/>
    <rect class="fil2" x="11466" y="5185" width="966.584" height="79.3107"/>
   </g>
   <g>
    <rect class="fil1" x="3898" y="8271" width="3418.77" height="52.5193"/>
    <rect class="fil1" x="8454" y="7072" width="3419" height="105"/>
    <rect class="fil1" x="4193" y="7818" width="1988.7" height="30.5483"/>
    <rect class="fil2" x="3100" y="7905" width="3277" height="105"/>
    <rect class="fil1" x="7905" y="6926" width="2564.08" height="48.2681"/>
    <rect class="fil2" x="7608" y="7230" width="1988.7" height="30.5483"/>
    <rect class="fil2" x="6672" y="6844" width="2564.08" height="13.447"/>
    <rect class="fil2" x="3977" y="7278" width="1709" height="105"/>
    <rect class="fil1" x="3790" y="7506" width="1568.68" height="69.3546"/>
    <rect class="fil1" x="3329" y="9414" width="1503.71" height="69.3546"/>
    <rect class="fil1" x="2977" y="8621" width="752" height="139"/>
    <rect class="fil1" x="3459" y="8815" width="874.711" height="40.3408"/>
    <rect class="fil2" x="2702" y="8930" width="1504" height="139"/>
    <rect class="fil1" x="14743" y="8713" width="701.492" height="88.1102"/>
    <rect class="fil1" x="14179" y="8652" width="816.123" height="25.6224"/>
    <rect class="fil2" x="14298" y="8517" width="1403" height="88.1102"/>
    <rect class="fil1" x="11952" y="8825" width="1403" height="44.0506"/>
    <rect class="fil1" x="12982" y="9284" width="701.492" height="88.1102"/>
    <rect class="fil1" x="12418" y="9223" width="816.123" height="25.6224"/>
    <rect class="fil2" x="12537" y="9088" width="1403" height="88.1102"/>
   </g>
   <g>
    <polygon class="fil3 str0" points="3228,1660 2757,1763 2539,2589 3157,2080 "/>
    <g>
     <path class="fil3" d="M2768 1926l-229 663 229 -132 0 -531zm-229 -133l-460 266 0 -1327 -230 132 575 -862 574 199 -230 133 0 1326 -229 133zm0 796l0 -796 689 -398 0 265 -689 929zm229 1460l690 -398 0 -2123 -690 398 0 0 0 531 0 1592z"/>
     <path id="1" class="fil4 str1" d="M2768 1926l-229 663 229 -132m-229 -664l-460 266 0 -1327 -230 132 575 -862 574 199 -230 133 0 1326m-229 929l0 -796 689 -398 0 265m-460 2389l690 -398 0 -2123 -690 398 0 0 0 531 0 1592z"/>
    </g>
   </g>
   <g id="_1876337309376">
    <path class="fil5 str2" d="M16559 7178l-1429 824c-53,36 -106,92 -147,163 -41,71 -63,145 -67,209l0 730c4,59 27,107 68,131 41,24 93,19 147,-7l50 -29 0 614 399 -844 980 -566c53,-35 106,-92 147,-163 41,-70 63,-144 67,-208l0 -672 0 -58c-4,-60 -26,-107 -68,-131 -41,-24 -93,-20 -147,7z"/>
    <path class="fil5 str3" d="M16784 7380l-1429 825c-54,36 -106,92 -147,163 -41,71 -63,144 -68,209l0 729c5,60 27,108 68,131 42,24 94,20 148,-6l50 -29 0 613 398 -843 981 -566c53,-36 105,-92 146,-163 41,-71 64,-144 68,-209l0 -672 0 -58c-4,-59 -27,-107 -68,-131 -41,-23 -94,-19 -147,7z"/>
    <path class="fil5 str4" d="M17008 7583l-1429 824c-53,36 -105,92 -146,163 -41,71 -64,145 -68,209l0 730c4,59 27,107 68,131 41,24 94,19 147,-7l51 -29 0 614 398 -844 980 -566c54,-35 106,-92 147,-163 41,-70 63,-144 68,-208l0 -672 0 -58c-5,-60 -27,-107 -68,-131 -41,-24 -94,-20 -148,7z"/>
   </g>
   <g id="_1876337307488">
    <polygon class="fil3 str5" points="2697,7605 2697,6044 4049,6304 "/>
    <polygon class="fil3 str5" points="1345,8386 2697,6825 1345,6825 "/>
    <polygon class="fil3 str5" points="1345,6825 1345,8386 1120,8255 1120,6695 2472,6695 2472,5914 3824,6174 4049,6304 2697,6044 2697,6825 "/>
    <polygon class="fil3 str5" points="2697,6825 2697,7605 2472,7475 2483,7072 "/>
    <line class="fil4 str5" x1="2472" y1="6695" x2="2697" y2= "6825" />
    <line class="fil4 str6" x1="1120" y1="6695" x2="1345" y2= "6825" />
    <line class="fil4 str7" x1="2472" y1="5914" x2="2697" y2= "6044" />
   </g>
  </g>
 </g>
</svg>
