<?xml version="1.0" encoding="UTF-8"?>
<!DOCTYPE svg PUBLIC "-//W3C//DTD SVG 1.1//EN" "http://www.w3.org/Graphics/SVG/1.1/DTD/svg11.dtd">
<!-- Creator: CorelDRAW X7 -->
<svg xmlns="http://www.w3.org/2000/svg" xml:space="preserve" width="2.99697in" height="1.73181in" version="1.1" style="shape-rendering:geometricPrecision; text-rendering:geometricPrecision; image-rendering:optimizeQuality; fill-rule:evenodd; clip-rule:evenodd"
viewBox="0 0 2997 1732"
 xmlns:xlink="http://www.w3.org/1999/xlink">
 <defs>
  <style type="text/css">
   <![CDATA[
    .fil5 {fill:none}
    .fil1 {fill:#FEFEFE}
    .fil0 {fill:#FEFEFE;fill-rule:nonzero}
    .fil4 {fill:#2B2A29;fill-rule:nonzero}
    .fil2 {fill:#00A0E3;fill-rule:nonzero}
    .fil3 {fill:#FFC22B;fill-rule:nonzero}
   ]]>
  </style>
   <clipPath id="id0">
    <path d="M0 0l2997 0 0 1732 -2997 0 0 -1732z"/>
   </clipPath>
    <clipPath id="id1">
     <path d="M912 890l1173 0 0 485 -1173 0 0 -485z"/>
    </clipPath>
    <clipPath id="id2">
     <path d="M0 0l2997 0 0 1732 -2997 0 0 -1732z"/>
    </clipPath>
    <clipPath id="id3">
     <path d="M2850 1732l-210 0 0 -243 210 0 0 243z"/>
    </clipPath>
    <clipPath id="id4">
     <path d="M0 0l2997 0 0 1732 -2997 0 0 -1732z"/>
    </clipPath>
 </defs>
 <g id="Layer_x0020_1">
  <metadata id="CorelCorpID_0Corel-Layer"/>
  <g>
  </g>
  <g style="clip-path:url(#id0)">
   <g>
   </g>
   <g style="clip-path:url(#id1)">
    <image id="ProdigyLogo_Lockup-01.png" x="912" y="890" width="1173" height="485" xlink:href="composite_Images\composite_ImgID1.png"/>
   </g>
   <g style="clip-path:url(#id2)">
    <path class="fil0" d="M1328 868c0,6 -2,11 -4,14 -3,4 -6,5 -11,5 -5,0 -9,-1 -12,-5l0 19 -4 0 0 -53 4 0 0 6c3,-4 7,-7 12,-7 5,0 8,2 11,6 2,3 4,8 4,14l0 1zm-5 -1c0,-5 -1,-9 -3,-12 -2,-2 -4,-4 -8,-4 -3,0 -5,1 -7,2 -2,1 -3,3 -4,6l0 18c1,2 2,4 4,5 2,1 4,2 7,2 4,0 6,-2 8,-4 2,-3 3,-7 3,-13zm32 -15c-1,0 -2,0 -3,0 -3,0 -5,0 -7,2 -2,1 -3,3 -4,6l0 27 -4 0 0 -39 4 0 0 6c3,-4 6,-7 11,-7 1,0 2,1 3,1l0 4zm21 35c-3,0 -6,0 -9,-2 -3,-2 -5,-4 -6,-7 -2,-3 -2,-6 -2,-9l0 -2c0,-4 0,-7 2,-10 1,-3 3,-5 6,-7 2,-2 5,-3 8,-3 5,0 8,2 11,5 3,3 4,8 4,13l0 3 -27 0 0 1c0,4 1,8 4,10 2,3 5,5 9,5 2,0 4,-1 6,-1 2,-1 3,-3 5,-4l2 2c-3,4 -7,6 -13,6zm-1 -36c-3,0 -6,1 -8,4 -2,2 -4,5 -4,9l23 0 0 0c0,-4 -1,-7 -3,-9 -2,-3 -5,-4 -8,-4zm47 26c0,-2 -1,-4 -3,-5 -2,-1 -4,-2 -8,-3 -3,-1 -6,-2 -8,-3 -1,-1 -3,-2 -4,-3 -1,-1 -1,-3 -1,-5 0,-3 1,-6 4,-8 2,-2 5,-3 9,-3 5,0 8,2 11,4 2,2 4,5 4,8l-5 0c0,-2 -1,-4 -2,-6 -2,-1 -5,-2 -8,-2 -2,0 -5,1 -6,2 -2,1 -3,3 -3,5 0,2 1,3 2,4 2,1 4,2 8,3 4,1 7,2 8,3 2,1 4,2 5,4 0,1 1,3 1,5 0,3 -1,6 -4,7 -3,2 -6,3 -10,3 -5,0 -8,-1 -11,-3 -3,-2 -4,-5 -4,-8l4 0c0,2 1,4 3,6 2,1 5,2 8,2 3,0 5,-1 7,-2 2,-1 3,-3 3,-5zm28 10c-3,0 -6,0 -9,-2 -2,-2 -4,-4 -6,-7 -1,-3 -2,-6 -2,-9l0 -2c0,-4 1,-7 2,-10 2,-3 4,-5 6,-7 3,-2 6,-3 9,-3 4,0 8,2 11,5 2,3 4,8 4,13l0 3 -28 0 0 1c0,4 2,8 4,10 3,3 6,5 10,5 2,0 4,-1 6,-1 1,-1 3,-3 4,-4l3 2c-3,4 -8,6 -14,6zm0 -36c-4,0 -6,1 -9,4 -2,2 -3,5 -4,9l24 0 0 0c-1,-4 -2,-7 -4,-9 -2,-3 -4,-4 -7,-4zm27 -3l0 7c2,-3 4,-4 6,-6 2,-1 4,-2 7,-2 4,0 7,2 9,4 2,2 3,6 3,10l0 26 -4 0 0 -26c0,-3 -1,-6 -2,-7 -2,-2 -4,-3 -7,-3 -3,0 -5,1 -7,3 -2,1 -4,4 -5,6l0 27 -4 0 0 -39 4 0zm43 -10l0 10 8 0 0 4 -8 0 0 25c0,2 0,4 1,5 1,1 2,2 4,2 0,0 2,0 3,-1l0 4c-1,0 -2,0 -4,0 -3,0 -5,0 -7,-2 -1,-2 -2,-4 -2,-8l0 -25 -7 0 0 -4 7 0 0 -10 5 0zm31 49c-3,0 -6,0 -8,-2 -3,-2 -5,-4 -7,-7 -1,-3 -2,-6 -2,-9l0 -2c0,-4 1,-7 2,-10 2,-3 4,-5 6,-7 3,-2 6,-3 9,-3 4,0 8,2 11,5 2,3 4,8 4,13l0 3 -28 0 0 1c0,4 2,8 4,10 3,3 6,5 10,5 2,0 4,-1 6,-1 1,-1 3,-3 4,-4l3 2c-3,4 -8,6 -14,6zm0 -36c-4,0 -6,1 -8,4 -3,2 -4,5 -4,9l23 0 0 0c-1,-4 -2,-7 -4,-9 -2,-3 -4,-4 -7,-4zm21 16c0,-6 2,-11 4,-14 3,-4 7,-6 11,-6 5,0 9,3 12,7l0 -22 4 0 0 55 -4 0 0 -5c-3,3 -7,5 -12,5 -4,0 -8,-1 -11,-5 -2,-4 -4,-8 -4,-14l0 -1zm5 1c0,5 1,9 3,11 2,3 4,5 8,5 5,0 9,-3 11,-7l0 -18c-2,-5 -6,-8 -11,-8 -4,0 -6,2 -8,4 -2,3 -3,7 -3,13zm86 0c0,6 -1,11 -4,14 -2,4 -6,5 -10,5 -6,0 -10,-2 -13,-6l0 6 -4 0 0 -55 4 0 0 22c3,-4 7,-7 12,-7 5,0 9,2 11,6 3,3 4,8 4,14l0 1zm-4 -1c0,-5 -1,-9 -3,-12 -2,-2 -5,-4 -8,-4 -3,0 -5,1 -7,2 -2,2 -4,3 -5,6l0 17c3,5 6,8 12,8 3,0 6,-2 8,-5 2,-2 3,-6 3,-12zm25 14l12 -33 4 0 -16 45 -1 2c-2,5 -5,7 -10,7 -1,0 -2,0 -3,0l0 -4 2 0c2,0 4,0 5,-1 1,-1 3,-3 3,-5l2 -6 -14 -38 4 0 12 33z"/>
    <path class="fil0" d="M2494 1410c0,0 0,0 0,1l0 30c0,0 0,0 0,0l5 0c1,0 1,0 1,0l0 -30c0,-1 0,-1 -1,-1l-5 0zm3 -5c1,0 2,-1 2,-1 1,-1 1,-2 1,-3 0,-1 0,-2 -1,-2 0,-1 -1,-1 -2,-1 -1,0 -2,0 -3,1 0,0 -1,1 -1,2 0,1 1,2 1,3 1,0 2,1 3,1zm37 26c0,0 0,-2 0,-3l0 -1 0 -1c0,-1 0,-1 0,-2l0 -1c0,-1 0,-1 0,-1 0,-1 0,-2 0,-3 -1,-2 -2,-3 -3,-5 -1,-1 -3,-2 -5,-3 -1,0 -1,0 -2,0l-1 0c0,0 0,0 0,0l0 0 0 0c-1,0 -1,0 -1,0l0 0 0 0 0 0 0 0 -1 0 0 0c-2,0 -3,0 -5,1 0,0 -1,0 -1,1l0 -2c0,-1 0,-1 -1,-1l-5 0c0,0 0,0 0,1l0 30c0,0 0,0 0,0l5 0c1,0 1,0 1,0l0 -18 0 0c0,0 0,0 0,-1l0 0 0 0 0 0c0,0 0,0 0,-1 0,0 0,-1 0,-1 1,-1 1,-1 2,-2 1,-1 2,-2 4,-2l1 0 0 0 0 0 0 0 0 0c0,0 0,0 0,0l0 0 0 0c1,0 1,0 1,0l0 0c0,0 1,0 1,0 1,1 2,1 3,2 1,1 1,2 1,3 1,0 1,1 1,1l0 1 0 1c0,1 0,1 0,2l0 1 0 1c0,1 0,3 0,3 0,3 0,6 0,7l0 3c0,0 0,0 0,0l5 0c0,0 0,0 0,0l0 -3c0,-1 0,-4 0,-7zm36 5c-2,0 -3,-1 -4,-2 0,0 0,-1 0,-2 0,-1 0,-2 1,-3 1,-1 4,-2 8,-2 1,0 2,0 3,1 0,3 -1,5 -3,6 -1,1 -2,1 -3,1 0,1 -1,1 -2,1zm14 -10c0,0 0,0 0,-1l0 0c0,-2 0,-5 0,-6 -1,-2 -2,-4 -3,-6 -2,-2 -5,-3 -9,-3 -2,0 -5,1 -7,2 0,0 -1,1 -2,1 0,0 0,0 -1,1 0,0 0,0 0,0 0,0 0,0 0,1l4 3c0,0 0,0 0,0 0,0 1,0 1,0 0,-1 1,-1 1,-1 1,-1 3,-1 4,-1 2,0 4,0 5,1 0,1 1,3 1,5 -7,-1 -12,0 -15,3 -2,2 -3,4 -3,7 0,3 1,5 3,7 1,2 4,2 7,2 4,0 6,-1 9,-3 0,1 0,2 0,3 0,0 0,0 1,0l5 0c0,0 0,0 0,0 0,-1 0,-2 0,-2 0,-2 0,-3 -1,-4 0,-2 0,-5 0,-7 0,0 0,-1 0,-2zm28 6c0,-1 0,-1 0,-1l0 0c-1,-2 -1,-3 -2,-4 -1,-1 -2,-2 -3,-2 -1,-1 -2,-1 -3,-2l-1 0 -1 -1 0 0 0 0c-1,0 -2,-1 -2,-1 -1,0 -2,-1 -2,-1l0 0 0 0 0 -1 0 0 0 0 0 0 0 0 0 0 0 0 0 0 0 0 0 -1 0 0 0 0 0 0 0 0 0 0 0 0c0,-1 0,-1 0,-1 0,0 1,-1 1,-1 0,0 1,0 2,0l0 0 0 0c0,0 0,0 0,0l1 0 0 0c0,0 1,0 1,0 1,0 2,0 2,1 1,0 1,0 1,0 0,0 0,0 1,0 0,1 0,0 0,0l3 -3c1,0 1,0 0,0 0,-1 0,-1 0,-1 0,0 -1,0 -1,0 0,-1 -1,-1 -1,-1 -1,-1 -2,-1 -3,-1 -1,-1 -2,-1 -3,-1l0 0 -1 0c0,0 0,0 -1,0 -1,1 -2,1 -3,1 -1,1 -2,1 -3,2 -1,1 -1,2 -2,3 0,1 0,1 0,1 0,0 0,1 0,1l0 0 0 1c0,-1 0,-1 0,-1l0 1 0 0 0 0 0 0 0 0 0 0c0,0 0,1 0,1l0 0 0 0 0 1c1,0 1,0 1,0l0 1c0,0 0,0 0,1l1 0c0,0 0,1 0,1 1,0 2,1 3,2 0,0 1,1 3,1l0 0 0 0 0 0 0 0 1 1 1 0c2,1 3,2 3,3 1,0 1,0 1,1l0 0c0,0 0,0 0,0l0 0 0 0 0 0 0 1 0 0 0 0c0,0 0,0 0,0l0 0 0 0c0,1 -1,2 -1,2 -1,0 -1,0 -2,1 0,0 -1,0 -1,0l-1 0 0 0c0,0 -1,0 -1,0l0 0 0 0c0,0 0,0 0,0l0 0 -1 -1 0 0 0 0c-1,0 -2,0 -2,-1 0,0 -1,0 -1,0 0,0 0,0 0,0 -1,0 -1,0 -1,0l-4 3c0,0 0,1 0,1 1,0 1,0 1,1 1,0 1,0 2,1 1,0 2,1 3,1 1,0 2,0 2,0 1,0 1,0 1,0 0,0 0,0 1,0l0 0 0 0 0 0 0 0 1 0c0,0 1,0 2,0 1,0 2,0 3,-1 1,0 2,-1 3,-2 1,-1 1,-2 2,-4l0 0 0 -1c0,0 0,0 0,0l0 0 0 0 0 0 0 -1 0 0 0 0zm25 0c0,-1 0,-1 0,-1l0 0c0,-2 -1,-3 -2,-4 0,-1 -1,-2 -2,-2 -1,-1 -2,-1 -3,-2l-1 0 -1 -1 0 0 -1 0c-1,0 -1,-1 -2,-1 -1,0 -1,-1 -1,-1l0 0 -1 0 0 -1 0 0 0 0 0 0 0 0 0 0 0 0 0 0 0 0 0 -1 0 0 0 0 0 0 0 0 0 0 0 0c0,-1 0,-1 1,-1 0,0 0,-1 1,-1 0,0 0,0 1,0l0 0 0 0c0,0 1,0 1,0l0 0 1 0c0,0 0,0 1,0 1,0 1,0 2,1 0,0 0,0 0,0 1,0 1,0 1,0 0,1 0,0 1,0l3 -3c0,0 0,0 0,0 0,-1 -1,-1 -1,-1 0,0 0,0 0,0 -1,-1 -1,-1 -2,-1 -1,-1 -2,-1 -3,-1 -1,-1 -2,-1 -2,-1l-1 0 0 0c-1,0 -1,0 -2,0 -1,1 -2,1 -2,1 -2,1 -2,1 -3,2 -1,1 -2,2 -2,3 0,1 0,1 0,1 0,0 0,1 0,1l0 0 0 1c0,-1 0,-1 0,-1l0 1 0 0 0 0 0 0 0 0 0 0c0,0 0,1 0,1l0 0 0 0 0 1c0,0 0,0 0,0l0 1c0,0 1,0 1,1l0 0c0,0 0,1 0,1 1,0 2,1 3,2 1,0 2,1 3,1l0 0 0 0 0 0 1 0 0 1 1 0c2,1 3,2 4,3 0,0 0,0 1,1l0 0c0,0 0,0 0,0l0 0 0 0 0 0 0 1 0 0 0 0c0,0 0,0 0,0l0 0 -1 0c0,1 0,2 -1,2 0,0 -1,0 -1,1 -1,0 -2,0 -2,0l0 0 -1 0c0,0 0,0 0,0l0 0 -1 0c0,0 0,0 0,0l0 0 0 -1 -1 0 0 0c-1,0 -1,0 -2,-1 0,0 0,0 0,0 -1,0 -1,0 -1,0 0,0 0,0 0,0l-4 3c0,0 0,1 0,1 0,0 0,0 1,1 0,0 1,0 1,1 1,0 2,1 4,1 0,0 1,0 2,0 0,0 0,0 0,0 1,0 1,0 1,0l0 0 1 0 0 0 0 0 0 0c1,0 2,0 3,0 1,0 2,0 3,-1 1,0 2,-1 3,-2 0,-1 1,-2 1,-4l0 0 0 -1c0,0 0,0 0,0l0 0 0 0 0 0 0 -1 0 0 0 0zm20 4c-3,0 -5,-1 -7,-3 -2,-2 -3,-5 -3,-7 0,-3 1,-5 3,-7 2,-2 4,-3 7,-3 3,0 5,1 7,3 2,2 3,4 3,7 0,2 -1,5 -3,7 -2,2 -4,3 -7,3zm0 -26c-4,0 -8,2 -11,5 -3,3 -5,6 -5,11 0,4 2,8 5,11 3,3 7,4 11,4 4,0 8,-1 11,-4 3,-3 5,-7 5,-11 0,-5 -2,-8 -5,-11 -3,-3 -7,-5 -11,-5zm37 26c-3,0 -5,-1 -7,-4 -2,-2 -3,-4 -3,-7 0,-2 1,-4 3,-6 1,-2 3,-3 5,-3 3,0 5,0 7,2 0,0 0,0 0,-1l3 -4c0,0 0,0 0,0 -3,-2 -6,-3 -9,-3 -4,1 -8,2 -10,5 -3,3 -5,6 -5,10 0,5 1,8 4,12 4,3 7,4 12,4 3,0 6,0 8,-2 0,0 0,0 0,-1l-3 -4c0,0 0,0 0,0 -2,1 -3,2 -5,2zm18 -26c-1,0 -1,0 -1,1l0 30c0,0 0,0 1,0l4 0c1,0 1,0 1,0l0 -30c0,-1 0,-1 -1,-1l-4 0zm2 -5c1,0 2,-1 2,-1 1,-1 1,-2 1,-3 0,-1 0,-2 -1,-2 0,-1 -1,-1 -2,-1 -1,0 -2,0 -2,1 -1,0 -1,1 -1,2 0,1 0,2 1,3 0,0 1,1 2,1zm21 31c-2,0 -4,-1 -4,-2 -1,0 -1,-1 -1,-2 0,-1 0,-2 1,-3 1,-1 4,-2 8,-2 1,0 2,0 3,1 0,3 -1,5 -3,6 -1,1 -1,1 -2,1 -1,1 -2,1 -2,1zm13 -10c0,0 0,0 0,-1l0 0c0,-2 0,-5 0,-6 -1,-2 -1,-4 -3,-6 -2,-2 -5,-3 -8,-3 -3,0 -5,1 -7,2 -1,0 -2,1 -3,1 0,0 0,0 0,1 -1,0 -1,0 -1,0 0,0 0,0 0,1l4 3c0,0 0,0 0,0 1,0 1,0 1,0 1,-1 1,-1 1,-1 2,-1 3,-1 5,-1 2,0 3,0 4,1 1,1 1,3 1,5 -7,-1 -12,0 -15,3 -2,2 -3,4 -3,7 0,3 1,5 3,7 2,2 4,2 8,2 3,0 6,-1 8,-3 0,1 0,2 0,3 0,0 1,0 1,0l5 0c0,0 0,0 0,0 0,-1 0,-2 0,-2 0,-2 0,-3 0,-4 -1,-2 -1,-5 -1,-7 0,0 0,-1 0,-2zm19 9c-1,0 -1,-1 -1,-2l0 -17 4 0c1,0 1,0 1,0l0 -5c0,-1 0,-1 -1,-1l-4 0 0 -6c0,-1 0,-1 -1,-1l-5 0c0,0 0,0 0,1l0 6 -5 0c0,0 0,0 0,1l0 5c0,0 0,0 0,0l5 0 0 17c0,1 0,3 1,4 1,2 2,3 3,4 1,0 3,0 4,0 2,0 3,0 5,-1 0,0 0,-1 0,-1l-3 -4c0,0 0,0 0,0 -1,1 -2,1 -3,0zm15 -25c-1,0 -1,0 -1,1l0 30c0,0 0,0 1,0l4 0c1,0 1,0 1,0l0 -30c0,-1 0,-1 -1,-1l-4 0zm2 -5c1,0 2,-1 2,-1 1,-1 1,-2 1,-3 0,-1 0,-2 -1,-2 0,-1 -1,-1 -2,-1 -1,0 -2,0 -2,1 -1,0 -1,1 -1,2 0,1 0,2 1,3 0,0 1,1 2,1zm24 31c-2,0 -5,-1 -7,-3 -2,-2 -2,-5 -2,-7 0,-3 0,-5 2,-7 2,-2 5,-3 7,-3 3,0 5,1 7,3 2,2 3,4 3,7 0,2 -1,5 -3,7 -2,2 -4,3 -7,3zm0 -26c-4,0 -8,2 -11,5 -3,3 -4,6 -4,11 0,4 1,8 4,11 3,3 7,4 11,4 5,0 8,-1 11,-4 3,-3 5,-7 5,-11 0,-5 -2,-8 -5,-11 -3,-3 -6,-5 -11,-5zm50 21c0,0 0,-2 0,-3l0 -1 0 -1c0,-1 0,-1 0,-2l0 -1c0,-1 0,-1 0,-1 0,-1 0,-2 -1,-3 0,-2 -1,-3 -2,-5 -2,-1 -3,-2 -5,-3 -1,0 -2,0 -3,0l0 0c0,0 0,0 0,0l-1 0 0 0c0,0 0,0 0,0l0 0 0 0 0 0 -1 0 0 0 0 0c-2,0 -4,0 -5,1 -1,0 -1,0 -2,1l0 -2c0,-1 0,-1 0,-1l-5 0c0,0 -1,0 -1,1l0 30c0,0 1,0 1,0l5 0c0,0 0,0 0,0l0 -18 0 0c0,0 0,0 0,-1l0 0 0 0 0 0c1,0 1,0 1,-1 0,0 0,-1 0,-1 0,-1 1,-1 1,-2 2,-1 3,-2 5,-2l0 0 0 0 1 0 0 0 0 0c0,0 0,0 0,0l0 0 0 0c0,0 0,0 0,0l1 0c0,0 1,0 1,0 1,1 2,1 3,2 0,1 1,2 1,3 0,0 0,1 0,1l0 1 0 1c0,1 0,1 0,2l0 1 0 1c0,1 0,3 0,3 0,3 0,6 0,7l0 3c0,0 0,0 1,0l5 0c0,0 0,0 0,0l0 -3c0,-1 0,-4 0,-7zm55 -1l-7 -20c0,0 0,0 0,0l-4 0c-1,0 -1,0 -1,0l-6 20 -7 -20c0,0 0,0 -1,0l-5 0c0,0 0,0 0,0 0,0 0,0 0,1l10 30c0,0 1,0 1,0l3 0c1,0 1,0 1,0l7 -21 7 21c0,0 0,0 0,0l4 0c0,0 0,0 0,0l11 -30c0,-1 0,-1 0,-1 0,0 0,0 0,0l-6 0c0,0 0,0 0,0l-7 20zm20 -20c0,0 0,0 0,1l0 30c0,0 0,0 0,0l5 0c0,0 1,0 1,0l0 -30c0,-1 -1,-1 -1,-1l-5 0zm3 -5c1,0 1,-1 2,-1 1,-1 1,-2 1,-3 0,-1 0,-2 -1,-2 -1,-1 -1,-1 -2,-1 -1,0 -2,0 -3,1 0,0 -1,1 -1,2 0,1 1,2 1,3 1,0 2,1 3,1zm21 30c-1,0 -2,-1 -2,-2l0 -17 5 0c0,0 1,0 1,0l0 -5c0,-1 -1,-1 -1,-1l-5 0 0 -6c0,-1 0,-1 0,-1l-5 0c0,0 -1,0 -1,1l0 6 -4 0c-1,0 -1,0 -1,1l0 5c0,0 0,0 1,0l4 0 0 17c0,1 1,3 2,4 0,2 2,3 3,4 1,0 2,0 3,0 2,0 4,0 6,-1 0,0 0,-1 0,-1l-3 -4c0,0 -1,0 -1,0 -1,1 -2,1 -2,0zm40 -4c0,-1 0,-2 0,-3l0 -1 0 -1c0,-1 0,-2 0,-2l0 -1 0 0c0,-1 0,-1 0,-2 0,-1 -1,-2 -1,-2 -1,-2 -2,-4 -3,-5 -1,-1 -3,-2 -5,-3 -1,0 -2,0 -3,0 0,0 0,0 0,0l0 -1 0 0 -1 0 0 0 0 0 0 0 -1 0 0 0 0 1c-2,0 -3,0 -5,1 0,0 -1,1 -2,1l0 -21c0,0 0,0 0,0l-5 0c0,0 -1,0 -1,0l0 49c0,0 1,0 1,0l5 0c0,0 0,0 0,0l0 -16 1 -2c0,0 0,0 0,0l0 0 0 -1 0 0c0,0 0,0 0,0 0,-1 0,-1 0,-2 1,-1 1,-1 1,-2 1,0 2,-1 3,-1 0,-1 1,-1 2,-1l1 0 0 0 0 0 0 0 0 0 0 0c0,0 1,0 1,0l0 0c0,0 0,0 0,0 0,0 1,0 1,0 1,1 2,1 3,2 1,1 1,2 2,3 0,0 0,1 0,1 0,0 0,1 0,1l0 0 0 1c0,0 0,1 0,2l0 1 0 1c0,1 0,2 0,3 0,3 0,6 0,8l0 2c0,0 0,0 1,0l5 0c0,0 0,0 0,0l0 -2c0,-2 0,-5 0,-8z"/>
   </g>
   <g style="clip-path:url(#id3)">
    <image id="telex.png" x="2640" y="1489" width="210" height="243" xlink:href="composite_Images\composite_ImgID2.png"/>
   </g>
   <g style="clip-path:url(#id4)">
    <g id="_2025296579840">
     <path class="fil1" d="M518 1462c-23,1 -43,10 -51,25 8,-1 16,-3 24,-4 8,-1 17,-2 25,-1 3,8 1,18 1,27l0 28 6 0c0,-14 0,-29 0,-42 0,-5 -1,-10 1,-13 9,-1 17,0 25,1 9,1 16,3 24,4 -9,-15 -30,-25 -55,-25z"/>
     <path class="fil1" d="M509 1502c0,-3 2,-9 0,-11 -1,-3 -6,-2 -10,-2 -11,1 -25,2 -35,5 -1,12 3,20 8,26 7,7 19,13 30,15 3,-11 5,-21 7,-33z"/>
     <path class="fil1" d="M546 1489c-4,0 -8,-1 -11,0 -7,1 -5,7 -4,13 2,12 4,23 7,33 11,-3 22,-8 29,-15 6,-6 11,-15 8,-26 -8,-2 -19,-4 -29,-5z"/>
     <path class="fil1" d="M507 1556c5,12 10,24 14,37l-14 0c-2,-8 -5,-15 -8,-22 -2,7 -5,14 -7,22l-15 0c5,-13 10,-25 15,-37l15 0z"/>
     <path class="fil1" d="M580 1556c5,12 10,24 14,37l-14 0c-2,-8 -5,-15 -8,-22 -2,7 -5,14 -7,22l-14 0c4,-13 9,-25 14,-37l15 0z"/>
     <polygon class="fil1" points="445,1556 445,1567 456,1567 456,1593 471,1593 471,1567 471,1567 471,1567 481,1567 481,1556 "/>
     <polygon class="fil1" points="518,1556 518,1567 529,1567 529,1593 544,1593 544,1567 544,1567 544,1567 554,1567 554,1556 "/>
     <path class="fil1" d="M62 1654c5,12 10,24 14,37l-14 0c-3,-7 -5,-14 -8,-22 -2,7 -5,15 -7,22l-15 0c5,-13 9,-25 14,-37l16 0z"/>
     <path class="fil1" d="M135 1654c5,12 10,24 15,37l-15 0c-2,-7 -5,-14 -7,-22 -3,7 -6,15 -8,22l-15 0c5,-13 10,-25 15,-37l15 0z"/>
     <polygon class="fil1" points="0,1654 0,1665 10,1665 10,1691 25,1691 25,1665 26,1665 26,1665 36,1665 36,1654 "/>
     <polygon class="fil1" points="73,1654 73,1665 84,1665 84,1691 99,1691 99,1665 99,1665 99,1665 109,1665 109,1654 "/>
     <path class="fil0" d="M181 1672l4 0c4,0 7,-3 7,-6 0,-4 -3,-6 -7,-6 -2,0 -4,0 -4,0l0 12zm-7 -16c3,-1 6,-1 10,-1 5,0 9,1 11,3 2,2 4,4 4,7 0,5 -4,8 -7,9l0 0c3,1 4,4 5,7 1,4 2,9 3,10l-7 0c0,-1 -1,-4 -2,-8 -1,-5 -3,-7 -7,-7l-3 0 0 15 -7 0 0 -35z"/>
     <polygon class="fil0" points="226,1675 213,1675 213,1686 228,1686 228,1691 206,1691 206,1655 227,1655 227,1661 213,1661 213,1670 226,1670 "/>
     <path class="fil0" d="M253 1676l-3 -9c-1,-2 -1,-4 -2,-6l0 0c-1,2 -1,4 -2,6l-3 9 10 0zm-11 5l-3 10 -7 0 12 -36 9 0 11 36 -7 0 -3 -10 -12 0z"/>
     <polygon class="fil0" points="271,1655 277,1655 277,1685 292,1685 292,1691 271,1691 "/>
     <polygon class="fil0" points="300,1661 290,1661 290,1655 317,1655 317,1661 307,1661 307,1691 300,1691 "/>
     <path class="fil0" d="M332 1691l0 -15 -11 -21 7 0 4 10c2,2 3,4 3,7l1 0c1,-3 2,-5 3,-7l4 -10 8 0 -12 21 0 15 -7 0z"/>
     <path class="fil0" d="M386 1676l-3 -9c-1,-2 -1,-4 -2,-6l0 0c0,2 -1,4 -1,6l-3 9 9 0zm-10 5l-3 10 -7 0 11 -36 9 0 12 36 -8 0 -3 -10 -11 0z"/>
     <path class="fil0" d="M404 1691l0 -36 7 0 10 16c2,4 4,8 6,12l0 0c0,-5 -1,-10 -1,-15l0 -13 7 0 0 36 -7 0 -10 -16c-2,-4 -4,-8 -6,-12l0 0c0,5 0,9 0,15l0 13 -6 0z"/>
     <path class="fil0" d="M448 1686c1,0 3,0 4,0 8,0 14,-4 14,-13 0,-8 -5,-13 -13,-13 -2,0 -4,0 -5,1l0 25zm-6 -30c3,-1 6,-1 10,-1 7,0 12,2 15,4 3,3 6,7 6,13 0,7 -3,11 -6,14 -4,4 -9,5 -16,5 -4,0 -7,0 -9,0l0 -35z"/>
     <polygon class="fil0" points="499,1691 492,1691 492,1655 499,1655 "/>
     <path class="fil0" d="M508 1691l0 -36 7 0 10 16c2,4 4,8 6,12l0 0c-1,-5 -1,-10 -1,-15l0 -13 6 0 0 36 -6 0 -10 -16c-2,-4 -5,-8 -6,-12l-1 0c1,5 1,9 1,15l0 13 -6 0z"/>
     <polygon class="fil0" points="545,1655 566,1655 566,1661 552,1661 552,1671 565,1671 565,1676 552,1676 552,1691 545,1691 "/>
     <path class="fil0" d="M581 1672l3 0c5,0 8,-3 8,-6 0,-4 -3,-6 -7,-6 -2,0 -4,0 -4,0l0 12zm-7 -16c2,-1 6,-1 10,-1 5,0 9,1 11,3 2,2 3,4 3,7 0,5 -3,8 -6,9l0 0c2,1 4,4 5,7 1,4 2,9 3,10l-7 0c-1,-1 -2,-4 -3,-8 -1,-5 -2,-7 -6,-7l-3 0 0 15 -7 0 0 -35z"/>
     <path class="fil0" d="M624 1676l-3 -9c-1,-2 -1,-4 -2,-6l0 0c0,2 -1,4 -2,6l-2 9 9 0zm-10 5l-4 10 -6 0 11 -36 9 0 11 36 -7 0 -3 -10 -11 0z"/>
     <path class="fil0" d="M642 1684c2,1 5,2 8,2 5,0 7,-2 7,-5 0,-2 -2,-4 -6,-6 -6,-2 -10,-5 -10,-10 0,-6 5,-10 13,-10 3,0 6,1 8,2l-1 5c-2,-1 -4,-2 -8,-2 -4,0 -6,2 -6,4 0,3 3,4 7,6 7,3 10,6 10,11 0,5 -5,10 -14,10 -4,0 -8,-1 -10,-2l2 -5z"/>
     <polygon class="fil0" points="678,1661 668,1661 668,1655 695,1655 695,1661 685,1661 685,1691 678,1691 "/>
     <path class="fil0" d="M707 1672l4 0c5,0 7,-3 7,-6 0,-4 -2,-6 -7,-6 -2,0 -3,0 -4,0l0 12zm-6 -16c2,-1 6,-1 10,-1 5,0 8,1 11,3 2,2 3,4 3,7 0,5 -3,8 -7,9l0 0c3,1 4,4 5,7 1,4 2,9 3,10l-7 0c0,-1 -1,-4 -2,-8 -1,-5 -3,-7 -7,-7l-3 0 0 15 -6 0 0 -35z"/>
     <path class="fil0" d="M739 1655l0 21c0,7 3,10 7,10 5,0 8,-3 8,-10l0 -21 7 0 0 21c0,11 -6,15 -15,15 -8,0 -14,-4 -14,-15l0 -21 7 0z"/>
     <path class="fil0" d="M795 1690c-1,1 -5,1 -9,1 -11,0 -18,-7 -18,-17 0,-12 8,-19 19,-19 4,0 7,1 9,1l-2 6c-1,-1 -4,-2 -7,-2 -7,0 -13,5 -13,13 0,8 5,13 13,13 3,0 6,0 7,-1l1 5z"/>
     <polygon class="fil0" points="810,1661 800,1661 800,1655 827,1655 827,1661 817,1661 817,1691 810,1691 "/>
     <path class="fil0" d="M840 1655l0 21c0,7 2,10 7,10 5,0 8,-3 8,-10l0 -21 6 0 0 21c0,11 -6,15 -14,15 -9,0 -14,-4 -14,-15l0 -21 7 0z"/>
     <path class="fil0" d="M877 1672l4 0c4,0 7,-3 7,-6 0,-4 -3,-6 -7,-6 -2,0 -4,0 -4,0l0 12zm-7 -16c3,-1 6,-1 10,-1 5,0 9,1 11,3 2,2 3,4 3,7 0,5 -3,8 -6,9l0 0c2,1 4,4 5,7 1,4 2,9 3,10l-7 0c-1,-1 -1,-4 -3,-8 -1,-5 -2,-7 -6,-7l-3 0 0 15 -7 0 0 -35z"/>
     <polygon class="fil0" points="922,1675 909,1675 909,1686 924,1686 924,1691 902,1691 902,1655 923,1655 923,1661 909,1661 909,1670 922,1670 "/>
     <polygon class="fil0" points="943,1655 950,1655 950,1685 965,1685 965,1691 943,1691 "/>
     <polygon class="fil0" points="977,1661 967,1661 967,1655 994,1655 994,1661 984,1661 984,1691 977,1691 "/>
     <path class="fil0" d="M1006 1686c1,0 2,0 4,0 8,0 13,-4 13,-13 0,-8 -4,-13 -13,-13 -2,0 -3,0 -4,1l0 25zm-7 -30c3,-1 7,-1 11,-1 7,0 11,2 15,4 3,3 5,7 5,13 0,7 -2,11 -5,14 -4,4 -10,5 -17,5 -4,0 -7,0 -9,0l0 -35z"/>
     <path class="fil0" d="M1040 1687c0,-2 -2,-3 -3,-3 -2,0 -4,1 -4,3 0,2 2,4 4,4 1,0 3,-2 3,-4z"/>
    </g>
    <path class="fil0" d="M375 1426c-3,0 -5,-1 -7,-3 -1,-2 -2,-4 -2,-6l0 -1c0,-2 1,-4 2,-6 2,-2 4,-3 7,-3 2,0 5,1 6,3 2,2 3,4 3,7 0,2 -1,4 -3,6 -1,2 -4,3 -6,3zm0 -24c-3,0 -7,1 -9,3l0 -3c0,0 -1,0 -1,0l-5 0c0,0 0,0 0,0l0 47c0,0 0,0 0,0l5 0c0,0 1,0 1,0l0 -21c2,2 5,3 9,3 4,0 8,-1 11,-4 1,-2 2,-3 3,-5 0,-2 1,-4 1,-6 -1,-4 -2,-7 -5,-10 -3,-3 -6,-4 -10,-4zm34 24c-3,0 -5,-1 -7,-3 -2,-2 -3,-4 -3,-7 0,-2 1,-4 3,-6 2,-2 4,-3 7,-3 2,0 4,1 6,3 2,2 3,4 3,6 0,3 -1,5 -3,7 -2,2 -4,3 -6,3zm0 -24c-5,0 -8,1 -11,4 -3,3 -4,6 -4,10 0,5 1,8 4,11 3,3 6,4 11,4 4,0 7,-1 10,-4 3,-3 4,-6 4,-11 0,-4 -1,-7 -4,-10 -3,-3 -6,-4 -10,-4zm49 19l-6 -19c0,0 -1,-1 -1,-1l-4 0c0,0 0,1 0,1l-7 19 -6 -19c0,0 0,-1 -1,-1l-5 0c0,0 0,0 0,1 0,0 0,0 0,0l10 29c0,0 0,0 1,0l3 0c0,0 0,0 1,0l6 -20 7 20c0,0 0,0 0,0l4 0c0,0 0,0 0,0l10 -29c0,0 0,0 0,0 0,-1 0,-1 0,-1l-5 0c-1,0 -1,1 -1,1l-6 19zm20 -6c1,-2 2,-4 3,-6 2,-1 4,-2 6,-2 2,0 4,1 5,2 2,1 3,3 3,5l-17 1zm9 -13c-4,0 -7,1 -10,4 -3,3 -4,6 -4,11 0,4 1,7 4,10 3,3 6,4 10,4 3,0 5,0 8,-1 2,-2 4,-3 5,-6 0,0 0,0 0,0l-4 -3c0,0 -1,0 -1,1 -1,1 -2,2 -3,3 -1,0 -3,1 -5,1 -1,0 -3,-1 -5,-2 -1,-1 -2,-2 -3,-3l22 -2c0,0 0,-1 0,-1l0 -2c0,-4 -1,-7 -4,-10 -3,-3 -6,-4 -10,-4zm28 0c0,0 0,0 0,0l-5 0c0,0 -1,0 -1,0l0 29c0,0 1,0 1,0l5 0c0,0 0,0 0,0l0 -18c0,-2 1,-3 2,-4 1,-1 3,-2 4,-2 1,0 1,0 1,0 1,0 1,0 1,0l1 -5c0,0 0,0 -1,0 0,0 -1,0 -2,0 -2,0 -4,0 -6,2l0 -2zm17 13c0,-2 1,-4 3,-6 1,-1 3,-2 6,-2 2,0 4,1 5,2 2,1 3,3 3,5l-17 1zm9 -13c-4,0 -8,1 -11,4 -2,3 -4,6 -4,11 0,4 2,7 5,10 2,3 6,4 10,4 3,0 5,0 7,-1 3,-2 4,-3 6,-6 0,0 0,0 0,0l-5 -3c0,0 0,0 0,1 -1,1 -2,2 -3,3 -2,0 -3,1 -5,1 -2,0 -3,-1 -5,-2 -1,-1 -3,-2 -3,-3l22 -2c0,0 0,-1 0,-1l0 -2c0,-4 -1,-7 -4,-10 -3,-3 -6,-4 -10,-4zm43 15c0,2 -1,4 -2,6 -2,2 -4,3 -7,3 -2,0 -5,-1 -6,-3 -2,-2 -3,-4 -3,-6 0,-3 1,-5 3,-7 1,-2 4,-3 6,-3 3,0 5,1 7,3 1,2 2,4 2,6l0 1zm0 -12c-3,-2 -6,-3 -9,-3 -4,0 -7,1 -10,4 -3,3 -4,6 -5,10 0,4 1,8 4,11 2,1 3,2 5,3 2,1 4,1 6,1 4,0 7,-1 9,-3l0 3c0,0 1,0 1,0l5 0c0,0 0,0 0,0l0 -47c0,0 0,0 0,0l-5 0c0,0 -1,0 -1,0l0 21zm47 21c-2,0 -4,-1 -6,-3 -2,-2 -3,-4 -3,-6l0 -1c0,-2 1,-4 3,-6 2,-2 4,-3 6,-3 3,0 5,1 7,3 2,2 3,4 3,7 0,2 -1,4 -3,6 -2,2 -4,3 -7,3zm1 -24c-4,0 -7,1 -10,3l0 -21c0,0 0,0 0,0l-5 0c0,0 -1,0 -1,0l0 47c0,0 1,0 1,0l5 0c0,0 0,0 0,0l0 -3c3,2 6,3 9,3 5,0 8,-1 11,-4 2,-2 3,-3 3,-5 1,-2 1,-4 1,-6 0,-4 -1,-7 -4,-10 -3,-3 -6,-4 -10,-4zm34 21l-9 -21c0,0 0,0 0,0l-6 0c0,0 0,0 0,0 0,0 0,0 0,0l12 28 -5 13c0,0 0,0 0,0 0,0 0,0 0,0l5 0c0,0 0,0 1,0l16 -41c0,0 0,0 0,0 0,0 0,0 0,0l-6 0c0,0 0,0 0,0l-8 21z"/>
    <path class="fil0" d="M1565 1426c-2,0 -5,-1 -7,-3 -1,-2 -2,-5 -2,-7 0,-2 1,-4 3,-6 1,-1 3,-2 5,-3 2,0 4,0 6,2 0,0 1,0 1,0l2 -4c1,-1 0,-1 0,-1 -3,-2 -6,-3 -9,-2 -4,0 -7,2 -9,4 -3,3 -4,6 -5,10 0,4 2,8 5,11 3,3 6,4 10,4 3,0 6,0 8,-2 1,0 1,0 0,-1l-2 -3c0,-1 -1,-1 -1,-1 -1,1 -3,2 -5,2zm28 0c-3,0 -5,-1 -7,-3 -2,-2 -3,-4 -3,-7 0,-2 1,-4 3,-6 2,-2 4,-3 7,-3 2,0 4,1 6,3 2,2 3,4 3,6 0,3 -1,5 -3,7 -2,2 -4,3 -6,3zm0 -24c-4,0 -8,1 -11,4 -3,3 -4,6 -4,10 0,5 1,8 4,11 3,3 7,4 11,4 4,0 7,-1 10,-4 3,-3 5,-6 5,-11 0,-4 -2,-7 -5,-10 -3,-3 -6,-4 -10,-4zm21 8c0,0 0,0 0,0l0 -5c0,0 0,0 0,0l16 0c1,0 1,0 1,0l0 5c0,0 0,0 -1,0l-16 0zm42 12c0,0 0,0 0,0l0 -1c0,-1 -1,-2 -2,-3 0,-1 -1,-2 -2,-3 -1,0 -2,0 -3,-1l-1 0 -1 -1 0 0 0 0c-1,0 -2,-1 -2,-1 -1,0 -1,-1 -2,-1l0 0 0 0 0 -1 0 0 0 0 0 0 0 0 0 0 0 0 0 0 0 0 0 0 0 0 0 -1 0 0 0 0 0 0 0 0c0,-1 0,-1 0,-1 1,0 1,-1 1,-1 1,0 1,0 2,0l0 0 0 0c0,0 0,0 0,0l1 0 0 0c0,0 1,0 1,0 1,0 2,0 2,1 0,0 0,0 1,0 0,0 0,0 0,0 0,1 1,1 1,0l3 -3c0,0 0,0 0,0 0,0 0,0 -1,0 0,-1 0,-1 0,-1 -1,0 -1,-1 -1,-1 -1,0 -3,-1 -4,-1 0,0 -1,0 -2,0l0 0 -1 0c0,0 0,0 -1,0 -1,0 -2,0 -3,0 -1,1 -2,2 -2,2 -1,1 -2,2 -2,3 0,1 0,1 0,1 0,1 0,1 0,1l0 1 0 0c0,0 0,0 0,0l0 0 0 0 0 0 0 0 0 0 0 0c0,0 0,1 0,1l0 0 0 0 0 1c0,0 0,0 0,0l0 1c0,0 1,0 1,1l0 0c0,0 0,0 0,0 1,1 2,2 3,2 1,1 2,1 3,2l0 0 0 0 0 0 0 0 1 0 1 1c2,1 3,1 3,2 1,0 1,1 1,1l0 0c0,0 0,0 0,0l0 1 0 0 0 0 0 0 0 0 0 0c0,0 0,0 0,0l0 0 0 1c0,0 -1,1 -2,1 0,0 0,1 -1,1 -1,0 -1,0 -2,0l0 0 0 0c0,0 -1,0 -1,0l0 0 0 0c0,0 0,0 0,0l0 0 -1 0 0 0 0 0c-1,-1 -1,-1 -2,-1 0,0 0,0 -1,-1 0,0 0,0 0,0 0,0 0,0 -1,0l-3 3c0,1 0,1 0,1 0,0 0,0 1,1 0,0 1,0 1,1 1,0 2,1 3,1 1,0 2,0 2,0 1,0 1,0 1,0 0,0 0,0 1,0l0 0 0 0 0 0 0 0 1 0c0,0 1,0 2,0 1,0 2,0 3,-1 1,0 2,-1 3,-2 0,-1 1,-2 1,-3l0 -1 0 0c0,0 0,-1 0,-1l0 0 0 0 0 0 0 0 0 -1 0 0zm22 4c-2,0 -4,-1 -6,-3 -2,-2 -3,-4 -3,-6l0 -1c0,-2 1,-4 3,-6 2,-2 4,-3 6,-3 3,0 5,1 7,3 2,2 3,4 3,7 0,2 -1,4 -3,6 -2,2 -4,3 -7,3zm1 -24c-4,0 -7,1 -10,3l0 -3c0,0 0,0 0,0l-5 0c-1,0 -1,0 -1,0l0 47c0,0 0,0 1,0l5 0c0,0 0,0 0,0l0 -21c3,2 6,3 9,3 5,0 8,-1 11,-4 1,-2 3,-3 3,-5 1,-2 1,-4 1,-6 0,-4 -2,-7 -4,-10 -3,-3 -6,-4 -10,-4zm33 24c-3,0 -5,-1 -6,-3 -2,-2 -3,-4 -3,-7 0,-2 1,-4 3,-6 1,-2 3,-3 6,-3 3,0 5,1 7,3 1,2 2,4 2,6 0,3 -1,5 -2,7 -2,2 -4,3 -7,3zm0 -24c-4,0 -8,1 -10,4 -3,3 -5,6 -5,10 0,5 2,8 5,11 2,3 6,4 10,4 4,0 8,-1 11,-4 2,-3 4,-6 4,-11 0,-4 -2,-7 -4,-10 -3,-3 -7,-4 -11,-4zm47 20c0,-1 0,-2 0,-4l0 0 0 -1c0,-1 0,-2 0,-2l0 -1c0,-1 0,-1 0,-2 0,0 0,-1 0,-2 -1,-2 -2,-3 -3,-4 -1,-2 -3,-3 -4,-3 -1,-1 -2,-1 -3,-1l0 0c0,0 0,0 0,0l-1 0 0 0c0,0 0,0 0,0l0 0 0 0 -1 0 0 0 0 0 0 0c-2,0 -3,1 -5,1 0,0 -1,1 -1,1l0 -2c0,0 0,0 -1,0l-5 0c0,0 0,0 0,0l0 29c0,0 0,0 0,0l5 0c1,0 1,0 1,0l0 -17 0 0c0,0 0,0 0,-1l0 0 0 0 0 0c0,0 0,0 0,-1 0,0 0,-1 0,-1 1,-1 1,-1 2,-2 1,-1 2,-2 4,-2l0 0 0 0 0 0 1 0 0 0c0,0 0,0 0,0l0 0 0 0c0,0 0,0 0,0l0 0c1,0 1,0 2,1 1,0 2,0 2,1 1,1 1,2 2,3 0,0 0,1 0,1l0 1 0 1c0,0 0,1 0,2l0 1 0 0c0,2 0,3 0,4 0,2 0,5 0,7l0 2c0,0 0,0 0,0l5 0c0,0 1,0 1,0l0 -2c0,-2 0,-5 -1,-7zm27 0c0,0 0,0 0,0l0 -1c-1,-1 -1,-2 -2,-3 -1,-1 -2,-2 -3,-3 0,0 -1,0 -2,-1l-1 0 -1 -1 0 0 -1 0c-1,0 -1,-1 -2,-1 0,0 -1,-1 -1,-1l0 0 0 0 -1 -1 0 0 0 0 0 0 0 0 0 0 0 0 0 0 0 0 0 0 0 0 0 -1 0 0 0 0 0 0 0 0c0,-1 1,-1 1,-1 0,0 0,-1 1,-1 0,0 1,0 1,0l0 0 0 0c1,0 1,0 1,0l0 0 1 0c0,0 0,0 1,0 0,0 1,0 2,1 0,0 0,0 0,0 0,0 1,0 1,0 0,1 0,1 0,0l3 -3c1,0 1,0 0,0 0,0 0,0 0,0 0,-1 -1,-1 -1,-1 0,0 0,-1 -1,-1 -1,0 -2,-1 -3,-1 -1,0 -2,0 -2,0l-1 0 0 0c-1,0 -1,0 -2,0 0,0 -1,0 -2,0 -1,1 -2,2 -3,2 -1,1 -1,2 -2,3 0,1 0,1 0,1 0,1 0,1 0,1l0 1 0 0c0,0 0,0 0,0l0 0 0 0 0 0 0 0 0 0 0 0c0,0 0,1 0,1l0 0 0 0 0 1c0,0 1,0 1,0l0 1c0,0 0,0 0,1l1 0c0,0 0,0 0,0 1,1 1,2 3,2 0,1 1,1 2,2l0 0 0 0 1 0 0 0 0 0 1 1c2,1 3,1 4,2 0,0 0,1 0,1l0 0c0,0 0,0 0,0l0 1 0 0 0 0 0 0 0 0 0 0c0,0 0,0 0,0l0 0 0 1c0,0 0,1 -1,1 0,0 -1,1 -1,1 -1,0 -2,0 -2,0l0 0 -1 0c0,0 0,0 0,0l0 0 0 0c0,0 -1,0 -1,0l0 0 0 0 0 0 -1 0c0,-1 -1,-1 -2,-1 0,0 0,0 0,-1 0,0 0,0 -1,0 0,0 0,0 0,0l-4 3c0,1 0,1 0,1 1,0 1,0 1,1 1,0 1,0 2,1 1,0 2,1 3,1 1,0 1,0 2,0 0,0 0,0 1,0 0,0 0,0 0,0l1 0 0 0 0 0 0 0 0 0c1,0 2,0 3,0 1,0 2,0 2,-1 2,0 2,-1 3,-2 1,-1 1,-2 2,-3l0 -1 0 0c0,0 0,-1 0,-1l0 0 0 0 0 0 0 0 0 -1 0 0zm19 4c-3,0 -5,-1 -7,-3 -2,-2 -3,-4 -3,-7 0,-2 1,-4 3,-6 2,-2 4,-3 7,-3 2,0 4,1 6,3 2,2 3,4 3,6 0,3 -1,5 -3,7 -2,2 -4,3 -6,3zm0 -24c-5,0 -8,1 -11,4 -3,3 -4,6 -4,10 0,5 1,8 4,11 3,3 6,4 11,4 4,0 7,-1 10,-4 3,-3 4,-6 4,-11 0,-4 -1,-7 -4,-10 -3,-3 -6,-4 -10,-4zm28 0c0,0 0,0 0,0l-5 0c0,0 0,0 0,0l0 29c0,0 0,0 0,0l5 0c0,0 0,0 0,0l0 -18c0,-2 1,-3 2,-4 1,-1 3,-2 5,-2 0,0 0,0 0,0 1,0 1,0 1,0l1 -5c0,0 0,0 0,0 -1,0 -2,0 -2,0 -3,0 -5,0 -7,2l0 -2zm17 13c0,-2 1,-4 3,-6 2,-1 3,-2 6,-2 2,0 4,1 5,2 2,1 3,3 3,5l-17 1zm9 -13c-4,0 -8,1 -10,4 -3,3 -5,6 -5,11 0,4 2,7 5,10 3,3 6,4 10,4 3,0 5,0 7,-1 3,-2 4,-3 6,-6 0,0 0,0 0,0l-4 -3c-1,0 -1,0 -1,1 -1,1 -2,2 -3,3 -2,0 -3,1 -5,1 -2,0 -3,-1 -5,-2 -1,-1 -2,-2 -3,-3l22 -2c0,0 0,-1 0,-1l0 -2c0,-4 -1,-7 -4,-10 -3,-3 -6,-4 -10,-4zm43 15c0,2 -1,4 -2,6 -2,2 -4,3 -7,3 -2,0 -5,-1 -6,-3 -2,-2 -3,-4 -3,-6 0,-3 1,-5 3,-7 1,-2 4,-3 6,-3 3,0 5,1 7,3 1,2 2,4 2,6l0 1zm0 -12c-2,-2 -6,-3 -9,-3 -4,0 -7,1 -10,4 -3,3 -4,6 -5,10 0,4 1,8 4,11 2,1 3,2 5,3 2,1 4,1 6,1 4,0 7,-1 9,-3l0 3c0,0 1,0 1,0l5 0c0,0 0,0 0,0l0 -47c0,0 0,0 0,0l-5 0c0,0 -1,0 -1,0l0 21zm47 21c-2,0 -4,-1 -6,-3 -2,-2 -3,-4 -3,-6l0 -1c0,-2 1,-4 3,-6 2,-2 4,-3 6,-3 3,0 5,1 7,3 2,2 3,4 3,7 0,2 -1,4 -3,6 -2,2 -4,3 -7,3zm1 -24c-4,0 -7,1 -10,3l0 -21c0,0 0,0 0,0l-5 0c0,0 0,0 0,0l0 47c0,0 0,0 0,0l5 0c0,0 0,0 0,0l0 -3c3,2 6,3 9,3 5,0 8,-1 11,-4 2,-2 3,-3 3,-5 1,-2 1,-4 1,-6 0,-4 -1,-7 -4,-10 -3,-3 -6,-4 -10,-4zm34 21l-9 -21c0,0 0,0 0,0l-6 0c0,0 0,0 0,0 0,0 0,0 0,0l12 28 -5 13c0,0 0,0 0,0 0,0 0,0 0,0l5 0c0,0 1,0 1,0l16 -41c0,0 0,0 0,0 0,0 0,0 0,0l-6 0c0,0 0,0 0,0l-8 21z"/>
    <g id="_2025296643840">
     <path class="fil2" d="M1861 1606l-3 0c-1,4 -1,8 -2,11 -1,3 -2,5 -3,7 -2,1 -3,2 -4,3 -2,1 -4,1 -6,1 -5,0 -10,-3 -12,-8 -2,-2 -3,-5 -3,-8 -1,-4 -1,-8 -1,-14 0,-11 1,-19 4,-24 3,-5 7,-8 13,-8 1,0 3,0 4,1 2,0 3,1 4,2 1,2 2,3 3,6 1,2 2,5 3,9 0,0 0,0 0,1 0,0 0,0 0,1l3 0 0 -18c-6,-3 -11,-4 -16,-4 -5,0 -9,1 -12,2 -4,2 -7,4 -9,7 -3,3 -5,6 -6,11 -2,4 -2,8 -2,13 0,5 0,10 2,14 1,4 3,7 5,10 3,3 6,5 10,7 3,1 7,2 12,2 5,0 10,-1 16,-4l0 -20z"/>
     <path class="fil2" d="M1894 1629l13 0 0 -2 -5 0 0 -31c0,-5 -1,-9 -4,-11 -2,-3 -6,-4 -11,-4 -6,0 -11,1 -16,4l0 15 3 0c1,-3 1,-5 2,-6 1,-2 1,-4 2,-5 1,-2 2,-4 3,-5 1,0 3,-1 5,-1 6,0 8,4 8,11l0 6c-1,1 -2,1 -3,2 -1,0 -2,0 -3,1 0,0 -1,0 -2,0 -1,1 -3,1 -4,1 -3,1 -5,1 -7,2 -1,0 -2,1 -4,2 -1,1 -2,3 -3,4 -1,2 -1,4 -1,6 0,3 1,6 4,9 2,2 5,3 9,3 7,0 12,-3 14,-9l0 8zm0 -20c0,5 -1,10 -3,13 -2,3 -5,5 -8,5 -5,0 -7,-3 -7,-10 0,-3 1,-5 2,-7 1,-2 3,-3 6,-4 2,0 3,0 4,-1 1,0 1,0 2,0 1,-1 2,-1 2,-1 1,0 2,-1 2,-1l0 6z"/>
     <path class="fil2" d="M1925 1582l-13 0 0 3 5 0 0 42 -5 0 0 2 19 0 0 -2 -6 0 0 -27c0,-5 1,-9 3,-12 1,-2 4,-4 7,-4 2,0 4,1 5,2 1,2 1,4 1,6l0 35 -6 0 0 2 19 0 0 -2 -5 0 0 -35c0,-4 -1,-6 -3,-8 -2,-2 -5,-3 -9,-3 -3,0 -5,1 -7,2 -2,2 -4,4 -5,7l0 -8z"/>
     <path class="fil2" d="M1986 1629l12 0 0 -2 -4 0 0 -31c0,-5 -2,-9 -4,-11 -3,-3 -7,-4 -12,-4 -5,0 -10,1 -15,4l0 15 2 0c1,-3 2,-5 2,-6 1,-2 2,-4 2,-5 1,-2 2,-4 3,-5 2,0 3,-1 5,-1 6,0 9,4 9,11l0 6c-1,1 -3,1 -4,2 0,0 -1,0 -2,1 -1,0 -2,0 -3,0 -1,1 -2,1 -4,1 -2,1 -5,1 -6,2 -2,0 -3,1 -4,2 -2,1 -3,3 -3,4 -1,2 -2,4 -2,6 0,3 2,6 4,9 2,2 6,3 9,3 7,0 12,-3 15,-9l0 8zm0 -20c0,5 -1,10 -3,13 -3,3 -5,5 -9,5 -4,0 -7,-3 -7,-10 0,-3 1,-5 2,-7 1,-2 4,-3 7,-4 1,0 2,0 3,-1 1,0 2,0 2,0 1,-1 2,-1 3,-1 0,0 1,-1 2,-1l0 6z"/>
     <path class="fil2" d="M2034 1600l0 -17c-1,-1 -2,-1 -3,-2 -1,0 -2,0 -3,0 -3,0 -5,1 -7,2 -2,2 -3,4 -5,7l0 -8 -12 0 0 3 4 0 0 42 -4 0 0 2 19 0 0 -2 -6 0 0 -23c0,-2 0,-3 0,-5 0,-1 0,-2 0,-4 1,-1 1,-2 1,-3 0,-1 1,-2 1,-3 1,-1 2,-2 3,-3 1,-1 2,-1 2,-1 1,0 1,0 1,0 1,0 1,0 1,0 0,1 1,1 1,2 0,0 1,1 1,2 1,2 1,4 2,6 0,1 1,3 1,5l3 0z"/>
     <path class="fil2" d="M2065 1629l12 0 0 -2 -4 0 0 -31c0,-5 -2,-9 -4,-11 -3,-3 -7,-4 -12,-4 -5,0 -10,1 -15,4l0 15 2 0c1,-3 2,-5 2,-6 1,-2 2,-4 2,-5 1,-2 2,-4 3,-5 2,0 3,-1 5,-1 6,0 9,4 9,11l0 6c-1,1 -3,1 -4,2 0,0 -1,0 -2,1 -1,0 -2,0 -3,0 -1,1 -2,1 -4,1 -2,1 -5,1 -6,2 -2,0 -3,1 -4,2 -2,1 -3,3 -3,4 -1,2 -2,4 -2,6 0,3 2,6 4,9 2,2 6,3 9,3 7,0 12,-3 15,-9l0 8zm0 -20c0,5 -1,10 -3,13 -3,3 -5,5 -9,5 -4,0 -7,-3 -7,-10 0,-3 1,-5 2,-7 1,-2 4,-3 7,-4 1,0 2,0 3,-1 1,0 2,0 2,0 1,-1 2,-1 3,-1 0,0 1,-1 2,-1l0 6z"/>
     <path class="fil2" d="M2105 1565l0 2 6 0 0 60 -6 0 0 2 20 0c4,0 7,0 10,-1 3,0 6,-1 8,-2 3,-1 5,-3 7,-6 2,-3 3,-6 3,-9 0,-3 -1,-5 -2,-7 -1,-3 -3,-5 -5,-6 -2,-1 -4,-1 -6,-2 -1,0 -4,-1 -7,-1 5,-1 9,-2 12,-5 2,-3 4,-6 4,-10 0,-2 -1,-4 -2,-6 -1,-2 -3,-4 -5,-6 -1,-1 -3,-2 -6,-2 -2,-1 -5,-1 -9,-1l-22 0zm15 29l0 -27 7 0c4,0 7,1 9,4 2,2 2,5 2,10 0,5 -1,8 -3,10 -2,2 -6,3 -11,3l-4 0zm0 33l0 -30 7 0c3,0 5,0 7,0 2,1 4,2 5,3 1,1 2,3 3,4 0,2 0,5 0,7 0,6 -1,10 -4,12 -2,3 -7,4 -13,4l-5 0z"/>
     <path class="fil2" d="M2186 1629l12 0 0 -2 -5 0 0 -31c0,-5 -1,-9 -4,-11 -2,-3 -6,-4 -11,-4 -6,0 -11,1 -15,4l0 15 2 0c1,-3 1,-5 2,-6 1,-2 1,-4 2,-5 1,-2 2,-4 3,-5 1,0 3,-1 5,-1 6,0 9,4 9,11l0 6c-2,1 -3,1 -4,2 -1,0 -1,0 -2,1 -1,0 -2,0 -3,0 -1,1 -2,1 -4,1 -3,1 -5,1 -6,2 -2,0 -3,1 -4,2 -2,1 -3,3 -4,4 0,2 -1,4 -1,6 0,3 1,6 4,9 2,2 5,3 9,3 7,0 12,-3 15,-9l0 8zm0 -20c0,5 -2,10 -4,13 -2,3 -5,5 -8,5 -5,0 -7,-3 -7,-10 0,-3 1,-5 2,-7 1,-2 3,-3 6,-4 2,0 3,0 4,-1 1,0 2,0 2,0 1,-1 2,-1 2,-1 1,0 2,-1 3,-1l0 6z"/>
     <path class="fil2" d="M2216 1582l-12 0 0 3 4 0 0 42 -4 0 0 2 18 0 0 -2 -6 0 0 -27c0,-5 1,-9 3,-12 2,-2 4,-4 7,-4 2,0 4,1 5,2 1,2 2,4 2,6l0 35 -6 0 0 2 18 0 0 -2 -5 0 0 -35c0,-4 -1,-6 -3,-8 -2,-2 -5,-3 -9,-3 -3,0 -5,1 -7,2 -2,2 -4,4 -5,7l0 -8z"/>
     <path class="fil2" d="M2262 1565l-12 0 0 2 5 0 0 60 -5 0 0 2 18 0 0 -2 -6 0 0 -62zm1 39l17 25 12 0 0 -2 -4 0 -19 -27 14 -15 4 0 0 -3 -13 0 0 3 6 0 -17 19z"/>
     <path class="fil2" d="M1724 1490l74 136c9,15 0,30 -17,27 -6,-1 -40,-6 -83,-11l12 -17 59 6c5,1 7,-1 4,-6 0,0 -55,-111 -56,-112 -2,-4 -4,-3 -5,0 0,0 -55,99 -55,100 -2,4 -1,6 4,7l22 2 -13 15 -28 -4c-6,-1 -9,-6 -5,-13 3,-5 68,-123 68,-123 1,-3 2,-4 3,-7 4,-7 11,-8 16,0z"/>
     <path class="fil3" d="M1564 1594l97 -17 -9 15 -67 11c-3,1 -3,3 0,4 0,0 58,40 64,44 4,3 7,4 10,0 0,0 48,-59 50,-63 4,-4 6,-6 0,-5l-33 5 8 -15 44 -8c10,-2 14,5 10,13 -5,6 -75,100 -75,100 -4,7 -8,6 -13,2 -6,-6 -89,-74 -89,-74 -6,-5 -4,-11 3,-12z"/>
     <path class="fil2" d="M1504 1597l0 0c-2,-3 -4,-4 -6,-4 -1,0 -1,0 -1,0 -2,0 -3,1 -4,3 -2,2 -2,6 -2,10 0,5 0,8 2,11 1,2 2,3 5,3 3,0 5,-1 6,-3l0 -20zm-29 -12l0 42 4 0 0 2 -17 0 0 -2 5 0 0 -9c-1,1 -1,1 -2,2 -2,2 -5,3 -8,3 -2,0 -4,0 -6,-1 -2,-1 -3,-2 -5,-4 -1,-1 -2,-3 -3,-5 0,-2 -1,-4 -1,-6l0 0c0,-3 1,-5 1,-7 1,-1 2,-3 3,-5 2,-1 3,-2 5,-3 2,-1 4,-1 6,-1 3,0 6,1 8,3 1,0 1,1 2,2l0 -11 -23 0 0 -3 91 0 0 3 -23 0 0 10c0,0 0,-1 1,-1 2,-2 4,-3 8,-3 2,0 4,0 5,1 2,1 4,2 5,3 1,2 2,3 3,5 0,2 1,4 1,7 0,2 -1,4 -1,6 -1,2 -2,4 -4,5 -1,2 -4,5 -8,5 -2,0 -3,-1 -5,-2 0,0 -1,0 -1,0l0 -11 2 0c0,3 0,3 1,5 0,1 1,2 1,3 0,1 1,3 2,3 1,0 3,-2 3,-4 1,-2 2,-5 2,-9 0,-6 -1,-9 -2,-12 -2,-2 -3,-3 -6,-3 -3,0 -5,1 -6,3 -1,1 -1,2 -1,3l0 28 4 0 0 2 -16 0 0 -2 4 0 0 -7c-2,2 -4,3 -8,3 -2,0 -4,-1 -5,-1 -2,-1 -4,-2 -5,-4 -1,-1 -2,-3 -3,-5 0,-2 -1,-4 -1,-6 0,-2 1,-5 1,-6 1,-2 2,-4 4,-6 1,-1 3,-2 4,-3 2,-1 4,-1 6,-1 4,0 6,1 7,3l0 -9 -29 0zm-9 29l-15 -12c-1,2 -1,3 -1,5 0,5 1,9 2,11 2,2 4,3 6,3 3,0 5,-1 7,-4 0,-1 1,-1 1,-2 0,0 0,-1 0,-1zm-15 -15l16 12 0 -9c-1,-1 -1,-2 -1,-2 0,-1 -1,-2 -1,-3 -2,-2 -4,-4 -6,-4 -3,0 -5,1 -7,4 0,0 0,1 -1,2zm-120 -4l0 0 -1 0 0 0c-1,0 -2,0 -3,1 -1,1 -2,2 -2,3 0,1 -1,2 -1,3 0,1 0,3 0,4 0,3 0,4 0,6 0,1 1,2 1,3 1,1 1,1 2,2 1,0 2,0 3,0 1,0 2,0 2,0 1,-1 2,-2 2,-2 1,-1 1,-3 1,-4 0,-2 0,-3 0,-6 0,-1 0,-3 0,-4 0,-2 0,-3 -1,-3 0,-1 -1,-2 -1,-2 -1,-1 -1,-1 -2,-1zm-52 2l0 0c-2,-3 -4,-4 -7,-4 0,0 0,0 0,0 -2,0 -3,1 -5,3 -1,2 -2,6 -2,10 0,5 1,8 2,11 2,2 3,3 6,3 2,0 4,-1 6,-3l0 -20zm0 -15l7 0 136 0 0 3 -6 0 0 42 5 0 0 2 -17 0 0 -2 4 0 0 -42 -5 0 -11 0c3,0 10,1 10,8 0,3 -1,6 -3,7 -1,2 -5,3 -7,3l-9 0 0 17c0,5 1,7 5,7 1,0 2,0 3,-1 1,0 2,-1 3,-3 0,-1 0,-2 1,-3 0,-1 1,-2 1,-4l2 0 0 11c-3,1 -7,2 -11,2 -4,0 -7,-1 -9,-2 -2,-2 -3,-5 -3,-9l0 -15 -6 0 0 -2 2 0 16 0c4,0 6,-5 6,-8 0,-2 -1,-7 -4,-8 -1,0 -2,0 -3,0l-6 0 -4 0 -16 0 0 42 4 0 0 2 -15 0 0 -2 4 0 0 -32 -16 0c1,1 2,1 3,2 1,1 2,2 3,4 1,1 1,3 1,4 0,2 0,4 -1,6 -1,2 -2,3 -3,4 -1,2 -3,2 -5,3 -1,1 -3,1 -5,1 -2,0 -4,0 -6,-1 -2,-1 -3,-2 -4,-3 -2,-1 -2,-2 -3,-4 -1,-1 -1,-3 -1,-5 0,-2 0,-3 1,-5 1,-2 2,-3 3,-4 1,-1 3,-2 5,-3 1,0 3,-1 5,-1l1 0 22 0 0 -8 -67 0 0 10c1,0 1,-1 1,-1 2,-2 5,-3 8,-3 2,0 4,0 6,1 2,1 3,2 4,3 2,2 3,3 3,5 1,2 1,4 1,7 0,2 0,4 -1,6 -1,2 -2,4 -3,5 -1,2 -5,5 -8,5 -3,0 -4,-1 -5,-2 -1,0 -1,0 -1,0l0 -11 1 0c1,3 1,3 2,5 0,1 0,2 1,3 0,1 1,3 2,3 1,0 2,-2 3,-4 1,-2 1,-5 1,-9 0,-6 0,-9 -2,-12 -1,-2 -3,-3 -6,-3 -2,0 -4,1 -6,3 0,1 0,2 -1,3l0 28 4 0 0 2 -15 0 0 -2 4 0 0 -7c-2,2 -5,3 -8,3 -2,0 -4,-1 -6,-1 -1,-1 -3,-2 -4,-4 -1,-1 -2,-3 -3,-5 -1,-2 -1,-4 -1,-6 0,-2 0,-5 1,-6 1,-2 2,-4 3,-6 2,-1 3,-2 5,-3 2,-1 4,-1 6,-1 3,0 5,1 7,3l0 -9 -20 0 0 -3 20 0z"/>
     <path class="fil2" d="M1275 1577c-2,-1 -4,-3 -6,-5 -1,-2 -3,-4 -4,-6 0,-1 0,-2 0,-3l-4 0 0 -2 16 0 0 2 -4 0c1,9 4,14 9,14l2 0c5,0 8,-5 9,-14l-4 0 0 -2 16 0 0 2 -4 0c0,1 0,2 -1,3 -1,2 -2,4 -3,6 -2,2 -4,4 -6,5 -2,1 -6,1 -8,1 -3,0 -6,0 -8,-1z"/>
     <path class="fil2" d="M1464 1577c-2,-1 -4,-3 -6,-5 -1,-2 -3,-4 -4,-6 0,-1 0,-2 0,-3l-4 0 0 -2 16 0 0 2 -4 0c0,9 4,14 9,14l2 0c5,0 8,-5 9,-14l-4 0 0 -2 16 0 0 2 -4 0c0,1 0,2 -1,3 -1,2 -2,4 -4,6 -1,2 -3,4 -5,5 -2,1 -6,1 -8,1 -3,0 -6,0 -8,-1z"/>
     <path class="fil2" d="M1472 1564c-1,0 -2,0 -3,1 -1,1 -1,2 -1,3 0,1 0,2 1,3 1,1 2,2 3,2 1,0 2,-1 3,-2 1,-1 1,-2 1,-3 0,-1 0,-2 -1,-3 -1,-1 -2,-1 -3,-1z"/>
     <path class="fil4" d="M2019 1687l0 24 -3 0 0 -24 -9 0 0 -3 21 0 0 3 -9 0zm6 14c0,-3 1,-6 3,-8 1,-1 3,-2 6,-2 3,0 5,0 7,2 1,2 2,5 2,8 0,3 -1,6 -2,8 -2,1 -4,2 -7,2 -3,0 -5,-1 -6,-3 -2,-1 -3,-4 -3,-7zm4 0c0,5 2,7 5,7 2,0 3,0 4,-2 1,-1 1,-3 1,-5 0,-5 -1,-8 -5,-8 -1,0 -3,1 -4,2 -1,2 -1,4 -1,6zm17 15l2 -2c2,1 4,2 6,2 1,0 2,-1 3,-1 1,-1 2,-1 2,-2 0,-2 -1,-3 -4,-3 0,0 -1,0 -2,1 -1,0 -2,0 -2,0 -3,0 -4,-1 -4,-3 0,-1 0,-2 1,-2 0,-1 1,-1 2,-1 -3,-2 -4,-4 -4,-7 0,-2 1,-4 2,-5 1,-2 3,-2 5,-2 2,0 4,0 5,1l2 -2 2 2 -2 1c1,2 1,3 1,5 0,2 0,4 -2,5 -1,2 -3,2 -5,3l-3 0c0,0 0,0 -1,0 0,0 -1,1 -1,1 0,1 1,1 2,1 1,0 1,0 3,0 1,-1 1,-1 2,-1 2,0 3,1 5,2 1,1 1,2 1,4 0,1 -1,3 -2,4 -2,1 -4,2 -6,2 -2,0 -3,0 -4,-1 -2,0 -3,-1 -4,-2zm8 -23c-2,0 -3,1 -3,2 -1,1 -2,2 -2,3 0,1 1,2 2,3 0,1 1,2 3,2 1,0 2,-1 2,-2 1,0 2,-2 2,-3 0,-1 -1,-2 -2,-3 0,-1 -1,-2 -2,-2zm28 8l-14 0c0,3 1,4 2,6 1,1 3,1 4,1 2,0 4,0 5,-1l2 2c-1,1 -1,1 -3,2 -1,0 -3,0 -4,0 -3,0 -5,-1 -7,-2 -2,-2 -3,-5 -3,-8 0,-3 1,-6 3,-8 2,-2 4,-2 7,-2 3,0 5,0 6,2 2,2 3,4 3,6 0,1 0,2 -1,2zm-8 -7c-2,0 -3,0 -4,1 -1,1 -2,2 -2,4l11 0c0,-2 0,-3 -1,-4 -1,-1 -2,-1 -4,-1zm14 0l-3 0 0 -3 3 0 0 -4 3 -2 0 6 6 0 0 3 -6 0 0 10c0,1 0,3 1,3 1,1 1,1 3,1 1,0 2,0 3,0l0 3c-1,0 -3,0 -5,0 -1,0 -3,0 -4,-1 -1,-2 -1,-3 -1,-5l0 -11zm26 17l0 -13c0,-1 -1,-2 -1,-3 -1,-1 -2,-1 -4,-1 0,0 -1,0 -2,0 -1,1 -2,1 -2,2l0 15 -4 0 0 -28 4 0 0 10c0,-1 1,-1 2,-2 1,0 2,0 3,0 3,0 4,0 5,2 2,1 2,3 2,5l0 13 -3 0zm25 -10l-15 0c0,3 1,4 2,6 2,1 3,1 5,1 2,0 3,0 5,-1l1 2c0,1 -1,1 -2,2 -2,0 -3,0 -5,0 -2,0 -5,-1 -6,-2 -2,-2 -3,-5 -3,-8 0,-3 1,-6 3,-8 2,-2 4,-2 6,-2 3,0 5,0 7,2 1,2 2,4 2,6 0,1 0,2 0,2zm-9 -7c-1,0 -3,0 -4,1 -1,1 -1,2 -1,4l11 0c0,-2 -1,-3 -2,-4 -1,-1 -2,-1 -4,-1zm23 0c0,0 -1,0 -2,0 -1,0 -2,0 -3,1 -1,1 -1,3 -1,4l0 12 -4 0 0 -20 4 0 0 3c1,-2 3,-3 5,-3 1,0 2,0 3,0l-2 3zm37 17l-1 0 -7 -19 -6 19 -1 0 -8 -27 3 0 6 19 6 -19 1 0 6 19 5 -19 4 0 -8 27zm26 -10l-14 0c0,3 0,4 2,6 1,1 2,1 4,1 2,0 4,0 5,-1l1 2c0,1 -1,1 -2,2 -1,0 -3,0 -5,0 -2,0 -4,-1 -6,-2 -2,-2 -3,-5 -3,-8 0,-3 1,-6 3,-8 2,-2 4,-2 6,-2 3,0 5,0 7,2 1,2 2,4 2,6 0,1 0,2 0,2zm-9 -7c-1,0 -2,0 -3,1 -1,1 -2,2 -2,4l11 0c0,-2 -1,-3 -2,-4 -1,-1 -2,-1 -4,-1zm42 -9l-1 3c-2,-1 -3,-2 -6,-2 -2,0 -4,2 -6,4 -1,2 -2,4 -2,8 0,3 1,5 2,7 2,2 4,3 6,3 3,0 5,-1 6,-3l2 3c-2,2 -5,3 -8,3 -4,0 -7,-1 -9,-3 -2,-3 -3,-6 -3,-11 0,-4 1,-7 4,-10 2,-3 5,-4 8,-4 3,0 5,1 7,2zm16 24c-1,1 -3,2 -6,2 -2,0 -3,0 -4,-1 -1,-2 -2,-3 -2,-5 0,-2 1,-3 3,-5 1,-1 4,-2 6,-2 1,0 2,0 3,1 0,-4 -2,-5 -4,-5 -3,0 -4,0 -6,2l-1 -3c1,-1 2,-1 3,-2 1,0 2,0 3,0 3,0 5,0 6,2 2,1 2,3 2,6l0 7c0,2 1,3 2,4l0 1c-2,0 -3,0 -3,0 -1,-1 -2,-1 -2,-2zm0 -8c-1,0 -2,0 -3,0 -1,0 -3,0 -4,1 -1,1 -2,2 -2,3 0,2 2,4 4,4 2,0 3,-1 5,-3l0 -5zm21 10l0 -12c0,-2 0,-3 -1,-4 -1,-1 -2,-1 -3,-1 -1,0 -2,0 -3,0 0,1 -1,1 -2,2l0 15 -3 0 0 -20 2 0 1 3c2,-2 3,-3 6,-3 4,0 7,2 7,8l0 12 -4 0z"/>
     <path class="fil4" d="M1928 1664c0,0 1,0 1,1 0,0 -1,0 -1,0 0,0 0,0 0,0 0,0 0,0 -1,0 0,0 0,0 0,0 0,0 0,0 -1,0 0,0 0,0 0,0 0,0 0,0 0,0l-1 -4 -7 0 -1 3c-1,1 -1,1 -1,1 0,0 0,0 0,0 0,0 0,0 0,0 0,0 0,0 -1,0 0,0 0,0 0,0 0,0 -1,0 -1,0 0,0 0,0 0,0 0,-1 0,-1 0,-1l6 -15c0,0 0,0 0,-1 0,0 0,0 0,0 0,0 1,0 1,0 0,0 0,0 0,0 1,0 1,0 1,0 0,0 0,0 0,0 1,0 1,0 1,0 0,1 0,1 0,1l5 15zm332 1c0,0 0,0 0,0 0,0 0,0 0,0 -1,0 -1,0 -1,0 0,0 0,0 0,0 -1,0 -1,0 -1,0 0,0 0,0 0,0 0,0 0,0 -1,0 0,0 0,0 0,0l-5 -7 0 7c0,0 0,0 0,0 0,0 0,0 0,0 0,0 0,0 0,0 0,0 0,0 -1,0 0,0 0,0 0,0 0,0 0,0 0,0 -1,0 -1,0 -1,0 0,0 0,0 0,0l0 -18c0,0 0,0 0,0 0,0 0,0 1,0 0,0 0,0 0,0 0,0 0,0 0,0 1,0 1,0 1,0 0,0 0,0 0,0 0,0 0,0 0,0 0,0 0,0 0,0l0 11 5 -5c0,0 0,0 0,0 0,0 0,0 0,0 0,0 0,0 1,0 0,0 0,0 0,0 0,0 1,0 1,0 0,0 0,0 0,0 0,0 0,0 0,0 0,0 0,0 0,0 0,0 0,0 0,0 0,0 0,1 0,1l-4 4 4 6c1,0 1,0 1,0 0,0 0,0 0,1zm4 0c0,0 0,0 0,0 0,0 0,0 0,0 0,0 0,0 0,0 0,0 -1,0 -1,0 0,0 0,0 0,0 0,0 -1,0 -1,0 0,0 0,0 0,0 0,0 0,0 0,0l0 -12c0,0 0,0 0,0 0,0 0,0 0,0 0,0 1,0 1,0 0,0 0,0 0,0 0,0 1,0 1,0 0,0 0,0 0,0 0,0 0,0 0,0 0,0 0,0 0,0l0 12zm1 -16c0,1 -1,1 -1,1 0,0 0,0 -1,0 0,0 -1,0 -1,0 0,0 0,0 0,-1 0,0 0,-1 0,-1 0,0 1,0 1,0 1,0 1,0 1,0 0,0 1,1 1,1zm13 16c0,0 0,0 0,0 0,0 0,0 0,0 0,0 0,0 0,0 -1,0 -1,0 -1,0 0,0 0,0 0,0 -1,0 -1,0 -1,0 0,0 0,0 0,0 0,0 0,0 0,0l0 -7c0,-1 0,-1 0,-2 0,0 0,-1 -1,-1 0,0 0,0 0,0 -1,-1 -1,-1 -1,-1 -1,0 -1,0 -2,1 -1,0 -1,1 -2,1l0 9c0,0 0,0 0,0 0,0 0,0 0,0 0,0 0,0 0,0 0,0 -1,0 -1,0 0,0 0,0 0,0 0,0 -1,0 -1,0 0,0 0,0 0,0 0,0 0,0 0,0l0 -12c0,0 0,0 0,0 0,0 0,0 0,0 0,0 1,0 1,0 0,0 0,0 0,0 0,0 1,0 1,0 0,0 0,0 0,0 0,0 0,0 0,0 0,0 0,0 0,0l0 2c1,-1 1,-2 2,-2 1,0 1,-1 2,-1 1,0 1,1 2,1 0,0 1,0 1,1 1,0 1,1 1,1 0,1 0,2 0,3l0 7zm14 -11c0,0 0,0 -1,0 0,0 0,0 0,0l-2 0c1,1 1,1 1,1 0,1 0,1 0,2 0,0 0,1 0,1 0,1 -1,1 -1,2 0,0 -1,0 -1,0 -1,1 -2,1 -2,1 -1,0 -1,0 -2,0 0,-1 0,-1 -1,-1 0,0 0,0 0,1 0,0 0,0 0,0 0,1 0,1 0,1 1,0 1,0 2,0l3 0c0,0 1,1 1,1 1,0 1,0 1,0 1,1 1,1 1,1 0,1 0,1 0,2 0,0 0,1 0,1 0,1 0,1 -1,1 0,1 -1,1 -2,1 0,0 -1,1 -2,1 -1,0 -2,-1 -3,-1 0,0 -1,0 -1,0 -1,-1 -1,-1 -1,-1 0,-1 0,-1 0,-2 0,0 0,0 0,0 0,-1 0,-1 0,-1 0,0 0,-1 1,-1 0,0 0,0 0,0 0,-1 0,-1 -1,-1 0,-1 0,-1 0,-1 0,-1 0,-1 0,-2 1,0 1,-1 1,-1 0,0 0,-1 0,-1 -1,0 -1,-1 -1,-1 0,-1 0,-2 1,-2 0,-1 0,-1 1,-1 0,-1 0,-1 1,-1 1,0 1,-1 2,-1 0,0 0,0 1,1 0,0 0,0 1,0l3 0c0,0 0,0 0,0 1,0 1,0 1,1zm-4 3c0,-1 0,-2 0,-2 -1,-1 -1,-1 -2,-1 -1,0 -1,0 -1,0 -1,0 -1,1 -1,1 0,0 0,0 0,1 -1,0 -1,0 -1,1 0,0 1,1 1,1 0,1 1,1 2,1 0,0 1,0 1,0 0,0 0,0 1,-1 0,0 0,0 0,0 0,-1 0,-1 0,-1zm1 9c0,-1 0,-1 0,-1 -1,-1 -1,-1 -2,-1l-3 0c0,0 0,0 -1,1 0,0 0,0 0,0 0,0 0,1 0,1 0,0 0,0 0,0 0,1 0,1 1,1 0,1 1,1 2,1 1,0 1,0 2,0 0,0 0,-1 1,-1 0,0 0,0 0,0 0,-1 0,-1 0,-1zm-192 -18c0,0 0,1 0,1 0,0 0,0 0,0 0,0 0,0 0,0 0,0 -1,0 -1,0 0,0 0,0 0,0 0,0 0,0 0,0 0,0 0,0 -1,0 0,0 0,0 0,0 0,0 -1,0 -1,0 0,0 0,0 -1,0 0,1 0,1 0,1 0,1 0,1 0,1l0 2 3 0c0,0 0,0 0,0 0,0 0,0 0,0 0,0 0,0 0,0 0,0 0,0 0,1 0,0 0,0 0,0 0,0 0,0 0,0l-3 0 0 11c0,0 0,0 0,0 0,0 0,0 0,0 0,0 0,0 0,0 -1,0 -1,0 -1,0 0,0 0,0 0,0 -1,0 -1,0 -1,0 0,0 0,0 0,0 0,0 0,0 0,0l0 -11 -2 0c0,0 0,0 0,0 0,0 0,0 0,0 0,-1 0,-1 0,-1 0,0 0,0 0,0 0,0 0,0 0,0 0,0 0,0 0,0l2 0 0 -1c0,-1 0,-2 0,-3 0,0 1,-1 1,-1 0,0 1,-1 1,-1 1,0 1,0 2,0 0,0 0,0 1,0 0,0 0,0 0,0 0,0 0,0 1,0 0,0 0,0 0,1 0,0 0,0 0,0 0,0 0,0 0,0zm10 17c0,0 0,0 0,0 0,0 0,0 0,0 -1,0 -1,0 -1,0 0,0 0,0 0,0 -1,0 -1,0 -1,0 0,0 0,0 0,0 0,0 0,0 0,0 0,0 0,0 0,0l0 -16c0,0 0,0 0,-1 0,0 0,0 0,0 0,0 0,0 0,0 0,0 0,0 1,0 0,0 0,0 0,0 0,0 0,0 1,0 0,0 0,0 0,0 0,1 0,1 0,1l0 16zm14 0c0,0 0,0 0,0 0,0 0,0 0,0 0,0 -1,0 -1,0 0,0 0,0 0,0 0,0 -1,0 -1,0 0,0 0,0 0,0 0,0 0,0 0,0 0,0 0,0 0,0l0 -7c0,-1 0,-1 0,-2 -1,0 -1,-1 -1,-1 0,0 0,0 -1,0 0,-1 0,-1 -1,-1 0,0 -1,0 -1,1 -1,0 -1,1 -2,1l0 9c0,0 0,0 0,0 0,0 0,0 0,0 0,0 0,0 0,0 -1,0 -1,0 -1,0 0,0 0,0 -1,0 0,0 0,0 0,0 0,0 0,0 0,0 0,0 0,0 0,0l0 -12c0,0 0,0 0,0 0,0 0,0 0,0 0,0 0,0 0,0 1,0 1,0 1,0 0,0 0,0 0,0 0,0 1,0 1,0 0,0 0,0 0,0 0,0 0,0 0,0l0 2c0,-1 1,-2 2,-2 0,0 1,-1 2,-1 0,0 1,1 2,1 0,0 1,0 1,1 0,0 0,1 1,1 0,1 0,2 0,3l0 7zm14 0c0,0 -1,0 -1,0 0,0 0,0 0,0 0,0 0,0 0,0 0,0 0,0 0,0 -1,0 -1,0 -1,0 0,0 0,0 0,0 0,0 0,0 0,0 0,0 0,0 0,0l0 -2c-1,1 -2,1 -2,2 -1,0 -2,0 -2,0 -1,0 -2,0 -3,0 0,-1 -1,-1 -1,-2 0,0 -1,-1 -1,-2 0,0 0,-1 0,-2 0,-1 0,-2 0,-3 0,-1 1,-1 1,-2 1,0 1,-1 2,-1 0,0 1,-1 2,-1 1,0 1,1 2,1 0,0 1,1 1,1l0 -6c0,-1 0,-1 0,-1 0,0 1,0 1,0 0,0 0,0 0,0 0,0 0,0 0,0 1,0 1,0 1,0 0,0 0,0 0,0 0,0 0,0 0,0 0,0 1,0 1,1l0 17zm-3 -9c0,0 -1,-1 -1,-1 -1,-1 -1,-1 -2,-1 0,0 -1,0 -1,1 -1,0 -1,0 -1,1 0,0 -1,1 -1,1 0,1 0,1 0,2 0,0 0,1 0,1 0,1 1,1 1,2 0,0 0,1 1,1 0,0 0,0 1,0 0,0 1,0 1,0 0,0 0,0 1,0 0,0 0,-1 0,-1 1,0 1,-1 1,-1l0 -5zm9 9c0,0 0,0 -1,0 0,0 0,0 0,0 0,0 0,0 0,0 0,0 0,0 -1,0 0,0 0,0 0,0 0,0 0,0 0,0 0,0 -1,0 -1,0 0,0 0,0 0,0l0 -12c0,0 0,0 0,0 0,0 1,0 1,0 0,0 0,0 0,0 0,0 0,0 0,0 1,0 1,0 1,0 0,0 0,0 0,0 0,0 0,0 0,0 1,0 1,0 1,0l0 12zm0 -16c0,1 0,1 -1,1 0,0 0,0 -1,0 0,0 0,0 -1,0 0,0 0,0 0,-1 0,0 0,-1 0,-1 1,0 1,0 1,0 1,0 1,0 2,0 0,0 0,1 0,1zm12 16c0,0 0,0 0,0 0,0 0,0 0,0 0,0 -1,0 -1,0 0,0 0,0 0,0 0,0 -1,0 -1,0 0,0 0,0 0,0l0 -2c0,1 -1,1 -1,2 -1,0 -2,0 -2,0 -1,0 -2,0 -2,0 -1,0 -1,-1 -1,-1 -1,0 -1,-1 -1,-1 0,0 0,-1 0,-1 0,-1 0,-2 0,-2 0,-1 1,-1 1,-1 1,-1 1,-1 2,-1 1,0 2,0 2,0l2 0 0 -1c0,-1 0,-1 0,-1 0,-1 0,-1 -1,-1 0,0 0,-1 0,-1 -1,0 -1,0 -2,0 0,0 -1,0 -1,0 0,0 -1,1 -1,1 0,0 -1,0 -1,0 0,0 0,0 0,0 0,0 0,0 -1,0 0,0 0,0 0,0 0,0 0,0 0,0 0,0 0,0 0,0 0,-1 0,-1 0,-1 0,0 0,0 0,0 1,0 1,-1 1,-1 0,0 1,0 1,0 0,0 1,0 1,0 1,-1 1,-1 2,-1 0,0 1,1 2,1 0,0 1,0 1,1 0,0 1,0 1,1 0,0 0,1 0,2l0 8zm-2 -6l-2 0c0,0 -1,0 -1,0 -1,1 -1,1 -1,1 -1,0 -1,0 -1,1 0,0 0,0 0,0 0,1 0,2 0,2 1,0 1,0 2,0 1,0 1,0 2,0 0,0 0,-1 1,-1l0 -3zm25 0c0,1 -1,2 -1,2 0,1 -1,2 -1,2 -1,1 -1,1 -2,2 -1,0 -2,0 -3,0 -1,0 -2,0 -2,0 -1,-1 -2,-1 -2,-1 -1,-1 -1,-2 -1,-2 -1,-1 -1,-2 -1,-3l0 -10c0,0 0,0 0,-1 0,0 0,0 0,0 0,0 1,0 1,0 0,0 0,0 0,0 0,0 1,0 1,0 0,0 0,0 0,0 0,0 0,0 0,0 0,1 0,1 0,1l0 10c0,0 0,1 1,2 0,0 0,1 0,1 1,0 1,1 2,1 0,0 1,0 1,0 1,0 2,0 2,0 1,0 1,-1 1,-1 1,0 1,-1 1,-1 0,-1 0,-2 0,-2l0 -10c0,0 0,0 0,-1 0,0 0,0 1,0 0,0 0,0 0,0 0,0 0,0 0,0 1,0 1,0 1,0 0,0 0,0 0,0 0,0 0,0 0,0 1,1 1,1 1,1l0 10zm14 6c0,0 0,0 0,0 -1,0 -1,0 -1,0 0,0 0,0 0,0 0,0 0,0 0,0 -1,0 -1,0 -1,0 0,0 0,0 0,0 0,0 0,0 -1,0 0,0 0,0 0,0l0 -7c0,-1 0,-1 0,-2 0,0 0,-1 0,-1 0,0 -1,0 -1,0 0,-1 -1,-1 -1,-1 -1,0 -1,0 -2,1 0,0 -1,1 -1,1l0 9c0,0 0,0 0,0 0,0 0,0 0,0 -1,0 -1,0 -1,0 0,0 0,0 0,0 0,0 -1,0 -1,0 0,0 0,0 0,0 0,0 0,0 0,0 0,0 0,0 0,0l0 -12c0,0 0,0 0,0 0,0 0,0 0,0 0,0 0,0 0,0 0,0 0,0 1,0 0,0 0,0 0,0 0,0 0,0 0,0 0,0 1,0 1,0 0,0 0,0 0,0l0 2c0,-1 1,-2 2,-2 0,0 1,-1 1,-1 1,0 2,1 2,1 1,0 1,0 2,1 0,0 0,1 0,1 0,1 1,2 1,3l0 7zm13 0c0,0 0,0 0,0 0,0 0,0 0,0 0,0 0,0 0,0 0,0 0,0 -1,0 0,0 0,0 0,0 0,0 0,0 0,0 0,0 -1,0 -1,0 0,0 0,0 0,0l0 -2c0,1 -1,1 -1,2 -1,0 -2,0 -3,0 0,0 -1,0 -2,0 0,-1 -1,-1 -1,-2 -1,0 -1,-1 -1,-2 0,0 0,-1 0,-2 0,-1 0,-2 0,-3 0,-1 1,-1 1,-2 0,0 1,-1 2,-1 0,0 1,-1 2,-1 0,0 1,1 1,1 1,0 2,1 2,1l0 -6c0,-1 0,-1 0,-1 0,0 0,0 0,0 0,0 1,0 1,0 0,0 0,0 0,0 0,0 1,0 1,0 0,0 0,0 0,0 0,0 0,0 0,0 0,0 0,0 0,1l0 17zm-2 -9c0,0 -1,-1 -2,-1 0,-1 -1,-1 -1,-1 -1,0 -1,0 -2,1 0,0 0,0 0,1 -1,0 -1,1 -1,1 0,1 0,1 0,2 0,0 0,1 0,1 0,1 0,1 0,2 1,0 1,1 1,1 1,0 1,0 2,0 0,0 0,0 1,0 0,0 0,0 0,0 1,0 1,-1 1,-1 0,0 1,-1 1,-1l0 -5zm16 2c0,1 0,1 0,1 0,0 -1,0 -1,0l-7 0c0,1 0,1 0,2 0,0 0,1 0,1 1,1 1,1 2,1 0,0 1,0 1,0 1,0 1,0 2,0 0,0 1,0 1,0 0,0 0,0 1,0 0,0 0,0 0,0 0,0 0,0 0,0 0,0 0,0 0,0 0,0 0,0 0,0 0,0 0,0 0,0 0,0 0,1 0,1 0,0 0,0 0,0 0,0 0,0 0,0 0,0 0,0 0,0 0,0 0,0 0,0 0,0 -1,1 -1,1 0,0 -1,0 -1,0 -1,0 -1,0 -2,0 -1,0 -2,0 -2,0 -1,-1 -2,-1 -2,-1 -1,-1 -1,-2 -1,-2 0,-1 -1,-2 -1,-3 0,-1 1,-2 1,-3 0,-1 0,-1 1,-2 0,0 1,-1 2,-1 0,0 1,-1 2,-1 1,0 2,1 2,1 1,0 1,1 2,1 0,1 0,1 1,2 0,0 0,1 0,2l0 0zm-2 0c0,-1 0,-2 -1,-3 0,-1 -1,-1 -2,-1 -1,0 -1,0 -2,0 0,1 0,1 -1,1 0,0 0,1 0,1 0,1 0,1 0,2l6 0zm12 -4c0,0 0,0 0,0 0,0 0,0 0,1 0,0 0,0 0,0 0,0 0,0 0,0 0,0 -1,0 -1,0 0,0 0,0 0,0 0,0 0,0 0,-1 -1,0 -1,0 -1,0 0,0 0,0 -1,1 0,0 0,0 0,0 0,0 -1,0 -1,1 0,0 0,0 -1,1l0 8c0,0 0,0 0,0 0,0 0,0 0,0 0,0 0,0 0,0 0,0 -1,0 -1,0 0,0 0,0 0,0 0,0 -1,0 -1,0 0,0 0,0 0,0 0,0 0,0 0,0l0 -12c0,0 0,0 0,0 0,0 0,0 0,0 0,0 1,0 1,0 0,0 0,0 0,0 0,0 0,0 1,0 0,0 0,0 0,0 0,0 0,0 0,0 0,0 0,0 0,0l0 2c0,-1 1,-1 1,-1 0,-1 1,-1 1,-1 0,0 0,0 1,0 0,-1 0,-1 0,-1 0,0 0,0 1,0 0,0 0,0 0,1 0,0 0,0 0,0 1,0 1,0 1,0 0,0 0,0 0,0 0,0 0,0 0,0 0,0 0,0 0,0 0,0 0,1 0,1zm8 10c0,0 0,0 0,0 0,0 0,1 0,1 0,0 0,0 0,0 0,0 -1,0 -1,0 0,0 0,0 0,0 0,0 -1,0 -1,0 0,0 -1,0 -1,0 -1,0 -1,-1 -1,-1 -1,0 -1,-1 -1,-1 0,-1 0,-1 0,-2l0 -7 -2 0c0,0 0,0 0,0 0,0 0,0 0,0 0,-1 0,-1 0,-1 0,0 0,0 0,0 0,0 0,0 0,0 0,0 0,0 0,0l2 0 0 -3c0,0 0,0 0,0 0,0 0,0 0,0 0,0 0,0 0,0 0,0 1,0 1,0 0,0 0,0 0,0 1,0 1,0 1,0 0,0 0,0 0,0 0,0 0,0 0,0l0 3 3 0c0,0 0,0 0,0 0,0 0,0 0,0 0,0 0,0 0,0 0,0 0,0 0,1 0,0 0,0 0,0 0,0 0,0 0,0l-3 0 0 7c0,1 0,1 0,2 1,0 1,0 2,0 0,0 0,0 0,0 0,0 0,0 0,0 1,0 1,0 1,0 0,0 0,0 0,0 0,0 0,0 0,0 0,0 0,0 0,0 0,0 0,0 0,0 0,0 0,1 0,1zm11 1c0,0 0,0 0,0 0,0 0,0 0,0 0,0 0,0 0,0 -1,0 -1,0 -1,0 0,0 0,0 0,0 0,0 0,0 0,0l0 -2c-1,1 -1,1 -2,2 -1,0 -1,0 -2,0 -1,0 -1,0 -2,0 0,0 -1,-1 -1,-1 0,0 -1,-1 -1,-1 0,0 0,-1 0,-1 0,-1 0,-2 0,-2 1,-1 1,-1 2,-1 0,-1 1,-1 1,-1 1,0 2,0 3,0l1 0 0 -1c0,-1 0,-1 0,-1 0,-1 0,-1 0,-1 0,0 -1,-1 -1,-1 0,0 -1,0 -1,0 -1,0 -1,0 -2,0 0,0 0,1 -1,1 0,0 0,0 -1,0 0,0 0,0 0,0 0,0 0,0 0,0 0,0 0,0 0,0 0,0 0,0 0,0 0,0 0,0 0,0 0,-1 0,-1 0,-1 0,0 0,0 0,0 0,0 0,-1 0,-1 1,0 1,0 1,0 1,0 1,0 2,0 0,-1 0,-1 1,-1 1,0 1,1 2,1 1,0 1,0 1,1 1,0 1,0 1,1 0,0 0,1 0,2l0 8zm-2 -6l-1 0c-1,0 -2,0 -2,0 0,1 -1,1 -1,1 0,0 -1,0 -1,1 0,0 0,0 0,0 0,1 0,2 1,2 0,0 1,0 1,0 1,0 1,0 2,0 0,0 1,-1 1,-1l0 -3zm-323 -8l0 0 -3 8 6 0 -3 -8zm28 0c0,0 0,0 0,0 0,0 0,0 0,0 0,0 0,0 0,0 0,1 0,1 0,1 0,0 0,-1 0,-1 -1,0 -1,0 -1,0 -1,0 -1,-1 -2,-1 0,0 -1,0 -2,0 -1,0 -2,0 -2,0 -1,1 -2,1 -2,2 -1,0 -1,1 -1,2 -1,1 -1,2 -1,3 0,1 0,2 1,2 0,1 0,2 1,2 1,1 1,1 2,2 1,0 1,0 2,0 1,0 1,0 2,0 0,0 1,0 1,-1l0 -4 -4 0c0,0 0,0 0,-1 0,0 0,0 0,0 0,0 0,-1 0,-1 0,0 0,0 0,0 0,0 0,0 0,0 0,0 0,0 0,0l6 0c0,0 0,0 0,0 0,0 0,0 0,0 0,0 0,0 0,0 0,0 0,1 0,1l0 6c0,0 0,0 0,1 0,0 0,0 0,0 0,0 -1,0 -1,0 0,1 -1,1 -1,1 -1,0 -1,0 -2,0 0,0 0,0 -1,0 -1,0 -2,0 -3,-1 -1,0 -2,0 -3,-1 -1,-1 -1,-2 -1,-3 -1,-1 -1,-2 -1,-3 0,-2 0,-3 1,-4 0,-1 1,-2 1,-3 1,0 2,-1 3,-1 1,-1 2,-1 3,-1 1,0 1,0 2,0 1,0 1,0 2,1 0,0 0,0 1,0 0,0 0,0 0,1 0,0 0,0 0,0 0,0 0,0 0,1zm15 8c0,1 0,1 0,2 -1,1 -1,2 -1,2 -1,1 -2,1 -2,2 -1,0 -2,0 -3,0 -1,0 -2,0 -2,0 -1,-1 -2,-1 -2,-2 -1,0 -1,-1 -1,-2 0,0 0,-1 0,-2 0,-1 0,-2 0,-3 0,-1 1,-1 1,-2 0,0 1,-1 2,-1 1,0 1,-1 2,-1 1,0 2,1 3,1 1,0 1,1 2,1 0,1 0,1 1,2 0,1 0,2 0,3zm-2 0c0,-1 0,-1 0,-2 0,-1 -1,-1 -1,-1 0,-1 -1,-1 -1,-1 0,-1 -1,-1 -2,-1 0,0 -1,0 -1,1 -1,0 -1,0 -1,0 -1,1 -1,1 -1,2 0,0 0,1 0,2 0,0 0,1 0,2 0,0 0,1 0,1 1,0 1,1 2,1 0,0 1,0 1,0 1,0 1,0 2,0 0,0 1,-1 1,-1 0,0 0,-1 1,-1 0,-1 0,-2 0,-2zm14 -6c0,0 0,0 0,0 0,0 0,0 0,0 0,0 0,0 0,0 0,0 0,0 0,1l-4 10c0,1 0,1 0,1 0,0 0,0 0,0 0,0 0,0 0,0 -1,0 -1,0 -1,0 0,0 0,0 -1,0 0,0 0,0 0,0 0,0 0,0 0,0 0,0 0,0 0,-1l-4 -10c0,-1 0,-1 0,-1 0,0 0,0 0,0 0,0 0,0 0,0 0,0 0,0 0,0 0,0 0,0 0,0 0,0 0,0 0,0 0,0 0,0 1,0 0,0 0,0 0,0 0,0 0,0 0,0 1,0 1,0 1,0 0,0 0,0 0,0l3 10 0 0 0 0 3 -10c0,0 0,0 0,0 0,0 1,0 1,0 0,0 0,0 0,0 0,0 0,0 0,0 1,0 1,0 1,0 0,0 0,0 0,0 0,0 0,0 0,0 0,0 0,0 0,0zm12 5c0,1 0,1 0,1 0,0 0,0 0,0l-8 0c0,1 0,1 0,2 0,0 1,1 1,1 0,1 1,1 1,1 0,0 1,0 2,0 0,0 1,0 1,0 1,0 1,0 1,0 1,0 1,0 1,0 0,0 0,0 1,0 0,0 0,0 0,0 0,0 0,0 0,0 0,0 0,0 0,0 0,0 0,0 0,0 0,0 0,1 0,1 0,0 0,0 0,0 0,0 0,0 0,0 0,0 0,0 0,0 0,0 -1,0 -1,0 0,0 0,1 -1,1 0,0 0,0 -1,0 0,0 -1,0 -1,0 -1,0 -2,0 -3,0 -1,-1 -1,-1 -2,-1 0,-1 -1,-2 -1,-2 0,-1 0,-2 0,-3 0,-1 0,-2 0,-3 0,-1 1,-1 1,-2 1,0 1,-1 2,-1 1,0 1,-1 2,-1 1,0 2,1 3,1 0,0 1,1 1,1 1,1 1,1 1,2 0,0 0,1 0,2l0 0zm-2 0c0,-1 0,-2 0,-3 -1,-1 -2,-1 -3,-1 0,0 -1,0 -1,0 -1,1 -1,1 -1,1 0,0 -1,1 -1,1 0,1 0,1 0,2l6 0zm12 -4c0,0 0,0 0,0 0,0 0,0 0,1 0,0 0,0 0,0 0,0 0,0 0,0 0,0 0,0 0,0 0,0 0,0 -1,0 0,0 0,0 0,-1 0,0 0,0 0,0 -1,0 -1,0 -1,1 0,0 -1,0 -1,0 0,0 0,0 0,1 -1,0 -1,0 -1,1l0 8c0,0 0,0 0,0 0,0 0,0 0,0 -1,0 -1,0 -1,0 0,0 0,0 0,0 -1,0 -1,0 -1,0 0,0 0,0 0,0 0,0 0,0 0,0 0,0 0,0 0,0l0 -12c0,0 0,0 0,0 0,0 0,0 0,0 0,0 0,0 0,0 0,0 0,0 1,0 0,0 0,0 0,0 0,0 0,0 0,0 0,0 0,0 1,0 0,0 0,0 0,0l0 2c0,-1 0,-1 0,-1 1,-1 1,-1 1,-1 0,0 1,0 1,0 0,-1 0,-1 1,-1 0,0 0,0 0,0 0,0 0,0 1,1 0,0 0,0 0,0 0,0 0,0 0,0 0,0 0,0 0,0 0,0 0,0 0,0 0,0 0,0 0,0 0,0 0,1 0,1zm13 11c0,0 0,0 0,0 0,0 0,0 -1,0 0,0 0,0 0,0 0,0 0,0 0,0 -1,0 -1,0 -1,0 0,0 0,0 0,0 0,0 0,0 0,0 0,0 0,0 0,0l0 -7c0,-1 -1,-1 -1,-2 0,0 0,-1 0,-1 0,0 -1,0 -1,0 0,-1 0,-1 -1,-1 0,0 -1,0 -1,1 -1,0 -2,1 -2,1l0 9c0,0 0,0 0,0 0,0 0,0 0,0 0,0 -1,0 -1,0 0,0 0,0 0,0 0,0 -1,0 -1,0 0,0 0,0 0,0 0,0 0,0 0,0 0,0 0,0 0,0l0 -12c0,0 0,0 0,0 0,0 0,0 0,0 0,0 0,0 0,0 0,0 1,0 1,0 0,0 0,0 0,0 0,0 0,0 0,0 1,0 1,0 1,0 0,0 0,0 0,0l0 2c0,-1 1,-2 2,-2 0,0 1,-1 2,-1 0,0 1,1 1,1 1,0 1,0 2,1 0,0 0,1 0,1 1,1 1,2 1,3l0 7zm21 0c0,0 0,0 0,0 -1,0 -1,0 -1,0 0,0 0,0 0,0 0,0 0,0 0,0 -1,0 -1,0 -1,0 0,0 0,0 0,0 0,0 0,0 -1,0 0,0 0,0 0,0l0 -7c0,-1 0,-1 0,-2 0,0 0,-1 0,-1 0,0 -1,0 -1,0 0,-1 0,-1 -1,-1 0,0 -1,0 -1,1 -1,0 -1,1 -2,1l0 9c0,0 0,0 0,0 0,0 0,0 0,0 0,0 0,0 0,0 -1,0 -1,0 -1,0 0,0 0,0 0,0 -1,0 -1,0 -1,0 0,0 0,0 0,0 0,0 0,0 0,0l0 -7c0,-1 0,-1 0,-2 0,0 0,-1 -1,-1 0,0 0,0 0,0 -1,-1 -1,-1 -1,-1 -1,0 -1,0 -2,1 0,0 -1,1 -1,1l0 9c0,0 0,0 0,0 0,0 -1,0 -1,0 0,0 0,0 0,0 0,0 0,0 0,0 -1,0 -1,0 -1,0 0,0 0,0 0,0 0,0 0,0 0,0 0,0 0,0 0,0l0 -12c0,0 0,0 0,0 0,0 0,0 0,0 0,0 0,0 0,0 0,0 0,0 0,0 1,0 1,0 1,0 0,0 0,0 0,0 0,0 0,0 0,0 0,0 0,0 0,0l0 2c1,-1 2,-2 2,-2 1,0 2,-1 2,-1 1,0 1,0 1,1 1,0 1,0 1,0 1,0 1,1 1,1 0,0 1,0 1,1 0,-1 0,-1 1,-1 0,-1 0,-1 1,-1 0,0 0,0 1,0 0,-1 0,-1 1,-1 0,0 1,1 1,1 1,0 1,0 2,1 0,0 0,1 0,1 1,1 1,2 1,2l0 8zm13 -7c0,1 0,1 0,1 0,0 0,0 -1,0l-7 0c0,1 0,1 0,2 0,0 0,1 1,1 0,1 0,1 1,1 0,0 1,0 2,0 0,0 1,0 1,0 0,0 1,0 1,0 0,0 1,0 1,0 0,0 0,0 0,0 0,0 0,0 1,0 0,0 0,0 0,0 0,0 0,0 0,0 0,0 0,0 0,0 0,0 0,1 0,1 0,0 0,0 0,0 0,0 0,0 0,0 0,0 0,0 -1,0 0,0 0,0 0,0 0,0 0,1 -1,1 0,0 -1,0 -1,0 -1,0 -1,0 -2,0 -1,0 -1,0 -2,0 -1,-1 -1,-1 -2,-1 0,-1 -1,-2 -1,-2 0,-1 0,-2 0,-3 0,-1 0,-2 0,-3 0,-1 1,-1 1,-2 1,0 1,-1 2,-1 1,0 1,-1 2,-1 1,0 2,1 2,1 1,0 2,1 2,1 0,1 1,1 1,2 0,0 0,1 0,2l0 0zm-2 0c0,-1 0,-2 -1,-3 0,-1 -1,-1 -2,-1 0,0 -1,0 -1,0 -1,1 -1,1 -1,1 -1,0 -1,1 -1,1 0,1 0,1 0,2l6 0zm15 7c0,0 0,0 0,0 0,0 0,0 0,0 0,0 0,0 0,0 0,0 -1,0 -1,0 0,0 0,0 0,0 0,0 0,0 -1,0 0,0 0,0 0,0 0,0 0,0 0,0l0 -7c0,-1 0,-1 0,-2 0,0 0,-1 0,-1 -1,0 -1,0 -1,0 0,-1 -1,-1 -1,-1 -1,0 -1,0 -2,1 0,0 -1,1 -1,1l0 9c0,0 0,0 -1,0 0,0 0,0 0,0 0,0 0,0 0,0 0,0 0,0 -1,0 0,0 0,0 0,0 0,0 0,0 0,0 0,0 0,0 -1,0 0,0 0,0 0,0l0 -12c0,0 0,0 0,0 0,0 1,0 1,0 0,0 0,0 0,0 0,0 0,0 0,0 1,0 1,0 1,0 0,0 0,0 0,0 0,0 0,0 0,0 0,0 0,0 0,0l0 2c1,-1 2,-2 2,-2 1,0 2,-1 2,-1 1,0 2,1 2,1 1,0 1,0 1,1 1,0 1,1 1,1 0,1 0,2 0,3l0 7zm10 -1c0,0 0,0 0,0 0,0 0,1 0,1 0,0 0,0 -1,0 0,0 0,0 0,0 0,0 0,0 -1,0 0,0 0,0 0,0 -1,0 -1,0 -2,0 0,0 -1,-1 -1,-1 0,0 0,-1 0,-1 -1,-1 -1,-1 -1,-2l0 -7 -1 0c0,0 0,0 0,0 -1,0 -1,0 -1,0 0,-1 0,-1 0,-1 0,0 0,0 1,0 0,0 0,0 0,0 0,0 0,0 0,0l1 0 0 -3c0,0 0,0 0,0 1,0 1,0 1,0 0,0 0,0 0,0 0,0 0,0 0,0 1,0 1,0 1,0 0,0 0,0 0,0 0,0 0,0 1,0 0,0 0,0 0,0l0 3 2 0c1,0 1,0 1,0 0,0 0,0 0,0 0,0 0,0 0,0 0,0 0,0 0,1 0,0 0,0 0,0 0,0 0,0 -1,0l-2 0 0 7c0,1 0,1 0,2 0,0 1,0 1,0 0,0 1,0 1,0 0,0 0,0 0,0 0,0 0,0 0,0 0,0 1,0 1,0 0,0 0,0 0,0 0,0 0,0 0,0 0,0 0,0 0,0 0,0 0,1 0,1zm19 -5c0,1 0,1 0,2 0,1 -1,2 -1,2 -1,1 -1,1 -2,2 -1,0 -2,0 -3,0 -1,0 -1,0 -2,0 -1,-1 -1,-1 -2,-2 0,0 -1,-1 -1,-2 0,0 0,-1 0,-2 0,-1 0,-2 0,-3 0,-1 1,-1 1,-2 1,0 1,-1 2,-1 1,0 2,-1 3,-1 1,0 1,1 2,1 1,0 1,1 2,1 0,1 1,1 1,2 0,1 0,2 0,3zm-2 0c0,-1 0,-1 0,-2 0,-1 0,-1 -1,-1 0,-1 0,-1 -1,-1 0,-1 -1,-1 -1,-1 -1,0 -2,0 -2,1 0,0 -1,0 -1,0 0,1 -1,1 -1,2 0,0 0,1 0,2 0,0 0,1 0,2 0,0 0,1 1,1 0,0 0,1 1,1 0,0 1,0 2,0 0,0 1,0 1,0 1,0 1,-1 1,-1 1,0 1,-1 1,-1 0,-1 0,-2 0,-2z"/>
     <path class="fil4" d="M1257 1647c0,-1 0,-2 1,-3 1,0 2,-1 3,-1 1,0 1,1 2,1 1,1 1,2 1,3l0 6 6 0 0 -6 -4 0 0 -2 9 0 0 2 -3 0 0 16 -2 0 0 -8 -6 0 0 1c0,1 0,1 0,1 0,0 0,0 -1,0 0,0 -1,0 -2,-1 -1,-1 -1,-2 -1,-2 0,0 0,0 0,0 0,-1 1,-1 1,-1l1 0 0 -6c0,-1 0,-1 0,-1 0,-1 -1,-1 -1,-1 -1,0 -1,0 -2,1 0,0 0,0 0,1 0,0 0,0 0,1 1,0 1,0 2,0l0 1c-1,0 -2,0 -3,0 0,-1 -1,-2 -1,-2zm18 0l0 -2 8 0 0 2 -3 0 0 16 -2 0 0 -16 -3 0zm7 0l0 -2 13 0 0 2 -2 0 0 4c0,1 -1,2 -1,2 -1,1 -2,2 -3,2 -1,0 -1,-1 -2,-1 2,3 4,5 7,7l-1 2c-4,-4 -8,-8 -10,-12l2 -1c0,1 1,1 1,2 1,0 2,1 3,1 0,0 1,0 1,-1 1,0 1,-1 1,-1l0 -4 -9 0zm13 0l0 -2 17 0 0 2 -3 0 0 16 -2 0 0 -11 -7 0c-1,0 -1,0 -1,0 -1,1 -1,1 -1,2 0,1 0,2 1,4 1,1 2,2 4,4l-1 1c-2,-2 -3,-3 -4,-5 -1,-1 -2,-3 -2,-4 0,-1 1,-2 1,-3 1,-1 2,-1 3,-1l7 0 0 -3 -12 0zm28 0l0 -2 21 0 0 2 -4 0 0 16 -1 0 0 -9 -5 0 -2 -2 7 0 0 -5 -7 0 0 4c0,1 0,2 -1,3 0,0 -1,1 -2,1 0,0 0,0 -1,0 0,0 0,0 0,0l6 7 -2 1 -8 -11 1 -2c1,1 1,2 2,2 0,1 1,1 1,1 1,0 1,0 2,-1 0,0 0,0 0,-1l0 -4 -7 0zm20 0l0 -2 13 0 0 2 -3 0 0 4c0,1 0,2 -1,2 0,1 -1,2 -3,2 0,0 0,-1 -1,-1 2,3 4,5 7,7l-2 2c-4,-4 -7,-8 -9,-12l2 -1c0,1 0,1 1,2 1,0 2,1 2,1 1,0 2,0 2,-1 0,0 1,-1 1,-1l0 -4 -9 0zm12 0l0 -2 22 0 0 2 -9 0 0 4c0,0 1,-1 1,-1 1,-1 2,-1 2,-1 2,0 3,1 4,2 0,1 1,2 1,3 0,1 -1,2 -1,3 -1,1 -2,2 -3,3l-1 -1c1,0 1,-1 2,-2 1,-1 1,-2 1,-3 0,-1 0,-2 -1,-2 0,-1 -1,-1 -2,-1 0,0 -1,0 -2,1 -1,1 -1,1 -1,2l0 9 -2 0 0 -6c-1,1 -1,1 -2,2 -1,0 -1,0 -2,0 -2,0 -3,-1 -4,-1 -1,-1 -1,-3 -1,-4 0,-1 0,-2 1,-3 1,-1 2,-2 4,-2 1,0 1,0 2,1l0 1c-1,0 -1,0 -2,0 -1,0 -2,0 -3,1 0,1 0,1 0,2 0,1 0,2 1,2 0,1 1,1 2,1 1,0 1,0 2,0 1,-1 1,-1 2,-2l0 -8 -11 0zm22 0l0 -2 8 0 0 2 -3 0 0 16 -2 0 0 -16 -3 0zm7 0l0 -2 13 0 0 2 -2 0 0 4c0,1 -1,2 -1,2 -1,1 -2,2 -3,2 -1,0 -1,-1 -2,-1 2,3 4,5 7,7l-1 2c-4,-4 -8,-8 -10,-12l2 -1c0,1 1,1 1,2 1,0 2,1 3,1 0,0 1,0 1,-1 1,0 1,-1 1,-1l0 -4 -9 0zm13 0l0 -2 18 0 0 2 -3 0 0 16 -2 0 0 -6c0,1 -1,2 -2,2 -1,0 -2,0 -2,0 -2,0 -3,0 -4,-1 -1,-1 -1,-2 -1,-3 0,-1 0,-1 0,-2 1,-1 1,-1 2,-2l-6 0 0 -1 11 0 0 1 -2 0c-1,1 -2,1 -3,2 0,1 -1,1 -1,2 0,1 1,2 1,2 1,0 2,1 3,1 0,0 1,-1 2,-1 1,-1 2,-1 2,-2l0 -8 -13 0zm17 0l0 -2 9 0 0 2 -3 0 0 16 -2 0 0 -16 -4 0zm19 0l0 -2 15 0 0 2 -3 0 0 5c0,1 0,2 0,2 -1,1 -1,1 -2,2l-1 -2c1,0 1,0 1,-1 0,0 1,-1 1,-1l0 -5 -7 0 0 6c0,1 0,1 0,2 1,0 1,0 1,1l7 5c0,1 0,1 1,1 0,1 0,1 0,1 0,1 0,1 -1,2 0,0 0,1 -1,1l-2 -1c1,0 1,-1 2,-1 0,0 0,0 0,-1 0,0 0,0 0,0 0,0 0,0 -1,-1l-7 -6c0,0 0,-1 0,-1 -1,-1 -1,-1 -1,-2l0 -6 -2 0zm14 0l0 -2 22 0 0 2 -10 0 0 4c1,0 1,-1 2,-1 1,-1 1,-1 2,-1 1,0 2,1 3,2 1,1 1,2 1,3 0,1 0,2 0,3 -1,1 -2,2 -3,3l-2 -1c1,0 2,-1 3,-2 0,-1 1,-2 1,-3 0,-1 -1,-2 -1,-2 -1,-1 -1,-1 -2,-1 -1,0 -2,0 -2,1 -1,1 -2,1 -2,2l0 9 -2 0 0 -6c0,1 -1,1 -1,2 -1,0 -2,0 -2,0 -2,0 -3,-1 -4,-1 -1,-1 -2,-3 -2,-4 0,-1 1,-2 2,-3 1,-1 2,-2 4,-2 0,0 1,0 2,1l-1 1c0,0 -1,0 -1,0 -1,0 -2,0 -3,1 0,1 -1,1 -1,2 0,1 1,2 1,2 1,1 2,1 3,1 0,0 1,0 2,0 0,-1 1,-1 1,-2l0 -8 -10 0zm33 0l0 -2 18 0 0 2 -4 0c1,0 1,1 1,2 0,1 0,2 0,2 -1,1 -1,1 -2,2 1,0 2,1 2,1 1,1 1,2 1,3 0,1 0,3 -1,4 -1,1 -3,1 -4,1 -2,0 -4,-1 -6,-3 -2,-2 -3,-4 -4,-8l1 0c1,3 3,5 4,7 2,1 3,2 5,2 1,0 2,0 2,-1 1,0 1,-1 1,-2 0,-1 0,-2 -1,-2 0,-1 -1,-1 -2,-1l-4 0 0 -2 4 0c1,0 1,0 2,-1 0,0 0,-1 0,-2 0,0 0,-1 0,-1 0,-1 -1,-1 -1,-1l-12 0zm17 0l0 -2 21 0 0 2 -3 0 0 16 -2 0 0 -5c-1,1 -2,2 -3,2 -2,1 -3,1 -4,1 -2,0 -3,0 -4,-1 -1,-1 -1,-2 -1,-3 0,0 0,-1 0,-1 0,-1 0,-1 1,-1 -1,0 -2,-1 -2,-1 -1,-1 -1,-2 -1,-2 0,-1 0,-2 1,-2 1,-1 2,-1 3,-1l3 0 0 -2 -9 0zm9 12c1,0 2,0 4,-1 1,0 2,-1 3,-2l0 -9 -5 0 0 3 -5 0c-1,0 -1,1 -2,1 0,0 0,0 0,1 0,0 0,1 0,1 1,0 1,0 2,0 0,0 1,0 1,0 0,0 1,0 1,0l2 0 1 2 -3 0c-1,0 -1,0 -2,0 0,1 -1,1 -1,2 0,1 1,1 1,2 1,0 2,0 3,0zm12 -12l0 -2 17 0 0 2 -4 0 0 16 -1 0 0 -8 -7 0 0 1c0,1 0,1 0,1 -1,0 -1,0 -1,0 0,0 -1,0 -2,-1 -1,-1 -1,-1 -1,-2 0,0 0,0 0,0 0,-1 0,-1 0,-1l2 0 0 -6 -3 0zm5 6l7 0 0 -6 -7 0 0 6z"/>
    </g>
    <g id="_2025296643232">
     <path class="fil0" d="M633 276c-4,7 -10,13 -16,18 -7,6 -15,9 -24,11 -9,2 -19,2 -29,1 -11,-2 -18,-7 -23,-13 -4,-6 -7,-15 -6,-26 0,-9 4,-17 11,-22 6,-5 14,-9 24,-11 8,-2 16,-3 26,-4 8,0 15,0 23,0 6,0 12,0 18,1 2,0 3,0 5,0l0 7 0 7 0 6 -1 5c-2,7 -5,14 -8,20zm753 123l679 0 0 15 -679 0 0 -15zm-873 0l765 0 0 15 -765 0 0 -15zm1630 51l37 -55 0 0c3,-5 4,-10 4,-15 0,-9 -3,-16 -9,-22 -6,-6 -13,-9 -21,-9 -7,0 -13,2 -18,6 -5,4 -9,9 -11,15 0,0 0,1 0,1l12 3c0,1 1,0 1,0 1,-3 3,-6 6,-8 3,-2 6,-3 10,-3 4,0 8,1 11,5 4,3 5,7 5,12 0,3 0,5 -2,8l-50 74c0,1 0,1 0,1 0,1 1,1 1,1l68 0c1,0 1,0 1,-1l0 -12c0,-1 0,-1 -1,-1l-44 0zm123 -87c-12,0 -22,4 -31,13 -4,4 -7,8 -9,13 -2,6 -3,12 -3,17 0,13 4,23 12,31 4,5 9,8 14,10 6,2 12,3 17,3 13,0 23,-4 31,-13 4,-4 8,-8 10,-13 2,-6 3,-12 3,-18 0,-12 -4,-22 -13,-30 -4,-5 -8,-8 -14,-10 -5,-2 -11,-3 -17,-3zm0 101c-7,0 -15,-2 -22,-5 -7,-3 -13,-7 -18,-12 -5,-5 -10,-11 -13,-18 -3,-7 -4,-15 -4,-23 0,-7 1,-15 4,-22 3,-7 8,-13 13,-18 5,-5 11,-10 18,-12 7,-3 15,-5 22,-5 8,0 16,2 23,5 7,2 13,7 18,12 5,5 9,11 12,18 3,7 5,15 5,22 0,8 -2,16 -5,23 -3,7 -7,13 -12,18 -5,5 -11,9 -18,12 -7,3 -15,5 -23,5zm76 -98c0,0 0,1 0,1l9 8c0,1 1,1 1,0l5 -4 0 92c0,1 0,1 1,1l11 0c1,0 1,0 1,-1l0 -113c0,0 0,-1 -1,-1l-10 0c0,0 -1,0 -1,1l-16 16zm90 84c-5,0 -10,-2 -14,-6 -4,-4 -6,-9 -6,-14 0,-4 1,-7 2,-10l1 0 0 0 1 -2c2,-3 4,-5 7,-6 3,-2 6,-3 9,-3 6,0 11,2 15,6 4,4 6,9 6,15l0 0c0,6 -2,10 -6,14 -4,4 -9,6 -15,6zm-2 -54l29 -45c0,-1 0,-1 0,-1 0,-1 0,-1 -1,-1l-14 0c0,0 -1,0 -1,0l-38 60c-1,2 -2,3 -3,4l0 1c-2,5 -4,10 -4,16 0,9 3,17 10,24 7,7 15,10 24,10 10,0 18,-3 24,-10 7,-7 10,-15 11,-24l0 0 0 0c0,-10 -4,-18 -10,-24 -7,-7 -15,-11 -25,-11l-2 1zm-1764 -68c2,0 4,-1 3,-3 -1,-13 -3,-26 -4,-38 -1,-16 -2,-30 -2,-42 0,-4 0,-9 0,-14l0 -11 0 -12c0,-8 0,-15 -1,-22 -3,-16 -9,-29 -18,-38 -12,-13 -29,-19 -52,-19 -16,0 -31,3 -45,10 -5,2 -9,5 -14,7 -1,2 -3,3 -4,4 -2,1 -3,2 -4,3 -2,1 -2,3 0,5l12 10c1,1 2,1 4,0 0,-1 1,-1 2,-2 1,-1 3,-2 4,-3 3,-2 7,-4 11,-5 10,-5 21,-7 34,-7 17,0 29,4 37,12 8,8 13,24 13,48l0 0 -3 -1c-4,0 -7,0 -9,0 -4,0 -7,0 -10,0 -9,-1 -17,-1 -25,0 -11,1 -21,2 -30,4 -13,3 -24,9 -32,15 -6,5 -10,10 -13,16 -4,6 -6,13 -6,21 -1,16 2,29 10,40 4,6 10,10 16,14 6,3 13,5 20,7 13,2 26,2 38,-1 12,-3 23,-9 32,-16 5,-4 10,-9 14,-15 1,9 2,20 3,31 1,1 2,2 4,2l15 0zm149 -21c-22,0 -40,-8 -55,-23 -15,-15 -23,-34 -23,-55 0,-22 8,-40 23,-55 15,-15 33,-23 55,-23 21,0 40,8 55,23 15,15 23,33 23,55 0,21 -8,40 -23,55 -15,15 -34,23 -55,23zm11 -177c-18,-2 -35,1 -51,8 -15,6 -28,16 -38,29l0 -163c0,-3 -1,-4 -3,-4l-15 0c-2,0 -4,1 -4,4l0 321c0,2 2,3 4,3l15 0c2,0 3,-1 3,-3l0 -34c9,11 21,20 34,27 14,7 28,10 44,10 14,0 28,-3 41,-9 12,-5 23,-13 33,-24 9,-10 16,-22 20,-35 5,-14 6,-28 5,-43 -3,-23 -13,-42 -29,-59 -17,-16 -37,-26 -59,-28zm319 188c0,-14 0,-31 0,-51 0,-10 0,-18 0,-25 0,-10 0,-19 -1,-28l0 -4 0 -4c0,-3 0,-5 0,-8 -1,-6 -3,-11 -5,-17 -4,-11 -11,-20 -20,-28 -8,-9 -18,-15 -29,-18 -6,-2 -11,-3 -17,-4l-2 0 -2 0c-1,0 -1,0 -2,0l-2 0c-3,-1 -6,0 -8,0 -11,1 -21,4 -30,9 -9,4 -16,10 -22,17l-2 2 0 -156c0,-2 -1,-3 -3,-3l-15 0c-2,0 -3,1 -3,3l0 321c0,2 1,3 3,3l15 0c2,0 3,-1 3,-3l0 -104 0 0 0 -9c0,-1 0,-2 0,-4l1 -2c0,0 0,-1 0,-1 0,-2 0,-4 1,-5 1,-5 2,-9 4,-14 3,-5 6,-10 10,-15 5,-5 11,-9 17,-13 7,-3 15,-6 22,-6 2,0 4,0 7,0l1 0c1,0 2,0 2,0l1 0 2 0c4,1 8,2 12,3 9,3 16,7 22,13 7,7 11,14 15,22 1,4 2,8 3,12 0,2 0,4 1,6l0 3 0 4c0,21 0,39 -1,53 0,20 0,37 0,51l0 7c0,2 1,3 3,3l16 0c2,0 3,-1 3,-3l0 -7zm68 10c-2,0 -3,-1 -3,-3l0 -192c0,-2 1,-3 3,-3l15 0c3,0 4,1 4,3l0 192c0,2 -1,3 -4,3l-15 0zm23 -262c0,5 -1,8 -4,11 -3,3 -7,5 -11,5 -5,0 -8,-2 -11,-5 -3,-3 -5,-6 -5,-11 0,-4 2,-8 5,-11 3,-3 6,-4 11,-4 4,0 8,1 11,4 3,3 4,7 4,11zm104 347c0,1 -1,2 -3,2l-16 0c-1,0 -2,0 -3,-1 -1,-1 -1,-2 0,-3l33 -82 -82 -196c0,-1 0,-2 1,-3 0,-1 1,-1 2,-1l17 0c1,0 2,0 3,1l70 170 68 -170c1,-1 2,-1 3,-1l17 0c1,0 2,0 2,1 1,1 1,2 1,3l-113 280zm256 -137c-4,7 -9,13 -15,18 -7,6 -15,9 -25,11 -9,2 -18,2 -29,1 -10,-2 -18,-7 -22,-13 -5,-6 -7,-15 -7,-26 1,-9 4,-17 11,-22 6,-5 14,-9 24,-11 8,-2 17,-3 26,-4 8,0 16,0 23,0 6,0 12,0 18,1 2,0 3,0 5,0l0 7 0 7 0 6 -1 5c-2,7 -5,14 -8,20zm33 52c3,0 4,-1 4,-3 -2,-13 -3,-26 -4,-38 -2,-16 -2,-30 -2,-42 0,-4 0,-9 0,-14l0 -11 0 -12c0,-8 -1,-15 -2,-22 -3,-16 -8,-29 -17,-38 -12,-13 -30,-19 -53,-19 -16,0 -31,3 -45,10 -4,2 -9,5 -13,7 -2,2 -4,3 -5,4 -1,1 -2,2 -4,3 -1,1 -1,3 0,5l12 10c1,1 3,1 4,0 1,-1 2,-1 2,-2 2,-1 3,-2 4,-3 4,-2 7,-4 11,-5 10,-5 22,-7 34,-7 17,0 29,4 37,12 9,8 13,24 13,48l0 0 -3 -1c-4,0 -7,0 -9,0 -3,0 -7,0 -10,0 -9,-1 -17,-1 -25,0 -11,1 -21,2 -30,4 -13,3 -24,9 -32,15 -6,5 -10,10 -13,16 -3,6 -5,13 -6,21 -1,16 3,29 10,40 4,6 10,10 17,14 5,3 12,5 19,7 14,2 26,2 38,-1 13,-3 23,-9 32,-16 6,-4 10,-9 15,-15 0,9 1,20 3,31 0,1 1,2 3,2l15 0zm214 -10c0,-14 0,-31 0,-51 0,-3 0,-7 0,-12l0 -6 0 -6c0,-6 0,-10 0,-14 0,-5 0,-9 0,-13l0 -8c0,-2 -1,-5 -1,-8 -1,-5 -2,-11 -4,-16 -3,-11 -9,-21 -17,-30 -8,-8 -18,-14 -29,-18 -5,-2 -11,-4 -17,-4l-2 -1 -2 0 -2 0c-1,0 -1,0 -2,0l-2 0 -2 0 -2 0 -2 0c-10,1 -20,4 -30,8 -8,5 -16,10 -22,17l-1 2 0 -26c0,-2 -1,-3 -3,-3l-16 0c-2,0 -3,1 -3,3l0 193c0,2 1,3 3,3l16 0c2,0 3,-1 3,-3l0 -111 0 -5c0,-1 0,-2 0,-4l0 -1 0 -2c1,-2 1,-4 1,-5 1,-5 3,-9 5,-13 2,-5 6,-10 10,-14 4,-6 10,-10 16,-13 7,-4 14,-6 22,-6l2 0 1 0 1 0 1 0 2 0c0,0 1,0 1,0l2 0 1 0 2 1c4,0 8,1 12,3 8,3 15,8 21,14 6,6 10,13 13,21 1,4 2,8 2,12 1,2 1,4 1,7l0 7c0,8 0,17 -1,27 0,4 0,8 0,12l0 7 0 5c0,20 0,37 0,51l0 7c0,2 1,3 3,3l16 0c2,0 3,-1 3,-3l0 -7zm148 -16c-1,-2 -3,-2 -5,-1 -10,7 -19,8 -28,3 -10,-5 -15,-14 -15,-28l0 -125 32 0c2,0 3,-1 3,-3l0 -15c0,-2 -1,-4 -3,-4l-32 0 0 -56c0,-2 -1,-3 -3,-3l-15 0c-2,0 -3,1 -3,3l0 56 -28 0c-2,0 -3,2 -3,4l0 15c0,2 1,3 3,3l28 0 0 125c0,11 2,20 7,29 5,8 11,14 19,18 7,4 13,5 20,5 11,0 21,-3 31,-10 2,-1 2,-2 1,-4l-9 -12zm143 -171c-4,0 -9,-1 -13,-1 -22,0 -41,9 -57,25l0 -23c0,-2 -1,-3 -3,-3l-15 0c-2,0 -3,1 -3,3l0 193c0,2 1,3 3,3l15 0c2,0 3,-1 3,-3l0 -116c0,-16 6,-29 17,-40 11,-12 25,-17 40,-17 3,0 6,0 9,1 2,0 3,-1 3,-3l3 -15c1,-2 0,-3 -2,-4zm32 197c-2,0 -3,-1 -3,-3l0 -192c0,-2 1,-3 3,-3l15 0c3,0 4,1 4,3l0 192c0,2 -1,3 -4,3l-15 0zm23 -262c0,5 -1,8 -4,11 -3,3 -7,5 -11,5 -5,0 -8,-2 -11,-5 -3,-3 -5,-6 -5,-11 0,-4 2,-8 5,-11 3,-3 6,-4 11,-4 4,0 8,1 11,4 3,3 4,7 4,11zm129 141l74 -71c1,-1 1,-2 0,-4 0,-1 -1,-2 -2,-2l-22 0c-1,0 -1,1 -2,1l-84 81 0 -208c0,-2 -1,-3 -3,-3l-16 0c-2,0 -3,1 -3,3l0 321c0,2 1,3 3,3l16 0c2,0 3,-1 3,-3l0 -83 21 -21 87 106c1,1 2,1 3,1l20 0c1,0 2,0 3,-2 0,-1 0,-2 -1,-3l-97 -116zm122 121c-2,0 -3,-1 -3,-3l0 -192c0,-2 1,-3 3,-3l16 0c2,0 3,1 3,3l0 192c0,2 -1,3 -3,3l-16 0zm24 -262c0,5 -2,8 -5,11 -3,3 -7,5 -11,5 -4,0 -8,-2 -11,-5 -3,-3 -4,-6 -4,-11 0,-4 1,-8 4,-11 3,-3 7,-4 11,-4 4,0 8,1 11,4 3,3 5,7 5,11z"/>
     <path class="fil0" d="M575 648l0 0c-11,-5 -18,-9 -22,-13 -5,-4 -8,-9 -8,-14 0,-15 10,-22 30,-22 7,0 14,1 21,5 2,1 5,2 7,3 1,1 1,2 2,2 1,1 1,1 2,2 0,0 1,0 2,-1l7 -6 7 -7c1,0 1,-1 0,-2 -1,-1 -2,-1 -3,-2 -1,-1 -2,-2 -3,-3 -3,-2 -7,-4 -10,-6 -10,-5 -21,-7 -32,-7 -16,0 -29,4 -38,12 -9,7 -14,18 -14,32 0,12 5,23 15,31 4,4 9,7 14,9 2,2 5,3 7,4l4 1 3 2 5 3 1 0c12,5 20,10 25,14 6,5 9,11 9,18 0,17 -11,26 -34,26 -9,0 -18,-2 -26,-6 -2,-1 -5,-3 -8,-4 0,-1 -1,-2 -2,-2 -1,-1 -1,-1 -2,-2 -1,-1 -1,-1 -2,0l-14 13c-1,1 -1,2 0,2 1,1 1,2 2,3 2,1 3,2 4,3 4,2 7,5 11,7 12,5 24,8 37,8 17,0 31,-4 41,-13 10,-9 15,-20 15,-35 0,-14 -5,-26 -17,-35 -4,-4 -9,-7 -15,-10 -3,-2 -5,-3 -8,-4l-4 -2c0,0 -2,-1 -3,-2l-6 -2zm93 43c1,-9 4,-15 10,-21 6,-5 13,-8 21,-8 8,0 15,2 21,7 5,4 9,9 11,16l-63 6zm32 -49c-15,0 -28,5 -38,15 -10,11 -15,24 -15,39 0,16 5,28 16,39 10,11 23,16 38,16 10,0 19,-2 27,-7 8,-4 15,-11 20,-19 1,-1 0,-2 -1,-2l-15 -9c-1,0 -1,0 -2,1 -3,5 -7,9 -12,11 -5,3 -11,4 -17,4 -6,0 -12,-1 -18,-5 -6,-3 -10,-8 -13,-14l81 -7c1,0 1,-1 1,-2l0 -6c0,-15 -5,-28 -15,-38 -10,-11 -23,-16 -37,-16zm138 88c-10,0 -18,-3 -24,-9 -7,-7 -10,-15 -11,-24l0 -1c1,-10 4,-18 11,-24 6,-7 14,-10 24,-10 9,0 17,3 24,10 6,7 10,15 10,24 0,10 -4,18 -10,25 -7,6 -15,9 -24,9zm2 -88c-14,-1 -26,3 -37,12l0 -10c0,-1 0,-2 -1,-2l-18 0c-1,0 -1,1 -1,2l0 171c0,1 0,1 1,1l18 0c1,0 1,0 1,-1l0 -76c10,8 22,12 35,12 15,0 29,-6 39,-17 5,-6 9,-12 12,-19 3,-7 4,-14 3,-22 -1,-14 -6,-26 -16,-36 -10,-9 -22,-15 -36,-15zm110 88c-3,-2 -4,-5 -4,-10l0 -58 16 0c1,0 2,-1 2,-2l0 -17c0,-1 -1,-2 -2,-2l-16 0 0 -23c0,-1 -1,-1 -2,-1l-17 0c-1,0 -2,0 -2,1l0 23 -16 0c-1,0 -2,1 -2,2l0 17c0,1 1,2 2,2l16 0 0 58c0,6 2,12 4,17 3,5 7,9 12,11 4,2 8,3 12,3 7,0 13,-2 19,-6 1,0 1,-1 0,-2l-10 -14c-1,-1 -2,-1 -2,0 -4,2 -7,2 -10,1zm176 -74c10,-9 15,-20 15,-34 0,-13 -5,-24 -14,-33 -10,-9 -22,-14 -35,-13 -12,1 -22,6 -31,16l-2 2c-1,1 0,1 0,2l14 12c0,1 1,1 2,0l2 -2c4,-5 9,-8 15,-8 8,-1 14,1 20,6 6,5 8,11 8,19 0,7 -3,12 -8,17 -5,4 -11,7 -17,7l-11 0c-1,0 -2,0 -2,1l0 18c0,1 1,2 2,2l11 0c8,0 15,3 21,9 7,6 10,13 10,21 1,9 -2,17 -9,23 -6,6 -14,9 -23,9 -10,-1 -18,-5 -24,-13l-2 -2c0,-1 -1,-1 -2,0l-14 11c-1,0 -1,1 0,2l2 3c5,6 11,11 19,15 7,4 15,5 23,5 14,0 26,-5 36,-15 10,-10 15,-22 16,-36 0,-9 -2,-17 -6,-25 -4,-7 -9,-14 -16,-19zm143 -59c-18,0 -34,7 -47,20 -6,6 -11,13 -14,21 -4,8 -5,17 -5,26 0,18 6,34 19,47 6,6 13,11 21,14 9,4 17,5 26,5 19,0 34,-6 47,-19 6,-6 11,-13 15,-21 3,-9 5,-17 5,-26 0,-19 -7,-34 -20,-47 -6,-7 -13,-11 -21,-15 -8,-3 -17,-5 -26,-5zm0 154c-12,0 -23,-2 -34,-7 -10,-4 -19,-10 -28,-18 -8,-9 -14,-18 -18,-28 -5,-11 -7,-22 -7,-34 0,-12 2,-23 7,-34 4,-11 10,-20 18,-28 9,-8 18,-14 28,-19 11,-4 22,-7 34,-7 12,0 23,3 34,7 11,5 20,11 28,19 8,8 14,17 19,28 4,11 7,22 7,34 0,12 -3,23 -7,34 -5,10 -11,19 -19,28 -8,8 -17,14 -28,18 -11,5 -22,7 -34,7zm150 -21c-3,-2 -5,-5 -5,-10l0 -58 17 0c1,0 1,-1 1,-2l0 -17c0,-1 0,-2 -1,-2l-17 0 0 -23c0,-1 0,-1 -1,-1l-18 0c-1,0 -1,0 -1,1l0 23 -17 0c-1,0 -2,1 -2,2l0 17c0,1 1,2 2,2l17 0 0 58c0,6 1,12 4,17 3,5 7,9 12,11 3,2 8,3 12,3 6,0 12,-2 18,-6 1,0 1,-1 0,-2l-10 -14c-1,-1 -1,-1 -2,0 -4,2 -7,2 -9,1zm141 -15c0,-3 0,-7 0,-12l0 -4 0 -3c0,-3 0,-5 0,-7l0 -2 0 -2c0,-2 -1,-3 -1,-5 0,-3 -1,-6 -2,-9 -3,-6 -6,-12 -11,-16 -5,-5 -11,-8 -17,-10 -3,-1 -6,-2 -9,-2 0,0 -1,0 -1,0l-2 -1 0 0 -1 0 -1 0 0 0 -1 0 -1 0 -1 0 -1 1c-6,0 -12,2 -17,5 -2,1 -4,2 -6,3l0 -73c0,-1 0,-2 -1,-2l-18 0c-1,0 -2,1 -2,2l0 171c0,1 1,2 2,2l18 0c1,0 1,-1 1,-2l0 -56 0 -6c1,0 1,-1 1,-2l0 0 0 -1 0 0c0,0 0,-1 0,-2 1,-2 1,-4 2,-6 1,-2 3,-4 4,-6 3,-2 5,-4 8,-6 3,-1 6,-2 9,-2l1 0 1 0 0 0 1 0 0 0 1 0c0,0 0,0 1,0l0 0c0,0 0,0 1,0 1,0 3,0 5,1 4,1 7,3 9,6 3,2 5,5 6,9 1,2 1,3 2,5 0,1 0,2 0,3l0 1 0 2c0,2 0,4 0,7l0 3 0 4c0,5 0,9 0,12 0,10 0,19 0,26l0 8c0,2 0,2 1,2l18 0c1,0 1,0 1,-2l0 -8c0,-7 0,-16 0,-26zm87 -41c-1,0 -1,-1 -1,-2l0 -17c0,-1 0,-2 1,-2l59 0c1,0 1,1 1,2l0 17c0,1 0,2 -1,2l-59 0zm232 55c-18,0 -34,-7 -46,-19 -13,-13 -19,-28 -19,-46 0,-18 6,-33 19,-46 12,-13 28,-19 46,-19 17,0 33,6 45,19 13,13 19,28 19,46 0,18 -6,33 -19,46 -12,12 -28,19 -45,19zm0 -152c-25,0 -45,8 -62,25 -17,17 -26,38 -26,62 0,24 9,44 26,62 17,17 37,25 62,25 24,0 44,-8 61,-25 17,-18 26,-38 26,-62 0,-24 -9,-45 -26,-62 -17,-17 -37,-25 -61,-25zm163 154c-10,0 -19,-4 -26,-12 -6,-7 -9,-16 -8,-26 0,-8 4,-15 9,-20 6,-6 12,-9 20,-10 8,-1 16,0 22,4 1,1 2,1 3,0l9 -15c1,-1 1,-1 0,-2 -10,-6 -22,-9 -34,-8 -13,1 -25,6 -35,16 -9,10 -14,22 -15,36 -1,16 4,29 15,40 11,11 24,17 40,17 10,0 20,-3 29,-8 1,-1 1,-2 0,-3l-9 -14c-1,-1 -2,-1 -3,0 -5,3 -11,5 -17,5zm89 -1c-3,-2 -5,-5 -5,-10l0 -58 17 0c1,0 1,-1 1,-2l0 -17c0,-1 0,-2 -1,-2l-17 0 0 -23c0,-1 0,-1 -1,-1l-18 0c-1,0 -1,0 -1,1l0 23 -17 0c-1,0 -2,1 -2,2l0 17c0,1 1,2 2,2l17 0 0 58c0,6 1,12 4,17 3,5 7,9 12,11 3,2 8,3 12,3 6,0 12,-2 18,-6 1,0 1,-1 0,-2l-10 -14c-1,-1 -1,-1 -2,0 -4,2 -7,2 -9,1zm105 -128c-1,0 -1,1 0,2l13 13c1,0 1,0 2,0l7 -7 0 139c0,2 1,2 2,2l17 0c2,0 2,0 2,-2l0 -171c0,-1 0,-1 -2,-1l-15 0c-1,0 -1,0 -1,0l-25 25zm147 114c0,0 0,-1 0,-1l-1 -2c-1,-5 -3,-9 -6,-13 -2,-3 -6,-5 -10,-8 -2,-1 -5,-3 -9,-5l-4 -2 -3 -1 -1 0 -1 -1c-3,-1 -6,-2 -8,-4 -2,-1 -4,-2 -5,-3l0 -1 0 0 -1 -1 0 0 0 -1 0 0 0 0 0 -1 -1 0 0 0 0 -1 0 0 0 0 0 -1 0 -1 0 0 1 -1 0 0c0,-2 1,-3 1,-3 1,-1 2,-2 4,-3 1,0 3,-1 5,-1l0 0 1 0c0,0 1,0 1,0l2 0 1 0c1,0 3,0 5,0 2,1 4,2 7,3 0,0 1,1 2,1 0,1 1,1 2,2 0,0 1,0 2,-1l11 -10c1,-1 1,-2 0,-3 -1,0 -1,-1 -2,-1 0,-1 -1,-1 -2,-2 -2,-1 -3,-2 -4,-2 -4,-2 -8,-4 -12,-5 -3,0 -6,-1 -8,-1l-2 0 -2 0c-1,0 -2,0 -5,0 -3,1 -6,2 -9,3 -4,1 -8,3 -10,6 -3,3 -6,7 -7,12 0,1 0,2 -1,3 0,1 0,2 0,3l0 2 0 0c0,0 0,-1 0,0l0 0 0 0 0 0 0 1 0 0 0 1c0,1 0,2 1,2l0 1 0 1 0 2c1,1 1,1 1,2l1 2c0,1 1,2 2,3l1 1c0,1 1,1 1,1 2,3 6,6 10,8 2,2 5,3 9,5l1 0 0 1 1 0 0 0 2 1 5 2c6,3 10,5 12,8 1,1 2,3 2,4l0 1c0,0 0,0 0,0l0 1 0 0 0 0 0 1 0 1 0 0c0,0 0,0 0,0l0 1 0 0c-1,3 -2,5 -5,7 -1,0 -3,1 -5,1 -2,1 -4,1 -6,1l-1 0 -2 0c0,0 -1,0 -1,0l-1 0 0 -1c0,0 -1,0 -1,0l-1 0 -1 0 -1 0 -1 0c-2,-1 -5,-2 -7,-3 0,-1 -1,-1 -2,-2 0,0 -1,-1 -1,-1 -1,-1 -2,-1 -3,0l-12 12c-1,1 -1,2 0,2 1,1 2,2 3,3 1,1 3,2 5,3 4,2 8,4 12,5 2,1 5,1 7,2 1,0 2,0 3,0 0,0 1,0 2,0l1 0 1 0 0 0 1 0 1 0c2,0 6,0 9,-1 4,-1 7,-2 10,-4 4,-2 7,-4 10,-8 3,-3 5,-7 5,-12l1 -2 0 -2c0,0 0,0 0,0l0 -1 0 0 0 -1 0 -1 0 -1 0 -2zm58 14c-4,-2 -5,-5 -5,-10l0 -58 17 0c1,0 1,-1 1,-2l0 -17c0,-1 0,-2 -1,-2l-17 0 0 -23c0,-1 -1,-1 -2,-1l-17 0c-1,0 -2,0 -2,1l0 23 -16 0c-1,0 -2,1 -2,2l0 17c0,1 1,2 2,2l16 0 0 58c0,6 2,12 5,17 2,5 6,9 11,11 4,2 8,3 13,3 6,0 12,-2 18,-6 1,0 1,-1 0,-2l-10 -14c-1,-1 -2,-1 -2,0 -4,2 -7,2 -9,1z"/>
    </g>
   </g>
  </g>
  <polygon class="fil5" points="0,0 2997,0 2997,1732 0,1732 "/>
 </g>
</svg>
