<?xml version="1.0" encoding="UTF-8"?>
<!DOCTYPE svg PUBLIC "-//W3C//DTD SVG 1.1//EN" "http://www.w3.org/Graphics/SVG/1.1/DTD/svg11.dtd">
<!-- Creator: CorelDRAW X7 -->
<svg xmlns="http://www.w3.org/2000/svg" xml:space="preserve" width="274.405mm" height="45.9738mm" version="1.1" style="shape-rendering:geometricPrecision; text-rendering:geometricPrecision; image-rendering:optimizeQuality; fill-rule:evenodd; clip-rule:evenodd"
viewBox="0 0 27440 4597"
 xmlns:xlink="http://www.w3.org/1999/xlink">
 <defs>
  <style type="text/css">
   <![CDATA[
    .fil2 {fill:#2B2A29}
    .fil0 {fill:#2B2A29;fill-rule:nonzero}
    .fil1 {fill:url(#id0)}
   ]]>
  </style>
  <linearGradient id="id0" gradientUnits="userSpaceOnUse" x1="1358.58" y1="3887.93" x2="2518.3" y2="1093.77">
   <stop offset="0" style="stop-opacity:1; stop-color:#A8518A"/>
   <stop offset="1" style="stop-opacity:1; stop-color:#DC6038"/>
  </linearGradient>
 </defs>
 <g id="Layer_x0020_1">
  <metadata id="CorelCorpID_0Corel-Layer"/>
  <g id="_2124499877696">
   <path class="fil0" d="M67 4596c23,0 46,-12 58,-35l492 -1004 3513 1033c23,6 52,-6 69,-23 17,-17 17,-46 6,-70l-203 -423c-5,-17 -23,-29 -40,-35l-3137 -921 99 -191 2795 823c23,6 52,0 69,-23 18,-18 18,-46 12,-71l-209 -422c-5,-17 -23,-29 -40,-35l-2419 -707 98 -196 2078 614c23,6 52,0 69,-23 18,-18 23,-48 12,-71l-1221 -2497c-12,-17 -35,-34 -58,-34 -29,0 -52,17 -64,34l-758 1553c-17,35 0,75 29,93 35,11 75,0 93,-35l700 -1430 1094 2241 -1991 -584c-29,-12 -64,5 -75,34l-156 313c-6,17 -6,40 0,58 5,17 23,29 40,34l2465 725 128 260 -2709 -799c-29,-6 -63,5 -75,34l-156 314c-6,17 -12,40 0,58 6,17 23,29 40,34l3183 939 127 254 -3425 -1002c-29,-11 -64,6 -81,35l-510 1054c-17,29 -5,71 29,88 12,6 18,6 29,6z"/>
   <polygon class="fil1" points="2379,383 3147,1901 3224,4599 653,4590 "/>
   <polygon class="fil2" points="1180,3222 3238,3827 3206,3957 1160,3354 "/>
   <polygon class="fil2" points="1446,2584 3195,3095 3197,3236 1412,2711 "/>
   <polygon class="fil2" points="2292,573 3171,2370 3177,2687 2221,727 "/>
   <path class="fil0" d="M5134 2659c-29,51 -63,93 -104,124 -47,36 -101,61 -162,75 -60,13 -125,14 -195,2 -70,-13 -120,-42 -151,-84 -32,-43 -46,-102 -44,-175 3,-61 27,-111 73,-148 39,-32 93,-57 162,-74 51,-12 109,-20 175,-24 50,-3 101,-5 154,-3 37,1 77,3 120,7 10,1 21,2 32,3l0 45 -2 44 2 46 -8 29c-13,50 -30,94 -52,133zm5038 826l4543 0 0 98 -4543 0 0 -98zm-5837 0l5117 0 0 98 -5117 0 0 -98zm1021 -474c16,0 24,-8 22,-24 -12,-88 -20,-172 -27,-251 -9,-109 -14,-204 -14,-285 0,-26 1,-57 2,-92l0 -73 0 -77c-1,-56 -5,-105 -12,-148 -17,-110 -56,-196 -117,-259 -79,-81 -196,-122 -350,-122 -108,0 -208,21 -300,63 -32,15 -63,32 -92,52 -11,8 -22,16 -32,24 -8,6 -15,12 -23,19 -11,9 -11,20 0,31l77 69c9,9 18,9 27,0 6,-4 11,-8 17,-13 8,-6 17,-12 25,-17 22,-15 46,-27 72,-39 69,-29 145,-44 229,-44 113,0 195,26 246,78 57,58 87,165 89,322l0 0 -23 -2c-23,-2 -43,-3 -58,-3 -23,-2 -46,-3 -69,-3 -56,-2 -111,-1 -165,1 -74,6 -141,15 -199,30 -89,22 -161,56 -215,100 -40,31 -69,67 -89,107 -22,42 -35,87 -39,137 -6,108 16,197 66,268 30,39 67,72 112,96 38,21 81,35 131,44 89,15 173,13 253,-6 83,-20 154,-55 214,-105 36,-29 68,-63 96,-103 6,64 13,133 22,207 2,12 9,18 21,18l103 0zm995 -143c-143,0 -265,-52 -368,-154 -101,-102 -153,-224 -153,-367 0,-144 52,-267 153,-369 103,-102 225,-153 368,-153 144,0 266,51 368,153 103,102 153,225 153,369 0,143 -50,265 -153,367 -102,102 -224,154 -368,154zm72 -1182c-118,-12 -229,5 -336,51 -102,44 -187,109 -257,197l0 -1094c0,-15 -6,-21 -21,-21l-101 0c-15,0 -21,6 -21,21l0 2150c0,14 6,21 21,21l101 0c15,0 21,-7 21,-21l0 -231c62,78 139,139 229,183 91,46 189,69 292,69 97,0 189,-20 275,-59 84,-39 156,-92 219,-161 63,-70 109,-148 137,-236 31,-93 41,-188 30,-286 -17,-153 -82,-285 -193,-395 -111,-110 -243,-173 -396,-188zm2136 1253c-1,-91 -2,-204 -2,-341 0,-63 0,-119 0,-165 0,-65 0,-127 -1,-185l0 -25 0 -28c-1,-19 -3,-38 -7,-56 -6,-38 -16,-75 -30,-110 -29,-74 -72,-139 -130,-193 -57,-55 -123,-95 -198,-120 -36,-12 -74,-20 -111,-24l-16 -1 -13 -2c-5,0 -9,0 -14,0l-13 0c-18,-1 -37,0 -56,2 -70,7 -137,27 -200,61 -56,29 -104,68 -147,116l-11 14 0 -1045c0,-14 -8,-22 -22,-22l-100 0c-15,0 -22,8 -22,22l0 2146c0,15 7,22 22,22l100 0c14,0 22,-7 22,-22l0 -696 0 0 3 -62c0,-6 0,-13 0,-25l1 -10c0,-5 1,-9 2,-13 1,-12 3,-23 5,-33 5,-31 16,-60 30,-89 17,-37 39,-70 66,-100 33,-35 70,-65 113,-87 47,-24 97,-39 150,-44 14,-1 27,-2 41,-2l13 2c5,0 8,0 10,0l10 0 10 1c29,4 57,11 83,20 56,19 105,48 147,90 43,42 75,89 96,144 11,27 17,54 22,81 2,13 3,28 4,43l0 20 0 25c0,142 0,258 -1,350 0,137 0,250 0,341l0 51c-1,14 5,21 19,21l103 0c14,0 22,-7 22,-21l0 -51zm455 72c-13,0 -20,-7 -20,-21l0 -1284c0,-14 7,-21 20,-21l103 0c14,0 21,7 21,21l0 1284c0,14 -7,21 -21,21l-103 0zm156 -1752c0,29 -10,53 -30,74 -21,20 -45,30 -74,30 -29,0 -54,-10 -73,-30 -21,-21 -30,-45 -30,-74 0,-28 9,-53 30,-73 19,-21 44,-31 73,-31 29,0 53,10 74,31 20,20 30,45 30,73zm693 2318c-3,10 -9,14 -18,14l-110 0c-8,0 -15,-3 -19,-9 -3,-6 -4,-13 -1,-20l220 -548 -543 -1310c-3,-7 -2,-13 1,-19 5,-7 10,-10 17,-10l112 0c9,0 16,4 19,13l471 1135 456 -1135c4,-9 10,-13 20,-13l110 0c7,0 12,3 17,10 4,6 5,12 3,18l-755 1874zm1714 -918c-29,51 -63,93 -104,124 -47,36 -101,61 -162,75 -60,13 -125,14 -195,2 -70,-13 -120,-42 -151,-84 -32,-43 -46,-102 -44,-175 3,-61 27,-111 73,-148 39,-32 93,-57 162,-74 51,-12 109,-20 175,-24 50,-3 101,-5 154,-3 37,1 77,3 120,7 10,1 21,2 32,3l0 45 -2 44 2 46 -8 29c-13,50 -30,94 -52,133zm222 352c16,0 24,-8 22,-24 -12,-88 -20,-172 -27,-251 -9,-109 -14,-204 -14,-285 0,-26 1,-57 2,-92l0 -73 0 -77c-1,-56 -5,-105 -12,-148 -17,-110 -56,-196 -117,-259 -79,-81 -196,-122 -350,-122 -108,0 -208,21 -300,63 -32,15 -63,32 -92,52 -11,8 -22,16 -32,24 -8,6 -15,12 -23,19 -11,9 -11,20 0,31l77 69c9,9 18,9 27,0 6,-4 11,-8 17,-13 8,-6 17,-12 25,-17 22,-15 46,-27 72,-39 69,-29 145,-44 229,-44 113,0 195,26 246,78 57,58 87,165 89,322l0 0 -23 -2c-23,-2 -43,-3 -58,-3 -23,-2 -46,-3 -69,-3 -56,-2 -111,-1 -165,1 -74,6 -141,15 -199,30 -89,22 -161,56 -215,100 -40,31 -69,67 -89,107 -22,42 -35,87 -39,137 -6,108 16,197 66,268 30,39 67,72 112,96 38,21 81,35 131,44 89,15 173,13 253,-6 83,-20 154,-55 214,-105 36,-29 68,-63 96,-103 6,64 13,133 22,207 2,12 9,18 21,18l103 0zm1429 -72c0,-90 0,-202 -1,-336 0,-23 0,-49 0,-80l0 -41 0 -43c0,-37 0,-67 0,-89 0,-33 0,-64 0,-91l0 -50c-2,-19 -3,-37 -5,-55 -4,-38 -13,-74 -25,-110 -24,-74 -64,-140 -119,-196 -54,-56 -118,-98 -193,-125 -35,-13 -71,-23 -109,-28l-13 -1 -15 -2 -15 -1c-5,0 -10,0 -13,0l-12 0 -14 0 -14 0 -14 1c-70,5 -137,24 -200,55 -55,30 -104,68 -147,114l-9 12 0 -175c0,-14 -7,-21 -22,-21l-102 0c-13,0 -20,7 -20,21l0 1292c0,14 7,21 20,21l102 0c15,0 22,-7 22,-21l0 -744 1 -33c0,-6 0,-13 0,-23l2 -11 2 -14c1,-11 2,-22 4,-34 7,-28 18,-57 31,-86 17,-35 39,-67 65,-96 32,-35 69,-62 112,-84 46,-23 95,-37 148,-40l10 0 10 0 5 0 5 0 12 0c3,0 7,0 11,0l9 2 9 1 10 2c29,4 56,11 82,20 55,21 102,52 140,93 40,42 69,90 88,145 9,27 15,54 18,82 1,12 1,25 1,41l0 48c0,54 0,114 -1,180 0,26 0,55 0,84l0 42 0 38c0,134 -1,246 -2,336l0 51c0,14 8,21 22,21l103 0c14,0 21,-7 21,-21l0 -51zm987 -107c-7,-10 -17,-11 -29,-5 -68,45 -132,53 -190,23 -64,-32 -96,-96 -96,-191l0 -832 209 0c15,0 22,-7 22,-22l0 -102c0,-14 -7,-22 -22,-22l-209 0 0 -378c0,-14 -8,-21 -22,-21l-102 0c-15,0 -21,7 -21,21l1 378 -185 0c-14,0 -22,8 -22,22l0 102c0,15 8,22 22,22l185 0 0 832c0,73 15,137 46,194 31,57 75,99 130,126 42,21 86,32 134,32 71,0 139,-22 206,-67 12,-8 13,-17 4,-29l-61 -83zm958 -1138c-28,-4 -56,-6 -85,-6 -149,0 -276,55 -380,165l0 -153c0,-14 -7,-22 -20,-22l-103 0c-14,0 -21,8 -21,22l0 1290c0,14 7,21 21,21l103 0c13,0 20,-7 20,-21l0 -777c0,-105 37,-195 112,-270 74,-75 164,-112 268,-112 20,0 39,2 57,5 13,2 22,-4 25,-17l20 -99c2,-15 -3,-23 -17,-26zm215 1317c-13,0 -20,-7 -20,-21l0 -1284c0,-14 7,-21 20,-21l103 0c14,0 21,7 21,21l0 1284c0,14 -7,21 -21,21l-103 0zm156 -1752c0,29 -9,53 -30,74 -21,20 -45,30 -73,30 -30,0 -55,-10 -74,-30 -20,-21 -30,-45 -30,-74 0,-28 10,-53 30,-73 19,-21 44,-31 74,-31 28,0 52,10 73,31 21,20 30,45 30,73zm863 938l491 -473c8,-6 9,-13 5,-23 -3,-9 -9,-13 -18,-13l-144 0c-5,0 -10,2 -14,6l-565 538 0 -1387c0,-15 -7,-22 -21,-22l-101 0c-15,0 -21,7 -21,22l0 2145c0,14 6,21 21,21l101 0c14,0 21,-7 21,-21l0 -557 141 -136 586 706c5,6 10,8 17,8l132 0c9,0 15,-4 20,-12 3,-8 2,-16 -4,-23l-647 -779zm816 814c-13,0 -20,-7 -20,-21l0 -1284c0,-14 7,-21 20,-21l102 0c15,0 21,7 21,21l0 1284c0,14 -6,21 -21,21l-102 0zm156 -1752c0,29 -10,53 -31,74 -20,20 -44,30 -73,30 -30,0 -55,-10 -74,-30 -20,-21 -30,-45 -30,-74 0,-28 10,-53 30,-73 19,-21 44,-31 74,-31 29,0 53,10 73,31 21,20 31,45 31,73z"/>
   <path class="fil0" d="M15199 3826l245 -366 0 -1c19,-32 29,-67 29,-104 0,-56 -20,-104 -59,-144 -40,-40 -88,-60 -145,-60 -43,0 -83,13 -118,38 -36,26 -61,59 -75,100 -1,5 0,8 5,9l75 23c5,1 8,0 9,-4 8,-22 21,-40 41,-53 19,-14 40,-21 63,-21 31,0 57,11 79,33 22,22 33,48 33,79 0,20 -6,39 -15,56l-334 497c-1,2 -1,4 0,7 1,2 3,3 6,3l454 0c4,0 6,-2 6,-7l0 -78c0,-5 -2,-7 -6,-7l-293 0z"/>
   <path id="1" class="fil0" d="M16022 3242c-80,0 -149,28 -207,86 -27,27 -48,58 -62,93 -15,36 -23,74 -23,114 0,80 28,149 85,207 27,27 59,48 94,62 36,16 74,23 113,23 81,0 150,-28 207,-85 28,-27 49,-58 64,-93 15,-37 23,-75 23,-114 0,-81 -29,-150 -87,-207 -26,-27 -57,-48 -93,-63 -36,-16 -74,-23 -114,-23zm0 676c-51,0 -101,-10 -149,-30 -45,-19 -86,-47 -122,-82 -35,-36 -63,-76 -82,-122 -20,-48 -30,-97 -30,-149 0,-52 10,-102 30,-149 19,-46 47,-87 82,-122 36,-36 77,-63 122,-83 48,-20 98,-30 149,-30 53,0 102,10 150,30 46,20 86,47 122,83 35,35 63,76 82,122 20,47 30,97 30,149 0,52 -10,101 -30,149 -19,46 -47,86 -82,122 -36,35 -76,63 -122,82 -48,20 -97,30 -150,30z"/>
   <path id="2" class="fil0" d="M16529 3261c-4,4 -4,7 0,11l55 55c4,3 7,3 10,0l31 -30 0 614c0,5 2,7 7,7l78 0c5,0 7,-2 7,-7l0 -752c0,-4 -2,-7 -7,-7l-69 0c-2,0 -4,1 -5,3l-107 106z"/>
   <path id="3" class="fil0" d="M17152 3829c-37,0 -69,-14 -95,-41 -27,-26 -40,-58 -40,-95 0,-38 13,-70 40,-97 26,-26 58,-39 95,-39 38,0 70,13 97,39 26,27 39,59 39,97 0,37 -13,69 -39,95 -27,27 -59,41 -97,41zm0 -588c31,0 58,11 80,32 21,22 32,49 32,79 0,31 -11,58 -32,80 -22,22 -49,33 -80,33 -31,0 -57,-11 -79,-33 -21,-22 -32,-49 -32,-80 0,-30 11,-57 32,-79 22,-21 48,-32 79,-32zm130 267c22,-19 40,-42 53,-68 13,-28 20,-57 20,-88 0,-55 -20,-103 -60,-142 -39,-39 -87,-59 -143,-59 -55,0 -103,20 -142,59 -40,39 -60,87 -60,142 0,31 7,60 20,88 13,26 30,49 53,68 -30,21 -53,47 -70,79 -18,33 -26,68 -26,106 0,62 22,115 66,159 44,44 97,66 159,66 63,0 116,-22 160,-66 45,-44 67,-97 67,-159 0,-38 -9,-74 -27,-106 -17,-32 -41,-59 -70,-79z"/>
   <rect class="fil2" transform="matrix(1.67738E-014 -1.20193 0.633342 3.18325E-014 18475.9 4407.69)" width="3668" height="155"/>
   <path class="fil0" d="M19677 2381c-72,6 -140,-7 -205,-37 -64,-31 -117,-75 -158,-134 -5,-6 -4,-12 3,-16l106 -71c6,-4 12,-3 17,3 29,41 67,70 114,88 47,18 96,22 147,11 54,-12 99,-39 135,-81 37,-42 59,-91 63,-146 6,-75 -16,-140 -67,-194 -51,-55 -113,-82 -186,-82l-263 0c-8,0 -12,-4 -12,-12l0 -607c0,-8 4,-12 12,-12l565 0c8,0 11,4 11,12l0 128c0,8 -3,11 -11,11l-426 0 0 329 124 0c113,0 210,41 290,123 80,82 118,181 115,295 -3,103 -41,192 -113,267 -72,76 -159,118 -261,125z"/>
   <path id="1" class="fil0" d="M21589 1813c-8,0 -12,-4 -12,-12l0 -129c0,-7 4,-11 12,-11l432 0c8,0 12,4 12,11l0 129c0,8 -4,12 -12,12l-432 0z"/>
   <path id="2" class="fil0" d="M23111 2227c-63,0 -116,-23 -160,-68 -46,-44 -68,-98 -68,-161 0,-38 9,-73 27,-107l1 -1 1 -1 15 -24c21,-30 48,-53 81,-70 33,-17 67,-25 103,-25 63,0 117,22 162,67 44,44 67,98 67,161l0 3c-1,62 -24,115 -68,159 -45,45 -98,67 -161,67zm-24 -613l324 -505c3,-3 3,-7 0,-11 -2,-4 -6,-7 -10,-7l-157 0c-5,0 -8,2 -10,6l-432 673c-10,14 -19,28 -27,43l-2 3c-30,57 -46,117 -46,182 0,106 38,196 113,272 76,75 166,112 271,112 105,0 195,-37 270,-111 75,-74 113,-164 115,-268l0 -2 0 -3c0,-106 -37,-197 -113,-272 -75,-75 -165,-113 -272,-113l-24 1z"/>
   <path id="3" class="fil0" d="M20185 946c-4,0 -5,1 -5,5l0 56c0,3 1,4 5,4l135 0 0 445c0,4 1,5 5,5l56 0c3,0 4,-1 4,-5l0 -445 135 0c3,0 5,-1 5,-4l0 -56c0,-4 -2,-5 -5,-5l-335 0z"/>
   <path id="4" class="fil0" d="M20913 946c-3,0 -4,1 -4,5l0 219 -241 0 0 -220c0,-3 -2,-5 -5,-5l-56 0c-3,0 -5,2 -5,5l0 506c0,3 2,4 5,4l56 0c3,0 5,-1 5,-4l0 -221 241 0 0 221c0,4 1,5 4,5l57 0c3,0 5,-1 5,-5l0 -505c0,-4 -2,-5 -5,-5l-57 0z"/>
   <path id="5" class="fil0" d="M23612 946c-3,0 -5,1 -5,5l0 56c0,3 2,4 5,4l135 0 0 445c0,4 2,5 5,5l56 0c3,0 5,-1 5,-5l0 -445 135 0c3,0 4,-1 4,-4l0 -56c0,-4 -1,-5 -4,-5l-336 0z"/>
   <path id="6" class="fil0" d="M24341 946c-4,0 -5,1 -5,5l0 219 -241 0 0 -220c0,-3 -1,-5 -5,-5l-56 0c-3,0 -5,2 -5,5l0 506c0,3 2,4 5,4l56 0c4,0 5,-1 5,-4l0 -221 241 0 0 221c0,4 1,5 5,5l56 0c3,0 5,-1 5,-5l0 -505c0,-4 -2,-5 -5,-5l-56 0z"/>
   <path id="7" class="fil0" d="M19893 3754c-133,0 -246,-47 -339,-141 -94,-93 -141,-206 -141,-339 0,-132 47,-245 141,-339 93,-94 206,-140 339,-140 132,0 245,46 339,140 94,94 140,207 140,339 0,133 -46,246 -140,339 -94,94 -207,141 -339,141zm0 -1124c-177,0 -329,63 -455,189 -126,126 -189,277 -189,455 0,177 63,329 189,455 126,126 278,189 455,189 178,0 329,-63 455,-189 126,-126 189,-278 189,-455 0,-178 -63,-329 -189,-455 -126,-126 -277,-189 -455,-189z"/>
   <path id="8" class="fil0" d="M21638 3681c-4,-6 -9,-7 -16,-3 -78,51 -165,76 -260,76 -133,0 -247,-47 -341,-143 -95,-95 -141,-210 -139,-343 1,-124 45,-231 130,-322 86,-92 190,-142 312,-151 108,-9 207,16 297,74 7,4 12,3 16,-3l79 -117c5,-6 3,-12 -3,-16 -122,-79 -256,-113 -402,-101 -160,12 -296,77 -409,192 -113,116 -174,254 -183,413 -10,186 48,345 176,480 60,63 130,112 209,147 82,36 168,54 258,54 128,0 246,-35 352,-104 6,-5 8,-10 3,-17l-79 -116z"/>
   <path id="9" class="fil0" d="M21814 2630c-8,0 -12,4 -12,12l0 140c0,8 4,12 12,12l338 0 0 1112c0,8 4,12 12,12l140 0c8,0 12,-4 12,-12l0 -1112 337 0c8,0 12,-4 12,-12l0 -140c0,-8 -4,-12 -12,-12l-839 0z"/>
   <path id="10" class="fil0" d="M23409 3754c-133,0 -246,-47 -339,-141 -94,-93 -141,-206 -141,-339 0,-132 47,-245 141,-339 93,-94 206,-140 339,-140 132,0 245,46 339,140 94,94 140,207 140,339 0,133 -46,246 -140,339 -94,94 -207,141 -339,141zm0 -1124c-178,0 -330,63 -455,189 -126,126 -189,277 -189,455 0,177 63,329 189,455 125,126 277,189 455,189 177,0 329,-63 455,-189 126,-126 189,-278 189,-455 0,-178 -63,-329 -189,-455 -126,-126 -278,-189 -455,-189z"/>
   <path id="11" class="fil0" d="M24481 3754l0 -432 353 0c60,0 111,21 153,63 42,42 63,93 63,153 0,60 -21,111 -63,153 -42,42 -93,63 -153,63l-353 0zm0 -960l312 0c50,0 93,17 128,54 36,35 54,78 54,127 0,51 -18,93 -54,129 -35,35 -78,53 -128,53l-312 0 0 -363zm556 422c70,-69 103,-151 102,-246 -2,-94 -37,-174 -104,-240 -67,-67 -148,-100 -242,-100l-464 0c-7,0 -11,4 -11,12l0 1264c0,8 4,12 11,12l497 0c104,0 194,-35 270,-107 76,-71 115,-158 118,-262 2,-69 -13,-133 -46,-192 -31,-59 -75,-105 -131,-141z"/>
   <path id="12" class="fil0" d="M25504 2630c-8,0 -12,4 -12,12l0 1264c0,8 4,12 12,12l836 0c8,0 12,-4 12,-12l0 -140c0,-8 -4,-12 -12,-12l-684 0 0 -398 496 0c8,0 11,-4 11,-12l0 -140c0,-8 -3,-12 -11,-12l-496 0 0 -398 684 0c8,0 12,-4 12,-12l0 -140c0,-8 -4,-12 -12,-12l-836 0z"/>
   <path id="13" class="fil0" d="M26733 3196l0 -403 321 0c56,0 104,19 143,58 40,40 59,88 59,143 0,55 -19,103 -59,142 -39,40 -87,60 -143,60l-321 0zm401 153c80,-20 147,-60 201,-123 54,-64 82,-138 85,-221 3,-103 -31,-192 -103,-265 -72,-74 -160,-111 -263,-111l-473 0c-8,0 -12,4 -12,12l0 1263c0,7 4,11 12,11l140 0c8,0 12,-4 12,-11l0 -544 222 0 -1 0 302 552c2,4 6,6 10,6l161 0c4,0 8,-2 9,-5 3,-4 3,-8 1,-12l-303 -552z"/>
  </g>
 </g>
</svg>
