<?xml version="1.0" encoding="UTF-8"?>
<!DOCTYPE svg PUBLIC "-//W3C//DTD SVG 1.1//EN" "http://www.w3.org/Graphics/SVG/1.1/DTD/svg11.dtd">
<!-- Creator: CorelDRAW X7 -->
<svg xmlns="http://www.w3.org/2000/svg" xml:space="preserve" width="68.2412mm" height="67.7332mm" version="1.1" style="shape-rendering:geometricPrecision; text-rendering:geometricPrecision; image-rendering:optimizeQuality; fill-rule:evenodd; clip-rule:evenodd"
viewBox="0 0 6824 6773"
 xmlns:xlink="http://www.w3.org/1999/xlink">
 <defs>
  <style type="text/css">
   <![CDATA[
    .fil2 {fill:none}
    .fil3 {fill:#61003F}
    .fil0 {fill:#FFF4F0}
    .fil1 {fill:#61003F;fill-rule:nonzero}
    .fil4 {fill:#61003F;fill-rule:nonzero}
   ]]>
  </style>
     <clipPath id="id0">
      <path d="M5719 3148c-79,45 -157,56 -217,21 -60,-35 -90,-108 -90,-199 0,-90 30,-198 89,-301 60,-104 138,-183 217,-228 78,-46 157,-56 217,-22 60,35 90,108 90,199 0,90 -30,198 -90,301 -60,104 -138,183 -216,229z"/>
     </clipPath>
     <clipPath id="id1">
      <path d="M414 3726c59,34 118,42 163,16 45,-26 68,-81 68,-150 0,-68 -23,-149 -68,-226 -45,-78 -104,-138 -163,-172 -59,-34 -118,-42 -163,-16 -45,26 -68,81 -68,149 0,68 23,149 68,227 45,78 104,138 163,172z"/>
     </clipPath>
     <clipPath id="id2">
      <path d="M1644 4436c59,34 118,42 163,16 45,-26 68,-81 68,-149 0,-68 -23,-149 -68,-227 -45,-78 -104,-138 -163,-172 -59,-34 -118,-42 -163,-16 -45,26 -68,81 -68,149 0,68 23,149 68,227 45,78 104,138 163,172z"/>
     </clipPath>
     <clipPath id="id3">
      <path d="M3462 4515c-78,46 -157,56 -217,22 -60,-35 -90,-108 -90,-199 0,-90 30,-198 90,-301 60,-104 138,-184 216,-229 79,-45 157,-56 217,-21 60,34 90,108 90,198 0,91 -30,198 -89,302 -60,103 -138,183 -217,228z"/>
     </clipPath>
 </defs>
 <g id="Layer_x0020_1">
  <metadata id="CorelCorpID_0Corel-Layer"/>
  <g id="_1856083441440">
   <g>
    <polygon class="fil0" points="1875,1108 3720,2173 5564,1108 5564,1818 3720,2883 3720,2173 5564,1108 3720,42 "/>
    <path class="fil1" d="M1937 1108l1782 1029 1783 -1029 -1782 -1030 -1783 1030zm1751 1083l-1827 -1055c-6,-3 -10,-7 -13,-13 -9,-15 -4,-34 11,-42l1845 -1066 0 0c9,-5 21,-5 31,0l1843 1065c6,2 10,6 13,12 3,5 5,10 5,16l0 0 0 710c0,12 -8,23 -19,28l-1842 1064c-15,8 -34,3 -42,-12 -3,-5 -5,-10 -5,-15l0 0 0 -692zm1845 -1029l-1782 1029 0 638 1782 -1029 0 -638z"/>
    <polygon class="fil0" points="30,3948 30,3593 183,2794 2028,3859 1875,4658 1875,5013 "/>
    <path class="fil1" d="M-2 3948l0 -355c0,-3 1,-5 1,-8l154 -797c3,-17 19,-28 36,-25 5,1 9,3 12,5l1843 1064c12,7 17,20 15,33l0 0 -153 796 0 352c0,17 -14,31 -31,31 -7,0 -13,-2 -18,-5l-1843 -1064c-10,-6 -15,-16 -15,-27l-1 0zm63 -352l0 334 1782 1029 0 -301 0 0c0,-2 1,-4 1,-6l149 -777 -1787 -1032 -145 753z"/>
    <polygon class="fil0" points="183,2794 2028,3859 3105,3238 1260,2173 "/>
    <path class="fil1" d="M246 2794l1782 1029 1014 -585 -1782 -1029 -1014 585zm1767 1092l-1843 -1064c-6,-3 -10,-7 -14,-12 -8,-15 -3,-34 12,-43l1076 -621c9,-6 21,-6 31,0l1845 1065 0 0c5,3 9,6 12,11 8,15 3,34 -12,43l-1076 621c-9,6 -21,6 -31,0z"/>
    <path class="fil0" d="M2028 3859l-153 799 0 355 1051 -607c-3,-23 -5,-47 -5,-72 0,-124 41,-271 123,-413 19,-33 39,-64 61,-93l0 -590 -1077 621z"/>
    <path class="fil1" d="M2056 3879l-150 782 0 298 987 -570c-1,-5 -1,-11 -1,-16 -1,-13 -2,-26 -2,-39l0 0c0,-66 11,-138 33,-213 21,-71 53,-144 94,-216l0 0 0 0c10,-16 20,-33 30,-49 9,-13 18,-26 26,-38l0 -526 -1017 587zm-212 773l154 -799 0 0c1,-8 7,-16 15,-21l1073 -620c6,-3 12,-5 19,-5 17,0 31,14 31,31l0 590 0 0c0,7 -2,13 -6,19 -11,14 -21,29 -30,43 -10,15 -19,30 -29,46l0 0c-39,68 -68,136 -88,203 -20,69 -30,135 -30,195l0 0c0,12 0,24 1,35 1,11 2,22 3,32l0 0c2,13 -4,25 -15,32l-1050 606c-5,3 -11,5 -17,5 -18,0 -32,-14 -32,-31l0 -355 0 0c0,-2 1,-4 1,-6z"/>
    <polygon class="fil0" points="1875,1108 1260,2173 3105,3238 3720,2173 "/>
    <path class="fil1" d="M1886 1150l-584 1011 1791 1034 584 -1011 -1791 -1034zm-653 1007l615 -1065 0 0c8,-15 27,-20 42,-11l1845 1065c15,8 20,27 12,42l-614 1064 -1 2c-9,14 -28,20 -43,11l-1845 -1065c-15,-9 -20,-28 -11,-43z"/>
    <polygon class="fil0" points="3105,3238 3720,2173 3720,2883 "/>
    <path class="fil1" d="M3079 3221l614 -1064c8,-15 27,-20 42,-11 10,5 16,16 16,27l0 0 0 710c0,12 -7,23 -18,28l-613 354c-15,9 -34,3 -42,-11 -7,-11 -6,-24 1,-33zm609 -932l-498 864 498 -288 0 -576z"/>
    <polygon class="fil0" points="5564,1818 5564,1108 6179,1463 "/>
    <path class="fil1" d="M5533 1818l0 -710c0,-18 14,-32 31,-32 7,0 13,2 19,6l612 354c15,8 20,27 11,42 -2,5 -6,9 -11,12l0 0 -615 355c-15,8 -34,3 -43,-12 -2,-5 -4,-10 -4,-15l0 0zm63 -656l0 602 521 -301 -521 -301z"/>
    <polygon class="fil0" points="4335,397 6179,1463 6794,1108 4949,42 "/>
    <g>
     <path class="fil1" d="M4397 397l1782 1030 553 -319 -1782 -1030 -553 319zm1767 1093l-1843 -1065c-6,-2 -10,-6 -14,-12 -8,-15 -3,-34 12,-43l615 -355 0 0c9,-5 21,-5 31,0l1844 1065 1 1 -646 409zm31 -1c-9,6 -21,6 -31,1l31 -1zm615 -354l-615 354 615 -354zm11 -43c9,15 4,34 -11,43l11 -43z"/>
    </g>
    <path class="fil0" d="M5564 1818l0 442c11,-7 22,-14 33,-20 108,-62 216,-77 298,-29l120 69 0 0c82,47 123,148 123,271l656 -378 0 -1065 -1230 710z"/>
    <path class="fil1" d="M5596 1836l0 369c54,-29 108,-47 159,-52 57,-6 109,4 156,31l118 68c1,0 2,1 4,2 45,27 79,67 102,117 17,38 28,81 32,128l596 -344 0 -993 -1167 674zm-63 424l0 -442 0 0c0,-11 6,-22 16,-27l1228 -709c5,-4 11,-6 17,-6 18,0 32,14 32,32l0 1065 0 0c0,10 -6,21 -16,27l-656 378 0 0c-4,3 -10,5 -16,5 -17,0 -31,-14 -31,-32 0,-58 -10,-111 -29,-154 -18,-39 -44,-70 -78,-90l-1 0 -120 -69c-34,-20 -74,-27 -117,-23 -47,4 -97,22 -148,51l-1 1c-5,3 -10,6 -16,9 -4,3 -9,6 -15,10l0 0 0 0c-5,4 -11,6 -18,6 -17,0 -31,-14 -31,-32z"/>
    <path class="fil0" d="M3105 3238l0 590c71,-97 153,-173 236,-221 108,-62 215,-76 298,-29l81 47 0 -742 -615 355z"/>
    <path class="fil1" d="M3136 3256l0 483c19,-22 39,-42 60,-61 42,-39 85,-72 130,-98 58,-33 117,-54 173,-60 56,-5 109,4 155,31l34 20 0 -634 -552 319zm-63 572l0 -590 0 0c0,-11 6,-21 16,-27l613 -354c5,-4 11,-5 18,-5 17,0 31,14 31,31l0 742 0 0c0,5 -2,11 -4,16 -9,14 -28,20 -43,11l-81 -47c-34,-20 -75,-27 -118,-23 -47,5 -97,23 -148,53 -40,22 -80,52 -119,88 -37,35 -73,76 -107,122 -6,9 -15,14 -26,14 -18,0 -32,-14 -32,-31z"/>
    <path class="fil0" d="M3720 2883l0 742 39 23 0 0c67,39 107,114 119,208l764 -441 0 -1065 -922 533z"/>
    <path class="fil1" d="M3751 2901l0 706 21 12c2,1 3,2 4,3 38,22 67,53 89,92 16,27 28,59 36,93l710 -410 0 -993 -860 497zm-63 724l0 -742 0 0c0,-11 6,-21 16,-27l920 -532c5,-3 11,-5 18,-5 17,0 31,14 31,31l0 1065 0 0c0,11 -5,22 -15,27l-763 441c-4,2 -8,4 -13,4 -17,2 -32,-10 -35,-27 -5,-44 -17,-83 -36,-115 -17,-30 -40,-54 -68,-70l0 0 -37 -22c-11,-5 -18,-16 -18,-28z"/>
    <path class="fil0" d="M4642 2350l0 1065 553 -319c-11,-39 -17,-82 -17,-129 0,-124 41,-272 123,-414 73,-127 167,-228 263,-293l0 -442 -922 532z"/>
    <path class="fil1" d="M4673 2368l0 993 486 -280c-3,-14 -6,-28 -8,-42 -3,-23 -4,-47 -4,-72 0,-67 11,-139 33,-213 21,-71 52,-145 94,-217 37,-64 79,-122 124,-172 43,-48 89,-88 135,-121l0 -372 -860 496zm-62 1047l0 -1065 0 0c0,-11 5,-21 15,-27l921 -531c5,-4 11,-6 17,-6 18,0 32,14 32,32l0 442 0 0c0,10 -5,20 -14,26 -47,31 -93,72 -137,121 -43,47 -83,101 -117,162 -39,67 -69,136 -88,202 -21,69 -31,135 -31,196 0,22 1,43 4,63 3,20 7,38 12,55 5,14 -1,30 -14,38l-551 318c-5,4 -12,6 -18,6 -17,0 -31,-14 -31,-32z"/>
    <path class="fil0" d="M5599 3210c-52,29 -104,48 -152,55l-26 43 -120 -69c-82,-48 -123,-148 -123,-272 0,-124 41,-272 123,-414 82,-142 189,-251 296,-313 108,-62 216,-77 298,-29l120 69 -25 43c19,46 28,100 28,160 0,124 -41,272 -122,413 -82,142 -190,252 -297,314z"/>
    <path class="fil1" d="M5614 3237c-27,16 -55,29 -82,38l-2 1c-21,8 -43,14 -64,17l-18 31c-8,15 -27,20 -42,11l0 0 0 0 -120 -69 -2 -1c-46,-27 -80,-67 -103,-118 -23,-51 -34,-113 -34,-180 0,-67 11,-139 33,-213 21,-71 52,-145 94,-217 41,-71 89,-135 140,-189 53,-56 110,-102 168,-135 58,-34 118,-55 173,-60 57,-6 109,4 156,31l120 69c15,8 20,28 11,43 0,0 -1,1 -1,1l-17 29c8,21 14,43 18,66l0 0 0 0c5,28 8,59 8,91 0,66 -11,138 -34,213 -21,71 -52,144 -93,216 -42,72 -90,136 -141,190 -53,56 -110,102 -168,135zm-103 -20c24,-9 48,-20 72,-34 52,-30 105,-72 154,-125 48,-50 93,-110 132,-177 38,-67 68,-136 88,-203 20,-69 30,-135 30,-195 0,-28 -2,-55 -7,-80l0 0c-4,-24 -10,-47 -19,-68l0 0c-3,-8 -3,-18 2,-27l9 -17 -93 -53c-34,-20 -74,-27 -117,-23 -47,4 -98,22 -149,52 -52,30 -104,72 -154,124 -48,51 -93,110 -131,178 -39,67 -69,136 -88,202 -21,69 -31,135 -31,196 0,58 10,111 29,154 18,39 44,70 77,90l2 1 93 54 9 -16c5,-9 13,-15 24,-16 21,-3 44,-9 66,-17l2 0z"/>
    <path class="fil0" d="M5719 3279c-108,62 -215,77 -298,29 -82,-47 -123,-148 -123,-272 0,-124 41,-272 123,-414 82,-142 189,-251 296,-313 108,-62 216,-77 298,-29 82,47 123,148 123,272 1,124 -40,272 -122,414 -82,142 -190,251 -297,313z"/>
    <path class="fil1" d="M5734 3306c-58,34 -117,55 -173,60 -56,6 -109,-4 -155,-31 -47,-26 -81,-67 -105,-119 -23,-51 -34,-112 -34,-180 0,-66 11,-139 33,-213 21,-71 52,-144 94,-216 41,-72 89,-136 140,-190 53,-56 110,-102 168,-135 59,-34 118,-54 174,-60 56,-5 108,4 155,31 46,27 81,68 104,119 23,51 35,112 35,180 0,66 -11,139 -33,213 -22,71 -53,144 -94,216 -42,72 -90,136 -141,190 -53,56 -110,102 -168,135zm-179 -2c47,-5 97,-23 148,-52 52,-30 105,-72 154,-124 48,-51 93,-110 132,-178 38,-67 68,-136 88,-202 20,-69 30,-136 30,-196 0,-59 -10,-111 -29,-155 -18,-39 -44,-70 -79,-90 -34,-20 -74,-27 -117,-23 -47,5 -98,23 -149,52 -52,30 -104,72 -154,124 -48,51 -92,111 -131,178 -39,67 -68,136 -88,203 -21,68 -31,135 -31,195 0,59 10,111 29,155 18,39 45,70 79,90 34,20 75,27 118,23z"/>
    <path class="fil0" d="M5719 3148c-79,45 -157,56 -217,21 -60,-35 -90,-108 -90,-199 0,-90 30,-198 89,-301 60,-104 138,-183 217,-228 78,-46 157,-56 217,-22 60,35 90,108 90,199 0,90 -30,198 -90,301 -60,104 -138,183 -216,229z"/>
    <g style="clip-path:url(#id0)">
     <g>
      <g>
       <path id="1" class="fil0" d="M5631 3098c-79,46 -157,56 -217,22 -60,-35 -90,-108 -90,-199 0,-90 29,-198 89,-301 60,-104 138,-184 217,-229 78,-45 157,-56 216,-21 60,35 90,108 91,198 0,91 -30,199 -90,302 -60,103 -138,183 -216,228z"/>
       <path id="2" class="fil1" d="M5398 3147l31 -54 0 0 5 2 4 2 5 2 5 2 5 2 4 1 5 1 6 1 5 1 5 1 5 0 6 1 5 0 6 0 6 -1 6 0 6 -1 6 -1 6 -1 6 -1 6 -2 7 -2 6 -2 7 -2 6 -2 7 -3 6 -3 7 -3 7 -3 6 -3 7 -4 7 -4 31 54 -8 5 -8 4 -8 4 -8 4 -8 4 -8 3 -8 3 -8 3 -8 3 -8 2 -8 3 -8 2 -8 1 -8 2 -8 1 -7 1 -8 1 -8 0 -8 0 -8 0 -8 0 -8 -1 -7 -1 -8 -1 -7 -2 -8 -1 -7 -3 -8 -2 -7 -3 -7 -3 -7 -3 -7 -4 0 0zm0 0c-15,-9 -20,-28 -11,-43 8,-15 27,-20 42,-11l-31 54zm-106 -226l63 0 0 0 0 8 0 7 1 8 0 7 1 8 1 7 1 7 1 7 1 6 2 7 2 6 1 7 2 6 2 5 2 6 3 6 2 5 3 5 3 5 2 5 3 5 4 4 3 4 3 4 4 4 3 4 4 4 4 3 4 3 4 3 4 3 4 3 -31 54 -7 -4 -6 -5 -7 -4 -6 -5 -5 -5 -6 -6 -5 -5 -6 -6 -4 -6 -5 -6 -5 -6 -4 -7 -4 -7 -4 -7 -3 -7 -3 -7 -4 -7 -2 -8 -3 -8 -3 -7 -2 -8 -2 -8 -2 -9 -1 -8 -2 -8 -1 -9 -1 -8 -1 -9 -1 -9 0 -9 -1 -9 0 -9 0 0zm0 0c0,-17 14,-31 32,-31 17,0 31,14 31,31l-63 0zm94 -317l54 31 0 0 -5 10 -5 9 -5 9 -5 10 -4 9 -5 9 -4 10 -4 9 -4 9 -4 10 -4 9 -3 9 -3 9 -3 10 -3 9 -3 9 -2 9 -3 9 -2 9 -2 9 -2 9 -2 9 -1 8 -2 9 -1 9 -1 8 -1 9 -1 8 0 8 -1 8 0 8 0 8 -63 0 0 -9 1 -9 0 -10 1 -9 1 -10 1 -9 1 -10 1 -9 2 -10 2 -10 2 -10 2 -10 2 -10 2 -10 3 -10 3 -10 3 -10 3 -10 4 -10 3 -10 4 -10 4 -10 4 -11 4 -10 5 -10 4 -10 5 -10 5 -11 5 -10 6 -10 5 -10 6 -10 0 0zm0 0c9,-15 28,-20 43,-12 15,9 20,28 11,43l-54 -31zm228 -240l31 54 0 0 -7 4 -6 5 -7 4 -7 5 -7 4 -7 5 -7 6 -6 5 -7 5 -7 6 -7 6 -6 6 -7 6 -7 7 -6 6 -7 7 -7 7 -6 7 -6 8 -7 7 -6 8 -6 7 -7 8 -6 8 -6 9 -6 8 -6 8 -5 9 -6 9 -6 9 -5 9 -6 9 -54 -31 6 -10 6 -10 6 -10 6 -9 7 -10 6 -9 6 -9 7 -9 7 -9 7 -9 6 -8 7 -8 7 -9 7 -8 8 -7 7 -8 7 -8 7 -7 8 -7 7 -7 8 -7 7 -6 8 -7 8 -6 7 -6 8 -6 8 -6 7 -5 8 -5 8 -5 8 -5 8 -5 0 0zm0 0c15,-9 34,-3 43,12 8,15 3,34 -12,42l-31 -54zm248 -21l-31 54 0 0 -5 -2 -4 -3 -5 -2 -5 -2 -4 -1 -5 -2 -5 -1 -5 -1 -6 -1 -5 0 -5 -1 -6 0 -5 0 -6 0 -6 0 -6 1 -6 0 -6 1 -6 2 -6 1 -6 2 -7 1 -6 2 -6 2 -7 3 -7 2 -6 3 -7 3 -7 3 -6 4 -7 4 -7 3 -31 -54 8 -4 8 -5 8 -4 8 -3 8 -4 8 -3 8 -4 8 -3 8 -2 8 -3 8 -2 8 -2 8 -2 8 -1 8 -2 8 -1 8 0 7 -1 8 0 8 0 8 1 8 0 7 1 8 1 8 2 7 2 8 2 7 3 7 2 7 4 7 3 7 4 0 0zm0 0c15,8 20,28 12,43 -9,15 -28,20 -43,11l31 -54zm106 225l-63 0 0 0 0 -7 0 -8 -1 -8 0 -7 -1 -7 -1 -7 -1 -7 -1 -7 -1 -7 -2 -6 -1 -7 -2 -6 -2 -6 -2 -6 -2 -6 -3 -5 -2 -6 -3 -5 -2 -5 -3 -4 -3 -5 -3 -5 -4 -4 -3 -4 -3 -4 -4 -3 -4 -4 -4 -3 -3 -4 -5 -3 -4 -2 -4 -3 31 -54 7 4 6 4 7 5 6 5 6 5 5 5 6 6 5 5 5 6 4 7 5 6 4 7 4 6 4 7 3 7 4 8 3 7 3 7 2 8 3 8 2 8 2 8 2 8 2 8 1 9 1 8 1 9 1 9 1 8 0 9 1 9 0 9 0 0zm0 0c0,18 -14,32 -31,32 -18,0 -32,-14 -32,-32l63 0zm-94 318l-54 -32 0 0 5 -9 5 -9 5 -10 5 -9 5 -9 4 -10 4 -9 4 -9 4 -10 4 -9 4 -9 3 -10 3 -9 3 -9 3 -9 3 -9 3 -10 2 -9 2 -9 2 -9 2 -8 2 -9 2 -9 1 -9 1 -8 1 -9 1 -8 1 -8 0 -9 1 -8 0 -8 0 -8 63 0 0 10 -1 9 0 9 -1 10 -1 9 -1 10 -1 9 -1 10 -2 10 -1 9 -2 10 -3 10 -2 10 -2 10 -3 10 -3 10 -3 10 -3 10 -3 10 -4 11 -4 10 -4 10 -4 10 -4 10 -5 10 -4 11 -5 10 -5 10 -5 10 -6 10 -5 11 -6 10 0 0zm0 0c-9,15 -28,20 -43,11 -15,-9 -20,-28 -11,-43l54 32zm-228 239l-31 -54 0 0 7 -4 7 -4 6 -4 7 -5 7 -5 7 -5 7 -5 6 -5 7 -6 7 -6 7 -6 7 -6 6 -6 7 -6 7 -7 6 -7 7 -7 6 -7 7 -7 6 -7 6 -8 7 -8 6 -8 6 -8 6 -8 6 -8 6 -9 6 -9 5 -8 6 -9 5 -9 6 -10 54 32 -6 10 -6 10 -6 9 -6 10 -6 9 -7 10 -6 9 -7 9 -7 8 -6 9 -7 9 -7 8 -7 8 -7 8 -7 8 -8 8 -7 7 -7 7 -8 8 -7 7 -8 6 -7 7 -8 6 -7 7 -8 6 -8 5 -8 6 -7 6 -8 5 -8 5 -8 5 -8 4 0 0zm0 0c-15,9 -34,4 -42,-11 -9,-15 -4,-34 11,-43l31 54z"/>
      </g>
     </g>
    </g>
    <path class="fil2" d="M5719 3148c-79,45 -157,56 -217,21 -60,-35 -90,-108 -90,-199 0,-90 30,-198 89,-301 60,-104 138,-183 217,-228 78,-46 157,-56 217,-22 60,35 90,108 90,199 0,90 -30,198 -90,301 -60,104 -138,183 -216,229z"/>
    <path class="fil1" d="M5734 3175c-44,25 -88,40 -130,45 -42,4 -82,-4 -118,-24 -35,-20 -62,-52 -79,-91 -18,-38 -26,-84 -26,-135 0,-49 8,-102 24,-157 16,-53 39,-107 69,-160 31,-53 66,-100 104,-139 39,-42 82,-76 124,-100 44,-26 88,-41 130,-45 43,-5 83,3 118,23 36,21 62,52 80,91 17,38 26,84 26,135 0,49 -8,102 -25,157 -15,53 -38,107 -69,160 -31,53 -66,100 -103,140 -40,41 -82,75 -125,100zm-136 -18c33,-3 69,-16 105,-36 37,-22 75,-52 110,-89 35,-37 67,-80 95,-128 28,-49 49,-98 63,-146 15,-50 22,-97 22,-140 0,-42 -7,-79 -20,-110 -13,-27 -31,-48 -54,-62 -23,-13 -51,-18 -81,-15 -33,3 -69,16 -105,37 -37,21 -74,51 -110,89 -34,36 -67,79 -95,127 -28,49 -49,98 -63,146 -15,50 -22,97 -22,140 0,42 7,79 21,110 12,27 30,48 53,62 24,13 51,18 81,15z"/>
    <path class="fil0" d="M414 3726c59,34 118,42 163,16 45,-26 68,-81 68,-150 0,-68 -23,-149 -68,-226 -45,-78 -104,-138 -163,-172 -59,-34 -118,-42 -163,-16 -45,26 -68,81 -68,149 0,68 23,149 68,227 45,78 104,138 163,172z"/>
    <g style="clip-path:url(#id1)">
     <g id="_1856083435552">
      <g>
       <path id="1" class="fil1" d="M722 3669l0 0 -6 3 -5 3 -6 2 -6 2 -5 2 -6 2 -6 2 -6 1 -6 1 -6 1 -7 0 -6 1 -6 0 -6 -1 -6 0 -7 0 -6 -1 -6 -1 -6 -1 -6 -2 -7 -1 -6 -2 -6 -2 -6 -2 -7 -2 -6 -3 -6 -2 -6 -3 -6 -3 -6 -3 -7 -4 -6 -3 32 -54 5 2 5 3 5 3 4 2 5 2 5 2 5 2 5 2 4 1 5 2 4 1 5 1 4 1 5 1 4 1 4 0 4 1 4 0 5 0 3 0 4 0 4 -1 4 0 3 -1 4 0 3 -1 4 -1 3 -1 3 -2 3 -1 4 -2 3 -1 0 0 31 54zm0 0l-31 -54c15,-9 34,-4 42,11 9,15 4,34 -11,43zm83 -177l0 0 0 7 0 7 0 7 -1 7 -1 7 0 6 -1 7 -1 7 -2 6 -1 6 -2 7 -2 6 -1 6 -3 6 -2 6 -2 6 -3 5 -3 6 -3 5 -3 6 -3 5 -4 5 -3 5 -4 4 -4 5 -5 4 -4 5 -5 4 -5 4 -5 3 -5 4 -5 3 -31 -54 3 -2 3 -2 2 -2 3 -2 3 -3 2 -2 3 -3 2 -2 2 -3 3 -3 2 -3 2 -3 2 -4 2 -3 2 -4 1 -4 2 -4 2 -4 1 -4 2 -4 1 -5 1 -4 1 -5 1 -5 1 -5 1 -5 0 -5 1 -5 0 -6 0 -5 1 -6 0 -6 0 0 62 0zm0 0l-62 0c0,-17 14,-31 31,-31 17,0 31,14 31,31zm-71 -242l0 0 4 8 4 7 4 8 4 8 4 8 4 7 4 8 3 8 3 8 3 7 3 8 3 8 3 8 2 7 3 8 2 8 2 8 2 7 2 8 2 7 2 8 1 8 2 7 1 7 1 8 1 7 1 8 0 7 1 7 0 7 0 7 0 7 -62 0 0 -5 -1 -6 0 -6 0 -6 -1 -6 0 -6 -1 -7 -1 -6 -1 -6 -1 -7 -2 -6 -1 -7 -2 -7 -1 -6 -2 -7 -2 -7 -2 -6 -2 -7 -2 -7 -3 -7 -2 -7 -3 -7 -3 -6 -3 -7 -3 -7 -3 -7 -3 -7 -4 -7 -3 -7 -4 -7 -4 -7 -3 -7 0 0 54 -31zm0 0l-54 31c-9,-15 -4,-34 11,-43 15,-8 34,-3 43,12zm-175 -183l0 0 7 3 6 4 6 4 6 4 6 4 6 4 6 5 5 4 6 5 6 5 6 5 6 5 5 6 6 5 6 6 5 6 6 5 5 6 6 6 5 7 5 6 5 7 6 6 5 7 5 7 5 7 5 7 4 7 5 7 5 8 4 7 5 8 -54 31 -4 -7 -5 -6 -4 -7 -4 -7 -4 -6 -5 -6 -4 -7 -5 -6 -4 -6 -5 -6 -4 -5 -5 -6 -5 -5 -4 -6 -5 -5 -5 -5 -5 -5 -5 -5 -5 -5 -5 -4 -5 -5 -5 -4 -5 -5 -5 -4 -5 -4 -5 -3 -5 -4 -5 -4 -5 -3 -5 -3 -5 -3 -5 -3 0 0 31 -54zm0 0l-31 54c-15,-9 -20,-28 -11,-43 8,-15 28,-20 42,-11zm-194 -16l0 0 5 -3 6 -3 6 -3 5 -2 6 -2 6 -2 6 -1 6 -1 6 -1 6 -1 6 -1 7 0 6 0 6 0 6 0 6 1 7 1 6 1 6 1 6 1 7 2 6 2 6 2 6 2 6 2 7 2 6 3 6 3 6 3 6 3 6 3 6 4 -31 54 -5 -3 -5 -3 -5 -2 -4 -2 -5 -3 -5 -2 -5 -2 -5 -1 -4 -2 -5 -1 -5 -2 -4 -1 -4 -1 -5 -1 -4 0 -4 -1 -5 0 -4 0 -4 0 -4 0 -3 0 -4 0 -4 1 -3 0 -4 1 -3 1 -4 1 -3 1 -3 1 -4 2 -3 1 -3 2 0 0 -31 -54zm0 0l31 54c-15,8 -34,3 -43,-12 -8,-15 -3,-34 12,-42zm-83 176l0 0 0 -7 0 -7 0 -7 1 -7 0 -6 1 -7 1 -7 1 -6 2 -7 1 -6 2 -6 1 -6 2 -6 2 -6 3 -6 2 -6 3 -6 3 -5 3 -6 3 -5 3 -5 4 -5 3 -5 4 -5 4 -5 4 -4 5 -4 5 -4 4 -4 5 -4 6 -3 5 -3 31 54 -3 2 -3 2 -2 2 -3 2 -3 2 -2 2 -3 3 -2 3 -3 3 -2 3 -2 3 -2 3 -2 3 -2 4 -2 3 -2 4 -1 4 -2 4 -1 4 -2 5 -1 4 -1 5 -1 4 -1 5 -1 5 -1 5 0 6 -1 5 0 5 -1 6 0 5 0 6 0 0 -62 0zm0 0l62 0c0,17 -14,31 -31,31 -17,0 -31,-14 -31,-31zm71 243l0 0 -4 -8 -5 -8 -4 -8 -4 -7 -3 -8 -4 -8 -4 -8 -3 -7 -3 -8 -3 -8 -3 -8 -3 -7 -3 -8 -3 -8 -2 -8 -2 -7 -3 -8 -2 -8 -2 -7 -1 -8 -2 -8 -1 -7 -2 -8 -1 -7 -1 -7 -1 -8 -1 -7 0 -7 -1 -8 0 -7 0 -7 0 -7 62 0 0 6 0 6 1 6 0 6 1 6 0 6 1 6 1 7 1 6 1 6 1 7 2 6 1 7 2 7 2 6 2 7 2 7 2 7 2 6 3 7 2 7 3 7 3 7 2 7 4 7 3 7 3 7 3 7 4 7 4 6 3 7 4 7 0 0 -54 32zm0 0l54 -32c9,15 4,34 -11,43 -15,9 -34,4 -43,-11zm174 183l0 0 -6 -4 -6 -3 -6 -4 -6 -4 -6 -5 -6 -4 -6 -4 -6 -5 -5 -5 -6 -5 -6 -5 -6 -5 -5 -5 -6 -6 -6 -5 -5 -6 -6 -6 -5 -6 -6 -6 -5 -6 -5 -7 -6 -6 -5 -7 -5 -6 -5 -7 -5 -7 -5 -7 -4 -7 -5 -8 -5 -7 -4 -8 -5 -7 54 -32 4 7 4 7 5 7 4 6 4 7 5 6 4 6 4 6 5 6 5 6 4 6 5 5 5 6 4 5 5 6 5 5 5 5 5 5 5 4 5 5 5 4 5 5 5 4 5 4 5 4 5 4 5 4 5 3 5 3 5 4 5 3 5 3 0 0 -32 54zm0 0l32 -54c15,8 20,27 11,42 -9,15 -28,21 -43,12z"/>
      </g>
     </g>
    </g>
    <path class="fil2" d="M414 3726c59,34 118,42 163,16 45,-26 68,-81 68,-150 0,-68 -23,-149 -68,-226 -45,-78 -104,-138 -163,-172 -59,-34 -118,-42 -163,-16 -45,26 -68,81 -68,149 0,68 23,149 68,227 45,78 104,138 163,172z"/>
    <path class="fil1" d="M429 3699c26,15 52,24 76,27 21,2 40,-2 56,-11 17,-9 29,-24 38,-43 10,-22 14,-49 14,-80 0,-31 -5,-66 -16,-103 -10,-35 -26,-72 -47,-108l-1 -2c-20,-35 -44,-66 -69,-93 -26,-27 -54,-49 -81,-65 -26,-15 -52,-25 -76,-27 -21,-2 -40,1 -56,11 -16,9 -29,24 -37,43 -10,22 -15,49 -15,79 0,32 5,67 16,103 10,36 26,72 47,108l1 2c20,35 44,67 69,93 26,28 54,50 81,66zm70 89c-33,-4 -67,-16 -101,-35 -33,-19 -65,-45 -95,-77 -28,-30 -55,-65 -78,-105 0,0 -1,-1 -1,-1 -23,-41 -41,-82 -53,-122 -13,-42 -19,-83 -19,-121 0,-39 7,-75 21,-105 13,-30 35,-55 63,-71 28,-17 60,-22 93,-19 33,3 67,15 101,35 33,19 65,45 95,76 29,30 55,65 78,105 1,1 1,1 1,2 24,40 41,82 53,122 13,42 19,83 19,120 0,40 -7,75 -20,105 -14,31 -35,56 -64,72 -28,16 -59,22 -93,19z"/>
    <path class="fil0" d="M1644 4436c59,34 118,42 163,16 45,-26 68,-81 68,-149 0,-68 -23,-149 -68,-227 -45,-78 -104,-138 -163,-172 -59,-34 -118,-42 -163,-16 -45,26 -68,81 -68,149 0,68 23,149 68,227 45,78 104,138 163,172z"/>
    <g style="clip-path:url(#id2)">
     <g>
      <g>
       <path id="1" class="fil1" d="M1957 4376l0 0 -5 3 -6 3 -5 3 -6 2 -6 2 -6 2 -6 1 -6 1 -6 1 -6 1 -6 1 -6 0 -6 0 -7 0 -6 -1 -6 0 -6 -1 -7 -1 -6 -1 -6 -1 -6 -2 -6 -2 -7 -2 -6 -2 -6 -2 -6 -2 -6 -3 -7 -3 -6 -3 -6 -3 -6 -3 -6 -4 31 -54 5 3 5 2 5 3 5 2 5 3 4 2 5 1 5 2 5 2 4 1 5 1 4 2 5 1 4 0 4 1 5 1 4 0 4 0 4 0 4 0 4 0 3 0 4 -1 4 0 3 -1 4 -1 3 -1 3 -1 4 -1 3 -2 3 -1 3 -2 0 0 31 54zm0 0l-31 -54c15,-9 34,-3 43,12 9,15 3,34 -12,42zm84 -176l0 0 0 7 0 7 -1 7 0 6 -1 7 -1 7 -1 6 -1 7 -1 6 -2 7 -1 6 -2 6 -2 6 -2 6 -2 6 -3 6 -2 6 -3 5 -3 6 -3 5 -4 5 -3 5 -4 5 -4 5 -4 4 -4 5 -5 4 -4 4 -5 4 -5 4 -5 3 -6 3 -31 -54 3 -2 3 -2 3 -2 3 -2 2 -2 3 -3 2 -2 3 -3 2 -3 2 -3 2 -3 2 -3 2 -3 2 -4 2 -4 2 -3 2 -4 1 -4 2 -5 1 -4 1 -4 1 -5 1 -5 1 -4 1 -5 1 -6 1 -5 0 -5 1 -5 0 -6 0 -6 0 -5 0 0 63 0zm0 0l-63 0c0,-17 14,-32 32,-32 17,0 31,15 31,32zm-72 -243l0 0 5 8 4 8 4 7 4 8 4 8 3 8 4 7 3 8 4 8 3 8 3 8 3 7 2 8 3 8 2 8 3 7 2 8 2 8 2 7 2 8 1 7 2 8 1 7 1 8 1 7 1 8 1 7 1 7 0 7 1 8 0 7 0 7 -63 0 0 -6 0 -6 0 -6 -1 -6 0 -6 -1 -6 -1 -6 -1 -7 -1 -6 -1 -7 -1 -6 -2 -7 -1 -6 -2 -7 -2 -6 -1 -7 -2 -7 -3 -7 -2 -7 -2 -6 -3 -7 -2 -7 -3 -7 -3 -7 -3 -7 -3 -7 -4 -7 -3 -7 -4 -7 -3 -7 -4 -7 -4 -6 0 0 54 -32zm0 0l-54 32c-9,-15 -4,-35 11,-43 15,-9 35,-4 43,11zm-174 -183l0 0 6 4 6 3 6 4 6 4 6 4 6 5 6 4 6 5 6 5 6 5 5 5 6 5 6 5 5 6 6 5 6 6 5 6 6 6 5 6 5 6 6 6 5 7 5 7 5 6 5 7 5 7 5 7 5 7 5 8 4 7 5 8 4 7 -54 32 -4 -7 -4 -7 -4 -7 -5 -6 -4 -7 -4 -6 -5 -6 -4 -6 -5 -6 -4 -6 -5 -6 -5 -5 -4 -6 -5 -5 -5 -6 -5 -5 -5 -5 -4 -5 -5 -4 -5 -5 -5 -5 -5 -4 -5 -4 -5 -4 -5 -4 -5 -4 -5 -4 -5 -3 -5 -4 -5 -3 -5 -3 -5 -3 0 0 31 -54zm0 0l-31 54c-15,-8 -20,-28 -12,-43 9,-15 28,-20 43,-11zm-195 -16l0 0 6 -3 5 -3 6 -2 6 -3 6 -2 6 -1 6 -2 6 -1 6 -1 6 -1 6 0 6 -1 6 0 6 0 7 1 6 0 6 1 6 1 7 1 6 2 6 1 6 2 6 2 7 2 6 2 6 3 6 2 6 3 7 3 6 3 6 4 6 3 -31 54 -5 -3 -5 -2 -5 -3 -5 -2 -5 -2 -5 -2 -4 -2 -5 -2 -5 -2 -4 -1 -5 -1 -5 -1 -4 -1 -4 -1 -5 -1 -4 0 -4 -1 -4 0 -4 0 -4 0 -4 0 -4 0 -3 1 -4 1 -4 0 -3 1 -3 1 -4 1 -3 2 -3 1 -3 1 -3 2 0 0 -32 -54zm0 0l32 54c-15,9 -34,4 -43,-11 -9,-15 -4,-34 11,-43zm-83 176l0 0 0 -7 0 -6 1 -7 0 -7 1 -7 1 -7 1 -6 1 -7 1 -6 1 -7 2 -6 2 -6 2 -6 2 -6 2 -6 3 -6 2 -5 3 -6 3 -5 3 -6 3 -5 4 -5 4 -5 4 -5 4 -4 4 -5 4 -4 5 -4 5 -4 5 -3 5 -4 5 -3 32 54 -3 2 -3 2 -3 2 -3 2 -2 2 -3 3 -2 2 -3 3 -2 3 -2 3 -3 3 -2 3 -2 4 -2 3 -1 4 -2 4 -2 4 -1 4 -2 4 -1 4 -1 5 -2 4 -1 5 -1 5 -1 5 0 5 -1 5 0 5 -1 6 0 5 0 6 0 5 0 0 -63 0zm0 0l63 0c0,18 -14,32 -32,32 -17,0 -31,-14 -31,-32zm72 243l0 0 -5 -8 -4 -7 -4 -8 -4 -8 -4 -8 -4 -7 -3 -8 -4 -8 -3 -8 -3 -8 -3 -7 -3 -8 -3 -8 -2 -8 -3 -7 -2 -8 -2 -8 -2 -7 -2 -8 -2 -8 -1 -7 -2 -8 -1 -7 -1 -8 -2 -7 0 -7 -1 -8 -1 -7 0 -7 -1 -7 0 -7 0 -8 63 0 0 6 0 6 0 6 1 6 0 6 1 6 1 7 0 6 1 6 2 7 1 6 1 7 2 6 1 7 2 7 2 6 2 7 2 7 3 7 2 7 3 7 2 6 3 7 3 7 3 7 3 7 3 7 4 7 3 7 4 7 4 7 4 7 0 0 -54 31zm0 0l54 -31c8,15 3,34 -12,42 -15,9 -34,4 -42,-11zm174 183l0 0 -6 -3 -6 -4 -6 -4 -6 -4 -6 -4 -6 -5 -6 -4 -6 -5 -6 -4 -6 -5 -6 -5 -5 -6 -6 -5 -6 -5 -5 -6 -6 -6 -5 -6 -6 -5 -5 -7 -6 -6 -5 -6 -5 -7 -5 -6 -5 -7 -5 -7 -5 -7 -5 -7 -5 -7 -5 -7 -4 -8 -5 -7 -4 -8 54 -31 4 7 4 6 4 7 4 6 5 7 4 6 4 6 5 7 4 6 5 5 5 6 4 6 5 5 5 6 5 5 4 5 5 5 5 5 5 5 5 4 5 5 5 4 5 4 5 4 5 4 5 4 5 4 5 3 5 4 5 3 5 3 5 3 0 0 -31 54zm0 0l31 -54c15,9 20,28 12,43 -9,15 -28,20 -43,11z"/>
      </g>
     </g>
    </g>
    <path class="fil2" d="M1644 4436c59,34 118,42 163,16 45,-26 68,-81 68,-149 0,-68 -23,-149 -68,-227 -45,-78 -104,-138 -163,-172 -59,-34 -118,-42 -163,-16 -45,26 -68,81 -68,149 0,68 23,149 68,227 45,78 104,138 163,172z"/>
    <path class="fil1" d="M1659 4409c26,15 52,24 76,27 21,2 40,-2 56,-11 16,-9 29,-24 38,-43 9,-22 14,-49 14,-79 0,-32 -5,-67 -16,-104 -10,-35 -26,-72 -47,-108l-1 -1c-20,-36 -44,-67 -69,-93 -26,-28 -54,-50 -81,-66 -26,-15 -52,-24 -76,-27 -21,-2 -40,1 -56,11 -16,9 -29,24 -37,43 -10,22 -15,49 -15,79 0,32 5,67 16,103 10,36 26,72 47,108l1 2c20,35 44,67 69,93 26,28 54,50 81,66zm70 89c-33,-3 -67,-15 -101,-35 -33,-19 -65,-45 -95,-77 -29,-29 -55,-65 -78,-105 -1,0 -1,-1 -1,-1 -24,-41 -41,-82 -53,-122 -13,-42 -19,-83 -19,-121 0,-39 7,-75 21,-105 13,-30 34,-55 63,-71 28,-16 59,-22 93,-19 33,3 67,15 101,35 33,19 65,45 95,76 29,30 55,66 78,105 1,1 1,1 1,2 24,40 41,82 53,122 13,42 19,83 19,121 0,39 -7,75 -20,104 -14,31 -35,56 -64,72 -28,16 -59,22 -93,19z"/>
    <path class="fil0" d="M3343 4577c-52,30 -104,49 -153,55l-25 44 -120 -69c-82,-48 -123,-149 -124,-273 0,-124 41,-271 123,-413 82,-142 190,-252 297,-314 108,-62 215,-76 298,-29l120 70 -25 43c19,46 28,100 28,160 0,124 -41,271 -123,413 -82,142 -189,251 -296,313z"/>
    <path class="fil1" d="M3358 4604c-28,16 -55,29 -82,39l-2 1c-22,7 -43,13 -64,17l-18 30c-9,15 -28,21 -42,12l-1 0 0 0 -120 -69 -1 -1c-46,-27 -80,-68 -103,-118 -23,-51 -35,-113 -35,-181 0,-66 11,-138 33,-213 21,-71 53,-144 94,-216 42,-72 90,-136 141,-189 53,-57 110,-102 168,-136 58,-33 117,-54 173,-60 56,-5 109,4 155,31l120 69c15,9 20,28 12,43l-1 2 -17 29c8,20 14,42 18,66 5,28 7,58 7,91 0,66 -11,138 -33,212 -21,72 -52,145 -94,217 -41,72 -89,135 -140,189 -53,56 -110,102 -168,135zm-104 -20c24,-8 49,-20 73,-34 52,-30 104,-72 154,-124 48,-50 92,-110 131,-177 39,-68 68,-136 88,-203 21,-69 31,-135 31,-195 0,-28 -2,-55 -7,-80 -4,-25 -11,-47 -19,-68l0 0c-4,-9 -3,-19 2,-27l9 -17 -93 -54c-34,-20 -75,-27 -118,-23 -47,5 -97,23 -148,53 -52,30 -105,72 -154,124 -48,50 -93,110 -132,177 -39,67 -68,136 -88,203 -20,69 -30,135 -30,195 0,59 9,112 29,155 18,39 43,70 77,90l2 1 93 53 9 -16c4,-8 13,-14 23,-16 22,-2 44,-8 67,-16l1 -1z"/>
    <path class="fil0" d="M3463 4647c-108,62 -216,76 -298,29 -82,-48 -123,-148 -123,-272 0,-124 40,-272 122,-414 82,-142 190,-251 297,-313 108,-62 215,-77 298,-29 82,47 123,148 123,272 0,124 -41,272 -123,413 -82,142 -189,252 -296,314z"/>
    <path class="fil1" d="M3478 4674c-58,33 -118,54 -174,60 -56,5 -108,-4 -155,-31 -46,-27 -81,-68 -104,-119 -23,-51 -35,-113 -35,-180 0,-67 11,-139 33,-213 22,-71 53,-145 94,-217 42,-71 90,-135 141,-189 53,-56 110,-102 168,-135 58,-34 117,-55 173,-60 56,-6 109,4 155,30l0 1 0 -1c47,27 81,68 105,119 23,51 34,113 34,181 0,66 -11,138 -33,213 -21,71 -52,144 -94,216 -41,72 -89,136 -140,189 -53,57 -110,102 -168,136zm-180 -2c47,-5 98,-23 149,-52 52,-30 104,-72 154,-125 48,-50 93,-110 131,-177 39,-67 69,-136 88,-203 21,-69 31,-135 31,-195 0,-59 -10,-112 -29,-155 -18,-39 -44,-71 -79,-90l0 -1c-34,-19 -74,-26 -118,-22 -47,4 -97,22 -148,52 -52,30 -105,72 -154,124 -48,51 -93,110 -132,178 -38,67 -68,136 -88,202 -20,69 -30,135 -30,196 0,58 10,111 29,154 18,40 44,71 79,91 34,20 74,27 117,23z"/>
    <path class="fil0" d="M3462 4515c-78,46 -157,56 -217,22 -60,-35 -90,-108 -90,-199 0,-90 30,-198 90,-301 60,-104 138,-184 216,-229 79,-45 157,-56 217,-21 60,34 90,108 90,198 0,91 -30,198 -89,302 -60,103 -138,183 -217,228z"/>
    <g style="clip-path:url(#id3)">
     <g>
      <g>
       <path id="1" class="fil0" d="M3374 4466c-78,45 -157,56 -217,21 -60,-34 -90,-108 -90,-198 0,-91 30,-198 90,-302 60,-103 138,-183 216,-228 79,-45 157,-56 217,-21 60,34 90,107 90,198 0,91 -30,198 -89,302 -60,103 -138,183 -217,228z"/>
       <path id="2" class="fil1" d="M3142 4514l31 -54 0 0 4 3 5 2 5 2 4 2 5 1 5 2 5 1 5 1 5 1 6 1 5 0 6 0 5 0 6 0 6 0 6 -1 5 0 7 -1 6 -1 6 -2 6 -1 6 -2 7 -2 6 -2 7 -3 6 -2 7 -3 7 -3 6 -3 7 -4 7 -3 7 -4 31 54 -8 4 -8 5 -8 4 -8 4 -8 3 -8 4 -8 3 -8 3 -8 2 -8 3 -8 2 -8 2 -8 2 -8 1 -8 2 -8 1 -8 0 -8 1 -7 0 -8 0 -8 0 -8 -1 -8 -1 -7 -1 -8 -2 -7 -2 -8 -2 -7 -2 -7 -3 -7 -3 -7 -4 -7 -4 0 0zm0 0c-15,-8 -20,-27 -12,-42 9,-15 28,-21 43,-12l-31 54zm-106 -225l63 0 0 0 0 7 0 8 0 8 1 7 1 7 1 7 1 7 1 7 1 7 2 7 1 6 2 6 2 6 2 6 2 6 3 5 2 6 3 5 2 5 3 5 3 4 3 5 3 4 4 4 3 4 4 4 4 3 3 3 4 4 4 3 5 2 4 3 -31 54 -7 -4 -6 -4 -7 -5 -6 -4 -6 -6 -5 -5 -6 -6 -5 -5 -5 -6 -4 -6 -5 -7 -4 -6 -4 -7 -4 -7 -3 -7 -4 -7 -3 -8 -3 -7 -2 -8 -3 -8 -2 -8 -2 -8 -2 -8 -2 -8 -1 -9 -2 -8 -1 -9 0 -8 -1 -9 -1 -9 0 -9 0 -9 0 0zm0 0c0,-18 14,-32 31,-32 18,0 32,14 32,32l-63 0zm94 -317l54 31 0 0 -5 9 -5 9 -5 10 -5 9 -5 10 -4 9 -4 9 -5 10 -3 9 -4 9 -4 10 -3 9 -3 9 -4 9 -2 9 -3 10 -3 9 -2 9 -2 9 -3 9 -1 9 -2 8 -2 9 -1 9 -1 8 -1 9 -1 8 -1 9 -1 8 0 8 0 8 0 8 -63 0 0 -9 0 -10 1 -9 1 -9 0 -10 1 -9 2 -10 1 -10 2 -9 1 -10 2 -10 2 -10 3 -10 2 -10 3 -10 3 -10 3 -10 3 -10 3 -10 4 -10 4 -11 4 -10 4 -10 4 -10 4 -10 5 -11 5 -10 5 -10 5 -10 5 -10 6 -10 6 -10 0 0zm0 0c8,-15 28,-21 43,-12 15,9 20,28 11,43l-54 -31zm228 -240l31 54 0 0 -7 4 -7 4 -7 5 -6 4 -7 5 -7 5 -7 5 -7 6 -6 5 -7 6 -7 6 -7 6 -6 6 -7 6 -7 7 -6 7 -7 7 -6 7 -7 7 -6 8 -6 7 -7 8 -6 8 -6 8 -6 8 -6 9 -6 8 -6 9 -5 9 -6 9 -6 9 -5 9 -54 -31 6 -10 6 -10 6 -10 6 -10 6 -9 7 -9 6 -10 7 -8 6 -9 7 -9 7 -8 7 -9 7 -8 7 -8 7 -8 7 -7 8 -8 7 -7 7 -7 8 -7 7 -7 8 -7 8 -6 7 -6 8 -6 8 -6 7 -6 8 -5 8 -6 8 -5 8 -5 8 -4 0 0zm0 0c15,-9 34,-4 42,11 9,15 4,34 -11,43l-31 -54zm248 -22l-31 55 0 0 -5 -3 -5 -2 -4 -2 -5 -2 -5 -2 -5 -1 -5 -1 -5 -1 -5 -1 -5 -1 -6 0 -5 -1 -6 0 -5 0 -6 1 -6 0 -6 1 -6 1 -6 1 -6 2 -7 1 -6 2 -6 2 -7 2 -6 2 -7 3 -6 3 -7 3 -7 3 -7 4 -6 3 -7 4 -31 -54 7 -5 8 -4 8 -4 8 -4 8 -3 8 -4 8 -3 8 -3 8 -3 8 -2 8 -2 8 -2 8 -2 8 -2 8 -1 8 -1 8 -1 8 0 8 0 8 0 8 0 7 1 8 1 8 1 7 2 8 2 7 2 8 2 7 3 7 3 7 4 7 3 0 0zm0 0c15,9 20,28 11,43 -8,15 -27,20 -42,12l31 -55zm106 226l-63 0 0 0 0 -8 0 -7 -1 -8 0 -7 -1 -8 -1 -7 -1 -7 -1 -7 -2 -6 -1 -7 -2 -6 -1 -6 -2 -6 -2 -6 -3 -6 -2 -6 -2 -5 -3 -5 -3 -5 -3 -5 -3 -4 -3 -5 -3 -4 -3 -4 -4 -4 -3 -4 -4 -3 -4 -4 -4 -3 -4 -3 -4 -3 -4 -2 31 -55 7 4 6 5 6 4 6 5 6 5 6 6 5 5 5 6 5 6 5 6 4 7 5 6 4 7 3 7 4 7 3 7 3 8 3 7 3 8 2 8 3 7 2 9 2 8 1 8 2 8 1 9 1 9 1 8 1 9 0 9 0 9 1 9 0 0zm0 0c0,17 -15,31 -32,31 -17,0 -31,-14 -31,-31l63 0zm-94 317l-54 -31 0 0 5 -9 5 -10 5 -9 5 -9 4 -10 5 -9 4 -9 4 -10 4 -9 4 -9 3 -10 4 -9 3 -9 3 -9 3 -10 3 -9 2 -9 3 -9 2 -9 2 -9 2 -9 2 -9 1 -8 2 -9 1 -8 1 -9 1 -8 1 -9 0 -8 1 -8 0 -8 0 -8 63 0 -1 9 0 9 0 10 -1 9 -1 10 -1 9 -1 10 -1 10 -2 9 -2 10 -2 10 -2 10 -2 10 -3 10 -2 10 -3 10 -3 10 -3 10 -4 10 -3 10 -4 10 -4 11 -4 10 -4 10 -5 10 -4 10 -5 11 -5 10 -6 10 -5 10 -5 10 -6 10 0 0zm0 0c-9,15 -28,20 -43,12 -15,-9 -20,-28 -11,-43l54 31zm-228 240l-31 -54 0 0 6 -4 7 -4 7 -5 7 -4 7 -5 7 -5 6 -5 7 -6 7 -5 7 -6 7 -6 6 -6 7 -6 7 -7 6 -6 7 -7 6 -7 7 -7 6 -7 7 -8 6 -7 6 -8 6 -8 7 -8 6 -8 6 -9 5 -8 6 -9 6 -9 6 -9 5 -9 6 -9 54 31 -6 10 -6 10 -6 10 -6 9 -7 10 -6 9 -7 9 -6 9 -7 9 -7 9 -7 8 -6 9 -7 8 -8 8 -7 8 -7 7 -7 8 -8 7 -7 7 -7 7 -8 7 -7 7 -8 6 -8 6 -7 6 -8 6 -8 6 -8 5 -7 5 -8 5 -8 5 -8 5 0 0zm0 0c-15,9 -34,4 -43,-11 -8,-15 -3,-35 12,-43l31 54z"/>
      </g>
     </g>
    </g>
    <path class="fil2" d="M3462 4515c-78,46 -157,56 -217,22 -60,-35 -90,-108 -90,-199 0,-90 30,-198 90,-301 60,-104 138,-184 216,-229 79,-45 157,-56 217,-21 60,34 90,108 90,198 0,91 -30,198 -89,302 -60,103 -138,183 -217,228z"/>
    <path class="fil1" d="M3478 4542c-44,26 -88,41 -130,45 -43,4 -83,-3 -118,-23 -1,-1 -1,-1 -2,-1 -34,-21 -60,-52 -78,-90 -17,-38 -26,-84 -26,-135 0,-49 8,-103 25,-158 15,-52 38,-106 69,-159 31,-53 66,-100 103,-140 40,-41 82,-75 125,-100 44,-25 88,-41 130,-45 42,-4 83,3 118,24 35,20 62,51 79,90 18,39 26,85 26,135 1,50 -8,103 -24,158 -16,52 -39,106 -69,159 -31,54 -66,101 -104,140 -39,42 -81,76 -124,100zm-136 -17c33,-3 69,-16 105,-37 37,-21 75,-51 110,-89 35,-36 67,-79 95,-128 28,-48 49,-98 63,-146 15,-49 22,-97 22,-140 0,-41 -7,-79 -21,-109 -12,-27 -30,-49 -53,-62 -24,-14 -51,-19 -81,-16 -33,4 -69,16 -105,37 -37,22 -75,52 -110,89 -35,37 -67,80 -95,128 -28,48 -49,98 -63,146 -15,49 -22,97 -22,140 0,42 7,79 20,109 12,27 30,48 53,62l1 1c24,13 51,18 81,15z"/>
    <polygon class="fil3" points="645,3956 645,3956 798,3157 1413,3512 1260,4311 1260,4311 "/>
    <polygon class="fil3" points="4190,2911 4181,2979 4488,2802 4488,2739 "/>
    <polygon class="fil3" points="5112,2378 5103,2447 5411,2269 5411,2206 "/>
    <polygon class="fil3" points="1077,3318 777,3145 1849,2521 2160,2700 "/>
    <polygon class="fil3" points="1442,3529 1143,3356 2215,2732 2525,2911 "/>
    <polygon class="fil3" points="5224,924 4924,751 5537,389 5847,569 "/>
    <polygon class="fil3" points="5589,1135 5289,962 5902,600 6213,780 "/>
    <polygon class="fil1" points="4611,2350 4611,1640 4673,1640 4673,2350 "/>
   </g>
   <path class="fil4" d="M1790 6624l-246 0 -56 153 -48 0 205 -542 44 0 205 542 -48 0 -56 -153zm-232 -38l218 0 -109 -295 -109 295z"/>
   <path id="1" class="fil4" d="M2340 6235l0 370c0,37 -8,68 -24,95 -16,28 -38,48 -67,63 -29,14 -62,22 -100,22 -57,0 -102,-16 -137,-47 -34,-31 -52,-75 -53,-130l0 -373 45 0 0 367c0,45 13,81 39,106 26,25 62,38 106,38 45,0 80,-13 106,-38 26,-26 39,-61 39,-106l0 -367 46 0z"/>
   <polygon id="2" class="fil4" points="2836,6274 2650,6274 2650,6777 2604,6777 2604,6274 2419,6274 2419,6235 2836,6235 "/>
   <path id="3" class="fil4" d="M3313 6535c0,50 -8,94 -26,132 -17,38 -41,67 -73,87 -32,20 -69,31 -111,31 -64,0 -115,-23 -154,-68 -39,-46 -58,-107 -58,-184l0 -56c0,-49 9,-93 26,-131 18,-38 42,-67 74,-88 32,-20 69,-31 111,-31 42,0 78,10 110,30 32,21 57,49 74,86 18,37 27,79 27,128l0 64zm-45 -58c0,-66 -15,-117 -45,-154 -29,-37 -70,-55 -121,-55 -50,0 -91,18 -121,55 -29,38 -44,89 -44,156l0 57c0,64 15,115 44,153 30,37 71,56 122,56 52,0 92,-19 121,-56 29,-37 44,-89 44,-155l0 -57z"/>
   <polygon id="4" class="fil4" points="3913,6517 3660,6517 3660,6738 3951,6738 3951,6777 3614,6777 3614,6235 3949,6235 3949,6274 3660,6274 3660,6478 3913,6478 "/>
   <polygon id="5" class="fil4" points="4213,6464 4365,6235 4420,6235 4240,6502 4425,6777 4370,6777 4213,6540 4054,6777 4000,6777 4185,6502 4005,6235 4060,6235 "/>
   <path id="6" class="fil4" d="M4560 6557l0 220 -46 0 0 -542 185 0c56,0 101,14 133,43 33,29 49,69 49,119 0,51 -16,90 -47,118 -31,28 -77,42 -136,42l-138 0zm0 -39l139 0c44,0 78,-11 101,-32 24,-21 35,-51 35,-88 0,-38 -11,-68 -34,-90 -24,-22 -57,-34 -99,-34l-142 0 0 244z"/>
   <path id="7" class="fil4" d="M5384 6535c0,50 -9,94 -26,132 -17,38 -42,67 -74,87 -32,20 -69,31 -111,31 -63,0 -114,-23 -153,-68 -39,-46 -59,-107 -59,-184l0 -56c0,-49 9,-93 27,-131 17,-38 42,-67 74,-88 32,-20 69,-31 110,-31 42,0 79,10 111,30 32,21 56,49 74,86 17,37 26,79 27,128l0 64zm-46 -58c0,-66 -15,-117 -44,-154 -30,-37 -70,-55 -122,-55 -50,0 -90,18 -120,55 -30,38 -45,89 -45,156l0 57c0,64 15,115 45,153 30,37 70,56 121,56 52,0 93,-19 122,-56 29,-37 43,-89 43,-155l0 -57z"/>
  </g>
 </g>
</svg>
