<?xml version="1.0" encoding="UTF-8"?>
<!DOCTYPE svg PUBLIC "-//W3C//DTD SVG 1.1//EN" "http://www.w3.org/Graphics/SVG/1.1/DTD/svg11.dtd">
<!-- Creator: CorelDRAW X7 -->
<svg xmlns="http://www.w3.org/2000/svg" xml:space="preserve" width="31.8346mm" height="67.7332mm" version="1.1" style="shape-rendering:geometricPrecision; text-rendering:geometricPrecision; image-rendering:optimizeQuality; fill-rule:evenodd; clip-rule:evenodd"
viewBox="0 0 3183 6773"
 xmlns:xlink="http://www.w3.org/1999/xlink">
 <defs>
  <style type="text/css">
   <![CDATA[
    .fil3 {fill:none;fill-rule:nonzero}
    .fil0 {fill:#61003F;fill-rule:nonzero}
    .fil1 {fill:#61003F;fill-rule:nonzero}
    .fil2 {fill:#8A2B69;fill-rule:nonzero}
    .fil4 {fill:#DFC4CD;fill-rule:nonzero}
    .fil5 {fill:#F6E7E6;fill-rule:nonzero}
   ]]>
  </style>
     <clipPath id="id0" style="clip-rule:nonzero">
      <path d="M-2 2071c0,-663 135,-1173 407,-1532 271,-360 654,-539 1149,-539 124,0 242,11 352,34 -516,335 -870,1023 -870,1817l0 0 0 1c0,412 -11,820 -11,1233 0,337 41,588 125,755 83,166 215,249 396,249 168,0 291,-69 372,-208 -138,421 -397,776 -728,1010 -324,-66 -586,-227 -787,-484 -270,-345 -405,-832 -405,-1463 0,-291 0,-582 0,-873z"/>
     </clipPath>
     <clipPath id="id1" style="clip-rule:nonzero">
      <path d="M3185 2967c0,663 -142,1173 -427,1533 -285,359 -687,538 -1208,538 -131,0 -254,-11 -369,-34 542,-334 914,-1022 914,-1817l0 0 0 0c0,-413 8,-821 8,-1234 0,-337 -44,-588 -132,-755 -88,-165 -227,-249 -418,-249 -177,0 -307,69 -392,208 145,-421 418,-776 768,-1010 341,66 617,227 830,484 284,346 426,833 426,1464 0,290 0,581 0,872z"/>
     </clipPath>
 </defs>
 <g id="Layer_x0020_1">
  <metadata id="CorelCorpID_0Corel-Layer"/>
  <g id="_1890938925968">
   <path class="fil0" d="M53 6554l0 219 -46 0 0 -540 184 0c57,0 101,15 133,43 33,29 49,69 49,119 0,51 -16,90 -47,117 -31,28 -76,42 -136,42l-137 0zm0 -39l138 0c45,0 78,-10 102,-32 23,-21 34,-50 34,-87 0,-38 -11,-68 -34,-90 -23,-22 -56,-33 -99,-34l-141 0 0 243z"/>
   <path id="1" class="fil0" d="M715 6621l-245 0 -55 152 -48 0 204 -540 43 0 205 540 -48 0 -56 -152zm-231 -38l217 0 -108 -294 -109 294z"/>
   <path id="2" class="fil0" d="M1100 6549l-157 0 0 224 -46 0 0 -540 175 0c58,0 103,14 135,42 33,28 49,67 49,117 0,35 -10,66 -30,92 -21,26 -48,45 -82,55l135 230 0 4 -49 0 -130 -224zm-157 -39l140 0c38,0 69,-11 92,-33 23,-22 35,-50 35,-85 0,-38 -12,-67 -36,-88 -25,-21 -59,-32 -102,-32l-129 0 0 238z"/>
   <polygon id="3" class="fil0" points="1536,6707 1539,6718 1542,6707 1712,6233 1762,6233 1561,6773 1517,6773 1316,6233 1366,6233 "/>
   <path id="4" class="fil0" d="M2105 6621l-245 0 -56 152 -47 0 204 -540 43 0 205 540 -48 0 -56 -152zm-231 -38l217 0 -109 -294 -108 294z"/>
   <path id="5" class="fil0" d="M2579 6621l-245 0 -55 152 -48 0 204 -540 43 0 205 540 -48 0 -56 -152zm-231 -38l217 0 -108 -294 -109 294z"/>
   <polygon id="6" class="fil0" points="3162,6773 3116,6773 3116,6514 2808,6514 2808,6773 2762,6773 2762,6233 2808,6233 2808,6476 3116,6476 3116,6233 3162,6233 "/>
   <g>
    <path class="fil1" d="M-2 2071c0,-663 135,-1173 407,-1532 271,-360 654,-539 1149,-539 124,0 242,11 352,34 -516,335 -870,1023 -870,1817l0 0 0 1c0,412 -11,820 -11,1233 0,337 41,588 125,755 83,166 215,249 396,249 168,0 291,-69 372,-208 -138,421 -397,776 -728,1010 -324,-66 -586,-227 -787,-484 -270,-345 -405,-832 -405,-1463 0,-291 0,-582 0,-873z"/>
    <g style="clip-path:url(#id0)">
     <g>
      <path id="1" class="fil2" d="M-128 2215c0,-734 135,-1299 407,-1697 271,-398 654,-597 1149,-597 125,0 242,13 352,38 -516,371 -870,1132 -870,2012l0 1 0 0c0,456 -11,909 -11,1366 0,373 41,651 125,836 83,183 215,276 396,276 168,0 291,-77 372,-230 -138,466 -397,858 -728,1118 -324,-73 -586,-251 -787,-536 -270,-383 -405,-922 -405,-1621 0,-322 0,-644 0,-966z"/>
     </g>
    </g>
    <path class="fil3" d="M-2 2071c0,-663 135,-1173 407,-1532 271,-360 654,-539 1149,-539 124,0 242,11 352,34 -516,335 -870,1023 -870,1817l0 0 0 1c0,412 -11,820 -11,1233 0,337 41,588 125,755 83,166 215,249 396,249 168,0 291,-69 372,-208 -138,421 -397,776 -728,1010 -324,-66 -586,-227 -787,-484 -270,-345 -405,-832 -405,-1463 0,-291 0,-582 0,-873z"/>
    <path class="fil4" d="M3185 2967c0,663 -142,1173 -427,1533 -285,359 -687,538 -1208,538 -131,0 -254,-11 -369,-34 542,-334 914,-1022 914,-1817l0 0 0 0c0,-413 8,-821 8,-1234 0,-337 -44,-588 -132,-755 -88,-165 -227,-249 -418,-249 -177,0 -307,69 -392,208 145,-421 418,-776 768,-1010 341,66 617,227 830,484 284,346 426,833 426,1464 0,290 0,581 0,872z"/>
    <g style="clip-path:url(#id1)">
     <g>
      <path id="1" class="fil5" d="M3582 2934c0,679 -170,1202 -513,1571 -343,368 -826,552 -1452,552 -157,0 -305,-12 -444,-35 652,-343 1099,-1048 1099,-1862l0 -1 0 0c0,-423 9,-841 9,-1264 0,-346 -53,-603 -158,-774 -106,-170 -273,-255 -502,-255 -213,0 -370,70 -472,213 175,-432 503,-795 923,-1035 410,67 742,232 997,496 342,354 513,853 513,1500 0,298 0,596 0,894z"/>
     </g>
    </g>
    <path class="fil3" d="M3185 2967c0,663 -142,1173 -427,1533 -285,359 -687,538 -1208,538 -131,0 -254,-11 -369,-34 542,-334 914,-1022 914,-1817l0 0 0 0c0,-413 8,-821 8,-1234 0,-337 -44,-588 -132,-755 -88,-165 -227,-249 -418,-249 -177,0 -307,69 -392,208 145,-421 418,-776 768,-1010 341,66 617,227 830,484 284,346 426,833 426,1464 0,290 0,581 0,872z"/>
   </g>
  </g>
 </g>
</svg>
