<?xml version="1.0" encoding="UTF-8"?>
<!DOCTYPE svg PUBLIC "-//W3C//DTD SVG 1.1//EN" "http://www.w3.org/Graphics/SVG/1.1/DTD/svg11.dtd">
<!-- Creator: CorelDRAW X7 -->
<svg xmlns="http://www.w3.org/2000/svg" xml:space="preserve" width="62.6532mm" height="67.7332mm" version="1.1" style="shape-rendering:geometricPrecision; text-rendering:geometricPrecision; image-rendering:optimizeQuality; fill-rule:evenodd; clip-rule:evenodd"
viewBox="0 0 6265 6773"
 xmlns:xlink="http://www.w3.org/1999/xlink">
 <defs>
  <style type="text/css">
   <![CDATA[
    .str4 {stroke:#61003F;stroke-width:26.03;stroke-linecap:round;stroke-linejoin:round}
    .str3 {stroke:#61003F;stroke-width:26.03;stroke-linecap:round;stroke-linejoin:round}
    .str2 {stroke:#61003F;stroke-width:26.03;stroke-linecap:round;stroke-linejoin:round}
    .str0 {stroke:#F5E4E3;stroke-width:20.34;stroke-linecap:round;stroke-linejoin:round}
    .str1 {stroke:#F5E4E3;stroke-width:20.34;stroke-linecap:round;stroke-linejoin:round}
    .fil3 {fill:none}
    .fil0 {fill:#61003F}
    .fil1 {fill:#FFF4F0}
    .fil2 {fill:#61003F;fill-rule:nonzero}
    .fil4 {fill:#61003F;fill-rule:nonzero}
   ]]>
  </style>
    <clipPath id="id0">
     <path d="M3520 1989l-1262 728 0 -1709c8,-124 52,-265 130,-401 79,-136 179,-244 282,-312l436 -252c103,-51 204,-59 283,-13l488 281 -28 412 -329 -238 0 1504zm-850 -1694l0 0 0 0z"/>
    </clipPath>
    <clipPath id="id1">
     <path d="M2258 1008l0 1709 488 281 0 -1709 -488 -281z"/>
    </clipPath>
    <clipPath id="id2">
     <path d="M4007 2270l-1261 728 0 -1709c8,-123 51,-264 129,-400 79,-136 179,-244 282,-313l437 -252c103,-50 204,-58 283,-13 79,46 122,137 130,252l0 1707zm-850 -1694l0 0 0 0z"/>
    </clipPath>
 </defs>
 <g id="Layer_x0020_1">
  <metadata id="CorelCorpID_0Corel-Layer"/>
  <g id="_1891000285968">
   <path class="fil0" d="M3265 2824c0,-23 17,-42 38,-42 21,0 38,19 38,42l0 1800c0,54 -15,99 -47,125l0 1c-22,17 -47,24 -74,23 -1,0 -2,0 -3,0l0 0c-10,-1 -20,-3 -31,-6l0 0 0 0c-18,-5 -35,-12 -53,-22 -53,-31 -106,-85 -147,-156 -41,-70 -61,-143 -61,-205l79 0c0,221 261,443 261,240l0 -1800z"/>
   <path class="fil0" d="M2925 3667c0,-13 18,-23 40,-23 22,0 39,10 39,23l0 717c0,13 -17,23 -39,23 -22,0 -40,-10 -40,-23l0 -717z"/>
   <path class="fil0" d="M2665 4996c0,24 -17,42 -39,42 -21,0 -38,-18 -38,-42l0 -1569c0,-54 16,-99 48,-125l0 0c22,-18 47,-25 73,-24 1,0 2,0 4,1l0 -1c10,1 20,3 31,6l0 0 0 0c17,5 35,12 53,23 53,30 106,84 147,155 40,70 61,143 61,205l-80 0c0,-221 -260,-443 -260,-240l0 1569z"/>
   <path class="fil0" d="M3005 4054c0,13 -18,23 -40,23 -22,0 -40,-10 -40,-23l0 -387c0,-13 18,-23 40,-23 22,0 40,10 40,23l0 387z"/>
   <polygon class="fil0 str0" points="2703,2798 2703,3129 2990,3295 2990,2797 "/>
   <polygon class="fil0 str1" points="3733,2360 3733,2866 2990,3295 2990,2797 "/>
   <path class="fil1" d="M3520 1989l-1262 728 0 -1709c8,-124 52,-265 130,-401 79,-136 179,-244 282,-312l436 -252c103,-51 204,-59 283,-13l488 281 -28 412 -329 -238 0 1504zm-850 -1694l0 0 0 0z"/>
   <g style="clip-path:url(#id0)">
    <g>
     <path id="1" class="fil2" d="M3924 2283c1,1 2,3 1,4 -1,1 -2,2 -4,1l-2756 -1364c-2,-1 -2,-2 -2,-4 1,-1 3,-2 4,-1l2757 1364z"/>
     <path class="fil2" d="M902 2089c-1,1 -3,0 -3,-2 -1,-1 0,-2 2,-3l4332 -1364c1,-1 3,0 3,2 0,1 0,2 -2,3l-4332 1364z"/>
     <path class="fil2" d="M902 4298c-1,1 -3,0 -3,-2 -1,-1 0,-2 2,-3l4332 -1364c1,0 3,0 3,2 0,1 0,3 -2,3l-4332 1364z"/>
     <path class="fil2" d="M902 4206c-1,1 -3,0 -3,-2 -1,-1 0,-2 2,-3l4332 -1364c1,-1 3,0 3,2 0,1 0,2 -2,3l-4332 1364z"/>
     <path class="fil2" d="M902 4114c-1,1 -3,0 -3,-2 -1,-1 0,-2 2,-3l4332 -1364c1,-1 3,0 3,2 0,1 0,2 -2,3l-4332 1364z"/>
     <path class="fil2" d="M902 4022c-1,1 -3,0 -3,-2 -1,-1 0,-3 2,-3l4332 -1364c1,-1 3,0 3,2 0,1 0,2 -2,3l-4332 1364z"/>
     <path class="fil2" d="M902 3930c-1,0 -3,0 -3,-2 -1,-1 0,-3 2,-3l4332 -1364c1,-1 3,0 3,1 0,2 0,3 -2,4l-4332 1364z"/>
     <path class="fil2" d="M902 3838c-1,0 -3,0 -3,-2 -1,-1 0,-3 2,-3l4332 -1364c1,-1 3,0 3,1 0,2 0,3 -2,4l-4332 1364z"/>
     <path class="fil2" d="M902 3746c-1,0 -3,0 -3,-2 -1,-1 0,-3 2,-3l4332 -1364c1,-1 3,0 3,1 0,2 0,3 -2,4l-4332 1364z"/>
     <path class="fil2" d="M902 3654c-1,0 -3,0 -3,-2 -1,-1 0,-3 2,-3l4332 -1364c1,-1 3,0 3,1 0,2 0,3 -2,4l-4332 1364z"/>
     <path class="fil2" d="M902 3562c-1,0 -3,0 -3,-2 -1,-1 0,-3 2,-3l4332 -1364c1,-1 3,0 3,1 0,2 0,3 -2,4l-4332 1364z"/>
     <path class="fil2" d="M902 3470c-1,0 -3,-1 -3,-2 -1,-1 0,-3 2,-3l4332 -1364c1,-1 3,0 3,1 0,2 0,3 -2,4l-4332 1364z"/>
     <path class="fil2" d="M902 3378c-1,0 -3,-1 -3,-2 -1,-1 0,-3 2,-3l4332 -1365c1,0 3,1 3,2 0,2 0,3 -2,3l-4332 1365z"/>
     <path class="fil2" d="M902 3286c-1,0 -3,-1 -3,-2 -1,-1 0,-3 2,-3l4332 -1365c1,0 3,1 3,2 0,2 0,3 -2,3l-4332 1365z"/>
     <path class="fil2" d="M902 3194c-1,0 -3,-1 -3,-2 -1,-1 0,-3 2,-3l4332 -1365c1,0 3,1 3,2 0,1 0,3 -2,3l-4332 1365z"/>
     <path class="fil2" d="M902 3102c-1,0 -3,-1 -3,-2 -1,-1 0,-3 2,-3l4332 -1365c1,0 3,1 3,2 0,1 0,3 -2,3l-4332 1365z"/>
     <path class="fil2" d="M902 3010c-1,0 -3,-1 -3,-2 -1,-2 0,-3 2,-3l4332 -1365c1,0 3,1 3,2 0,1 0,3 -2,3l-4332 1365z"/>
     <path class="fil2" d="M902 2918c-1,0 -3,-1 -3,-2 -1,-2 0,-3 2,-3l4332 -1365c1,0 3,1 3,2 0,1 0,3 -2,3l-4332 1365z"/>
     <path class="fil2" d="M902 2825c-1,1 -3,0 -3,-1 -1,-2 0,-3 2,-4l4332 -1364c1,0 3,1 3,2 0,1 0,3 -2,3l-4332 1364z"/>
     <path class="fil2" d="M902 2733c-1,1 -3,0 -3,-1 -1,-2 0,-3 2,-4l4332 -1364c1,0 3,0 3,2 0,1 0,3 -2,3l-4332 1364z"/>
     <path class="fil2" d="M902 2641c-1,1 -3,0 -3,-1 -1,-2 0,-3 2,-4l4332 -1364c1,0 3,0 3,2 0,1 0,3 -2,3l-4332 1364z"/>
     <path class="fil2" d="M902 2549c-1,1 -3,0 -3,-1 -1,-2 0,-3 2,-4l4332 -1364c1,0 3,0 3,2 0,1 0,3 -2,3l-4332 1364z"/>
     <path class="fil2" d="M902 2457c-1,1 -3,0 -3,-1 -1,-2 0,-3 2,-4l4332 -1364c1,0 3,0 3,2 0,1 0,3 -2,3l-4332 1364z"/>
     <path class="fil2" d="M902 2365c-1,1 -3,0 -3,-1 -1,-2 0,-3 2,-4l4332 -1364c1,0 3,0 3,2 0,1 0,3 -2,3l-4332 1364z"/>
     <path class="fil2" d="M902 2273c-1,1 -3,0 -3,-2 -1,-1 0,-2 2,-3l4332 -1364c1,-1 3,0 3,2 0,1 0,3 -2,3l-4332 1364z"/>
     <path class="fil2" d="M902 2181c-1,1 -3,0 -3,-2 -1,-1 0,-2 2,-3l4332 -1364c1,-1 3,0 3,2 0,1 0,2 -2,3l-4332 1364z"/>
     <path class="fil2" d="M902 4390c-1,1 -3,0 -3,-1 -1,-2 0,-3 2,-4l4332 -1364c1,0 3,0 3,2 0,1 0,3 -2,3l-4332 1364z"/>
     <path class="fil2" d="M3924 2176c1,1 2,3 1,4 -1,1 -2,2 -4,1l-2756 -1364c-2,-1 -2,-2 -2,-4 1,-1 3,-2 4,-1l2757 1364z"/>
     <path class="fil2" d="M3924 2069c1,1 2,2 1,4 -1,1 -2,2 -4,1l-2756 -1364c-2,-1 -2,-3 -2,-4 1,-1 3,-2 4,-1l2757 1364z"/>
     <path class="fil2" d="M3924 1962c1,1 2,2 1,4 -1,1 -2,1 -4,1l-2756 -1364c-2,-1 -2,-3 -2,-4 1,-1 3,-2 4,-1l2757 1364z"/>
     <path class="fil2" d="M3924 1748c1,1 2,2 1,3 -1,2 -2,2 -4,2l-2756 -1365c-2,0 -2,-2 -2,-3 1,-1 3,-2 4,-1l2757 1364z"/>
     <path class="fil2" d="M3924 1641c1,0 2,2 1,3 -1,2 -2,2 -4,1l-2756 -1364c-2,0 -2,-2 -2,-3 1,-2 3,-2 4,-1l2757 1364z"/>
     <path class="fil2" d="M3924 1534c1,0 2,2 1,3 -1,1 -2,2 -4,1l-2756 -1364c-2,-1 -2,-2 -2,-3 1,-2 3,-2 4,-2l2757 1365z"/>
     <path class="fil2" d="M3924 1427c1,0 2,2 1,3 -1,1 -2,2 -4,1l-2756 -1364c-2,-1 -2,-2 -2,-3 1,-2 3,-2 4,-2l2757 1365z"/>
     <path class="fil2" d="M3924 1319c1,1 2,3 1,4 -1,1 -2,2 -4,1l-2756 -1364c-2,-1 -2,-2 -2,-4 1,-1 3,-1 4,-1l2757 1364z"/>
     <path class="fil2" d="M3924 1212c1,1 2,3 1,4 -1,1 -2,2 -4,1l-2756 -1364c-2,-1 -2,-2 -2,-4 1,-1 3,-2 4,-1l2757 1364z"/>
     <path class="fil2" d="M3924 1105c1,1 2,2 1,4 -1,1 -2,2 -4,1l-2756 -1364c-2,-1 -2,-3 -2,-4 1,-1 3,-2 4,-1l2757 1364z"/>
     <path class="fil2" d="M3924 998c1,1 2,2 1,4 -1,1 -2,2 -4,1l-2756 -1364c-2,-1 -2,-3 -2,-4 1,-1 3,-2 4,-1l2757 1364z"/>
     <path class="fil2" d="M3924 891c1,1 2,2 1,4 -1,1 -2,1 -4,1l-2756 -1364c-2,-1 -2,-3 -2,-4 1,-1 3,-2 4,-1l2757 1364z"/>
     <path class="fil2" d="M3924 784c1,1 2,2 1,3 -1,2 -2,2 -4,2l-2756 -1365c-2,0 -2,-2 -2,-3 1,-1 3,-2 4,-1l2757 1364z"/>
     <path class="fil2" d="M3924 677c1,0 2,2 1,3 -1,2 -2,2 -4,2l-2756 -1365c-2,0 -2,-2 -2,-3 1,-2 3,-2 4,-1l2757 1364z"/>
     <path class="fil2" d="M3924 570c1,0 2,2 1,3 -1,2 -2,2 -4,1l-2756 -1364c-2,0 -2,-2 -2,-3 1,-2 3,-2 4,-2l2757 1365z"/>
     <path class="fil2" d="M3924 463c1,0 2,2 1,3 -1,2 -2,2 -4,1l-2756 -1364c-2,0 -2,-2 -2,-3 1,-2 3,-2 4,-2l2757 1365z"/>
     <path class="fil2" d="M3924 4211c1,1 2,2 1,4 -1,1 -2,2 -4,1l-2756 -1364c-2,-1 -2,-3 -2,-4 1,-1 3,-2 4,-1l2757 1364z"/>
     <path class="fil2" d="M3924 4104c1,1 2,2 1,4 -1,1 -2,1 -4,1l-2756 -1364c-2,-1 -2,-3 -2,-4 1,-1 3,-2 4,-1l2757 1364z"/>
     <path class="fil2" d="M3924 3997c1,1 2,2 1,4 -1,1 -2,1 -4,1l-2756 -1365c-2,0 -2,-2 -2,-3 1,-1 3,-2 4,-1l2757 1364z"/>
     <path class="fil2" d="M3924 3890c1,1 2,2 1,3 -1,2 -2,2 -4,2l-2756 -1365c-2,0 -2,-2 -2,-3 1,-1 3,-2 4,-1l2757 1364z"/>
     <path class="fil2" d="M3924 3783c1,0 2,2 1,3 -1,2 -2,2 -4,2l-2756 -1365c-2,0 -2,-2 -2,-3 1,-2 3,-2 4,-1l2757 1364z"/>
     <path class="fil2" d="M3924 3676c1,0 2,2 1,3 -1,2 -2,2 -4,1l-2756 -1364c-2,0 -2,-2 -2,-3 1,-2 3,-2 4,-2l2757 1365z"/>
     <path class="fil2" d="M3924 3569c1,0 2,2 1,3 -1,1 -2,2 -4,1l-2756 -1364c-2,-1 -2,-2 -2,-3 1,-2 3,-2 4,-2l2757 1365z"/>
     <path class="fil2" d="M3924 3462c1,0 2,2 1,3 -1,1 -2,2 -4,1l-2756 -1364c-2,-1 -2,-2 -2,-4 1,-1 3,-1 4,-1l2757 1365z"/>
     <path class="fil2" d="M3924 3354c1,1 2,3 1,4 -1,1 -2,2 -4,1l-2756 -1364c-2,-1 -2,-2 -2,-4 1,-1 3,-1 4,-1l2757 1364z"/>
     <path class="fil2" d="M3924 3247c1,1 2,3 1,4 -1,1 -2,2 -4,1l-2756 -1364c-2,-1 -2,-2 -2,-4 1,-1 3,-2 4,-1l2757 1364z"/>
     <path class="fil2" d="M3924 3140c1,1 2,2 1,4 -1,1 -2,2 -4,1l-2756 -1364c-2,-1 -2,-3 -2,-4 1,-1 3,-2 4,-1l2757 1364z"/>
     <path class="fil2" d="M3924 3033c1,1 2,2 1,4 -1,1 -2,1 -4,1l-2756 -1364c-2,-1 -2,-3 -2,-4 1,-1 3,-2 4,-1l2757 1364z"/>
     <path class="fil2" d="M3924 2926c1,1 2,2 1,4 -1,1 -2,1 -4,1l-2756 -1365c-2,0 -2,-2 -2,-3 1,-1 3,-2 4,-1l2757 1364z"/>
     <path class="fil2" d="M3924 2819c1,1 2,2 1,3 -1,2 -2,2 -4,2l-2756 -1365c-2,0 -2,-2 -2,-3 1,-1 3,-2 4,-1l2757 1364z"/>
     <path class="fil2" d="M3924 2712c1,0 2,2 1,3 -1,2 -2,2 -4,2l-2756 -1365c-2,0 -2,-2 -2,-3 1,-2 3,-2 4,-1l2757 1364z"/>
     <path class="fil2" d="M3924 2605c1,0 2,2 1,3 -1,2 -2,2 -4,1l-2756 -1364c-2,0 -2,-2 -2,-3 1,-2 3,-2 4,-2l2757 1365z"/>
     <path class="fil2" d="M3924 2498c1,0 2,2 1,3 -1,1 -2,2 -4,1l-2756 -1364c-2,-1 -2,-2 -2,-3 1,-2 3,-2 4,-2l2757 1365z"/>
     <path class="fil2" d="M3924 2390c1,1 2,3 1,4 -1,1 -2,2 -4,1l-2756 -1364c-2,-1 -2,-2 -2,-4 1,-1 3,-1 4,-1l2757 1364z"/>
     <path class="fil2" d="M902 -304c-1,0 -3,0 -3,-2 -1,-1 0,-3 2,-3l4332 -1364c1,-1 3,0 3,1 0,2 0,3 -2,4l-4332 1364z"/>
     <path class="fil2" d="M902 1905c-1,0 -3,0 -3,-2 -1,-1 0,-3 2,-3l4332 -1364c1,-1 3,0 3,1 0,2 0,3 -2,4l-4332 1364z"/>
     <path class="fil2" d="M902 1813c-1,0 -3,0 -3,-2 -1,-1 0,-3 2,-3l4332 -1364c1,-1 3,0 3,1 0,2 0,3 -2,4l-4332 1364z"/>
     <path class="fil2" d="M902 1721c-1,0 -3,0 -3,-2 -1,-1 0,-3 2,-3l4332 -1364c1,-1 3,0 3,1 0,2 0,3 -2,4l-4332 1364z"/>
     <path class="fil2" d="M902 1629c-1,0 -3,0 -3,-2 -1,-1 0,-3 2,-3l4332 -1364c1,-1 3,0 3,1 0,2 0,3 -2,4l-4332 1364z"/>
     <path class="fil2" d="M902 1537c-1,0 -3,-1 -3,-2 -1,-1 0,-3 2,-3l4332 -1364c1,-1 3,0 3,1 0,2 0,3 -2,4l-4332 1364z"/>
     <path class="fil2" d="M902 1445c-1,0 -3,-1 -3,-2 -1,-1 0,-3 2,-3l4332 -1365c1,0 3,1 3,2 0,2 0,3 -2,4l-4332 1364z"/>
     <path class="fil2" d="M902 1353c-1,0 -3,-1 -3,-2 -1,-1 0,-3 2,-3l4332 -1365c1,0 3,1 3,2 0,2 0,3 -2,3l-4332 1365z"/>
     <path class="fil2" d="M902 1261c-1,0 -3,-1 -3,-2 -1,-1 0,-3 2,-3l4332 -1365c1,0 3,1 3,2 0,1 0,3 -2,3l-4332 1365z"/>
     <path class="fil2" d="M902 1169c-1,0 -3,-1 -3,-2 -1,-1 0,-3 2,-3l4332 -1365c1,0 3,1 3,2 0,1 0,3 -2,3l-4332 1365z"/>
     <path class="fil2" d="M902 1077c-1,0 -3,-1 -3,-2 -1,-2 0,-3 2,-3l4332 -1365c1,0 3,1 3,2 0,1 0,3 -2,3l-4332 1365z"/>
     <path class="fil2" d="M902 985c-1,0 -3,-1 -3,-2 -1,-2 0,-3 2,-3l4332 -1365c1,0 3,1 3,2 0,1 0,3 -2,3l-4332 1365z"/>
     <path class="fil2" d="M902 893c-1,0 -3,-1 -3,-2 -1,-2 0,-3 2,-4l4332 -1364c1,0 3,1 3,2 0,1 0,3 -2,3l-4332 1365z"/>
     <path class="fil2" d="M902 800c-1,1 -3,0 -3,-1 -1,-2 0,-3 2,-4l4332 -1364c1,0 3,1 3,2 0,1 0,3 -2,3l-4332 1364z"/>
     <path class="fil2" d="M902 708c-1,1 -3,0 -3,-1 -1,-2 0,-3 2,-4l4332 -1364c1,0 3,0 3,2 0,1 0,3 -2,3l-4332 1364z"/>
     <path class="fil2" d="M902 616c-1,1 -3,0 -3,-1 -1,-2 0,-3 2,-4l4332 -1364c1,0 3,0 3,2 0,1 0,3 -2,3l-4332 1364z"/>
     <path class="fil2" d="M902 524c-1,1 -3,0 -3,-1 -1,-2 0,-3 2,-4l4332 -1364c1,0 3,0 3,2 0,1 0,3 -2,3l-4332 1364z"/>
     <path class="fil2" d="M902 432c-1,1 -3,0 -3,-1 -1,-2 0,-3 2,-4l4332 -1364c1,0 3,0 3,2 0,1 0,3 -2,3l-4332 1364z"/>
     <path class="fil2" d="M902 340c-1,1 -3,0 -3,-1 -1,-2 0,-3 2,-4l4332 -1364c1,0 3,0 3,2 0,1 0,3 -2,3l-4332 1364z"/>
     <path class="fil2" d="M902 248c-1,1 -3,0 -3,-2 -1,-1 0,-2 2,-3l4332 -1364c1,-1 3,0 3,2 0,1 0,2 -2,3l-4332 1364z"/>
     <path class="fil2" d="M902 156c-1,1 -3,0 -3,-2 -1,-1 0,-2 2,-3l4332 -1364c1,-1 3,0 3,2 0,1 0,2 -2,3l-4332 1364z"/>
     <path class="fil2" d="M902 64c-1,1 -3,0 -3,-2 -1,-1 0,-3 2,-3l4332 -1364c1,-1 3,0 3,2 0,1 0,2 -2,3l-4332 1364z"/>
     <path class="fil2" d="M902 -28c-1,0 -3,0 -3,-2 -1,-1 0,-3 2,-3l4332 -1364c1,-1 3,0 3,1 0,2 0,3 -2,4l-4332 1364z"/>
     <path class="fil2" d="M902 -120c-1,0 -3,0 -3,-2 -1,-1 0,-3 2,-3l4332 -1364c1,-1 3,0 3,1 0,2 0,3 -2,4l-4332 1364z"/>
     <path class="fil2" d="M902 -212c-1,0 -3,0 -3,-2 -1,-1 0,-3 2,-3l4332 -1364c1,-1 3,0 3,1 0,2 0,3 -2,4l-4332 1364z"/>
     <path class="fil2" d="M902 1997c-1,0 -3,0 -3,-2 -1,-1 0,-3 2,-3l4332 -1364c1,-1 3,0 3,1 0,2 0,3 -2,4l-4332 1364z"/>
    </g>
   </g>
   <path class="fil3 str2" d="M3520 1989l-1262 728 0 -1709c8,-124 52,-265 130,-401 79,-136 179,-244 282,-312l436 -252c103,-51 204,-59 283,-13l488 281 -28 412 -329 -238 0 1504zm-850 -1694l0 0 0 0z"/>
   <polygon class="fil1" points="2258,1008 2258,2717 2746,2998 2746,1289 "/>
   <g style="clip-path:url(#id1)">
    <g>
     <path id="1" class="fil2" d="M3427 1147c1,-2 2,-2 3,-1 2,0 2,2 2,3l-1365 2757c0,1 -2,2 -3,1 -2,-1 -2,-2 -1,-3l1364 -2757z"/>
     <path class="fil2" d="M3233 4168c0,2 -1,3 -2,4 -2,0 -3,-1 -3,-2l-1365 -4332c0,-2 1,-3 2,-4 1,0 3,1 3,2l1365 4332z"/>
     <path class="fil2" d="M5442 4168c0,2 -1,3 -2,4 -1,0 -3,-1 -3,-2l-1365 -4332c0,-2 1,-3 2,-4 2,0 3,1 3,2l1365 4332z"/>
     <path class="fil2" d="M5350 4168c0,2 -1,3 -2,4 -1,0 -3,-1 -3,-2l-1365 -4332c0,-2 1,-3 2,-4 1,0 3,1 3,2l1365 4332z"/>
     <path class="fil2" d="M5258 4168c0,2 -1,3 -2,4 -1,0 -3,-1 -3,-2l-1365 -4332c0,-2 1,-3 2,-4 1,0 3,1 3,2l1365 4332z"/>
     <path class="fil2" d="M5166 4168c0,2 -1,3 -2,4 -2,0 -3,-1 -3,-2l-1365 -4332c0,-2 1,-3 2,-4 1,0 3,1 3,2l1365 4332z"/>
     <path class="fil2" d="M5074 4168c0,2 -1,3 -2,4 -2,0 -3,-1 -3,-2l-1365 -4332c0,-2 1,-3 2,-4 1,0 3,1 3,2l1365 4332z"/>
     <path class="fil2" d="M4981 4168c1,2 0,3 -1,4 -2,0 -3,-1 -4,-2l-1364 -4332c0,-2 1,-3 2,-4 1,0 3,1 3,2l1364 4332z"/>
     <path class="fil2" d="M4889 4168c1,2 0,3 -1,4 -2,0 -3,-1 -4,-2l-1364 -4332c0,-2 0,-3 2,-4 1,0 3,1 3,2l1364 4332z"/>
     <path class="fil2" d="M4797 4168c1,2 0,3 -1,4 -2,0 -3,-1 -4,-2l-1364 -4332c0,-2 0,-3 2,-4 1,0 3,1 3,2l1364 4332z"/>
     <path class="fil2" d="M4705 4168c1,2 0,3 -1,4 -2,0 -3,-1 -4,-2l-1364 -4332c0,-2 0,-3 2,-4 1,0 3,1 3,2l1364 4332z"/>
     <path class="fil2" d="M4613 4168c1,2 0,3 -1,4 -2,0 -3,-1 -4,-2l-1364 -4332c0,-2 0,-3 2,-4 1,0 3,1 3,2l1364 4332z"/>
     <path class="fil2" d="M4521 4168c1,2 0,3 -1,4 -2,0 -3,-1 -4,-2l-1364 -4332c0,-2 0,-3 2,-4 1,0 3,1 3,2l1364 4332z"/>
     <path class="fil2" d="M4429 4168c1,2 0,3 -2,4 -1,0 -2,-1 -3,-2l-1364 -4332c-1,-2 0,-3 2,-4 1,0 2,1 3,2l1364 4332z"/>
     <path class="fil2" d="M4337 4168c1,2 0,3 -2,4 -1,0 -2,-1 -3,-2l-1364 -4332c-1,-2 0,-3 2,-4 1,0 2,1 3,2l1364 4332z"/>
     <path class="fil2" d="M4245 4168c1,2 0,3 -2,4 -1,0 -2,-1 -3,-2l-1364 -4332c-1,-2 0,-3 2,-4 1,0 2,1 3,2l1364 4332z"/>
     <path class="fil2" d="M4153 4168c0,2 0,3 -2,4 -1,0 -3,-1 -3,-2l-1364 -4332c-1,-2 0,-3 1,-4 2,0 3,1 4,2l1364 4332z"/>
     <path class="fil2" d="M4061 4168c0,2 0,3 -2,4 -1,0 -3,-1 -3,-2l-1364 -4332c-1,-2 0,-3 1,-4 2,0 3,1 4,2l1364 4332z"/>
     <path class="fil2" d="M3969 4168c0,2 0,3 -2,4 -1,0 -3,-1 -3,-2l-1364 -4332c-1,-2 0,-3 1,-4 2,0 3,1 4,2l1364 4332z"/>
     <path class="fil2" d="M3877 4168c0,2 0,3 -2,4 -1,0 -3,-1 -3,-2l-1364 -4332c-1,-2 0,-3 1,-4 2,0 3,1 4,2l1364 4332z"/>
     <path class="fil2" d="M3785 4168c0,2 0,3 -2,4 -1,0 -3,-1 -3,-2l-1364 -4332c-1,-2 0,-3 1,-4 2,0 3,1 4,2l1364 4332z"/>
     <path class="fil2" d="M3693 4168c0,2 -1,3 -2,4 -1,0 -3,-1 -3,-2l-1364 -4332c-1,-2 0,-3 1,-4 2,0 3,1 4,2l1364 4332z"/>
     <path class="fil2" d="M3601 4168c0,2 -1,3 -2,4 -1,0 -3,-1 -3,-2l-1365 -4332c0,-2 1,-3 2,-4 2,0 3,1 4,2l1364 4332z"/>
     <path class="fil2" d="M3509 4168c0,2 -1,3 -2,4 -1,0 -3,-1 -3,-2l-1365 -4332c0,-2 1,-3 2,-4 2,0 3,1 3,2l1365 4332z"/>
     <path class="fil2" d="M3417 4168c0,2 -1,3 -2,4 -1,0 -3,-1 -3,-2l-1365 -4332c0,-2 1,-3 2,-4 2,0 3,1 3,2l1365 4332z"/>
     <path class="fil2" d="M3325 4168c0,2 -1,3 -2,4 -1,0 -3,-1 -3,-2l-1365 -4332c0,-2 1,-3 2,-4 1,0 3,1 3,2l1365 4332z"/>
     <path class="fil2" d="M5534 4168c0,2 -1,3 -2,4 -1,0 -3,-1 -3,-2l-1365 -4332c0,-2 1,-3 2,-4 2,0 3,1 3,2l1365 4332z"/>
     <path class="fil2" d="M3320 1147c0,-2 2,-2 3,-1 2,0 2,2 1,3l-1364 2757c0,1 -2,2 -3,1 -2,-1 -2,-2 -1,-3l1364 -2757z"/>
     <path class="fil2" d="M3213 1147c0,-2 2,-2 3,-1 1,0 2,2 1,3l-1364 2757c-1,1 -2,2 -3,1 -2,-1 -2,-2 -2,-3l1365 -2757z"/>
     <path class="fil2" d="M3106 1147c0,-2 2,-2 3,-1 1,0 2,2 1,3l-1364 2757c-1,1 -2,2 -4,1 -1,-1 -1,-2 -1,-3l1365 -2757z"/>
     <path class="fil2" d="M2998 1147c1,-2 3,-2 4,-1 1,0 2,2 1,3l-1364 2757c-1,1 -2,2 -4,1 -1,-1 -1,-2 -1,-3l1364 -2757z"/>
     <path class="fil2" d="M2891 1147c1,-2 3,-2 4,-1 1,0 2,2 1,3l-1364 2757c-1,1 -2,2 -4,1 -1,-1 -2,-2 -1,-3l1364 -2757z"/>
     <path class="fil2" d="M2784 1147c1,-2 2,-2 4,-1 1,0 2,2 1,3l-1364 2757c-1,1 -3,2 -4,1 -1,-1 -2,-2 -1,-3l1364 -2757z"/>
     <path class="fil2" d="M2677 1147c1,-2 2,-2 4,-1 1,0 2,2 1,3l-1364 2757c-1,1 -3,2 -4,1 -1,-1 -2,-2 -1,-3l1364 -2757z"/>
     <path class="fil2" d="M2570 1147c1,-2 2,-2 4,-1 1,0 1,2 1,3l-1364 2757c-1,1 -3,2 -4,1 -1,-1 -2,-2 -1,-3l1364 -2757z"/>
     <path class="fil2" d="M2463 1147c1,-2 2,-2 3,-1 2,0 2,2 2,3l-1365 2757c0,1 -2,2 -3,1 -1,-1 -2,-2 -1,-3l1364 -2757z"/>
     <path class="fil2" d="M2356 1147c0,-2 2,-2 3,-1 2,0 2,2 2,3l-1365 2757c0,1 -2,2 -3,1 -2,-1 -2,-2 -1,-3l1364 -2757z"/>
     <path class="fil2" d="M2249 1147c0,-2 2,-2 3,-1 2,0 2,2 1,3l-1364 2757c0,1 -2,2 -3,1 -2,-1 -2,-2 -2,-3l1365 -2757z"/>
     <path class="fil2" d="M2142 1147c0,-2 2,-2 3,-1 1,0 2,2 1,3l-1364 2757c-1,1 -2,2 -3,1 -2,-1 -2,-2 -2,-3l1365 -2757z"/>
     <path class="fil2" d="M2035 1147c0,-2 2,-2 3,-1 1,0 2,2 1,3l-1364 2757c-1,1 -2,2 -4,1 -1,-1 -1,-2 -1,-3l1365 -2757z"/>
     <path class="fil2" d="M1927 1147c1,-2 3,-2 4,-1 1,0 2,2 1,3l-1364 2757c-1,1 -2,2 -4,1 -1,-1 -1,-2 -1,-3l1364 -2757z"/>
     <path class="fil2" d="M1820 1147c1,-2 3,-2 4,-1 1,0 2,2 1,3l-1364 2757c-1,1 -2,2 -4,1 -1,-1 -2,-2 -1,-3l1364 -2757z"/>
     <path class="fil2" d="M1713 1147c1,-2 2,-2 4,-1 1,0 2,2 1,3l-1364 2757c-1,1 -3,2 -4,1 -1,-1 -2,-2 -1,-3l1364 -2757z"/>
     <path class="fil2" d="M1606 1147c1,-2 2,-2 4,-1 1,0 2,2 1,3l-1364 2757c-1,1 -3,2 -4,1 -1,-1 -2,-2 -1,-3l1364 -2757z"/>
     <path class="fil2" d="M5355 1147c0,-2 2,-2 3,-1 2,0 2,2 1,3l-1364 2757c0,1 -2,2 -3,1 -2,-1 -2,-2 -2,-3l1365 -2757z"/>
     <path class="fil2" d="M5248 1147c0,-2 2,-2 3,-1 1,0 2,2 1,3l-1364 2757c-1,1 -2,2 -3,1 -2,-1 -2,-2 -2,-3l1365 -2757z"/>
     <path class="fil2" d="M5141 1147c0,-2 2,-2 3,-1 1,0 2,2 1,3l-1364 2757c-1,1 -2,2 -4,1 -1,-1 -1,-2 -1,-3l1365 -2757z"/>
     <path class="fil2" d="M5033 1147c1,-2 3,-2 4,-1 1,0 2,2 1,3l-1364 2757c-1,1 -2,2 -4,1 -1,-1 -1,-2 -1,-3l1364 -2757z"/>
     <path class="fil2" d="M4926 1147c1,-2 3,-2 4,-1 1,0 2,2 1,3l-1364 2757c-1,1 -2,2 -4,1 -1,-1 -2,-2 -1,-3l1364 -2757z"/>
     <path class="fil2" d="M4819 1147c1,-2 2,-2 4,-1 1,0 2,2 1,3l-1364 2757c-1,1 -3,2 -4,1 -1,-1 -2,-2 -1,-3l1364 -2757z"/>
     <path class="fil2" d="M4712 1147c1,-2 2,-2 4,-1 1,0 1,2 1,3l-1364 2757c-1,1 -3,2 -4,1 -1,-1 -2,-2 -1,-3l1364 -2757z"/>
     <path class="fil2" d="M4605 1147c1,-2 2,-2 4,-1 1,0 1,2 1,3l-1365 2757c0,1 -2,2 -3,1 -1,-1 -2,-2 -1,-3l1364 -2757z"/>
     <path class="fil2" d="M4498 1147c1,-2 2,-2 3,-1 2,0 2,2 2,3l-1365 2757c0,1 -2,2 -3,1 -1,-1 -2,-2 -1,-3l1364 -2757z"/>
     <path class="fil2" d="M4391 1147c0,-2 2,-2 3,-1 2,0 2,2 2,3l-1365 2757c0,1 -2,2 -3,1 -2,-1 -2,-2 -1,-3l1364 -2757z"/>
     <path class="fil2" d="M4284 1147c0,-2 2,-2 3,-1 2,0 2,2 1,3l-1364 2757c0,1 -2,2 -3,1 -2,-1 -2,-2 -2,-3l1365 -2757z"/>
     <path class="fil2" d="M4177 1147c0,-2 2,-2 3,-1 1,0 2,2 1,3l-1364 2757c-1,1 -2,2 -3,1 -2,-1 -2,-2 -2,-3l1365 -2757z"/>
     <path class="fil2" d="M4069 1147c1,-2 3,-2 4,-1 1,0 2,2 1,3l-1364 2757c-1,1 -2,2 -4,1 -1,-1 -1,-2 -1,-3l1364 -2757z"/>
     <path class="fil2" d="M3962 1147c1,-2 3,-2 4,-1 1,0 2,2 1,3l-1364 2757c-1,1 -2,2 -4,1 -1,-1 -2,-2 -1,-3l1364 -2757z"/>
     <path class="fil2" d="M3855 1147c1,-2 3,-2 4,-1 1,0 2,2 1,3l-1364 2757c-1,1 -2,2 -4,1 -1,-1 -2,-2 -1,-3l1364 -2757z"/>
     <path class="fil2" d="M3748 1147c1,-2 2,-2 4,-1 1,0 2,2 1,3l-1364 2757c-1,1 -3,2 -4,1 -1,-1 -2,-2 -1,-3l1364 -2757z"/>
     <path class="fil2" d="M3641 1147c1,-2 2,-2 4,-1 1,0 1,2 1,3l-1364 2757c-1,1 -3,2 -4,1 -1,-1 -2,-2 -1,-3l1364 -2757z"/>
     <path class="fil2" d="M3534 1147c1,-2 2,-2 3,-1 2,0 2,2 2,3l-1365 2757c0,1 -2,2 -3,1 -1,-1 -2,-2 -1,-3l1364 -2757z"/>
     <path class="fil2" d="M840 4168c0,2 -1,3 -2,4 -2,0 -3,-1 -4,-2l-1364 -4332c0,-2 1,-3 2,-4 1,0 3,1 3,2l1365 4332z"/>
     <path class="fil2" d="M3048 4168c1,2 0,3 -1,4 -2,0 -3,-1 -4,-2l-1364 -4332c0,-2 1,-3 2,-4 1,0 3,1 3,2l1364 4332z"/>
     <path class="fil2" d="M2956 4168c1,2 0,3 -1,4 -2,0 -3,-1 -4,-2l-1364 -4332c0,-2 1,-3 2,-4 1,0 3,1 3,2l1364 4332z"/>
     <path class="fil2" d="M2864 4168c1,2 0,3 -1,4 -2,0 -3,-1 -4,-2l-1364 -4332c0,-2 0,-3 2,-4 1,0 3,1 3,2l1364 4332z"/>
     <path class="fil2" d="M2772 4168c1,2 0,3 -1,4 -2,0 -3,-1 -4,-2l-1364 -4332c0,-2 0,-3 2,-4 1,0 3,1 3,2l1364 4332z"/>
     <path class="fil2" d="M2680 4168c1,2 0,3 -1,4 -2,0 -3,-1 -4,-2l-1364 -4332c0,-2 0,-3 2,-4 1,0 3,1 3,2l1364 4332z"/>
     <path class="fil2" d="M2588 4168c1,2 0,3 -1,4 -2,0 -3,-1 -4,-2l-1364 -4332c0,-2 0,-3 2,-4 1,0 3,1 3,2l1364 4332z"/>
     <path class="fil2" d="M2496 4168c1,2 0,3 -2,4 -1,0 -2,-1 -3,-2l-1364 -4332c-1,-2 0,-3 2,-4 1,0 3,1 3,2l1364 4332z"/>
     <path class="fil2" d="M2404 4168c1,2 0,3 -2,4 -1,0 -2,-1 -3,-2l-1364 -4332c-1,-2 0,-3 2,-4 1,0 2,1 3,2l1364 4332z"/>
     <path class="fil2" d="M2312 4168c1,2 0,3 -2,4 -1,0 -2,-1 -3,-2l-1364 -4332c-1,-2 0,-3 2,-4 1,0 2,1 3,2l1364 4332z"/>
     <path class="fil2" d="M2220 4168c1,2 0,3 -2,4 -1,0 -3,-1 -3,-2l-1364 -4332c-1,-2 0,-3 2,-4 1,0 2,1 3,2l1364 4332z"/>
     <path class="fil2" d="M2128 4168c0,2 0,3 -2,4 -1,0 -3,-1 -3,-2l-1364 -4332c-1,-2 0,-3 1,-4 2,0 3,1 4,2l1364 4332z"/>
     <path class="fil2" d="M2036 4168c0,2 0,3 -2,4 -1,0 -3,-1 -3,-2l-1364 -4332c-1,-2 0,-3 1,-4 2,0 3,1 4,2l1364 4332z"/>
     <path class="fil2" d="M1944 4168c0,2 0,3 -2,4 -1,0 -3,-1 -3,-2l-1364 -4332c-1,-2 0,-3 1,-4 2,0 3,1 4,2l1364 4332z"/>
     <path class="fil2" d="M1852 4168c0,2 0,3 -2,4 -1,0 -3,-1 -3,-2l-1364 -4332c-1,-2 0,-3 1,-4 2,0 3,1 4,2l1364 4332z"/>
     <path class="fil2" d="M1760 4168c0,2 -1,3 -2,4 -1,0 -3,-1 -3,-2l-1364 -4332c-1,-2 0,-3 1,-4 2,0 3,1 4,2l1364 4332z"/>
     <path class="fil2" d="M1668 4168c0,2 -1,3 -2,4 -1,0 -3,-1 -3,-2l-1364 -4332c-1,-2 0,-3 1,-4 2,0 3,1 4,2l1364 4332z"/>
     <path class="fil2" d="M1576 4168c0,2 -1,3 -2,4 -1,0 -3,-1 -3,-2l-1365 -4332c0,-2 1,-3 2,-4 2,0 3,1 3,2l1365 4332z"/>
     <path class="fil2" d="M1484 4168c0,2 -1,3 -2,4 -1,0 -3,-1 -3,-2l-1365 -4332c0,-2 1,-3 2,-4 2,0 3,1 3,2l1365 4332z"/>
     <path class="fil2" d="M1392 4168c0,2 -1,3 -2,4 -1,0 -3,-1 -3,-2l-1365 -4332c0,-2 1,-3 2,-4 1,0 3,1 3,2l1365 4332z"/>
     <path class="fil2" d="M1300 4168c0,2 -1,3 -2,4 -1,0 -3,-1 -3,-2l-1365 -4332c0,-2 1,-3 2,-4 1,0 3,1 3,2l1365 4332z"/>
     <path class="fil2" d="M1208 4168c0,2 -1,3 -2,4 -2,0 -3,-1 -3,-2l-1365 -4332c0,-2 1,-3 2,-4 1,0 3,1 3,2l1365 4332z"/>
     <path class="fil2" d="M1116 4168c0,2 -1,3 -2,4 -2,0 -3,-1 -4,-2l-1364 -4332c0,-2 1,-3 2,-4 1,0 3,1 3,2l1365 4332z"/>
     <path class="fil2" d="M1023 4168c1,2 0,3 -1,4 -2,0 -3,-1 -4,-2l-1364 -4332c0,-2 1,-3 2,-4 1,0 3,1 3,2l1364 4332z"/>
     <path class="fil2" d="M931 4168c1,2 0,3 -1,4 -2,0 -3,-1 -4,-2l-1364 -4332c0,-2 0,-3 2,-4 1,0 3,1 3,2l1364 4332z"/>
     <path class="fil2" d="M3141 4168c0,2 -1,3 -2,4 -2,0 -3,-1 -3,-2l-1365 -4332c0,-2 1,-3 2,-4 1,0 3,1 3,2l1365 4332z"/>
    </g>
   </g>
   <polygon class="fil3 str3" points="2258,1008 2258,2717 2746,2998 2746,1289 "/>
   <path class="fil1" d="M4007 2270l-1261 728 0 -1709c8,-123 51,-264 129,-400 79,-136 179,-244 282,-313l437 -252c103,-50 204,-58 283,-13 79,46 122,137 130,252l0 1707zm-850 -1694l0 0 0 0z"/>
   <g style="clip-path:url(#id2)">
    <g>
     <path id="1" class="fil2" d="M3152 282c-1,-2 0,-3 1,-4 1,0 3,0 3,1l1365 2757c0,2 0,3 -1,4 -2,0 -3,0 -4,-1l-1364 -2757z"/>
     <path class="fil2" d="M3356 3303c-1,1 -2,2 -4,1 -1,0 -2,-2 -1,-3l1364 -4332c0,-1 2,-2 3,-2 2,1 2,2 2,3l-1364 4333z"/>
     <path class="fil2" d="M1147 3303c-1,1 -2,2 -4,1 -1,0 -2,-2 -1,-3l1364 -4332c0,-1 2,-2 3,-2 2,1 2,2 2,3l-1364 4333z"/>
     <path class="fil2" d="M1239 3303c-1,1 -2,2 -4,1 -1,0 -2,-2 -1,-3l1364 -4332c0,-1 2,-2 3,-2 2,1 2,2 2,3l-1364 4333z"/>
     <path class="fil2" d="M1331 3303c-1,1 -2,2 -4,1 -1,0 -2,-2 -1,-3l1364 -4332c0,-1 2,-2 3,-2 2,1 2,2 2,3l-1364 4333z"/>
     <path class="fil2" d="M1423 3303c-1,1 -2,2 -4,1 -1,0 -2,-2 -1,-3l1364 -4332c0,-1 2,-2 3,-2 2,1 2,2 2,3l-1364 4333z"/>
     <path class="fil2" d="M1515 3303c-1,1 -2,2 -3,1 -2,0 -3,-2 -2,-3l1364 -4332c1,-1 2,-2 3,-2 2,1 3,2 2,3l-1364 4333z"/>
     <path class="fil2" d="M1607 3303c-1,1 -2,2 -3,1 -2,0 -3,-2 -2,-3l1364 -4332c1,-1 2,-2 3,-2 2,1 3,2 2,3l-1364 4333z"/>
     <path class="fil2" d="M1699 3303c-1,1 -2,2 -3,1 -2,0 -3,-2 -2,-3l1364 -4332c1,-1 2,-2 3,-2 2,1 3,2 2,3l-1364 4333z"/>
     <path class="fil2" d="M1791 3303c0,1 -2,2 -3,1 -2,0 -2,-2 -2,-3l1364 -4332c1,-1 2,-2 4,-2 1,1 2,2 1,3l-1364 4333z"/>
     <path class="fil2" d="M1883 3303c0,1 -2,2 -3,1 -2,0 -2,-2 -2,-3l1364 -4332c1,-1 2,-2 4,-2 1,1 2,2 1,3l-1364 4333z"/>
     <path class="fil2" d="M1975 3303c0,1 -2,2 -3,1 -2,0 -2,-2 -2,-3l1364 -4332c1,-1 2,-2 4,-2 1,1 2,2 1,3l-1364 4333z"/>
     <path class="fil2" d="M2067 3303c0,1 -2,2 -3,1 -2,0 -2,-2 -2,-3l1364 -4332c1,-1 2,-2 4,-2 1,1 2,2 1,3l-1364 4333z"/>
     <path class="fil2" d="M2159 3303c0,1 -2,2 -3,1 -2,0 -2,-2 -2,-3l1364 -4332c1,-1 2,-2 4,-2 1,1 2,2 1,3l-1364 4333z"/>
     <path class="fil2" d="M2251 3303c0,1 -2,2 -3,1 -1,0 -2,-2 -2,-3l1364 -4332c1,-1 2,-2 4,-2 1,1 2,2 1,3l-1364 4333z"/>
     <path class="fil2" d="M2343 3303c0,1 -2,2 -3,1 -1,0 -2,-2 -2,-3l1365 -4332c0,-1 1,-2 3,-2 1,1 2,2 2,3l-1365 4333z"/>
     <path class="fil2" d="M2435 3303c0,1 -2,2 -3,1 -1,0 -2,-2 -2,-3l1365 -4332c0,-1 1,-2 3,-2 1,1 2,2 2,3l-1365 4333z"/>
     <path class="fil2" d="M2527 3303c0,1 -2,2 -3,1 -1,0 -2,-2 -2,-3l1365 -4332c0,-1 2,-2 3,-2 1,1 2,2 2,3l-1365 4333z"/>
     <path class="fil2" d="M2619 3303c0,1 -2,2 -3,1 -1,0 -2,-2 -2,-3l1365 -4332c0,-1 2,-2 3,-2 1,1 2,2 2,3l-1365 4333z"/>
     <path class="fil2" d="M2711 3303c0,1 -1,2 -3,1 -1,0 -2,-2 -2,-3l1365 -4332c0,-1 2,-2 3,-2 1,1 2,2 2,3l-1365 4333z"/>
     <path class="fil2" d="M2803 3303c0,1 -1,2 -3,1 -1,0 -2,-2 -2,-3l1365 -4332c0,-1 2,-2 3,-2 1,1 2,2 2,3l-1365 4333z"/>
     <path class="fil2" d="M2896 3303c-1,1 -2,2 -4,1 -1,0 -2,-2 -1,-3l1364 -4332c0,-1 2,-2 3,-2 1,1 2,2 2,3l-1364 4333z"/>
     <path class="fil2" d="M2988 3303c-1,1 -2,2 -4,1 -1,0 -2,-2 -1,-3l1364 -4332c0,-1 2,-2 3,-2 2,1 2,2 2,3l-1364 4333z"/>
     <path class="fil2" d="M3080 3303c-1,1 -2,2 -4,1 -1,0 -2,-2 -1,-3l1364 -4332c0,-1 2,-2 3,-2 2,1 2,2 2,3l-1364 4333z"/>
     <path class="fil2" d="M3172 3303c-1,1 -2,2 -4,1 -1,0 -2,-2 -1,-3l1364 -4332c0,-1 2,-2 3,-2 2,1 2,2 2,3l-1364 4333z"/>
     <path class="fil2" d="M3264 3303c-1,1 -2,2 -4,1 -1,0 -2,-2 -1,-3l1364 -4332c0,-1 2,-2 3,-2 2,1 2,2 2,3l-1364 4333z"/>
     <path class="fil2" d="M1055 3303c-1,1 -2,2 -4,1 -1,0 -2,-2 -1,-3l1364 -4332c0,-1 2,-2 3,-2 2,1 2,2 2,3l-1364 4333z"/>
     <path class="fil2" d="M3259 282c-1,-2 0,-3 1,-4 1,0 3,0 4,1l1364 2757c0,2 0,3 -1,4 -2,0 -3,0 -4,-1l-1364 -2757z"/>
     <path class="fil2" d="M3366 282c-1,-2 0,-3 1,-4 1,0 3,0 4,1l1364 2757c1,2 0,3 -1,4 -2,0 -3,0 -4,-1l-1364 -2757z"/>
     <path class="fil2" d="M3473 282c-1,-2 0,-3 1,-4 2,0 3,0 4,1l1364 2757c1,2 0,3 -1,4 -1,0 -3,0 -4,-1l-1364 -2757z"/>
     <path class="fil2" d="M3580 282c0,-2 0,-3 1,-4 2,0 3,0 4,1l1364 2757c1,2 0,3 -1,4 -1,0 -3,0 -4,-1l-1364 -2757z"/>
     <path class="fil2" d="M3687 282c0,-2 0,-3 1,-4 2,0 3,0 4,1l1364 2757c1,2 0,3 -1,4 -1,0 -3,0 -3,-1l-1365 -2757z"/>
     <path class="fil2" d="M3794 282c0,-2 0,-3 2,-4 1,0 2,0 3,1l1364 2757c1,2 0,3 -1,4 -1,0 -3,0 -3,-1l-1365 -2757z"/>
     <path class="fil2" d="M3901 282c0,-2 0,-3 2,-4 1,0 3,0 3,1l1364 2757c1,2 1,3 -1,4 -1,0 -3,0 -3,-1l-1365 -2757z"/>
     <path class="fil2" d="M4009 282c-1,-2 -1,-3 1,-4 1,0 3,0 3,1l1365 2757c0,2 0,3 -2,4 -1,0 -3,0 -3,-1l-1364 -2757z"/>
     <path class="fil2" d="M4116 282c-1,-2 0,-3 1,-4 1,0 3,0 3,1l1365 2757c0,2 0,3 -2,4 -1,0 -2,0 -3,-1l-1364 -2757z"/>
     <path class="fil2" d="M4223 282c-1,-2 0,-3 1,-4 1,0 3,0 3,1l1365 2757c0,2 0,3 -1,4 -2,0 -3,0 -4,-1l-1364 -2757z"/>
     <path class="fil2" d="M4330 282c-1,-2 0,-3 1,-4 1,0 3,0 4,1l1364 2757c0,2 0,3 -1,4 -2,0 -3,0 -4,-1l-1364 -2757z"/>
     <path class="fil2" d="M4437 282c-1,-2 0,-3 1,-4 1,0 3,0 4,1l1364 2757c1,2 0,3 -1,4 -2,0 -3,0 -4,-1l-1364 -2757z"/>
     <path class="fil2" d="M4544 282c-1,-2 0,-3 1,-4 2,0 3,0 4,1l1364 2757c1,2 0,3 -1,4 -1,0 -3,0 -4,-1l-1364 -2757z"/>
     <path class="fil2" d="M4651 282c0,-2 0,-3 1,-4 2,0 3,0 4,1l1364 2757c1,2 0,3 -1,4 -1,0 -3,0 -4,-1l-1364 -2757z"/>
     <path class="fil2" d="M4758 282c0,-2 0,-3 1,-4 2,0 3,0 4,1l1364 2757c1,2 0,3 -1,4 -1,0 -3,0 -3,-1l-1365 -2757z"/>
     <path class="fil2" d="M4865 282c0,-2 0,-3 2,-4 1,0 2,0 3,1l1364 2757c1,2 0,3 -1,4 -1,0 -3,0 -3,-1l-1365 -2757z"/>
     <path class="fil2" d="M4972 282c0,-2 0,-3 2,-4 1,0 2,0 3,1l1364 2757c1,2 0,3 -1,4 -1,0 -3,0 -3,-1l-1365 -2757z"/>
     <path class="fil2" d="M1224 282c-1,-2 0,-3 1,-4 1,0 3,0 4,1l1364 2757c1,2 0,3 -1,4 -2,0 -3,0 -4,-1l-1364 -2757z"/>
     <path class="fil2" d="M1331 282c-1,-2 0,-3 1,-4 2,0 3,0 4,1l1364 2757c1,2 0,3 -1,4 -1,0 -3,0 -4,-1l-1364 -2757z"/>
     <path class="fil2" d="M1438 282c-1,-2 0,-3 1,-4 2,0 3,0 4,1l1364 2757c1,2 0,3 -1,4 -1,0 -3,0 -4,-1l-1364 -2757z"/>
     <path class="fil2" d="M1545 282c0,-2 0,-3 1,-4 2,0 3,0 4,1l1364 2757c1,2 0,3 -1,4 -1,0 -3,0 -4,-1l-1364 -2757z"/>
     <path class="fil2" d="M1652 282c0,-2 0,-3 2,-4 1,0 2,0 3,1l1364 2757c1,2 0,3 -1,4 -1,0 -3,0 -3,-1l-1365 -2757z"/>
     <path class="fil2" d="M1759 282c0,-2 0,-3 2,-4 1,0 2,0 3,1l1364 2757c1,2 1,3 -1,4 -1,0 -3,0 -3,-1l-1365 -2757z"/>
     <path class="fil2" d="M1867 282c-1,-2 -1,-3 1,-4 1,0 3,0 3,1l1365 2757c0,2 0,3 -2,4 -1,0 -3,0 -3,-1l-1364 -2757z"/>
     <path class="fil2" d="M1974 282c-1,-2 0,-3 1,-4 1,0 3,0 3,1l1365 2757c0,2 0,3 -2,4 -1,0 -2,0 -3,-1l-1364 -2757z"/>
     <path class="fil2" d="M2081 282c-1,-2 0,-3 1,-4 1,0 3,0 3,1l1365 2757c0,2 0,3 -1,4 -2,0 -3,0 -4,-1l-1364 -2757z"/>
     <path class="fil2" d="M2188 282c-1,-2 0,-3 1,-4 1,0 3,0 4,1l1364 2757c0,2 0,3 -1,4 -2,0 -3,0 -4,-1l-1364 -2757z"/>
     <path class="fil2" d="M2295 282c-1,-2 0,-3 1,-4 1,0 3,0 4,1l1364 2757c1,2 0,3 -1,4 -2,0 -3,0 -4,-1l-1364 -2757z"/>
     <path class="fil2" d="M2402 282c-1,-2 0,-3 1,-4 2,0 3,0 4,1l1364 2757c1,2 0,3 -1,4 -1,0 -3,0 -4,-1l-1364 -2757z"/>
     <path class="fil2" d="M2509 282c0,-2 0,-3 1,-4 2,0 3,0 4,1l1364 2757c1,2 0,3 -1,4 -1,0 -3,0 -4,-1l-1364 -2757z"/>
     <path class="fil2" d="M2616 282c0,-2 0,-3 1,-4 2,0 3,0 4,1l1364 2757c1,2 0,3 -1,4 -1,0 -3,0 -3,-1l-1365 -2757z"/>
     <path class="fil2" d="M2723 282c0,-2 0,-3 2,-4 1,0 2,0 3,1l1364 2757c1,2 0,3 -1,4 -1,0 -3,0 -3,-1l-1365 -2757z"/>
     <path class="fil2" d="M2830 282c0,-2 0,-3 2,-4 1,0 3,0 3,1l1364 2757c1,2 1,3 -1,4 -1,0 -3,0 -3,-1l-1365 -2757z"/>
     <path class="fil2" d="M2938 282c-1,-2 -1,-3 1,-4 1,0 3,0 3,1l1365 2757c0,2 0,3 -2,4 -1,0 -3,0 -3,-1l-1364 -2757z"/>
     <path class="fil2" d="M3045 282c-1,-2 0,-3 1,-4 1,0 3,0 3,1l1365 2757c0,2 0,3 -2,4 -1,0 -2,0 -3,-1l-1364 -2757z"/>
     <path class="fil2" d="M5749 3303c-1,1 -2,2 -3,1 -2,0 -3,-2 -2,-3l1364 -4332c1,-1 2,-2 3,-2 2,1 3,2 2,3l-1364 4333z"/>
     <path class="fil2" d="M3540 3303c-1,1 -2,2 -3,1 -2,0 -3,-2 -2,-3l1364 -4332c1,-1 2,-2 3,-2 2,1 3,2 2,3l-1364 4333z"/>
     <path class="fil2" d="M3632 3303c-1,1 -2,2 -3,1 -2,0 -3,-2 -2,-3l1364 -4332c1,-1 2,-2 3,-2 2,1 3,2 2,3l-1364 4333z"/>
     <path class="fil2" d="M3724 3303c0,1 -2,2 -3,1 -2,0 -2,-2 -2,-3l1364 -4332c1,-1 2,-2 4,-2 1,1 2,2 1,3l-1364 4333z"/>
     <path class="fil2" d="M3816 3303c0,1 -2,2 -3,1 -2,0 -2,-2 -2,-3l1364 -4332c1,-1 2,-2 4,-2 1,1 2,2 1,3l-1364 4333z"/>
     <path class="fil2" d="M3908 3303c0,1 -2,2 -3,1 -2,0 -2,-2 -2,-3l1364 -4332c1,-1 2,-2 4,-2 1,1 2,2 1,3l-1364 4333z"/>
     <path class="fil2" d="M4000 3303c0,1 -2,2 -3,1 -2,0 -2,-2 -2,-3l1364 -4332c1,-1 2,-2 4,-2 1,1 2,2 1,3l-1364 4333z"/>
     <path class="fil2" d="M4092 3303c0,1 -2,2 -3,1 -2,0 -2,-2 -2,-3l1364 -4332c1,-1 2,-2 4,-2 1,1 2,2 1,3l-1364 4333z"/>
     <path class="fil2" d="M4184 3303c0,1 -2,2 -3,1 -1,0 -2,-2 -2,-3l1364 -4332c1,-1 2,-2 4,-2 1,1 2,2 1,3l-1364 4333z"/>
     <path class="fil2" d="M4276 3303c0,1 -2,2 -3,1 -1,0 -2,-2 -2,-3l1364 -4332c1,-1 2,-2 4,-2 1,1 2,2 2,3l-1365 4333z"/>
     <path class="fil2" d="M4368 3303c0,1 -2,2 -3,1 -1,0 -2,-2 -2,-3l1365 -4332c0,-1 1,-2 3,-2 1,1 2,2 2,3l-1365 4333z"/>
     <path class="fil2" d="M4460 3303c0,1 -2,2 -3,1 -1,0 -2,-2 -2,-3l1365 -4332c0,-1 1,-2 3,-2 1,1 2,2 2,3l-1365 4333z"/>
     <path class="fil2" d="M4552 3303c0,1 -2,2 -3,1 -1,0 -2,-2 -2,-3l1365 -4332c0,-1 2,-2 3,-2 1,1 2,2 2,3l-1365 4333z"/>
     <path class="fil2" d="M4644 3303c0,1 -1,2 -3,1 -1,0 -2,-2 -2,-3l1365 -4332c0,-1 2,-2 3,-2 1,1 2,2 2,3l-1365 4333z"/>
     <path class="fil2" d="M4736 3303c0,1 -1,2 -3,1 -1,0 -2,-2 -2,-3l1365 -4332c0,-1 2,-2 3,-2 1,1 2,2 2,3l-1365 4333z"/>
     <path class="fil2" d="M4829 3303c-1,1 -2,2 -4,1 -1,0 -2,-2 -2,-3l1365 -4332c0,-1 2,-2 3,-2 1,1 2,2 2,3l-1364 4333z"/>
     <path class="fil2" d="M4921 3303c-1,1 -2,2 -4,1 -1,0 -2,-2 -1,-3l1364 -4332c0,-1 2,-2 3,-2 1,1 2,2 2,3l-1364 4333z"/>
     <path class="fil2" d="M5013 3303c-1,1 -2,2 -4,1 -1,0 -2,-2 -1,-3l1364 -4332c0,-1 2,-2 3,-2 2,1 2,2 2,3l-1364 4333z"/>
     <path class="fil2" d="M5105 3303c-1,1 -2,2 -4,1 -1,0 -2,-2 -1,-3l1364 -4332c0,-1 2,-2 3,-2 2,1 2,2 2,3l-1364 4333z"/>
     <path class="fil2" d="M5197 3303c-1,1 -2,2 -4,1 -1,0 -2,-2 -1,-3l1364 -4332c0,-1 2,-2 3,-2 2,1 2,2 2,3l-1364 4333z"/>
     <path class="fil2" d="M5289 3303c-1,1 -2,2 -4,1 -1,0 -2,-2 -1,-3l1364 -4332c0,-1 2,-2 3,-2 2,1 2,2 2,3l-1364 4333z"/>
     <path class="fil2" d="M5381 3303c-1,1 -2,2 -3,1 -2,0 -3,-2 -2,-3l1364 -4332c0,-1 2,-2 3,-2 2,1 2,2 2,3l-1364 4333z"/>
     <path class="fil2" d="M5473 3303c-1,1 -2,2 -3,1 -2,0 -3,-2 -2,-3l1364 -4332c1,-1 2,-2 3,-2 2,1 3,2 2,3l-1364 4333z"/>
     <path class="fil2" d="M5565 3303c-1,1 -2,2 -3,1 -2,0 -3,-2 -2,-3l1364 -4332c1,-1 2,-2 3,-2 2,1 3,2 2,3l-1364 4333z"/>
     <path class="fil2" d="M5657 3303c0,1 -2,2 -3,1 -2,0 -3,-2 -2,-3l1364 -4332c1,-1 2,-2 3,-2 2,1 3,2 2,3l-1364 4333z"/>
     <path class="fil2" d="M3448 3303c-1,1 -2,2 -3,1 -2,0 -3,-2 -2,-3l1364 -4332c0,-1 2,-2 3,-2 2,1 3,2 2,3l-1364 4333z"/>
    </g>
   </g>
   <path class="fil3 str4" d="M4007 2270l-1261 728 0 -1709c8,-123 51,-264 129,-400 79,-136 179,-244 282,-313l437 -252c103,-50 204,-58 283,-13 79,46 122,137 130,252l0 1707zm-850 -1694l0 0 0 0z"/>
   <polygon class="fil0" points="2258,2154 2258,2717 2746,2998 2746,2436 "/>
   <polygon class="fil0" points="4007,1707 4007,2270 2746,2998 2746,2436 "/>
  </g>
  <path class="fil4" d="M342 5876c0,-29 -10,-53 -31,-71 -21,-17 -60,-33 -116,-49 -56,-16 -96,-33 -122,-52 -37,-26 -55,-60 -55,-103 0,-41 17,-75 51,-101 34,-25 77,-38 130,-38 36,0 68,7 97,20 28,14 50,34 65,58 16,25 24,53 24,83l-46 0c0,-37 -13,-67 -38,-89 -25,-22 -59,-34 -102,-34 -41,0 -74,10 -98,28 -25,18 -37,43 -37,72 0,28 11,50 33,67 22,18 57,33 106,46 48,13 85,27 110,41 25,15 43,32 56,51 13,20 19,44 19,71 0,42 -17,76 -51,102 -34,26 -79,39 -134,39 -38,0 -73,-7 -105,-21 -32,-13 -56,-32 -72,-57 -17,-24 -25,-52 -25,-84l46 0c0,38 14,68 42,90 29,22 66,33 114,33 42,0 75,-9 101,-28 25,-18 38,-43 38,-74z"/>
  <path id="1" class="fil4" d="M532 5790l0 219 -45 0 0 -540 183 0c57,0 101,15 133,43 33,29 49,69 49,119 0,51 -15,90 -47,117 -31,28 -76,42 -136,42l-137 0zm0 -39l138 0c45,0 78,-10 102,-32 23,-21 35,-50 35,-88 0,-37 -12,-67 -35,-89 -23,-22 -56,-33 -98,-34l-142 0 0 243z"/>
  <polygon id="2" class="fil4" points="1252,5750 1000,5750 1000,5971 1290,5971 1290,6009 954,6009 954,5469 1288,5469 1288,5508 1000,5508 1000,5712 1252,5712 "/>
  <path id="3" class="fil4" d="M1678 5857l-245 0 -56 152 -48 0 204 -540 44 0 204 540 -47 0 -56 -152zm-231 -38l216 0 -108 -294 -108 294z"/>
  <polygon id="4" class="fil4" points="1982,5741 1906,5816 1906,6009 1860,6009 1860,5469 1906,5469 1906,5760 2182,5469 2240,5469 2014,5710 2257,6009 2202,6009 "/>
  <polygon id="5" class="fil4" points="2638,5750 2385,5750 2385,5971 2675,5971 2675,6009 2339,6009 2339,5469 2673,5469 2673,5508 2385,5508 2385,5712 2638,5712 "/>
  <path id="6" class="fil4" d="M2973 5784l-157 0 0 225 -46 0 0 -540 176 0c57,0 102,14 135,42 32,28 48,67 48,117 0,35 -10,65 -30,92 -20,26 -48,45 -82,55l135 229 0 5 -48 0 -131 -225zm-157 -38l140 0c38,0 69,-11 92,-33 24,-22 35,-50 35,-85 0,-38 -12,-67 -36,-88 -24,-21 -58,-32 -102,-32l-129 0 0 238z"/>
  <path id="7" class="fil4" d="M3520 5715c-22,-26 -38,-49 -47,-70 -10,-20 -15,-41 -15,-61 0,-37 11,-67 34,-89 22,-22 52,-33 90,-33 35,0 62,10 84,30 21,19 32,45 32,75 0,36 -21,71 -62,105l-59 46 148 173c23,-36 34,-77 34,-123l41 0c0,61 -16,113 -48,155l74 86 -53 0 -47 -54c-19,19 -42,34 -68,46 -25,10 -52,16 -81,16 -51,0 -92,-13 -122,-40 -30,-26 -45,-61 -45,-105 0,-27 8,-51 23,-75 15,-23 43,-49 81,-79l6 -3zm57 265c23,0 45,-5 66,-15 21,-9 40,-23 57,-40l-151 -176 -5 -5 -17 13c-49,39 -73,78 -73,115 0,32 11,58 33,78 23,20 53,30 90,30zm-74 -397c0,30 16,66 50,107l48 -37c16,-12 29,-24 39,-38 10,-13 15,-29 15,-47 0,-20 -6,-36 -20,-49 -13,-13 -31,-19 -53,-19 -24,0 -44,7 -58,23 -14,16 -21,36 -21,60z"/>
  <path id="8" class="fil4" d="M4136 5790l0 219 -46 0 0 -540 184 0c56,0 100,15 133,43 32,29 49,69 49,119 0,51 -16,90 -47,117 -32,28 -77,42 -136,42l-137 0zm0 -39l138 0c44,0 78,-10 101,-32 23,-21 35,-50 35,-88 0,-37 -12,-67 -35,-89 -23,-22 -55,-33 -98,-34l-141 0 0 243z"/>
  <path id="9" class="fil4" d="M4798 5857l-245 0 -56 152 -48 0 205 -540 43 0 204 540 -47 0 -56 -152zm-231 -38l217 0 -109 -294 -108 294z"/>
  <polygon id="10" class="fil4" points="5383,6009 5337,6009 5027,5547 5027,6009 4981,6009 4981,5469 5027,5469 5337,5932 5337,5469 5383,5469 "/>
  <polygon id="11" class="fil4" points="5818,5750 5565,5750 5565,5971 5856,5971 5856,6009 5520,6009 5520,5469 5854,5469 5854,5508 5565,5508 5565,5712 5818,5712 "/>
  <polygon id="12" class="fil4" points="5998,5971 6264,5971 6264,6009 5952,6009 5952,5469 5998,5469 "/>
  <path id="13" class="fil4" d="M1756 6633c0,-30 -10,-54 -31,-71 -21,-18 -60,-34 -115,-50 -56,-15 -97,-33 -123,-51 -36,-26 -55,-61 -55,-103 0,-42 17,-75 51,-101 34,-26 78,-39 131,-39 35,0 68,7 96,21 28,14 50,33 66,58 15,25 23,52 23,83l-46 0c0,-37 -13,-67 -38,-89 -25,-23 -59,-34 -101,-34 -42,0 -75,9 -99,28 -24,18 -37,42 -37,72 0,27 11,50 33,67 22,17 58,32 106,46 48,13 85,27 110,41 25,14 44,31 56,51 13,20 19,43 19,70 0,43 -17,77 -51,103 -34,25 -78,38 -134,38 -38,0 -73,-7 -105,-20 -32,-14 -56,-33 -72,-57 -17,-25 -25,-53 -25,-84l46 0c0,38 14,68 42,90 29,22 67,33 114,33 42,0 76,-10 101,-28 26,-19 38,-43 38,-74z"/>
  <polygon id="14" class="fil4" points="2199,6507 1946,6507 1946,6727 2237,6727 2237,6766 1901,6766 1901,6226 2235,6226 2235,6265 1946,6265 1946,6468 2199,6468 "/>
  <path id="15" class="fil4" d="M2638 6633c0,-30 -10,-54 -31,-71 -21,-18 -60,-34 -116,-50 -55,-15 -96,-33 -122,-51 -37,-26 -55,-61 -55,-103 0,-42 17,-75 51,-101 34,-26 77,-39 130,-39 36,0 68,7 97,21 28,14 50,33 66,58 15,25 23,52 23,83l-46 0c0,-37 -13,-67 -38,-89 -25,-23 -59,-34 -102,-34 -41,0 -74,9 -98,28 -25,18 -37,42 -37,72 0,27 11,50 33,67 22,17 57,32 106,46 48,13 85,27 110,41 25,14 44,31 56,51 13,20 19,43 19,70 0,43 -17,77 -51,103 -34,25 -79,38 -134,38 -38,0 -73,-7 -105,-20 -32,-14 -56,-33 -72,-57 -17,-25 -25,-53 -25,-84l46 0c0,38 14,68 42,90 29,22 67,33 114,33 42,0 75,-10 101,-28 26,-19 38,-43 38,-74z"/>
  <path id="16" class="fil4" d="M3088 6633c0,-30 -11,-54 -32,-71 -21,-18 -59,-34 -115,-50 -56,-15 -97,-33 -122,-51 -37,-26 -55,-61 -55,-103 0,-42 17,-75 51,-101 34,-26 77,-39 130,-39 36,0 68,7 97,21 28,14 50,33 65,58 16,25 24,52 24,83l-46 0c0,-37 -13,-67 -38,-89 -25,-23 -59,-34 -102,-34 -41,0 -74,9 -98,28 -25,18 -37,42 -37,72 0,27 11,50 33,67 22,17 57,32 106,46 48,13 85,27 110,41 25,14 43,31 56,51 13,20 19,43 19,70 0,43 -17,77 -51,103 -34,25 -79,38 -134,38 -38,0 -73,-7 -105,-20 -32,-14 -56,-33 -72,-57 -17,-25 -25,-53 -25,-84l45 0c0,38 15,68 43,90 29,22 66,33 114,33 42,0 75,-10 101,-28 25,-19 38,-43 38,-74z"/>
  <polygon id="17" class="fil4" points="3288,6766 3242,6766 3242,6226 3288,6226 "/>
  <path id="18" class="fil4" d="M3834 6525c0,50 -9,93 -26,131 -17,38 -42,67 -74,87 -32,20 -68,30 -110,30 -63,0 -114,-22 -153,-67 -39,-46 -58,-106 -58,-183l0 -56c0,-49 8,-93 26,-131 17,-38 42,-67 74,-87 32,-21 68,-31 110,-31 42,0 78,10 110,30 32,20 56,49 74,85 17,37 26,79 27,127l0 65zm-46 -58c0,-65 -15,-116 -44,-153 -29,-37 -70,-56 -121,-56 -50,0 -90,19 -120,56 -30,37 -45,89 -45,155l0 56c0,64 15,115 45,153 30,37 70,56 121,56 51,0 92,-19 121,-56 29,-37 43,-88 43,-154l0 -57z"/>
  <polygon id="19" class="fil4" points="4351,6766 4305,6766 3995,6304 3995,6766 3949,6766 3949,6226 3995,6226 4305,6688 4305,6226 4351,6226 "/>
  <path id="20" class="fil4" d="M4793 6633c0,-30 -10,-54 -31,-71 -21,-18 -60,-34 -116,-50 -55,-15 -96,-33 -122,-51 -37,-26 -55,-61 -55,-103 0,-42 17,-75 51,-101 34,-26 77,-39 130,-39 36,0 68,7 97,21 28,14 50,33 66,58 15,25 23,52 23,83l-46 0c0,-37 -13,-67 -38,-89 -25,-23 -59,-34 -102,-34 -41,0 -74,9 -98,28 -25,18 -37,42 -37,72 0,27 11,50 33,67 22,17 57,32 106,46 48,13 85,27 110,41 25,14 44,31 56,51 13,20 19,43 19,70 0,43 -17,77 -51,103 -34,25 -79,38 -134,38 -38,0 -73,-7 -105,-20 -32,-14 -56,-33 -72,-57 -17,-25 -25,-53 -25,-84l46 0c0,38 14,68 42,90 29,22 67,33 114,33 42,0 75,-10 101,-28 25,-19 38,-43 38,-74z"/>
 </g>
</svg>
