<?xml version="1.0" encoding="UTF-8"?>
<!DOCTYPE svg PUBLIC "-//W3C//DTD SVG 1.1//EN" "http://www.w3.org/Graphics/SVG/1.1/DTD/svg11.dtd">
<!-- Creator: CorelDRAW X7 -->
<svg xmlns="http://www.w3.org/2000/svg" xml:space="preserve" width="58.1658mm" height="34.7978mm" version="1.1" style="shape-rendering:geometricPrecision; text-rendering:geometricPrecision; image-rendering:optimizeQuality; fill-rule:evenodd; clip-rule:evenodd"
viewBox="0 0 5817 3480"
 xmlns:xlink="http://www.w3.org/1999/xlink">
 <defs>
  <style type="text/css">
   <![CDATA[
    .str11 {stroke:#FFF4F0;stroke-width:16.93;stroke-linecap:round;stroke-linejoin:round}
    .str2 {stroke:#FFF4F0;stroke-width:16.56;stroke-linecap:round;stroke-linejoin:round}
    .str8 {stroke:#FFF4F0;stroke-width:16.56;stroke-linecap:round;stroke-linejoin:round}
    .str7 {stroke:#FFF4F0;stroke-width:16.56;stroke-linecap:round;stroke-linejoin:round}
    .str9 {stroke:#FFF4F0;stroke-width:16.56;stroke-linecap:round;stroke-linejoin:round}
    .str1 {stroke:#FFF4F0;stroke-width:16.56;stroke-linecap:round;stroke-linejoin:round}
    .str10 {stroke:#FFF4F0;stroke-width:16.56;stroke-linecap:round;stroke-linejoin:round}
    .str5 {stroke:#FFF4F0;stroke-width:16.56;stroke-linecap:round;stroke-linejoin:round}
    .str4 {stroke:#FFF4F0;stroke-width:16.56;stroke-linecap:round;stroke-linejoin:round}
    .str6 {stroke:#FFF4F0;stroke-width:16.56;stroke-linecap:round;stroke-linejoin:round}
    .str3 {stroke:#FFF4F0;stroke-width:16.56;stroke-linecap:round;stroke-linejoin:round}
    .str17 {stroke:#FFF4F0;stroke-width:15.2;stroke-linecap:round;stroke-linejoin:round}
    .str13 {stroke:#FFF4F0;stroke-width:15.2;stroke-linecap:round;stroke-linejoin:round}
    .str14 {stroke:#FFF4F0;stroke-width:15.2;stroke-linecap:round;stroke-linejoin:round}
    .str15 {stroke:#FFF4F0;stroke-width:15.2;stroke-linecap:round;stroke-linejoin:round}
    .str12 {stroke:#FFF4F0;stroke-width:15.2;stroke-linecap:round;stroke-linejoin:round}
    .str16 {stroke:#FFF4F0;stroke-width:15.21;stroke-linecap:round;stroke-linejoin:round}
    .str0 {stroke:#FFF4F0;stroke-width:22.35;stroke-linecap:round;stroke-linejoin:round;stroke-dasharray:44.700000 89.400000}
    .fil0 {fill:none}
    .fil3 {fill:#61003F}
    .fil5 {fill:#DB4C1C}
    .fil2 {fill:#FFF4F0}
    .fil4 {fill:#FFF4F0;fill-rule:nonzero}
    .fil1 {fill:#FFF4F0;fill-rule:nonzero}
   ]]>
  </style>
    <clipPath id="id0">
     <path d="M5521 3094c34,0 62,17 62,37 0,20 -28,36 -62,36 -35,0 -63,-16 -63,-36 0,-20 28,-37 63,-37z"/>
    </clipPath>
 </defs>
 <g id="Layer_x0020_1">
  <metadata id="CorelCorpID_0Corel-Layer"/>
  <g id="_2595009720432">
   <line class="fil0 str0" x1="2570" y1="350" x2="2570" y2= "2673" />
   <polygon class="fil1" points="1941,1216 1609,1216 1609,2118 1342,2118 1342,1216 1015,1216 1015,1010 1941,1010 "/>
   <polygon id="1" class="fil1" points="2741,1647 2321,1647 2321,1912 2817,1912 2817,2118 2054,2118 2054,1010 2818,1010 2818,1216 2321,1216 2321,1449 2741,1449 "/>
   <path id="2" class="fil1" d="M3821 1743c-3,77 -24,145 -62,204 -38,59 -92,105 -160,137 -69,33 -147,49 -236,49 -145,0 -260,-47 -343,-142 -84,-95 -126,-229 -126,-402l0 -55c0,-108 19,-203 57,-284 38,-82 92,-145 163,-189 71,-45 153,-67 246,-67 135,0 243,36 324,107 82,70 128,168 140,292l-267 0c-2,-68 -19,-116 -51,-146 -31,-29 -80,-44 -146,-44 -66,0 -115,25 -146,75 -31,49 -47,129 -48,238l0 79c0,118 14,202 44,253 30,51 81,76 153,76 62,0 109,-14 141,-43 33,-29 50,-75 52,-138l265 0z"/>
   <polygon id="3" class="fil1" points="4874,2118 4608,2118 4608,1655 4215,1655 4215,2118 3948,2118 3948,1010 4215,1010 4215,1449 4608,1449 4608,1010 4874,1010 "/>
   <polygon id="4" class="fil1" points="1766,2993 1347,2993 1347,3258 1843,3258 1843,3464 1079,3464 1079,2356 1844,2356 1844,2562 1347,2562 1347,2795 1766,2795 "/>
   <polygon id="5" class="fil1" points="2364,2724 2545,2356 2850,2356 2541,2905 2859,3464 2551,3464 2364,3089 2178,3464 1871,3464 2188,2905 1879,2356 2183,2356 "/>
   <path id="6" class="fil1" d="M3212 3087l0 377 -266 0 0 -1108 441 0c85,0 160,16 225,47 65,31 116,75 152,133 35,57 53,122 53,195 0,108 -39,194 -116,259 -77,65 -183,97 -318,97l-171 0zm0 -206l175 0c52,0 92,-13 119,-39 27,-26 40,-62 40,-109 0,-52 -14,-93 -41,-124 -28,-31 -66,-47 -114,-47l-179 0 0 319z"/>
   <path id="7" class="fil1" d="M4897 2933c0,108 -20,204 -60,287 -40,83 -97,147 -171,192 -74,45 -158,67 -252,67 -94,0 -178,-21 -251,-65 -73,-43 -130,-105 -171,-186 -41,-81 -62,-173 -64,-278l0 -62c0,-109 19,-204 59,-288 40,-82 97,-147 172,-192 74,-45 158,-67 253,-67 94,0 178,22 251,66 74,45 131,109 172,191 41,83 61,177 62,284l0 51zm-272 -47c0,-110 -18,-194 -55,-251 -37,-57 -89,-86 -158,-86 -134,0 -204,101 -212,302l-1 82c0,108 18,192 54,250 36,58 90,88 161,88 67,0 119,-29 156,-87 36,-57 55,-139 55,-247l0 -51z"/>
   <rect class="fil2" x="1254" y="2955" width="1047.24" height="15.5895"/>
   <rect class="fil2" x="2649" y="2599" width="1047.24" height="31.1821"/>
   <rect class="fil2" x="1344" y="2821" width="609.18" height="9.06775"/>
   <rect class="fil3" x="1009" y="2847" width="1003.87" height="31.1821"/>
   <rect class="fil2" x="2481" y="2556" width="785.431" height="14.3275"/>
   <rect class="fil3" x="2390" y="2646" width="609.18" height="9.06775"/>
   <rect class="fil3" x="2103" y="2532" width="785.431" height="3.99152"/>
   <rect class="fil3" x="1278" y="2661" width="523.616" height="31.1821"/>
   <rect class="fil2" x="1220" y="2728" width="480.518" height="20.5867"/>
   <rect class="fil2" x="1079" y="3294" width="460.619" height="20.5867"/>
   <rect class="fil2" x="971" y="3059" width="230.307" height="41.1776"/>
   <rect class="fil2" x="1119" y="3117" width="267.942" height="11.9745"/>
   <rect class="fil3" x="887" y="3151" width="460.619" height="41.1776"/>
   <rect class="fil2" x="3539" y="1396" width="1047.24" height="15.5895"/>
   <rect class="fil2" x="2149" y="2823" width="1047.24" height="31.1821"/>
   <rect class="fil2" x="2550" y="2413" width="1047.24" height="31.1821"/>
   <rect class="fil2" x="3629" y="1262" width="609.18" height="9.06775"/>
   <rect class="fil3" x="3102" y="1288" width="1047.24" height="31.1821"/>
   <rect class="fil3" x="2290" y="2460" width="609.18" height="9.06775"/>
   <rect class="fil3" x="2004" y="2346" width="785.431" height="3.99152"/>
   <rect class="fil3" x="3563" y="1102" width="523.616" height="31.1821"/>
   <rect class="fil2" x="3506" y="1169" width="480.518" height="20.5867"/>
   <rect class="fil2" x="3175" y="1736" width="480.518" height="20.5867"/>
   <rect class="fil2" x="3063" y="1500" width="240.257" height="41.1776"/>
   <rect class="fil2" x="3217" y="1558" width="279.517" height="11.9745"/>
   <rect class="fil3" x="2975" y="1592" width="480.518" height="41.1776"/>
   <rect class="fil2" x="3547" y="3149" width="329.737" height="40.1335"/>
   <rect class="fil2" x="3758" y="3205" width="383.62" height="11.6708"/>
   <rect class="fil3" x="3426" y="3239" width="659.48" height="40.1335"/>
   <rect class="fil2" x="4183" y="3119" width="659.48" height="20.0647"/>
   <rect class="fil2" x="4321" y="2945" width="383.62" height="11.6708"/>
   <rect class="fil3" x="4254" y="2979" width="659.48" height="40.1335"/>
   <rect class="fil2" x="2447" y="1784" width="214.881" height="26.154"/>
   <rect class="fil2" x="2274" y="1766" width="249.995" height="7.60558"/>
   <rect class="fil3" x="2310" y="1725" width="429.767" height="26.154"/>
   <rect class="fil2" x="3721" y="3120" width="429.767" height="13.0757"/>
   <rect class="fil2" x="1907" y="1953" width="214.881" height="26.154"/>
   <rect class="fil2" x="3863" y="3238" width="249.995" height="7.60558"/>
   <rect class="fil3" x="1771" y="1895" width="429.767" height="26.154"/>
   <polygon class="fil2 str1" points="899,2007 899,1821 1072,1916 1072,2108 "/>
   <polygon class="fil3 str2" points="153,2438 153,2252 325,2346 325,2539 "/>
   <path class="fil3 str3" d="M154 2439c-96,-55 -155,-132 -155,-216 0,-32 9,-64 25,-93 26,47 71,89 129,122l0 0 0 186 1 1zm-129 -309c4,-8 8,-15 13,-22 -5,7 -9,14 -13,22zm18 -29c4,-5 8,-10 12,-15 -4,5 -8,10 -12,15zm29 -33c3,-2 6,-5 9,-8 -3,3 -6,6 -9,8z"/>
   <polygon class="fil3" points="-1,2080 24,2081 24,2135 27,2139 24,2144 24,2223 2,2222 "/>
   <path class="fil2 str4" d="M526 1732c146,0 278,34 373,90l0 186c-95,-56 -227,-90 -373,-90 -235,0 -434,89 -502,212 -16,-29 -25,-61 -25,-93 0,-169 236,-305 527,-305zm-445 468c-3,-3 -6,-6 -9,-8 3,2 6,5 9,8zm-21 -21c-6,-6 -12,-13 -17,-20 5,7 11,14 17,20zm-22 -27c-5,-7 -9,-14 -13,-22 4,8 8,15 13,22z"/>
   <line class="fil0 str5" x1="-1" y1="2037" x2="-1" y2= "2223" />
   <line class="fil0 str6" x1="153" y1="2252" x2="153" y2= "2438" />
   <line class="fil0 str6" x1="899" y1="1821" x2="899" y2= "2009" />
   <path class="fil3 str7" d="M507 2604c-53,31 -107,38 -148,15 -41,-24 -61,-74 -62,-136 0,-62 21,-135 62,-206 41,-71 94,-125 148,-156l0 0 418 -242 0 0c54,-31 108,-38 149,-15 41,24 61,74 61,136 0,62 -20,136 -61,206 -41,71 -94,125 -148,156l0 1 0 0 -418 241 -1 0z"/>
   <polygon class="fil3" points="359,2277 1074,1864 1388,2046 673,2800 359,2619 "/>
   <line class="fil0 str2" x1="359" y1="2277" x2="673" y2= "2458" />
   <line class="fil0 str2" x1="297" y1="2483" x2="612" y2= "2664" />
   <line class="fil0 str2" x1="359" y1="2619" x2="673" y2= "2800" />
   <line class="fil0 str2" x1="1055" y1="1856" x2="1388" y2= "2046" />
   <path class="fil3 str8" d="M769 2755c-54,31 -107,39 -148,15 -41,-24 -62,-74 -62,-136 0,-62 21,-135 62,-206 40,-71 94,-125 147,-156l0 0 419 -242 0 0c54,-31 108,-38 149,-14 41,23 61,73 61,135 0,62 -20,136 -61,206 -41,71 -94,126 -148,156l0 1 0 0 -418 241 -1 0z"/>
   <path class="fil3 str9" d="M821 2786c-53,30 -107,38 -148,14 -41,-24 -61,-74 -61,-136 0,-61 20,-135 61,-206 41,-70 94,-125 148,-156l0 0 418 -241 1 -1c53,-31 107,-38 148,-14 41,24 61,74 61,136 0,61 -20,135 -61,206 -41,70 -94,125 -148,156l0 0 0 0 -418 241 -1 1z"/>
   <line class="fil0 str2" x1="1030" y1="2181" x2="1031" y2= "2665" />
   <g>
    <path class="fil3" d="M652 2153c25,0 45,12 45,26 0,15 -20,26 -45,26 -24,0 -44,-11 -44,-26 0,-14 20,-26 44,-26z"/>
    <path id="1" class="fil4" d="M706 2179l-17 0 0 0 0 0 0 -1 0 -1 0 0 -1 -1 0 -1 0 0 -1 -1 0 -1 -1 -1 -1 0 -1 -1 -1 -1 -1 -1 -1 0 -1 -1 -1 -1 -2 0 -1 -1 -1 -1 -2 0 -2 -1 -1 0 -2 -1 -2 0 -2 0 -2 -1 -1 0 -2 0 -2 0 -2 0 -3 0 0 -17 3 0 3 0 2 0 3 1 2 0 2 0 3 1 2 0 2 1 2 1 3 0 2 1 2 1 2 1 2 1 1 1 2 1 2 1 2 1 1 2 2 1 1 1 1 2 2 1 1 2 1 2 1 1 0 2 1 2 0 2 1 2 0 2 0 0zm-54 35l0 -17 0 0 3 0 2 0 2 0 2 0 1 -1 2 0 2 0 2 -1 2 0 1 -1 2 0 2 -1 1 0 1 -1 2 -1 1 0 1 -1 1 -1 1 -1 1 0 1 -1 1 -1 1 -1 0 0 1 -1 0 -1 0 -1 1 0 0 -1 0 0 0 -1 0 -1 17 0 0 2 -1 2 0 2 -1 2 0 2 -1 2 -1 2 -1 1 -2 2 -1 1 -1 2 -2 1 -1 1 -2 2 -2 1 -2 1 -1 1 -2 1 -2 1 -2 1 -2 0 -3 1 -2 1 -2 0 -2 1 -3 0 -2 1 -2 0 -3 0 -2 0 -3 0 -3 1 0 0zm-53 -35l17 0 0 0 0 1 0 1 0 0 0 1 1 0 0 1 0 1 1 1 0 0 1 1 1 1 1 1 1 0 1 1 1 1 1 1 1 0 2 1 1 1 1 0 2 1 2 0 1 1 2 0 2 1 2 0 2 0 1 1 2 0 2 0 2 0 2 0 0 17 -2 -1 -3 0 -2 0 -3 0 -2 0 -2 -1 -3 0 -2 -1 -2 0 -2 -1 -3 -1 -2 -1 -2 0 -2 -1 -2 -1 -1 -1 -2 -1 -2 -1 -2 -2 -1 -1 -2 -1 -1 -2 -1 -1 -2 -2 -1 -1 -1 -2 -1 -2 0 -2 -1 -2 0 -2 -1 -2 0 -2 0 0zm53 -34l0 17 0 0 -2 0 -2 0 -2 0 -2 0 -1 0 -2 1 -2 0 -2 0 -2 1 -1 0 -2 1 -2 0 -1 1 -1 1 -2 0 -1 1 -1 1 -1 0 -1 1 -1 1 -1 1 -1 0 -1 1 0 1 -1 1 0 0 0 1 -1 1 0 0 0 1 0 1 0 0 -17 0 0 -2 1 -2 0 -2 1 -2 0 -2 1 -1 1 -2 1 -2 2 -1 1 -2 1 -1 2 -1 1 -2 2 -1 2 -1 2 -1 1 -1 2 -1 2 -1 2 -1 2 -1 3 0 2 -1 2 -1 2 0 3 -1 2 0 2 0 3 -1 2 0 3 0 2 0 0 0z"/>
   </g>
   <line class="fil0 str10" x1="1080" y1="2218" x2="1231" y2= "2130" />
   <line class="fil0 str10" x1="1080" y1="2239" x2="1269" y2= "2130" />
   <line class="fil0 str10" x1="1080" y1="2261" x2="1193" y2= "2196" />
   <line class="fil0 str10" x1="1080" y1="2283" x2="1250" y2= "2185" />
   <path class="fil3" d="M4882 2577c-98,57 -381,299 -439,209l0 60c0,9 6,18 16,25l831 480c12,4 25,7 40,7 15,0 29,-3 40,-7l428 -247c8,-7 13,-15 13,-24l0 -59c-45,80 -718,-371 -844,-444 -12,-5 -27,-9 -43,-9 -16,0 -31,4 -42,9z"/>
   <g>
    <path class="fil4" d="M4885 2583c-23,13 -57,37 -96,65 -39,28 -83,59 -127,87 -87,55 -172,97 -212,68l0 43c0,3 1,7 3,10 2,3 6,6 10,9l830 480c6,2 11,3 18,5 6,1 12,1 19,1 7,0 14,0 20,-1 6,-2 12,-3 17,-5l427 -247c3,-3 6,-5 8,-9 1,-2 2,-5 2,-9l0 -47c-39,14 -151,-37 -282,-110 -144,-80 -311,-185 -428,-259 -59,-37 -106,-67 -130,-81 -6,-3 -12,-5 -19,-6 -6,-2 -13,-2 -21,-2 -7,0 -15,0 -21,2 -7,1 -13,3 -18,6zm-104 54c39,-27 73,-52 97,-65l1 -1c6,-3 13,-5 21,-7 8,-1 16,-2 24,-2 8,0 17,1 24,2 8,2 15,4 21,7l0 0 1 1c25,14 72,44 131,81 117,74 284,179 427,258 143,80 261,134 277,107 1,-2 3,-4 6,-4 3,0 6,3 6,7l0 59c0,6 -1,11 -4,16 -3,4 -6,9 -11,13l-1 0 -427 247c-1,0 -1,0 -1,1 -7,2 -13,4 -21,5 -7,2 -14,2 -22,2 -7,0 -15,0 -22,-2 -7,-1 -14,-3 -20,-5l-1 -1 -831 -480 0 0c-6,-4 -11,-8 -14,-13 -3,-6 -5,-11 -5,-17l0 -60 0 0c0,-2 1,-4 3,-5 3,-2 7,-1 9,2 27,42 115,-1 206,-59 43,-28 87,-59 126,-87zm97 -65l0 0 0 0zm-422 304l0 0 0 0z"/>
   </g>
   <path class="fil3" d="M4882 2518l-423 243c-10,7 -16,16 -16,25 0,10 6,18 16,25l831 480c12,5 25,7 40,7 15,0 29,-2 40,-7l428 -247c8,-7 13,-15 13,-23 0,-9 -5,-17 -13,-24l-831 -479c-12,-6 -27,-9 -43,-9 -16,0 -31,3 -42,9z"/>
   <g>
    <path class="fil4" d="M4885 2523l0 0 -422 244c-4,3 -8,6 -10,10 -2,3 -3,6 -3,9 0,4 1,7 3,10 2,3 6,7 10,10l830 479c6,2 11,4 18,5 6,1 12,2 19,2 7,0 14,-1 20,-2 6,-1 12,-3 17,-5l427 -246c3,-3 6,-6 8,-9 1,-3 2,-6 2,-9 0,-3 -1,-6 -2,-9 -2,-3 -5,-6 -8,-9l-830 -480c-6,-2 -12,-4 -19,-6 -6,-1 -13,-2 -21,-2 -7,0 -15,1 -21,2 -7,2 -13,4 -18,6zm-429 233l422 -244 1 0c6,-3 13,-6 21,-7 8,-2 16,-3 24,-3 8,0 17,1 24,3 8,1 15,4 21,7l0 0 1 0 831 480 1 0c5,4 8,9 11,13 3,5 4,10 4,16 0,5 -1,10 -4,15 -3,5 -6,9 -11,13l-1 1 -427 246c-1,1 -1,1 -1,1 -7,2 -13,4 -21,6 -7,1 -14,2 -22,2 -7,0 -15,-1 -22,-2 -7,-2 -14,-4 -20,-6l-1 0 -831 -480 0 -1c-6,-3 -11,-8 -14,-13 -3,-5 -5,-11 -5,-17 0,-6 2,-11 5,-16 3,-5 8,-10 13,-14l1 0zm-1 0l1 0 -1 0zm1 61l0 0 0 0z"/>
   </g>
   <polygon class="fil3" points="5229,3226 4543,2830 5000,2566 5686,2962 "/>
   <path class="fil4" d="M5225 3232l-685 -396c-3,-2 -4,-6 -2,-9 0,-1 1,-2 2,-2l0 0 457 -264c2,-2 5,-1 7,0l685 395c3,2 4,6 2,9 0,1 -1,2 -2,3l-457 264c-2,1 -5,1 -7,0zm-669 -402l673 388 444 -256 -673 -388 -444 256z"/>
   <path class="fil2" d="M4680 2704c-3,1 -6,2 -10,2 -7,0 -13,-3 -13,-8 0,-2 1,-4 4,-5l101 -59c3,-1 6,-2 10,-2 7,0 13,3 13,8 0,2 -1,4 -4,5l0 0 -101 59z"/>
   <path class="fil4" d="M4682 2707c-2,1 -4,2 -6,2l0 0c-2,1 -4,1 -6,1 -4,0 -8,-1 -11,-3 -4,-2 -6,-5 -6,-9 0,-2 0,-3 2,-5 1,-2 2,-3 4,-4l0 0 101 -58c2,-1 4,-2 6,-2l0 0c2,-1 4,-1 6,-1 4,0 8,1 11,3 4,2 6,5 6,9 0,0 0,1 0,1l7 0 -12 7 -1 1 0 0 0 0 -101 58 0 0zm-7 -5c1,0 2,-1 3,-1l0 0 98 -57 3 -2c1,-1 2,-1 2,-2 0,0 1,0 1,0 0,-1 -1,-2 -3,-3 -1,-1 -4,-1 -7,-1 -2,0 -3,0 -5,0l0 0c-1,0 -2,1 -3,1l-101 59 0 0c-1,0 -2,1 -2,1l0 1c0,0 0,0 0,0 0,1 0,2 2,3 1,1 4,1 7,1 2,0 3,0 5,0l0 0z"/>
   <path class="fil2" d="M4637 2710c7,0 13,3 13,8 0,4 -6,8 -13,8 -8,0 -14,-4 -14,-8 0,-5 6,-8 14,-8z"/>
   <path class="fil4" d="M4637 2706c4,0 8,1 11,3 4,2 6,5 6,9 0,3 -2,6 -6,9l0 0c-3,1 -7,2 -11,2 -5,0 -9,-1 -12,-2 -4,-2 -6,-6 -6,-9 0,-4 2,-7 6,-9l0 0c3,-2 7,-3 12,-3zm7 9c-2,-1 -4,-1 -7,-1 -3,0 -6,0 -8,1l0 0c-1,1 -2,2 -2,3 0,0 1,1 2,2 2,1 5,2 8,2 3,0 5,-1 7,-2l0 0c2,-1 2,-2 2,-2 0,-1 0,-2 -2,-3z"/>
   <path class="fil3" d="M5521 3094c34,0 62,17 62,37 0,20 -28,36 -62,36 -35,0 -63,-16 -63,-36 0,-20 28,-37 63,-37z"/>
   <g style="clip-path:url(#id0)">
    <g>
     <ellipse class="fil3 str11" cx="5521" cy="3152" rx="63" ry="36"/>
    </g>
   </g>
   <path class="fil0" d="M5521 3094c34,0 62,17 62,37 0,20 -28,36 -62,36 -35,0 -63,-16 -63,-36 0,-20 28,-37 63,-37z"/>
   <path class="fil4" d="M5521 3088c18,0 35,4 47,11 14,8 22,19 22,32 0,12 -8,23 -22,31 -12,7 -29,11 -47,11 -19,0 -36,-4 -48,-11 -13,-8 -22,-19 -22,-31 0,-13 9,-24 22,-32 12,-7 29,-11 48,-11zm41 23c-11,-6 -25,-10 -41,-10 -16,0 -31,4 -41,10 -10,5 -15,12 -15,20 0,7 5,14 15,20 10,6 25,10 41,10 16,0 30,-4 41,-10 9,-6 15,-13 15,-20 0,-8 -6,-15 -15,-20z"/>
   <line class="fil0" x1="4459" y1="2811" x2="4459" y2= "2871" />
   <path class="fil4" d="M4453 2811c0,-4 3,-7 6,-7 4,0 7,3 7,7l0 60c0,3 -3,6 -7,6 -3,0 -6,-3 -6,-6l0 -60z"/>
   <line class="fil0" x1="5290" y1="3291" x2="5290" y2= "3351" />
   <path class="fil4" d="M5284 3291c0,-4 3,-7 6,-7 4,0 7,3 7,7l0 60c0,3 -3,6 -7,6 -3,0 -6,-3 -6,-6l0 -60z"/>
   <line class="fil0" x1="5330" y1="3298" x2="5330" y2= "3358" />
   <path class="fil4" d="M5324 3298c0,-3 3,-6 6,-6 4,0 7,3 7,6l0 60c0,3 -3,6 -7,6 -3,0 -6,-3 -6,-6l0 -60z"/>
   <line class="fil0" x1="5370" y1="3291" x2="5370" y2= "3351" />
   <path class="fil4" d="M5364 3291c0,-4 2,-7 6,-7 4,0 7,3 7,7l0 60c0,3 -3,6 -7,6 -4,0 -6,-3 -6,-6l0 -60z"/>
   <polygon class="fil5" points="5338,2983 4985,2779 5353,2567 5705,2770 "/>
   <polygon class="fil2" points="5515,2847 5285,2714 5525,2575 5756,2708 "/>
   <polygon class="fil3 str12" points="2634,728 3075,474 2886,0 2445,255 "/>
   <line class="fil0 str12" x1="2508" y1="219" x2="2697" y2= "692" />
   <line class="fil0 str12" x1="2571" y1="182" x2="2760" y2= "656" />
   <line class="fil0 str12" x1="2634" y1="146" x2="2823" y2= "619" />
   <line class="fil0 str12" x1="2697" y1="110" x2="2886" y2= "583" />
   <line class="fil0 str12" x1="2760" y1="73" x2="2949" y2= "546" />
   <line class="fil0 str12" x1="2823" y1="37" x2="3012" y2= "510" />
   <line class="fil0 str12" x1="2469" y1="314" x2="2910" y2= "60" />
   <line class="fil0 str12" x1="2492" y1="373" x2="2934" y2= "119" />
   <line class="fil0 str12" x1="2516" y1="433" x2="2957" y2= "178" />
   <line class="fil0 str12" x1="2540" y1="492" x2="2981" y2= "237" />
   <line class="fil0 str12" x1="2563" y1="551" x2="3005" y2= "296" />
   <line class="fil0 str12" x1="2587" y1="610" x2="3028" y2= "355" />
   <line class="fil0 str12" x1="2611" y1="669" x2="3052" y2= "414" />
   <path class="fil3 str13" d="M2166 592c-24,-14 -37,-44 -37,-82 0,-37 13,-82 37,-125 25,-43 57,-76 90,-94 32,-19 65,-23 90,-9l314 183 -178 308 -316 -181z"/>
   <path class="fil3 str14" d="M2520 782c-4,0 -8,0 -12,-1l0 0c-9,0 -18,-3 -26,-8 -24,-14 -37,-44 -37,-81 0,-38 12,-82 37,-124 25,-43 57,-76 89,-94 32,-19 65,-23 89,-9 8,5 15,11 21,19l47 81 -125 217 -83 0z"/>
   <path class="fil3 str15" d="M2855 886l-1 0 -1 1 -1 0 -1 1 -1 1 -1 0 -1 1 -2 0 -1 1 0 0 -1 0 -1 1 -1 0 -1 0 0 0 -1 1 -1 0 -1 1 -1 0 0 0 -1 0 -1 1 -1 0 0 0 -1 0 -1 1 -1 0 -1 0 -1 0 0 0 -1 0 0 0 -1 1 0 0 -1 0 -1 0 -1 0 -2 0 -1 0 -1 1 -1 0 -1 0 0 0 -1 0 0 0 0 0 0 0 -1 0 -1 0 -1 0 -1 0 -1 0 0 0 -1 0 -1 0 -1 -1 -1 0 0 0 -1 0 -1 0 0 0 -1 0 -1 0 -1 -1 -1 0 -1 0 0 0 -1 -1 -1 0 -1 0 -1 -1 -1 0 -1 0 -1 -1 0 0 -1 -1 -1 0 0 0 0 0 -220 -128c-18,-10 -26,-31 -26,-58 0,-26 8,-57 26,-87 17,-30 39,-53 62,-66 23,-13 45,-16 62,-6l0 0 0 0 1 0 0 0 221 127 0 0 1 0 0 0 0 1 0 0 1 0 0 0 1 1 1 0 0 0 0 1 1 1 1 0 0 0c0,1 1,1 1,1 1,1 1,1 2,2l0 0c0,0 1,1 1,1l0 0c0,1 1,1 1,1l0 0 1 1 0 1 0 0c1,0 1,1 2,1l0 1 0 0c1,1 1,1 1,2l0 0 1 1 0 0 0 0 0 0 1 1 0 1 1 1 0 0 0 1 1 1 0 0 0 1 0 1 0 0 1 1 0 1 0 0 1 0 0 1 0 0 0 1 1 1 0 1 0 1 1 1 0 1 0 2 0 1 1 1 0 0 0 0c3,8 5,18 5,29 0,23 -8,49 -22,75 -10,16 -21,30 -33,41l-1 1 0 1 -1 1 -1 1 0 0 -2 1 0 0 -1 1 -1 1 -1 1 -1 1 -1 1 0 0 -1 1 -1 1 -1 1 -1 1 -1 1 0 0 -1 0 -1 1 -1 1 -1 1 -1 1 -1 1 -1 1 0 0 -1 0 -1 1 -1 1 -1 1 -1 1 -1 0 -2 1 -1 1 -1 0 -1 1 -1 1 -1 0 -1 1 -1 1z"/>
   <path class="fil3 str15" d="M2855 886c-23,13 -46,16 -63,6 -17,-10 -26,-32 -26,-58 0,-26 8,-57 26,-88 17,-30 40,-53 63,-66 23,-13 45,-16 63,-6 12,7 20,20 24,36 3,8 5,18 5,29 0,23 -8,49 -22,75 -10,16 -21,30 -33,41 -12,13 -24,23 -37,31z"/>
   <path class="fil3 str16" d="M2871 871c-20,11 -39,14 -54,5 -15,-8 -23,-27 -23,-49 0,-23 8,-50 23,-75 15,-26 34,-46 53,-57 20,-11 40,-14 54,-5 15,8 23,26 23,49 0,23 -8,49 -22,75 -15,26 -35,46 -54,57z"/>
   <polygon class="fil3 str17" points="2004,1092 2445,837 2256,364 1815,619 "/>
   <line class="fil0 str17" x1="1878" y1="583" x2="2067" y2= "1056" />
   <line class="fil0 str17" x1="1941" y1="546" x2="2130" y2= "1019" />
   <line class="fil0 str17" x1="2004" y1="510" x2="2193" y2= "983" />
   <line class="fil0 str17" x1="2067" y1="474" x2="2256" y2= "947" />
   <line class="fil0 str17" x1="2130" y1="437" x2="2319" y2= "910" />
   <line class="fil0 str17" x1="2193" y1="401" x2="2382" y2= "874" />
   <line class="fil0 str17" x1="1839" y1="678" x2="2280" y2= "424" />
   <line class="fil0 str17" x1="1862" y1="737" x2="2303" y2= "483" />
   <line class="fil0 str17" x1="1886" y1="797" x2="2327" y2= "542" />
   <line class="fil0 str17" x1="1909" y1="856" x2="2351" y2= "601" />
   <line class="fil0 str17" x1="1933" y1="915" x2="2374" y2= "660" />
   <line class="fil0 str17" x1="1957" y1="974" x2="2398" y2= "719" />
   <line class="fil0 str17" x1="1980" y1="1033" x2="2422" y2= "778" />
  </g>
 </g>
</svg>
