<?xml version="1.0" encoding="UTF-8"?>
<!DOCTYPE svg PUBLIC "-//W3C//DTD SVG 1.1//EN" "http://www.w3.org/Graphics/SVG/1.1/DTD/svg11.dtd">
<!-- Creator: CorelDRAW X7 -->
<svg xmlns="http://www.w3.org/2000/svg" xml:space="preserve" width="91.4398mm" height="82.5498mm" version="1.1" style="shape-rendering:geometricPrecision; text-rendering:geometricPrecision; image-rendering:optimizeQuality; fill-rule:evenodd; clip-rule:evenodd"
viewBox="0 0 9144 8255"
 xmlns:xlink="http://www.w3.org/1999/xlink">
 <defs>
  <style type="text/css">
   <![CDATA[
    .str0 {stroke:#61003F;stroke-width:59.26;stroke-linecap:round;stroke-linejoin:round}
    .fil1 {fill:none}
    .fil2 {fill:#61003F}
    .fil0 {fill:#FFF4F0}
   ]]>
  </style>
 </defs>
 <g id="Layer_x0020_1">
  <metadata id="CorelCorpID_0Corel-Layer"/>
  <g id="_2512748936096">
   <path class="fil0 str0" d="M3615 6056c-159,91 -318,113 -440,43 -122,-70 -183,-219 -183,-403 0,-184 61,-402 182,-612 121,-210 280,-372 439,-463l0 0 1243 -718 1 0c159,-92 318,-114 440,-44 122,70 183,219 183,403 0,184 -61,402 -182,612 -121,210 -280,372 -439,463l-1 1 0 0 -1241 717 -2 1z"/>
   <polygon class="fil0" points="3174,5084 5297,3859 6230,4398 4108,6638 3175,6099 "/>
   <line class="fil1 str0" x1="3174" y1="5084" x2="4107" y2= "5623" />
   <line class="fil1 str0" x1="2992" y1="5696" x2="3925" y2= "6235" />
   <line class="fil1 str0" x1="3175" y1="6099" x2="4108" y2= "6638" />
   <line class="fil1 str0" x1="5240" y1="3834" x2="6230" y2= "4398" />
   <path class="fil0 str0" d="M4393 6504c-160,92 -319,114 -441,44 -121,-71 -182,-219 -182,-403 0,-184 60,-402 181,-612 122,-210 281,-372 439,-464l0 0 1243 -717 1 -1c160,-92 319,-113 441,-43 121,70 182,219 182,403 0,184 -60,402 -181,612 -122,210 -281,372 -440,463l-1 1 0 0 -1241 716 -1 1z"/>
   <path class="fil2 str0" d="M4548 6594c-159,92 -318,114 -440,44 -122,-71 -183,-220 -183,-403 0,-184 61,-402 182,-612 121,-210 280,-372 439,-464l0 0 1243 -717 1 -1c159,-92 318,-113 440,-43 122,70 183,219 183,403 0,183 -61,402 -182,612 -121,210 -280,371 -439,463l-1 1 0 0 -1241 716 -2 1z"/>
   <line class="fil1 str0" x1="3044" y1="5379" x2="3821" y2= "5827" />
   <line class="fil1 str0" x1="3364" y1="4824" x2="4142" y2= "5273" />
   <line class="fil1 str0" x1="3613" y1="4621" x2="4390" y2= "5069" />
   <line class="fil1 str0" x1="4235" y1="4262" x2="5012" y2= "4711" />
   <line class="fil1 str0" x1="5092" y1="3820" x2="5873" y2= "4268" />
   <line class="fil1 str0" x1="4919" y1="3869" x2="5699" y2= "4318" />
   <line class="fil1 str0" x1="4743" y1="3954" x2="5523" y2= "4403" />
   <line class="fil1 str0" x1="4541" y1="4053" x2="5321" y2= "4501" />
   <line class="fil1 str0" x1="4405" y1="4162" x2="5185" y2= "4611" />
   <line class="fil1 str0" x1="4035" y1="4372" x2="4806" y2= "4815" />
   <line class="fil1 str0" x1="3821" y1="4499" x2="4601" y2= "4948" />
   <polygon class="fil0 str0" points="6263,7000 4473,5967 6263,4934 8053,5967 "/>
   <polygon class="fil0 str0" points="6263,6484 4473,5450 6263,4417 8053,5450 "/>
   <polygon class="fil0 str0" points="6263,6484 4473,5450 4473,5967 6263,7000 "/>
   <polygon class="fil0 str0" points="6263,7000 6263,6484 8053,5450 8053,5967 "/>
   <polygon class="fil0 str0" points="6263,6189 5052,5490 6263,4791 7474,5490 "/>
   <polygon class="fil0 str0" points="6263,5839 5052,5140 6263,4441 7474,5140 "/>
   <polygon class="fil0 str0" points="6263,5839 5052,5140 5052,5490 6263,6189 "/>
   <polygon class="fil0 str0" points="6263,6189 6263,5839 7474,5140 7474,5490 "/>
   <g>
    <path class="fil0" d="M3852 24l0 0 0 0zm-538 953l88 51 -88 -51zm0 0c-75,-44 -113,-137 -113,-251 0,-114 37,-251 113,-381 75,-131 174,-232 273,-289 95,-55 191,-69 265,-32 34,17 73,42 107,62 -109,-48 -176,-41 -284,21 -99,57 -198,158 -273,289 -76,130 -113,266 -113,381 0,115 25,182 113,251 -29,-18 -58,-34 -88,-51z"/>
    <path id="1" class="fil1 str0" d="M3852 24l0 0m-538 953l88 51m-88 -51c-75,-44 -113,-137 -113,-251 0,-114 37,-251 113,-381 75,-131 174,-232 273,-289 95,-55 191,-69 265,-32 34,17 73,42 107,62 -109,-48 -176,-41 -284,21 -99,57 -198,158 -273,289 -76,130 -113,266 -113,381 0,115 25,182 113,251 -29,-18 -58,-34 -88,-51z"/>
   </g>
   <path class="fil0 str0" d="M3677 1001c-100,57 -199,70 -275,27 -75,-44 -113,-137 -113,-251 0,-115 37,-251 113,-381 75,-131 174,-232 273,-289 99,-57 199,-71 274,-27 76,44 114,136 114,251 0,114 -37,250 -113,381 -75,131 -174,232 -273,289z"/>
   <line class="fil1 str0" x1="3256" y1="924" x2="3349" y2= "978" />
   <line class="fil1 str0" x1="3205" y1="793" x2="3293" y2= "844" />
   <line class="fil1 str0" x1="3202" y1="690" x2="3290" y2= "740" />
   <line class="fil1 str0" x1="3215" y1="596" x2="3303" y2= "647" />
   <line class="fil1 str0" x1="3239" y1="508" x2="3327" y2= "559" />
   <line class="fil1 str0" x1="3272" y1="425" x2="3360" y2= "476" />
   <line class="fil1 str0" x1="3312" y1="347" x2="3400" y2= "398" />
   <line class="fil1 str0" x1="3360" y1="273" x2="3448" y2= "324" />
   <line class="fil1 str0" x1="3415" y1="203" x2="3501" y2= "253" />
   <line class="fil1 str0" x1="3478" y1="138" x2="3566" y2= "188" />
   <line class="fil1 str0" x1="3552" y1="79" x2="3640" y2= "129" />
   <line class="fil1 str0" x1="3642" y1="29" x2="3729" y2= "79" />
   <line class="fil1 str0" x1="3774" y1="4" x2="3862" y2= "54" />
   <path class="fil0 str0" d="M6347 7632c-160,92 -319,114 -441,44 -122,-70 -182,-219 -182,-403 0,-184 60,-402 181,-612 121,-210 280,-372 439,-463l0 -1 1243 -717 1 -1c159,-91 319,-113 440,-43 122,70 183,219 183,403 0,184 -60,402 -182,612 -121,210 -280,372 -439,463l-1 1 0 0 -1241 716 -1 1z"/>
   <polygon class="fil0" points="5905,6661 8028,5436 8961,5975 6839,8214 5906,7676 "/>
   <line class="fil1 str0" x1="5905" y1="6661" x2="6838" y2= "7200" />
   <line class="fil1 str0" x1="5724" y1="7273" x2="6656" y2= "7811" />
   <line class="fil1 str0" x1="5906" y1="7676" x2="6839" y2= "8214" />
   <line class="fil1 str0" x1="7971" y1="5411" x2="8961" y2= "5975" />
   <path class="fil0 str0" d="M7124 8081c-159,92 -319,114 -440,44 -122,-71 -183,-220 -183,-403 0,-184 60,-402 182,-612 121,-210 280,-372 439,-464l0 0 1243 -717 1 -1c159,-92 318,-113 440,-43 122,70 182,219 183,403 0,183 -61,402 -182,612 -121,210 -280,371 -439,463l-1 1 0 0 -1241 716 -2 1z"/>
   <path class="fil0 str0" d="M7279 8171c-159,92 -318,114 -440,43 -122,-70 -183,-219 -183,-403 0,-183 61,-402 182,-611 121,-210 280,-372 439,-464l0 0 1243 -717 1 -1c159,-92 319,-114 440,-43 122,70 183,219 183,403 0,183 -61,402 -182,612 -121,210 -280,371 -439,463l-1 1 0 0 -1241 716 -2 1z"/>
   <line class="fil1 str0" x1="5775" y1="6956" x2="6553" y2= "7404" />
   <line class="fil1 str0" x1="6095" y1="6401" x2="6873" y2= "6850" />
   <line class="fil1 str0" x1="6344" y1="6197" x2="7122" y2= "6646" />
   <line class="fil1 str0" x1="6966" y1="5839" x2="7743" y2= "6288" />
   <line class="fil1 str0" x1="7823" y1="5397" x2="8604" y2= "5845" />
   <line class="fil1 str0" x1="7650" y1="5446" x2="8430" y2= "5895" />
   <line class="fil1 str0" x1="7474" y1="5531" x2="8255" y2= "5980" />
   <line class="fil1 str0" x1="7272" y1="5630" x2="8052" y2= "6078" />
   <line class="fil1 str0" x1="7136" y1="5739" x2="7917" y2= "6187" />
   <line class="fil1 str0" x1="6766" y1="5949" x2="7537" y2= "6392" />
   <line class="fil1 str0" x1="6552" y1="6076" x2="7333" y2= "6525" />
   <g>
    <path class="fil0" d="M6289 3177l0 0 0 0zm-566 1003l93 53 -93 -53zm0 0c-79,-46 -119,-144 -119,-264 0,-121 39,-264 119,-402 79,-137 183,-243 288,-303 100,-58 200,-74 278,-34 37,18 77,44 113,65 -115,-51 -185,-43 -299,22 -104,60 -208,166 -288,304 -79,137 -119,281 -119,401 0,121 27,192 120,264 -31,-18 -62,-35 -93,-53z"/>
    <path id="1" class="fil1 str0" d="M6289 3177l0 0m-566 1003l93 53m-93 -53c-79,-46 -119,-144 -119,-264 0,-121 39,-264 119,-402 79,-137 183,-243 288,-303 100,-58 200,-74 278,-34 37,18 77,44 113,65 -115,-51 -185,-43 -299,22 -104,60 -208,166 -288,304 -79,137 -119,281 -119,401 0,121 27,192 120,264 -31,-18 -62,-35 -93,-53z"/>
   </g>
   <path class="fil0 str0" d="M6105 4205c-105,60 -209,74 -289,28 -80,-46 -120,-143 -120,-264 0,-120 40,-264 119,-401 80,-138 184,-244 288,-304 105,-60 209,-74 289,-28 80,46 120,143 120,264 0,120 -40,263 -119,401 -80,138 -184,244 -288,304z"/>
   <line class="fil1 str0" x1="5661" y1="4124" x2="5760" y2= "4181" />
   <line class="fil1 str0" x1="5609" y1="3987" x2="5701" y2= "4040" />
   <line class="fil1 str0" x1="5605" y1="3877" x2="5698" y2= "3931" />
   <line class="fil1 str0" x1="5619" y1="3779" x2="5712" y2= "3832" />
   <line class="fil1 str0" x1="5644" y1="3686" x2="5737" y2= "3740" />
   <line class="fil1 str0" x1="5679" y1="3599" x2="5772" y2= "3653" />
   <line class="fil1 str0" x1="5721" y1="3517" x2="5814" y2= "3570" />
   <line class="fil1 str0" x1="5771" y1="3439" x2="5864" y2= "3492" />
   <line class="fil1 str0" x1="5829" y1="3365" x2="5920" y2= "3417" />
   <line class="fil1 str0" x1="5895" y1="3296" x2="5988" y2= "3350" />
   <line class="fil1 str0" x1="5973" y1="3234" x2="6066" y2= "3288" />
   <line class="fil1 str0" x1="6068" y1="3182" x2="6160" y2= "3235" />
   <line class="fil1 str0" x1="6207" y1="3155" x2="6299" y2= "3209" />
   <path class="fil0 str0" d="M6759 5092c0,160 -223,290 -499,290 -276,0 -499,-130 -499,-290l0 -1238c0,-160 223,-289 499,-289 276,0 499,129 499,289l0 1238z"/>
   <ellipse class="fil0 str0" cx="6260" cy="3854" rx="499" ry="289"/>
   <polygon class="fil0 str0" points="1483,2134 1483,1422 3947,-1 6412,3557 5796,3912 3639,888 "/>
   <polygon class="fil0 str0" points="1483,2134 1483,1422 1945,1689 1945,2400 "/>
   <polygon class="fil0 str0" points="1945,1689 1483,1422 3947,-1 4409,266 "/>
   <polygon class="fil0 str0" points="3909,1266 5796,3912 6258,4179 4101,1155 "/>
   <polygon class="fil0 str0" points="1945,2400 1945,1689 4409,266 6874,3823 6258,4179 4101,1155 "/>
   <g>
    <path class="fil0" d="M4485 328l0 0 0 0zm-537 953l88 51 -88 -51zm0 0c-76,-44 -114,-136 -114,-251 0,-114 37,-250 113,-381 75,-131 174,-231 273,-289 96,-54 191,-69 265,-32 35,18 73,43 107,62 -109,-48 -176,-41 -284,21 -99,57 -198,158 -273,289 -76,131 -113,267 -113,381 0,115 25,182 114,251 -30,-18 -59,-34 -88,-51z"/>
    <path id="1" class="fil1 str0" d="M4485 328l0 0m-537 953l88 51m-88 -51c-76,-44 -114,-136 -114,-251 0,-114 37,-250 113,-381 75,-131 174,-231 273,-289 96,-54 191,-69 265,-32 35,18 73,43 107,62 -109,-48 -176,-41 -284,21 -99,57 -198,158 -273,289 -76,131 -113,267 -113,381 0,115 25,182 114,251 -30,-18 -59,-34 -88,-51z"/>
   </g>
   <path class="fil0 str0" d="M4310 1305c-99,57 -199,71 -274,27 -76,-44 -114,-137 -114,-251 0,-114 37,-250 113,-381 75,-131 174,-232 273,-289 100,-57 199,-71 275,-27 75,44 113,137 113,251 0,115 -37,251 -113,381 -75,131 -174,232 -273,289z"/>
   <line class="fil1 str0" x1="3889" y1="1228" x2="3982" y2= "1282" />
   <line class="fil1 str0" x1="3839" y1="1098" x2="3927" y2= "1148" />
   <line class="fil1 str0" x1="3835" y1="994" x2="3923" y2= "1045" />
   <line class="fil1 str0" x1="3848" y1="900" x2="3936" y2= "951" />
   <line class="fil1 str0" x1="3873" y1="812" x2="3961" y2= "863" />
   <line class="fil1 str0" x1="3905" y1="730" x2="3993" y2= "781" />
   <line class="fil1 str0" x1="3946" y1="651" x2="4034" y2= "702" />
   <line class="fil1 str0" x1="3993" y1="577" x2="4081" y2= "628" />
   <line class="fil1 str0" x1="4048" y1="507" x2="4134" y2= "557" />
   <line class="fil1 str0" x1="4111" y1="442" x2="4199" y2= "493" />
   <line class="fil1 str0" x1="4185" y1="383" x2="4273" y2= "434" />
   <line class="fil1 str0" x1="4275" y1="333" x2="4362" y2= "384" />
   <line class="fil1 str0" x1="4407" y1="308" x2="4495" y2= "359" />
   <g>
    <path class="fil0" d="M6907 3535l0 0 0 0zm-566 1003l93 53 -93 -53zm0 0c-80,-46 -120,-144 -120,-265 0,-120 40,-263 119,-401 80,-137 184,-243 288,-304 100,-57 200,-73 279,-33 36,18 77,44 112,65 -114,-51 -185,-43 -298,22 -104,60 -209,166 -288,304 -80,137 -119,281 -119,401 0,121 26,192 120,264 -31,-18 -62,-36 -93,-53z"/>
    <path id="1" class="fil1 str0" d="M6907 3535l0 0m-566 1003l93 53m-93 -53c-80,-46 -120,-144 -120,-265 0,-120 40,-263 119,-401 80,-137 184,-243 288,-304 100,-57 200,-73 279,-33 36,18 77,44 112,65 -114,-51 -185,-43 -298,22 -104,60 -209,166 -288,304 -80,137 -119,281 -119,401 0,121 26,192 120,264 -31,-18 -62,-36 -93,-53z"/>
   </g>
   <path class="fil0 str0" d="M6722 4563c-104,60 -209,74 -288,28 -80,-46 -120,-144 -120,-264 0,-120 39,-264 119,-401 79,-138 184,-244 288,-304 104,-60 209,-75 288,-28 80,46 120,143 120,264 0,120 -39,263 -119,401 -79,138 -184,244 -288,304z"/>
   <line class="fil1 str0" x1="6279" y1="4482" x2="6378" y2= "4539" />
   <line class="fil1 str0" x1="6226" y1="4344" x2="6319" y2= "4398" />
   <line class="fil1 str0" x1="6222" y1="4235" x2="6315" y2= "4289" />
   <line class="fil1 str0" x1="6236" y1="4136" x2="6329" y2= "4190" />
   <line class="fil1 str0" x1="6262" y1="4044" x2="6355" y2= "4098" />
   <line class="fil1 str0" x1="6296" y1="3957" x2="6389" y2= "4011" />
   <line class="fil1 str0" x1="6339" y1="3875" x2="6431" y2= "3928" />
   <line class="fil1 str0" x1="6389" y1="3796" x2="6481" y2= "3850" />
   <line class="fil1 str0" x1="6446" y1="3723" x2="6537" y2= "3775" />
   <line class="fil1 str0" x1="6513" y1="3654" x2="6605" y2= "3708" />
   <line class="fil1 str0" x1="6591" y1="3592" x2="6683" y2= "3646" />
   <line class="fil1 str0" x1="6685" y1="3540" x2="6777" y2= "3593" />
   <line class="fil1 str0" x1="6824" y1="3513" x2="6917" y2= "3567" />
   <g>
    <path class="fil0" d="M7545 6955l0 0 0 0zm-566 1003l93 54 -93 -54zm0 0c-80,-46 -120,-144 -120,-264 0,-120 40,-264 119,-401 80,-138 184,-244 288,-304 100,-58 201,-73 279,-34 36,18 77,44 112,65 -114,-50 -185,-43 -298,22 -104,61 -209,167 -288,304 -79,138 -119,281 -119,401 0,122 26,192 120,265 -31,-19 -62,-36 -93,-54z"/>
    <path id="1" class="fil1 str0" d="M7545 6955l0 0m-566 1003l93 54m-93 -54c-80,-46 -120,-144 -120,-264 0,-120 40,-264 119,-401 80,-138 184,-244 288,-304 100,-58 201,-73 279,-34 36,18 77,44 112,65 -114,-50 -185,-43 -298,22 -104,61 -209,167 -288,304 -79,138 -119,281 -119,401 0,122 26,192 120,265 -31,-19 -62,-36 -93,-54z"/>
   </g>
   <path class="fil0 str0" d="M7360 7983c-104,60 -209,75 -288,29 -80,-46 -120,-144 -120,-265 0,-120 40,-263 119,-401 79,-137 184,-243 288,-304 104,-60 209,-74 289,-28 79,46 119,144 119,264 0,121 -39,264 -119,401 -79,138 -183,244 -288,304z"/>
   <line class="fil1 str0" x1="6917" y1="7902" x2="7016" y2= "7959" />
   <line class="fil1 str0" x1="6864" y1="7765" x2="6957" y2= "7818" />
   <line class="fil1 str0" x1="6860" y1="7656" x2="6953" y2= "7709" />
   <line class="fil1 str0" x1="6875" y1="7557" x2="6967" y2= "7610" />
   <line class="fil1 str0" x1="6900" y1="7465" x2="6993" y2= "7518" />
   <line class="fil1 str0" x1="6935" y1="7378" x2="7027" y2= "7431" />
   <line class="fil1 str0" x1="6977" y1="7295" x2="7070" y2= "7349" />
   <line class="fil1 str0" x1="7027" y1="7217" x2="7119" y2= "7270" />
   <line class="fil1 str0" x1="7084" y1="7143" x2="7175" y2= "7196" />
   <line class="fil1 str0" x1="7151" y1="7075" x2="7243" y2= "7128" />
   <line class="fil1 str0" x1="7229" y1="7013" x2="7321" y2= "7066" />
   <line class="fil1 str0" x1="7324" y1="6960" x2="7415" y2= "7013" />
   <line class="fil1 str0" x1="7462" y1="6934" x2="7555" y2= "6987" />
   <g>
    <path class="fil0" d="M8738 6206l0 0 0 0zm-566 1003l93 53 -93 -53zm0 0c-80,-46 -120,-144 -120,-264 0,-121 40,-264 120,-402 79,-137 183,-243 287,-303 101,-58 201,-74 279,-34 36,18 77,44 113,65 -115,-51 -186,-43 -299,22 -104,60 -208,166 -288,304 -79,137 -119,281 -119,401 0,121 27,192 120,264 -31,-18 -62,-35 -93,-53z"/>
    <path id="1" class="fil1 str0" d="M8738 6206l0 0m-566 1003l93 53m-93 -53c-80,-46 -120,-144 -120,-264 0,-121 40,-264 120,-402 79,-137 183,-243 287,-303 101,-58 201,-74 279,-34 36,18 77,44 113,65 -115,-51 -186,-43 -299,22 -104,60 -208,166 -288,304 -79,137 -119,281 -119,401 0,121 27,192 120,264 -31,-18 -62,-35 -93,-53z"/>
   </g>
   <path class="fil0 str0" d="M8554 7234c-105,60 -209,74 -289,28 -80,-46 -120,-143 -120,-264 0,-120 40,-264 119,-401 80,-138 184,-244 288,-304 104,-60 209,-74 289,-28 80,46 120,143 120,264 0,120 -40,263 -120,401 -79,138 -183,244 -287,304z"/>
   <line class="fil1 str0" x1="8110" y1="7153" x2="8209" y2= "7210" />
   <line class="fil1 str0" x1="8057" y1="7016" x2="8150" y2= "7069" />
   <line class="fil1 str0" x1="8054" y1="6906" x2="8146" y2= "6960" />
   <line class="fil1 str0" x1="8068" y1="6808" x2="8160" y2= "6861" />
   <line class="fil1 str0" x1="8093" y1="6715" x2="8186" y2= "6769" />
   <line class="fil1 str0" x1="8128" y1="6628" x2="8220" y2= "6682" />
   <line class="fil1 str0" x1="8170" y1="6546" x2="8263" y2= "6599" />
   <line class="fil1 str0" x1="8220" y1="6468" x2="8313" y2= "6521" />
   <line class="fil1 str0" x1="8278" y1="6394" x2="8369" y2= "6446" />
   <line class="fil1 str0" x1="8344" y1="6325" x2="8437" y2= "6379" />
   <line class="fil1 str0" x1="8422" y1="6263" x2="8514" y2= "6317" />
   <line class="fil1 str0" x1="8517" y1="6211" x2="8608" y2= "6264" />
   <line class="fil1 str0" x1="8656" y1="6184" x2="8748" y2= "6238" />
   <polygon class="fil0 str0" points="1466,2124 1466,1388 1945,1664 1945,2400 "/>
   <polygon class="fil0 str0" points="219,1232 0,1106 489,259 1466,1388 1222,1529 519,714 "/>
   <polygon class="fil0 str0" points="698,1505 478,1378 967,531 1945,1660 1700,1801 997,986 "/>
   <polygon class="fil0 str0" points="478,1378 967,531 489,259 0,1106 "/>
   <polygon class="fil0 str0" points="1222,1529 899,1155 997,986 1700,1801 "/>
   <polygon class="fil0 str0" points="1667,2548 1945,2400 1456,3636 478,3636 478,3353 1265,3352 "/>
   <polygon class="fil0 str0" points="1193,2256 1466,2124 978,3359 0,3359 0,3077 787,3076 "/>
   <polygon class="fil0 str0" points="0,3359 0,3077 478,3353 478,3636 "/>
   <polygon class="fil0 str0" points="478,3353 0,3077 787,3076 1265,3352 "/>
   <polygon class="fil0 str0" points="1265,3352 787,3076 1193,2256 1654,2541 "/>
   <polygon class="fil0 str0" points="1667,2548 1193,2256 1466,2124 1945,2400 "/>
  </g>
 </g>
</svg>
