<?xml version="1.0" encoding="UTF-8"?>
<!DOCTYPE svg PUBLIC "-//W3C//DTD SVG 1.1//EN" "http://www.w3.org/Graphics/SVG/1.1/DTD/svg11.dtd">
<!-- Creator: CorelDRAW X7 -->
<svg xmlns="http://www.w3.org/2000/svg" xml:space="preserve" width="68.0718mm" height="55.7952mm" version="1.1" style="shape-rendering:geometricPrecision; text-rendering:geometricPrecision; image-rendering:optimizeQuality; fill-rule:evenodd; clip-rule:evenodd"
viewBox="0 0 6807 5580"
 xmlns:xlink="http://www.w3.org/1999/xlink">
 <defs>
  <style type="text/css">
   <![CDATA[
    .str35 {stroke:#FFF4F0;stroke-width:12.6}
    .str37 {stroke:#61003F;stroke-width:13.41;stroke-linecap:round;stroke-linejoin:round}
    .str17 {stroke:#61003F;stroke-width:24.19;stroke-linecap:round;stroke-linejoin:round}
    .str20 {stroke:#61003F;stroke-width:24.19;stroke-linecap:round;stroke-linejoin:round}
    .str19 {stroke:#61003F;stroke-width:24.19;stroke-linecap:round;stroke-linejoin:round}
    .str18 {stroke:#61003F;stroke-width:24.19;stroke-linecap:round;stroke-linejoin:round}
    .str22 {stroke:#61003F;stroke-width:24.19;stroke-linecap:round;stroke-linejoin:round}
    .str21 {stroke:#61003F;stroke-width:24.19;stroke-linecap:round;stroke-linejoin:round}
    .str5 {stroke:#61003F;stroke-width:24.57;stroke-linecap:round;stroke-linejoin:round}
    .str16 {stroke:#61003F;stroke-width:24.57;stroke-linecap:round;stroke-linejoin:round}
    .str14 {stroke:#61003F;stroke-width:24.57;stroke-linecap:round;stroke-linejoin:round}
    .str15 {stroke:#61003F;stroke-width:24.57;stroke-linecap:round;stroke-linejoin:round}
    .str4 {stroke:#61003F;stroke-width:24.57;stroke-linecap:round;stroke-linejoin:round}
    .str8 {stroke:#61003F;stroke-width:24.57;stroke-linecap:round;stroke-linejoin:round}
    .str9 {stroke:#61003F;stroke-width:24.57;stroke-linecap:round;stroke-linejoin:round}
    .str7 {stroke:#61003F;stroke-width:24.57;stroke-linecap:round;stroke-linejoin:round}
    .str3 {stroke:#61003F;stroke-width:24.57;stroke-linecap:round;stroke-linejoin:round}
    .str0 {stroke:#61003F;stroke-width:24.57;stroke-linecap:round;stroke-linejoin:round}
    .str1 {stroke:#61003F;stroke-width:24.57;stroke-linecap:round;stroke-linejoin:round}
    .str2 {stroke:#61003F;stroke-width:24.57;stroke-linecap:round;stroke-linejoin:round}
    .str13 {stroke:#61003F;stroke-width:24.57;stroke-linecap:round;stroke-linejoin:round}
    .str11 {stroke:#61003F;stroke-width:24.57;stroke-linecap:round;stroke-linejoin:round}
    .str12 {stroke:#61003F;stroke-width:24.57;stroke-linecap:round;stroke-linejoin:round}
    .str10 {stroke:#61003F;stroke-width:24.57;stroke-linecap:round;stroke-linejoin:round}
    .str6 {stroke:#61003F;stroke-width:24.57;stroke-linecap:round;stroke-linejoin:round}
    .str32 {stroke:#61003F;stroke-width:27.99;stroke-linecap:round;stroke-linejoin:round}
    .str28 {stroke:#61003F;stroke-width:27.99;stroke-linecap:round;stroke-linejoin:round}
    .str25 {stroke:#61003F;stroke-width:27.99;stroke-linecap:round;stroke-linejoin:round}
    .str26 {stroke:#61003F;stroke-width:27.99;stroke-linecap:round;stroke-linejoin:round}
    .str27 {stroke:#61003F;stroke-width:27.99;stroke-linecap:round;stroke-linejoin:round}
    .str29 {stroke:#61003F;stroke-width:28;stroke-linecap:round;stroke-linejoin:round}
    .str23 {stroke:#61003F;stroke-width:28;stroke-linecap:round;stroke-linejoin:round}
    .str31 {stroke:#61003F;stroke-width:28;stroke-linecap:round;stroke-linejoin:round}
    .str30 {stroke:#61003F;stroke-width:28;stroke-linecap:round;stroke-linejoin:round}
    .str24 {stroke:#61003F;stroke-width:28;stroke-linecap:round;stroke-linejoin:round}
    .str33 {stroke:#FFF4F0;stroke-width:28;stroke-linecap:round;stroke-linejoin:round}
    .str34 {stroke:#FFF4F0;stroke-width:28;stroke-linecap:round;stroke-linejoin:round}
    .str36 {stroke:#FFF4F0;stroke-width:28;stroke-linecap:round;stroke-linejoin:round}
    .fil1 {fill:none}
    .fil2 {fill:#61003F}
    .fil0 {fill:#FFF4F0}
    .fil3 {fill:#61003F;fill-rule:nonzero}
   ]]>
  </style>
 </defs>
 <g id="Layer_x0020_1">
  <metadata id="CorelCorpID_0Corel-Layer"/>
  <g id="_2595157356528">
   <g>
    <g>
     <polygon class="fil0 str0" points="1806,4870 1806,3774 1942,3853 1942,4949 "/>
     <line class="fil1 str0" x1="1806" y1="3931" x2="1942" y2= "4009" />
     <line class="fil1 str0" x1="1806" y1="4087" x2="1942" y2= "4166" />
     <line class="fil1 str0" x1="1806" y1="4244" x2="1942" y2= "4322" />
     <line class="fil1 str1" x1="1806" y1="4401" x2="1942" y2= "4479" />
     <line class="fil1 str2" x1="1806" y1="4557" x2="1942" y2= "4635" />
     <line class="fil1 str3" x1="1806" y1="4714" x2="1942" y2= "4792" />
    </g>
    <path class="fil0 str4" d="M580 3876c-14,-8 -21,-25 -21,-47 0,-22 7,-48 21,-72 15,-25 33,-44 52,-55 19,-11 38,-13 52,-5l403 233c0,0 1,0 2,1 14,8 21,25 21,47 0,22 -7,47 -21,72 -15,25 -33,44 -52,55 -19,11 -38,13 -52,5l-405 -234z"/>
    <path class="fil0 str5" d="M1037 4105c-19,11 -38,13 -52,5 -14,-8 -22,-26 -22,-48 0,-21 8,-47 22,-72 14,-24 33,-44 52,-54 18,-11 37,-14 52,-5 14,8 21,25 21,47 0,22 -7,47 -21,72 -15,25 -33,44 -52,55z"/>
    <g>
     <path class="fil0" d="M1616 3380l0 0 0 0zm-828 1468l136 78 -136 -78zm0 0c-117,-68 -175,-210 -175,-387 0,-176 58,-386 174,-587 116,-202 269,-357 421,-445 147,-84 294,-107 408,-49 53,26 113,65 165,95 -167,-74 -271,-63 -437,32 -153,88 -305,244 -421,445 -117,202 -175,411 -175,587 0,178 39,281 176,387 -46,-27 -91,-52 -136,-78z"/>
     <path id="1" class="fil1 str6" d="M1616 3380l0 0m-828 1468l136 78m-136 -78c-117,-68 -175,-210 -175,-387 0,-176 58,-386 174,-587 116,-202 269,-357 421,-445 147,-84 294,-107 408,-49 53,26 113,65 165,95 -167,-74 -271,-63 -437,32 -153,88 -305,244 -421,445 -117,202 -175,411 -175,587 0,178 39,281 176,387 -46,-27 -91,-52 -136,-78z"/>
    </g>
    <path class="fil0 str7" d="M1346 4885c-153,88 -306,109 -422,41 -117,-67 -176,-210 -176,-387 0,-176 58,-385 175,-587 116,-201 268,-357 421,-445 153,-88 306,-109 423,-41 116,67 175,210 175,387 0,176 -58,385 -175,587 -116,201 -268,356 -421,445z"/>
    <line class="fil1 str8" x1="689" y1="4761" x2="833" y2= "4844" />
    <line class="fil1 str9" x1="620" y1="4565" x2="756" y2= "4643" />
    <line class="fil1 str9" x1="615" y1="4405" x2="750" y2= "4484" />
    <line class="fil1 str9" x1="635" y1="4261" x2="771" y2= "4339" />
    <line class="fil1 str9" x1="672" y1="4126" x2="808" y2= "4204" />
    <line class="fil1 str9" x1="723" y1="3998" x2="859" y2= "4076" />
    <line class="fil1 str9" x1="785" y1="3877" x2="921" y2= "3956" />
    <line class="fil1 str9" x1="858" y1="3763" x2="993" y2= "3841" />
    <line class="fil1 str9" x1="942" y1="3655" x2="1075" y2= "3732" />
    <line class="fil1 str9" x1="1040" y1="3555" x2="1175" y2= "3633" />
    <line class="fil1 str9" x1="1153" y1="3464" x2="1289" y2= "3542" />
    <line class="fil1 str9" x1="1292" y1="3388" x2="1426" y2= "3465" />
    <line class="fil1 str9" x1="1496" y1="3348" x2="1631" y2= "3427" />
    <g>
     <polygon class="fil0 str10" points="615,5501 615,4405 750,4484 750,5580 "/>
     <line class="fil1 str10" x1="615" y1="4562" x2="750" y2= "4640" />
     <line class="fil1 str10" x1="615" y1="4718" x2="750" y2= "4797" />
     <line class="fil1 str10" x1="615" y1="4875" x2="750" y2= "4953" />
     <line class="fil1 str11" x1="615" y1="5032" x2="750" y2= "5110" />
     <line class="fil1 str12" x1="615" y1="5188" x2="750" y2= "5266" />
     <line class="fil1 str13" x1="615" y1="5345" x2="750" y2= "5423" />
    </g>
    <path class="fil0 str14" d="M1350 4793c-132,77 -265,95 -366,36 -102,-58 -152,-182 -152,-335 0,-153 50,-335 151,-510 101,-174 233,-309 365,-385 133,-77 266,-95 367,-36 101,58 152,182 152,335 0,153 -50,335 -151,510 -101,174 -233,309 -366,385z"/>
    <path class="fil0 str15" d="M1298 4288c-15,-9 -22,-26 -22,-48 0,-21 7,-47 21,-72 15,-25 34,-44 52,-55 19,-10 38,-13 52,-5l403 233c1,0 1,1 2,1 14,8 21,26 21,47 0,22 -7,48 -21,73 -14,24 -33,43 -52,54 -19,11 -38,14 -52,5l-404 -233z"/>
    <path class="fil0 str16" d="M1754 4516c-19,11 -38,14 -52,5 -14,-8 -21,-26 -21,-47 0,-22 7,-48 21,-72 14,-25 33,-44 52,-55 19,-11 37,-13 52,-5 14,8 21,26 21,47 0,22 -7,48 -21,73 -14,24 -33,43 -52,54z"/>
   </g>
   <g id="_2595157367632">
    <polygon class="fil0 str17" points="35,2308 1445,1494 1445,214 35,1028 "/>
    <polygon class="fil0 str18" points="35,1028 1445,214 1412,195 1,1009 "/>
    <g>
     <polygon class="fil0 str17" points="1042,2890 35,2308 1445,1494 2453,2076 "/>
     <polygon class="fil0 str17" points="1445,1610 236,2308 740,2599 1949,1901 "/>
     <polygon class="fil0 str19" points="1400,2280 1198,2396 1501,2571 1702,2455 1702,2455 1702,2455 1904,2338 1601,2164 "/>
     <line class="fil1 str20" x1="1450" y1="2542" x2="1853" y2= "2309" />
     <line class="fil1 str20" x1="1702" y1="2455" x2="1652" y2= "2425" />
     <polygon class="fil0 str21" points="1385,1574 1297,1625 1334,1647 1422,1595 "/>
     <polygon class="fil0 str22" points="93,2221 1386,1475 1386,301 93,1048 "/>
     <polygon class="fil0 str18" points="35,1028 35,2308 1,2289 1,1009 "/>
     <polygon class="fil0 str18" points="35,2308 1042,2890 1042,2929 35,2347 "/>
     <polygon class="fil0 str18" points="1042,2890 2453,2076 2453,2114 1042,2929 "/>
    </g>
   </g>
   <g id="_2595157361520">
    <polygon class="fil2 str23" points="5877,2181 5877,1868 6168,2027 6168,2352 "/>
    <polygon class="fil0 str24" points="4615,2909 4615,2596 4906,2755 4906,3080 "/>
    <path class="fil0 str25" d="M4616 2912c-161,-94 -261,-223 -261,-365 0,-55 15,-108 43,-158 43,79 119,150 217,207l0 0 0 313 1 3zm-218 -523c7,-13 14,-25 23,-37 -9,12 -16,24 -23,37zm31 -48c7,-9 14,-17 21,-26 -7,9 -14,17 -21,26zm49 -56c5,-5 10,-9 14,-14 -4,5 -9,9 -14,14z"/>
    <polygon class="fil0" points="4355,2304 4397,2306 4397,2397 4403,2404 4397,2414 4397,2547 4360,2545 "/>
    <path class="fil2 str26" d="M5246 1716c246,0 469,58 631,152l0 315c-162,-94 -385,-152 -631,-152 -397,0 -734,150 -848,358 -28,-49 -43,-102 -43,-157 0,-285 399,-516 891,-516zm-754 791c-4,-4 -9,-9 -14,-13 5,4 10,9 14,13zm-34 -34c-10,-12 -20,-23 -29,-35 9,12 19,23 29,35zm-37 -47c-9,-11 -16,-24 -23,-36 7,12 14,24 23,36z"/>
    <line class="fil1 str27" x1="4355" y1="2232" x2="4355" y2= "2547" />
    <line class="fil1 str28" x1="4615" y1="2596" x2="4615" y2= "2909" />
    <line class="fil1 str28" x1="5877" y1="1868" x2="5877" y2= "2184" />
    <path class="fil0 str29" d="M5214 3191c-91,52 -182,64 -251,24 -69,-40 -104,-124 -104,-229 0,-105 35,-229 104,-348 69,-120 159,-212 250,-264l0 0 707 -409 1 0c90,-52 181,-65 250,-25 70,40 104,125 104,230 0,104 -34,229 -103,348 -69,120 -160,212 -250,264l-1 0 0 0 -706 408 -1 1z"/>
    <polygon class="fil0" points="4963,2638 6171,1940 6702,2247 5494,3522 4963,3215 "/>
    <line class="fil1 str24" x1="4963" y1="2638" x2="5494" y2= "2944" />
    <line class="fil1 str24" x1="4859" y1="2986" x2="5390" y2= "3293" />
    <line class="fil1 str24" x1="4963" y1="3215" x2="5494" y2= "3522" />
    <line class="fil1 str24" x1="6139" y1="1926" x2="6702" y2= "2247" />
    <path class="fil0 str30" d="M5656 3446c-90,52 -181,65 -250,25 -70,-40 -104,-125 -104,-230 0,-104 34,-228 103,-348 69,-119 160,-211 250,-264l0 0 708 -408 0 0c91,-53 181,-65 251,-25 69,40 104,125 104,229 0,105 -35,229 -104,349 -69,119 -159,211 -250,263l0 1 0 0 -707 408 -1 0z"/>
    <path class="fil0 str31" d="M5745 3497c-91,53 -181,65 -251,25 -69,-40 -104,-125 -104,-229 0,-105 35,-229 104,-349 69,-119 159,-211 250,-264l0 0 707 -408 1 0c90,-53 181,-65 250,-25 70,40 104,125 104,229 0,105 -34,229 -103,349 -69,119 -160,211 -250,263l-1 1 0 0 -706 408 -1 0z"/>
    <line class="fil1 str24" x1="6097" y1="2476" x2="6098" y2= "3293" />
    <g>
     <path class="fil0" d="M5459 2429c42,0 76,19 76,44 0,24 -34,44 -76,44 -42,0 -76,-20 -76,-44 0,-25 34,-44 76,-44z"/>
     <path id="1" class="fil3" d="M5549 2473l-28 0 0 0 0 -1 0 -2 0 -1 -1 -1 0 -1 -1 -1 0 -1 -1 -1 -1 -2 -1 -1 -2 -1 -1 -1 -2 -2 -1 -1 -2 -1 -2 -2 -2 -1 -3 -1 -2 -1 -2 -1 -3 -1 -3 -1 -3 -1 -3 0 -3 -1 -3 -1 -3 0 -3 -1 -3 0 -4 0 -3 0 -4 0 0 -28 5 0 4 0 4 0 4 1 4 0 4 1 4 1 4 1 4 1 4 1 3 1 4 1 3 2 4 1 3 2 3 1 3 2 3 2 3 2 2 2 3 3 2 2 2 3 2 2 2 3 2 3 1 3 2 3 1 3 0 4 1 3 0 4 0 0zm-90 57l0 -27 0 0 4 0 3 -1 4 0 3 0 3 -1 3 0 3 -1 3 0 3 -1 3 -1 3 -1 3 -1 2 -1 2 -1 3 -1 2 -1 2 -2 2 -1 1 -1 2 -1 1 -2 2 -1 1 -1 1 -1 1 -2 0 -1 1 -1 0 -1 1 -1 0 -1 0 -1 0 -1 28 0 0 3 -1 3 0 4 -1 3 -2 3 -1 3 -2 3 -2 3 -2 2 -2 3 -2 2 -3 3 -2 2 -3 2 -3 2 -3 2 -3 1 -3 2 -4 2 -3 1 -4 1 -3 1 -4 2 -4 1 -4 0 -4 1 -4 1 -4 0 -4 1 -4 0 -4 0 -5 0 0 0zm-90 -57l28 0 0 0 0 1 1 1 0 1 0 1 1 1 0 1 1 1 1 2 1 1 1 1 1 1 2 2 1 1 2 1 2 1 2 2 2 1 2 1 2 1 3 1 3 1 2 1 3 1 3 1 3 0 3 1 3 0 4 1 3 0 3 0 4 1 3 0 0 27 -4 0 -4 0 -5 0 -4 -1 -4 0 -4 -1 -4 -1 -4 0 -3 -1 -4 -2 -4 -1 -3 -1 -4 -1 -3 -2 -3 -2 -3 -1 -3 -2 -3 -2 -3 -2 -3 -2 -2 -3 -3 -2 -2 -3 -2 -2 -2 -3 -1 -3 -2 -3 -1 -3 -1 -3 -1 -4 0 -3 -1 -3 0 0zm90 -58l0 28 0 0 -3 0 -4 0 -3 0 -3 0 -4 1 -3 0 -3 1 -3 1 -3 0 -3 1 -2 1 -3 1 -3 1 -2 1 -2 1 -2 1 -2 2 -2 1 -2 1 -1 2 -2 1 -1 1 -1 1 -1 2 -1 1 -1 1 0 1 -1 1 0 1 0 1 -1 2 0 1 -28 0 1 -4 0 -3 1 -4 1 -3 1 -3 1 -3 2 -3 2 -3 2 -2 2 -3 3 -2 2 -3 3 -2 3 -2 3 -2 3 -2 3 -1 3 -2 3 -1 4 -2 3 -1 4 -1 4 -1 3 -1 4 -1 4 -1 4 -1 4 0 4 -1 5 0 4 0 4 0 0 0z"/>
    </g>
    <line class="fil1 str32" x1="6181" y1="2537" x2="6437" y2= "2390" />
    <line class="fil1 str32" x1="6181" y1="2574" x2="6500" y2= "2390" />
    <line class="fil1 str32" x1="6181" y1="2611" x2="6373" y2= "2500" />
    <line class="fil1 str32" x1="6181" y1="2648" x2="6469" y2= "2482" />
   </g>
   <g>
    <polygon class="fil2" points="1624,0 923,405 923,1300 1624,895 "/>
    <line class="fil1 str33" x1="981" y1="1157" x2="1507" y2= "853" />
    <line class="fil1 str34" x1="981" y1="468" x2="1390" y2= "232" />
    <polygon class="fil0 str35" points="1273,366 981,535 981,872 1273,704 1273,434 "/>
    <line class="fil1 str34" x1="1332" y1="333" x2="1449" y2= "265" />
    <line class="fil1 str34" x1="1332" y1="400" x2="1507" y2= "299" />
    <line class="fil1 str34" x1="1332" y1="468" x2="1449" y2= "400" />
    <polyline class="fil1 str34" points="981,940 1507,636 1507,704 "/>
    <polyline class="fil1 str34" points="1507,704 981,1007 981,940 "/>
    <line class="fil1 str36" x1="981" y1="1094" x2="1215" y2= "959" />
   </g>
   <g>
    <path class="fil2" d="M3407 5145l-41 23 -407 -2021 41 -24 29 146 326 -188 -29 -146 40 -23 408 2021 -41 24 -63 -312 -326 188 63 312zm253 -549l-41 -204 -326 188 42 204 325 -188zm-51 -252l-41 -205 -325 189 41 204 325 -188zm-51 -253l-41 -204 -325 188 41 204 325 -188zm-50 -252l-42 -205 -325 188 41 205 326 -188zm-51 -253l-41 -204 -326 188 41 204 326 -188zm-51 -253l-41 -204 -326 188 41 204 326 -188z"/>
    <path class="fil0 str37" d="M3428 5156l-41 24 -407 -2021 40 -24 30 145 325 -188 -29 -145 41 -23 407 2021 -41 23 -63 -311 -325 188 63 311zm253 -548l-42 -204 -325 188 41 204 326 -188zm-51 -252l-41 -205 -326 188 41 205 326 -188zm-51 -253l-41 -204 -326 188 41 204 326 -188zm-51 -253l-41 -204 -326 188 41 204 326 -188zm-51 -252l-41 -205 -326 188 41 205 326 -188zm-51 -253l-41 -204 -326 188 42 204 325 -188z"/>
   </g>
  </g>
 </g>
</svg>
