<?xml version="1.0" encoding="UTF-8"?>
<!DOCTYPE svg PUBLIC "-//W3C//DTD SVG 1.1//EN" "http://www.w3.org/Graphics/SVG/1.1/DTD/svg11.dtd">
<!-- Creator: CorelDRAW X7 -->
<svg xmlns="http://www.w3.org/2000/svg" xml:space="preserve" width="90.0006mm" height="188.299mm" version="1.1" style="shape-rendering:geometricPrecision; text-rendering:geometricPrecision; image-rendering:optimizeQuality; fill-rule:evenodd; clip-rule:evenodd"
viewBox="0 0 9000 18830"
 xmlns:xlink="http://www.w3.org/1999/xlink">
 <defs>
  <style type="text/css">
   <![CDATA[
    .fil3 {fill:none}
    .fil0 {fill:#61003F}
    .fil1 {fill:#FFF4F0}
    .fil2 {fill:#61003F;fill-rule:nonzero}
   ]]>
  </style>
 </defs>
 <g id="Layer_x0020_1">
  <metadata id="CorelCorpID_0Corel-Layer"/>
  <g id="_2595059663104">
   <path class="fil0" d="M4447 2555c0,-84 -27,-185 -83,-282 -56,-97 -130,-172 -203,-214 -74,-43 -147,-53 -203,-20 -57,32 -85,101 -85,186l0 461c0,85 28,186 84,283 56,97 129,171 203,214 73,42 147,52 203,20 56,-33 84,-102 84,-186l0 -462zm-160 -130c0,-37 -13,-81 -37,-124 -25,-43 -57,-75 -89,-94 -33,-19 -65,-23 -90,-9 -25,14 -37,45 -37,82l0 570 0 0 0 1c0,37 12,82 37,124 25,43 57,76 89,94 32,19 65,24 90,9 24,-14 37,-44 37,-82 0,-1 0,-2 0,-3l0 0 0 -568z"/>
   <polygon class="fil0" points="3761,1925 3599,1832 3469,1757 3469,1950 3599,2025 3599,2952 3761,3046 "/>
   <path class="fil0" d="M3885 1070c0,-85 -28,-186 -84,-283 -56,-97 -130,-172 -203,-214 -74,-42 -147,-52 -203,-20 -57,33 -85,101 -85,186l0 461c0,85 28,186 84,283 56,97 130,172 203,214 73,43 147,53 203,20 56,-32 85,-101 85,-186l0 -461zm-161 -130c0,-38 -13,-82 -37,-125 -25,-42 -57,-75 -89,-94 -33,-18 -65,-23 -90,-8 -24,14 -37,44 -37,81l0 571 0 0 0 0c0,38 12,82 37,125 25,42 57,75 89,94 33,19 65,23 90,9 24,-15 37,-45 37,-82 0,-1 0,-2 0,-3l0 0 0 -568z"/>
   <polygon class="fil0" points="3198,742 3037,649 2906,574 2906,766 3037,842 3037,1769 3198,1863 "/>
   <polygon class="fil0" points="4232,856 4070,762 3940,687 3940,880 4070,955 4070,1883 4232,1976 "/>
   <path class="fil0" d="M3423 2466c0,-85 -28,-186 -84,-283 -56,-97 -129,-172 -202,-214 -74,-42 -147,-52 -204,-20 -56,32 -84,101 -84,186l0 461c0,85 28,186 84,283 56,97 129,172 203,214 73,42 147,52 203,20 56,-32 84,-101 84,-186l0 -461zm-161 -130c0,-38 -12,-82 -36,-125 -25,-42 -57,-75 -90,-94 -32,-18 -64,-23 -89,-9 -25,15 -37,45 -37,82l0 570 0 0 0 1c0,38 12,82 37,125 24,42 57,75 89,94 32,18 65,23 89,9 25,-15 37,-45 37,-82 0,-1 0,-2 0,-4l0 0 0 -567z"/>
   <polygon class="fil0" points="4096,3352 3934,3258 3804,3183 3804,3376 3934,3451 3934,4379 4096,4472 "/>
   <path class="fil0" d="M3754 3785c0,-85 -28,-186 -84,-283 -56,-97 -129,-172 -203,-214 -73,-43 -147,-53 -203,-20 -56,32 -84,101 -84,186l0 461c0,85 28,186 84,283 56,97 129,171 202,214 74,42 148,52 204,20 56,-33 84,-101 84,-186l0 -461zm-161 -130c0,-38 -12,-82 -37,-125 -24,-42 -57,-75 -89,-94 -32,-19 -64,-23 -89,-9 -25,15 -37,45 -37,82l0 570 0 0 0 1c0,38 12,82 37,125 24,42 56,75 89,94 32,18 64,23 89,8 25,-14 37,-44 37,-81 0,-1 0,-3 0,-4l0 0 0 -567z"/>
   <path class="fil0" d="M3097 3443c0,-85 -28,-186 -84,-283 -56,-97 -129,-172 -203,-214 -73,-42 -147,-52 -203,-20 -56,33 -84,101 -84,186l0 461c0,85 28,186 84,283 56,97 129,172 202,214 74,43 147,53 204,20 56,-32 84,-101 84,-186l0 -461zm-161 -130c0,-37 -12,-82 -37,-125 -24,-42 -57,-75 -89,-94 -32,-18 -65,-23 -89,-8 -25,14 -38,44 -38,81l0 571 0 0 0 0c0,38 13,82 37,125 25,42 57,75 90,94 32,19 64,23 89,9 25,-15 37,-45 37,-82 0,-1 0,-2 0,-3l0 0 0 -568z"/>
   <polygon class="fil0" points="2715,1620 2553,1527 2423,1451 2423,1644 2553,1720 2553,2647 2715,2740 "/>
   <path class="fil0" d="M2370 3066c0,-84 -28,-185 -84,-282 -56,-97 -129,-172 -203,-214 -73,-43 -147,-53 -203,-20 -56,32 -84,101 -84,186l0 461c0,85 28,186 84,283 56,97 129,171 202,214 74,42 147,52 204,20 56,-33 84,-102 84,-186l0 -462zm-161 -130c0,-37 -12,-81 -37,-124 -24,-43 -57,-75 -89,-94 -32,-19 -65,-23 -89,-9 -25,14 -37,45 -37,82l0 570 0 0 0 1c-1,37 12,82 36,124 25,43 57,76 90,95 32,18 64,23 89,8 25,-14 37,-44 37,-82 0,-1 0,-2 0,-3l0 0 0 -568z"/>
   <polygon class="fil0" points="1684,2436 1522,2343 1391,2268 1391,2461 1522,2536 1522,3463 1684,3557 "/>
   <path class="fil0" d="M1807 1581c0,-85 -28,-186 -84,-283 -56,-97 -129,-172 -203,-214 -73,-42 -147,-52 -203,-20 -56,33 -84,101 -84,186l0 461c0,85 28,186 84,283 56,97 129,172 202,214 74,43 147,53 204,20 56,-32 84,-101 84,-186l0 -461zm-161 -130c0,-37 -12,-82 -37,-125 -24,-42 -57,-75 -89,-94 -32,-18 -65,-23 -89,-8 -25,14 -37,44 -37,81l0 571 0 0 0 0c0,38 12,82 36,125 25,42 57,75 90,94 32,19 64,23 89,9 25,-15 37,-45 37,-82 0,-1 0,-2 0,-3l0 0 0 -568z"/>
   <polygon class="fil0" points="1121,1253 959,1160 828,1085 828,1277 959,1353 959,2280 1121,2374 "/>
   <polygon class="fil0" points="2154,1367 1993,1273 1862,1198 1862,1391 1993,1466 1993,2394 2154,2487 "/>
   <path class="fil0" d="M1346 2977c0,-85 -28,-186 -84,-283 -56,-97 -130,-172 -203,-214 -73,-42 -147,-52 -203,-20 -56,32 -85,101 -85,186l0 461c0,85 28,186 84,283 56,97 130,172 203,214 74,42 147,52 203,20 57,-32 85,-101 85,-186l0 -461zm-161 -130c0,-38 -12,-82 -37,-125 -25,-42 -57,-75 -89,-94 -33,-18 -65,-23 -90,-9 -24,15 -37,45 -37,82l0 570 0 0 0 1c0,38 13,82 37,125 25,42 57,75 89,94 33,18 65,23 90,9 24,-15 37,-45 37,-82 0,-1 0,-2 0,-4l0 0 0 -567z"/>
   <polygon class="fil0" points="2018,3863 1856,3769 1726,3694 1726,3887 1856,3962 1856,4890 2018,4983 "/>
   <path class="fil0" d="M1677 4296c0,-85 -28,-186 -84,-283 -56,-97 -130,-172 -203,-214 -74,-43 -147,-53 -203,-20 -57,32 -85,101 -85,186l0 461c0,85 28,186 84,283 56,97 130,171 203,214 73,42 147,52 203,20 56,-33 84,-101 85,-186l0 -461zm-161 -130c0,-38 -13,-82 -37,-125 -25,-42 -57,-75 -89,-94 -33,-19 -65,-23 -90,-9 -25,15 -37,45 -37,82l0 570 0 0 0 1c0,38 12,82 37,125 25,42 57,75 89,94 33,18 65,23 90,9 24,-15 37,-45 37,-82 0,-1 0,-3 0,-4l0 0 0 -567z"/>
   <path class="fil0" d="M1019 3954c0,-85 -28,-186 -84,-283 -56,-97 -129,-171 -202,-214 -74,-42 -147,-52 -204,-20 -56,33 -84,101 -84,186l0 461c0,85 28,186 84,283 56,97 129,172 203,214 73,43 147,53 203,20 56,-32 84,-101 84,-186l0 -461zm-161 -130c0,-37 -12,-82 -36,-125 -25,-42 -57,-75 -90,-94 -32,-18 -64,-23 -89,-8 -25,14 -37,44 -37,81l0 571 0 0 0 1c0,37 12,81 37,124 24,42 57,75 89,94 32,19 65,23 89,9 25,-15 37,-45 37,-82 0,-1 0,-2 0,-3l0 0 0 -568z"/>
   <polygon class="fil0" points="637,2131 476,2038 345,1962 345,2155 476,2231 476,3158 637,3251 "/>
   <path class="fil0" d="M598 1047c0,-85 -28,-186 -84,-283 -56,-97 -129,-171 -203,-214 -73,-42 -147,-52 -203,-20 -56,33 -84,101 -84,186l0 462c0,84 28,185 84,282 56,97 129,172 202,214 74,43 147,53 204,20 56,-32 84,-101 84,-186l0 -461zm-161 -130c0,-37 -12,-82 -37,-124 -24,-43 -57,-76 -89,-95 -32,-18 -65,-23 -89,-8 -25,14 -37,44 -37,82l0 570 0 0 0 1c0,37 12,81 36,124 25,43 57,75 90,94 32,19 64,23 89,9 25,-14 37,-45 37,-82 0,-1 0,-2 0,-3l0 0 0 -568z"/>
   <path class="fil0" d="M2370 3066c0,-84 -28,-185 -84,-282 -56,-97 -129,-172 -203,-214 -73,-43 -147,-53 -203,-20 -56,32 -84,101 -84,186l0 461c0,85 28,186 84,283 56,97 129,171 202,214 74,42 147,52 204,20 56,-33 84,-102 84,-186l0 -462zm-161 -130c0,-37 -12,-81 -37,-124 -24,-43 -57,-75 -89,-94 -32,-19 -65,-23 -89,-9 -25,14 -37,45 -37,82l0 570 0 0 0 1c-1,37 12,82 36,124 25,43 57,76 90,95 32,18 64,23 89,8 25,-14 37,-44 37,-82 0,-1 0,-2 0,-3l0 0 0 -568z"/>
   <polygon class="fil0" points="1684,2436 1522,2343 1391,2268 1391,2461 1522,2536 1522,3463 1684,3557 "/>
   <path class="fil0" d="M1807 1581c0,-85 -28,-186 -84,-283 -56,-97 -129,-172 -203,-214 -73,-42 -147,-52 -203,-20 -56,33 -84,101 -84,186l0 461c0,85 28,186 84,283 56,97 129,172 202,214 74,43 147,53 204,20 56,-32 84,-101 84,-186l0 -461zm-161 -130c0,-37 -12,-82 -37,-125 -24,-42 -57,-75 -89,-94 -32,-18 -65,-23 -89,-8 -25,14 -37,44 -37,81l0 571 0 0 0 0c0,38 12,82 36,125 25,42 57,75 90,94 32,19 64,23 89,9 25,-15 37,-45 37,-82 0,-1 0,-2 0,-3l0 0 0 -568z"/>
   <polygon class="fil0" points="1121,1253 959,1160 828,1085 828,1277 959,1353 959,2280 1121,2374 "/>
   <polygon class="fil0" points="2154,1367 1993,1273 1862,1198 1862,1391 1993,1466 1993,2394 2154,2487 "/>
   <path class="fil0" d="M1346 2977c0,-85 -28,-186 -84,-283 -56,-97 -130,-172 -203,-214 -73,-42 -147,-52 -203,-20 -56,32 -85,101 -85,186l0 461c0,85 28,186 84,283 56,97 130,172 203,214 74,42 147,52 203,20 57,-32 85,-101 85,-186l0 -461zm-161 -130c0,-38 -12,-82 -37,-125 -25,-42 -57,-75 -89,-94 -33,-18 -65,-23 -90,-9 -24,15 -37,45 -37,82l0 570 0 0 0 1c0,38 13,82 37,125 25,42 57,75 89,94 33,18 65,23 90,9 24,-15 37,-45 37,-82 0,-1 0,-2 0,-4l0 0 0 -567z"/>
   <polygon class="fil0" points="2018,3863 1856,3769 1726,3694 1726,3887 1856,3962 1856,4890 2018,4983 "/>
   <path class="fil0" d="M1677 4296c0,-85 -28,-186 -84,-283 -56,-97 -130,-172 -203,-214 -74,-43 -147,-53 -203,-20 -57,32 -85,101 -85,186l0 461c0,85 28,186 84,283 56,97 130,171 203,214 73,42 147,52 203,20 56,-33 84,-101 85,-186l0 -461zm-161 -130c0,-38 -13,-82 -37,-125 -25,-42 -57,-75 -89,-94 -33,-19 -65,-23 -90,-9 -25,15 -37,45 -37,82l0 570 0 0 0 1c0,38 12,82 37,125 25,42 57,75 89,94 33,18 65,23 90,9 24,-15 37,-45 37,-82 0,-1 0,-3 0,-4l0 0 0 -567z"/>
   <path class="fil0" d="M1019 3954c0,-85 -28,-186 -84,-283 -56,-97 -129,-171 -202,-214 -74,-42 -147,-52 -204,-20 -56,33 -84,101 -84,186l0 461c0,85 28,186 84,283 56,97 129,172 203,214 73,43 147,53 203,20 56,-32 84,-101 84,-186l0 -461zm-161 -130c0,-37 -12,-82 -36,-125 -25,-42 -57,-75 -90,-94 -32,-18 -64,-23 -89,-8 -25,14 -37,44 -37,81l0 571 0 0 0 1c0,37 12,81 37,124 24,42 57,75 89,94 32,19 65,23 89,9 25,-15 37,-45 37,-82 0,-1 0,-2 0,-3l0 0 0 -568z"/>
   <polygon class="fil0" points="637,2131 476,2038 345,1962 345,2155 476,2231 476,3158 637,3251 "/>
   <path class="fil0" d="M598 1047c0,-85 -28,-186 -84,-283 -56,-97 -129,-171 -203,-214 -73,-42 -147,-52 -203,-20 -56,33 -84,101 -84,186l0 462c0,84 28,185 84,282 56,97 129,172 202,214 74,43 147,53 204,20 56,-32 84,-101 84,-186l0 -461zm-161 -130c0,-37 -12,-82 -37,-124 -24,-43 -57,-76 -89,-95 -32,-18 -65,-23 -89,-8 -25,14 -37,44 -37,82l0 570 0 0 0 1c0,37 12,81 36,124 25,43 57,75 90,94 32,19 64,23 89,9 25,-14 37,-45 37,-82 0,-1 0,-2 0,-3l0 0 0 -568z"/>
   <path class="fil0" d="M4447 6548c0,-85 -27,-186 -83,-283 -56,-97 -130,-171 -203,-214 -74,-42 -147,-52 -203,-20 -57,33 -85,101 -85,186l0 462c0,84 28,185 84,282 56,97 129,172 203,214 73,43 147,53 203,20 56,-32 84,-101 84,-186l0 -461zm-160 -130c0,-37 -13,-82 -37,-124 -25,-43 -57,-76 -89,-95 -33,-18 -65,-23 -90,-8 -25,14 -37,44 -37,82l0 570 0 0 0 1c0,37 12,81 37,124 25,43 57,75 89,94 32,19 65,23 90,9 24,-14 37,-45 37,-82 0,-1 0,-2 0,-3l0 0 0 -568z"/>
   <polygon class="fil0" points="3761,5918 3599,5825 3469,5749 3469,5942 3599,6018 3599,6945 3761,7038 "/>
   <path class="fil0" d="M3885 5062c0,-84 -28,-185 -84,-282 -56,-97 -130,-172 -203,-214 -74,-43 -147,-53 -203,-20 -57,32 -85,101 -85,186l0 461c0,85 28,186 84,283 56,97 130,171 203,214 73,42 147,52 203,20 56,-33 85,-102 85,-187l0 -461zm-161 -130c0,-37 -13,-81 -37,-124 -25,-43 -57,-75 -89,-94 -33,-19 -65,-23 -90,-9 -24,14 -37,45 -37,82l0 570 0 0 0 1c0,37 12,82 37,124 25,43 57,76 89,94 33,19 65,24 90,9 24,-14 37,-44 37,-82 0,-1 0,-2 0,-3l0 0 0 -568z"/>
   <polygon class="fil0" points="3198,4735 3037,4642 2906,4566 2906,4759 3037,4834 3037,5762 3198,5855 "/>
   <polygon class="fil0" points="4232,4848 4070,4755 3940,4680 3940,4872 4070,4948 4070,5875 4232,5969 "/>
   <path class="fil0" d="M3423 6458c0,-85 -28,-185 -84,-282 -56,-97 -129,-172 -202,-214 -74,-43 -147,-53 -204,-20 -56,32 -84,101 -84,186l0 461c0,85 28,185 84,282 56,97 129,172 203,214 73,43 147,53 203,21 56,-33 84,-102 84,-187l0 -461zm-161 -130c0,-37 -12,-81 -36,-124 -25,-43 -57,-76 -90,-94 -32,-19 -64,-23 -89,-9 -25,14 -37,44 -37,82l0 570 0 0 0 1c0,37 12,82 37,124 24,43 57,76 89,94 32,19 65,23 89,9 25,-14 37,-44 37,-82 0,-1 0,-2 0,-3l0 0 0 -568z"/>
   <polygon class="fil0" points="4096,7344 3934,7251 3804,7176 3804,7368 3934,7444 3934,8371 4096,8465 "/>
   <path class="fil0" d="M3754 7777c0,-85 -28,-186 -84,-283 -56,-97 -129,-171 -203,-214 -73,-42 -147,-52 -203,-20 -56,33 -84,102 -84,187l0 461c0,84 28,185 84,282 56,97 129,172 202,214 74,43 148,53 204,20 56,-32 84,-101 84,-186l0 -461zm-161 -130c0,-37 -12,-82 -37,-124 -24,-43 -57,-76 -89,-94 -32,-19 -64,-23 -89,-9 -25,14 -37,44 -37,82l0 570 0 0 0 1c0,37 12,81 37,124 24,43 56,76 89,94 32,19 64,23 89,9 25,-14 37,-44 37,-82 0,-1 0,-2 0,-3l0 0 0 -568z"/>
   <path class="fil0" d="M3097 7435c0,-84 -28,-185 -84,-282 -56,-97 -129,-172 -203,-214 -73,-43 -147,-53 -203,-20 -56,32 -84,101 -84,186l0 461c0,85 28,186 84,283 56,97 129,171 202,214 74,42 147,52 204,20 56,-33 84,-102 84,-186l0 -462zm-161 -130c0,-37 -12,-81 -37,-124 -24,-43 -57,-75 -89,-94 -32,-19 -65,-23 -89,-9 -25,14 -38,45 -38,82l0 570 0 0 0 1c0,37 13,82 37,124 25,43 57,76 90,94 32,19 64,24 89,9 25,-14 37,-44 37,-82 0,-1 0,-2 0,-3l0 0 0 -568z"/>
   <polygon class="fil0" points="2715,5613 2553,5519 2423,5444 2423,5637 2553,5712 2553,6640 2715,6733 "/>
   <path class="fil0" d="M2676 4528c0,-84 -28,-185 -84,-282 -56,-97 -130,-172 -203,-214 -74,-43 -147,-53 -203,-20 -57,32 -85,101 -85,186l0 461c0,85 28,186 84,283 56,97 130,171 203,214 73,42 147,52 203,20 56,-33 84,-101 85,-186l0 -462zm-161 -130c0,-37 -13,-81 -37,-124 -25,-43 -57,-75 -89,-94 -33,-19 -65,-23 -90,-9 -25,14 -37,45 -37,82l0 570 0 0 0 1c0,37 12,82 37,124 25,43 57,76 89,95 33,18 65,23 90,8 24,-14 37,-44 37,-81 0,-2 0,-3 0,-4l0 0 0 -568z"/>
   <path class="fil0" d="M2370 7059c0,-85 -28,-186 -84,-283 -56,-97 -129,-171 -203,-214 -73,-42 -147,-52 -203,-20 -56,33 -84,101 -84,186l0 462c0,84 28,185 84,282 56,97 129,172 202,214 74,43 147,53 204,20 56,-32 84,-101 84,-186l0 -461zm-161 -130c0,-37 -12,-82 -37,-124 -24,-43 -57,-76 -89,-95 -32,-18 -65,-23 -89,-8 -25,14 -37,44 -37,82l0 570 0 0 0 1c-1,37 12,81 36,124 25,43 57,75 90,94 32,19 64,23 89,9 25,-14 37,-45 37,-82 0,-1 0,-2 0,-3l0 0 0 -568z"/>
   <polygon class="fil0" points="1684,6429 1522,6336 1391,6260 1391,6453 1522,6529 1522,7456 1684,7549 "/>
   <path class="fil0" d="M1807 5573c0,-84 -28,-185 -84,-282 -56,-97 -129,-172 -203,-214 -73,-43 -147,-53 -203,-20 -56,32 -84,101 -84,186l0 461c0,85 28,186 84,283 56,97 129,171 202,214 74,42 147,52 204,20 56,-33 84,-102 84,-186l0 -462zm-161 -130c0,-37 -12,-81 -37,-124 -24,-43 -57,-75 -89,-94 -32,-19 -65,-23 -89,-9 -25,14 -37,45 -37,82l0 570 0 0 0 1c0,37 12,82 36,124 25,43 57,76 90,95 32,18 64,23 89,8 25,-14 37,-44 37,-82 0,-1 0,-2 0,-3l0 0 0 -568z"/>
   <polygon class="fil0" points="1121,5246 959,5153 828,5077 828,5270 959,5345 959,6273 1121,6366 "/>
   <polygon class="fil0" points="2154,5359 1993,5266 1862,5191 1862,5383 1993,5459 1993,6386 2154,6480 "/>
   <path class="fil0" d="M1346 6969c0,-85 -28,-185 -84,-282 -56,-97 -130,-172 -203,-214 -73,-43 -147,-53 -203,-20 -56,32 -85,101 -85,186l0 461c0,85 28,186 84,282 56,97 130,172 203,215 74,42 147,52 203,20 57,-33 85,-102 85,-187l0 -461zm-161 -130c0,-37 -12,-81 -37,-124 -25,-43 -57,-76 -89,-94 -33,-19 -65,-23 -90,-9 -24,14 -37,44 -37,82l0 570 0 0 0 1c0,37 13,82 37,124 25,43 57,76 89,94 33,19 65,23 90,9 24,-14 37,-44 37,-82 0,-1 0,-2 0,-3l0 0 0 -568z"/>
   <polygon class="fil0" points="2018,7855 1856,7762 1726,7687 1726,7879 1856,7955 1856,8882 2018,8976 "/>
   <path class="fil0" d="M1677 8288c0,-85 -28,-186 -84,-283 -56,-96 -130,-171 -203,-214 -74,-42 -147,-52 -203,-20 -57,33 -85,102 -85,187l0 461c0,84 28,185 84,282 56,97 130,172 203,214 73,43 147,53 203,20 56,-32 84,-101 85,-186l0 -461zm-161 -130c0,-37 -13,-82 -37,-124 -25,-43 -57,-76 -89,-94 -33,-19 -65,-23 -90,-9 -25,14 -37,44 -37,82l0 570 0 0 0 1c0,37 12,81 37,124 25,43 57,76 89,94 33,19 65,23 90,9 24,-14 37,-44 37,-82 0,-1 0,-2 0,-3l0 0 0 -568z"/>
   <path class="fil0" d="M1019 7946c0,-84 -28,-185 -84,-282 -56,-97 -129,-172 -202,-214 -74,-43 -147,-53 -204,-20 -56,32 -84,101 -84,186l0 461c0,85 28,186 84,283 56,97 129,171 203,214 73,42 147,52 203,20 56,-33 84,-102 84,-186l0 -462zm-161 -130c0,-37 -12,-81 -36,-124 -25,-43 -57,-75 -90,-94 -32,-19 -64,-23 -89,-9 -25,14 -37,45 -37,82l0 570 0 0 0 1c0,37 12,82 37,124 24,43 57,76 89,95 32,18 65,23 89,8 25,-14 37,-44 37,-82 0,-1 0,-2 0,-3l0 0 0 -568z"/>
   <polygon class="fil0" points="637,6124 476,6030 345,5955 345,6148 476,6223 476,7151 637,7244 "/>
   <path class="fil0" d="M598 5039c0,-84 -28,-185 -84,-282 -56,-97 -129,-172 -203,-214 -73,-43 -147,-53 -203,-20 -56,32 -84,101 -84,186l0 461c0,85 28,186 84,283 56,97 129,171 202,214 74,42 147,52 204,20 56,-33 84,-101 84,-186l0 -462zm-161 -130c0,-37 -12,-81 -37,-124 -24,-42 -57,-75 -89,-94 -32,-19 -65,-23 -89,-9 -25,14 -37,45 -37,82l0 570 0 0 0 1c0,37 12,82 36,124 25,43 57,76 90,95 32,18 64,23 89,8 25,-14 37,-44 37,-81 0,-2 0,-3 0,-4l0 0 0 -568z"/>
   <path class="fil0" d="M2370 7059c0,-85 -28,-186 -84,-283 -56,-97 -129,-171 -203,-214 -73,-42 -147,-52 -203,-20 -56,33 -84,101 -84,186l0 462c0,84 28,185 84,282 56,97 129,172 202,214 74,43 147,53 204,20 56,-32 84,-101 84,-186l0 -461zm-161 -130c0,-37 -12,-82 -37,-124 -24,-43 -57,-76 -89,-95 -32,-18 -65,-23 -89,-8 -25,14 -37,44 -37,82l0 570 0 0 0 1c-1,37 12,81 36,124 25,43 57,75 90,94 32,19 64,23 89,9 25,-14 37,-45 37,-82 0,-1 0,-2 0,-3l0 0 0 -568z"/>
   <polygon class="fil0" points="1684,6429 1522,6336 1391,6260 1391,6453 1522,6529 1522,7456 1684,7549 "/>
   <path class="fil0" d="M1807 5573c0,-84 -28,-185 -84,-282 -56,-97 -129,-172 -203,-214 -73,-43 -147,-53 -203,-20 -56,32 -84,101 -84,186l0 461c0,85 28,186 84,283 56,97 129,171 202,214 74,42 147,52 204,20 56,-33 84,-102 84,-186l0 -462zm-161 -130c0,-37 -12,-81 -37,-124 -24,-43 -57,-75 -89,-94 -32,-19 -65,-23 -89,-9 -25,14 -37,45 -37,82l0 570 0 0 0 1c0,37 12,82 36,124 25,43 57,76 90,95 32,18 64,23 89,8 25,-14 37,-44 37,-82 0,-1 0,-2 0,-3l0 0 0 -568z"/>
   <polygon class="fil0" points="1121,5246 959,5153 828,5077 828,5270 959,5345 959,6273 1121,6366 "/>
   <polygon class="fil0" points="2154,5359 1993,5266 1862,5191 1862,5383 1993,5459 1993,6386 2154,6480 "/>
   <path class="fil0" d="M1346 6969c0,-85 -28,-185 -84,-282 -56,-97 -130,-172 -203,-214 -73,-43 -147,-53 -203,-20 -56,32 -85,101 -85,186l0 461c0,85 28,186 84,282 56,97 130,172 203,215 74,42 147,52 203,20 57,-33 85,-102 85,-187l0 -461zm-161 -130c0,-37 -12,-81 -37,-124 -25,-43 -57,-76 -89,-94 -33,-19 -65,-23 -90,-9 -24,14 -37,44 -37,82l0 570 0 0 0 1c0,37 13,82 37,124 25,43 57,76 89,94 33,19 65,23 90,9 24,-14 37,-44 37,-82 0,-1 0,-2 0,-3l0 0 0 -568z"/>
   <polygon class="fil0" points="2018,7855 1856,7762 1726,7687 1726,7879 1856,7955 1856,8882 2018,8976 "/>
   <path class="fil0" d="M1677 8288c0,-85 -28,-186 -84,-283 -56,-96 -130,-171 -203,-214 -74,-42 -147,-52 -203,-20 -57,33 -85,102 -85,187l0 461c0,84 28,185 84,282 56,97 130,172 203,214 73,43 147,53 203,20 56,-32 84,-101 85,-186l0 -461zm-161 -130c0,-37 -13,-82 -37,-124 -25,-43 -57,-76 -89,-94 -33,-19 -65,-23 -90,-9 -25,14 -37,44 -37,82l0 570 0 0 0 1c0,37 12,81 37,124 25,43 57,76 89,94 33,19 65,23 90,9 24,-14 37,-44 37,-82 0,-1 0,-2 0,-3l0 0 0 -568z"/>
   <path class="fil0" d="M1019 7946c0,-84 -28,-185 -84,-282 -56,-97 -129,-172 -202,-214 -74,-43 -147,-53 -204,-20 -56,32 -84,101 -84,186l0 461c0,85 28,186 84,283 56,97 129,171 203,214 73,42 147,52 203,20 56,-33 84,-102 84,-186l0 -462zm-161 -130c0,-37 -12,-81 -36,-124 -25,-43 -57,-75 -90,-94 -32,-19 -64,-23 -89,-9 -25,14 -37,45 -37,82l0 570 0 0 0 1c0,37 12,82 37,124 24,43 57,76 89,95 32,18 65,23 89,8 25,-14 37,-44 37,-82 0,-1 0,-2 0,-3l0 0 0 -568z"/>
   <polygon class="fil0" points="637,6124 476,6030 345,5955 345,6148 476,6223 476,7151 637,7244 "/>
   <path class="fil0" d="M598 5039c0,-84 -28,-185 -84,-282 -56,-97 -129,-172 -203,-214 -73,-43 -147,-53 -203,-20 -56,32 -84,101 -84,186l0 461c0,85 28,186 84,283 56,97 129,171 202,214 74,42 147,52 204,20 56,-33 84,-101 84,-186l0 -462zm-161 -130c0,-37 -12,-81 -37,-124 -24,-42 -57,-75 -89,-94 -32,-19 -65,-23 -89,-9 -25,14 -37,45 -37,82l0 570 0 0 0 1c0,37 12,82 36,124 25,43 57,76 90,95 32,18 64,23 89,8 25,-14 37,-44 37,-81 0,-2 0,-3 0,-4l0 0 0 -568z"/>
   <path class="fil0" d="M2676 536c0,-85 -28,-186 -84,-283 -56,-97 -130,-171 -203,-214 -74,-42 -147,-52 -203,-20 -57,33 -85,101 -85,186l0 462c0,84 28,185 84,282 56,97 130,172 203,214 73,43 147,53 203,20 56,-32 84,-101 85,-186l0 -461zm-161 -130c0,-37 -13,-82 -37,-124 -25,-43 -57,-76 -89,-95 -33,-18 -65,-23 -90,-8 -25,14 -37,44 -37,82l0 570 0 0 0 1c0,37 12,81 37,124 25,43 57,75 89,94 33,19 65,23 90,9 24,-14 37,-45 37,-82 0,-1 0,-2 0,-3l0 0 0 -568z"/>
   <polygon class="fil1" points="6656,12319 6656,9693 8929,10131 "/>
   <path class="fil2" d="M6609 12316l0 -2623c0,-26 21,-47 47,-47 3,0 6,0 9,1l0 0 2273 437c26,5 42,30 37,55 -2,11 -7,20 -14,27l-2272 2187c-19,18 -49,17 -67,-2 -9,-9 -13,-22 -13,-35zm94 -2566l0 2458 2128 -2048 -2128 -410z"/>
   <polygon class="fil1" points="4384,13632 6656,11006 4384,11006 "/>
   <path class="fil2" d="M4431 13505l2122 -2452 -2122 0 0 2452zm2261 -2468l-2270 2623c-9,11 -23,19 -38,19 -26,0 -48,-21 -48,-47l0 -2626c0,-26 22,-47 48,-47l2272 0 0 0c11,0 22,3 31,11 20,17 22,47 5,67z"/>
   <polygon class="fil1" points="4384,11006 4384,13632 4005,13413 4005,10787 6278,10787 6278,9474 8550,9912 8929,10131 6656,9693 6656,11006 "/>
   <path class="fil2" d="M4431 11053l0 2579c0,26 -21,47 -47,47 -11,0 -20,-3 -28,-9l-375 -216c-15,-9 -23,-25 -23,-41l0 0 0 -2626c0,-26 21,-47 47,-47 1,0 3,0 4,0l2221 0 0 -1266c0,-26 22,-47 48,-47 4,0 8,0 12,1l2269 437c7,2 13,4 18,8l376 217c22,13 30,41 17,64 -10,18 -30,26 -50,23l0 0 -2216 -427 0 1256c0,26 -21,47 -48,47l-2225 0zm-95 2497l0 -2544c0,-26 22,-47 48,-47l2225 0 0 -1266 0 0c0,-3 1,-6 1,-9 5,-25 30,-42 55,-37l1998 384 -129 -74 -2209 -426 0 1256 0 0c0,26 -21,47 -47,47l-2226 0 0 2552 284 164z"/>
   <polygon class="fil1" points="6656,11006 6656,12319 6278,12100 6296,11422 "/>
   <path class="fil2" d="M6704 11006l0 1313c0,26 -21,47 -48,47 -10,0 -19,-3 -27,-9l-375 -216c-15,-9 -24,-26 -23,-42l0 0 18 -678c0,-11 5,-22 12,-30l-1 0 361 -416c17,-20 47,-22 66,-5 11,10 17,23 17,36l0 0zm-95 1231l0 -1105 -266 308 -18 633 284 164z"/>
   <line class="fil3" x1="6278" y1="10787" x2="6656" y2= "11006" />
   <path class="fil2" d="M6254 10828c-23,-13 -30,-42 -17,-65 13,-22 42,-30 64,-17l379 219c23,13 30,42 17,64 -13,23 -42,31 -64,18l-379 -219z"/>
   <line class="fil3" x1="4005" y1="10787" x2="4384" y2= "11006" />
   <path class="fil2" d="M3981 10828c-22,-13 -30,-42 -17,-65 13,-22 42,-30 64,-17l379 219c23,13 30,42 17,64 -13,23 -41,31 -64,18l-379 -219z"/>
   <line class="fil3" x1="6278" y1="9474" x2="6656" y2= "9693" />
   <path class="fil2" d="M6254 9515c-22,-13 -30,-42 -17,-64 13,-23 42,-31 64,-18l379 219c22,13 30,42 17,64 -13,23 -41,31 -64,18l-379 -219z"/>
   <polygon class="fil1" points="3950,17680 3186,18121 3186,15473 3950,15032 "/>
   <path class="fil2" d="M3970 17722l-760 440c-23,13 -52,5 -65,-18 -4,-7 -6,-15 -6,-23l0 0 0 -2648c0,-19 11,-35 27,-43l760 -439c23,-13 52,-5 65,17 4,8 6,16 6,24l0 0 0 2648c0,18 -11,34 -27,42zm-737 317l670 -387 0 -2538 -670 386 0 2539z"/>
   <polygon class="fil1" points="3186,15473 3950,15032 3568,14811 2804,15253 2804,17900 3186,18121 "/>
   <path class="fil2" d="M3165 15431l691 -399 -288 -166 -717 414 0 2593 288 166 0 -2566c0,-19 11,-35 26,-42zm808 -358l-740 427 0 2621 0 0c0,8 -2,16 -6,23 -13,23 -42,31 -64,18l-379 -219c-16,-7 -27,-24 -27,-43l0 -2647 0 0c0,-17 8,-33 24,-41l763 -441c14,-9 32,-9 47,-1l380 220c8,4 15,10 20,18 13,23 5,52 -18,65z"/>
   <line class="fil3" x1="3186" y1="15473" x2="2804" y2= "15253" />
   <path class="fil2" d="M3209 15432c23,13 31,42 18,65 -13,22 -42,30 -64,17l-382 -221c-23,-13 -31,-41 -18,-64 13,-22 42,-30 64,-17l382 220z"/>
   <polygon class="fil1" points="2040,16135 2804,15694 2804,18341 2040,18783 "/>
   <path class="fil2" d="M2020 16092l760 -439c23,-13 52,-5 65,17 4,8 6,16 6,24l0 0 0 2647c0,19 -11,35 -26,43l-761 440c-23,13 -52,5 -65,-18 -4,-7 -6,-15 -6,-23l0 0 0 -2648c0,-19 11,-35 27,-43zm737 -316l-670 386 0 2539 670 -387 0 -2538z"/>
   <polygon class="fil1" points="2040,16135 2804,15694 2422,15473 1658,15914 1658,18562 2040,18783 "/>
   <path class="fil2" d="M2020 16092l690 -398 -288 -166 -717 414 0 2593 288 166 0 -2566c0,-19 11,-35 27,-43zm808 -357l-741 427 0 2621 0 0c0,8 -2,16 -6,23 -13,23 -42,30 -64,18l-378 -219c-17,-7 -28,-24 -28,-43l0 -2648 0 0c0,-16 8,-32 24,-40l763 -442 0 0c15,-8 32,-8 47,0l380 220c8,4 15,10 20,18 13,23 5,52 -17,65z"/>
   <line class="fil3" x1="2040" y1="16135" x2="1658" y2= "15914" />
   <path class="fil2" d="M2064 16094c22,13 30,42 17,65 -13,22 -42,30 -64,17l-382 -221c-23,-13 -31,-41 -18,-64 13,-23 42,-30 65,-17l382 220z"/>
  </g>
 </g>
</svg>
