<?xml version="1.0" encoding="UTF-8"?>
<!DOCTYPE svg PUBLIC "-//W3C//DTD SVG 1.1//EN" "http://www.w3.org/Graphics/SVG/1.1/DTD/svg11.dtd">
<!-- Creator: CorelDRAW X7 -->
<svg xmlns="http://www.w3.org/2000/svg" xml:space="preserve" width="3.64333in" height="1.72333in" version="1.1" style="shape-rendering:geometricPrecision; text-rendering:geometricPrecision; image-rendering:optimizeQuality; fill-rule:evenodd; clip-rule:evenodd"
viewBox="0 0 3643 1723"
 xmlns:xlink="http://www.w3.org/1999/xlink">
 <defs>
  <style type="text/css">
   <![CDATA[
    .fil2 {fill:none}
    .fil1 {fill:#EBECEC}
    .fil4 {fill:#0B599D}
    .fil0 {fill:#FEFEFE;fill-rule:nonzero}
    .fil3 {fill:#2B2A29;fill-rule:nonzero}
   ]]>
  </style>
 </defs>
 <g id="Layer_x0020_1">
  <metadata id="CorelCorpID_0Corel-Layer"/>
  <path class="fil0" d="M43 110l-27 28 0 70 -17 0 0 -196 17 0 0 105 100 -105 21 0 -82 87 89 109 -21 0 -80 -98zm217 -98l17 0 0 138c0,18 -6,33 -16,44 -11,11 -26,17 -44,17 -19,0 -33,-5 -44,-15 -10,-10 -15,-24 -15,-42l17 0c0,14 3,25 11,32 7,7 18,11 31,11 13,0 23,-5 31,-13 8,-8 12,-19 12,-34l0 -138zm176 148c0,-11 -4,-20 -11,-26 -8,-7 -22,-13 -42,-18 -20,-6 -35,-12 -45,-19 -13,-10 -20,-22 -20,-37 0,-15 7,-28 19,-37 12,-9 28,-14 47,-14 13,0 25,2 35,7 11,5 19,12 24,21 6,9 9,19 9,30l-17 0c0,-13 -5,-24 -14,-32 -9,-8 -21,-12 -37,-12 -15,0 -27,3 -35,10 -9,7 -14,15 -14,26 0,10 4,18 12,25 8,6 21,11 39,16 17,5 31,10 40,15 9,5 16,12 20,19 5,7 7,15 7,25 0,16 -6,28 -19,38 -12,9 -28,14 -48,14 -14,0 -27,-3 -38,-8 -12,-5 -21,-12 -27,-21 -6,-8 -9,-19 -9,-30l17 0c0,14 5,25 15,33 11,8 24,12 42,12 15,0 27,-4 36,-11 10,-6 14,-15 14,-26zm192 -13c-3,20 -10,36 -23,47 -12,11 -29,17 -50,17 -14,0 -27,-4 -38,-11 -11,-8 -20,-18 -26,-31 -6,-14 -9,-29 -9,-46l0 -26c0,-17 3,-32 9,-46 6,-13 15,-24 26,-31 12,-8 25,-11 40,-11 21,0 37,5 49,17 13,11 20,27 22,47l-17 0c-4,-33 -22,-50 -54,-50 -18,0 -32,7 -43,20 -10,13 -16,32 -16,55l0 24c0,23 5,41 16,54 10,14 24,21 41,21 18,0 31,-5 40,-13 8,-8 14,-21 16,-37l17 0zm148 -33l-91 0 0 80 105 0 0 14 -122 0 0 -196 121 0 0 14 -104 0 0 74 91 0 0 14zm227 46c0,-11 -4,-20 -11,-26 -8,-7 -22,-13 -42,-18 -20,-6 -35,-12 -45,-19 -13,-10 -20,-22 -20,-37 0,-15 7,-28 19,-37 12,-9 28,-14 47,-14 13,0 25,2 35,7 11,5 19,12 24,21 6,9 9,19 9,30l-17 0c0,-13 -5,-24 -14,-32 -9,-8 -21,-12 -37,-12 -15,0 -27,3 -36,10 -8,7 -13,15 -13,26 0,10 4,18 12,25 8,6 21,11 39,16 17,5 30,10 40,15 9,5 15,12 20,19 5,7 7,15 7,25 0,16 -6,28 -19,38 -12,9 -28,14 -48,14 -14,0 -27,-3 -39,-8 -11,-5 -20,-12 -26,-21 -6,-8 -9,-19 -9,-30l17 0c0,14 5,25 15,33 11,8 24,12 42,12 15,0 27,-4 36,-11 10,-6 14,-15 14,-26zm74 -135l0 37 30 0 0 13 -30 0 0 98c0,8 1,14 4,18 3,4 8,6 15,6 3,0 7,-1 13,-2l1 13c-5,2 -10,3 -18,3 -11,0 -19,-4 -24,-10 -5,-6 -7,-16 -7,-28l0 -98 -27 0 0 -13 27 0 0 -37 16 0zm157 164c-9,15 -25,22 -46,22 -16,0 -27,-5 -36,-14 -8,-9 -12,-22 -12,-40l0 -95 16 0 0 93c0,28 11,42 34,42 23,0 38,-10 44,-29l0 -106 16 0 0 146 -15 0 -1 -19zm52 -55c0,-23 5,-41 15,-55 10,-13 24,-20 41,-20 20,0 35,8 45,24l0 -82 16 0 0 207 -15 0 -1 -20c-10,15 -25,23 -45,23 -17,0 -30,-7 -41,-21 -10,-13 -15,-31 -15,-54l0 -2zm16 2c0,19 4,34 11,44 8,11 18,17 32,17 20,0 34,-9 42,-27l0 -68c-8,-19 -22,-29 -42,-29 -13,0 -24,6 -32,16 -7,11 -11,27 -11,47zm200 75c-12,0 -23,-3 -33,-10 -10,-6 -18,-14 -24,-25 -5,-11 -8,-23 -8,-37l0 -6c0,-14 3,-26 8,-38 5,-11 13,-20 23,-26 9,-6 20,-10 31,-10 18,0 32,6 42,18 11,13 16,29 16,50l0 9 -104 0 0 3c0,17 5,31 14,42 10,11 22,16 36,16 9,0 16,-1 23,-5 6,-3 12,-8 18,-15l10 8c-12,17 -29,26 -52,26zm-3 -138c-12,0 -22,5 -30,13 -9,9 -14,21 -16,36l88 0 0 -1c-1,-14 -5,-26 -12,-35 -8,-8 -18,-13 -30,-13zm105 -11l0 25c6,-9 12,-16 21,-21 8,-4 17,-7 27,-7 15,0 27,5 35,14 7,8 11,22 11,39l0 96 -16 0 0 -96c0,-13 -3,-23 -8,-29 -5,-6 -14,-10 -26,-10 -10,0 -19,4 -27,10 -7,6 -13,14 -17,25l0 100 -16 0 0 -146 16 0zm161 -37l0 37 30 0 0 13 -30 0 0 98c0,8 1,14 4,18 3,4 8,6 15,6 3,0 7,-1 13,-2l1 13c-4,2 -10,3 -17,3 -12,0 -20,-4 -25,-10 -5,-6 -7,-16 -7,-28l0 -98 -27 0 0 -13 27 0 0 -37 16 0zm151 146c0,-8 -3,-15 -10,-19 -6,-5 -16,-9 -29,-12 -13,-3 -23,-6 -30,-9 -7,-4 -12,-8 -16,-13 -3,-5 -5,-12 -5,-19 0,-11 5,-21 15,-28 9,-8 21,-12 36,-12 17,0 30,4 40,12 9,8 14,19 14,32l-16 0c0,-9 -3,-16 -11,-21 -7,-6 -16,-9 -27,-9 -10,0 -19,2 -25,7 -7,5 -10,11 -10,19 0,7 3,13 8,17 6,4 15,7 30,11 14,3 24,6 31,10 7,4 13,9 16,14 3,5 5,12 5,19 0,12 -5,22 -15,30 -10,7 -23,11 -39,11 -17,0 -30,-4 -41,-13 -10,-8 -16,-18 -16,-31l16 0c1,10 5,17 12,22 8,5 17,8 29,8 12,0 21,-2 28,-7 7,-5 10,-12 10,-19zm49 -111l-9 -7c8,-11 12,-23 12,-35l0 -17 16 0 0 13c0,19 -6,34 -19,46zm195 87c-2,20 -9,36 -22,47 -13,11 -29,17 -50,17 -15,0 -27,-4 -39,-11 -11,-8 -20,-18 -26,-31 -6,-14 -9,-29 -9,-46l0 -26c0,-17 3,-32 9,-46 6,-13 15,-24 27,-31 11,-8 24,-11 39,-11 21,0 38,5 50,17 12,11 19,27 21,47l-17 0c-4,-33 -22,-50 -54,-50 -18,0 -32,7 -42,20 -11,13 -16,32 -16,55l0 24c0,23 5,41 15,54 11,14 24,21 42,21 17,0 30,-5 39,-13 9,-8 14,-21 16,-37l17 0zm28 -14c0,-14 3,-27 8,-38 5,-11 13,-20 23,-26 10,-7 21,-10 34,-10 19,0 35,7 47,21 12,13 18,31 18,54l0 3c0,14 -3,27 -8,38 -6,12 -13,20 -23,26 -10,7 -21,10 -34,10 -19,0 -35,-7 -47,-21 -12,-13 -18,-31 -18,-54l0 -3zm16 4c0,18 5,32 14,43 9,11 20,17 35,17 15,0 26,-6 35,-17 10,-11 14,-26 14,-44l0 -3c0,-11 -2,-21 -6,-31 -4,-9 -10,-16 -18,-21 -7,-5 -16,-8 -25,-8 -15,0 -26,6 -35,17 -9,11 -14,26 -14,44l0 3zm241 52c-10,15 -25,22 -46,22 -16,0 -28,-5 -36,-14 -8,-9 -12,-22 -12,-40l0 -95 16 0 0 93c0,28 11,42 34,42 23,0 38,-10 44,-29l0 -106 16 0 0 146 -16 0 0 -19zm73 -127l1 25c5,-9 12,-16 20,-21 9,-4 18,-7 27,-7 16,0 28,5 35,14 8,8 12,22 12,39l0 96 -16 0 0 -96c0,-13 -3,-23 -8,-29 -6,-6 -14,-10 -26,-10 -10,0 -19,4 -27,10 -8,6 -13,14 -17,25l0 100 -16 0 0 -146 15 0zm191 135c11,0 20,-3 28,-9 7,-7 12,-15 12,-25l16 0c-1,9 -4,17 -9,24 -5,8 -12,13 -20,17 -9,5 -18,7 -27,7 -20,0 -35,-7 -46,-20 -11,-14 -17,-32 -17,-54l0 -5c0,-14 3,-27 8,-38 5,-11 12,-20 21,-26 10,-6 21,-9 33,-9 16,0 30,5 40,15 10,9 16,22 17,37l-16 0c-1,-11 -5,-20 -12,-27 -8,-7 -17,-11 -29,-11 -14,0 -25,5 -33,16 -9,10 -13,25 -13,44l0 5c0,19 4,33 13,43 8,11 19,16 34,16zm106 11l-16 0 0 -146 16 0 0 146zm-19 -188c0,-3 1,-6 3,-8 2,-2 5,-3 8,-3 3,0 6,1 8,3 2,2 3,5 3,8 0,3 -1,6 -3,8 -2,2 -5,3 -8,3 -3,0 -6,-1 -8,-3 -2,-2 -3,-5 -3,-8zm81 188l-16 0 0 -207 16 0 0 207zm183 0l-16 0 0 -177 -53 20 0 -15 67 -25 2 0 0 197zm173 -198l0 14 -2 0c-23,0 -41,7 -55,21 -13,14 -21,33 -22,57 5,-7 12,-13 20,-17 9,-4 18,-6 28,-6 18,0 31,6 41,18 11,12 16,27 16,47 0,12 -3,24 -7,34 -5,10 -12,18 -21,24 -9,6 -19,9 -30,9 -19,0 -34,-7 -46,-21 -12,-13 -18,-31 -18,-53l0 -16c0,-35 8,-62 24,-81 16,-20 39,-29 68,-30l4 0zm-33 83c-10,0 -20,3 -29,9 -9,6 -15,14 -18,23l0 14c0,17 5,31 14,42 8,10 20,16 34,16 12,0 22,-5 30,-15 8,-10 12,-23 12,-38 0,-15 -4,-28 -12,-37 -8,-9 -18,-14 -31,-14zm144 35l-65 0 0 -13 65 0 0 13zm101 80l-16 0 0 -177 -53 20 0 -15 67 -25 2 0 0 197zm199 -187l-84 187 -17 0 84 -183 -112 0 0 -13 129 0 0 9z"/>
  <g id="_547516654656">
   <g>
    <g>
     <path class="fil0" d="M1722 502l-41 0 -9 25 -8 0 34 -89 7 0 34 89 -8 0 -9 -25zm-38 -6l35 0 -17 -49 -18 49zm119 -6c0,13 -2,22 -7,29 -4,6 -11,10 -20,10 -9,0 -16,-3 -21,-10 -4,-6 -7,-16 -7,-28l0 -16c0,-13 3,-22 7,-29 5,-6 12,-9 21,-9 8,0 15,3 20,9 5,6 7,16 7,28l0 16zm-7 -16c0,-10 -2,-18 -5,-23 -4,-5 -9,-8 -15,-8 -7,0 -12,3 -15,8 -4,5 -5,12 -5,22l0 18c0,10 1,18 5,23 3,6 8,9 15,9 6,0 11,-3 15,-8 3,-6 5,-13 5,-24l0 -17zm79 53l-56 0 0 -5 31 -35c5,-6 8,-11 10,-14 2,-4 3,-8 3,-12 0,-5 -2,-10 -5,-13 -3,-3 -8,-5 -14,-5 -6,0 -10,2 -14,6 -4,4 -6,9 -6,15l-7 0c0,-5 1,-10 3,-14 3,-4 6,-7 10,-10 4,-2 9,-3 14,-3 9,0 15,2 20,6 4,5 7,10 7,18 0,4 -2,9 -4,14 -3,4 -8,11 -14,18l-25 28 47 0 0 6zm68 -37c0,13 -3,22 -7,29 -5,6 -12,10 -21,10 -9,0 -15,-3 -20,-10 -5,-6 -7,-16 -7,-28l0 -16c0,-13 2,-22 7,-29 4,-6 11,-9 20,-9 9,0 16,3 20,9 5,6 7,16 8,28l0 16zm-8 -16c0,-10 -1,-18 -5,-23 -3,-5 -8,-8 -15,-8 -7,0 -12,3 -15,8 -3,5 -5,12 -5,22l0 18c0,10 2,18 5,23 4,6 9,9 15,9 7,0 12,-3 15,-8 3,-6 5,-13 5,-24l0 -17zm23 70l-4 -3c3,-5 5,-10 5,-16l0 -9 8 0 0 8c0,8 -3,15 -9,20zm92 -27c-3,4 -7,7 -12,9 -6,2 -12,3 -19,3 -7,0 -13,-2 -19,-5 -5,-4 -10,-8 -13,-15 -3,-6 -4,-13 -4,-21l0 -11c0,-12 3,-22 9,-29 7,-8 15,-11 26,-11 9,0 16,2 22,7 5,4 9,11 10,19l-8 0c-1,-6 -4,-11 -8,-15 -4,-3 -10,-5 -16,-5 -9,0 -15,3 -20,9 -5,6 -8,14 -8,25l0 11c0,7 2,13 4,18 2,5 6,9 10,12 4,3 9,4 15,4 6,0 12,-1 17,-3 3,-1 5,-3 6,-4l0 -24 -24 0 0 -6 32 0 0 32zm50 -50c-1,0 -3,0 -5,0 -4,0 -8,1 -11,4 -4,2 -6,6 -7,11l0 45 -7 0 0 -66 7 0 0 11c4,-8 10,-12 19,-12 2,0 3,0 4,1l0 6zm7 26c0,-6 1,-12 3,-17 3,-5 6,-9 11,-12 4,-3 9,-4 15,-4 9,0 16,3 22,9 5,6 8,15 8,25l0 1c0,7 -1,13 -4,18 -2,5 -6,9 -10,12 -5,2 -10,4 -16,4 -8,0 -16,-3 -21,-10 -6,-6 -8,-14 -8,-24l0 -2zm7 2c0,8 2,15 6,20 4,5 10,8 16,8 7,0 12,-3 16,-8 5,-5 7,-12 7,-20l0 -2c0,-5 -1,-9 -3,-14 -2,-4 -5,-7 -8,-9 -4,-3 -7,-4 -12,-4 -6,0 -12,3 -16,8 -4,5 -6,12 -6,20l0 1zm110 24c-5,6 -12,10 -21,10 -7,0 -13,-2 -17,-6 -3,-5 -5,-11 -5,-19l0 -43 7 0 0 42c0,13 5,19 16,19 10,0 17,-4 20,-13l0 -48 7 0 0 66 -7 0 0 -8zm33 -58l0 11c3,-4 6,-7 10,-9 3,-2 8,-3 12,-3 7,0 13,2 16,6 3,4 5,10 5,18l0 43 -7 0 0 -43c0,-6 -1,-11 -4,-13 -2,-3 -6,-5 -12,-5 -4,0 -8,2 -12,4 -3,3 -6,7 -8,12l0 45 -7 0 0 -66 7 0zm59 33c0,-11 3,-19 7,-25 5,-6 11,-9 19,-9 9,0 16,3 21,10l0 -37 7 0 0 94 -7 0 0 -8c-5,6 -12,10 -21,10 -8,0 -14,-3 -19,-10 -4,-6 -7,-14 -7,-24l0 -1zm8 1c0,8 1,15 5,20 3,5 8,7 14,7 9,0 16,-4 20,-12l0 -31c-4,-8 -11,-13 -20,-13 -6,0 -11,3 -14,7 -3,5 -5,12 -5,22zm147 -9l-42 0 0 41 -8 0 0 -89 56 0 0 6 -48 0 0 35 42 0 0 7zm28 41l-8 0 0 -94 8 0 0 94zm16 -34c0,-6 1,-12 3,-17 3,-5 6,-9 11,-12 4,-3 10,-4 15,-4 9,0 16,3 22,9 5,6 8,15 8,25l0 1c0,7 -1,13 -4,18 -2,5 -6,9 -10,12 -5,2 -10,4 -16,4 -8,0 -16,-3 -21,-10 -6,-6 -8,-14 -8,-24l0 -2zm7 2c0,8 2,15 6,20 4,5 10,8 16,8 7,0 12,-3 16,-8 5,-5 7,-12 7,-20l0 -2c0,-5 -1,-9 -3,-14 -2,-4 -5,-7 -8,-9 -3,-3 -7,-4 -12,-4 -6,0 -12,3 -16,8 -4,5 -6,12 -6,20l0 1zm63 -2c0,-6 1,-12 4,-17 2,-5 6,-9 10,-12 5,-3 10,-4 16,-4 9,0 16,3 21,9 6,6 8,15 8,25l0 1c0,7 -1,13 -3,18 -3,5 -6,9 -11,12 -4,2 -9,4 -15,4 -9,0 -16,-3 -22,-10 -5,-6 -8,-14 -8,-24l0 -2zm7 2c0,8 3,15 7,20 4,5 9,8 16,8 6,0 12,-3 16,-8 4,-5 6,-12 6,-20l0 -2c0,-5 -1,-9 -3,-14 -2,-4 -4,-7 -8,-9 -3,-3 -7,-4 -11,-4 -7,0 -12,3 -16,8 -4,5 -7,12 -7,20l0 1zm98 -28c-1,0 -3,0 -5,0 -4,0 -8,1 -11,4 -4,2 -6,6 -7,11l0 45 -7 0 0 -66 7 0 0 11c4,-8 10,-12 19,-12 2,0 3,0 4,1l0 6zm3 77l-5 -3c4,-5 6,-10 6,-16l0 -9 7 0 0 8c0,8 -2,15 -8,20zm-999 90l-13 12 0 32 -7 0 0 -89 7 0 0 48 46 -48 9 0 -37 40 40 49 -9 0 -36 -44zm57 40c0,-1 0,-3 1,-4 1,-1 2,-1 4,-1 1,0 3,0 4,1 1,1 1,3 1,4 0,1 0,3 -1,4 -1,0 -3,1 -4,1 -2,0 -3,-1 -4,-1 -1,-1 -1,-3 -1,-4zm71 -85l8 0 0 63c0,8 -2,15 -7,20 -5,5 -12,8 -20,8 -9,0 -15,-3 -20,-7 -5,-5 -7,-11 -7,-19l8 0c0,6 1,11 5,14 3,4 8,5 14,5 6,0 10,-2 14,-5 4,-4 5,-9 5,-16l0 -63zm28 85c0,-1 0,-3 1,-4 1,-1 2,-1 4,-1 2,0 3,0 4,1 1,1 1,3 1,4 0,1 0,3 -1,4 -1,0 -2,1 -4,1 -2,0 -3,-1 -4,-1 -1,-1 -1,-3 -1,-4zm113 -18c0,-5 -1,-8 -5,-11 -3,-3 -10,-6 -19,-9 -9,-2 -16,-5 -20,-8 -6,-4 -9,-10 -9,-17 0,-7 3,-13 8,-17 6,-4 13,-6 22,-6 6,0 11,1 16,3 4,2 8,6 11,10 2,4 3,8 3,13l-7 0c0,-6 -2,-11 -6,-14 -5,-4 -10,-6 -17,-6 -7,0 -13,2 -17,5 -4,3 -6,7 -6,12 0,4 2,8 6,11 3,3 9,5 17,7 8,3 14,5 19,7 4,3 7,5 9,9 2,3 3,7 3,11 0,7 -3,13 -8,17 -6,5 -13,7 -23,7 -6,0 -12,-1 -17,-4 -5,-2 -9,-5 -12,-9 -3,-4 -4,-9 -4,-14l7 0c0,6 3,11 8,15 4,3 11,5 18,5 7,0 13,-1 17,-4 4,-3 6,-8 6,-13zm19 -12c0,-6 1,-12 3,-17 3,-5 6,-9 11,-12 4,-3 9,-4 15,-4 9,0 16,3 22,9 5,6 8,14 8,25l0 1c0,7 -1,12 -4,18 -2,5 -6,9 -10,12 -5,2 -10,4 -16,4 -9,0 -16,-3 -21,-10 -6,-6 -8,-14 -8,-24l0 -2zm7 2c0,8 2,15 6,20 4,5 10,8 16,8 7,0 12,-3 16,-8 5,-5 7,-12 7,-20l0 -2c0,-5 -1,-9 -3,-14 -2,-4 -5,-7 -8,-9 -4,-3 -7,-4 -12,-4 -6,0 -12,3 -16,8 -4,5 -6,12 -6,20l0 1zm74 -34l0 11c2,-4 5,-7 9,-9 4,-2 8,-3 12,-3 11,0 18,4 20,13 3,-4 6,-8 10,-10 4,-2 8,-3 13,-3 14,0 22,8 22,23l0 44 -7 0 0 -43c-1,-6 -2,-11 -4,-14 -3,-2 -7,-4 -13,-4 -5,0 -9,2 -13,5 -4,4 -6,8 -6,12l0 44 -7 0 0 -44c-1,-6 -2,-10 -4,-13 -3,-2 -7,-4 -13,-4 -4,0 -8,1 -12,4 -3,3 -5,7 -7,12l0 45 -7 0 0 -66 7 0zm146 66c0,-2 -1,-5 -1,-9 -3,4 -6,6 -10,8 -4,2 -8,3 -13,3 -6,0 -11,-2 -15,-6 -4,-3 -6,-8 -6,-13 0,-7 3,-12 8,-16 6,-3 13,-5 23,-5l13 0 0 -8c0,-5 -1,-8 -4,-11 -3,-3 -8,-4 -13,-4 -5,0 -10,1 -13,4 -3,2 -5,6 -5,9l-7 0c0,-5 2,-10 7,-13 5,-4 11,-6 18,-6 8,0 13,2 18,5 4,4 6,9 6,16l0 31c0,7 1,11 2,15l0 0 -8 0zm-23 -5c5,0 10,-1 14,-3 3,-3 6,-6 8,-10l0 -15 -13 0c-7,1 -13,2 -17,5 -4,2 -7,6 -7,10 0,4 2,7 5,10 2,2 6,3 10,3zm57 5l-7 0 0 -66 7 0 0 66zm-9 -85c0,-2 1,-3 2,-4 1,-1 2,-1 3,-1 2,0 3,0 4,1 1,1 2,2 2,4 0,1 -1,2 -2,3 -1,1 -2,2 -4,2 -1,0 -2,-1 -3,-2 -1,-1 -2,-2 -2,-3zm50 75l20 -56 7 0 -28 78 -1 3c-4,8 -10,12 -17,12 -2,0 -4,0 -6,-1l0 -6 4 1c3,0 6,-1 9,-3 2,-2 4,-5 5,-9l3 -9 -25 -66 8 0 21 56zm80 10c-1,-2 -1,-5 -2,-9 -2,4 -5,6 -9,8 -4,2 -9,3 -13,3 -6,0 -12,-2 -16,-6 -4,-3 -6,-8 -6,-13 0,-7 3,-12 9,-16 5,-3 12,-5 22,-5l13 0 0 -8c0,-5 -1,-8 -4,-11 -3,-3 -7,-4 -13,-4 -5,0 -9,1 -13,4 -3,2 -5,6 -5,9l-7 0c0,-5 3,-10 7,-13 5,-4 11,-6 19,-6 7,0 13,2 17,5 4,4 7,9 7,16l0 31c0,7 0,11 2,15l0 0 -8 0zm-23 -5c5,0 9,-1 13,-3 4,-3 7,-6 8,-10l0 -15 -13 0c-7,1 -13,2 -17,5 -4,2 -6,6 -6,10 0,4 1,7 4,10 3,2 6,3 11,3zm144 -22c-1,9 -5,16 -10,21 -6,5 -14,8 -23,8 -7,0 -13,-2 -18,-5 -5,-4 -9,-8 -11,-14 -3,-7 -5,-13 -5,-21l0 -12c0,-8 2,-15 4,-21 3,-6 7,-11 12,-14 6,-4 12,-5 18,-5 10,0 18,2 23,7 6,6 9,13 10,22l-8 0c-2,-15 -10,-23 -25,-23 -8,0 -14,3 -19,9 -5,6 -7,15 -7,25l0 11c0,11 2,19 7,25 5,6 11,9 19,9 8,0 14,-2 18,-5 4,-4 6,-10 7,-17l8 0zm12 -7c0,-6 2,-12 4,-17 3,-5 6,-9 11,-12 4,-3 9,-4 15,-4 9,0 16,3 22,9 5,6 8,14 8,25l0 1c0,7 -1,12 -4,18 -2,5 -6,9 -10,12 -5,2 -10,4 -16,4 -9,0 -16,-3 -21,-10 -6,-6 -9,-14 -9,-24l0 -2zm8 2c0,8 2,15 6,20 4,5 10,8 16,8 7,0 12,-3 16,-8 4,-5 6,-12 6,-20l0 -2c0,-5 0,-9 -2,-14 -2,-4 -5,-7 -8,-9 -4,-3 -8,-4 -12,-4 -6,0 -12,3 -16,8 -4,5 -6,12 -6,20l0 1zm75 32l-7 0 0 -94 7 0 0 94zm28 0l-7 0 0 -94 7 0 0 94zm46 2c-6,0 -11,-2 -15,-4 -5,-3 -8,-7 -11,-12 -2,-5 -4,-11 -4,-17l0 -3c0,-6 2,-12 4,-17 3,-5 6,-9 10,-12 5,-3 10,-4 15,-4 8,0 14,2 19,8 5,6 7,13 7,23l0 4 -47 0 0 1c0,8 2,14 6,19 4,5 10,8 16,8 4,0 8,-1 11,-3 3,-1 6,-3 8,-7l5 4c-6,8 -14,12 -24,12zm-1 -63c-6,0 -10,2 -14,6 -4,4 -6,10 -7,16l40 0 0 0c0,-7 -2,-12 -6,-16 -3,-4 -8,-6 -13,-6zm37 28c0,-11 3,-19 7,-25 5,-6 11,-9 19,-9 9,0 16,3 21,11l0 -10 7 0 0 65c0,9 -2,15 -7,20 -5,5 -12,8 -20,8 -4,0 -9,-1 -13,-3 -4,-2 -7,-5 -10,-8l4 -5c5,6 12,10 19,10 6,0 11,-2 14,-6 4,-3 5,-8 6,-15l0 -8c-5,6 -12,10 -21,10 -8,0 -14,-3 -19,-10 -4,-6 -7,-14 -7,-24l0 -1zm8 1c0,8 2,15 5,20 3,5 8,7 14,7 9,0 16,-4 20,-12l0 -31c-2,-4 -5,-7 -8,-9 -3,-3 -7,-4 -12,-4 -6,0 -11,3 -14,7 -3,5 -5,12 -5,22zm91 34c-6,0 -11,-2 -15,-4 -5,-3 -9,-7 -11,-12 -3,-5 -4,-11 -4,-17l0 -3c0,-6 1,-12 4,-17 2,-5 6,-9 10,-12 5,-3 9,-4 14,-4 9,0 15,2 20,8 4,6 7,13 7,23l0 4 -48 0 0 1c0,8 3,14 7,19 4,5 10,8 16,8 4,0 8,-1 11,-3 3,-1 5,-3 8,-7l4 4c-5,8 -13,12 -23,12zm-2 -63c-5,0 -10,2 -13,6 -4,4 -7,10 -7,16l39 0 0 0c0,-7 -2,-12 -5,-16 -3,-4 -8,-6 -14,-6zm68 27c0,-6 1,-12 3,-17 3,-5 6,-9 11,-12 4,-3 9,-4 15,-4 9,0 16,3 22,9 5,6 8,14 8,25l0 1c0,7 -1,12 -4,18 -2,5 -6,9 -10,12 -5,2 -10,4 -16,4 -8,0 -16,-3 -21,-10 -6,-6 -8,-14 -8,-24l0 -2zm7 2c0,8 2,15 6,20 4,5 10,8 16,8 7,0 12,-3 16,-8 5,-5 7,-12 7,-20l0 -2c0,-5 -1,-9 -3,-14 -2,-4 -5,-7 -8,-9 -4,-3 -7,-4 -12,-4 -6,0 -12,3 -16,8 -4,5 -6,12 -6,20l0 1zm72 32l0 -60 -11 0 0 -6 11 0 0 -8c0,-7 2,-12 6,-16 3,-3 8,-5 14,-5 3,0 5,0 8,1l-1 6c-2,-1 -4,-1 -6,-1 -4,0 -8,1 -10,4 -2,3 -3,6 -3,11l0 8 16 0 0 6 -16 0 0 60 -8 0zm118 -42l-41 0 0 36 48 0 0 6 -56 0 0 -89 55 0 0 6 -47 0 0 34 41 0 0 7zm28 -24l0 11c3,-4 6,-7 9,-9 4,-2 8,-3 13,-3 7,0 12,2 16,6 3,4 5,10 5,18l0 43 -7 0 0 -43c0,-6 -2,-11 -4,-13 -3,-3 -7,-5 -12,-5 -5,0 -9,2 -12,4 -4,3 -6,7 -8,12l0 45 -7 0 0 -66 7 0zm59 33c0,-11 2,-19 7,-25 5,-6 11,-9 19,-9 9,0 16,3 20,11l1 -10 7 0 0 65c0,9 -3,15 -8,20 -4,5 -11,8 -19,8 -5,0 -9,-1 -13,-3 -5,-2 -8,-5 -10,-8l4 -5c5,6 11,10 18,10 7,0 11,-2 15,-6 3,-3 5,-8 5,-15l0 -8c-5,6 -11,10 -20,10 -8,0 -14,-3 -19,-10 -5,-6 -7,-14 -7,-24l0 -1zm7 1c0,8 2,15 6,20 3,5 8,7 14,7 9,0 15,-4 19,-12l0 -31c-2,-4 -4,-7 -7,-9 -4,-3 -7,-4 -12,-4 -6,0 -11,3 -14,7 -4,5 -6,12 -6,22zm74 32l-7 0 0 -66 7 0 0 66zm-9 -85c0,-2 1,-3 2,-4 1,-1 2,-1 3,-1 2,0 3,0 4,1 1,1 1,2 1,4 0,1 0,2 -1,3 -1,1 -2,2 -4,2 -1,0 -2,-1 -3,-2 -1,-1 -2,-2 -2,-3zm36 19l0 11c3,-4 6,-7 9,-9 4,-2 8,-3 13,-3 7,0 12,2 16,6 3,4 5,10 5,18l0 43 -7 0 0 -43c0,-6 -2,-11 -4,-13 -3,-3 -7,-5 -12,-5 -5,0 -9,2 -12,4 -4,3 -6,7 -8,12l0 45 -7 0 0 -66 7 0zm88 68c-6,0 -11,-2 -16,-4 -4,-3 -8,-7 -10,-12 -3,-5 -4,-11 -4,-17l0 -3c0,-6 1,-12 4,-17 2,-5 6,-9 10,-12 4,-3 9,-4 14,-4 8,0 15,2 20,8 4,6 7,13 7,23l0 4 -48 0 0 1c0,8 2,14 7,19 4,5 10,8 16,8 4,0 7,-1 10,-3 3,-1 6,-3 9,-7l4 4c-5,8 -13,12 -23,12zm-2 -63c-5,0 -10,2 -14,6 -3,4 -6,10 -6,16l39 0 0 0c0,-7 -2,-12 -5,-16 -4,-4 -8,-6 -14,-6z"/>
     <path class="fil0" d="M3400 680c-6,0 -11,-2 -16,-4 -4,-3 -8,-7 -10,-12 -3,-5 -4,-11 -4,-17l0 -3c0,-6 1,-12 4,-17 2,-5 6,-9 10,-12 4,-3 9,-4 14,-4 8,0 15,2 20,8 4,6 7,13 7,23l0 4 -48 0 0 1c0,8 2,14 7,19 4,5 9,8 16,8 4,0 7,-1 10,-3 3,-1 6,-3 9,-7l4 4c-5,8 -13,12 -23,12zm-2 -63c-5,0 -10,2 -14,6 -3,4 -6,10 -6,16l39 0 0 0c0,-7 -2,-12 -5,-16 -4,-4 -8,-6 -14,-6zm72 1c-2,0 -4,0 -5,0 -5,0 -9,1 -12,4 -3,2 -5,6 -7,11l0 45 -7 0 0 -66 7 0 0 11c4,-8 10,-12 19,-12 2,0 4,0 5,1l0 6zm20 60l-8 0 0 -66 8 0 0 66zm-9 -85c0,-2 0,-3 1,-4 1,-1 2,-1 4,-1 1,0 3,0 4,1 1,1 1,2 1,4 0,1 0,2 -1,3 -1,1 -3,2 -4,2 -2,0 -3,-1 -4,-2 -1,-1 -1,-2 -1,-3zm35 19l1 11c2,-4 5,-7 9,-9 4,-2 8,-3 12,-3 8,0 13,2 16,6 4,4 6,10 6,18l0 43 -8 0 0 -43c0,-6 -1,-11 -4,-13 -2,-3 -6,-5 -11,-5 -5,0 -9,2 -12,4 -4,3 -7,7 -8,12l0 45 -8 0 0 -66 7 0zm60 33c0,-11 2,-19 7,-25 4,-6 10,-9 18,-9 9,0 16,3 21,11l0 -10 7 0 0 65c0,9 -2,15 -7,20 -5,5 -11,8 -19,8 -5,0 -9,-1 -14,-3 -4,-2 -7,-5 -10,-8l5 -5c5,6 11,10 18,10 6,0 11,-2 14,-6 4,-3 6,-8 6,-15l0 -8c-5,6 -12,10 -21,10 -7,0 -14,-3 -18,-10 -5,-6 -7,-14 -7,-24l0 -1zm7 1c0,8 2,15 5,20 4,5 8,7 15,7 9,0 15,-4 19,-12l0 -31c-2,-4 -4,-7 -8,-9 -3,-3 -7,-4 -11,-4 -7,0 -11,3 -15,7 -3,5 -5,12 -5,22zm-1882 172l0 2 1 -2 28 -78 8 0 -33 89 -8 0 -33 -89 8 0 29 78zm57 11l-8 0 0 -66 8 0 0 66zm-9 -85c0,-2 0,-3 1,-4 1,-1 2,-1 4,-1 2,0 3,0 4,1 1,1 1,2 1,4 0,1 0,2 -1,3 -1,1 -2,2 -4,2 -2,0 -3,-1 -4,-2 -1,-1 -1,-2 -1,-3zm26 52c0,-11 2,-19 7,-25 4,-6 10,-9 18,-9 9,0 16,3 21,10l0 -37 7 0 0 94 -7 0 0 -8c-5,6 -12,10 -21,10 -7,0 -14,-3 -18,-10 -5,-6 -7,-14 -7,-25l0 0zm7 1c0,8 2,15 5,20 4,5 8,7 15,7 9,0 15,-4 19,-12l0 -31c-4,-9 -10,-13 -19,-13 -6,0 -11,3 -15,7 -3,5 -5,12 -5,22zm87 22l19 -56 8 0 -28 78 -2 3c-4,8 -9,12 -17,12 -2,0 -3,0 -5,-1l-1 -6 4 1c4,0 7,-1 9,-3 2,-2 4,-5 6,-9l3 -9 -25 -66 8 0 21 56zm79 10c0,-2 -1,-5 -1,-9 -3,3 -6,6 -10,8 -4,2 -8,3 -13,3 -6,0 -11,-2 -15,-6 -4,-3 -6,-8 -6,-13 0,-7 3,-12 8,-16 5,-3 13,-5 23,-5l13 0 0 -8c0,-5 -2,-8 -5,-11 -2,-3 -7,-4 -12,-4 -5,0 -10,1 -13,4 -3,2 -5,6 -5,9l-7 0c0,-5 2,-10 7,-13 5,-4 11,-6 18,-6 7,0 13,2 18,5 4,4 6,9 6,16l0 31c0,7 1,11 2,15l0 0 -8 0zm-23 -5c5,0 10,-1 13,-3 4,-3 7,-6 9,-10l0 -15 -13 0c-8,0 -13,2 -17,4 -5,3 -7,7 -7,11 0,4 2,7 4,10 3,2 7,3 11,3zm69 -5l20 -56 7 0 -25 66 -5 0 -25 -66 7 0 21 56zm48 10l-8 0 0 -66 8 0 0 66zm-9 -85c0,-2 0,-3 1,-4 1,-1 2,-1 4,-1 1,0 3,0 4,1 1,1 1,2 1,4 0,1 0,2 -1,3 -1,1 -3,2 -4,2 -2,0 -3,-1 -4,-2 -1,-1 -1,-2 -1,-3zm36 30c2,-4 5,-7 9,-9 4,-2 8,-3 12,-3 8,0 13,2 16,6 4,4 6,10 6,18l0 43 -8 0 0 -43c0,-6 -1,-11 -3,-14 -3,-2 -7,-4 -12,-4 -5,0 -9,2 -12,4 -4,3 -6,7 -8,12l0 45 -7 0 0 -94 7 0 0 39zm104 55c-1,-2 -2,-5 -2,-9 -2,3 -6,6 -10,8 -4,2 -8,3 -12,3 -7,0 -12,-2 -16,-6 -4,-3 -6,-8 -6,-13 0,-7 3,-12 8,-16 6,-3 13,-5 23,-5l13 0 0 -8c0,-5 -1,-8 -4,-11 -3,-3 -8,-4 -13,-4 -5,0 -10,1 -13,4 -3,2 -5,6 -5,9l-7 0c0,-5 2,-10 7,-13 5,-4 11,-6 18,-6 8,0 13,2 18,5 4,4 6,9 6,16l0 31c0,7 1,11 2,15l0 0 -7 0zm-24 -5c5,0 10,-1 14,-3 3,-3 6,-6 8,-10l0 -15 -13 0c-7,0 -13,2 -17,4 -4,3 -6,7 -6,11 0,4 1,7 4,10 2,2 6,3 10,3zm80 -55c-2,0 -4,0 -5,0 -5,0 -9,1 -12,4 -3,2 -5,6 -7,11l0 45 -7 0 0 -66 7 0 0 10c4,-7 10,-11 19,-11 2,0 4,0 5,0l0 7zm2 77l-4 -3c4,-5 5,-10 6,-16l0 -9 7 0 0 7c0,9 -3,16 -9,21zm68 -106l33 79 33 -79 10 0 0 89 -7 0 0 -39 0 -39 -33 78 -6 0 -33 -78 1 39 0 39 -8 0 0 -89 10 0zm140 81c-5,6 -12,10 -21,10 -7,0 -13,-2 -16,-7 -4,-4 -6,-10 -6,-18l0 -43 7 0 0 42c0,13 5,19 16,19 10,0 17,-4 20,-13l0 -48 7 0 0 66 -7 0 0 -8zm33 -58l0 11c3,-4 6,-7 9,-9 4,-2 8,-3 13,-3 10,0 17,4 20,13 2,-5 5,-8 9,-10 4,-2 8,-3 13,-3 15,0 22,7 22,23l0 44 -7 0 0 -43c0,-6 -2,-11 -4,-14 -3,-2 -7,-4 -12,-4 -6,0 -10,2 -14,5 -3,4 -5,8 -6,12l0 44 -7 0 0 -44c0,-6 -2,-10 -4,-13 -3,-2 -7,-4 -12,-4 -5,0 -9,1 -12,4 -4,3 -6,7 -8,12l0 45 -7 0 0 -66 7 0zm158 34c0,10 -2,18 -7,25 -4,6 -10,9 -18,9 -9,0 -16,-4 -21,-11l0 9 -7 0 0 -94 7 0 0 38c5,-8 12,-11 21,-11 8,0 14,3 18,9 5,6 7,14 7,25l0 1zm-7 -1c0,-9 -2,-16 -5,-21 -4,-4 -8,-7 -15,-7 -4,0 -8,1 -12,4 -3,2 -5,5 -7,10l0 30c4,8 10,12 19,12 7,0 11,-2 15,-7 3,-5 5,-12 5,-21zm65 33c0,-2 -1,-5 -1,-9 -3,3 -6,6 -10,8 -4,2 -8,3 -13,3 -6,0 -11,-2 -15,-6 -4,-3 -6,-8 -6,-13 0,-7 3,-12 8,-16 5,-3 13,-5 23,-5l13 0 0 -8c0,-5 -2,-8 -5,-11 -2,-3 -7,-4 -12,-4 -5,0 -10,1 -13,4 -3,2 -5,6 -5,9l-7 0c0,-5 2,-10 7,-13 5,-4 11,-6 18,-6 7,0 13,2 18,5 4,4 6,9 6,16l0 31c0,7 1,11 2,15l0 0 -8 0zm-23 -5c5,0 10,-1 13,-3 4,-3 7,-6 9,-10l0 -15 -13 0c-8,0 -13,2 -17,4 -5,3 -7,7 -7,11 0,4 2,7 4,10 3,2 7,3 11,3zm57 5l-7 0 0 -66 7 0 0 66zm-9 -85c0,-2 1,-3 2,-4 1,-1 2,-1 3,-1 2,0 3,0 4,1 1,1 1,2 1,4 0,1 0,2 -1,3 -1,1 -2,2 -4,2 -1,0 -2,-1 -3,-2 -1,-1 -2,-2 -2,-3zm104 57l13 0 0 6 -13 0 0 22 -8 0 0 -22 -42 0 0 -4 41 -63 9 0 0 61zm-41 0l33 0 0 -52 -3 6 -30 46zm119 -9c0,13 -2,22 -7,29 -5,6 -11,10 -20,10 -9,0 -16,-4 -21,-10 -4,-6 -7,-16 -7,-28l0 -16c0,-13 2,-22 7,-29 5,-6 12,-9 20,-9 9,0 16,3 21,9 4,6 7,16 7,28l0 16zm-7 -16c0,-10 -2,-18 -5,-23 -4,-5 -9,-8 -16,-8 -6,0 -11,3 -15,8 -3,5 -5,12 -5,22l0 18c0,10 2,18 6,23 3,6 8,8 15,8 6,0 11,-2 14,-7 4,-6 6,-13 6,-24l0 -17zm77 16c0,13 -3,22 -7,29 -5,6 -12,10 -21,10 -9,0 -15,-4 -20,-10 -5,-6 -7,-16 -7,-28l0 -16c0,-13 2,-22 7,-29 4,-6 11,-9 20,-9 9,0 16,3 20,9 5,6 8,16 8,28l0 16zm-8 -16c0,-10 -1,-18 -5,-23 -3,-5 -8,-8 -15,-8 -6,0 -11,3 -15,8 -3,5 -5,12 -5,22l0 18c0,10 2,18 5,23 4,6 9,8 15,8 7,0 12,-2 15,-7 4,-6 5,-13 5,-24l0 -17zm108 16c0,13 -2,22 -7,29 -5,6 -11,10 -20,10 -9,0 -16,-4 -21,-10 -4,-6 -7,-16 -7,-28l0 -16c0,-13 2,-22 7,-29 5,-6 11,-9 20,-9 9,0 16,3 21,9 4,6 7,16 7,28l0 16zm-7 -16c0,-10 -2,-18 -5,-23 -4,-5 -9,-8 -16,-8 -6,0 -11,3 -15,8 -3,5 -5,12 -5,22l0 18c0,10 2,18 5,23 4,6 9,8 16,8 6,0 11,-2 14,-7 4,-6 6,-13 6,-24l0 -17zm78 -32l-38 85 -8 0 38 -83 -51 0 0 -6 59 0 0 4zm70 0l-39 85 -7 0 38 -83 -51 0 0 -6 59 0 0 4zm15 81c0,-1 0,-3 1,-4 1,-1 2,-1 4,-1 2,0 3,0 4,1 1,1 1,3 1,4 0,1 0,3 -1,3 -1,1 -2,2 -4,2 -2,0 -3,-1 -4,-2 -1,0 -1,-2 -1,-3z"/>
    </g>
    <path class="fil0" d="M1707 1008c0,-4 -1,-7 -4,-9 -3,-2 -7,-4 -13,-5 -6,-2 -11,-3 -14,-5 -3,-1 -6,-3 -7,-6 -2,-2 -3,-5 -3,-8 0,-5 3,-10 7,-13 4,-4 10,-5 17,-5 7,0 13,2 18,5 4,4 6,9 6,15l-7 0c0,-4 -2,-8 -5,-10 -3,-3 -7,-4 -12,-4 -5,0 -9,1 -12,3 -3,2 -4,5 -4,9 0,3 1,6 3,7 3,2 7,4 14,5 6,2 11,3 14,5 3,2 6,4 7,6 2,3 3,6 3,9 0,6 -3,10 -7,14 -5,3 -11,5 -18,5 -8,0 -14,-2 -19,-6 -4,-4 -7,-8 -7,-14l8 0c0,4 2,7 5,10 3,2 8,3 13,3 5,0 9,-1 13,-3 3,-2 4,-5 4,-8zm36 -67l0 17 13 0 0 6 -13 0 0 44c0,4 0,7 2,9 1,1 3,2 6,2 2,0 3,0 6,0l1 6c-2,0 -5,1 -8,1 -5,0 -9,-2 -11,-5 -3,-3 -4,-7 -4,-13l0 -44 -12 0 0 -6 12 0 0 -17 8 0zm71 75c-4,6 -11,10 -21,10 -7,0 -12,-2 -16,-7 -4,-4 -6,-10 -6,-18l0 -43 8 0 0 42c0,13 5,19 15,19 11,0 17,-4 20,-13l0 -48 8 0 0 66 -8 0 0 -8zm24 -25c0,-11 2,-19 7,-25 4,-6 11,-9 18,-9 9,0 16,3 21,10l0 -37 7 0 0 94 -7 0 0 -8c-5,6 -12,10 -21,10 -7,0 -13,-3 -18,-10 -5,-6 -7,-14 -7,-25l0 0zm7 1c0,8 2,15 5,20 4,5 9,7 15,7 9,0 15,-4 19,-12l0 -31c-4,-9 -10,-13 -19,-13 -6,0 -11,3 -15,7 -3,5 -5,12 -5,22zm91 34c-5,0 -10,-2 -15,-5 -5,-2 -8,-6 -11,-11 -2,-5 -3,-11 -3,-17l0 -3c0,-6 1,-12 3,-17 3,-5 6,-9 11,-12 4,-3 9,-4 14,-4 8,0 14,2 19,8 5,5 7,13 7,23l0 4 -47 0 0 1c0,8 2,14 6,19 5,5 10,7 17,7 4,0 7,0 10,-2 3,-1 6,-3 8,-7l5 4c-5,8 -13,12 -24,12zm-1 -63c-5,0 -10,2 -14,6 -4,4 -6,10 -7,16l40 0 0 0c0,-7 -2,-12 -5,-16 -4,-4 -8,-6 -14,-6zm48 -5l0 11c2,-4 5,-7 9,-9 4,-2 8,-3 13,-3 7,0 12,2 15,6 4,4 6,10 6,18l0 43 -8 0 0 -43c0,-6 -1,-11 -3,-14 -3,-2 -7,-4 -12,-4 -5,0 -9,2 -12,4 -4,3 -6,7 -8,12l0 45 -7 0 0 -66 7 0zm73 -17l0 17 14 0 0 6 -14 0 0 44c0,4 1,7 2,9 1,1 4,2 7,2 1,0 3,0 6,0l0 6c-2,0 -5,1 -8,1 -5,0 -9,-2 -11,-5 -2,-3 -3,-7 -3,-13l0 -44 -12 0 0 -6 12 0 0 -17 7 0zm69 67c0,-4 -2,-7 -4,-9 -3,-2 -8,-4 -14,-5 -6,-2 -10,-3 -13,-5 -4,-1 -6,-3 -8,-6 -1,-2 -2,-5 -2,-8 0,-5 2,-10 7,-13 4,-4 9,-5 16,-5 8,0 14,2 18,5 5,4 7,9 7,15l-7 0c0,-4 -2,-8 -5,-10 -4,-3 -8,-4 -13,-4 -4,0 -8,1 -11,3 -3,2 -5,5 -5,9 0,3 2,6 4,7 2,2 7,4 13,5 7,2 12,3 15,5 3,2 5,4 7,6 1,3 2,6 2,9 0,6 -2,10 -7,14 -4,3 -10,5 -17,5 -8,0 -14,-2 -19,-6 -5,-4 -7,-8 -7,-14l7 0c0,4 2,7 6,10 3,2 7,3 13,3 5,0 9,-1 12,-3 3,-2 5,-5 5,-8zm48 11c5,0 10,-1 13,-4 4,-3 6,-7 6,-11l7 0c0,4 -2,8 -4,11 -2,3 -5,6 -9,8 -4,2 -8,3 -13,3 -8,0 -15,-3 -20,-9 -5,-7 -8,-15 -8,-25l0 -2c0,-7 1,-12 3,-18 3,-5 6,-8 10,-11 5,-3 10,-4 15,-4 8,0 14,2 18,6 5,5 8,10 8,17l-7 0c0,-5 -2,-9 -6,-12 -3,-3 -7,-5 -13,-5 -6,0 -11,2 -15,7 -4,5 -6,12 -6,20l0 2c0,9 2,16 6,20 4,5 9,7 15,7zm37 -29c0,-6 1,-12 3,-17 3,-5 6,-9 11,-12 4,-3 9,-4 15,-4 9,0 16,3 22,9 5,6 8,14 8,25l0 1c0,7 -1,12 -4,18 -2,5 -6,9 -10,11 -5,3 -10,5 -16,5 -9,0 -16,-3 -21,-10 -6,-6 -8,-14 -8,-24l0 -2zm7 2c0,8 2,15 6,20 4,5 10,7 16,7 7,0 12,-2 16,-7 5,-5 7,-12 7,-20l0 -2c0,-5 -1,-10 -3,-14 -2,-4 -5,-7 -8,-10 -4,-2 -7,-3 -12,-3 -6,0 -12,3 -16,8 -4,5 -6,12 -6,20l0 1zm110 24c-5,6 -12,10 -21,10 -7,0 -13,-2 -17,-7 -3,-4 -5,-10 -5,-18l0 -43 7 0 0 42c0,13 5,19 15,19 11,0 18,-4 21,-13l0 -48 7 0 0 66 -7 0 0 -8zm33 -58l0 11c3,-4 6,-7 10,-9 3,-2 8,-3 12,-3 7,0 12,2 16,6 3,4 5,10 5,18l0 43 -7 0 0 -43c0,-6 -1,-11 -4,-14 -2,-2 -6,-4 -12,-4 -4,0 -8,2 -12,4 -3,3 -6,7 -8,12l0 45 -7 0 0 -66 7 0zm87 61c5,0 9,-1 13,-4 3,-3 5,-7 5,-11l7 0c0,4 -1,8 -3,11 -3,3 -6,6 -10,8 -4,2 -8,3 -12,3 -9,0 -16,-3 -21,-9 -5,-7 -8,-15 -8,-25l0 -2c0,-7 2,-12 4,-18 2,-5 5,-8 10,-11 4,-3 9,-4 15,-4 7,0 13,2 18,6 4,5 7,10 7,17l-7 0c0,-5 -2,-9 -5,-12 -4,-3 -8,-5 -13,-5 -7,0 -12,2 -16,7 -3,5 -5,12 -5,20l0 2c0,9 2,16 5,20 4,5 9,7 16,7zm48 5l-7 0 0 -66 7 0 0 66zm-8 -85c0,-2 0,-3 1,-4 1,-1 2,-1 4,-1 1,0 2,0 3,1 1,1 2,2 2,4 0,1 -1,2 -2,3 -1,1 -2,2 -3,2 -2,0 -3,-1 -4,-2 -1,-1 -1,-2 -1,-3zm36 85l-7 0 0 -94 7 0 0 94zm20 -4c0,-1 0,-3 1,-4 1,-1 2,-1 4,-1 2,0 3,0 4,1 1,1 1,3 1,4 0,1 0,3 -1,3 -1,1 -2,2 -4,2 -2,0 -3,-1 -4,-2 -1,0 -1,-2 -1,-3zm56 6c-5,0 -11,-2 -15,-5 -5,-2 -8,-6 -11,-11 -2,-5 -4,-11 -4,-17l0 -3c0,-6 2,-12 4,-17 3,-5 6,-9 10,-12 5,-3 10,-4 15,-4 8,0 14,2 19,8 5,5 7,13 7,23l0 4 -47 0 0 1c0,8 2,14 6,19 5,5 10,7 17,7 3,0 7,0 10,-2 3,-1 6,-3 8,-7l5 4c-6,8 -14,12 -24,12zm-1 -63c-6,0 -10,2 -14,6 -4,4 -6,10 -7,16l40 0 0 0c0,-7 -2,-12 -6,-16 -3,-4 -8,-6 -13,-6zm47 -5l1 11c2,-4 5,-7 9,-9 4,-2 8,-3 12,-3 7,0 13,2 16,6 4,4 5,10 6,18l0 43 -8 0 0 -43c0,-6 -1,-11 -4,-14 -2,-2 -6,-4 -11,-4 -5,0 -9,2 -13,4 -3,3 -6,7 -7,12l0 45 -8 0 0 -66 7 0zm60 33c0,-11 2,-19 7,-25 4,-6 10,-9 18,-9 9,0 16,3 21,11l0 -10 7 0 0 65c0,9 -2,15 -7,20 -5,5 -11,8 -19,8 -5,0 -10,-1 -14,-3 -4,-2 -7,-5 -10,-9l4 -4c6,6 12,10 19,10 6,0 11,-2 14,-6 4,-3 6,-8 6,-15l0 -8c-5,6 -12,10 -21,10 -8,0 -14,-3 -18,-10 -5,-6 -7,-14 -7,-24l0 -1zm7 1c0,8 2,15 5,20 4,5 8,7 15,7 9,0 15,-4 19,-12l0 -31c-2,-4 -4,-7 -8,-10 -3,-2 -7,-3 -11,-3 -7,0 -11,3 -15,7 -3,5 -5,12 -5,22zm62 -1c0,-11 3,-19 7,-25 5,-6 11,-9 19,-9 9,0 16,3 21,11l0 -10 7 0 0 65c0,9 -2,15 -7,20 -5,5 -12,8 -20,8 -4,0 -9,-1 -13,-3 -4,-2 -7,-5 -10,-9l4 -4c5,6 12,10 19,10 6,0 11,-2 14,-6 4,-3 5,-8 5,-15l0 -8c-4,6 -11,10 -20,10 -8,0 -14,-3 -19,-10 -4,-6 -7,-14 -7,-24l0 -1zm8 1c0,8 1,15 5,20 3,5 8,7 14,7 9,0 16,-4 19,-12l0 -31c-1,-4 -4,-7 -7,-10 -3,-2 -7,-3 -12,-3 -6,0 -11,3 -14,7 -3,5 -5,12 -5,22zm163 1c0,6 -1,11 -3,17 -2,5 -5,9 -8,11 -4,3 -8,5 -13,5 -4,0 -7,-1 -9,-3 -3,-3 -5,-6 -5,-9 -5,8 -11,12 -19,12 -5,0 -10,-3 -13,-8 -2,-5 -3,-11 -3,-20 1,-6 2,-12 5,-18 2,-5 5,-9 9,-12 4,-3 8,-4 13,-4 3,0 6,0 8,1 3,1 5,3 9,5l-4 35c0,5 1,9 2,11 2,3 4,4 8,4 5,0 9,-2 12,-7 3,-5 5,-12 5,-20 1,-17 -2,-29 -9,-38 -7,-8 -18,-12 -32,-12 -9,0 -17,2 -24,6 -6,5 -12,11 -16,19 -4,8 -6,17 -7,27 0,10 1,19 4,27 4,8 8,14 15,18 6,5 14,7 23,7 4,0 8,-1 11,-2 4,-1 7,-2 9,-3l2 5c-2,1 -5,3 -9,4 -5,1 -9,1 -13,1 -10,0 -19,-2 -27,-7 -7,-4 -12,-11 -16,-20 -4,-8 -5,-18 -5,-30 1,-11 3,-21 8,-30 4,-9 10,-16 18,-21 8,-4 17,-7 27,-7 11,0 19,2 27,7 7,4 12,10 16,19 3,8 5,18 4,30zm-66 14c0,4 1,7 3,9 2,3 5,4 8,4 7,0 13,-6 16,-16l3 -32c-3,-2 -6,-3 -10,-3 -4,0 -8,2 -11,6 -4,3 -6,8 -8,15 -1,6 -2,12 -1,17zm123 1c0,-4 -2,-7 -5,-9 -3,-2 -7,-4 -13,-5 -6,-2 -10,-3 -14,-5 -3,-1 -5,-3 -7,-6 -1,-2 -2,-5 -2,-8 0,-5 2,-10 6,-13 5,-4 10,-5 17,-5 8,0 13,2 18,5 4,4 7,9 7,15l-8 0c0,-4 -1,-8 -5,-10 -3,-3 -7,-4 -12,-4 -5,0 -9,1 -12,3 -2,2 -4,5 -4,9 0,3 1,6 4,7 2,2 7,4 13,5 7,2 11,3 15,5 3,2 5,4 7,6 1,3 2,6 2,9 0,6 -2,10 -7,14 -4,3 -10,5 -17,5 -8,0 -14,-2 -19,-6 -5,-4 -7,-8 -7,-14l7 0c0,4 2,7 5,10 4,2 8,3 14,3 5,0 9,-1 12,-3 3,-2 5,-5 5,-8zm20 -18c0,-6 1,-12 3,-17 3,-5 6,-9 11,-12 4,-3 9,-4 15,-4 9,0 16,3 22,9 5,6 8,14 8,25l0 1c0,7 -1,12 -4,18 -2,5 -6,9 -10,11 -5,3 -10,5 -16,5 -9,0 -16,-3 -21,-10 -6,-6 -8,-14 -8,-24l0 -2zm7 2c0,8 2,15 6,20 4,5 10,7 16,7 7,0 12,-2 16,-7 5,-5 7,-12 7,-20l0 -2c0,-5 -1,-10 -3,-14 -2,-4 -5,-7 -8,-10 -4,-2 -7,-3 -12,-3 -6,0 -12,3 -16,8 -4,5 -6,12 -6,20l0 1zm74 -34l0 11c2,-4 5,-7 9,-9 4,-2 8,-3 12,-3 11,0 18,4 20,13 3,-5 6,-8 10,-10 4,-2 8,-3 13,-3 14,0 22,7 22,23l0 44 -7 0 0 -43c-1,-6 -2,-11 -4,-14 -3,-2 -7,-4 -13,-4 -5,0 -9,2 -13,5 -4,4 -6,8 -6,12l0 44 -7 0 0 -44c-1,-6 -2,-10 -5,-13 -2,-2 -6,-4 -12,-4 -4,0 -8,1 -12,4 -3,3 -5,7 -7,12l0 45 -7 0 0 -66 7 0zm146 66c0,-2 -1,-5 -1,-9 -3,3 -6,6 -10,8 -4,2 -8,3 -13,3 -6,0 -11,-2 -15,-6 -4,-3 -6,-8 -6,-13 0,-7 3,-12 8,-16 6,-3 13,-5 23,-5l13 0 0 -8c0,-5 -1,-8 -4,-11 -3,-3 -8,-4 -13,-4 -5,0 -10,1 -13,4 -3,2 -5,6 -5,9l-7 0c0,-5 2,-10 7,-13 5,-4 11,-6 18,-6 8,0 13,2 18,5 4,4 6,9 6,16l0 31c0,7 1,11 2,15l0 0 -8 0zm-23 -5c5,0 10,-1 14,-3 3,-3 6,-6 8,-10l0 -15 -13 0c-7,1 -13,2 -17,4 -5,3 -7,7 -7,11 0,4 2,7 5,10 2,2 6,3 10,3zm57 5l-7 0 0 -66 7 0 0 66zm-9 -85c0,-2 1,-3 2,-4 1,-1 2,-1 3,-1 2,0 3,0 4,1 1,1 2,2 2,4 0,1 -1,2 -2,3 -1,1 -2,2 -4,2 -1,0 -2,-1 -3,-2 -1,-1 -2,-2 -2,-3zm50 75l20 -56 7 0 -28 78 -1 3c-4,8 -10,12 -17,12 -2,0 -4,0 -6,-1l0 -6 4 1c3,0 6,-1 9,-3 2,-2 4,-5 5,-9l3 -9 -25 -66 8 0 21 56zm80 10c-1,-2 -1,-5 -2,-9 -2,3 -5,6 -9,8 -4,2 -9,3 -13,3 -6,0 -12,-2 -16,-6 -4,-3 -6,-8 -6,-13 0,-7 3,-12 9,-16 5,-3 12,-5 22,-5l13 0 0 -8c0,-5 -1,-8 -4,-11 -3,-3 -7,-4 -13,-4 -5,0 -9,1 -13,4 -3,2 -5,6 -5,9l-7 0c0,-5 3,-10 7,-13 5,-4 11,-6 19,-6 7,0 13,2 17,5 4,4 7,9 7,16l0 31c0,7 0,11 2,15l0 0 -8 0zm-23 -5c5,0 9,-1 13,-3 4,-3 7,-6 8,-10l0 -15 -13 0c-7,1 -13,2 -17,4 -4,3 -6,7 -6,11 0,4 1,7 4,10 3,2 6,3 11,3zm48 1c0,-1 0,-3 1,-4 1,-1 2,-1 4,-1 1,0 3,0 4,1 1,1 1,3 1,4 0,1 0,3 -1,3 -1,1 -3,2 -4,2 -2,0 -3,-1 -4,-2 -1,0 -1,-2 -1,-3zm56 6c-6,0 -11,-2 -15,-5 -5,-2 -8,-6 -11,-11 -2,-5 -4,-11 -4,-17l0 -3c0,-6 2,-12 4,-17 2,-5 6,-9 10,-12 5,-3 10,-4 15,-4 8,0 14,2 19,8 5,5 7,13 7,23l0 4 -47 0 0 1c0,8 2,14 6,19 4,5 10,7 16,7 4,0 8,0 11,-2 3,-1 6,-3 8,-7l5 4c-6,8 -14,12 -24,12zm-1 -63c-6,0 -10,2 -14,6 -4,4 -6,10 -7,16l40 0 0 0c-1,-7 -2,-12 -6,-16 -3,-4 -8,-6 -13,-6zm37 28c0,-11 3,-19 7,-25 5,-6 11,-9 19,-9 9,0 16,3 21,10l0 -37 7 0 0 94 -7 0 0 -8c-5,6 -12,10 -21,10 -8,0 -14,-3 -19,-10 -4,-6 -7,-14 -7,-25l0 0zm8 1c0,8 1,15 5,20 3,5 8,7 14,7 9,0 16,-4 20,-12l0 -31c-4,-9 -11,-13 -20,-13 -6,0 -11,3 -14,7 -3,5 -5,12 -5,22zm108 24c-5,6 -12,10 -21,10 -7,0 -13,-2 -16,-7 -4,-4 -6,-10 -6,-18l0 -43 7 0 0 42c0,13 5,19 16,19 10,0 17,-4 20,-13l0 -48 7 0 0 66 -7 0 0 -8z"/>
    <path class="fil0" d="M1680 1214l0 33 -16 0 0 -89 34 0c10,0 18,2 24,7 6,6 9,13 9,21 0,9 -3,16 -9,21 -5,5 -13,7 -24,7l-18 0zm0 -13l18 0c6,0 10,-1 13,-3 3,-3 4,-7 4,-12 0,-5 -1,-8 -4,-11 -3,-3 -7,-5 -12,-5l-19 0 0 31zm103 40c-4,5 -10,7 -18,7 -7,0 -13,-2 -17,-6 -3,-4 -5,-10 -5,-18l0 -43 15 0 0 42c0,9 3,13 10,13 7,0 12,-2 15,-8l0 -47 15 0 0 66 -14 0 -1 -6zm88 -26c0,10 -2,18 -7,24 -4,6 -11,9 -19,9 -7,0 -13,-2 -18,-8l-1 7 -13 0 0 -94 15 0 0 34c4,-5 10,-8 17,-8 8,0 15,3 19,9 5,6 7,15 7,26l0 1zm-15 -2c0,-7 -1,-12 -3,-16 -3,-4 -7,-5 -11,-5 -7,0 -11,2 -14,8l0 27c3,6 7,9 14,9 4,0 8,-2 10,-5 3,-4 4,-9 4,-16l0 -2zm44 34l-15 0 0 -94 15 0 0 94zm32 0l-15 0 0 -66 15 0 0 66zm-16 -84c0,-2 1,-4 2,-5 2,-2 4,-3 6,-3 3,0 5,1 7,3 1,1 2,3 2,5 0,3 -1,4 -2,6 -2,1 -4,2 -7,2 -2,0 -4,-1 -6,-2 -1,-2 -2,-3 -2,-6zm59 73c4,0 7,-1 10,-3 2,-2 3,-5 3,-8l15 0c-1,4 -2,8 -4,12 -3,3 -6,6 -10,8 -4,2 -9,3 -14,3 -9,0 -16,-3 -22,-9 -5,-6 -8,-14 -8,-25l0 -1c0,-10 3,-18 8,-24 6,-7 13,-10 22,-10 8,0 15,3 20,7 5,5 7,11 8,18l-15 0c0,-3 -1,-6 -3,-9 -3,-2 -6,-4 -10,-4 -5,0 -8,2 -11,6 -3,3 -4,8 -4,16l0 2c0,7 1,12 4,16 3,4 6,5 11,5zm104 -23l-17 0 0 34 -15 0 0 -89 31 0c10,0 18,2 24,7 6,4 8,11 8,20 0,6 -1,11 -4,15 -3,4 -7,7 -12,9l20 37 0 1 -17 0 -18 -34zm-17 -13l16 0c5,0 9,-1 12,-4 3,-2 5,-6 5,-11 0,-4 -2,-8 -4,-11 -3,-2 -7,-4 -12,-4l-17 0 0 30zm91 48c-9,0 -17,-3 -23,-9 -6,-6 -9,-14 -9,-23l0 -2c0,-7 1,-13 4,-18 3,-5 6,-9 11,-12 4,-3 10,-5 15,-5 9,0 16,3 21,9 5,6 8,14 8,25l0 6 -44 0c1,5 2,9 6,13 3,3 7,4 12,4 7,0 12,-2 17,-8l8 8c-3,4 -7,7 -11,9 -5,2 -9,3 -15,3zm-2 -57c-4,0 -7,2 -10,5 -2,3 -4,7 -5,12l29 0 0 -1c0,-5 -2,-9 -4,-12 -2,-2 -6,-4 -10,-4zm56 56l-15 0 0 -94 15 0 0 94zm56 0c-1,-1 -1,-3 -2,-6 -4,5 -10,7 -17,7 -7,0 -12,-2 -17,-5 -4,-4 -6,-9 -6,-15 0,-7 3,-12 8,-16 5,-4 13,-6 23,-6l9 0 0 -4c0,-3 -1,-6 -3,-8 -2,-2 -5,-3 -9,-3 -3,0 -6,1 -8,2 -2,2 -3,4 -3,7l-15 0c0,-4 1,-7 3,-10 3,-4 6,-6 10,-8 4,-2 9,-3 14,-3 8,0 14,2 19,6 4,4 7,10 7,17l0 30c0,6 1,10 2,14l0 1 -15 0zm-16 -11c3,0 5,0 8,-2 3,-1 4,-3 6,-6l0 -12 -8 0c-6,0 -10,1 -13,3 -3,2 -4,4 -4,8 0,3 1,5 3,7 2,2 4,2 8,2zm63 -71l0 16 12 0 0 11 -12 0 0 37c0,2 1,4 2,5 1,1 2,2 5,2 2,0 3,0 5,-1l0 12c-3,1 -6,1 -10,1 -11,0 -17,-6 -17,-19l0 -37 -11 0 0 -11 11 0 0 -16 15 0zm39 82l-15 0 0 -66 15 0 0 66zm-16 -84c0,-2 1,-4 2,-5 2,-2 4,-3 7,-3 2,0 4,1 6,3 1,1 2,3 2,5 0,3 -1,4 -2,6 -2,1 -4,2 -6,2 -3,0 -5,-1 -7,-2 -1,-2 -2,-3 -2,-6zm29 50c0,-6 2,-12 4,-17 3,-6 7,-10 11,-12 5,-3 10,-5 16,-5 9,0 17,3 22,9 6,6 9,13 9,23l0 4c0,6 -1,12 -4,17 -2,5 -6,9 -10,12 -5,3 -10,4 -17,4 -9,0 -16,-3 -22,-9 -6,-6 -9,-15 -9,-25l0 -1zm15 2c0,6 2,12 5,16 2,3 6,5 11,5 5,0 9,-2 12,-6 3,-3 4,-9 4,-17 0,-7 -1,-12 -4,-16 -3,-4 -7,-6 -12,-6 -5,0 -8,2 -11,6 -3,4 -5,10 -5,18zm74 -34l0 7c5,-6 11,-9 19,-9 14,0 21,8 22,24l0 44 -15 0 0 -43c0,-4 -1,-7 -3,-9 -2,-2 -5,-3 -9,-3 -6,0 -10,2 -13,8l0 47 -15 0 0 -66 14 0z"/>
    <path class="fil0" d="M1721 1398c0,-5 -2,-9 -6,-12 -3,-3 -9,-5 -19,-8 -9,-3 -16,-5 -20,-8 -6,-5 -9,-11 -9,-18 0,-6 3,-12 8,-16 6,-5 13,-7 22,-7 6,0 11,1 16,4 5,2 8,5 11,9 2,4 4,9 4,14l-8 0c0,-6 -2,-11 -6,-15 -4,-3 -10,-5 -17,-5 -7,0 -12,1 -16,4 -4,3 -6,7 -6,12 0,5 1,9 5,11 4,3 10,6 18,8 8,2 14,4 18,7 4,2 7,5 9,8 2,4 3,7 3,12 0,7 -3,13 -8,17 -6,4 -13,6 -22,6 -7,0 -13,-1 -18,-3 -5,-2 -9,-6 -12,-10 -2,-4 -4,-8 -4,-14l8 0c0,7 2,12 7,15 4,4 11,6 19,6 7,0 12,-2 16,-5 5,-3 7,-7 7,-12zm53 -38c-2,0 -4,-1 -5,-1 -5,0 -9,2 -12,4 -3,3 -6,6 -7,11l0 46 -7 0 0 -66 7 0 0 10c4,-8 10,-12 19,-12 2,0 4,1 5,1l0 7zm19 60l-7 0 0 -66 7 0 0 66zm-8 -86c0,-1 0,-2 1,-3 1,-1 2,-2 4,-2 1,0 3,1 3,2 1,1 2,2 2,3 0,2 -1,3 -2,4 0,1 -2,1 -3,1 -2,0 -3,0 -4,-1 -1,-1 -1,-2 -1,-4zm36 20l0 74c0,6 -1,11 -4,14 -3,3 -7,5 -13,5 -2,0 -5,-1 -7,-1l1 -6c1,0 3,0 5,0 7,0 11,-4 11,-12l0 -74 7 0zm-3 -25c1,0 3,1 3,2 1,1 2,2 2,3 0,2 -1,3 -2,4 0,1 -2,1 -3,1 -2,0 -3,0 -4,-1 -1,-1 -1,-2 -1,-4 0,-1 0,-2 1,-3 1,-1 2,-2 4,-2zm32 91l-7 0 0 -66 7 0 0 66zm-8 -86c0,-1 0,-2 1,-3 1,-1 2,-2 4,-2 1,0 2,1 3,2 1,1 2,2 2,3 0,2 -1,3 -2,4 -1,1 -2,1 -3,1 -2,0 -3,0 -4,-1 -1,-1 -1,-2 -1,-4zm40 3l0 17 13 0 0 6 -13 0 0 44c0,4 0,6 2,8 1,2 3,3 6,3 2,0 3,0 6,-1l1 6c-2,1 -5,1 -8,1 -5,0 -9,-1 -11,-4 -3,-3 -4,-7 -4,-13l0 -44 -12 0 0 -6 12 0 0 -17 8 0zm71 83c-1,-2 -2,-5 -2,-9 -2,3 -6,6 -10,8 -4,1 -8,2 -12,2 -7,0 -12,-2 -16,-5 -4,-4 -6,-8 -6,-14 0,-6 3,-11 8,-15 6,-4 13,-6 23,-6l13 0 0 -7c0,-5 -1,-9 -4,-11 -3,-3 -7,-4 -13,-4 -5,0 -9,1 -13,3 -3,3 -5,6 -5,10l-7 0c0,-5 2,-10 7,-14 5,-4 11,-6 18,-6 8,0 14,2 18,6 4,4 6,9 6,15l0 32c0,6 1,11 2,14l0 1 -7 0zm-23 -5c4,0 9,-1 13,-4 4,-2 6,-5 8,-9l0 -15 -13 0c-7,0 -13,1 -17,4 -4,3 -6,6 -6,11 0,4 1,7 4,9 3,3 6,4 11,4zm88 -31l0 36 -8 0 0 -89 31 0c9,0 16,2 22,7 5,4 8,11 8,19 0,9 -3,15 -8,20 -5,4 -13,7 -22,7l-23 0zm0 -7l23 0c7,0 13,-1 17,-5 3,-3 5,-8 5,-15 0,-6 -2,-11 -5,-14 -4,-4 -10,-6 -17,-6l-23 0 0 40zm109 43c0,-2 -1,-5 -1,-9 -3,3 -6,6 -10,8 -4,1 -8,2 -13,2 -6,0 -11,-2 -15,-5 -4,-4 -6,-8 -6,-14 0,-6 3,-11 8,-15 5,-4 13,-6 23,-6l13 0 0 -7c0,-5 -2,-9 -5,-11 -2,-3 -7,-4 -12,-4 -5,0 -10,1 -13,3 -3,3 -5,6 -5,10l-7 0c0,-5 2,-10 7,-14 5,-4 11,-6 18,-6 7,0 13,2 18,6 4,4 6,9 6,15l0 32c0,6 1,11 2,14l0 1 -8 0zm-23 -5c5,0 10,-1 13,-4 4,-2 7,-5 9,-9l0 -15 -13 0c-8,0 -13,1 -17,4 -5,3 -7,6 -7,11 0,4 2,7 4,9 3,3 7,4 11,4zm91 -3c-4,6 -11,9 -21,9 -7,0 -12,-2 -16,-6 -4,-4 -5,-10 -6,-18l0 -43 8 0 0 42c0,13 5,19 15,19 11,0 18,-5 20,-13l0 -48 8 0 0 66 -7 0 -1 -8zm35 8l-7 0 0 -94 7 0 0 94zm49 -4c0,-2 0,-3 1,-4 1,-1 2,-2 4,-2 2,0 3,1 4,2 1,1 1,2 1,4 0,1 0,2 -1,3 -1,1 -2,2 -4,2 -2,0 -3,-1 -4,-2 -1,-1 -1,-2 -1,-3zm0 -57c0,-2 0,-3 1,-4 1,-1 3,-1 4,-1 2,0 3,0 4,1 1,1 1,2 1,4 0,1 0,2 -1,3 -1,1 -2,2 -4,2 -1,0 -3,-1 -4,-2 -1,-1 -1,-2 -1,-3zm110 -5c0,4 -1,8 -4,12 -3,4 -6,6 -11,8 6,2 10,5 13,9 3,4 4,8 4,13 0,8 -2,14 -7,19 -6,4 -12,6 -21,6 -9,0 -16,-2 -21,-6 -5,-5 -7,-11 -7,-19 0,-5 1,-9 4,-13 3,-4 7,-7 12,-9 -4,-2 -8,-4 -10,-8 -3,-4 -4,-8 -4,-12 0,-8 2,-14 7,-18 5,-4 11,-7 19,-7 8,0 14,3 19,7 5,4 7,10 7,18zm-5 42c0,-5 -2,-10 -6,-13 -4,-4 -9,-6 -15,-6 -6,0 -11,2 -15,6 -4,3 -6,8 -6,13 0,6 2,11 6,14 3,3 9,5 15,5 6,0 11,-2 15,-5 4,-3 6,-8 6,-14zm-2 -42c0,-6 -2,-10 -6,-13 -3,-4 -8,-5 -13,-5 -6,0 -10,1 -14,5 -3,3 -5,7 -5,13 0,5 2,9 5,12 4,3 8,5 14,5 5,0 10,-2 13,-5 4,-3 6,-7 6,-12zm80 66l-56 0 0 -6 31 -34c5,-6 8,-11 10,-15 2,-4 3,-7 3,-11 0,-6 -1,-10 -5,-13 -3,-4 -8,-5 -13,-5 -6,0 -11,2 -15,5 -4,4 -6,9 -6,15l-7 0c0,-5 1,-9 4,-13 2,-5 5,-8 9,-10 4,-3 9,-4 15,-4 8,0 14,2 19,7 4,4 7,10 7,17 0,5 -2,9 -4,14 -3,5 -7,11 -14,19l-25 28 47 0 0 6zm60 -41c-3,3 -6,6 -10,9 -4,2 -8,3 -13,3 -5,0 -9,-2 -13,-4 -4,-3 -7,-6 -9,-11 -2,-5 -3,-10 -3,-15 0,-6 1,-12 3,-16 2,-5 5,-9 10,-12 4,-2 8,-4 14,-4 9,0 16,3 21,10 5,6 7,15 7,26l0 7c0,16 -3,28 -10,36 -7,9 -18,13 -32,13l-1 0 0 -7 3 0c10,0 18,-3 24,-9 5,-6 8,-15 9,-26zm-22 5c5,0 10,-1 13,-4 4,-3 7,-7 9,-11l0 -5c0,-9 -2,-16 -6,-21 -4,-5 -9,-7 -15,-7 -6,0 -11,2 -15,7 -3,4 -5,10 -5,17 0,7 2,13 5,17 4,5 8,7 14,7zm80 36l-8 0 0 -80 -24 9 0 -7 31 -12 1 0 0 90zm91 0l-56 0 0 -6 31 -34c5,-6 8,-11 10,-15 2,-4 3,-7 3,-11 0,-6 -1,-10 -5,-13 -3,-4 -7,-5 -13,-5 -6,0 -11,2 -15,5 -4,4 -5,9 -5,15l-8 0c0,-5 1,-9 4,-13 2,-5 5,-8 9,-10 5,-3 9,-4 15,-4 8,0 14,2 19,7 5,4 7,10 7,17 0,5 -1,9 -4,14 -3,5 -7,11 -14,19l-25 28 47 0 0 6zm67 -66c0,4 -2,8 -4,12 -3,4 -7,6 -11,8 5,2 9,5 12,9 3,4 5,8 5,13 0,8 -3,14 -8,19 -5,4 -12,6 -20,6 -9,0 -16,-2 -21,-6 -5,-5 -8,-11 -8,-19 0,-5 2,-9 5,-13 2,-4 7,-7 12,-9 -5,-2 -8,-4 -11,-8 -2,-4 -4,-8 -4,-12 0,-8 3,-14 7,-18 5,-4 12,-7 19,-7 8,0 15,3 19,7 5,4 8,10 8,18zm-5 42c0,-5 -2,-10 -6,-13 -4,-4 -9,-6 -16,-6 -6,0 -11,2 -15,6 -4,3 -6,8 -6,13 0,6 2,11 6,14 4,3 9,5 16,5 6,0 11,-2 15,-5 4,-3 6,-8 6,-14zm-3 -42c0,-6 -2,-10 -5,-13 -4,-4 -8,-5 -14,-5 -5,0 -10,1 -13,5 -4,3 -5,7 -5,13 0,5 1,9 5,12 3,3 8,5 13,5 6,0 10,-2 14,-5 3,-3 5,-7 5,-12zm71 25c-3,3 -6,6 -10,9 -4,2 -8,3 -13,3 -5,0 -9,-2 -13,-4 -4,-3 -7,-6 -9,-11 -3,-5 -4,-10 -4,-15 0,-6 2,-12 4,-16 2,-5 5,-9 9,-12 4,-2 9,-4 14,-4 9,0 16,3 21,10 5,6 8,15 8,26l0 7c0,16 -4,28 -10,36 -7,9 -18,13 -32,13l-1 0 0 -7 2 0c11,0 19,-3 25,-9 5,-6 8,-15 9,-26zm-22 5c5,0 9,-1 13,-4 4,-3 7,-7 9,-11l0 -5c0,-9 -2,-16 -6,-21 -4,-5 -9,-7 -15,-7 -6,0 -11,2 -15,7 -3,4 -5,10 -5,17 0,7 1,13 5,17 4,5 8,7 14,7zm99 -1c0,12 -2,22 -7,28 -4,7 -11,10 -20,10 -9,0 -16,-3 -20,-9 -5,-7 -8,-16 -8,-28l0 -16c0,-13 3,-22 7,-29 5,-6 12,-10 21,-10 9,0 15,3 20,10 5,6 7,15 7,27l0 17zm-7 -16c0,-11 -2,-18 -5,-24 -3,-5 -9,-7 -15,-7 -7,0 -12,2 -15,7 -4,5 -5,13 -5,23l0 18c0,10 1,18 5,23 3,5 8,8 15,8 6,0 11,-3 15,-8 3,-5 5,-13 5,-23l0 -17zm76 -13c0,4 -2,8 -4,12 -3,4 -7,6 -11,8 5,2 9,5 12,9 4,4 5,8 5,13 0,8 -3,14 -8,19 -5,4 -12,6 -20,6 -9,0 -16,-2 -21,-6 -5,-5 -8,-11 -8,-19 0,-5 2,-9 5,-13 3,-4 7,-7 12,-9 -5,-2 -8,-4 -11,-8 -2,-4 -4,-8 -4,-12 0,-8 3,-14 8,-18 4,-4 11,-7 19,-7 7,0 14,3 19,7 4,4 7,10 7,18zm-5 42c0,-5 -2,-10 -6,-13 -4,-4 -9,-6 -15,-6 -7,0 -12,2 -16,6 -4,3 -6,8 -6,13 0,6 2,11 6,14 4,3 9,5 16,5 6,0 11,-2 15,-5 4,-3 6,-8 6,-14zm-3 -42c0,-6 -1,-10 -5,-13 -3,-4 -8,-5 -13,-5 -6,0 -11,1 -14,5 -4,3 -5,7 -5,13 0,5 1,9 5,12 3,3 8,5 14,5 5,0 10,-2 13,-5 4,-3 5,-7 5,-12zm71 25c-3,3 -6,6 -10,9 -4,2 -8,3 -13,3 -5,0 -9,-2 -13,-4 -4,-3 -7,-6 -9,-11 -2,-5 -3,-10 -3,-15 0,-6 1,-12 3,-16 2,-5 5,-9 9,-12 5,-2 9,-4 15,-4 9,0 15,3 21,10 4,6 7,15 7,26l0 7c0,16 -3,28 -10,36 -7,9 -18,13 -32,13l-1 0 0 -7 2 0c11,0 19,-3 25,-9 5,-6 8,-15 9,-26zm-22 5c5,0 9,-1 13,-4 4,-3 7,-7 9,-11l0 -5c0,-9 -2,-16 -6,-21 -4,-5 -9,-7 -15,-7 -6,0 -11,2 -15,7 -3,4 -5,10 -5,17 0,7 2,13 5,17 4,5 8,7 14,7z"/>
    <path class="fil0" d="M1684 1473l26 69 26 -69 20 0 0 90 -16 0 0 -30 2 -39 -26 69 -12 0 -26 -69 2 39 0 30 -16 0 0 -90 20 0zm129 90c-1,-1 -2,-3 -2,-6 -5,5 -11,7 -18,7 -6,0 -12,-2 -16,-6 -4,-3 -6,-8 -6,-14 0,-7 2,-12 8,-16 5,-4 12,-6 22,-6l9 0 0 -4c0,-4 -1,-6 -3,-8 -2,-2 -4,-4 -8,-4 -4,0 -7,1 -9,3 -2,2 -3,4 -3,7l-15 0c0,-4 1,-8 4,-11 2,-3 5,-5 10,-7 4,-2 8,-3 14,-3 7,0 13,2 18,6 5,4 7,9 7,16l0 30c0,6 1,11 3,15l0 1 -15 0zm-17 -11c3,0 6,-1 8,-2 3,-1 5,-3 6,-6l0 -12 -8 0c-5,0 -9,1 -12,3 -3,1 -4,4 -4,8 0,3 1,5 2,7 2,1 5,2 8,2zm80 -42c-2,0 -4,-1 -6,-1 -7,0 -12,3 -14,8l0 46 -15 0 0 -67 14 0 0 8c4,-6 9,-9 15,-9 3,0 4,0 6,1l0 14zm31 24l-7 7 0 22 -15 0 0 -95 15 0 0 55 5 -6 18 -21 18 0 -25 28 28 39 -18 0 -19 -29zm72 30c-10,0 -17,-3 -23,-9 -6,-6 -9,-14 -9,-24l0 -2c0,-6 1,-12 4,-17 2,-6 6,-10 11,-12 4,-3 9,-5 15,-5 9,0 16,3 21,9 5,6 7,14 7,24l0 6 -43 0c0,6 2,10 5,13 4,4 8,5 13,5 6,0 12,-3 16,-8l8 8c-2,4 -6,7 -10,9 -5,2 -10,3 -15,3zm-2 -57c-4,0 -7,2 -10,4 -2,3 -4,7 -5,12l29 0 0 -1c-1,-5 -2,-8 -4,-11 -3,-3 -6,-4 -10,-4zm59 -27l0 16 11 0 0 11 -11 0 0 37c0,3 0,5 1,6 1,1 3,2 6,2 1,0 3,-1 5,-1l0 12c-4,1 -7,1 -10,1 -11,0 -17,-6 -17,-19l0 -38 -11 0 0 -11 11 0 0 -16 15 0zm39 83l-15 0 0 -67 15 0 0 67zm-16 -84c0,-2 1,-4 2,-6 1,-1 4,-2 6,-2 3,0 5,1 7,2 1,2 2,4 2,6 0,2 -1,4 -2,6 -2,1 -4,2 -7,2 -2,0 -5,-1 -6,-2 -1,-2 -2,-4 -2,-6zm46 17l0 8c5,-6 12,-9 20,-9 13,0 20,8 21,24l0 44 -15 0 0 -43c0,-4 -1,-8 -3,-10 -2,-2 -5,-3 -9,-3 -6,0 -10,3 -13,9l0 47 -15 0 0 -67 14 0zm53 33c0,-10 3,-18 8,-25 4,-6 11,-9 19,-9 7,0 13,3 18,8l0 -7 14 0 0 65c0,9 -3,15 -8,20 -6,5 -13,8 -22,8 -5,0 -10,-1 -15,-3 -4,-2 -8,-5 -10,-8l7 -9c5,5 10,8 17,8 5,0 9,-1 12,-4 2,-3 4,-6 4,-12l0 -4c-4,5 -10,7 -17,7 -8,0 -14,-3 -19,-9 -5,-6 -8,-15 -8,-26zm15 1c0,7 1,12 4,16 3,4 7,6 12,6 6,0 10,-3 13,-8l0 -29c-3,-5 -7,-8 -13,-8 -5,0 -9,2 -12,6 -3,4 -4,10 -4,17zm-497 184l-8 0 0 -90 8 0 0 90zm62 -17c0,-4 -2,-7 -5,-9 -2,-2 -7,-4 -13,-5 -6,-1 -10,-3 -13,-4 -4,-2 -6,-4 -8,-6 -1,-3 -2,-5 -2,-9 0,-5 2,-9 6,-13 5,-3 10,-5 17,-5 8,0 14,2 18,6 5,3 7,8 7,14l-7 0c0,-4 -2,-7 -5,-10 -4,-2 -8,-4 -13,-4 -5,0 -8,1 -11,4 -3,2 -5,5 -5,8 0,3 2,6 4,8 2,2 7,3 13,5 7,1 12,3 15,5 3,1 5,3 7,6 1,2 2,5 2,9 0,5 -2,10 -7,13 -4,3 -10,5 -17,5 -8,0 -14,-2 -19,-6 -5,-3 -7,-8 -7,-14l7 0c0,4 2,8 6,10 3,3 7,4 13,4 5,0 9,-1 12,-4 3,-2 5,-5 5,-8zm31 -38c3,-4 6,-7 9,-10 4,-2 8,-3 13,-3 7,0 12,2 16,6 3,4 5,10 5,18l0 44 -7 0 0 -44c0,-6 -2,-10 -4,-13 -3,-3 -7,-4 -12,-4 -5,0 -9,1 -12,4 -4,3 -6,6 -8,11l0 46 -7 0 0 -95 7 0 0 40zm104 55c-1,-2 -1,-5 -2,-9 -2,3 -5,5 -9,7 -4,2 -9,3 -13,3 -7,0 -12,-2 -16,-5 -4,-4 -6,-8 -6,-14 0,-6 3,-11 8,-15 6,-4 13,-6 23,-6l13 0 0 -7c0,-5 -1,-9 -4,-12 -3,-2 -7,-4 -13,-4 -5,0 -9,2 -13,4 -3,3 -5,6 -5,10l-7 0c0,-6 2,-10 7,-14 5,-4 11,-6 18,-6 8,0 14,2 18,6 4,3 7,9 7,15l0 32c0,6 0,11 2,14l0 1 -8 0zm-23 -5c5,0 9,-2 13,-4 4,-2 7,-6 8,-10l0 -14 -13 0c-7,0 -13,1 -17,4 -4,2 -6,6 -6,11 0,3 1,6 4,9 3,2 6,4 11,4zm81 5l0 -90 26 0c9,0 17,2 22,6 5,4 7,10 7,18 0,4 -1,8 -4,12 -2,3 -6,6 -10,7 5,1 9,4 13,8 3,4 4,8 4,14 0,8 -2,14 -7,18 -5,5 -12,7 -22,7l-29 0zm7 -43l0 36 23 0c6,0 11,-1 15,-5 4,-3 6,-7 6,-13 0,-6 -2,-10 -6,-13 -3,-4 -8,-5 -15,-5l-23 0zm0 -7l21 0c6,0 11,-1 14,-4 4,-3 6,-7 6,-12 0,-6 -2,-10 -6,-13 -3,-3 -9,-4 -16,-4l-19 0 0 33zm110 50c-1,-2 -1,-5 -2,-9 -2,3 -5,5 -9,7 -4,2 -9,3 -13,3 -7,0 -12,-2 -16,-5 -4,-4 -6,-8 -6,-14 0,-6 3,-11 9,-15 5,-4 12,-6 22,-6l13 0 0 -7c0,-5 -1,-9 -4,-12 -3,-2 -7,-4 -13,-4 -5,0 -9,2 -13,4 -3,3 -5,6 -5,10l-7 0c0,-6 2,-10 7,-14 5,-4 11,-6 19,-6 7,0 13,2 17,6 4,3 7,9 7,15l0 32c0,6 0,11 2,14l0 1 -8 0zm-23 -5c5,0 9,-2 13,-4 4,-2 7,-6 8,-10l0 -14 -13 0c-7,0 -13,1 -17,4 -4,2 -6,6 -6,11 0,3 1,6 4,9 3,2 6,4 11,4zm55 -62l0 12c3,-4 6,-8 10,-10 4,-2 8,-3 12,-3 7,0 13,2 16,6 4,4 5,10 5,18l0 44 -7 0 0 -44c0,-6 -1,-10 -4,-13 -2,-3 -6,-4 -12,-4 -4,0 -8,1 -12,4 -3,3 -6,6 -7,11l0 46 -8 0 0 -67 7 0zm59 33c0,-10 3,-19 7,-25 5,-6 11,-9 19,-9 9,0 16,4 21,11l0 -38 7 0 0 95 -7 0 0 -9c-5,7 -12,10 -21,10 -8,0 -14,-3 -19,-9 -4,-6 -7,-15 -7,-25l0 -1zm8 1c0,9 2,15 5,20 3,5 8,8 14,8 9,0 16,-4 20,-12l0 -32c-4,-8 -11,-12 -20,-12 -6,0 -11,2 -14,7 -3,5 -5,12 -5,21zm73 33l-7 0 0 -67 7 0 0 67zm-8 -86c0,-1 0,-2 1,-3 1,-1 2,-2 4,-2 1,0 3,1 4,2 0,1 1,2 1,3 0,2 -1,3 -1,4 -1,1 -3,1 -4,1 -2,0 -3,0 -4,-1 -1,-1 -1,-2 -1,-4zm57 81c0,-1 1,-2 2,-3 0,-1 2,-2 3,-2 2,0 3,1 4,2 1,1 2,2 2,3 0,2 -1,3 -2,4 -1,1 -2,1 -4,1 -1,0 -3,0 -3,-1 -1,-1 -2,-2 -2,-4zm0 -56c0,-2 1,-3 2,-4 1,-1 2,-2 4,-2 1,0 2,1 3,2 1,1 2,2 2,4 0,1 -1,2 -2,3 -1,1 -2,2 -3,2 -2,0 -3,-1 -4,-2 -1,-1 -2,-2 -2,-3zm104 19c-3,4 -6,7 -10,9 -4,2 -8,3 -13,3 -5,0 -9,-1 -13,-3 -4,-3 -7,-7 -9,-11 -2,-5 -3,-10 -3,-16 0,-5 1,-11 3,-16 2,-4 5,-8 10,-11 4,-3 8,-4 14,-4 9,0 16,3 21,10 5,6 7,15 7,26l0 7c0,16 -3,28 -10,36 -7,8 -18,12 -32,12l-1 0 0 -6 3 0c10,0 18,-3 24,-9 5,-6 8,-15 9,-27zm-22 6c5,0 10,-1 13,-4 4,-3 7,-7 9,-12l0 -4c0,-9 -2,-16 -6,-21 -4,-5 -9,-7 -15,-7 -6,0 -11,2 -15,7 -3,4 -5,10 -5,17 0,7 2,13 5,17 4,5 8,7 14,7zm89 -54l0 6 -1 0c-11,0 -19,3 -25,10 -6,6 -10,15 -10,26 2,-4 5,-6 9,-8 4,-2 8,-3 13,-3 8,0 14,3 18,8 5,6 7,13 7,21 0,6 -1,12 -3,16 -2,5 -5,9 -9,11 -4,3 -9,4 -14,4 -9,0 -16,-3 -21,-9 -5,-6 -8,-14 -8,-24l0 -8c0,-16 4,-28 11,-37 7,-9 18,-13 31,-13l2 0zm-15 37c-5,0 -9,2 -13,5 -5,2 -7,6 -9,10l0 6c0,8 2,14 6,19 4,5 10,8 16,8 6,0 10,-3 14,-7 3,-5 5,-10 5,-17 0,-7 -2,-13 -5,-17 -4,-4 -8,-7 -14,-7zm75 53l-7 0 0 -81 -24 9 0 -7 30 -11 1 0 0 90zm82 -42c-3,4 -6,7 -10,9 -4,2 -8,3 -13,3 -5,0 -9,-1 -13,-3 -4,-3 -7,-7 -9,-11 -2,-5 -3,-10 -3,-16 0,-5 1,-11 3,-16 2,-4 6,-8 10,-11 4,-3 8,-4 14,-4 9,0 16,3 21,10 5,6 7,15 7,26l0 7c0,16 -3,28 -10,36 -7,8 -18,12 -32,12l-1 0 0 -6 3 0c10,0 18,-3 24,-9 6,-6 9,-15 9,-27zm-22 6c5,0 10,-1 14,-4 3,-3 6,-7 8,-12l0 -4c0,-9 -2,-16 -6,-21 -4,-5 -9,-7 -15,-7 -6,0 -11,2 -14,7 -4,4 -6,10 -6,17 0,7 2,13 5,17 4,5 9,7 14,7zm100 -1c0,12 -3,22 -7,28 -5,7 -12,10 -21,10 -9,0 -15,-3 -20,-10 -5,-6 -7,-15 -7,-28l0 -16c0,-12 2,-22 7,-28 4,-7 11,-10 20,-10 9,0 16,3 20,9 5,7 7,16 8,28l0 17zm-8 -17c0,-10 -2,-17 -5,-23 -3,-5 -8,-8 -15,-8 -7,0 -12,3 -15,8 -3,5 -5,13 -5,23l0 17c0,11 2,18 5,24 4,5 9,8 15,8 7,0 12,-3 15,-8 3,-5 5,-13 5,-23l0 -18zm68 25l14 0 0 6 -14 0 0 23 -7 0 0 -23 -42 0 0 -4 41 -63 8 0 0 61zm-40 0l33 0 0 -51 -3 6 -30 45zm120 -56l-38 85 -8 0 38 -83 -51 0 0 -7 59 0 0 5zm61 43c-3,4 -6,7 -10,9 -4,2 -8,3 -13,3 -5,0 -9,-1 -13,-3 -4,-3 -7,-7 -9,-11 -2,-5 -4,-10 -4,-16 0,-5 2,-11 4,-16 2,-4 5,-8 9,-11 4,-3 9,-4 15,-4 8,0 15,3 20,10 5,6 8,15 8,26l0 7c0,16 -3,28 -10,36 -7,8 -18,12 -32,12l-1 0 0 -6 2 0c11,0 19,-3 25,-9 5,-6 8,-15 9,-27zm-22 6c5,0 9,-1 13,-4 4,-3 7,-7 9,-12l0 -4c0,-9 -2,-16 -6,-21 -4,-5 -9,-7 -15,-7 -6,0 -11,2 -15,7 -3,4 -5,10 -5,17 0,7 2,13 5,17 4,5 8,7 14,7zm101 -49l-39 85 -7 0 38 -83 -51 0 0 -7 59 0 0 5zm68 48c0,12 -2,22 -7,28 -5,7 -11,10 -20,10 -9,0 -16,-3 -21,-10 -4,-6 -7,-15 -7,-28l0 -16c0,-12 2,-22 7,-28 5,-7 12,-10 21,-10 8,0 15,3 20,9 4,7 7,16 7,28l0 17zm-7 -17c0,-10 -2,-17 -5,-23 -4,-5 -9,-8 -15,-8 -7,0 -12,3 -15,8 -4,5 -6,13 -6,23l0 17c0,11 2,18 6,24 3,5 8,8 15,8 6,0 11,-3 15,-8 3,-5 5,-13 5,-23l0 -18z"/>
   </g>
   <g>
    <path class="fil1" d="M648 1723c358,0 648,-291 648,-649 0,-358 -290,-648 -648,-648 -359,0 -649,290 -649,648 0,358 290,649 649,649z"/>
    <g>
     <path class="fil2" d="M648 426c357,0 648,290 648,648 0,358 -291,648 -648,648 -358,0 -648,-290 -648,-648 0,-358 290,-648 648,-648z"/>
     <path class="fil3" d="M109 1267l17 -7c-1,5 -2,9 -2,13 0,4 1,8 3,12 0,2 1,4 3,6 1,1 2,2 3,3 1,1 2,1 3,1 1,1 3,0 4,0 1,-1 2,-2 3,-3 1,-1 2,-3 2,-5 1,-2 1,-4 1,-6 0,-3 0,-5 0,-8 0,-7 1,-13 4,-17 2,-5 6,-8 11,-10 4,-2 8,-2 12,-2 3,0 7,2 10,4 3,2 5,5 8,8 2,3 4,7 6,11 1,4 3,8 3,11 1,3 1,7 1,10l-16 6c1,-2 1,-3 1,-5 0,-2 0,-4 0,-6 0,-1 -1,-3 -1,-5 -1,-1 -1,-3 -2,-4 0,-2 -1,-4 -2,-6 -1,-1 -3,-2 -4,-3 -1,-1 -2,-2 -3,-2 -1,0 -3,0 -4,1 -1,0 -2,1 -3,2 -1,1 -1,3 -2,4 0,2 0,4 0,6 -1,2 -1,4 -1,7 0,4 0,7 -1,10 0,3 -1,6 -2,8 -1,3 -3,5 -5,7 -2,2 -4,4 -7,5 -5,2 -9,2 -12,2 -4,-1 -7,-2 -10,-4 -3,-2 -6,-5 -8,-8 -2,-4 -4,-8 -6,-12 -2,-4 -3,-8 -4,-12 0,-4 -1,-8 0,-12zm121 98l-12 -20 -59 33 -9 -16 59 -34 -12 -21 14 -7 33 58 -14 7zm30 84c-20,17 -37,16 -52,-2 -15,-17 -13,-33 6,-49l36 -32 13 14 -37 32c-10,9 -12,17 -5,25 7,8 15,8 25,-1l37 -32 12 14 -35 31zm-3 49l52 -66 23 19c23,18 26,38 9,60 -8,10 -17,15 -29,16 -11,1 -22,-2 -32,-11l-23 -18zm57 -42l-33 42 7 5c6,5 13,8 20,7 6,-1 12,-5 18,-12 5,-6 7,-12 6,-19 -1,-6 -4,-12 -11,-17l-7 -6zm70 130l-44 -25 42 -73 41 24 -7 13 -26 -14 -9 16 24 13 -8 14 -24 -14 -9 17 27 15 -7 14zm96 40l-17 -7 -13 -61c-1,-4 -2,-6 -2,-8l0 0c-1,3 -2,7 -5,13l-16 43 -17 -7 30 -78 19 7 13 60c1,3 1,5 1,8l1 0c0,-2 1,-6 3,-11l17 -43 17 6 -31 78zm105 -48l-24 -5 -12 68 -18 -3 11 -68 -23 -4 3 -15 65 11 -2 16zm12 67l0 -19c3,3 7,6 11,7 4,2 8,2 12,2 2,0 4,0 6,0 2,-1 4,-1 5,-2 1,-1 2,-1 2,-2 1,-1 1,-3 1,-4 0,-1 0,-3 -1,-4 -1,-2 -2,-3 -4,-4 -1,-1 -3,-2 -5,-3 -3,-1 -5,-2 -8,-3 -6,-3 -11,-7 -14,-11 -3,-4 -5,-8 -4,-14 0,-4 1,-8 2,-11 2,-3 5,-6 8,-8 3,-2 6,-3 10,-4 4,-1 8,-1 13,-1 4,0 8,0 11,1 4,0 7,1 10,2l-1 18c-1,-1 -3,-2 -4,-3 -2,-1 -4,-1 -5,-2 -2,0 -4,-1 -5,-1 -2,0 -4,0 -5,0 -3,0 -4,0 -6,0 -2,1 -3,1 -5,2 -1,1 -2,1 -3,2 0,1 -1,3 -1,4 0,1 1,3 1,4 1,1 2,2 4,3 1,1 2,2 4,3 2,1 5,2 7,3 3,1 6,3 9,5 3,1 5,3 7,5 2,2 3,4 4,7 1,2 1,5 1,9 0,5 -1,8 -3,12 -1,3 -4,5 -7,7 -3,2 -7,3 -11,4 -4,1 -8,1 -12,1 -5,0 -9,0 -14,-1 -4,-1 -7,-2 -10,-4zm98 -84l-9 27 -12 1 5 -26 16 -2zm114 63c-5,5 -13,8 -22,10 -13,3 -24,1 -32,-4 -9,-6 -15,-15 -18,-27 -3,-13 -1,-25 5,-35 6,-10 16,-16 28,-19 8,-2 15,-2 21,-2l4 18c-6,-2 -13,-2 -19,-1 -8,2 -14,6 -17,12 -4,6 -5,13 -3,21 2,8 6,14 11,17 6,4 12,5 20,3 7,-1 13,-5 18,-9l4 16zm62 -18c-11,5 -21,5 -31,0 -10,-4 -18,-12 -22,-24 -5,-12 -6,-24 -2,-34 4,-10 12,-18 24,-23 11,-4 22,-4 31,0 10,5 17,13 22,25 5,12 5,23 1,34 -4,10 -11,18 -23,22zm-25 -65c-6,2 -10,6 -12,12 -2,6 -1,13 2,21 3,7 7,13 13,16 5,3 11,3 16,1 6,-3 10,-7 12,-12 2,-6 1,-13 -2,-21 -3,-8 -7,-13 -13,-16 -5,-3 -10,-4 -16,-1zm127 -35c14,21 10,38 -9,51 -20,12 -36,8 -49,-13l-26 -41 16 -10 26 41c8,11 16,14 25,9 8,-6 9,-14 2,-25l-26 -42 16 -10 25 40zm101 -43l-14 13 -61 -15c-4,-1 -6,-1 -8,-2l0 0c2,2 5,5 10,10l31 33 -13 12 -57 -60 14 -14 60 14c2,0 5,1 7,2l1 0c-2,-2 -5,-4 -9,-8l-32 -34 13 -12 58 61zm55 -78c-1,6 -4,14 -10,22 -7,10 -16,16 -27,18 -10,1 -20,-1 -31,-9 -11,-7 -17,-17 -19,-29 -2,-11 1,-22 8,-33 5,-7 10,-12 15,-15l15 10c-6,3 -11,7 -16,13 -4,6 -6,13 -5,20 2,7 6,12 13,17 6,5 13,7 19,6 7,-1 12,-5 17,-11 4,-6 7,-12 7,-19l14 10zm28 -42l-10 16 -73 -40 9 -17 74 41zm34 -78l-18 47 -78 -31 7 -17 63 24 12 -28 14 5z"/>
     <g>
      <path class="fil4" d="M382 850c-46,2 -123,35 -149,58 -26,25 -15,44 0,74 11,23 22,48 34,72 18,37 125,268 137,281l-34 -301 122 20 116 302c10,25 28,85 42,99l155 -401 121 -20 -32 290c1,8 0,5 2,9 6,-18 25,-55 34,-73 46,-92 93,-199 139,-290 19,-37 6,-54 -18,-71 -28,-21 -118,-53 -160,-54 21,-1 202,63 39,123 -174,65 -618,44 -631,-52 -5,-39 57,-50 83,-66z"/>
      <path class="fil4" d="M628 795c-103,25 -65,184 41,158 99,-25 67,-184 -41,-158z"/>
      <path class="fil4" d="M266 697c-82,24 -45,148 38,123 80,-24 45,-148 -38,-123z"/>
      <path class="fil4" d="M989 699c-83,32 -30,152 48,119 76,-32 32,-151 -48,-119z"/>
     </g>
     <path class="fil3" d="M519 586l-26 8 -39 -31c0,-1 -2,-2 -3,-5l-1 1 14 44 -21 6 -27 -90 20 -7 13 43 0 0c1,-1 1,-3 1,-6l14 -45 24 -8 -18 53 49 37zm58 -49c3,12 1,22 -4,30 -4,7 -12,12 -23,14 -5,1 -10,1 -14,0l-3 -20c4,2 8,3 12,2 10,-2 14,-10 11,-24l-9 -56 21 -3 9 57zm36 30l0 -21c4,3 8,5 12,7 5,1 10,2 14,2 3,0 5,0 7,-1 2,0 4,-1 5,-2 2,-1 3,-2 3,-3 1,-1 1,-2 1,-4 0,-2 0,-3 -2,-5 -1,-1 -2,-3 -4,-4 -2,-1 -4,-2 -6,-3 -3,-1 -6,-3 -9,-4 -7,-3 -13,-6 -16,-11 -4,-4 -6,-10 -6,-16 0,-5 1,-9 3,-13 2,-3 5,-6 8,-9 3,-2 7,-4 12,-5 4,-1 9,-1 14,-2 5,0 9,1 13,1 4,1 7,2 11,3l0 20c-2,-1 -3,-2 -5,-3 -2,-1 -4,-2 -6,-2 -2,-1 -4,-1 -6,-1 -2,-1 -4,-1 -6,-1 -2,0 -4,1 -6,1 -2,1 -4,1 -5,2 -2,1 -3,2 -3,3 -1,1 -1,3 -1,4 0,2 0,3 1,4 1,2 2,3 3,4 2,1 4,2 6,3 2,1 5,2 8,3 3,2 7,4 10,5 3,2 6,4 8,6 2,2 4,5 5,8 1,3 2,6 2,10 0,5 -1,10 -3,13 -2,4 -5,7 -8,9 -4,2 -8,4 -12,5 -5,1 -10,2 -15,2 -5,0 -10,-1 -15,-1 -4,-1 -8,-3 -12,-4zm161 13c-7,3 -16,3 -27,1 -15,-2 -25,-8 -32,-18 -7,-10 -9,-22 -7,-36 3,-15 9,-26 20,-34 11,-8 24,-11 38,-8 9,1 17,4 23,7l-3 20c-6,-4 -13,-8 -21,-9 -9,-1 -16,0 -23,5 -6,5 -10,12 -11,21 -2,9 0,17 4,23 4,6 10,10 19,11 8,2 16,1 24,-2l-4 19zm82 33l-54 -20 34 -89 51 20 -6 16 -31 -12 -8 20 29 11 -6 16 -29 -11 -7 21 33 12 -6 16z"/>
    </g>
   </g>
  </g>
 </g>
</svg>
