<?xml version="1.0" encoding="UTF-8"?>
<!DOCTYPE svg PUBLIC "-//W3C//DTD SVG 1.1//EN" "http://www.w3.org/Graphics/SVG/1.1/DTD/svg11.dtd">
<!-- Creator: CorelDRAW X7 -->
<svg xmlns="http://www.w3.org/2000/svg" xml:space="preserve" width="57.9118mm" height="91.4398mm" version="1.1" style="shape-rendering:geometricPrecision; text-rendering:geometricPrecision; image-rendering:optimizeQuality; fill-rule:evenodd; clip-rule:evenodd"
viewBox="0 0 5791 9144"
 xmlns:xlink="http://www.w3.org/1999/xlink">
 <defs>
  <style type="text/css">
   <![CDATA[
    .str1 {stroke:#61003F;stroke-width:84.65;stroke-linecap:round;stroke-linejoin:round}
    .str3 {stroke:#61003F;stroke-width:84.67;stroke-linecap:round;stroke-linejoin:round}
    .str0 {stroke:#61003F;stroke-width:84.67;stroke-linecap:round;stroke-linejoin:round}
    .str2 {stroke:#61003F;stroke-width:84.67;stroke-linecap:round;stroke-linejoin:round}
    .fil2 {fill:none}
    .fil1 {fill:#61003F}
    .fil0 {fill:#FFF4F0}
   ]]>
  </style>
 </defs>
 <g id="Layer_x0020_1">
  <metadata id="CorelCorpID_0Corel-Layer"/>
  <g id="_2548769500048">
   <polygon class="fil0 str0" points="5793,812 4481,54 108,2579 108,9144 5793,5862 "/>
   <polygon class="fil1 str0" points="982,4094 982,8639 4918,6367 4918,1822 "/>
   <polygon class="fil0 str1" points="1142,4358 1142,8526 4751,6442 4751,2274 "/>
   <polygon class="fil0 str0" points="1857,1569 4044,307 4044,1822 1857,3084 "/>
   <polyline class="fil2 str0" points="1857,3084 1420,3337 1420,1822 "/>
   <polygon class="fil1 str0" points="3606,1822 3606,812 3169,1064 3169,2074 "/>
   <polygon class="fil0 str2" points="-2,2525 -2,9090 108,9144 108,2580 "/>
   <polygon class="fil0 str2" points="107,2588 4481,54 4372,0 -2,2525 "/>
   <line class="fil2 str3" x1="4751" y1="2951" x2="1916" y2= "4599" />
   <line class="fil2 str3" x1="4751" y1="3961" x2="1916" y2= "5609" />
   <line class="fil2 str3" x1="4751" y1="4985" x2="1916" y2= "6619" />
   <line class="fil2 str3" x1="4751" y1="5995" x2="1916" y2= "7629" />
  </g>
 </g>
</svg>
