<?xml version="1.0" encoding="UTF-8"?>
<!DOCTYPE svg PUBLIC "-//W3C//DTD SVG 1.1//EN" "http://www.w3.org/Graphics/SVG/1.1/DTD/svg11.dtd">
<!-- Creator: CorelDRAW X7 -->
<svg xmlns="http://www.w3.org/2000/svg" xml:space="preserve" width="75.7766mm" height="91.4398mm" version="1.1" style="shape-rendering:geometricPrecision; text-rendering:geometricPrecision; image-rendering:optimizeQuality; fill-rule:evenodd; clip-rule:evenodd"
viewBox="0 0 7578 9144"
 xmlns:xlink="http://www.w3.org/1999/xlink">
 <defs>
  <style type="text/css">
   <![CDATA[
    .str0 {stroke:#6E144E;stroke-width:101.56;stroke-linecap:round;stroke-linejoin:round}
    .str4 {stroke:#61003F;stroke-width:101.59;stroke-linecap:round;stroke-linejoin:round}
    .str3 {stroke:#61003F;stroke-width:101.59;stroke-linecap:round;stroke-linejoin:round}
    .str9 {stroke:#6E144E;stroke-width:101.59;stroke-linecap:round;stroke-linejoin:round}
    .str1 {stroke:#61003F;stroke-width:101.59;stroke-linecap:round;stroke-linejoin:round}
    .str2 {stroke:#61003F;stroke-width:101.59;stroke-linecap:round;stroke-linejoin:round}
    .str5 {stroke:#61003F;stroke-width:101.59;stroke-linecap:round;stroke-linejoin:round}
    .str6 {stroke:#61003F;stroke-width:101.59;stroke-linecap:round;stroke-linejoin:round}
    .str7 {stroke:#61003F;stroke-width:101.59;stroke-linecap:round;stroke-linejoin:round}
    .str8 {stroke:#61003F;stroke-width:101.59;stroke-linecap:round;stroke-linejoin:round}
    .str10 {stroke:#6E144E;stroke-width:101.59;stroke-linecap:round;stroke-linejoin:round}
    .fil1 {fill:none}
    .fil0 {fill:#FFF4F0}
   ]]>
  </style>
    <clipPath id="id0">
     <path d="M2749 6899c384,221 768,274 1061,104 293,-169 440,-528 440,-970 0,-442 -146,-969 -438,-1474 -292,-506 -675,-896 -1058,-1116 -383,-222 -767,-274 -1060,-105 -293,169 -440,528 -440,971 0,442 146,968 438,1474 291,505 674,895 1057,1116z"/>
    </clipPath>
 </defs>
 <g id="Layer_x0020_1">
  <metadata id="CorelCorpID_0Corel-Layer"/>
  <g id="_2548765588384">
   <polygon class="fil0 str0" points="5505,6760 4128,9144 1375,7555 -1,3581 1375,1197 4128,2787 "/>
   <path class="fil0" d="M2749 6899c384,221 768,274 1061,104 293,-169 440,-528 440,-970 0,-442 -146,-969 -438,-1474 -292,-506 -675,-896 -1058,-1116 -383,-222 -767,-274 -1060,-105 -293,169 -440,528 -440,971 0,442 146,968 438,1474 291,505 674,895 1057,1116z"/>
   <g style="clip-path:url(#id0)">
    <g>
     <path id="1" class="fil1 str1" d="M2980 6766c383,221 767,274 1060,104 293,-169 440,-528 440,-970 0,-442 -146,-969 -438,-1474 -291,-506 -674,-896 -1057,-1117 -384,-221 -768,-273 -1061,-104 -293,169 -440,528 -440,971 0,442 146,968 438,1474 292,505 675,895 1058,1116z"/>
     <path class="fil1 str2" d="M3210 6633c384,221 767,273 1061,104 293,-169 440,-528 440,-971 0,-442 -146,-968 -438,-1473 -292,-506 -675,-896 -1058,-1117 -383,-221 -767,-273 -1060,-104 -293,169 -440,528 -440,971 0,442 146,968 437,1474 292,505 675,895 1058,1116z"/>
     <path class="fil1 str3" d="M3440 6500c384,221 768,273 1061,104 293,-169 440,-528 440,-971 0,-442 -146,-968 -438,-1474 -292,-505 -674,-895 -1057,-1116 -384,-221 -768,-273 -1061,-104 -293,169 -440,528 -440,971 0,442 146,968 438,1474 292,505 675,895 1057,1116z"/>
     <path class="fil1 str4" d="M3671 6367c383,221 767,273 1061,104 293,-169 439,-528 440,-971 0,-442 -146,-968 -438,-1474 -292,-505 -675,-895 -1058,-1116 -383,-221 -767,-273 -1060,-104 -294,169 -440,528 -440,971 -1,442 145,968 437,1474 292,505 675,895 1058,1116z"/>
     <path class="fil1 str5" d="M3918 6224c384,221 768,274 1061,104 293,-169 440,-528 440,-970 0,-442 -146,-969 -438,-1474 -292,-506 -675,-896 -1058,-1117 -383,-221 -767,-273 -1060,-104 -293,169 -440,528 -440,971 0,442 146,968 438,1474 291,505 674,895 1057,1116z"/>
     <path class="fil1 str6" d="M4149 6091c383,221 767,274 1060,104 293,-169 440,-528 440,-970 0,-442 -146,-969 -438,-1474 -291,-506 -674,-896 -1057,-1117 -384,-221 -768,-273 -1061,-104 -293,169 -440,528 -440,971 0,442 146,968 438,1474 292,505 675,895 1058,1116z"/>
     <path class="fil1 str7" d="M4379 5958c384,221 767,273 1061,104 293,-169 440,-528 440,-971 0,-442 -146,-968 -438,-1473 -292,-506 -675,-896 -1058,-1117 -383,-221 -767,-273 -1060,-104 -293,169 -440,528 -440,971 0,442 146,968 437,1474 292,505 675,895 1058,1116z"/>
     <path class="fil1 str8" d="M4609 5825c384,221 768,273 1061,104 293,-169 440,-528 440,-971 0,-442 -146,-968 -438,-1474 -292,-505 -674,-895 -1057,-1116 -384,-221 -768,-273 -1061,-104 -293,169 -440,528 -440,971 0,442 146,968 438,1474 292,505 675,895 1057,1116z"/>
    </g>
   </g>
   <path class="fil1 str9" d="M2749 6899c384,221 768,274 1061,104 293,-169 440,-528 440,-970 0,-442 -146,-969 -438,-1474 -292,-506 -675,-896 -1058,-1116 -383,-222 -767,-274 -1060,-105 -293,169 -440,528 -440,971 0,442 146,968 438,1474 291,505 674,895 1057,1116z"/>
   <polygon class="fil0 str10" points="4128,2787 1375,1197 3449,0 6202,1589 7579,5563 6202,7947 4128,9144 5517,6767 "/>
   <polygon class="fil0 str10" points="7579,5563 6202,1589 4128,2787 5517,6767 "/>
  </g>
 </g>
</svg>
