<?xml version="1.0" encoding="UTF-8"?>
<!DOCTYPE svg PUBLIC "-//W3C//DTD SVG 1.1//EN" "http://www.w3.org/Graphics/SVG/1.1/DTD/svg11.dtd">
<!-- Creator: CorelDRAW X7 -->
<svg xmlns="http://www.w3.org/2000/svg" xml:space="preserve" width="91.3552mm" height="91.4398mm" version="1.1" style="shape-rendering:geometricPrecision; text-rendering:geometricPrecision; image-rendering:optimizeQuality; fill-rule:evenodd; clip-rule:evenodd"
viewBox="0 0 9136 9144"
 xmlns:xlink="http://www.w3.org/1999/xlink">
 <defs>
  <style type="text/css">
   <![CDATA[
    .fil0 {fill:#61003F}
   ]]>
  </style>
 </defs>
 <g id="Layer_x0020_1">
  <metadata id="CorelCorpID_0Corel-Layer"/>
  <g id="_2548765577760">
   <path class="fil0" d="M6674 6714c82,-170 163,-408 223,-567 70,-189 153,-363 218,-551 226,-648 324,-1313 159,-1993 -42,-171 -149,-360 -208,-561 -132,-446 -53,-928 469,-980 -83,-112 -229,-226 -324,-329 -257,-281 -824,-608 -1163,-749 -663,-275 -1458,-365 -2223,-217 -994,193 -1755,712 -2361,1485 -132,168 -400,583 -461,810l908 -21c302,0 606,-4 909,-8l3 198c-232,-3 -412,-12 -472,203 -49,174 71,378 129,528l764 1916c51,129 338,887 381,935 77,-91 350,-806 426,-987 143,-340 281,-661 415,-989 44,-109 -2,-146 -44,-255l-293 -751c-145,-385 -248,-592 -785,-624l0 -174 2719 7 -3 180c-193,33 -439,-14 -535,136 -93,146 26,372 80,515 122,319 244,640 354,946l715 1897z"/>
   <path class="fil0" d="M4631 199c91,0 171,5 261,13 600,55 961,144 1517,392 37,16 61,27 94,45 504,272 448,243 914,603 174,135 272,259 404,403 332,362 540,688 753,1159 242,532 367,1138 369,1795 1,690 -162,1228 -400,1787 -150,353 -599,1023 -897,1287l-607 495c-196,145 -459,280 -695,389 -529,243 -1145,374 -1792,374 -994,1 -2202,-435 -2875,-1101 -28,-28 -45,-39 -74,-63 -49,-43 -97,-84 -135,-123 -791,-828 -1272,-1891 -1268,-3084 4,-866 242,-1642 678,-2333 190,-300 477,-660 736,-880 381,-322 336,-305 798,-585 643,-390 1449,-574 2219,-573zm-4625 4607c34,619 221,1338 475,1805 359,664 917,1379 1577,1775l49 28c1357,860 3048,981 4505,246l195 -104c912,-515 1605,-1304 2001,-2271 257,-627 338,-1191 327,-1952 -17,-1158 -729,-2573 -1608,-3248 -61,-47 -102,-81 -156,-122 -865,-669 -1897,-1016 -3034,-956 -1049,55 -1923,427 -2674,1044 -66,55 -86,78 -148,127 -39,30 -45,42 -82,75 -448,403 -884,1050 -1099,1603 -231,596 -367,1246 -328,1950z"/>
   <path class="fil0" d="M3346 8277c99,21 209,63 296,83 331,76 605,113 970,112 582,0 773,-107 1242,-211 -63,-235 -202,-548 -294,-778 -139,-349 -830,-2205 -897,-2281l-1317 3075z"/>
   <path class="fil0" d="M847 3518c-156,292 -173,1119 -137,1488 69,715 394,1500 847,2028 137,160 343,396 506,518 44,33 67,57 108,88 114,86 351,266 490,323 -59,-187 -150,-374 -226,-563 -77,-192 -153,-379 -228,-564l-1351 -3305c-1,-7 -6,-9 -9,-13z"/>
   <path class="fil0" d="M6561 7919c192,-84 318,-216 489,-338 261,-186 584,-578 773,-864 644,-977 796,-2125 474,-3264 -3,4 -8,8 -10,10 -1,2 -7,7 -9,10l-1506 3889c-74,198 -144,348 -211,557z"/>
  </g>
 </g>
</svg>
