<?xml version="1.0" encoding="UTF-8"?>
<!DOCTYPE svg PUBLIC "-//W3C//DTD SVG 1.1//EN" "http://www.w3.org/Graphics/SVG/1.1/DTD/svg11.dtd">
<!-- Creator: CorelDRAW X7 -->
<svg xmlns="http://www.w3.org/2000/svg" xml:space="preserve" width="56.3032mm" height="92.5406mm" version="1.1" style="shape-rendering:geometricPrecision; text-rendering:geometricPrecision; image-rendering:optimizeQuality; fill-rule:evenodd; clip-rule:evenodd"
viewBox="0 0 5630 9254"
 xmlns:xlink="http://www.w3.org/1999/xlink">
 <defs>
  <style type="text/css">
   <![CDATA[
    .str6 {stroke:#61003F;stroke-width:34.04;stroke-linecap:round;stroke-linejoin:round}
    .str8 {stroke:#61003F;stroke-width:34.04;stroke-linecap:round;stroke-linejoin:round}
    .str3 {stroke:#61003F;stroke-width:34.04;stroke-linecap:round;stroke-linejoin:round}
    .str7 {stroke:#61003F;stroke-width:34.04;stroke-linecap:round;stroke-linejoin:round}
    .str11 {stroke:#61003F;stroke-width:34.05;stroke-linecap:round;stroke-linejoin:round}
    .str9 {stroke:#61003F;stroke-width:34.05;stroke-linecap:round;stroke-linejoin:round}
    .str10 {stroke:#61003F;stroke-width:34.05;stroke-linecap:round;stroke-linejoin:round}
    .str1 {stroke:#61003F;stroke-width:34.05;stroke-linecap:round;stroke-linejoin:round}
    .str2 {stroke:#61003F;stroke-width:34.05;stroke-linecap:round;stroke-linejoin:round}
    .str0 {stroke:#61003F;stroke-width:34.05;stroke-linecap:round;stroke-linejoin:round}
    .str5 {stroke:#61003F;stroke-width:34.05;stroke-linecap:round;stroke-linejoin:round}
    .str4 {stroke:#61003F;stroke-width:34.05;stroke-linecap:round;stroke-linejoin:round}
    .str24 {stroke:#61003F;stroke-width:24.24;stroke-linecap:round;stroke-linejoin:round}
    .str23 {stroke:#61003F;stroke-width:24.24;stroke-linecap:round;stroke-linejoin:round}
    .str61 {stroke:#61003F;stroke-width:24.25;stroke-linecap:round;stroke-linejoin:round}
    .str60 {stroke:#61003F;stroke-width:24.25;stroke-linecap:round;stroke-linejoin:round}
    .str62 {stroke:#61003F;stroke-width:24.25;stroke-linecap:round;stroke-linejoin:round}
    .str44 {stroke:#61003F;stroke-width:24.25;stroke-linecap:round;stroke-linejoin:round}
    .str59 {stroke:#61003F;stroke-width:24.25;stroke-linecap:round;stroke-linejoin:round}
    .str27 {stroke:#61003F;stroke-width:24.25;stroke-linecap:round;stroke-linejoin:round}
    .str47 {stroke:#61003F;stroke-width:24.25;stroke-linecap:round;stroke-linejoin:round}
    .str29 {stroke:#61003F;stroke-width:24.25;stroke-linecap:round;stroke-linejoin:round}
    .str49 {stroke:#61003F;stroke-width:24.25;stroke-linecap:round;stroke-linejoin:round}
    .str34 {stroke:#61003F;stroke-width:24.25;stroke-linecap:round;stroke-linejoin:round}
    .str17 {stroke:#61003F;stroke-width:24.25;stroke-linecap:round;stroke-linejoin:round}
    .str35 {stroke:#61003F;stroke-width:24.25;stroke-linecap:round;stroke-linejoin:round}
    .str18 {stroke:#61003F;stroke-width:24.25;stroke-linecap:round;stroke-linejoin:round}
    .str37 {stroke:#61003F;stroke-width:24.25;stroke-linecap:round;stroke-linejoin:round}
    .str19 {stroke:#61003F;stroke-width:24.25;stroke-linecap:round;stroke-linejoin:round}
    .str38 {stroke:#61003F;stroke-width:24.25;stroke-linecap:round;stroke-linejoin:round}
    .str20 {stroke:#61003F;stroke-width:24.25;stroke-linecap:round;stroke-linejoin:round}
    .str40 {stroke:#61003F;stroke-width:24.25;stroke-linecap:round;stroke-linejoin:round}
    .str36 {stroke:#61003F;stroke-width:24.25;stroke-linecap:round;stroke-linejoin:round}
    .str22 {stroke:#61003F;stroke-width:24.25;stroke-linecap:round;stroke-linejoin:round}
    .str16 {stroke:#61003F;stroke-width:24.25;stroke-linecap:round;stroke-linejoin:round}
    .str57 {stroke:#61003F;stroke-width:24.25;stroke-linecap:round;stroke-linejoin:round}
    .str51 {stroke:#61003F;stroke-width:24.25;stroke-linecap:round;stroke-linejoin:round}
    .str54 {stroke:#61003F;stroke-width:24.25;stroke-linecap:round;stroke-linejoin:round}
    .str42 {stroke:#61003F;stroke-width:24.25;stroke-linecap:round;stroke-linejoin:round}
    .str28 {stroke:#61003F;stroke-width:24.25;stroke-linecap:round;stroke-linejoin:round}
    .str48 {stroke:#61003F;stroke-width:24.25;stroke-linecap:round;stroke-linejoin:round}
    .str53 {stroke:#61003F;stroke-width:24.25;stroke-linecap:round;stroke-linejoin:round}
    .str52 {stroke:#61003F;stroke-width:24.25;stroke-linecap:round;stroke-linejoin:round}
    .str43 {stroke:#61003F;stroke-width:24.25;stroke-linecap:round;stroke-linejoin:round}
    .str41 {stroke:#61003F;stroke-width:24.25;stroke-linecap:round;stroke-linejoin:round}
    .str55 {stroke:#61003F;stroke-width:24.25;stroke-linecap:round;stroke-linejoin:round}
    .str50 {stroke:#61003F;stroke-width:24.25;stroke-linecap:round;stroke-linejoin:round}
    .str56 {stroke:#61003F;stroke-width:24.25;stroke-linecap:round;stroke-linejoin:round}
    .str58 {stroke:#61003F;stroke-width:24.25;stroke-linecap:round;stroke-linejoin:round}
    .str45 {stroke:#61003F;stroke-width:24.26;stroke-linecap:round;stroke-linejoin:round}
    .str46 {stroke:#61003F;stroke-width:24.26;stroke-linecap:round;stroke-linejoin:round}
    .str25 {stroke:#61003F;stroke-width:24.26;stroke-linecap:round;stroke-linejoin:round}
    .str26 {stroke:#61003F;stroke-width:24.26;stroke-linecap:round;stroke-linejoin:round}
    .str21 {stroke:#61003F;stroke-width:24.26;stroke-linecap:round;stroke-linejoin:round}
    .str39 {stroke:#61003F;stroke-width:24.26;stroke-linecap:round;stroke-linejoin:round}
    .str32 {stroke:#61003F;stroke-width:24.26;stroke-linecap:round;stroke-linejoin:round}
    .str15 {stroke:#61003F;stroke-width:24.26;stroke-linecap:round;stroke-linejoin:round}
    .str12 {stroke:#61003F;stroke-width:24.26;stroke-linecap:round;stroke-linejoin:round}
    .str13 {stroke:#61003F;stroke-width:24.26;stroke-linecap:round;stroke-linejoin:round}
    .str14 {stroke:#61003F;stroke-width:24.26;stroke-linecap:round;stroke-linejoin:round}
    .str30 {stroke:#61003F;stroke-width:24.26;stroke-linecap:round;stroke-linejoin:round}
    .str33 {stroke:#61003F;stroke-width:24.26;stroke-linecap:round;stroke-linejoin:round}
    .str31 {stroke:#61003F;stroke-width:24.26;stroke-linecap:round;stroke-linejoin:round}
    .fil2 {fill:none}
    .fil0 {fill:#61003F}
    .fil1 {fill:#FFF4F0}
    .fil3 {fill:#61003F;fill-rule:nonzero}
   ]]>
  </style>
 </defs>
 <g id="Layer_x0020_1">
  <metadata id="CorelCorpID_0Corel-Layer"/>
  <g id="_2595167148304">
   <path class="fil0" d="M3944 4946c0,-26 -19,-46 -42,-46 -23,0 -42,20 -42,46l0 1984c0,60 17,109 52,138l0 0c24,20 52,28 81,26 1,0 2,0 4,0l0 0c11,-1 22,-3 34,-6l0 0 0 0c19,-6 39,-14 58,-25 59,-34 118,-94 162,-171 45,-78 68,-159 68,-226l-88 0c0,243 -287,488 -287,264l0 -1984z"/>
   <path class="fil0" d="M4319 5875c0,-14 -20,-26 -44,-26 -24,0 -44,12 -44,26l0 791c0,14 20,25 44,25 24,0 44,-11 44,-25l0 -791z"/>
   <path class="fil0" d="M4606 9207c0,26 19,47 42,47 23,0 42,-21 42,-47l0 -3596c0,-60 -18,-110 -53,-139l0 0c-24,-19 -51,-28 -80,-26 -2,0 -3,1 -4,1l0 0c-11,0 -23,2 -34,6l-1 0 0 0c-19,5 -38,13 -58,24 -58,34 -117,94 -162,172 -45,77 -67,158 -67,226l87 0c0,-244 288,-489 288,-264l0 3596z"/>
   <path class="fil0" d="M4231 6302c0,14 20,25 44,25 24,0 43,-11 43,-25l0 -427c0,-14 -19,-26 -43,-26 -24,0 -44,12 -44,26l0 427z"/>
   <path class="fil1 str0" d="M5630 3634l0 -2 0 -1c0,-83 -27,-182 -82,-278 -55,-95 -127,-168 -199,-210 -73,-41 -145,-51 -200,-19 -51,29 -79,89 -82,164l0 0c-1,6 -1,12 -1,18 0,7 0,13 1,20l0 287c-1,6 -1,13 -1,19 0,83 28,182 83,277 55,96 127,169 199,211 72,41 144,51 199,19 56,-32 83,-99 83,-183l0 -2 0 -320z"/>
   <polygon class="fil1" points="4982,3439 5007,3210 5149,3129 5149,3394 "/>
   <polygon class="fil1" points="5573,3916 5547,4144 5406,4226 5406,3961 "/>
   <path class="fil1 str1" d="M5489 3715l0 -2 0 -1c0,-83 -28,-182 -83,-277 -55,-95 -127,-169 -199,-210 -72,-42 -144,-52 -200,-20 -51,29 -78,89 -82,164l0 0c0,6 0,13 0,19 0,6 0,12 0,19l0 288c0,6 0,12 0,18 0,83 27,183 82,278 55,95 127,168 199,210 72,42 145,52 200,20 55,-32 83,-100 83,-183l0 -3 0 -320z"/>
   <line class="fil2 str2" x1="5406" y1="4221" x2="5547" y2= "4139" />
   <line class="fil2 str2" x1="5007" y1="3205" x2="5149" y2= "3123" />
   <path class="fil1 str3" d="M5345 3326c3,-178 -54,-323 -170,-393 -45,-27 -95,-41 -149,-43 43,74 63,171 62,279l0 0 255 155 2 2zm-320 -436c-14,0 -27,0 -41,1 14,-1 27,-1 41,-1zm-54 2c-11,1 -21,2 -32,4 11,-2 21,-3 32,-4zm-70 13c-6,1 -12,3 -18,5 6,-2 12,-4 18,-5z"/>
   <polygon class="fil0 str4" points="4127,3996 3871,3842 3858,4158 4123,4318 "/>
   <polygon class="fil1 str5" points="5343,3324 5088,3169 5074,3486 5339,3646 "/>
   <polygon class="fil1" points="4977,2814 4958,2849 5032,2893 5035,2901 5046,2902 5155,2967 5171,2936 "/>
   <line class="fil2 str6" x1="4918" y1="2778" x2="5175" y2= "2933" />
   <line class="fil2 str7" x1="5088" y1="3169" x2="5343" y2= "3324" />
   <line class="fil2 str7" x1="3871" y1="3842" x2="4130" y2= "3997" />
   <path class="fil0 str8" d="M4058 3251c-122,202 -184,413 -187,591l257 155c3,-178 65,-389 187,-591 195,-324 484,-525 711,-516 -27,-47 -63,-85 -108,-112 -233,-140 -618,72 -860,473zm1017 -225c-1,-7 -2,-13 -4,-19 2,6 3,12 4,19zm-11 -45c-4,-15 -9,-28 -14,-42 5,14 10,27 14,42zm-20 -54c-5,-12 -11,-25 -18,-36 7,11 13,24 18,36z"/>
   <polygon class="fil0" points="5020,2901 5096,2910 5140,2924 5073,2868 4997,2819 "/>
   <path class="fil1 str9" d="M4266 4401l0 -2 0 -1c0,-83 -27,-182 -82,-278 -55,-95 -127,-168 -199,-210 -72,-41 -145,-51 -200,-19 -51,29 -78,89 -82,164l0 0c-1,6 -1,12 -1,18 0,7 0,13 1,20l0 287c-1,6 -1,13 -1,19 0,83 28,182 83,277 55,96 127,169 199,211 72,41 144,51 200,19 55,-32 82,-99 82,-183l0 -2 0 -320z"/>
   <polygon class="fil1" points="3618,4206 3644,3977 3785,3896 3785,4161 "/>
   <polygon class="fil1" points="4209,4683 4184,4911 4042,4993 4042,4728 "/>
   <path class="fil1 str10" d="M4125 4482l0 -2 0 -1c0,-83 -27,-182 -82,-277 -55,-95 -128,-169 -200,-210 -72,-42 -144,-52 -199,-20 -51,29 -79,89 -83,164l0 0c0,6 0,13 0,19 0,6 0,12 0,19l0 288c0,6 0,12 0,18 0,83 27,183 82,278 55,95 127,168 199,210 73,42 145,52 200,20 55,-32 83,-100 83,-183l0 -3 0 -320z"/>
   <line class="fil2 str11" x1="4042" y1="4988" x2="4183" y2= "4906" />
   <line class="fil2 str11" x1="3644" y1="3972" x2="3785" y2= "3890" />
   <path class="fil1 str12" d="M1480 2479c-65,38 -131,47 -181,18 -49,-29 -74,-90 -74,-165 0,-75 24,-164 74,-250 50,-86 115,-152 180,-190l0 0 509 -294 0 0c65,-38 130,-46 180,-18 50,29 75,90 75,165 0,75 -25,165 -75,251 -49,86 -114,152 -179,189l-1 1 0 0 -508 293 0 0z"/>
   <polygon class="fil1" points="1299,2082 2168,1580 2550,1801 1681,2717 1299,2497 "/>
   <line class="fil2 str13" x1="1299" y1="2082" x2="1681" y2= "2302" />
   <line class="fil2 str13" x1="1225" y1="2332" x2="1607" y2= "2553" />
   <line class="fil2 str13" x1="1299" y1="2497" x2="1681" y2= "2717" />
   <line class="fil2 str13" x1="2145" y1="1570" x2="2550" y2= "1801" />
   <path class="fil1 str14" d="M1798 2663c-65,38 -131,46 -180,18 -50,-29 -75,-90 -75,-165 0,-75 25,-165 74,-251 50,-86 115,-152 180,-189l0 0 509 -294 0 0c65,-38 130,-47 180,-18 50,29 75,90 75,165 0,75 -25,165 -74,250 -50,86 -115,153 -180,190l-1 0 0 0 -507 294 -1 0z"/>
   <path class="fil0 str15" d="M1862 2700c-66,37 -131,46 -181,17 -50,-28 -74,-89 -74,-164 0,-76 24,-165 74,-251 50,-86 115,-152 180,-190l0 0 508 -293 1 0c65,-38 130,-47 180,-18 50,29 75,89 75,165 0,75 -25,164 -75,250 -49,86 -114,152 -179,190l-1 0 0 0 -508 293 0 1z"/>
   <line class="fil2 str16" x1="1246" y1="2202" x2="1564" y2= "2386" />
   <line class="fil2 str16" x1="1377" y1="1975" x2="1695" y2= "2159" />
   <line class="fil2 str16" x1="1479" y1="1892" x2="1797" y2= "2076" />
   <line class="fil2 str16" x1="1733" y1="1745" x2="2051" y2= "1929" />
   <line class="fil2 str16" x1="2084" y1="1564" x2="2404" y2= "1748" />
   <line class="fil2 str17" x1="2013" y1="1585" x2="2333" y2= "1768" />
   <line class="fil2 str18" x1="1941" y1="1619" x2="2261" y2= "1803" />
   <line class="fil2 str19" x1="1858" y1="1660" x2="2178" y2= "1843" />
   <line class="fil2 str20" x1="1803" y1="1704" x2="2122" y2= "1888" />
   <line class="fil2 str21" x1="1652" y1="1790" x2="1967" y2= "1972" />
   <line class="fil2 str22" x1="1564" y1="1842" x2="1883" y2= "2026" />
   <polygon class="fil1 str23" points="2563,2866 1831,2443 2563,2020 3296,2443 "/>
   <polygon class="fil1 str24" points="2563,2655 1831,2232 2563,1809 3296,2232 "/>
   <polygon class="fil1 str24" points="2563,2655 1831,2232 1831,2443 2563,2866 "/>
   <polygon class="fil1 str24" points="2563,2866 2563,2655 3296,2232 3296,2443 "/>
   <polygon class="fil1 str25" points="2563,2534 2068,2248 2563,1962 3059,2248 "/>
   <polygon class="fil1 str26" points="2563,2391 2068,2105 2563,1818 3059,2105 "/>
   <polygon class="fil1 str26" points="2563,2391 2068,2105 2068,2248 2563,2534 "/>
   <polygon class="fil1 str26" points="2563,2534 2563,2391 3059,2105 3059,2248 "/>
   <g>
    <path class="fil1" d="M1577 11l0 0 0 0zm-220 390l36 20 -36 -20zm0 0c-31,-18 -47,-56 -47,-103 0,-47 15,-103 46,-156 31,-54 72,-95 112,-118 39,-23 78,-29 109,-13 14,7 29,17 43,25 -44,-20 -72,-17 -116,9 -40,23 -81,64 -112,118 -31,53 -46,109 -46,156 0,47 10,74 47,102 -12,-7 -24,-13 -36,-20z"/>
    <path id="1" class="fil2 str27" d="M1577 11l0 0m-220 390l36 20m-36 -20c-31,-18 -47,-56 -47,-103 0,-47 15,-103 46,-156 31,-54 72,-95 112,-118 39,-23 78,-29 109,-13 14,7 29,17 43,25 -44,-20 -72,-17 -116,9 -40,23 -81,64 -112,118 -31,53 -46,109 -46,156 0,47 10,74 47,102 -12,-7 -24,-13 -36,-20z"/>
   </g>
   <path class="fil1 str28" d="M1505 410c-41,24 -81,29 -112,11 -31,-17 -47,-55 -47,-102 0,-47 15,-103 46,-156 31,-54 72,-95 112,-118 41,-24 81,-29 112,-11 32,17 47,55 47,102 0,47 -15,103 -46,156 -31,54 -72,95 -112,118z"/>
   <line class="fil2 str29" x1="1332" y1="379" x2="1371" y2= "401" />
   <line class="fil2 str29" x1="1312" y1="326" x2="1348" y2= "346" />
   <line class="fil2 str29" x1="1310" y1="283" x2="1346" y2= "304" />
   <line class="fil2 str29" x1="1316" y1="245" x2="1352" y2= "265" />
   <line class="fil2 str29" x1="1326" y1="209" x2="1362" y2= "230" />
   <line class="fil2 str29" x1="1339" y1="175" x2="1375" y2= "196" />
   <line class="fil2 str29" x1="1356" y1="143" x2="1392" y2= "164" />
   <line class="fil2 str29" x1="1375" y1="112" x2="1411" y2= "133" />
   <line class="fil2 str29" x1="1398" y1="84" x2="1433" y2= "104" />
   <line class="fil2 str29" x1="1423" y1="57" x2="1459" y2= "78" />
   <line class="fil2 str29" x1="1454" y1="33" x2="1490" y2= "54" />
   <line class="fil2 str29" x1="1491" y1="13" x2="1526" y2= "33" />
   <line class="fil2 str29" x1="1544" y1="2" x2="1580" y2= "23" />
   <path class="fil1 str30" d="M2598 3125c-66,37 -131,46 -181,17 -49,-28 -74,-89 -74,-164 0,-76 24,-165 74,-251 50,-86 115,-152 180,-190l0 0 508 -293 1 -1c65,-37 130,-46 180,-17 50,29 75,89 75,165 0,75 -25,164 -75,250 -49,86 -114,152 -179,190l-1 0 0 0 -508 293 0 1z"/>
   <polygon class="fil1" points="2417,2727 3286,2226 3668,2446 2799,3363 2417,3142 "/>
   <line class="fil2 str31" x1="2417" y1="2727" x2="2799" y2= "2948" />
   <line class="fil2 str31" x1="2343" y1="2978" x2="2724" y2= "3198" />
   <line class="fil2 str31" x1="2417" y1="3142" x2="2799" y2= "3363" />
   <line class="fil2 str31" x1="3263" y1="2215" x2="3668" y2= "2446" />
   <path class="fil1 str32" d="M2916 3308c-65,38 -131,47 -180,18 -50,-29 -75,-90 -75,-165 0,-75 25,-164 74,-250 50,-86 115,-152 180,-190l0 0 509 -294 0 0c65,-37 130,-46 180,-18 50,29 75,90 75,165 0,76 -25,165 -74,251 -50,86 -115,152 -180,189l-1 1 0 0 -508 293 0 0z"/>
   <path class="fil1 str33" d="M2979 3345c-65,38 -130,47 -180,18 -50,-29 -75,-90 -75,-165 0,-75 25,-165 75,-250 49,-86 114,-153 179,-190l0 0 509 -294 1 0c65,-38 130,-47 180,-18 50,29 75,90 75,165 0,75 -25,165 -75,251 -49,86 -114,152 -180,189l0 0 0 1 -508 293 -1 0z"/>
   <line class="fil2 str34" x1="2364" y1="2848" x2="2682" y2= "3031" />
   <line class="fil2 str34" x1="2495" y1="2621" x2="2813" y2= "2804" />
   <line class="fil2 str34" x1="2597" y1="2537" x2="2915" y2= "2721" />
   <line class="fil2 str34" x1="2851" y1="2391" x2="3169" y2= "2574" />
   <line class="fil2 str34" x1="3202" y1="2210" x2="3521" y2= "2393" />
   <line class="fil2 str35" x1="3131" y1="2230" x2="3450" y2= "2414" />
   <line class="fil2 str36" x1="3059" y1="2265" x2="3379" y2= "2448" />
   <line class="fil2 str37" x1="2976" y1="2305" x2="3296" y2= "2489" />
   <line class="fil2 str38" x1="2921" y1="2350" x2="3240" y2= "2533" />
   <line class="fil2 str39" x1="2769" y1="2436" x2="3085" y2= "2617" />
   <line class="fil2 str40" x1="2682" y1="2488" x2="3001" y2= "2671" />
   <g>
    <path class="fil1" d="M2574 1301l0 0 0 0zm-231 411l37 21 -37 -21zm0 0c-33,-19 -49,-59 -49,-109 0,-49 16,-107 48,-164 33,-56 75,-100 118,-124 41,-24 82,-30 114,-14 15,7 32,18 46,27 -47,-21 -76,-18 -122,9 -43,24 -85,68 -118,124 -32,56 -49,115 -49,164 0,50 11,79 49,108 -12,-7 -25,-14 -37,-21z"/>
    <path id="1" class="fil2 str41" d="M2574 1301l0 0m-231 411l37 21m-37 -21c-33,-19 -49,-59 -49,-109 0,-49 16,-107 48,-164 33,-56 75,-100 118,-124 41,-24 82,-30 114,-14 15,7 32,18 46,27 -47,-21 -76,-18 -122,9 -43,24 -85,68 -118,124 -32,56 -49,115 -49,164 0,50 11,79 49,108 -12,-7 -25,-14 -37,-21z"/>
   </g>
   <path class="fil1 str42" d="M2499 1722c-43,24 -86,30 -119,11 -32,-18 -49,-58 -49,-108 0,-49 17,-108 49,-164 33,-56 75,-100 118,-124 43,-25 86,-31 118,-12 33,19 49,59 49,108 0,50 -16,108 -49,164 -32,57 -75,100 -117,125z"/>
   <line class="fil2 str43" x1="2317" y1="1689" x2="2358" y2= "1712" />
   <line class="fil2 str43" x1="2296" y1="1632" x2="2333" y2= "1654" />
   <line class="fil2 str43" x1="2294" y1="1588" x2="2332" y2= "1610" />
   <line class="fil2 str43" x1="2300" y1="1547" x2="2338" y2= "1569" />
   <line class="fil2 str43" x1="2310" y1="1510" x2="2348" y2= "1531" />
   <line class="fil2 str43" x1="2324" y1="1474" x2="2362" y2= "1496" />
   <line class="fil2 str43" x1="2342" y1="1440" x2="2380" y2= "1462" />
   <line class="fil2 str43" x1="2362" y1="1408" x2="2400" y2= "1430" />
   <line class="fil2 str43" x1="2386" y1="1378" x2="2423" y2= "1400" />
   <line class="fil2 str43" x1="2413" y1="1350" x2="2451" y2= "1372" />
   <line class="fil2 str43" x1="2445" y1="1325" x2="2483" y2= "1346" />
   <line class="fil2 str43" x1="2484" y1="1303" x2="2521" y2= "1325" />
   <line class="fil2 str43" x1="2540" y1="1292" x2="2578" y2= "1314" />
   <path class="fil1 str44" d="M2766 2085c0,65 -91,118 -204,118 -113,0 -204,-53 -204,-118l0 -507c0,-65 91,-118 204,-118 113,0 204,53 204,118l0 507z"/>
   <g>
    <path class="fil1" d="M2562 1460c113,0 204,53 204,118 0,66 -91,119 -204,119 -113,0 -204,-53 -204,-119 0,-65 91,-118 204,-118z"/>
    <path id="1" class="fil3" d="M2779 1578l-25 0 0 0 0 -5 -1 -5 -1 -5 -1 -5 -2 -5 -2 -4 -3 -5 -3 -5 -4 -5 -4 -4 -5 -5 -4 -4 -6 -4 -5 -4 -6 -4 -7 -4 -6 -4 -7 -3 -8 -4 -7 -3 -8 -3 -8 -2 -9 -3 -8 -2 -9 -2 -9 -2 -10 -2 -9 -1 -10 -1 -10 -1 -10 0 -10 0 0 -24 11 0 11 0 10 1 11 1 10 2 10 1 10 2 10 2 9 3 9 3 9 3 9 3 8 3 8 4 8 4 8 4 7 4 7 5 6 5 6 5 6 5 6 6 5 5 4 6 4 6 4 6 3 7 3 6 2 7 1 7 1 7 1 7 0 0zm-217 131l0 -24 0 0 10 0 10 -1 10 -1 10 -1 9 -1 10 -1 9 -2 9 -2 8 -3 9 -2 8 -3 8 -3 7 -3 8 -3 7 -4 6 -3 7 -4 6 -4 5 -4 6 -5 4 -4 5 -4 4 -5 4 -5 3 -4 3 -5 2 -5 2 -5 1 -5 1 -5 1 -5 0 -5 25 0 -1 7 -1 7 -1 7 -2 7 -3 7 -3 6 -4 6 -4 6 -4 6 -5 6 -6 5 -6 6 -6 5 -6 4 -7 5 -7 4 -8 5 -8 3 -8 4 -8 4 -9 3 -9 3 -9 3 -9 2 -10 2 -10 2 -10 2 -10 1 -11 1 -10 1 -11 1 -11 0 0 0zm-216 -131l24 0 0 0 0 5 1 5 1 5 1 5 2 5 3 5 2 5 4 4 3 5 4 5 5 4 5 4 5 5 5 4 6 4 7 4 6 3 7 4 8 3 7 3 8 3 8 3 9 2 8 3 9 2 9 2 10 1 9 1 10 1 10 1 10 1 10 0 0 24 -11 0 -11 -1 -10 -1 -11 -1 -10 -1 -10 -2 -10 -2 -9 -2 -10 -2 -9 -3 -9 -3 -9 -3 -8 -4 -8 -4 -8 -3 -8 -5 -7 -4 -7 -5 -6 -4 -6 -5 -6 -6 -5 -5 -5 -6 -5 -6 -4 -6 -4 -6 -3 -6 -3 -7 -2 -7 -1 -7 -1 -7 0 -7 0 0zm216 -130l0 24 0 0 -10 0 -10 0 -10 1 -10 1 -9 1 -10 2 -9 2 -9 2 -8 2 -9 3 -8 2 -8 3 -7 3 -8 4 -7 3 -6 4 -7 4 -6 4 -5 4 -5 4 -5 4 -5 5 -4 4 -3 5 -4 5 -2 5 -3 4 -2 5 -1 5 -1 5 -1 5 0 5 -24 0 0 -7 1 -7 1 -7 2 -7 3 -6 3 -7 4 -6 4 -6 5 -6 5 -5 5 -6 6 -5 6 -5 6 -5 7 -5 7 -4 8 -4 8 -4 8 -4 8 -3 9 -3 9 -3 9 -3 10 -3 9 -2 10 -2 10 -1 10 -2 11 -1 10 -1 11 0 11 0 0 0z"/>
   </g>
   <polygon class="fil1 str45" points="607,874 607,583 1616,0 2624,1456 2372,1602 1489,364 "/>
   <polygon class="fil1 str46" points="607,874 607,583 796,692 796,983 "/>
   <polygon class="fil1 str46" points="796,692 607,583 1616,0 1805,110 "/>
   <polygon class="fil1 str46" points="1600,519 2372,1602 2561,1711 1679,474 "/>
   <polygon class="fil1 str46" points="796,983 796,692 1805,110 2814,1566 2561,1711 1679,474 "/>
   <g>
    <path class="fil1" d="M1836 135l0 0 0 0zm-220 390l36 21 -36 -21zm0 0c-31,-18 -47,-56 -47,-103 0,-46 16,-102 46,-156 31,-53 72,-94 112,-118 39,-22 78,-28 109,-13 14,7 30,17 43,25 -44,-19 -72,-16 -116,9 -40,24 -81,65 -112,118 -30,54 -46,109 -46,156 0,47 10,75 47,103 -12,-7 -24,-14 -36,-21z"/>
    <path id="1" class="fil2 str47" d="M1836 135l0 0m-220 390l36 21m-36 -21c-31,-18 -47,-56 -47,-103 0,-46 16,-102 46,-156 31,-53 72,-94 112,-118 39,-22 78,-28 109,-13 14,7 30,17 43,25 -44,-19 -72,-16 -116,9 -40,24 -81,65 -112,118 -30,54 -46,109 -46,156 0,47 10,75 47,103 -12,-7 -24,-14 -36,-21z"/>
   </g>
   <path class="fil1 str48" d="M1764 535c-41,23 -81,29 -112,11 -31,-18 -47,-56 -47,-103 0,-47 16,-102 46,-156 31,-53 72,-94 112,-118 41,-23 82,-29 113,-11 31,18 46,56 46,103 0,47 -15,102 -46,156 -31,53 -72,95 -112,118z"/>
   <line class="fil2 str49" x1="1592" y1="503" x2="1630" y2= "526" />
   <line class="fil2 str49" x1="1571" y1="450" x2="1607" y2= "471" />
   <line class="fil2 str49" x1="1570" y1="408" x2="1606" y2= "428" />
   <line class="fil2 str49" x1="1575" y1="369" x2="1611" y2= "390" />
   <line class="fil2 str49" x1="1585" y1="333" x2="1621" y2= "354" />
   <line class="fil2 str49" x1="1598" y1="299" x2="1634" y2= "320" />
   <line class="fil2 str49" x1="1615" y1="267" x2="1651" y2= "288" />
   <line class="fil2 str49" x1="1634" y1="237" x2="1670" y2= "258" />
   <line class="fil2 str49" x1="1657" y1="208" x2="1692" y2= "229" />
   <line class="fil2 str49" x1="1682" y1="182" x2="1719" y2= "202" />
   <line class="fil2 str49" x1="1713" y1="158" x2="1749" y2= "178" />
   <line class="fil2 str49" x1="1750" y1="137" x2="1785" y2= "158" />
   <line class="fil2 str49" x1="1804" y1="127" x2="1840" y2= "148" />
   <g>
    <path class="fil1" d="M2827 1447l0 1 0 -1zm-232 411l38 22 -38 -22zm0 0c-32,-19 -49,-59 -49,-108 0,-49 16,-108 49,-164 33,-57 75,-100 118,-125 41,-23 82,-30 114,-13 15,7 31,18 46,26 -47,-21 -76,-18 -122,9 -43,25 -86,68 -118,125 -33,56 -49,115 -49,164 0,49 11,78 49,108 -12,-8 -25,-15 -38,-22z"/>
    <path id="1" class="fil2 str50" d="M2827 1447l0 1m-232 410l38 22m-38 -22c-32,-19 -49,-59 -49,-108 0,-49 16,-108 49,-164 33,-57 75,-100 118,-125 41,-23 82,-30 114,-13 15,7 31,18 46,26 -47,-21 -76,-18 -122,9 -43,25 -86,68 -118,125 -33,56 -49,115 -49,164 0,49 11,78 49,108 -12,-8 -25,-15 -38,-22z"/>
   </g>
   <path class="fil1 str51" d="M2751 1868c-42,25 -85,31 -118,12 -32,-19 -49,-59 -49,-108 0,-49 16,-108 49,-164 32,-57 75,-100 118,-125 42,-24 85,-30 118,-11 33,18 49,58 49,108 0,49 -16,108 -49,164 -32,56 -75,100 -118,124z"/>
   <line class="fil2 str52" x1="2570" y1="1835" x2="2610" y2= "1859" />
   <line class="fil2 str52" x1="2548" y1="1779" x2="2586" y2= "1801" />
   <line class="fil2 str52" x1="2547" y1="1734" x2="2585" y2= "1756" />
   <line class="fil2 str52" x1="2552" y1="1694" x2="2590" y2= "1716" />
   <line class="fil2 str52" x1="2563" y1="1656" x2="2601" y2= "1678" />
   <line class="fil2 str52" x1="2577" y1="1620" x2="2615" y2= "1642" />
   <line class="fil2 str52" x1="2594" y1="1587" x2="2632" y2= "1609" />
   <line class="fil2 str52" x1="2615" y1="1555" x2="2653" y2= "1577" />
   <line class="fil2 str52" x1="2638" y1="1525" x2="2676" y2= "1546" />
   <line class="fil2 str52" x1="2666" y1="1496" x2="2704" y2= "1518" />
   <line class="fil2 str52" x1="2697" y1="1471" x2="2735" y2= "1493" />
   <line class="fil2 str52" x1="2736" y1="1450" x2="2774" y2= "1471" />
   <line class="fil2 str52" x1="2793" y1="1439" x2="2831" y2= "1461" />
   <g>
    <path class="fil1" d="M3088 2847l0 1 0 -1zm-232 411l38 22 -38 -22zm0 0c-32,-19 -49,-59 -49,-108 0,-49 17,-108 49,-164 33,-57 75,-100 118,-125 41,-23 82,-30 114,-13 15,7 32,18 46,26 -47,-21 -76,-18 -122,9 -43,25 -85,68 -118,125 -32,56 -49,115 -49,164 0,49 11,78 49,108 -12,-8 -25,-15 -38,-22z"/>
    <path id="1" class="fil2 str53" d="M3088 2847l0 1m-232 410l38 22m-38 -22c-32,-19 -49,-59 -49,-108 0,-49 17,-108 49,-164 33,-57 75,-100 118,-125 41,-23 82,-30 114,-13 15,7 32,18 46,26 -47,-21 -76,-18 -122,9 -43,25 -85,68 -118,125 -32,56 -49,115 -49,164 0,49 11,78 49,108 -12,-8 -25,-15 -38,-22z"/>
   </g>
   <path class="fil1 str54" d="M3013 3268c-43,25 -86,31 -119,12 -32,-19 -49,-59 -49,-108 0,-49 17,-108 49,-164 33,-57 75,-100 118,-125 43,-24 85,-30 118,-11 33,18 49,58 49,108 0,49 -16,108 -49,164 -32,56 -75,100 -117,124z"/>
   <line class="fil2 str55" x1="2831" y1="3235" x2="2871" y2= "3258" />
   <line class="fil2 str55" x1="2809" y1="3179" x2="2847" y2= "3201" />
   <line class="fil2 str55" x1="2808" y1="3134" x2="2846" y2= "3156" />
   <line class="fil2 str55" x1="2814" y1="3094" x2="2852" y2= "3116" />
   <line class="fil2 str55" x1="2824" y1="3056" x2="2862" y2= "3078" />
   <line class="fil2 str55" x1="2838" y1="3020" x2="2876" y2= "3042" />
   <line class="fil2 str55" x1="2856" y1="2987" x2="2894" y2= "3009" />
   <line class="fil2 str55" x1="2876" y1="2955" x2="2914" y2= "2977" />
   <line class="fil2 str55" x1="2900" y1="2924" x2="2937" y2= "2946" />
   <line class="fil2 str55" x1="2927" y1="2896" x2="2965" y2= "2918" />
   <line class="fil2 str55" x1="2959" y1="2871" x2="2997" y2= "2893" />
   <line class="fil2 str55" x1="2997" y1="2850" x2="3035" y2= "2871" />
   <line class="fil2 str55" x1="3054" y1="2839" x2="3092" y2= "2861" />
   <g>
    <path class="fil1" d="M3576 2541l0 0 0 0zm-231 410l38 22 -38 -22zm0 0c-33,-19 -49,-58 -49,-108 0,-49 16,-108 49,-164 32,-56 75,-100 117,-124 41,-24 82,-30 114,-14 15,7 32,18 46,26 -46,-20 -75,-17 -122,9 -42,25 -85,69 -118,125 -32,56 -48,115 -48,164 0,50 11,79 49,108 -13,-7 -26,-14 -38,-22z"/>
    <path id="1" class="fil2 str56" d="M3576 2541l0 0m-231 410l38 22m-38 -22c-33,-19 -49,-58 -49,-108 0,-49 16,-108 49,-164 32,-56 75,-100 117,-124 41,-24 82,-30 114,-14 15,7 32,18 46,26 -46,-20 -75,-17 -122,9 -42,25 -85,69 -118,125 -32,56 -48,115 -48,164 0,50 11,79 49,108 -13,-7 -26,-14 -38,-22z"/>
   </g>
   <path class="fil1 str57" d="M3501 2962c-43,24 -86,30 -118,11 -33,-19 -49,-59 -49,-108 0,-49 16,-108 48,-164 33,-56 76,-100 118,-125 43,-24 86,-30 118,-11 33,19 49,59 49,108 0,49 -16,108 -48,164 -33,57 -75,100 -118,125z"/>
   <line class="fil2 str58" x1="3319" y1="2928" x2="3360" y2= "2952" />
   <line class="fil2 str58" x1="3298" y1="2872" x2="3336" y2= "2894" />
   <line class="fil2 str58" x1="3296" y1="2828" x2="3334" y2= "2849" />
   <line class="fil2 str58" x1="3302" y1="2787" x2="3340" y2= "2809" />
   <line class="fil2 str58" x1="3312" y1="2749" x2="3350" y2= "2771" />
   <line class="fil2 str58" x1="3327" y1="2714" x2="3365" y2= "2736" />
   <line class="fil2 str58" x1="3344" y1="2680" x2="3382" y2= "2702" />
   <line class="fil2 str58" x1="3364" y1="2648" x2="3402" y2= "2670" />
   <line class="fil2 str58" x1="3388" y1="2618" x2="3425" y2= "2639" />
   <line class="fil2 str58" x1="3415" y1="2590" x2="3453" y2= "2612" />
   <line class="fil2 str58" x1="3447" y1="2564" x2="3485" y2= "2586" />
   <line class="fil2 str58" x1="3486" y1="2543" x2="3523" y2= "2565" />
   <line class="fil2 str58" x1="3543" y1="2532" x2="3581" y2= "2554" />
   <polygon class="fil1 str59" points="600,870 600,569 796,682 796,983 "/>
   <polygon class="fil1 str60" points="90,505 0,453 200,107 600,569 500,627 212,293 "/>
   <polygon class="fil1 str61" points="286,617 196,565 396,218 796,680 696,738 408,404 "/>
   <polygon class="fil1 str61" points="196,565 396,218 200,107 0,453 "/>
   <polygon class="fil1 str61" points="500,627 368,474 408,404 696,738 "/>
   <polygon class="fil1 str61" points="682,1044 796,983 596,1489 196,1489 196,1373 518,1373 "/>
   <polygon class="fil1 str62" points="488,924 600,870 400,1376 0,1376 0,1260 322,1260 "/>
   <polygon class="fil1 str61" points="0,1376 0,1260 196,1373 196,1489 "/>
   <polygon class="fil1 str61" points="196,1373 0,1260 322,1260 518,1373 "/>
   <polygon class="fil1 str61" points="518,1373 322,1260 488,924 677,1041 "/>
   <polygon class="fil1 str61" points="682,1044 488,924 600,870 796,983 "/>
  </g>
 </g>
</svg>
