<?xml version="1.0" encoding="UTF-8"?>
<!DOCTYPE svg PUBLIC "-//W3C//DTD SVG 1.1//EN" "http://www.w3.org/Graphics/SVG/1.1/DTD/svg11.dtd">
<!-- Creator: CorelDRAW X7 -->
<svg xmlns="http://www.w3.org/2000/svg" xml:space="preserve" width="56.3032mm" height="109.135mm" version="1.1" style="shape-rendering:geometricPrecision; text-rendering:geometricPrecision; image-rendering:optimizeQuality; fill-rule:evenodd; clip-rule:evenodd"
viewBox="0 0 5630 10914"
 xmlns:xlink="http://www.w3.org/1999/xlink">
 <defs>
  <style type="text/css">
   <![CDATA[
    .fil2 {fill:none}
    .fil3 {fill:#61003F}
    .fil0 {fill:#FFF4F0}
    .fil1 {fill:#61003F;fill-rule:nonzero}
    .fil4 {fill:#FFF4F0;fill-rule:nonzero}
   ]]>
  </style>
 </defs>
 <g id="Layer_x0020_1">
  <metadata id="CorelCorpID_0Corel-Layer"/>
  <g id="_2595156324912">
   <polygon class="fil0" points="2676,7170 2676,5557 2875,5672 2875,7285 "/>
   <path class="fil1" d="M2658 7170l0 -1613c0,-10 8,-18 18,-18 4,0 7,1 10,3l198 114c6,4 9,10 9,16l1 0 0 1613c0,10 -9,19 -19,19 -3,0 -7,-2 -10,-4l-198 -114c-6,-4 -9,-10 -9,-16l0 0zm36 -1582l0 1572 163 94 0 -1572 -163 -94z"/>
   <line class="fil2" x1="2676" y1="5787" x2="2875" y2= "5902" />
   <path class="fil1" d="M2667 5803c-9,-5 -12,-16 -7,-25 5,-8 16,-11 25,-6l199 115c9,5 12,16 7,24 -5,9 -16,12 -25,7l-199 -115z"/>
   <line class="fil2" x1="2676" y1="6018" x2="2875" y2= "6133" />
   <path class="fil1" d="M2667 6033c-9,-5 -12,-16 -7,-24 5,-9 16,-12 25,-7l199 115c9,5 12,16 7,25 -5,9 -16,12 -25,7l-199 -116z"/>
   <line class="fil2" x1="2676" y1="6248" x2="2875" y2= "6363" />
   <path class="fil1" d="M2667 6264c-9,-5 -12,-16 -7,-25 5,-8 16,-11 25,-6l199 115c9,5 12,16 7,24 -5,9 -16,12 -25,7l-199 -115z"/>
   <line class="fil2" x1="2676" y1="6479" x2="2875" y2= "6594" />
   <path class="fil1" d="M2667 6494c-9,-5 -12,-16 -7,-24 5,-9 16,-12 25,-7l199 115c9,5 12,16 7,25 -5,9 -16,11 -25,7l-199 -116z"/>
   <line class="fil2" x1="2676" y1="6709" x2="2875" y2= "6824" />
   <path class="fil1" d="M2667 6725c-9,-5 -12,-16 -7,-25 5,-8 16,-11 25,-6l199 115c9,5 12,16 7,25 -5,8 -16,11 -25,6l-199 -115z"/>
   <line class="fil2" x1="2676" y1="6940" x2="2875" y2= "7055" />
   <path class="fil1" d="M2667 6955c-9,-5 -12,-16 -7,-24 5,-9 16,-12 25,-7l199 115c9,5 12,16 7,25 -5,9 -16,12 -25,7l-199 -116z"/>
   <path class="fil0" d="M871 5707c-21,-12 -32,-38 -32,-70 0,-32 11,-70 32,-106 21,-37 48,-65 76,-81 28,-16 55,-19 76,-7l594 342c0,1 1,1 2,2 21,12 32,38 32,70 0,32 -11,69 -32,106 -21,36 -48,64 -76,80 -28,16 -55,20 -76,8l-596 -344z"/>
   <g>
    <path class="fil1" d="M862 5723c-14,-8 -24,-20 -31,-35 -7,-15 -10,-32 -10,-51l0 0c0,-18 3,-38 9,-58l0 0c6,-19 14,-38 25,-57 11,-19 24,-36 38,-51 14,-15 29,-27 45,-36 16,-10 33,-15 49,-17l0 0c17,-2 32,1 46,9l592 343 3 1 1 0c13,8 23,20 30,35 7,15 10,32 10,51 0,34 -12,76 -34,115l0 0 0 0c-11,19 -24,36 -38,50 -14,16 -29,28 -45,37 -16,9 -33,15 -49,17 -16,1 -32,-2 -46,-10l0 0 -595 -343 0 0 0 0zm2 -50c4,8 9,14 16,18l0 0 594 344 2 0c7,4 15,6 24,5l0 0c10,-1 22,-5 34,-12 12,-7 25,-18 37,-30 12,-13 23,-28 33,-44l0 0c19,-34 29,-68 29,-97 0,-14 -3,-26 -7,-36 -4,-8 -9,-15 -16,-19l-2 -1 0 0 0 0 -594 -343c-6,-4 -15,-5 -23,-4l-1 0c-10,1 -22,5 -34,12 -12,7 -25,17 -37,30 -12,12 -23,27 -33,44 -9,16 -16,33 -21,49l0 1c-5,17 -8,33 -8,47l0 0c0,14 3,26 7,36zm123 -255c10,-1 18,7 19,16l-19 -16z"/>
   </g>
   <path class="fil0" d="M1543 6043c-28,16 -55,20 -76,8 -22,-12 -32,-38 -32,-70 0,-32 10,-70 31,-106 21,-37 49,-65 77,-81 27,-16 55,-20 76,-7 21,12 32,38 32,70 0,32 -11,69 -32,106 -21,36 -48,64 -76,80z"/>
   <g>
    <path class="fil1" d="M1552 6059c-16,9 -33,15 -49,17 -16,1 -32,-2 -46,-10 -13,-7 -24,-20 -30,-35 -7,-14 -10,-31 -10,-50l0 0c0,-35 11,-76 34,-115l0 0 0 0c11,-19 24,-37 37,-51 15,-15 30,-27 46,-36 16,-10 33,-16 48,-17l1 0c16,-2 32,1 45,9 14,8 24,20 31,35l0 1c7,14 10,31 10,50 0,34 -12,76 -34,115l0 0 0 0c-11,19 -24,36 -38,50 -14,16 -29,28 -45,37zm-52 -19c10,-1 22,-5 34,-12 12,-7 25,-18 37,-30 12,-13 23,-28 33,-44l0 0c19,-34 29,-68 29,-97 0,-14 -2,-26 -7,-35l0 -1c-4,-8 -9,-15 -16,-19 -7,-4 -15,-5 -24,-4l0 0c-11,1 -23,5 -34,12 -13,7 -26,17 -38,30 -11,12 -22,27 -32,44l0 0c-19,33 -29,68 -29,97l0 0c0,14 2,26 7,36 3,8 9,14 16,18 7,4 15,6 24,5l0 0zm83 -278c10,-1 18,6 19,16l-19 -16z"/>
   </g>
   <g>
    <path class="fil0" d="M2396 4976l0 0 0 0zm-1219 2161l199 115 -199 -115zm0 0c-172,-99 -258,-309 -258,-569 -1,-260 85,-568 256,-865 172,-296 396,-525 621,-654 215,-125 431,-158 600,-73 78,39 166,95 242,140 -246,-109 -399,-93 -643,48 -224,129 -449,358 -620,654 -171,297 -257,606 -257,865 0,261 57,413 258,569 -66,-39 -133,-76 -199,-115z"/>
   </g>
   <g>
    <path class="fil1" d="M2404 4959l1 1c52,26 110,61 165,94 26,16 52,31 77,46 9,5 12,16 7,25 -5,8 -15,11 -23,7l0 0c-120,-53 -217,-76 -314,-68 -96,8 -193,46 -313,115 -113,66 -226,156 -332,268 -102,108 -198,236 -281,380 -84,145 -147,292 -189,434 -44,148 -66,292 -66,422 0,128 14,229 52,317 38,87 101,162 199,238 8,6 10,18 4,25 -6,8 -17,10 -24,5l-4 -3 -172 -99 -23 -13 -1 -1c-88,-50 -153,-129 -198,-226 -46,-101 -68,-223 -68,-358 -1,-134 22,-281 67,-432 43,-145 107,-295 192,-442 84,-147 182,-277 286,-387 109,-114 225,-207 341,-274 112,-65 224,-105 330,-118 103,-13 200,1 287,44zm-1402 1952c41,91 102,163 183,210l1 0 60 35c-39,-45 -69,-91 -91,-142 -40,-92 -55,-198 -55,-331 0,-134 23,-281 67,-432 44,-145 108,-295 192,-442 85,-146 183,-277 287,-387 108,-114 224,-207 340,-274 125,-72 226,-112 329,-120 53,-4 106,0 163,13 -31,-18 -61,-35 -90,-49 -79,-40 -170,-53 -267,-41 -101,12 -209,51 -316,113 -113,65 -226,156 -332,268 -103,108 -199,236 -282,380 -83,144 -146,291 -189,434 -44,148 -65,291 -65,422 0,129 21,247 65,343zm1402 -1952l1 1 0 0 -1 -1z"/>
   </g>
   <path class="fil0" d="M1998 7191c-225,130 -450,161 -622,61 -172,-99 -258,-309 -258,-569 0,-259 86,-568 257,-865 171,-296 396,-525 620,-654 225,-130 450,-161 622,-61 172,99 258,309 258,569 0,259 -85,568 -256,864 -172,297 -396,526 -621,655z"/>
   <path class="fil1" d="M2007 7207c-116,67 -234,108 -344,119 -107,11 -208,-7 -296,-58 -88,-51 -154,-129 -198,-227 -46,-101 -69,-223 -69,-358 0,-134 23,-281 67,-432 44,-145 108,-295 192,-442 85,-146 183,-277 287,-387 108,-114 224,-207 340,-274 117,-67 234,-108 344,-119 108,-11 209,7 296,58l0 0 0 0c88,51 154,129 199,227 46,101 68,223 68,358 0,134 -22,280 -67,432 -43,145 -107,295 -192,441 -84,147 -182,278 -286,388 -109,114 -225,207 -341,274zm-347 83c105,-10 217,-50 329,-114 113,-66 226,-156 332,-268 103,-108 199,-236 282,-380 83,-145 146,-292 189,-435 43,-148 65,-291 65,-421 0,-130 -21,-247 -65,-343 -42,-91 -103,-164 -184,-211l0 0c-81,-47 -174,-63 -274,-53 -105,10 -217,50 -330,114 -113,66 -226,156 -332,268 -102,108 -198,236 -281,380 -84,145 -147,292 -189,434 -44,148 -66,292 -66,422 0,130 22,247 66,343 41,91 102,164 183,211 81,46 175,63 275,53z"/>
   <line class="fil2" x1="1030" y1="7010" x2="1243" y2= "7132" />
   <path class="fil1" d="M1021 7025c-8,-5 -11,-16 -6,-25 5,-8 16,-11 24,-6l213 123c8,5 11,16 6,24 -5,9 -16,12 -24,7l-213 -123z"/>
   <line class="fil2" x1="929" y1="6721" x2="1129" y2= "6836" />
   <path class="fil1" d="M920 6736c-8,-5 -11,-16 -6,-24 5,-9 16,-12 24,-7l200 115c9,5 12,16 7,25 -5,9 -16,12 -25,7l-200 -116z"/>
   <line class="fil2" x1="921" y1="6486" x2="1121" y2= "6601" />
   <path class="fil1" d="M912 6501c-8,-5 -11,-16 -6,-24 5,-9 16,-12 24,-7l200 115c8,5 11,16 6,25 -4,8 -15,11 -24,6l-200 -115z"/>
   <line class="fil2" x1="952" y1="6273" x2="1151" y2= "6388" />
   <path class="fil1" d="M942 6288c-8,-5 -11,-16 -6,-25 5,-8 16,-11 25,-6l199 115c9,5 12,16 7,25 -5,8 -16,11 -25,6l-200 -115z"/>
   <line class="fil2" x1="1007" y1="6074" x2="1206" y2= "6189" />
   <path class="fil1" d="M997 6089c-8,-5 -11,-16 -6,-24 5,-9 16,-12 25,-7l199 115c9,5 12,17 7,25 -5,9 -16,12 -25,7l-200 -116z"/>
   <line class="fil2" x1="1081" y1="5886" x2="1281" y2= "6002" />
   <path class="fil1" d="M1072 5902c-9,-5 -12,-16 -7,-25 5,-8 16,-11 25,-6l200 115c8,5 11,16 6,24 -5,9 -16,12 -24,7l-200 -115z"/>
   <line class="fil2" x1="1172" y1="5708" x2="1372" y2= "5824" />
   <path class="fil1" d="M1163 5724c-8,-5 -11,-16 -6,-25 5,-8 16,-11 24,-6l200 115c9,5 11,16 6,25 -5,8 -16,11 -24,6l-200 -115z"/>
   <line class="fil2" x1="1280" y1="5540" x2="1479" y2= "5655" />
   <path class="fil1" d="M1270 5556c-8,-5 -11,-17 -6,-25 5,-9 16,-12 25,-7l199 116c9,5 12,16 7,24 -5,9 -16,12 -25,7l-200 -115z"/>
   <line class="fil2" x1="1404" y1="5381" x2="1600" y2= "5494" />
   <path class="fil1" d="M1395 5397c-9,-5 -12,-16 -7,-25 5,-8 16,-11 25,-6l196 113c8,5 11,16 6,24 -5,9 -16,12 -24,7l-196 -113z"/>
   <line class="fil2" x1="1547" y1="5233" x2="1747" y2= "5349" />
   <path class="fil1" d="M1538 5249c-9,-5 -12,-16 -7,-25 5,-8 16,-11 25,-6l200 115c8,5 11,16 6,25 -5,8 -16,11 -24,6l-200 -115z"/>
   <line class="fil2" x1="1715" y1="5100" x2="1914" y2= "5215" />
   <path class="fil1" d="M1706 5115c-9,-5 -12,-16 -7,-24 5,-9 16,-12 25,-7l199 115c9,5 12,16 7,25 -5,8 -16,11 -25,6l-199 -115z"/>
   <line class="fil2" x1="1919" y1="4987" x2="2116" y2= "5101" />
   <path class="fil1" d="M1910 5003c-8,-5 -11,-16 -6,-25 5,-8 16,-11 24,-6l197 113c9,5 12,16 7,25 -5,9 -16,12 -25,7l-197 -114z"/>
   <line class="fil2" x1="2218" y1="4929" x2="2418" y2= "5045" />
   <path class="fil1" d="M2209 4945c-8,-5 -11,-16 -6,-25 5,-8 16,-11 24,-6l200 115c9,5 11,16 6,25 -5,8 -16,11 -24,6l-200 -115z"/>
   <polygon class="fil0" points="921,8099 921,6486 1121,6601 1121,8214 "/>
   <g>
    <path class="fil1" d="M903 8099l0 -1613c0,-10 8,-18 18,-18 4,0 8,1 11,3l198 114c6,4 9,10 9,16l0 0 0 1613c0,10 -8,18 -18,18 -4,0 -7,-1 -10,-3l-199 -114c-6,-4 -9,-10 -9,-16l0 0zm36 -1582l0 1572 164 94 0 -1572 -164 -94zm172 1712c-5,-3 -8,-8 -8,-15l8 15z"/>
   </g>
   <line class="fil2" x1="921" y1="6716" x2="1121" y2= "6831" />
   <path class="fil1" d="M912 6732c-8,-5 -11,-16 -6,-25 5,-8 16,-11 24,-6l200 115c8,5 11,16 6,24 -4,9 -15,12 -24,7l-200 -115z"/>
   <line class="fil2" x1="921" y1="6947" x2="1121" y2= "7062" />
   <path class="fil1" d="M912 6962c-8,-5 -11,-16 -6,-24 5,-9 16,-12 24,-7l200 115c8,5 11,16 6,25 -4,8 -15,11 -24,6l-200 -115z"/>
   <line class="fil2" x1="921" y1="7177" x2="1121" y2= "7292" />
   <path class="fil1" d="M912 7193c-8,-5 -11,-16 -6,-25 5,-8 16,-11 24,-6l200 115c8,5 11,16 6,24 -4,9 -15,12 -24,7l-200 -115z"/>
   <line class="fil2" x1="921" y1="7408" x2="1121" y2= "7523" />
   <path class="fil1" d="M912 7423c-8,-5 -11,-16 -6,-24 5,-9 16,-12 24,-7l200 115c9,5 11,16 6,25 -5,9 -16,11 -24,6l-200 -115z"/>
   <line class="fil2" x1="921" y1="7638" x2="1121" y2= "7753" />
   <path class="fil1" d="M912 7654c-8,-5 -11,-16 -6,-25 5,-8 16,-11 24,-6l200 115c8,5 11,16 6,24 -4,9 -15,12 -24,7l-200 -115z"/>
   <line class="fil2" x1="921" y1="7869" x2="1121" y2= "7984" />
   <path class="fil1" d="M912 7884c-8,-5 -11,-16 -6,-24 5,-9 16,-12 24,-7l200 115c8,5 11,16 6,25 -4,8 -15,11 -24,6l-200 -115z"/>
   <path class="fil0" d="M2005 7057c-196,113 -391,139 -540,53 -149,-86 -224,-269 -224,-494 0,-225 74,-493 223,-750 148,-257 343,-455 538,-568 195,-113 390,-139 539,-53 150,86 224,269 224,494 0,225 -74,493 -222,750 -149,257 -344,455 -538,568z"/>
   <path class="fil1" d="M2014 7072c-102,59 -204,95 -300,104 -94,10 -182,-6 -258,-50l0 0 0 0c-77,-45 -135,-113 -173,-199 -40,-87 -60,-194 -60,-311 0,-116 19,-244 58,-375 38,-126 93,-256 167,-384l0 0 0 0c74,-127 158,-241 249,-336 94,-100 195,-180 296,-239 101,-58 203,-94 299,-103 94,-10 182,6 258,50 77,45 135,113 174,198 39,88 59,195 59,312 0,116 -19,244 -58,375 -38,126 -93,256 -167,384l0 0 0 0c-73,127 -158,241 -249,336 -94,100 -195,180 -295,238zm-304 69c91,-9 188,-44 286,-100 97,-56 195,-135 287,-232 89,-93 172,-204 244,-329l0 0c72,-125 127,-252 163,-376 38,-128 57,-252 57,-365 0,-112 -19,-213 -56,-297 -36,-79 -89,-141 -158,-181 -70,-41 -151,-55 -237,-47 -91,9 -188,44 -285,100 -98,56 -196,135 -288,232 -88,93 -172,204 -244,329l0 0c-72,125 -126,252 -163,376 -38,128 -57,252 -57,365 0,112 19,213 57,297 35,78 88,141 158,181l0 0c70,41 150,55 236,47z"/>
   <path class="fil0" d="M1927 6313c-21,-13 -32,-38 -32,-70 0,-32 11,-70 32,-107 21,-36 48,-64 76,-80 28,-16 55,-20 76,-8l594 343c0,0 1,1 2,1 21,12 32,38 32,70 0,32 -11,70 -32,106 -21,37 -48,65 -76,81 -28,16 -55,20 -77,7l-595 -343z"/>
   <g>
    <path class="fil1" d="M1918 6328c-14,-8 -24,-20 -31,-35 -7,-14 -10,-32 -10,-50l0 0c0,-35 11,-76 34,-116 11,-19 24,-36 38,-50 14,-15 29,-28 45,-37 16,-9 33,-15 49,-16 16,-2 32,1 45,9l594 342 0 0 1 1 1 1 0 0c14,8 24,20 31,35 6,14 10,31 10,50l0 0c0,18 -3,38 -9,58 -6,19 -14,38 -25,57l-1 1c-11,19 -23,36 -37,50 -14,15 -29,28 -45,36 -16,10 -33,16 -49,17 -16,2 -32,-1 -46,-9l0 -1 -595 -343 0 0 0 0zm2 -50c4,8 9,15 16,19l0 0 594 343 2 1c6,4 15,5 24,4l0 0c10,-1 22,-5 34,-12 12,-7 25,-17 37,-30 12,-12 23,-26 32,-42l1 -2c9,-16 16,-33 21,-49 5,-17 8,-33 8,-48l0 0c0,-14 -3,-26 -7,-35 -4,-9 -9,-15 -16,-19l0 0 -1 -1 -1 0 -594 -343c-7,-4 -15,-5 -24,-5l0 0c-11,1 -22,6 -34,12 -13,8 -25,18 -37,31 -12,12 -23,27 -33,43 -19,34 -29,69 -29,98l0 0c0,13 2,25 7,35zm770 300c-5,8 -16,11 -24,6l24 -6z"/>
   </g>
   <path class="fil0" d="M2599 6649c-28,16 -55,20 -77,7 -21,-12 -31,-38 -31,-70 0,-31 10,-69 31,-106 21,-36 49,-64 77,-80 27,-16 55,-20 76,-8 21,12 32,38 32,70 0,32 -11,70 -32,106 -21,37 -48,65 -76,81z"/>
   <path class="fil1" d="M2608 6664c-16,10 -33,16 -49,17 -16,2 -32,-1 -46,-9 -13,-8 -24,-20 -30,-35l-1 -1c-6,-14 -9,-31 -9,-50 0,-34 11,-75 34,-115l0 0 0 0c11,-19 24,-36 37,-50 14,-15 30,-28 46,-37 16,-9 32,-15 48,-17 17,-1 32,2 46,10 14,8 24,20 31,35 6,14 10,31 10,50l0 0c0,35 -12,76 -34,115 -11,20 -24,37 -38,51 -14,15 -29,28 -45,36zm-52 -19c10,-1 22,-5 34,-12 12,-7 25,-17 37,-30 12,-12 23,-27 33,-44 19,-33 29,-68 29,-97l0 0c0,-13 -3,-26 -7,-35 -4,-9 -9,-15 -16,-19 -7,-4 -15,-6 -24,-5l0 0c-11,1 -23,6 -34,12 -13,8 -26,18 -38,31 -11,12 -22,27 -32,43l0 0c-19,34 -29,69 -29,97 0,14 2,26 6,35l0 1c4,8 10,15 17,19 6,4 15,5 24,4l0 0z"/>
   <polygon class="fil0" points="67,3398 2144,2199 2144,315 67,1514 "/>
   <path class="fil1" d="M85 3368l2041 -1179 0 -1843 -2041 1178 0 1844zm2068 -1153l-2075 1198c-3,2 -7,3 -11,3 -9,0 -17,-8 -17,-18l0 -1884 0 0c0,-6 3,-12 8,-15l2076 -1199c3,-2 7,-3 10,-3 10,0 18,8 18,18l0 1884 0 0c0,6 -3,12 -9,16z"/>
   <polygon class="fil0" points="67,1514 2144,315 2095,286 18,1486 "/>
   <path class="fil1" d="M67 1494l2042 -1179 -14 -8 -2042 1179 14 8zm2086 -1164l-2077 1200c-5,3 -12,3 -18,0l-49 -29c-3,-2 -5,-4 -6,-6 -5,-9 -2,-20 6,-25l2077 -1199c5,-3 12,-3 18,0l49 29c3,1 5,3 7,6 5,9 2,19 -7,24z"/>
   <polygon class="fil0" points="1551,4255 67,3398 2144,2199 3628,3056 "/>
   <path class="fil1" d="M1542 4270l-1484 -856c-8,-5 -11,-16 -6,-24 2,-4 4,-6 7,-7l2076 -1199c6,-3 13,-3 18,0l0 0 1484 857c8,4 11,15 6,24 -1,3 -4,5 -6,6l-2077 1199c-6,4 -13,3 -18,0zm-1439 -872l1448 837 2041 -1179 -1448 -836 -2041 1178z"/>
   <polygon class="fil0" points="2144,2371 364,3398 1106,3827 2886,2799 "/>
   <path class="fil1" d="M2144 2391l-1745 1007 707 408 1745 -1007 -707 -408zm-1789 992l1780 -1027c5,-4 12,-4 18,-1l741 428c3,2 6,4 7,7 5,8 2,19 -6,24l-1780 1028 0 0c-6,3 -12,3 -18,0l-742 -428c-2,-2 -5,-4 -6,-7 -5,-8 -2,-19 6,-24z"/>
   <polygon class="fil0" points="2078,3357 1781,3528 2226,3785 2523,3614 2523,3614 2523,3614 2819,3442 2374,3185 "/>
   <path class="fil1" d="M2086 3373l-270 155 410 236 286 -165c1,0 2,-1 3,-1l269 -156 -410 -236 -287 166 -1 1zm-314 140l296 -171 1 -1 296 -171 0 0c6,-3 12,-3 18,0l444 257c3,1 6,3 8,6 5,9 2,20 -7,25l-295 170c-1,1 -2,1 -3,2l-295 170c-5,3 -12,4 -18,0l-445 -257 0 0c-3,-1 -5,-3 -6,-6 -5,-9 -2,-19 6,-24z"/>
   <line class="fil2" x1="2152" y1="3742" x2="2745" y2= "3400" />
   <path class="fil1" d="M2161 3758c-9,4 -20,2 -25,-7 -5,-8 -2,-19 7,-24l593 -343c9,-5 20,-2 25,7 4,8 2,19 -7,24l-593 343z"/>
   <line class="fil2" x1="2523" y1="3614" x2="2448" y2= "3571" />
   <path class="fil1" d="M2531 3598c9,5 12,16 7,25 -5,8 -16,11 -24,6l-74 -43c-9,-5 -12,-16 -7,-24 5,-8 16,-11 24,-7l74 43z"/>
   <polygon class="fil0" points="2056,2318 1926,2393 1980,2424 2110,2349 "/>
   <path class="fil1" d="M2056 2338l-95 55 19 11 95 -55 -19 -11zm-139 39l129 -74c6,-4 13,-4 19,-1l54 32 0 0c3,1 5,3 7,6 4,9 1,19 -7,24l-129 75c-6,4 -13,4 -19,1l-54 -32 0 0c-3,-1 -5,-4 -7,-6 -5,-9 -2,-20 7,-25z"/>
   <polygon class="fil0" points="154,3270 2058,2171 2058,444 154,1543 "/>
   <path class="fil1" d="M172 3239l1868 -1078 0 -1687 -1868 1079 0 1686zm1895 -1053l-1903 1099c-3,2 -6,3 -10,3 -10,0 -18,-8 -18,-18l0 -1727 0 0c0,-6 3,-12 9,-16l1903 -1098c2,-2 6,-3 10,-3 10,0 18,8 18,18l0 1727 0 0c0,6 -4,12 -9,15z"/>
   <polygon class="fil0" points="67,1514 67,3398 18,3370 18,1486 "/>
   <path class="fil1" d="M85 1514l0 1884c0,10 -8,18 -18,18 -3,0 -7,-1 -10,-3l-48 -28c-6,-3 -9,-9 -9,-15l0 0 0 -1884c0,-10 8,-18 18,-18 4,0 7,1 10,3l48 28c6,3 9,9 9,15l0 0zm-35 1854l0 -1844 -14 -8 0 1844 14 8z"/>
   <polygon class="fil0" points="67,3398 1551,4255 1551,4312 67,3456 "/>
   <path class="fil1" d="M78 3384l1482 856c5,3 9,9 9,15l0 0 0 57c0,10 -8,18 -18,18 -4,0 -7,-1 -10,-3l-1483 -856c-5,-3 -8,-9 -8,-15l0 0 0 -58c0,-9 8,-17 17,-17 4,0 8,1 11,3zm1455 881l-1448 -836 0 16 1448 836 0 -16z"/>
   <polygon class="fil0" points="1551,4255 3628,3056 3628,3113 1551,4312 "/>
   <path class="fil1" d="M1543 4239l2076 -1198c8,-5 19,-3 24,6 2,3 3,6 3,9l0 0 0 57c0,7 -5,13 -11,16l-2075 1198c-9,5 -20,2 -24,-6 -2,-3 -3,-6 -3,-9l0 0 0 -57c0,-7 4,-13 10,-16zm2067 -1152l-2041 1178 0 16 2041 -1178 0 -16z"/>
   <polygon class="fil3" points="4241,8884 4241,8423 4670,8657 4670,9135 "/>
   <path class="fil1" d="M4220 8884l0 -461c0,-11 10,-21 21,-21 4,0 8,2 11,4l428 233c6,4 10,11 10,18l0 0 0 478c0,11 -9,21 -20,21 -5,0 -9,-2 -12,-4l-427 -251c-7,-3 -11,-10 -11,-17l0 0zm42 -426l0 414 387 227 0 -430 -387 -211z"/>
   <polygon class="fil0" points="2384,9956 2384,9495 2812,9729 2812,10207 "/>
   <path class="fil1" d="M2363 9956l0 -461c0,-11 9,-20 21,-20 4,0 8,1 11,3l427 233c7,4 11,11 11,18l0 0 0 478c0,12 -9,21 -21,21 -4,0 -8,-1 -12,-4l-427 -250c-6,-4 -10,-11 -10,-18l0 0zm41 -426l0 414 388 228 0 -431 -388 -211z"/>
   <path class="fil0" d="M2385 9960c-237,-138 -383,-328 -383,-538 0,-80 21,-158 62,-231 64,116 175,220 320,304l0 0 0 461 1 4zm-321 -770c10,-18 21,-36 34,-54 -13,18 -24,36 -34,54zm46 -70c9,-13 20,-26 31,-39 -11,13 -22,26 -31,39zm72 -83c7,-7 14,-13 21,-20 -7,7 -14,13 -21,20z"/>
   <g>
    <path class="fil1" d="M2375 9977c-123,-71 -223,-157 -291,-252 -66,-93 -103,-195 -103,-303 0,-41 6,-82 16,-122 11,-41 27,-81 49,-119l1 -2c5,-10 10,-19 16,-27l0 -1c6,-9 12,-18 18,-27l34 24c-6,8 -12,17 -17,25l0 1c-4,5 -8,11 -11,17 30,52 71,102 119,148 53,50 116,97 188,138 6,4 10,11 10,18l0 0 0 456c4,10 0,22 -9,27 -7,3 -14,3 -20,-1zm-258 -276c59,82 143,157 246,221l0 -415c-70,-42 -132,-88 -185,-138 -45,-43 -83,-88 -113,-136 -12,26 -21,51 -28,77 -10,37 -15,74 -15,112 0,99 34,193 95,279zm-70 -522c3,-5 8,-8 14,-9l-14 9zm46 -72l1 0 0 0 1 -2 0 0 2 -3 2 -3 2 -1 0 -1 1 0 0 -1 0 0 1 -1 0 -1 0 0 1 0 0 0 0 -1 1 0 0 -1 1 -1 1 -1 1 -1 1 -1 1 -2 0 0 1 -1 1 -1 1 -2 0 0 1 -1 0 0 1 -1 0 0 0 0 1 -1 0 0 0 -1 1 0 0 0 1 -1 0 -1 1 0 0 -1 0 0 1 -1 1 -1 0 0 0 -1 1 0 0 -1 1 0 0 -1 1 -1 1 0 0 -1 31 27 0 0 0 0 -1 1 0 0 0 1 -1 0 0 1 -1 0 0 1 -1 1 -9 11 -2 2 0 0 -2 3 -1 1 0 0 -1 1 0 0 0 0 -1 1 0 0 0 1 0 0 -1 0 0 1 -1 0 0 1 0 0 0 0 -1 1 0 0 0 1 -1 0 0 1 0 0 -1 0 0 1 -1 1 0 0 -1 1 0 0 0 1 -1 0 0 0 0 1 -1 0 0 1 0 0 0 0 0 0 -1 1 -33 -25zm75 -85l10 -10 2 -1 9 -9 4 5c6,0 11,2 14,6 4,4 6,9 6,15l4 4 -9 9 -1 1 -10 10 -5 -4c-5,0 -10,-3 -14,-7 -4,-4 -6,-9 -6,-14l-4 -5z"/>
   </g>
   <polygon class="fil0" points="2002,9066 2063,9068 2063,9202 2071,9212 2063,9227 2063,9423 2009,9419 "/>
   <path class="fil3" d="M3312 8199c363,0 692,86 929,224l0 463c-237,-138 -566,-223 -929,-223 -584,0 -1079,221 -1248,528 -41,-73 -62,-151 -62,-232 0,-420 586,-760 1310,-760zm-1109 1165c-7,-6 -14,-13 -21,-20 7,7 14,14 21,20zm-50 -50c-16,-17 -30,-35 -43,-52 13,17 27,35 43,52zm-55 -69c-13,-17 -24,-35 -34,-53 10,18 21,36 34,53z"/>
   <path class="fil1" d="M3312 8179c180,0 351,20 507,58 163,39 310,97 432,168 7,4 10,11 10,18l1 0 0 463c0,12 -10,21 -21,21 -4,0 -8,-1 -12,-4 -119,-69 -261,-125 -419,-163l-1 0c-153,-37 -321,-57 -497,-57 -286,0 -550,54 -764,144 -213,90 -376,217 -461,364l0 0 1 1 1 1 0 1 1 1 0 1 1 1 0 1 1 0 0 1 2 3 0 0 2 3 0 1 2 2c3,5 6,10 10,16l1 1 0 0 3 5 0 0 3 3 0 0 0 1c6,8 4,20 -4,27l15 -11c7,8 13,17 20,25 7,8 14,16 22,25l-31 27c-7,-8 -15,-16 -22,-26 -8,-9 -15,-18 -22,-27l16 -12c-9,7 -22,4 -28,-5l0 0c-6,-9 -12,-18 -18,-27l-3 -5 -1 -2 -4 -6 0 0 -1 -1 -1 -2 0 -1 -1 -1 0 0 0 -1 -1 -1 0 -1 -1 0 -1 -2 0 0 0 -1 -1 0 0 -1 0 0 0 -1 -1 -1 0 0 0 0 -1 -1 0 0 0 -1c-22,-39 -38,-78 -49,-119 -10,-40 -16,-81 -16,-123 0,-218 151,-414 394,-555 240,-139 572,-225 937,-225zm498 98c-153,-37 -321,-57 -498,-57 -358,0 -682,84 -916,220 -231,133 -374,317 -374,519 0,38 5,76 15,112 7,26 16,52 28,77 93,-145 257,-270 468,-359 219,-92 488,-147 779,-147 179,0 350,21 507,58l1 0c149,36 284,88 400,151l0 -416c-117,-67 -256,-121 -410,-158zm-1638 1078c0,-5 2,-11 6,-15 4,-4 9,-6 14,-6l5 -4 10 10 10 9c9,8 9,21 1,29 -7,9 -20,9 -29,1l-10 -10 -1 0 -10 -10 4 -4z"/>
   <line class="fil2" x1="2002" y1="8959" x2="2002" y2= "9422" />
   <path class="fil1" d="M1981 8959c0,-11 9,-20 21,-20 11,0 20,9 20,20l0 463c0,12 -9,21 -20,21 -12,0 -21,-9 -21,-21l0 -463z"/>
   <line class="fil2" x1="2384" y1="9495" x2="2384" y2= "9956" />
   <path class="fil1" d="M2363 9495c0,-11 9,-20 21,-20 11,0 20,9 20,20l0 461c0,11 -9,21 -20,21 -12,0 -21,-10 -21,-21l0 -461z"/>
   <line class="fil2" x1="4241" y1="8423" x2="4241" y2= "8889" />
   <path class="fil1" d="M4220 8423c0,-11 10,-21 21,-21 11,0 21,10 21,21l0 466c0,11 -10,21 -21,21 -11,0 -21,-10 -21,-21l0 -466z"/>
   <path class="fil0" d="M3265 10370c-133,77 -267,96 -369,37 -102,-59 -153,-184 -153,-338 0,-154 51,-337 153,-513 101,-176 234,-311 367,-388l0 0 1042 -601 1 -1c133,-77 267,-95 369,-36 102,59 153,183 153,338 0,153 -51,336 -152,512 -102,176 -235,312 -368,389l-1 0 0 0 -1040 601 -2 0z"/>
   <g>
    <path class="fil1" d="M3274 10389c-70,40 -140,65 -207,71 -65,7 -127,-4 -181,-35 -54,-32 -94,-80 -122,-140 -27,-61 -41,-134 -41,-216l0 0c0,-80 13,-168 40,-259 26,-87 64,-176 115,-264l0 0 0 0c50,-88 109,-166 171,-231 64,-68 133,-123 202,-164 1,0 2,-1 4,-2l1040 -600 0 0 0 0 1 -1 0 0c71,-41 141,-65 208,-72 65,-6 127,5 181,36 54,31 95,79 122,139 28,61 41,135 41,217 0,80 -13,168 -40,258 -26,87 -64,177 -115,265l0 1c-51,87 -109,165 -171,230 -65,68 -133,124 -203,164 -1,1 -2,1 -4,2l-1038 599 0 0 -1 1 -2 1zm-211 31c61,-6 126,-29 191,-67l1 0 1 -1 0 0 0 0 1039 -599 1 -2 1 0 0 0 0 0c67,-38 133,-91 195,-157 60,-64 116,-139 165,-223l1 -1c49,-85 86,-171 111,-255 26,-87 38,-171 38,-247 0,-76 -12,-144 -38,-200 -23,-52 -58,-94 -104,-120 -47,-27 -100,-37 -157,-31 -61,6 -126,29 -191,66l-1 1 -1 0 0 0 -1040 601 -1 1c-66,38 -133,91 -195,157 -60,63 -117,139 -166,224l0 0c-49,84 -86,171 -111,255 -25,87 -38,171 -38,247l0 0c0,76 12,144 38,199 23,53 58,94 105,121 46,27 99,36 156,31zm192 -1271c2,-1 5,-2 8,-2l-8 2zm1060 639c-2,1 -5,2 -8,2l8 -2z"/>
   </g>
   <polygon class="fil0" points="2896,9556 4675,8530 5457,8981 3678,10858 2896,10407 "/>
   <line class="fil2" x1="2896" y1="9556" x2="3677" y2= "10008" />
   <path class="fil1" d="M2885 9574c-10,-6 -13,-18 -7,-28 5,-10 18,-13 28,-8l782 452c9,6 13,18 7,28 -6,10 -18,13 -28,7l-782 -451z"/>
   <line class="fil2" x1="2743" y1="10069" x2="3525" y2= "10520" />
   <path class="fil1" d="M2733 10087c-10,-6 -13,-18 -8,-28 6,-10 19,-13 28,-8l782 452c10,5 13,18 8,28 -6,9 -18,13 -28,7l-782 -451z"/>
   <line class="fil2" x1="2896" y1="10407" x2="3678" y2= "10858" />
   <path class="fil1" d="M2886 10425c-10,-6 -13,-19 -7,-29 5,-9 18,-13 28,-7l781 451c10,6 14,19 8,28 -6,10 -18,14 -28,8l-782 -451z"/>
   <line class="fil2" x1="4627" y1="8509" x2="5457" y2= "8981" />
   <path class="fil1" d="M4617 8526c-10,-5 -13,-18 -8,-28 6,-10 18,-13 28,-7l830 472c10,6 13,18 7,28 -5,10 -18,14 -28,8l-829 -473z"/>
   <path class="fil0" d="M3917 10747c-134,77 -267,95 -369,36 -102,-59 -153,-184 -153,-338 0,-154 50,-337 152,-513 102,-176 235,-311 368,-388l0 0 1042 -601 0 -1c134,-77 267,-95 369,-36 102,59 153,184 153,338 0,153 -50,337 -152,512 -101,176 -235,312 -368,389l-1 0 0 0 -1040 601 -1 1z"/>
   <g>
    <path class="fil1" d="M3927 10765c-71,40 -141,65 -208,72 -66,6 -128,-5 -181,-36 -54,-31 -95,-79 -122,-139 -28,-62 -42,-135 -42,-217l0 0c0,-80 14,-168 41,-259 25,-87 64,-176 114,-264l0 0 0 0c51,-88 109,-166 172,-231 64,-68 133,-123 201,-163 2,-1 3,-2 4,-3l1040 -600 0 0 0 0 1 -1 1 0c70,-40 141,-65 207,-72 66,-6 128,5 182,36l1 1c53,31 93,79 120,138 28,61 42,135 42,217 0,80 -13,168 -40,259 -26,86 -64,176 -115,264l-1 1c-50,87 -108,165 -170,230 -65,68 -134,124 -203,164 -1,1 -3,1 -4,2l-1038 599 -2 1 0 1zm-212 31c61,-6 126,-29 191,-67l0 0 2 -1 0 0 1038 -599 2 -1 1 -1 0 0 0 0c66,-38 132,-91 195,-157 60,-63 116,-138 165,-223l0 -1c49,-85 86,-171 111,-255 26,-87 39,-171 39,-247 0,-76 -13,-144 -38,-200 -24,-52 -58,-93 -104,-120l-1 0c-46,-27 -100,-36 -157,-31 -60,6 -125,29 -190,67l-2 0 0 1 0 0 -1040 600 -2 1c-66,38 -132,91 -195,157 -60,64 -116,139 -165,224l0 0c-49,84 -86,171 -111,255 -26,87 -39,171 -39,247l0 0c0,76 13,144 38,200 24,52 59,94 105,120 46,27 100,36 157,31zm191 -1271c3,-1 6,-2 9,-2l-9 2zm1061 639c-3,1 -6,2 -9,2l9 -2z"/>
   </g>
   <path class="fil0" d="M4047 10822c-133,77 -267,95 -369,36 -102,-59 -153,-183 -153,-338 0,-153 51,-336 152,-512 102,-176 235,-312 368,-389l0 0 1042 -601 1 0c133,-77 267,-96 369,-37 102,59 153,184 153,338 0,154 -51,337 -153,513 -101,176 -234,311 -368,388l0 1 0 0 -1040 600 -2 1z"/>
   <g>
    <path class="fil1" d="M4056 10840c-70,41 -140,65 -207,72 -65,6 -127,-5 -181,-36 -54,-31 -95,-79 -122,-139 -28,-61 -41,-135 -41,-217 -1,-80 13,-168 40,-258 26,-87 64,-177 115,-265 50,-87 109,-165 171,-231 64,-68 133,-123 202,-163 1,-1 2,-2 4,-2l1039 -601 1 0 1 -1c70,-40 141,-65 207,-71 66,-7 128,4 182,35 54,32 94,80 122,140 27,61 41,135 41,216 0,80 -13,168 -40,259 -26,87 -64,176 -115,264l0 1c-51,87 -109,165 -171,230 -65,69 -134,124 -203,164l-1045 603zm-211 31c61,-6 126,-29 191,-66l1 -1 1 -1 0 0 0 0 1038 -599c1,-1 2,-1 3,-2l1 0 0 0c66,-38 132,-91 194,-157 60,-63 116,-138 165,-222l1 -2c49,-84 86,-171 110,-255 26,-87 39,-171 39,-247 0,-76 -13,-144 -38,-199 -24,-53 -59,-94 -105,-121 -46,-27 -99,-36 -156,-31 -61,6 -126,29 -191,67l-1 0 -1 1 0 0 -1040 600 -2 1c-66,38 -132,91 -194,157 -60,64 -117,139 -166,224 -49,85 -86,171 -111,255 -26,87 -38,171 -38,247 0,76 12,144 38,200 23,52 58,94 104,120 46,27 100,36 157,31zm192 -1270c2,-2 5,-2 8,-2l-8 2zm1060 638c-2,2 -5,2 -8,2l8 -2zm0 0l-1038 600 0 0 -2 1 -1 0 1041 -601z"/>
   </g>
   <line class="fil2" x1="4566" y1="9319" x2="4567" y2= "10521" />
   <path class="fil1" d="M4546 9319c0,-12 9,-21 20,-21 11,0 21,9 21,21l1 1202c0,12 -9,21 -21,21 -11,0 -20,-9 -20,-21l-1 -1202z"/>
   <ellipse class="fil0" cx="3627" cy="9313" rx="112" ry="65"/>
   <path class="fil1" d="M3627 9228c34,0 66,8 89,22 26,15 43,38 43,63 0,26 -17,48 -43,64 -23,13 -55,22 -89,22 -35,0 -66,-9 -90,-22 -26,-16 -43,-38 -43,-64 0,-25 17,-48 43,-63 24,-14 55,-22 90,-22zm68 57c-17,-10 -41,-16 -68,-16 -28,0 -52,6 -69,16 -14,8 -22,18 -22,28 0,10 8,20 22,28 17,10 41,16 69,16 27,0 51,-6 68,-16 14,-8 23,-18 23,-28 0,-10 -9,-20 -23,-28z"/>
   <line class="fil2" x1="4690" y1="9408" x2="5065" y2= "9191" />
   <path class="fil1" d="M4700 9426c-10,6 -23,2 -28,-7 -6,-10 -3,-23 7,-28l376 -217c10,-6 23,-3 28,7 6,10 3,22 -7,28l-376 217z"/>
   <line class="fil2" x1="4690" y1="9463" x2="5159" y2= "9191" />
   <path class="fil1" d="M4700 9480c-10,6 -23,3 -28,-7 -6,-10 -3,-22 7,-28l470 -271c10,-6 23,-3 28,7 6,10 3,22 -7,28l-470 271z"/>
   <line class="fil2" x1="4690" y1="9517" x2="4971" y2= "9354" />
   <path class="fil1" d="M4700 9535c-10,5 -23,2 -28,-8 -6,-10 -3,-22 7,-28l282 -163c10,-5 23,-2 28,8 6,10 3,22 -7,28l-282 163z"/>
   <line class="fil2" x1="4690" y1="9571" x2="5112" y2= "9327" />
   <path class="fil1" d="M4700 9589c-10,6 -23,2 -28,-8 -6,-9 -3,-22 7,-28l423 -244c10,-5 23,-2 28,8 6,10 3,22 -7,28l-423 244z"/>
   <polygon class="fil3" points="2407,0 1375,596 1375,1913 2407,1317 "/>
   <line class="fil2" x1="1461" y1="1703" x2="2235" y2= "1256" />
   <path class="fil4" d="M1472 1721c-10,6 -23,2 -28,-7 -6,-10 -3,-23 7,-28l774 -447c10,-6 23,-3 28,7 6,10 2,23 -7,28l-774 447z"/>
   <line class="fil2" x1="1461" y1="688" x2="2063" y2= "341" />
   <path class="fil4" d="M1472 706c-10,6 -23,3 -28,-7 -6,-10 -3,-23 7,-28l602 -348c10,-6 23,-2 28,8 6,9 2,22 -7,28l-602 347z"/>
   <polygon class="fil0" points="1891,540 1461,788 1461,1284 1891,1036 1891,639 "/>
   <path class="fil4" d="M1882 556l-411 237 0 475 411 -237 0 -392 0 -83zm-425 224l430 -248 14 -9 0 17 0 99 0 397 0 5 -5 3 -430 248 -14 8 0 -16 0 -496 0 -6 5 -2z"/>
   <line class="fil2" x1="1977" y1="490" x2="2149" y2= "391" />
   <path class="fil4" d="M1988 508c-10,5 -23,2 -28,-8 -6,-10 -3,-22 7,-28l172 -99c10,-6 23,-3 28,7 6,10 3,23 -7,28l-172 100z"/>
   <line class="fil2" x1="1977" y1="589" x2="2235" y2= "440" />
   <path class="fil4" d="M1988 607c-10,6 -23,2 -28,-8 -6,-9 -3,-22 7,-28l258 -149c10,-5 23,-2 28,8 6,10 3,22 -7,28l-258 149z"/>
   <line class="fil2" x1="1977" y1="688" x2="2149" y2= "589" />
   <path class="fil4" d="M1988 706c-10,6 -23,3 -28,-7 -6,-10 -3,-23 7,-28l172 -100c10,-5 23,-2 28,8 6,10 2,22 -7,28l-172 99z"/>
   <polyline class="fil2" points="1461,1384 2235,937 2235,1036 "/>
   <path class="fil4" d="M1472 1401c-10,6 -23,3 -28,-7 -6,-10 -3,-22 7,-28l774 -447c10,-6 23,-2 28,7 2,4 3,7 3,11l0 0 0 99c0,11 -9,21 -21,21 -11,0 -20,-10 -20,-21l0 -64 -743 429z"/>
   <polyline class="fil2" points="2235,1036 1461,1483 1461,1384 "/>
   <path class="fil4" d="M2225 1018c10,-5 23,-2 28,8 6,10 3,22 -7,28l-774 447c-10,5 -23,2 -28,-8 -2,-3 -3,-7 -3,-10l0 0 0 -99c0,-12 9,-21 20,-21 12,0 21,9 21,21l0 63 743 -429z"/>
   <line class="fil2" x1="1461" y1="1610" x2="1805" y2= "1412" />
   <path class="fil4" d="M1472 1628c-10,6 -23,2 -28,-7 -6,-10 -3,-23 7,-28l344 -199c10,-6 23,-2 28,8 6,9 2,22 -7,28l-344 198z"/>
   <path class="fil3" d="M5033 7574l-60 35 -600 -2976 60 -34 43 213 480 -277 -43 -213 60 -35 599 2976 -60 34 -92 -459 -480 277 93 459zm372 -807l-60 -301 -480 277 61 301 479 -277zm-75 -372l-60 -301 -480 277 61 301 479 -277zm-75 -372l-60 -301 -480 277 61 301 479 -277zm-74 -372l-61 -301 -479 277 60 301 480 -277zm-75 -372l-61 -301 -479 277 60 301 480 -277zm-75 -372l-61 -300 -479 276 60 301 480 -277z"/>
   <path class="fil0" d="M5063 7591l-60 35 -600 -2976 60 -34 43 213 480 -276 -43 -214 60 -35 599 2976 -60 35 -92 -459 -480 276 93 459zm372 -807l-60 -300 -480 276 61 301 479 -277zm-75 -372l-60 -300 -480 276 61 301 479 -277zm-75 -372l-60 -300 -480 276 61 301 479 -277zm-74 -372l-61 -300 -479 276 60 301 480 -277zm-75 -371l-61 -301 -479 277 60 300 480 -276zm-75 -372l-61 -301 -479 277 60 300 480 -276z"/>
   <path class="fil1" d="M5068 7600l-60 35c-5,2 -11,1 -14,-4 0,-1 -1,-2 -1,-4l-599 -2975c-1,-4 1,-8 5,-10l59 -35c5,-2 11,-1 14,4 0,1 1,2 1,3l40 200 462 -266 -42 -207c-1,-4 1,-8 5,-10l0 -1 60 -34c4,-3 11,-1 13,3 1,2 1,3 1,4l600 2975c0,4 -2,8 -5,11l0 0 -60 34c-5,3 -11,1 -13,-3 -1,-2 -1,-3 -2,-4l-89 -445 -462 266 91 452c1,5 -1,9 -4,11l0 0zm-58 11l42 -25 -91 -452c-1,-4 1,-8 4,-10l479 -277c1,0 3,-1 4,-1 5,-1 10,2 11,8l90 445 42 -24 -595 -2955 -42 24 41 207c1,4 -1,8 -4,10l-479 277c-1,0 -3,1 -4,1 -5,1 -10,-2 -11,-8l-41 -200 -42 24 596 2956zm414 -832l-56 -280 -462 266 57 281 461 -267zm-40 -297l61 300c1,4 -1,9 -5,11l-479 277 0 0c-1,0 -2,1 -3,1 -6,1 -11,-3 -12,-8l-60 -300c-1,-4 0,-9 4,-11l480 -277 0 0c1,0 2,-1 3,-1 5,-1 10,2 11,8zm-35 -75l-56 -280 -462 266 57 281 461 -267zm-40 -297l61 300c1,4 -1,9 -5,11l-479 277c-1,0 -2,1 -3,1 -5,1 -11,-3 -12,-8l-60 -301c-1,-4 1,-8 4,-10l480 -277c1,0 2,-1 3,-1 5,-1 10,2 11,8zm-35 -75l-56 -280 -462 266 57 281 461 -267zm-39 -297l60 300c1,4 -1,9 -5,11l-479 277 0 0c-1,0 -2,1 -3,1 -5,1 -11,-3 -12,-8l-60 -300c-1,-4 1,-9 5,-11l479 -277 0 0c1,0 2,-1 3,-1 5,-1 10,2 12,8zm-35 -74l-57 -281 -461 266 56 281 462 -266zm-40 -298l60 300c1,4 -1,9 -5,11l-479 277 0 0c-1,0 -2,1 -3,1 -5,1 -10,-2 -12,-8l-60 -301c-1,-4 1,-8 5,-10l479 -277c1,0 2,-1 3,-1 5,-1 11,2 12,8zm-35 -74l-57 -281 -461 267 56 280 462 -266zm-40 -298l60 300c1,4 0,9 -4,11l-480 277 0 0c-1,0 -2,1 -3,1 -5,1 -10,-2 -11,-8l-61 -301c-1,-4 1,-8 5,-10l479 -277c1,0 2,-1 3,-1 5,-1 11,3 12,8zm-35 -74l-57 -281 -461 267 56 280 462 -266zm-40 -298l60 300c1,4 0,9 -4,11l-480 277 0 0c-1,0 -2,1 -3,1 -5,1 -10,-2 -11,-8l-61 -300c-1,-4 1,-9 5,-11l479 -277 0 0c1,0 2,-1 3,-1 6,-1 11,3 12,8z"/>
  </g>
 </g>
</svg>
