<?xml version="1.0" encoding="UTF-8"?>
<!DOCTYPE svg PUBLIC "-//W3C//DTD SVG 1.1//EN" "http://www.w3.org/Graphics/SVG/1.1/DTD/svg11.dtd">
<!-- Creator: CorelDRAW X7 -->
<svg xmlns="http://www.w3.org/2000/svg" xml:space="preserve" width="98.3826mm" height="15.4938mm" version="1.1" style="shape-rendering:geometricPrecision; text-rendering:geometricPrecision; image-rendering:optimizeQuality; fill-rule:evenodd; clip-rule:evenodd"
viewBox="0 0 9838 1549"
 xmlns:xlink="http://www.w3.org/1999/xlink">
 <defs>
  <style type="text/css">
   <![CDATA[
    .str19 {stroke:#61003F;stroke-width:16.93;stroke-linecap:round;stroke-linejoin:round}
    .str25 {stroke:#61003F;stroke-width:16.93;stroke-linecap:round;stroke-linejoin:round}
    .str23 {stroke:#61003F;stroke-width:8.46;stroke-linecap:round;stroke-linejoin:round}
    .str20 {stroke:#61003F;stroke-width:8.46;stroke-linecap:round;stroke-linejoin:round}
    .str21 {stroke:#61003F;stroke-width:8.46;stroke-linecap:round;stroke-linejoin:round}
    .str3 {stroke:#61003F;stroke-width:21.58;stroke-linecap:round;stroke-linejoin:round}
    .str0 {stroke:#61003F;stroke-width:21.58;stroke-linecap:round;stroke-linejoin:round}
    .str2 {stroke:#61003F;stroke-width:21.58;stroke-linecap:round;stroke-linejoin:round}
    .str1 {stroke:#61003F;stroke-width:21.58;stroke-linecap:round;stroke-linejoin:round}
    .str5 {stroke:#61003F;stroke-width:21.58;stroke-linecap:round;stroke-linejoin:round}
    .str4 {stroke:#61003F;stroke-width:21.58;stroke-linecap:round;stroke-linejoin:round}
    .str7 {stroke:#61003F;stroke-width:14.34;stroke-linecap:round;stroke-linejoin:round}
    .str6 {stroke:#61003F;stroke-width:14.34;stroke-linecap:round;stroke-linejoin:round}
    .str22 {stroke:#61003F;stroke-width:16.93;stroke-linecap:round;stroke-linejoin:round}
    .str24 {stroke:#61003F;stroke-width:16.93;stroke-linecap:round;stroke-linejoin:round}
    .str14 {stroke:#61003F;stroke-width:17.21;stroke-linecap:round;stroke-linejoin:round}
    .str13 {stroke:#61003F;stroke-width:17.21;stroke-linecap:round;stroke-linejoin:round}
    .str17 {stroke:#6E144E;stroke-width:17.21;stroke-linecap:round;stroke-linejoin:round}
    .str11 {stroke:#61003F;stroke-width:17.21;stroke-linecap:round;stroke-linejoin:round}
    .str12 {stroke:#61003F;stroke-width:17.21;stroke-linecap:round;stroke-linejoin:round}
    .str15 {stroke:#61003F;stroke-width:17.21;stroke-linecap:round;stroke-linejoin:round}
    .str10 {stroke:#61003F;stroke-width:17.21;stroke-linecap:round;stroke-linejoin:round}
    .str16 {stroke:#61003F;stroke-width:17.21;stroke-linecap:round;stroke-linejoin:round}
    .str9 {stroke:#61003F;stroke-width:17.21;stroke-linecap:round;stroke-linejoin:round}
    .str8 {stroke:#6E144E;stroke-width:17.21;stroke-linecap:round;stroke-linejoin:round}
    .str18 {stroke:#6E144E;stroke-width:17.21;stroke-linecap:round;stroke-linejoin:round}
    .fil1 {fill:none}
    .fil3 {fill:#61003F}
    .fil0 {fill:#FFF4F0}
    .fil2 {fill:#61003F;fill-rule:nonzero}
   ]]>
  </style>
     <clipPath id="id0">
      <path d="M8000 1421c0,71 -99,128 -221,128 -123,0 -222,-57 -222,-128l0 -435c0,-71 99,-128 222,-128 122,0 221,57 221,128l0 435z"/>
     </clipPath>
     <clipPath id="id1">
      <path d="M2379 1169c65,37 130,46 180,18 50,-29 75,-90 75,-165 0,-75 -25,-164 -75,-250 -49,-85 -114,-151 -179,-189 -65,-37 -130,-46 -179,-17 -50,28 -75,89 -75,164 0,75 25,164 74,250 50,86 114,152 179,189z"/>
     </clipPath>
 </defs>
 <g id="Layer_x0020_1">
  <metadata id="CorelCorpID_0Corel-Layer"/>
  <g id="_2595160757584">
   <g>
    <g>
     <polygon class="fil0 str0" points="4862,1033 5489,671 5220,0 4594,362 "/>
     <line class="fil1 str0" x1="4684" y1="310" x2="4952" y2= "981" />
     <line class="fil1 str0" x1="4773" y1="258" x2="5041" y2= "930" />
     <line class="fil1 str0" x1="4862" y1="207" x2="5131" y2= "878" />
     <line class="fil1 str0" x1="4952" y1="155" x2="5220" y2= "826" />
     <line class="fil1 str0" x1="5041" y1="103" x2="5310" y2= "775" />
     <line class="fil1 str0" x1="5131" y1="52" x2="5399" y2= "723" />
     <line class="fil1 str0" x1="4628" y1="445" x2="5254" y2= "84" />
     <line class="fil1 str0" x1="4661" y1="529" x2="5287" y2= "168" />
     <line class="fil1 str0" x1="4695" y1="613" x2="5321" y2= "252" />
     <line class="fil1 str0" x1="4728" y1="697" x2="5354" y2= "336" />
     <line class="fil1 str0" x1="4762" y1="781" x2="5388" y2= "420" />
     <line class="fil1 str0" x1="4795" y1="865" x2="5422" y2= "504" />
     <line class="fil1 str0" x1="4829" y1="949" x2="5455" y2= "587" />
    </g>
    <path class="fil0 str1" d="M4199 840c-36,-20 -53,-63 -53,-117 0,-53 17,-116 52,-177 35,-61 81,-107 127,-134 47,-27 93,-33 128,-13l446 260 -252 438 -448 -257z"/>
    <path class="fil0 str2" d="M4700 1109c-6,0 -11,0 -16,-1l0 0c-14,-1 -26,-5 -37,-11 -35,-20 -53,-63 -53,-116 0,-53 18,-116 52,-176 35,-61 81,-107 127,-133 46,-27 91,-33 126,-13 12,7 22,16 29,27l67 115 -177 308 -118 0z"/>
    <path class="fil0 str3" d="M5176 1256l-2 1 -1 1 -2 1 -1 1 -2 0 -1 1 -2 1 -1 1 -2 0 0 0 -1 1 -2 1 -1 0 -2 1 0 0 -1 0 -2 1 -1 1 -2 0 0 0 -1 1 -2 0 -1 0 0 0 -2 1 -1 0 -2 1 -1 0 -2 0 0 0 -1 1 0 0 -2 0 0 0 -1 0 -2 0 -1 1 -1 0 -2 0 -1 0 -2 0 -1 0 0 0 -1 0 0 0 -2 0 0 0 -1 0 -2 0 -1 0 -1 0 -2 0 0 0 -1 0 -2 0 -1 0 -1 0 0 0 -2 0 -1 -1 0 0 -1 0 -1 0 -2 -1 -1 0 -1 0 -2 -1 -1 0 -1 0 -1 -1 -2 0 -1 -1 -1 0 -1 -1 -1 -1 -2 0 -1 -1 0 0 0 0 -312 -182c-25,-14 -37,-44 -37,-81 0,-37 12,-81 37,-124 24,-42 56,-75 88,-93 32,-19 64,-23 88,-9l0 0 1 0 0 0 0 0 314 180 0 0 1 0 0 0 1 1 0 0 1 1 0 0 1 1 1 0 0 0 1 1 2 1 1 1 0 0c0,0 1,1 2,2 0,0 1,1 1,1l0 0c1,1 2,2 2,2l0 0c1,1 2,2 2,2l0 0 1 1 1 1 0 0c0,1 1,2 1,3l1 1 0 0c1,0 1,1 2,2l0 0 0 1 0 0 1 1 0 0 1 1 1 2 0 1 0 0 1 1 0 1 0 0 1 2 1 1 0 0 0 1 1 2 0 0 0 1 1 1 0 0 0 2 1 1 0 2 1 1 0 2 1 1 0 1 0 2 1 1 0 0 0 1c5,12 7,26 7,41 0,32 -10,70 -31,107 -14,23 -30,43 -47,58l0 1 -2 1 -1 2 -2 1 0 0 -1 2 0 0 -2 1 -1 2 -1 1 -2 1 -1 2 0 0 -2 1 -1 1 -2 2 -1 1 -2 1 0 0 -1 2 -2 1 -1 1 -2 1 -1 2 -2 1 -1 1 0 0 -2 1 -1 1 -2 1 -1 1 -2 2 -1 1 -2 1 -1 1 -2 1 -1 1 -2 1 -1 0 -2 1 -1 1z"/>
    <path class="fil0 str3" d="M5176 1256c-33,19 -65,23 -90,9 -24,-14 -37,-45 -37,-82 0,-37 12,-82 37,-124 25,-43 57,-76 89,-94 33,-19 65,-24 90,-9 17,10 29,28 34,51 5,12 7,26 7,41 0,32 -10,70 -31,107 -14,23 -30,43 -47,58 -17,18 -34,33 -52,43z"/>
    <path class="fil0 str4" d="M5198 1235c-28,16 -55,20 -76,8 -22,-12 -32,-38 -32,-70 0,-32 10,-70 31,-107 21,-36 49,-64 77,-80 27,-16 55,-20 76,-8 22,12 32,38 32,70 0,32 -10,70 -31,107 -22,36 -49,64 -77,80z"/>
    <g>
     <polygon class="fil0 str5" points="3968,1549 4594,1188 4326,516 3700,878 "/>
     <line class="fil1 str5" x1="3789" y1="826" x2="4057" y2= "1498" />
     <line class="fil1 str5" x1="3878" y1="775" x2="4147" y2= "1446" />
     <line class="fil1 str5" x1="3968" y1="723" x2="4236" y2= "1394" />
     <line class="fil1 str5" x1="4057" y1="671" x2="4326" y2= "1343" />
     <line class="fil1 str5" x1="4147" y1="620" x2="4415" y2= "1291" />
     <line class="fil1 str5" x1="4236" y1="568" x2="4505" y2= "1240" />
     <line class="fil1 str5" x1="3733" y1="962" x2="4359" y2= "600" />
     <line class="fil1 str5" x1="3767" y1="1046" x2="4393" y2= "684" />
     <line class="fil1 str5" x1="3800" y1="1130" x2="4426" y2= "768" />
     <line class="fil1 str5" x1="3834" y1="1214" x2="4460" y2= "852" />
     <line class="fil1 str5" x1="3867" y1="1298" x2="4493" y2= "936" />
     <line class="fil1 str5" x1="3901" y1="1382" x2="4527" y2= "1020" />
     <line class="fil1 str5" x1="3934" y1="1465" x2="4561" y2= "1104" />
    </g>
   </g>
   <g>
    <circle class="fil0 str6" cx="7779" cy="576" r="576"/>
    <path class="fil0" d="M8000 1421c0,71 -99,128 -221,128 -123,0 -222,-57 -222,-128l0 -435c0,-71 99,-128 222,-128 122,0 221,57 221,128l0 435z"/>
    <g style="clip-path:url(#id0)">
     <g>
      <g>
       <path id="1" class="fil0" d="M7779 1293c122,0 221,57 221,128 0,71 -99,128 -221,128 -122,0 -221,-57 -221,-128 0,-71 99,-128 221,-128z"/>
       <path id="2" class="fil2" d="M8009 1421l-17 0 0 0 0 -6 -1 -6 -1 -5 -2 -6 -2 -6 -3 -5 -3 -6 -4 -5 -4 -5 -4 -5 -5 -6 -6 -4 -6 -5 -6 -5 -7 -4 -7 -5 -7 -4 -8 -3 -8 -4 -8 -4 -9 -3 -9 -3 -9 -3 -10 -2 -10 -2 -10 -2 -10 -2 -10 -1 -11 -2 -11 0 -11 -1 -11 0 0 -17 12 0 11 1 12 1 11 1 11 1 10 2 11 2 10 3 10 2 10 3 10 3 9 4 9 3 9 4 8 5 8 4 8 5 7 5 7 5 6 5 6 5 6 6 5 6 5 6 4 6 4 7 3 7 3 6 2 7 2 7 1 8 0 7 0 0zm-230 137l0 -17 0 0 11 0 11 -1 11 0 11 -2 10 -1 10 -2 10 -2 10 -2 10 -2 9 -3 9 -3 9 -3 8 -4 8 -3 8 -4 7 -4 7 -5 7 -4 6 -5 6 -5 6 -4 5 -5 4 -6 4 -5 4 -5 3 -6 3 -5 2 -6 2 -6 1 -5 1 -6 0 -6 17 0 0 7 -1 8 -2 7 -2 7 -3 6 -3 7 -4 7 -4 6 -5 6 -5 6 -6 6 -6 5 -6 5 -7 6 -7 4 -8 5 -8 4 -8 5 -9 4 -9 3 -9 4 -10 3 -10 3 -10 2 -10 3 -11 2 -10 2 -11 1 -11 1 -12 1 -11 1 -12 0 0 0zm-230 -137l17 0 0 0 0 6 1 6 1 5 2 6 2 6 3 5 3 6 4 5 4 5 5 6 5 5 5 4 6 5 6 5 7 4 7 5 7 4 8 4 8 3 8 4 9 3 9 3 9 3 10 2 10 2 10 2 10 2 10 1 11 2 11 0 11 1 11 0 0 17 -12 0 -11 -1 -11 -1 -12 -1 -11 -1 -10 -2 -11 -2 -10 -3 -10 -2 -10 -3 -10 -3 -9 -4 -9 -3 -8 -4 -9 -5 -8 -4 -7 -5 -8 -4 -7 -6 -6 -5 -6 -5 -6 -6 -5 -6 -5 -6 -4 -6 -4 -7 -3 -7 -3 -6 -2 -7 -2 -7 -1 -8 0 -7 0 0zm230 -137l0 17 0 0 -11 0 -11 1 -11 0 -11 2 -10 1 -10 2 -10 2 -10 2 -10 2 -9 3 -9 3 -9 3 -8 4 -8 4 -8 3 -7 4 -7 5 -7 4 -6 5 -6 5 -5 4 -5 6 -5 5 -4 5 -4 5 -3 6 -3 5 -2 6 -2 6 -1 5 -1 6 0 6 -17 0 0 -7 1 -8 2 -7 2 -7 3 -6 3 -7 4 -7 4 -6 5 -6 5 -6 6 -6 6 -5 6 -5 7 -5 8 -5 7 -5 8 -4 9 -5 8 -4 9 -3 9 -4 10 -3 10 -3 10 -2 10 -3 11 -2 10 -2 11 -1 12 -1 11 -1 11 -1 12 0 0 0z"/>
      </g>
      <g>
       <path class="fil0" d="M7779 1231c122,0 221,57 221,128 0,71 -99,128 -221,128 -122,0 -221,-57 -221,-128 0,-71 99,-128 221,-128z"/>
       <path id="1" class="fil2" d="M8009 1359l-17 0 0 0 0 -6 -1 -6 -1 -6 -2 -5 -2 -6 -3 -5 -3 -6 -4 -5 -4 -5 -4 -6 -5 -5 -6 -5 -6 -4 -6 -5 -7 -4 -7 -5 -7 -4 -8 -4 -8 -3 -8 -4 -9 -3 -9 -3 -9 -3 -10 -2 -10 -3 -10 -1 -10 -2 -10 -2 -11 -1 -11 0 -11 -1 -11 0 0 -17 12 0 11 1 12 1 11 1 11 1 10 2 11 2 10 2 10 3 10 3 10 3 9 4 9 3 9 4 8 4 8 5 8 5 7 4 7 5 6 6 6 5 6 6 5 6 5 6 4 6 4 7 3 6 3 7 2 7 2 7 1 8 0 7 0 0zm-230 137l0 -17 0 0 11 0 11 -1 11 -1 11 -1 10 -1 10 -2 10 -2 10 -2 10 -2 9 -3 9 -3 9 -3 8 -4 8 -4 8 -4 7 -4 7 -4 7 -4 6 -5 6 -5 6 -5 5 -5 4 -5 4 -5 4 -5 3 -6 3 -5 2 -6 2 -6 1 -5 1 -6 0 -6 17 0 0 7 -1 7 -2 8 -2 6 -3 7 -3 7 -4 6 -4 7 -5 6 -5 6 -6 5 -6 6 -6 5 -7 5 -7 5 -8 5 -8 4 -8 4 -9 4 -9 4 -9 4 -10 3 -10 3 -10 2 -10 3 -11 2 -10 1 -11 2 -11 1 -12 1 -11 0 -12 1 0 0zm-230 -137l17 0 0 0 0 6 1 6 1 5 2 6 2 6 3 5 3 6 4 5 4 5 5 5 5 5 5 5 6 5 6 5 7 4 7 4 7 4 8 4 8 4 8 4 9 3 9 3 9 3 10 2 10 2 10 2 10 2 10 1 11 1 11 1 11 1 11 0 0 17 -12 -1 -11 0 -11 -1 -12 -1 -11 -2 -10 -1 -11 -2 -10 -3 -10 -2 -10 -3 -10 -3 -9 -4 -9 -4 -8 -4 -9 -4 -8 -4 -7 -5 -8 -5 -7 -5 -6 -5 -6 -6 -6 -5 -5 -6 -5 -6 -4 -7 -4 -6 -3 -7 -3 -7 -2 -6 -2 -8 -1 -7 0 -7 0 0zm230 -137l0 17 0 0 -11 0 -11 1 -11 0 -11 1 -10 2 -10 2 -10 1 -10 3 -10 2 -9 3 -9 3 -9 3 -8 4 -8 3 -8 4 -7 4 -7 5 -7 4 -6 5 -6 4 -5 5 -5 5 -5 6 -4 5 -4 5 -3 6 -3 5 -2 6 -2 5 -1 6 -1 6 0 6 -17 0 0 -7 1 -8 2 -7 2 -7 3 -7 3 -6 4 -7 4 -6 5 -6 5 -6 6 -6 6 -5 6 -6 7 -5 8 -4 7 -5 8 -5 9 -4 8 -4 9 -3 9 -4 10 -3 10 -3 10 -3 10 -2 11 -2 10 -2 11 -1 12 -1 11 -1 11 -1 12 0 0 0z"/>
      </g>
      <g>
       <path class="fil0" d="M7779 1168c122,0 221,58 221,129 0,71 -99,128 -221,128 -122,0 -221,-57 -221,-128 0,-71 99,-129 221,-129z"/>
       <path id="1" class="fil2" d="M8009 1297l-17 0 0 0 0 -6 -1 -6 -1 -6 -2 -5 -2 -6 -3 -6 -3 -5 -4 -5 -4 -6 -4 -5 -5 -5 -6 -5 -6 -4 -6 -5 -7 -5 -7 -4 -7 -4 -8 -4 -8 -3 -8 -4 -9 -3 -9 -3 -9 -3 -10 -2 -10 -3 -10 -2 -10 -1 -10 -2 -11 -1 -11 -1 -11 0 -11 0 0 -17 12 0 11 1 12 0 11 2 11 1 10 2 11 2 10 2 10 3 10 3 10 3 9 3 9 4 9 4 8 4 8 5 8 4 7 5 7 5 6 6 6 5 6 6 5 6 5 6 4 6 4 7 3 6 3 7 2 7 2 7 1 7 0 8 0 0zm-230 136l0 -16 0 0 11 0 11 -1 11 -1 11 -1 10 -1 10 -2 10 -2 10 -2 10 -3 9 -2 9 -3 9 -4 8 -3 8 -4 8 -4 7 -4 7 -4 7 -4 6 -5 6 -5 6 -5 5 -5 4 -5 4 -5 4 -6 3 -5 3 -6 2 -5 2 -6 1 -6 1 -5 0 -6 17 0 0 7 -1 7 -2 7 -2 7 -3 7 -3 7 -4 6 -4 7 -5 6 -5 6 -6 5 -6 6 -6 5 -7 5 -7 5 -8 5 -8 4 -8 4 -9 4 -9 4 -9 3 -10 4 -10 2 -10 3 -10 2 -11 3 -10 1 -11 2 -11 1 -12 1 -11 0 -12 0 0 0zm-230 -136l17 0 0 0 0 6 1 5 1 6 2 6 2 5 3 6 3 5 4 6 4 5 5 5 5 5 5 5 6 5 6 5 7 4 7 4 7 4 8 4 8 4 8 3 9 4 9 3 9 2 10 3 10 2 10 2 10 2 10 1 11 1 11 1 11 1 11 0 0 16 -12 0 -11 0 -11 -1 -12 -1 -11 -2 -10 -1 -11 -3 -10 -2 -10 -3 -10 -2 -10 -4 -9 -3 -9 -4 -8 -4 -9 -4 -8 -4 -7 -5 -8 -5 -7 -5 -6 -5 -6 -6 -6 -5 -5 -6 -5 -6 -4 -7 -4 -6 -3 -7 -3 -7 -2 -7 -2 -7 -1 -7 0 -7 0 0zm230 -137l0 17 0 0 -11 0 -11 0 -11 1 -11 1 -10 2 -10 1 -10 2 -10 3 -10 2 -9 3 -9 3 -9 3 -8 4 -8 3 -8 4 -7 4 -7 4 -7 5 -6 5 -6 4 -5 5 -5 5 -5 5 -4 6 -4 5 -3 5 -3 6 -2 6 -2 5 -1 6 -1 6 0 6 -17 0 0 -8 1 -7 2 -7 2 -7 3 -7 3 -6 4 -7 4 -6 5 -6 5 -6 6 -6 6 -5 6 -6 7 -5 8 -5 7 -4 8 -5 9 -4 8 -4 9 -4 9 -3 10 -3 10 -3 10 -3 10 -2 11 -2 10 -2 11 -1 12 -2 11 0 11 -1 12 0 0 0z"/>
      </g>
      <g>
       <path class="fil0" d="M7779 1106c122,0 221,58 221,129 0,70 -99,128 -221,128 -122,0 -221,-58 -221,-128 0,-71 99,-129 221,-129z"/>
       <path id="1" class="fil2" d="M8009 1235l-17 0 0 0 0 -6 -1 -6 -1 -6 -2 -6 -2 -5 -3 -6 -3 -5 -4 -5 -4 -6 -4 -5 -5 -5 -6 -5 -6 -5 -6 -4 -7 -5 -7 -4 -7 -4 -8 -4 -8 -4 -8 -3 -9 -3 -9 -3 -9 -3 -10 -3 -10 -2 -10 -2 -10 -1 -10 -2 -11 -1 -11 -1 -11 0 -11 0 0 -17 12 0 11 0 12 1 11 1 11 2 10 2 11 2 10 2 10 3 10 3 10 3 9 3 9 4 9 4 8 4 8 5 8 4 7 5 7 5 6 5 6 6 6 6 5 6 5 6 4 6 4 6 3 7 3 7 2 7 2 7 1 7 0 8 0 0zm-230 136l0 -16 0 0 11 -1 11 0 11 -1 11 -1 10 -1 10 -2 10 -2 10 -2 10 -3 9 -3 9 -3 9 -3 8 -3 8 -4 8 -4 7 -4 7 -4 7 -5 6 -4 6 -5 6 -5 5 -5 4 -5 4 -5 4 -6 3 -5 3 -6 2 -5 2 -6 1 -6 1 -6 0 -5 17 0 0 7 -1 7 -2 7 -2 7 -3 7 -3 7 -4 6 -4 6 -5 7 -5 5 -6 6 -6 6 -6 5 -7 5 -7 5 -8 5 -8 4 -8 4 -9 4 -9 4 -9 3 -10 3 -10 3 -10 3 -10 2 -11 2 -10 2 -11 2 -11 1 -12 1 -11 0 -12 0 0 0zm-230 -136l17 0 0 0 0 5 1 6 1 6 2 6 2 5 3 6 3 5 4 6 4 5 5 5 5 5 5 5 6 5 6 4 7 5 7 4 7 4 8 4 8 4 8 3 9 3 9 3 9 3 10 3 10 2 10 2 10 2 10 1 11 1 11 1 11 0 11 1 0 16 -12 0 -11 0 -11 -1 -12 -1 -11 -2 -10 -2 -11 -2 -10 -2 -10 -3 -10 -3 -10 -3 -9 -3 -9 -4 -8 -4 -9 -4 -8 -4 -7 -5 -8 -5 -7 -5 -6 -5 -6 -6 -6 -6 -5 -5 -5 -7 -4 -6 -4 -6 -3 -7 -3 -7 -2 -7 -2 -7 -1 -7 0 -7 0 0zm230 -137l0 17 0 0 -11 0 -11 0 -11 1 -11 1 -10 2 -10 1 -10 2 -10 2 -10 3 -9 3 -9 3 -9 3 -8 3 -8 4 -8 4 -7 4 -7 4 -7 5 -6 4 -6 5 -5 5 -5 5 -5 5 -4 6 -4 5 -3 5 -3 6 -2 5 -2 6 -1 6 -1 6 0 6 -17 0 0 -8 1 -7 2 -7 2 -7 3 -7 3 -7 4 -6 4 -6 5 -6 5 -6 6 -6 6 -6 6 -5 7 -5 8 -5 7 -4 8 -5 9 -4 8 -4 9 -4 9 -3 10 -3 10 -3 10 -3 10 -2 11 -2 10 -2 11 -2 12 -1 11 -1 11 0 12 0 0 0z"/>
      </g>
      <g>
       <path class="fil0" d="M7779 1044c122,0 221,58 221,128 0,71 -99,129 -221,129 -122,0 -221,-58 -221,-129 0,-70 99,-128 221,-128z"/>
       <path id="1" class="fil2" d="M8009 1172l-17 0 0 0 0 -5 -1 -6 -1 -6 -2 -6 -2 -5 -3 -6 -3 -5 -4 -6 -4 -5 -4 -5 -5 -5 -6 -5 -6 -5 -6 -4 -7 -5 -7 -4 -7 -4 -8 -4 -8 -4 -8 -3 -9 -3 -9 -3 -9 -3 -10 -3 -10 -2 -10 -2 -10 -2 -10 -1 -11 -1 -11 -1 -11 0 -11 -1 0 -16 12 0 11 0 12 1 11 1 11 2 10 2 11 2 10 2 10 3 10 3 10 3 9 3 9 4 9 4 8 4 8 4 8 5 7 5 7 5 6 5 6 6 6 6 5 5 5 7 4 6 4 6 3 7 3 7 2 7 2 7 1 7 0 7 0 0zm-230 137l0 -17 0 0 11 0 11 0 11 -1 11 -1 10 -2 10 -1 10 -2 10 -2 10 -3 9 -3 9 -3 9 -3 8 -3 8 -4 8 -4 7 -4 7 -4 7 -5 6 -4 6 -5 6 -5 5 -5 4 -5 4 -6 4 -5 3 -5 3 -6 2 -5 2 -6 1 -6 1 -6 0 -6 17 0 0 8 -1 7 -2 7 -2 7 -3 7 -3 7 -4 6 -4 6 -5 6 -5 6 -6 6 -6 6 -6 5 -7 5 -7 5 -8 4 -8 5 -8 4 -9 4 -9 4 -9 3 -10 3 -10 3 -10 3 -10 2 -11 2 -10 2 -11 1 -11 2 -12 0 -11 1 -12 0 0 0zm-230 -137l17 0 0 0 0 6 1 6 1 6 2 6 2 5 3 6 3 5 4 5 4 6 5 5 5 5 5 5 6 5 6 4 7 5 7 4 7 4 8 4 8 4 8 3 9 3 9 3 9 3 10 3 10 2 10 2 10 1 10 2 11 1 11 1 11 0 11 0 0 17 -12 0 -11 -1 -11 0 -12 -2 -11 -1 -10 -2 -11 -2 -10 -2 -10 -3 -10 -3 -10 -3 -9 -3 -9 -4 -8 -4 -9 -4 -8 -5 -7 -4 -8 -5 -7 -5 -6 -5 -6 -6 -6 -6 -5 -6 -5 -6 -4 -6 -4 -6 -3 -7 -3 -7 -2 -7 -2 -7 -1 -7 0 -8 0 0zm230 -136l0 16 0 0 -11 1 -11 0 -11 1 -11 1 -10 1 -10 2 -10 2 -10 2 -10 3 -9 3 -9 3 -9 3 -8 3 -8 4 -8 4 -7 4 -7 4 -7 5 -6 4 -6 5 -5 5 -5 5 -5 5 -4 5 -4 6 -3 5 -3 6 -2 5 -2 6 -1 6 -1 6 0 5 -17 0 0 -7 1 -7 2 -7 2 -7 3 -7 3 -7 4 -6 4 -6 5 -7 5 -5 6 -6 6 -6 6 -5 7 -5 8 -5 7 -5 8 -4 9 -4 8 -4 9 -4 9 -3 10 -3 10 -3 10 -3 10 -2 11 -2 10 -2 11 -2 12 -1 11 -1 11 0 12 0 0 0z"/>
      </g>
      <g>
       <path class="fil0" d="M7779 982c122,0 221,57 221,128 0,71 -99,129 -221,129 -122,0 -221,-58 -221,-129 0,-71 99,-128 221,-128z"/>
       <path id="1" class="fil2" d="M8009 1110l-17 0 0 0 0 -6 -1 -5 -1 -6 -2 -6 -2 -5 -3 -6 -3 -5 -4 -6 -4 -5 -4 -5 -5 -5 -6 -5 -6 -5 -6 -5 -7 -4 -7 -4 -7 -4 -8 -4 -8 -4 -8 -3 -9 -4 -9 -3 -9 -2 -10 -3 -10 -2 -10 -2 -10 -2 -10 -1 -11 -1 -11 -1 -11 -1 -11 0 0 -16 12 0 11 0 12 1 11 1 11 2 10 1 11 2 10 3 10 2 10 3 10 4 9 3 9 4 9 4 8 4 8 4 8 5 7 5 7 5 6 5 6 6 6 5 5 6 5 6 4 7 4 6 3 7 3 7 2 7 2 7 1 7 0 7 0 0zm-230 137l0 -17 0 0 11 0 11 0 11 -1 11 -1 10 -2 10 -1 10 -2 10 -3 10 -2 9 -3 9 -3 9 -3 8 -4 8 -3 8 -4 7 -4 7 -4 7 -5 6 -5 6 -4 6 -5 5 -5 4 -5 4 -6 4 -5 3 -6 3 -5 2 -6 2 -5 1 -6 1 -6 0 -6 17 0 0 8 -1 7 -2 7 -2 7 -3 7 -3 6 -4 7 -4 6 -5 6 -5 6 -6 6 -6 5 -6 6 -7 5 -7 5 -8 4 -8 5 -8 4 -9 4 -9 3 -9 4 -10 3 -10 3 -10 3 -10 2 -11 2 -10 2 -11 1 -11 1 -12 1 -11 1 -12 0 0 0zm-230 -137l17 0 0 0 0 6 1 6 1 6 2 5 2 6 3 5 3 6 4 5 4 6 5 5 5 5 5 5 6 4 6 5 7 5 7 4 7 4 8 4 8 3 8 4 9 3 9 3 9 3 10 2 10 3 10 2 10 1 10 2 11 1 11 1 11 0 11 0 0 17 -12 0 -11 -1 -11 -1 -12 -1 -11 -1 -10 -2 -11 -2 -10 -2 -10 -3 -10 -3 -10 -3 -9 -4 -9 -3 -8 -4 -9 -4 -8 -5 -7 -4 -8 -5 -7 -5 -6 -6 -6 -5 -6 -6 -5 -6 -5 -6 -4 -6 -4 -7 -3 -6 -3 -7 -2 -7 -2 -7 -1 -7 0 -8 0 0zm230 -136l0 16 0 0 -11 0 -11 1 -11 1 -11 1 -10 1 -10 2 -10 2 -10 2 -10 3 -9 2 -9 3 -9 4 -8 3 -8 4 -8 4 -7 4 -7 4 -7 4 -6 5 -6 5 -5 5 -5 5 -5 5 -4 5 -4 6 -3 5 -3 6 -2 5 -2 6 -1 6 -1 5 0 6 -17 0 0 -7 1 -7 2 -7 2 -7 3 -7 3 -7 4 -6 4 -7 5 -6 5 -6 6 -5 6 -6 6 -5 7 -5 8 -5 7 -5 8 -4 9 -4 8 -4 9 -4 9 -3 10 -4 10 -3 10 -2 10 -3 11 -2 10 -1 11 -2 12 -1 11 -1 11 0 12 0 0 0z"/>
      </g>
      <g>
       <path class="fil0" d="M7779 920c122,0 221,57 221,128 0,71 -99,128 -221,128 -122,0 -221,-57 -221,-128 0,-71 99,-128 221,-128z"/>
       <path id="1" class="fil2" d="M8009 1048l-17 0 0 0 0 -6 -1 -6 -1 -5 -2 -6 -2 -6 -3 -5 -3 -6 -4 -5 -4 -5 -4 -5 -5 -5 -6 -5 -6 -5 -6 -5 -7 -4 -7 -4 -7 -5 -8 -3 -8 -4 -8 -4 -9 -3 -9 -3 -9 -3 -10 -2 -10 -2 -10 -2 -10 -2 -10 -1 -11 -1 -11 -1 -11 -1 -11 0 0 -17 12 1 11 0 12 1 11 1 11 2 10 1 11 2 10 3 10 2 10 3 10 3 9 4 9 4 9 4 8 4 8 4 8 5 7 5 7 5 6 5 6 6 6 5 5 6 5 6 4 7 4 6 3 7 3 6 2 7 2 8 1 7 0 7 0 0zm-230 137l0 -17 0 0 11 0 11 -1 11 0 11 -1 10 -2 10 -2 10 -2 10 -2 10 -2 9 -3 9 -3 9 -3 8 -4 8 -3 8 -4 7 -4 7 -5 7 -4 6 -5 6 -4 6 -5 5 -5 4 -6 4 -5 4 -5 3 -6 3 -5 2 -6 2 -5 1 -6 1 -6 0 -6 17 0 0 7 -1 8 -2 7 -2 7 -3 7 -3 6 -4 7 -4 6 -5 6 -5 6 -6 6 -6 5 -6 6 -7 5 -7 4 -8 5 -8 5 -8 4 -9 4 -9 3 -9 4 -10 3 -10 3 -10 3 -10 2 -11 2 -10 2 -11 1 -11 1 -12 1 -11 1 -12 0 0 0zm-230 -137l17 0 0 0 0 6 1 6 1 6 2 5 2 6 3 5 3 6 4 5 4 5 5 6 5 5 5 5 6 4 6 5 7 4 7 5 7 4 8 4 8 3 8 4 9 3 9 3 9 3 10 2 10 2 10 2 10 2 10 2 11 1 11 0 11 1 11 0 0 17 -12 0 -11 -1 -11 -1 -12 -1 -11 -1 -10 -2 -11 -2 -10 -2 -10 -3 -10 -3 -10 -3 -9 -4 -9 -3 -8 -4 -9 -4 -8 -5 -7 -5 -8 -4 -7 -5 -6 -6 -6 -5 -6 -6 -5 -6 -5 -6 -4 -6 -4 -7 -3 -6 -3 -7 -2 -7 -2 -7 -1 -8 0 -7 0 0zm230 -137l0 17 0 0 -11 0 -11 1 -11 1 -11 1 -10 1 -10 2 -10 2 -10 2 -10 2 -9 3 -9 3 -9 3 -8 4 -8 4 -8 3 -7 5 -7 4 -7 4 -6 5 -6 5 -5 5 -5 5 -5 5 -4 5 -4 5 -3 6 -3 5 -2 6 -2 6 -1 5 -1 6 0 6 -17 0 0 -7 1 -7 2 -8 2 -7 3 -6 3 -7 4 -6 4 -7 5 -6 5 -6 6 -5 6 -6 6 -5 7 -5 8 -5 7 -5 8 -4 9 -4 8 -4 9 -4 9 -4 10 -3 10 -3 10 -2 10 -3 11 -2 10 -1 11 -2 12 -1 11 -1 11 0 12 -1 0 0z"/>
      </g>
      <g>
       <path class="fil0" d="M7779 858c122,0 221,57 221,128 0,71 -99,128 -221,128 -122,0 -221,-57 -221,-128 0,-71 99,-128 221,-128z"/>
       <path id="1" class="fil2" d="M8009 986l-17 0 0 0 0 -6 -1 -6 -1 -5 -2 -6 -2 -6 -3 -5 -3 -6 -4 -5 -4 -5 -4 -5 -5 -6 -6 -4 -6 -5 -6 -5 -7 -4 -7 -5 -7 -4 -8 -4 -8 -3 -8 -4 -9 -3 -9 -3 -9 -3 -10 -2 -10 -2 -10 -2 -10 -2 -10 -1 -11 -2 -11 0 -11 -1 -11 0 0 -17 12 0 11 1 12 1 11 1 11 1 10 2 11 2 10 3 10 2 10 3 10 3 9 4 9 3 9 4 8 5 8 4 7 5 8 5 7 5 6 5 6 5 6 6 5 6 5 6 4 6 4 7 3 7 3 6 2 7 2 7 1 8 0 7 0 0zm-230 137l0 -17 0 0 11 0 11 -1 11 0 11 -2 10 -1 10 -2 10 -2 10 -2 10 -2 9 -3 9 -3 9 -3 8 -4 8 -3 8 -4 7 -4 7 -5 7 -4 6 -5 6 -5 6 -4 5 -6 4 -5 4 -5 4 -5 3 -6 3 -5 2 -6 2 -6 1 -5 1 -6 0 -6 17 0 0 7 -1 8 -2 7 -2 7 -3 6 -3 7 -4 7 -4 6 -5 6 -5 6 -6 6 -6 5 -6 5 -7 5 -8 5 -7 5 -8 4 -8 5 -9 4 -9 3 -9 4 -10 3 -10 3 -10 2 -10 3 -11 2 -10 2 -11 1 -11 1 -12 1 -11 1 -12 0 0 0zm-230 -137l17 0 0 0 0 6 1 6 1 5 2 6 2 6 3 5 3 6 4 5 4 5 5 5 5 6 5 4 6 5 6 5 7 4 7 5 7 4 8 4 8 3 8 4 9 3 9 3 9 3 10 2 10 2 10 2 10 2 10 1 11 2 11 0 11 1 11 0 0 17 -12 0 -11 -1 -11 -1 -12 -1 -11 -1 -10 -2 -11 -2 -10 -3 -10 -2 -10 -3 -10 -3 -9 -4 -9 -3 -8 -4 -9 -5 -8 -4 -7 -5 -8 -5 -7 -5 -6 -5 -6 -5 -6 -6 -5 -6 -5 -6 -4 -6 -4 -7 -3 -7 -3 -6 -2 -7 -2 -7 -1 -8 0 -7 0 0zm230 -137l0 17 0 0 -11 0 -11 1 -11 0 -11 2 -10 1 -10 2 -10 2 -10 2 -10 2 -9 3 -9 3 -9 3 -8 4 -8 3 -8 4 -7 4 -7 5 -7 4 -6 5 -6 5 -5 4 -5 6 -5 5 -4 5 -4 5 -3 6 -3 5 -2 6 -2 6 -1 5 -1 6 0 6 -17 0 0 -7 1 -8 2 -7 2 -7 3 -6 3 -7 4 -7 4 -6 5 -6 5 -6 6 -6 6 -5 6 -5 7 -5 8 -5 7 -5 8 -4 9 -5 8 -4 9 -3 9 -4 10 -3 10 -3 10 -2 10 -3 11 -2 10 -2 11 -1 12 -1 11 -1 11 -1 12 0 0 0z"/>
      </g>
     </g>
    </g>
    <g>
     <path class="fil2" d="M7779 1558l0 -17 0 0 11 0 11 -1 11 0 10 -2 11 -1 10 -2 10 -2 10 -2 9 -2 10 -3 9 -3 8 -3 9 -4 8 -3 7 -4 8 -4 7 -5 7 -4 6 -5 6 -5 5 -4 5 -5 5 -6 4 -5 3 -5 4 -6 2 -5 3 -6 1 -6 2 -5 0 -6 1 -6 16 0 0 7 -1 8 -1 7 -3 7 -2 6 -3 7 -4 7 -5 6 -4 6 -6 6 -5 6 -6 5 -7 5 -7 6 -7 4 -8 5 -8 4 -8 5 -9 4 -9 3 -9 4 -9 3 -10 3 -10 2 -11 3 -10 2 -11 2 -11 1 -11 1 -11 1 -12 1 -11 0 0 0zm-230 -137l17 0 0 0 0 6 1 6 1 5 2 6 2 6 3 5 3 6 3 5 5 5 4 6 5 5 6 4 5 5 7 5 6 4 7 5 8 4 7 4 9 3 8 4 9 3 9 3 9 3 9 2 10 2 10 2 11 2 10 1 11 2 10 0 11 1 12 0 0 17 -12 0 -12 -1 -11 -1 -11 -1 -11 -1 -11 -2 -10 -2 -11 -3 -10 -2 -10 -3 -9 -3 -9 -4 -9 -3 -9 -4 -8 -5 -8 -4 -8 -5 -7 -4 -7 -6 -7 -5 -6 -5 -5 -6 -6 -6 -4 -6 -5 -6 -3 -7 -4 -7 -2 -6 -2 -7 -2 -7 -1 -8 0 -7 0 0zm0 0c0,-5 4,-8 8,-8 5,0 9,3 9,8l-17 0zm17 -435l0 435 -17 0 0 -435 0 0 17 0zm-17 0c0,-5 4,-8 8,-8 5,0 9,3 9,8l-17 0zm230 -137l0 17 0 0 -12 0 -11 1 -10 0 -11 2 -10 1 -11 2 -10 2 -10 2 -9 2 -9 3 -9 3 -9 3 -8 4 -9 3 -7 4 -8 4 -7 5 -6 4 -7 5 -5 5 -6 4 -5 6 -4 5 -5 5 -3 5 -3 6 -3 5 -2 6 -2 6 -1 5 -1 6 0 6 -17 0 0 -7 1 -8 2 -7 2 -7 2 -6 4 -7 3 -7 5 -6 4 -6 6 -6 5 -6 6 -5 7 -5 7 -5 7 -5 8 -5 8 -4 8 -5 9 -4 9 -3 9 -4 9 -3 10 -3 10 -2 11 -3 10 -2 11 -2 11 -1 11 -1 11 -1 12 -1 12 0 0 0zm229 137l-16 0 0 0 -1 -6 0 -6 -2 -5 -1 -6 -3 -6 -2 -5 -4 -6 -3 -5 -4 -5 -5 -5 -5 -6 -5 -4 -6 -5 -6 -5 -7 -4 -7 -5 -8 -4 -7 -4 -8 -3 -9 -4 -8 -3 -9 -3 -10 -3 -9 -2 -10 -2 -10 -2 -10 -2 -11 -1 -10 -2 -11 0 -11 -1 -11 0 0 -17 11 0 12 1 11 1 11 1 11 1 11 2 10 2 11 3 10 2 10 3 9 3 9 4 9 3 9 4 8 5 8 4 8 5 7 5 7 5 7 5 6 5 5 6 6 6 4 6 5 6 4 7 3 7 2 6 3 7 1 7 1 8 0 7 0 0zm0 0c0,5 -3,8 -8,8 -5,0 -8,-3 -8,-8l16 0zm-16 435l0 -435 16 0 0 435 0 0 -16 0zm16 0c0,5 -3,8 -8,8 -5,0 -8,-3 -8,-8l16 0z"/>
    </g>
    <line class="fil1 str7" x1="7716" y1="980" x2="7650" y2= "511" />
    <line class="fil1 str7" x1="7841" y1="980" x2="7937" y2= "511" />
    <polyline class="fil1 str7" points="7650,511 7722,469 7722,552 7794,428 7794,593 7865,469 7865,552 7937,511 "/>
    <circle class="fil1 str6" cx="7779" cy="576" r="576"/>
   </g>
   <g>
    <polygon class="fil0 str8" points="2846,1145 2613,1549 2147,1280 1913,607 2147,203 2613,472 "/>
    <path class="fil0" d="M2379 1169c65,37 130,46 180,18 50,-29 75,-90 75,-165 0,-75 -25,-164 -75,-250 -49,-85 -114,-151 -179,-189 -65,-37 -130,-46 -179,-17 -50,28 -75,89 -75,164 0,75 25,164 74,250 50,86 114,152 179,189z"/>
    <g style="clip-path:url(#id1)">
     <g>
      <path id="1" class="fil1 str9" d="M2418 1146c65,38 130,47 180,18 50,-29 75,-89 75,-164 0,-75 -25,-164 -74,-250 -50,-86 -115,-152 -180,-189 -65,-38 -130,-47 -179,-18 -50,29 -75,90 -75,165 0,74 25,164 74,249 50,86 115,152 179,189z"/>
      <path class="fil1 str10" d="M2457 1124c65,37 130,46 180,18 50,-29 75,-90 75,-165 0,-75 -25,-164 -74,-250 -50,-85 -115,-151 -180,-189 -65,-37 -130,-46 -179,-17 -50,28 -75,89 -75,164 0,75 25,164 74,250 50,85 115,151 179,189z"/>
      <path class="fil1 str11" d="M2497 1101c65,38 130,47 179,18 50,-29 75,-89 75,-164 0,-75 -25,-165 -74,-250 -50,-86 -115,-152 -180,-189 -65,-38 -130,-47 -179,-18 -50,29 -75,89 -75,164 0,75 25,165 74,250 50,86 115,152 180,189z"/>
      <path class="fil1 str12" d="M2536 1079c65,37 130,46 179,17 50,-28 75,-89 75,-164 0,-75 -25,-164 -74,-250 -50,-85 -115,-151 -180,-189 -65,-37 -130,-46 -179,-18 -50,29 -75,90 -75,165 0,75 25,164 74,250 50,85 115,151 180,189z"/>
      <path class="fil1 str13" d="M2577 1055c65,37 130,46 180,17 50,-28 75,-89 75,-164 0,-75 -25,-164 -74,-250 -50,-86 -115,-152 -180,-189 -65,-38 -130,-46 -179,-18 -50,29 -75,90 -75,165 0,75 25,164 74,249 50,86 115,152 179,190z"/>
      <path class="fil1 str14" d="M2616 1032c65,38 131,46 180,18 50,-29 75,-90 75,-165 0,-75 -25,-164 -74,-249 -50,-86 -115,-152 -180,-190 -65,-37 -130,-46 -179,-17 -50,28 -75,89 -75,164 0,75 25,164 74,250 50,86 115,152 179,189z"/>
      <path class="fil1 str15" d="M2656 1010c65,37 130,46 179,17 50,-28 75,-89 75,-164 0,-75 -25,-164 -74,-250 -50,-86 -115,-152 -180,-189 -65,-38 -130,-47 -179,-18 -50,29 -75,90 -75,165 0,75 25,164 74,249 50,86 115,152 180,190z"/>
      <path class="fil1 str16" d="M2695 987c65,37 130,46 179,18 50,-29 75,-90 75,-165 0,-75 -25,-164 -74,-250 -50,-85 -115,-151 -180,-189 -65,-37 -130,-46 -179,-17 -50,28 -75,89 -75,164 0,75 25,164 74,250 50,86 115,152 180,189z"/>
     </g>
    </g>
    <path class="fil1 str17" d="M2379 1169c65,37 130,46 180,18 50,-29 75,-90 75,-165 0,-75 -25,-164 -75,-250 -49,-85 -114,-151 -179,-189 -65,-37 -130,-46 -179,-17 -50,28 -75,89 -75,164 0,75 25,164 74,250 50,86 114,152 179,189z"/>
    <polygon class="fil0 str18" points="2613,472 2147,203 2498,0 2964,269 3198,943 2964,1346 2613,1549 2848,1147 "/>
    <polygon class="fil0 str18" points="3198,943 2964,269 2613,472 2848,1147 "/>
   </g>
   <g>
    <path class="fil0 str19" d="M0 613l0 -1 0 -1c0,-57 19,-124 56,-189 38,-65 87,-115 136,-143 49,-29 99,-36 136,-14 35,20 54,61 56,112l0 0c1,4 1,9 1,13 0,4 0,9 -1,13l0 196c1,4 1,9 1,13 0,57 -19,124 -56,189 -38,65 -87,115 -136,143 -50,29 -99,36 -136,14 -38,-22 -57,-68 -57,-125l0 -2 0 -218z"/>
    <g>
     <polygon class="fil0" points="442,480 425,324 328,269 328,449 "/>
     <polygon class="fil0" points="39,806 57,961 153,1017 153,836 "/>
    </g>
    <path class="fil0 str19" d="M97 669l0 -2 0 0c0,-57 18,-125 56,-190 37,-65 86,-115 136,-143 49,-28 98,-35 136,-13 35,20 53,61 56,112l0 0c0,4 0,8 0,12 0,5 0,9 0,13l0 197c0,4 0,8 0,12 0,57 -18,125 -56,190 -37,65 -87,115 -136,143 -49,28 -98,35 -136,13 -38,-21 -56,-67 -56,-124l0 -2 0 -218z"/>
    <line class="fil1 str19" x1="153" y1="1013" x2="57" y2= "958" />
    <line class="fil1 str19" x1="425" y1="321" x2="328" y2= "265" />
    <g>
     <path class="fil0 str19" d="M195 403c-2,-121 36,-220 116,-268 30,-18 65,-28 101,-29 -29,51 -43,116 -42,190l0 0 -174 106 -1 1zm218 -297c9,0 18,0 28,0 -10,0 -19,0 -28,0zm37 1c7,1 14,2 21,3 -7,-1 -14,-2 -21,-3zm48 9c4,1 8,2 12,3 -4,-1 -8,-2 -12,-3z"/>
     <polygon class="fil3 str19" points="1025,860 1200,755 1209,971 1028,1080 "/>
     <polygon class="fil0 str19" points="196,402 370,296 379,512 198,621 "/>
     <polygon class="fil0" points="446,54 459,78 408,108 406,114 399,114 324,159 313,137 "/>
     <line class="fil1 str19" x1="486" y1="30" x2="311" y2= "135" />
     <line class="fil1 str19" x1="370" y1="296" x2="196" y2= "402" />
     <line class="fil1 str19" x1="1200" y1="755" x2="1023" y2= "861" />
     <path class="fil3 str19" d="M1073 352c82,138 125,282 127,403l-176 106c-1,-122 -44,-266 -127,-403 -133,-221 -330,-358 -485,-352 19,-32 43,-58 74,-76 159,-96 421,48 587,322zm-694 -154c0,-4 1,-8 2,-12 -1,4 -2,8 -2,12zm7 -30c3,-10 6,-19 10,-28 -4,9 -7,18 -10,28zm14 -37c3,-8 8,-17 12,-25 -4,8 -9,17 -12,25z"/>
     <polygon class="fil3" points="416,113 365,119 335,129 380,91 432,57 "/>
    </g>
    <path class="fil0 str19" d="M930 1136l0 -1 0 -1c0,-56 19,-124 56,-189 38,-65 87,-115 136,-143 49,-29 99,-35 136,-14 35,20 54,61 57,112l0 0c0,5 0,9 0,13 0,4 0,9 0,13l0 196c0,4 0,9 0,13 0,57 -19,124 -56,189 -38,65 -87,115 -136,144 -49,28 -99,35 -136,13 -38,-22 -57,-68 -57,-125l0 -1 0 -219z"/>
    <g>
     <polygon class="fil0" points="1372,1003 1355,847 1258,792 1258,973 "/>
     <polygon class="fil0" points="969,1329 987,1485 1083,1540 1083,1359 "/>
    </g>
    <path class="fil0 str19" d="M1027 1192l0 -2 0 0c0,-57 18,-125 56,-189 37,-65 87,-115 136,-144 49,-28 98,-35 136,-13 35,20 54,61 56,112l0 0c0,4 0,8 0,12 0,5 0,9 0,14l0 196c0,4 0,8 0,12 0,57 -18,125 -56,190 -37,65 -86,115 -136,143 -49,29 -98,35 -136,14 -37,-22 -56,-68 -56,-125l0 -2 0 -218z"/>
    <line class="fil1 str19" x1="1083" y1="1537" x2="987" y2= "1481" />
    <line class="fil1 str19" x1="1355" y1="844" x2="1258" y2= "788" />
   </g>
   <g>
    <polygon class="fil0 str20" points="9838,138 9616,9 8875,437 8875,1549 9838,993 "/>
    <polygon class="fil3 str20" points="9023,694 9023,1464 9690,1079 9690,309 "/>
    <polygon class="fil0 str21" points="9050,738 9050,1445 9662,1092 9662,385 "/>
    <polygon class="fil0 str22" points="9171,266 9542,52 9542,309 9171,523 "/>
    <polyline class="fil1 str22" points="9171,523 9097,565 9097,309 "/>
    <polygon class="fil3 str22" points="9468,309 9468,138 9394,180 9394,351 "/>
    <polygon class="fil0 str23" points="8856,428 8856,1540 8875,1549 8875,437 "/>
    <polygon class="fil0 str23" points="8875,439 9616,9 9597,0 8856,428 "/>
    <line class="fil1 str24" x1="9662" y1="500" x2="9181" y2= "779" />
    <line class="fil1 str24" x1="9662" y1="671" x2="9181" y2= "950" />
    <line class="fil1 str24" x1="9662" y1="845" x2="9181" y2= "1122" />
    <line class="fil1 str24" x1="9662" y1="1016" x2="9181" y2= "1293" />
   </g>
   <g>
    <polygon class="fil0 str25" points="6592,0 5991,347 5991,1505 6592,1158 "/>
    <line class="fil1 str25" x1="6041" y1="434" x2="6542" y2= "145" />
    <line class="fil1 str25" x1="6041" y1="492" x2="6442" y2= "261" />
    <line class="fil1 str25" x1="6041" y1="550" x2="6291" y2= "405" />
    <line class="fil1 str25" x1="6041" y1="608" x2="6492" y2= "347" />
    <line class="fil1 str25" x1="6041" y1="666" x2="6392" y2= "463" />
    <polygon class="fil0 str25" points="6291,579 6041,724 6041,1013 6291,868 6291,637 "/>
    <line class="fil1 str25" x1="6342" y1="550" x2="6442" y2= "492" />
    <line class="fil1 str25" x1="6342" y1="608" x2="6492" y2= "521" />
    <line class="fil1 str25" x1="6342" y1="666" x2="6442" y2= "608" />
    <polyline class="fil1 str25" points="6041,1071 6492,811 6492,868 "/>
    <polyline class="fil1 str25" points="6492,868 6041,1129 6041,1071 "/>
    <line class="fil1 str25" x1="6041" y1="1187" x2="6241" y2= "1071" />
    <line class="fil1 str25" x1="6041" y1="1245" x2="6442" y2= "1013" />
    <line class="fil1 str25" x1="6041" y1="1303" x2="6542" y2= "1013" />
    <line class="fil1 str25" x1="6041" y1="1361" x2="6342" y2= "1187" />
    <line class="fil1 str25" x1="6041" y1="1419" x2="6492" y2= "1158" />
    <polygon class="fil0 str25" points="6701,44 6099,391 6099,1549 6701,1202 "/>
    <line class="fil1 str25" x1="6149" y1="478" x2="6651" y2= "189" />
    <line class="fil1 str25" x1="6149" y1="536" x2="6550" y2= "305" />
    <line class="fil1 str25" x1="6149" y1="594" x2="6400" y2= "449" />
    <line class="fil1 str25" x1="6149" y1="652" x2="6600" y2= "391" />
    <line class="fil1 str25" x1="6149" y1="710" x2="6500" y2= "507" />
    <polygon class="fil0 str25" points="6400,623 6149,768 6149,1057 6400,912 6400,681 "/>
    <line class="fil1 str25" x1="6450" y1="594" x2="6550" y2= "536" />
    <line class="fil1 str25" x1="6450" y1="652" x2="6600" y2= "565" />
    <line class="fil1 str25" x1="6450" y1="710" x2="6550" y2= "652" />
    <polyline class="fil1 str25" points="6149,1115 6600,855 6600,912 "/>
    <polyline class="fil1 str25" points="6600,912 6149,1173 6149,1115 "/>
    <line class="fil1 str25" x1="6149" y1="1231" x2="6350" y2= "1115" />
    <line class="fil1 str25" x1="6149" y1="1289" x2="6550" y2= "1057" />
    <line class="fil1 str25" x1="6149" y1="1347" x2="6651" y2= "1057" />
    <line class="fil1 str25" x1="6149" y1="1405" x2="6450" y2= "1231" />
    <line class="fil1 str25" x1="6149" y1="1463" x2="6600" y2= "1202" />
   </g>
  </g>
 </g>
</svg>
