<svg id="Layer_1" data-name="Layer 1" xmlns="http://www.w3.org/2000/svg" viewBox="0 0 344 63"><defs><style>.cls-1{fill:#3948ff}</style></defs><path class="cls-1" d="M33.09 52.43a23.82 23.82 0 01-9.6 1.83 22.38 22.38 0 01-8.42-1.52 19.4 19.4 0 01-6.53-4.22 19.15 19.15 0 01-4.25-6.42A21.24 21.24 0 012.77 34v-.12a20.15 20.15 0 0112.39-18.77 20.89 20.89 0 018.27-1.61 29.52 29.52 0 014.82.37 22.71 22.71 0 014 1 18.45 18.45 0 013.49 1.69 26.46 26.46 0 013.15 2.31l-5.44 6.63a20.64 20.64 0 00-2.25-1.69 14.92 14.92 0 00-2.33-1.24 13.81 13.81 0 00-2.62-.79 15.66 15.66 0 00-3.1-.28 10.07 10.07 0 00-4.42 1 11.92 11.92 0 00-3.6 2.65A12.22 12.22 0 0012.71 29a13 13 0 00-.87 4.77v.11a13.87 13.87 0 00.87 5 11.7 11.7 0 002.48 4A11.2 11.2 0 0019 45.51a12.07 12.07 0 004.81.93 13.72 13.72 0 008.17-2.38v-5.67h-8.77V30.9h17.11V48a28.91 28.91 0 01-7.23 4.43zM72.58 53.59L64.14 41h-6.82v12.59h-8.67V14.18h18q7 0 11 3.43t3.91 9.57v.12a12.31 12.31 0 01-2.34 7.79 13.5 13.5 0 01-6.1 4.42l9.62 14.08zm.17-26A5 5 0 0071 23.41 7.94 7.94 0 0066 22h-8.68v11.32h8.78A7.24 7.24 0 0071 31.8a5.12 5.12 0 001.72-4.05zM89.35 53.59V14.18H119v7.71H97.91v8h18.58v7.71H97.91v8.28h21.39v7.71zM146.83 37.88v15.71h-8.67V38.05L123 14.18h10.13L142.55 30l9.57-15.82H162zM201.55 53.59h-4.79l-4.61-10.42H170.7L166 53.59h-4.56l18-39.69h4.16zm-20.1-34.46l-9 20.1h18zM219.11 53.59h-4.44v-35.3h-13.23v-4.11h30.9v4.11h-13.23zM321.2 42.78h-.2l-14.38-21.06v31.87h-4.34V14.18h4.51l14.35 21.5 14.36-21.5h4.5v39.41h-4.45V21.67zM265.07 60.51a29.18 29.18 0 1120.59-49.82L283.31 13a25.87 25.87 0 00-40.69 31.23 25.87 25.87 0 0035.38 9.5 25.9 25.9 0 0012-29.1l3.21-.86a29.2 29.2 0 01-28.15 36.74z"/><path class="cls-1" d="M270.26 50.91l-.86-3.21a16.61 16.61 0 004.09-1.7 16.93 16.93 0 10-12.86 1.7l-.86 3.2a20.18 20.18 0 1110.49 0z"/><path class="cls-1" d="M265 42.7a11.37 11.37 0 01-11-14.31l3.21.85a8 8 0 103.79-4.89 8.13 8.13 0 00-1.67 1.28L257 23.28a11.6 11.6 0 012.36-1.8A11.38 11.38 0 11265 42.7z"/></svg>