<?xml version="1.0" encoding="UTF-8"?>
<!DOCTYPE svg PUBLIC "-//W3C//DTD SVG 1.1//EN" "http://www.w3.org/Graphics/SVG/1.1/DTD/svg11.dtd">
<!-- Creator: CorelDRAW X7 -->
<svg xmlns="http://www.w3.org/2000/svg" xml:space="preserve" width="70.1886mm" height="30.5646mm" version="1.1" style="shape-rendering:geometricPrecision; text-rendering:geometricPrecision; image-rendering:optimizeQuality; fill-rule:evenodd; clip-rule:evenodd"
viewBox="0 0 7019 3056"
 xmlns:xlink="http://www.w3.org/1999/xlink">
 <defs>
  <style type="text/css">
   <![CDATA[
    .str49 {stroke:#61003F;stroke-width:8.46;stroke-linecap:round;stroke-linejoin:round}
    .str60 {stroke:#FFF4F0;stroke-width:5.67}
    .str53 {stroke:#61003F;stroke-width:10.88;stroke-linecap:round;stroke-linejoin:round}
    .str56 {stroke:#61003F;stroke-width:10.88;stroke-linecap:round;stroke-linejoin:round}
    .str57 {stroke:#61003F;stroke-width:10.88;stroke-linecap:round;stroke-linejoin:round}
    .str54 {stroke:#61003F;stroke-width:10.89;stroke-linecap:round;stroke-linejoin:round}
    .str52 {stroke:#61003F;stroke-width:10.89;stroke-linecap:round;stroke-linejoin:round}
    .str55 {stroke:#61003F;stroke-width:10.89;stroke-linecap:round;stroke-linejoin:round}
    .str50 {stroke:#61003F;stroke-width:11.49;stroke-linecap:round;stroke-linejoin:round}
    .str48 {stroke:#61003F;stroke-width:11.54;stroke-linecap:round;stroke-linejoin:round}
    .str47 {stroke:#61003F;stroke-width:11.54;stroke-linecap:round;stroke-linejoin:round}
    .str44 {stroke:#61003F;stroke-width:12.13;stroke-linecap:round;stroke-linejoin:round}
    .str43 {stroke:#61003F;stroke-width:12.13;stroke-linecap:round;stroke-linejoin:round}
    .str31 {stroke:#61003F;stroke-width:12.13;stroke-linecap:round;stroke-linejoin:round}
    .str46 {stroke:#61003F;stroke-width:12.13;stroke-linecap:round;stroke-linejoin:round}
    .str38 {stroke:#61003F;stroke-width:12.13;stroke-linecap:round;stroke-linejoin:round}
    .str41 {stroke:#61003F;stroke-width:12.13;stroke-linecap:round;stroke-linejoin:round}
    .str40 {stroke:#61003F;stroke-width:12.13;stroke-linecap:round;stroke-linejoin:round}
    .str29 {stroke:#61003F;stroke-width:12.13;stroke-linecap:round;stroke-linejoin:round}
    .str34 {stroke:#61003F;stroke-width:12.13;stroke-linecap:round;stroke-linejoin:round}
    .str33 {stroke:#61003F;stroke-width:12.13;stroke-linecap:round;stroke-linejoin:round}
    .str17 {stroke:#61003F;stroke-width:12.13;stroke-linecap:round;stroke-linejoin:round}
    .str35 {stroke:#61003F;stroke-width:12.13;stroke-linecap:round;stroke-linejoin:round}
    .str15 {stroke:#61003F;stroke-width:12.13;stroke-linecap:round;stroke-linejoin:round}
    .str37 {stroke:#61003F;stroke-width:12.13;stroke-linecap:round;stroke-linejoin:round}
    .str8 {stroke:#61003F;stroke-width:12.13;stroke-linecap:round;stroke-linejoin:round}
    .str25 {stroke:#61003F;stroke-width:12.13;stroke-linecap:round;stroke-linejoin:round}
    .str5 {stroke:#61003F;stroke-width:12.13;stroke-linecap:round;stroke-linejoin:round}
    .str22 {stroke:#61003F;stroke-width:12.13;stroke-linecap:round;stroke-linejoin:round}
    .str28 {stroke:#61003F;stroke-width:12.13;stroke-linecap:round;stroke-linejoin:round}
    .str24 {stroke:#61003F;stroke-width:12.13;stroke-linecap:round;stroke-linejoin:round}
    .str26 {stroke:#61003F;stroke-width:12.13;stroke-linecap:round;stroke-linejoin:round}
    .str7 {stroke:#61003F;stroke-width:12.13;stroke-linecap:round;stroke-linejoin:round}
    .str23 {stroke:#61003F;stroke-width:12.13;stroke-linecap:round;stroke-linejoin:round}
    .str4 {stroke:#61003F;stroke-width:12.13;stroke-linecap:round;stroke-linejoin:round}
    .str10 {stroke:#61003F;stroke-width:12.13;stroke-linecap:round;stroke-linejoin:round}
    .str6 {stroke:#61003F;stroke-width:12.13;stroke-linecap:round;stroke-linejoin:round}
    .str13 {stroke:#61003F;stroke-width:12.13;stroke-linecap:round;stroke-linejoin:round}
    .str14 {stroke:#61003F;stroke-width:12.13;stroke-linecap:round;stroke-linejoin:round}
    .str11 {stroke:#61003F;stroke-width:12.13;stroke-linecap:round;stroke-linejoin:round}
    .str12 {stroke:#61003F;stroke-width:12.13;stroke-linecap:round;stroke-linejoin:round}
    .str9 {stroke:#61003F;stroke-width:12.13;stroke-linecap:round;stroke-linejoin:round}
    .str27 {stroke:#61003F;stroke-width:12.13;stroke-linecap:round;stroke-linejoin:round}
    .str2 {stroke:#61003F;stroke-width:12.13;stroke-linecap:round;stroke-linejoin:round}
    .str20 {stroke:#61003F;stroke-width:12.13;stroke-linecap:round;stroke-linejoin:round}
    .str1 {stroke:#61003F;stroke-width:12.13;stroke-linecap:round;stroke-linejoin:round}
    .str0 {stroke:#61003F;stroke-width:12.13;stroke-linecap:round;stroke-linejoin:round}
    .str3 {stroke:#61003F;stroke-width:12.13;stroke-linecap:round;stroke-linejoin:round}
    .str18 {stroke:#61003F;stroke-width:12.13;stroke-linecap:round;stroke-linejoin:round}
    .str19 {stroke:#61003F;stroke-width:12.13;stroke-linecap:round;stroke-linejoin:round}
    .str21 {stroke:#61003F;stroke-width:12.13;stroke-linecap:round;stroke-linejoin:round}
    .str32 {stroke:#61003F;stroke-width:12.13;stroke-linecap:round;stroke-linejoin:round}
    .str42 {stroke:#61003F;stroke-width:12.13;stroke-linecap:round;stroke-linejoin:round}
    .str30 {stroke:#61003F;stroke-width:12.13;stroke-linecap:round;stroke-linejoin:round}
    .str45 {stroke:#61003F;stroke-width:12.13;stroke-linecap:round;stroke-linejoin:round}
    .str39 {stroke:#61003F;stroke-width:12.13;stroke-linecap:round;stroke-linejoin:round}
    .str36 {stroke:#61003F;stroke-width:12.13;stroke-linecap:round;stroke-linejoin:round}
    .str16 {stroke:#61003F;stroke-width:12.13;stroke-linecap:round;stroke-linejoin:round}
    .str51 {stroke:#61003F;stroke-width:12.27;stroke-linecap:round;stroke-linejoin:round}
    .str61 {stroke:#FFF4F0;stroke-width:12.6;stroke-linecap:round;stroke-linejoin:round}
    .str59 {stroke:#FFF4F0;stroke-width:12.6;stroke-linecap:round;stroke-linejoin:round}
    .str58 {stroke:#FFF4F0;stroke-width:12.6;stroke-linecap:round;stroke-linejoin:round}
    .fil4 {fill:none}
    .fil1 {fill:#61003F}
    .fil3 {fill:#FFF4F0}
    .fil2 {fill:white}
    .fil5 {fill:#61003F;fill-rule:nonzero}
    .fil0 {fill:#61003F;fill-rule:nonzero}
   ]]>
  </style>
    <clipPath id="id0">
     <path d="M6819 980c31,18 63,23 87,9 24,-14 36,-44 36,-80 0,-36 -12,-79 -36,-121 -24,-42 -55,-74 -87,-92 -31,-18 -63,-22 -87,-8 -24,14 -36,43 -36,79 0,37 12,80 36,122 24,41 55,73 87,91z"/>
    </clipPath>
    <clipPath id="id1">
     <path d="M6506 799c31,19 63,23 87,9 24,-14 36,-43 36,-80 0,-36 -12,-79 -36,-121 -24,-41 -55,-73 -87,-91 -31,-19 -63,-23 -87,-9 -24,14 -36,43 -36,80 0,36 12,79 36,121 24,41 55,73 87,91z"/>
    </clipPath>
 </defs>
 <g id="Layer_x0020_1">
  <metadata id="CorelCorpID_0Corel-Layer"/>
  <g id="_2595009721072">
   <polygon class="fil0" points="1577,1597 1146,1597 1146,1869 1655,1869 1655,2080 872,2080 872,943 1657,943 1657,1154 1146,1154 1146,1394 1577,1394 "/>
   <polygon id="1" class="fil0" points="2208,1771 2434,943 2740,943 2358,2080 2058,2080 1679,943 1982,943 "/>
   <polygon id="2" class="fil0" points="3527,1597 3097,1597 3097,1869 3606,1869 3606,2080 2823,2080 2823,943 3607,943 3607,1154 3097,1154 3097,1394 3527,1394 "/>
   <polygon id="3" class="fil0" points="4666,2080 4394,2080 3991,1373 3991,2080 3717,2080 3717,943 3991,943 4393,1651 4393,943 4666,943 "/>
   <polygon id="4" class="fil0" points="5709,1154 5368,1154 5368,2080 5094,2080 5094,1154 4759,1154 4759,943 5709,943 "/>
   <path id="5" class="fil0" d="M6398 1778c0,-40 -14,-71 -43,-94 -28,-22 -78,-45 -149,-69 -71,-24 -129,-47 -175,-70 -147,-72 -221,-172 -221,-298 0,-63 19,-119 55,-167 37,-48 89,-86 156,-112 67,-27 143,-41 226,-41 82,0 155,15 220,44 65,29 115,71 151,124 36,54 54,116 54,185l-273 0c0,-47 -14,-83 -43,-108 -28,-26 -67,-38 -115,-38 -49,0 -87,10 -116,32 -28,22 -42,49 -42,83 0,29 15,55 47,79 31,24 86,48 164,74 79,25 143,52 194,81 122,71 184,169 184,293 0,100 -38,178 -112,235 -75,56 -178,85 -309,85 -92,0 -175,-17 -250,-50 -74,-33 -131,-78 -168,-136 -38,-57 -57,-123 -57,-198l275 0c0,60 15,105 47,134 31,29 82,44 153,44 46,0 81,-10 108,-30 26,-19 39,-47 39,-82z"/>
   <rect class="fil1" x="1156" y="1603" width="719.306" height="15.9956"/>
   <rect class="fil1" x="2114" y="1237" width="719.306" height="31.9944"/>
   <rect class="fil1" x="1218" y="1465" width="418.42" height="9.30398"/>
   <rect class="fil2" x="856" y="1491" width="719.306" height="31.9944"/>
   <rect class="fil1" x="1999" y="1193" width="539.48" height="14.7008"/>
   <rect class="fil2" x="1936" y="1285" width="418.42" height="9.30398"/>
   <rect class="fil2" x="1739" y="1168" width="539.48" height="4.0955"/>
   <rect class="fil2" x="1172" y="1300" width="359.65" height="31.9944"/>
   <rect class="fil1" x="1133" y="1370" width="330.048" height="21.123"/>
   <rect class="fil1" x="906" y="1951" width="330.048" height="21.123"/>
   <rect class="fil1" x="829" y="1709" width="165.022" height="42.2504"/>
   <rect class="fil1" x="934" y="1768" width="191.989" height="12.2864"/>
   <rect class="fil2" x="768" y="1803" width="330.048" height="42.2504"/>
   <rect class="fil1" x="4188" y="1340" width="719.306" height="15.9956"/>
   <rect class="fil1" x="4871" y="1395" width="719.306" height="31.9944"/>
   <rect class="fil1" x="5146" y="975" width="719.306" height="31.9944"/>
   <rect class="fil1" x="4250" y="1202" width="418.42" height="9.30398"/>
   <rect class="fil2" x="3888" y="1229" width="719.306" height="31.9944"/>
   <rect class="fil2" x="4968" y="1023" width="418.42" height="9.30398"/>
   <rect class="fil2" x="4771" y="905" width="539.48" height="4.0955"/>
   <rect class="fil2" x="4204" y="1038" width="359.65" height="31.9944"/>
   <rect class="fil1" x="4165" y="1107" width="330.048" height="21.123"/>
   <rect class="fil1" x="3938" y="1688" width="330.048" height="21.123"/>
   <rect class="fil1" x="3861" y="1447" width="165.022" height="42.2504"/>
   <rect class="fil1" x="3966" y="1506" width="191.989" height="12.2864"/>
   <rect class="fil2" x="3800" y="1541" width="330.048" height="42.2504"/>
   <rect class="fil1" x="5831" y="1730" width="226.483" height="41.179"/>
   <rect class="fil1" x="5976" y="1788" width="263.492" height="11.9749"/>
   <rect class="fil2" x="5748" y="1822" width="452.969" height="41.179"/>
   <rect class="fil1" x="6506" y="1698" width="452.969" height="20.5874"/>
   <rect class="fil1" x="6545" y="1521" width="263.492" height="11.9749"/>
   <rect class="fil2" x="6317" y="1555" width="452.969" height="41.179"/>
   <rect class="fil1" x="3438" y="1737" width="147.593" height="26.8353"/>
   <rect class="fil1" x="3319" y="1719" width="171.711" height="7.80372"/>
   <rect class="fil2" x="3344" y="1677" width="295.189" height="26.8353"/>
   <rect class="fil1" x="2850" y="1771" width="295.189" height="13.4163"/>
   <rect class="fil1" x="3067" y="1911" width="147.593" height="26.8353"/>
   <rect class="fil1" x="2948" y="1893" width="171.711" height="7.80372"/>
   <rect class="fil2" x="2973" y="1851" width="295.189" height="26.8353"/>
   <path class="fil3 str0" d="M576 2522c-25,15 -51,18 -70,7 -19,-11 -29,-34 -29,-63 0,-29 10,-64 29,-97 19,-33 44,-59 69,-73l0 0 197 -114 0 0c25,-14 50,-18 69,-7 20,12 29,35 29,64 0,29 -9,64 -29,97 -19,33 -44,58 -69,73l0 0 0 0 -196 113 0 0z"/>
   <polygon class="fil3" points="506,2369 841,2175 989,2261 653,2614 506,2529 "/>
   <line class="fil4 str1" x1="506" y1="2369" x2="653" y2= "2454" />
   <line class="fil4 str1" x1="477" y1="2466" x2="625" y2= "2551" />
   <line class="fil4 str1" x1="506" y1="2529" x2="653" y2= "2614" />
   <line class="fil4 str1" x1="832" y1="2171" x2="989" y2= "2261" />
   <path class="fil3 str2" d="M698 2593c-25,15 -50,18 -69,7 -19,-11 -29,-35 -29,-64 0,-29 10,-63 29,-96 19,-33 44,-59 69,-73l0 0 196 -114 1 0c25,-14 50,-18 69,-7 19,11 29,35 29,64 0,29 -10,63 -29,97 -19,33 -44,58 -69,73l0 0 0 0 -196 113 -1 0z"/>
   <path class="fil1 str3" d="M723 2607c-25,15 -50,18 -70,7 -19,-11 -28,-34 -28,-63 0,-29 9,-64 28,-97 19,-33 45,-59 70,-73l0 0 196 -114 0 0c25,-14 50,-18 70,-6 19,11 28,34 28,63 0,29 -9,64 -28,97 -19,33 -44,58 -70,73l0 0 0 0 -196 113 0 0z"/>
   <line class="fil4 str4" x1="486" y1="2415" x2="608" y2= "2486" />
   <line class="fil4 str4" x1="536" y1="2328" x2="659" y2= "2399" />
   <line class="fil4 str4" x1="575" y1="2296" x2="698" y2= "2367" />
   <line class="fil4 str4" x1="674" y1="2239" x2="796" y2= "2310" />
   <line class="fil4 str4" x1="809" y1="2169" x2="932" y2= "2240" />
   <line class="fil4 str5" x1="782" y1="2177" x2="905" y2= "2248" />
   <line class="fil4 str6" x1="754" y1="2190" x2="877" y2= "2261" />
   <line class="fil4 str7" x1="722" y1="2206" x2="845" y2= "2277" />
   <line class="fil4 str8" x1="700" y1="2223" x2="824" y2= "2294" />
   <line class="fil4 str9" x1="642" y1="2257" x2="764" y2= "2326" />
   <line class="fil4 str10" x1="608" y1="2277" x2="731" y2= "2347" />
   <polygon class="fil3 str11" points="994,2671 711,2508 994,2345 1276,2508 "/>
   <polygon class="fil3 str12" points="994,2590 711,2427 994,2264 1276,2427 "/>
   <polygon class="fil3 str12" points="994,2590 711,2427 711,2508 994,2671 "/>
   <polygon class="fil3 str12" points="994,2671 994,2590 1276,2427 1276,2508 "/>
   <polygon class="fil3 str13" points="994,2543 803,2433 994,2323 1185,2433 "/>
   <polygon class="fil3 str14" points="994,2488 803,2378 994,2267 1185,2378 "/>
   <polygon class="fil3 str14" points="994,2488 803,2378 803,2433 994,2543 "/>
   <polygon class="fil3 str14" points="994,2543 994,2488 1185,2378 1185,2433 "/>
   <g>
    <path class="fil3" d="M613 1570l0 0 0 0zm-85 150l14 8 -14 -8zm0 0c-12,-7 -18,-21 -18,-39 0,-18 6,-40 18,-61 12,-20 28,-36 43,-45 15,-9 30,-11 42,-5 6,3 12,6 17,10 -17,-8 -28,-7 -45,3 -15,9 -31,25 -43,45 -12,21 -18,43 -18,61 0,18 4,28 18,39 -5,-2 -9,-5 -14,-8z"/>
    <path id="1" class="fil4 str15" d="M613 1570l0 0m-85 150l14 8m-14 -8c-12,-7 -18,-21 -18,-39 0,-18 6,-40 18,-61 12,-20 28,-36 43,-45 15,-9 30,-11 42,-5 6,3 12,6 17,10 -17,-8 -28,-7 -45,3 -15,9 -31,25 -43,45 -12,21 -18,43 -18,61 0,18 4,28 18,39 -5,-2 -9,-5 -14,-8z"/>
   </g>
   <path class="fil3 str16" d="M585 1724c-15,9 -31,11 -43,4 -12,-7 -18,-21 -18,-39 0,-18 6,-40 18,-61 12,-20 28,-36 43,-45 16,-9 32,-11 43,-4 12,7 18,21 18,39 0,18 -5,40 -17,60 -12,21 -28,37 -44,46z"/>
   <line class="fil4 str17" x1="519" y1="1712" x2="534" y2= "1720" />
   <line class="fil4 str17" x1="511" y1="1691" x2="525" y2= "1699" />
   <line class="fil4 str17" x1="510" y1="1675" x2="524" y2= "1683" />
   <line class="fil4 str17" x1="513" y1="1660" x2="526" y2= "1668" />
   <line class="fil4 str17" x1="516" y1="1646" x2="530" y2= "1654" />
   <line class="fil4 str17" x1="522" y1="1633" x2="535" y2= "1641" />
   <line class="fil4 str17" x1="528" y1="1621" x2="542" y2= "1629" />
   <line class="fil4 str17" x1="535" y1="1609" x2="549" y2= "1617" />
   <line class="fil4 str17" x1="544" y1="1598" x2="558" y2= "1606" />
   <line class="fil4 str17" x1="554" y1="1588" x2="568" y2= "1596" />
   <line class="fil4 str17" x1="566" y1="1578" x2="580" y2= "1586" />
   <line class="fil4 str17" x1="580" y1="1571" x2="594" y2= "1579" />
   <line class="fil4 str17" x1="601" y1="1567" x2="615" y2= "1575" />
   <path class="fil3 str18" d="M1007 2771c-25,15 -50,18 -70,7 -19,-11 -28,-34 -28,-63 0,-29 9,-64 28,-97 19,-33 45,-59 70,-73l0 0 196 -114 0 0c25,-14 50,-18 70,-7 19,12 28,35 28,64 0,29 -9,64 -28,97 -19,33 -44,58 -70,73l0 0 0 0 -196 113 0 0z"/>
   <polygon class="fil3" points="937,2618 1273,2424 1420,2510 1085,2863 937,2778 "/>
   <line class="fil4 str19" x1="937" y1="2618" x2="1085" y2= "2703" />
   <line class="fil4 str19" x1="909" y1="2715" x2="1056" y2= "2800" />
   <line class="fil4 str19" x1="937" y1="2778" x2="1085" y2= "2863" />
   <line class="fil4 str19" x1="1264" y1="2420" x2="1420" y2= "2510" />
   <path class="fil3 str20" d="M1130 2842c-25,15 -51,18 -70,7 -19,-11 -29,-35 -29,-64 0,-29 10,-63 29,-96 19,-33 44,-59 69,-73l0 0 197 -114 0 0c25,-14 50,-18 69,-7 20,11 29,35 29,64 0,29 -9,63 -28,97 -20,33 -45,58 -70,73l0 0 0 0 -196 113 0 0z"/>
   <path class="fil3 str21" d="M1154 2856c-25,15 -50,18 -69,7 -19,-11 -29,-34 -29,-63 0,-29 10,-64 29,-97 19,-33 44,-59 69,-73l0 0 196 -114 0 0c26,-14 51,-18 70,-6 19,11 29,34 29,63 0,29 -10,64 -29,97 -19,33 -44,58 -69,73l0 0 0 0 -196 113 -1 0z"/>
   <line class="fil4 str22" x1="917" y1="2664" x2="1040" y2= "2735" />
   <line class="fil4 str22" x1="967" y1="2577" x2="1090" y2= "2648" />
   <line class="fil4 str22" x1="1007" y1="2545" x2="1129" y2= "2616" />
   <line class="fil4 str22" x1="1105" y1="2488" x2="1228" y2= "2559" />
   <line class="fil4 str22" x1="1240" y1="2418" x2="1363" y2= "2489" />
   <line class="fil4 str23" x1="1213" y1="2426" x2="1336" y2= "2497" />
   <line class="fil4 str24" x1="1185" y1="2440" x2="1308" y2= "2510" />
   <line class="fil4 str25" x1="1153" y1="2455" x2="1276" y2= "2526" />
   <line class="fil4 str26" x1="1132" y1="2472" x2="1255" y2= "2543" />
   <line class="fil4 str27" x1="1073" y1="2506" x2="1195" y2= "2575" />
   <line class="fil4 str28" x1="1040" y1="2526" x2="1163" y2= "2596" />
   <g>
    <path class="fil3" d="M998 2068l0 0 0 0zm-89 158l14 9 -14 -9zm0 0c-13,-7 -19,-23 -19,-42 0,-19 6,-41 19,-63 12,-22 29,-38 45,-48 16,-9 32,-12 44,-5 6,3 12,7 18,10 -18,-8 -29,-7 -47,3 -17,10 -33,27 -46,48 -12,22 -19,45 -19,64 0,19 5,30 19,42 -5,-3 -9,-6 -14,-9z"/>
    <path id="1" class="fil4 str29" d="M998 2068l0 0m-89 158l14 9m-14 -9c-13,-7 -19,-23 -19,-42 0,-19 6,-41 19,-63 12,-22 29,-38 45,-48 16,-9 32,-12 44,-5 6,3 12,7 18,10 -18,-8 -29,-7 -47,3 -17,10 -33,27 -46,48 -12,22 -19,45 -19,64 0,19 5,30 19,42 -5,-3 -9,-6 -14,-9z"/>
   </g>
   <path class="fil3 str30" d="M969 2230c-17,10 -33,12 -46,5 -12,-8 -19,-23 -19,-42 0,-19 7,-42 19,-64 13,-21 29,-38 46,-48 16,-9 33,-11 45,-4 13,7 19,23 19,42 0,19 -6,41 -19,63 -12,22 -29,39 -45,48z"/>
   <line class="fil4 str31" x1="899" y1="2217" x2="914" y2= "2226" />
   <line class="fil4 str31" x1="891" y1="2196" x2="905" y2= "2204" />
   <line class="fil4 str31" x1="890" y1="2178" x2="905" y2= "2187" />
   <line class="fil4 str31" x1="892" y1="2163" x2="907" y2= "2171" />
   <line class="fil4 str31" x1="896" y1="2148" x2="911" y2= "2157" />
   <line class="fil4 str31" x1="902" y1="2134" x2="916" y2= "2143" />
   <line class="fil4 str31" x1="908" y1="2121" x2="923" y2= "2130" />
   <line class="fil4 str31" x1="916" y1="2109" x2="931" y2= "2117" />
   <line class="fil4 str31" x1="925" y1="2097" x2="940" y2= "2106" />
   <line class="fil4 str31" x1="936" y1="2087" x2="950" y2= "2095" />
   <line class="fil4 str31" x1="948" y1="2077" x2="963" y2= "2085" />
   <line class="fil4 str31" x1="963" y1="2069" x2="977" y2= "2077" />
   <line class="fil4 str31" x1="985" y1="2064" x2="1000" y2= "2073" />
   <path class="fil3 str32" d="M1072 2370c0,25 -35,46 -79,46 -43,0 -79,-21 -79,-46l0 -195c0,-26 36,-46 79,-46 44,0 79,20 79,46l0 195z"/>
   <g>
    <path class="fil3" d="M993 2129c44,0 79,20 79,46 0,25 -35,45 -79,45 -43,0 -79,-20 -79,-45 0,-26 36,-46 79,-46z"/>
    <path id="1" class="fil5" d="M1078 2175l-12 0 0 0 0 -2 0 -2 -1 -2 0 -2 -1 -1 -1 -2 -1 -2 -1 -2 -1 -1 -2 -2 -1 -2 -2 -1 -2 -2 -2 -2 -3 -1 -2 -1 -3 -2 -2 -1 -3 -1 -3 -2 -3 -1 -3 -1 -3 -1 -3 -1 -4 0 -3 -1 -4 -1 -4 0 -3 -1 -4 0 -4 0 -4 0 0 -12 5 0 4 0 4 0 4 1 4 0 4 1 4 1 3 1 4 1 4 1 3 1 4 1 3 1 3 2 3 1 3 2 3 2 3 2 2 2 3 2 2 2 2 2 2 2 2 2 2 3 1 2 1 3 1 2 1 3 1 3 0 3 0 3 0 0zm-85 51l0 -12 0 0 4 0 4 0 4 0 3 -1 4 0 4 -1 3 0 4 -1 3 -1 3 -1 3 -1 3 -1 3 -1 3 -2 3 -1 2 -1 2 -2 3 -1 2 -2 2 -1 2 -2 1 -2 2 -1 1 -2 1 -2 1 -2 1 -1 1 -2 0 -2 1 -2 0 -2 0 -1 12 0 0 3 0 2 -1 3 -1 3 -1 2 -1 3 -1 3 -2 2 -2 2 -2 3 -2 2 -2 2 -3 2 -2 2 -3 1 -3 2 -3 2 -3 1 -3 2 -3 1 -4 1 -3 2 -4 1 -4 1 -3 0 -4 1 -4 1 -4 0 -4 1 -4 0 -4 0 -5 0 0 0zm-85 -51l13 0 0 0 0 1 0 2 0 2 1 2 1 2 0 1 1 2 2 2 1 2 1 1 2 2 2 2 2 1 2 2 2 1 3 2 2 1 3 1 3 2 2 1 3 1 4 1 3 1 3 1 3 1 4 0 4 1 3 0 4 1 4 0 3 0 4 0 0 12 -4 0 -4 0 -4 0 -4 -1 -4 0 -4 -1 -4 -1 -4 0 -4 -1 -3 -1 -4 -2 -3 -1 -3 -1 -3 -2 -4 -1 -2 -2 -3 -2 -3 -1 -3 -2 -2 -2 -2 -2 -2 -2 -2 -3 -2 -2 -2 -2 -1 -3 -2 -3 -1 -2 0 -3 -1 -3 0 -2 -1 -3 0 0zm85 -52l0 12 0 0 -4 0 -3 0 -4 0 -4 1 -3 0 -4 1 -4 1 -3 0 -3 1 -3 1 -4 1 -3 1 -2 2 -3 1 -3 1 -2 2 -3 1 -2 1 -2 2 -2 2 -2 1 -2 2 -1 2 -1 1 -2 2 -1 2 0 2 -1 1 -1 2 0 2 0 2 0 2 -13 0 1 -3 0 -3 1 -3 0 -3 1 -2 2 -3 1 -2 2 -3 2 -2 2 -2 2 -2 2 -2 2 -2 3 -2 3 -2 3 -2 2 -2 4 -1 3 -2 3 -1 3 -1 4 -1 3 -1 4 -1 4 -1 4 -1 4 -1 4 0 4 -1 4 0 4 0 4 0 0 0z"/>
   </g>
   <polygon class="fil3 str33" points="239,1903 239,1791 628,1566 1017,2128 920,2184 579,1706 "/>
   <polygon class="fil3" points="239,1903 239,1791 312,1833 312,1945 "/>
   <g>
    <path class="fil5" d="M233 1903l0 -112c0,-4 3,-6 6,-6 1,0 2,0 3,1l73 41c2,2 3,4 3,6l0 0 0 112c0,3 -3,6 -6,6 -1,0 -3,0 -4,-1l-72 -42c-2,-1 -3,-3 -3,-5l0 0zm12 -102l0 98 61 36 0 -99 -61 -35zm-3 -15c2,1 3,3 3,5l-3 -5zm66 164c-1,-1 -2,-3 -2,-5l2 5z"/>
   </g>
   <polygon class="fil3 str34" points="312,1833 239,1791 628,1566 701,1608 "/>
   <polygon class="fil3 str34" points="622,1766 920,2184 993,2226 652,1748 "/>
   <polygon class="fil3 str34" points="312,1945 312,1833 701,1608 1090,2170 993,2226 652,1748 "/>
   <g>
    <path class="fil3" d="M713 1618l0 0 0 0zm-85 150l14 8 -14 -8zm0 0c-12,-7 -18,-21 -18,-39 0,-18 6,-40 18,-60 12,-21 28,-37 43,-46 15,-9 30,-11 42,-5 6,3 12,7 17,10 -17,-8 -28,-7 -45,3 -15,9 -31,25 -43,46 -12,20 -18,42 -18,60 0,18 4,28 18,39 -5,-2 -9,-5 -14,-8z"/>
    <path id="1" class="fil4 str35" d="M713 1618l0 0m-85 150l14 8m-14 -8c-12,-7 -18,-21 -18,-39 0,-18 6,-40 18,-60 12,-21 28,-37 43,-46 15,-9 30,-11 42,-5 6,3 12,7 17,10 -17,-8 -28,-7 -45,3 -15,9 -31,25 -43,46 -12,20 -18,42 -18,60 0,18 4,28 18,39 -5,-2 -9,-5 -14,-8z"/>
   </g>
   <path class="fil3 str36" d="M685 1772c-15,9 -31,11 -43,4 -12,-7 -18,-21 -18,-39 0,-18 6,-40 18,-60 12,-21 28,-37 43,-46 16,-9 32,-11 43,-4 12,7 18,21 18,39 0,18 -6,40 -17,61 -12,20 -28,36 -44,45z"/>
   <line class="fil4 str37" x1="619" y1="1760" x2="634" y2= "1769" />
   <line class="fil4 str37" x1="611" y1="1739" x2="625" y2= "1747" />
   <line class="fil4 str37" x1="610" y1="1723" x2="624" y2= "1731" />
   <line class="fil4 str37" x1="613" y1="1708" x2="626" y2= "1716" />
   <line class="fil4 str37" x1="616" y1="1694" x2="630" y2= "1702" />
   <line class="fil4 str37" x1="622" y1="1681" x2="635" y2= "1689" />
   <line class="fil4 str37" x1="628" y1="1669" x2="642" y2= "1677" />
   <line class="fil4 str37" x1="635" y1="1657" x2="649" y2= "1665" />
   <line class="fil4 str37" x1="644" y1="1646" x2="658" y2= "1654" />
   <line class="fil4 str37" x1="654" y1="1636" x2="668" y2= "1644" />
   <line class="fil4 str37" x1="666" y1="1627" x2="680" y2= "1635" />
   <line class="fil4 str37" x1="680" y1="1619" x2="694" y2= "1627" />
   <line class="fil4 str37" x1="701" y1="1615" x2="715" y2= "1623" />
   <g>
    <path class="fil3" d="M1095 2124l1 0 -1 0zm-89 159l15 8 -15 -8zm0 0c-12,-8 -19,-23 -19,-42 0,-19 6,-42 19,-63 13,-22 29,-39 45,-48 16,-10 32,-12 45,-6 5,3 12,7 17,10 -18,-8 -29,-6 -47,4 -16,9 -33,26 -45,48 -13,22 -19,44 -19,63 0,19 4,31 19,42 -5,-3 -10,-6 -15,-8z"/>
    <path id="1" class="fil4 str38" d="M1095 2124l1 0m-90 159l15 8m-15 -8c-12,-8 -19,-23 -19,-42 0,-19 6,-42 19,-63 13,-22 29,-39 45,-48 16,-10 32,-12 45,-6 5,3 12,7 17,10 -18,-8 -29,-6 -47,4 -16,9 -33,26 -45,48 -13,22 -19,44 -19,63 0,19 4,31 19,42 -5,-3 -10,-6 -15,-8z"/>
   </g>
   <path class="fil3 str39" d="M1066 2287c-16,9 -33,11 -45,4 -13,-7 -19,-23 -19,-42 0,-19 6,-41 19,-63 12,-22 29,-39 45,-48 17,-10 33,-12 46,-5 12,8 19,23 19,42 0,19 -7,42 -19,64 -13,21 -29,38 -46,48z"/>
   <line class="fil4 str40" x1="996" y1="2274" x2="1012" y2= "2283" />
   <line class="fil4 str40" x1="988" y1="2252" x2="1003" y2= "2261" />
   <line class="fil4 str40" x1="987" y1="2235" x2="1002" y2= "2243" />
   <line class="fil4 str40" x1="990" y1="2219" x2="1004" y2= "2228" />
   <line class="fil4 str40" x1="994" y1="2205" x2="1008" y2= "2213" />
   <line class="fil4 str40" x1="999" y1="2191" x2="1014" y2= "2199" />
   <line class="fil4 str40" x1="1006" y1="2178" x2="1020" y2= "2186" />
   <line class="fil4 str40" x1="1014" y1="2166" x2="1028" y2= "2174" />
   <line class="fil4 str40" x1="1023" y1="2154" x2="1037" y2= "2162" />
   <line class="fil4 str40" x1="1033" y1="2143" x2="1048" y2= "2152" />
   <line class="fil4 str40" x1="1046" y1="2133" x2="1060" y2= "2142" />
   <line class="fil4 str40" x1="1061" y1="2125" x2="1075" y2= "2133" />
   <line class="fil4 str40" x1="1082" y1="2121" x2="1097" y2= "2129" />
   <g>
    <path class="fil3" d="M1196 2664l0 0 0 0zm-89 159l15 8 -15 -8zm0 0c-13,-8 -19,-23 -19,-42 0,-19 6,-42 19,-63 12,-22 29,-39 45,-48 16,-9 32,-12 44,-6 6,3 12,7 18,11 -18,-8 -29,-7 -47,3 -17,10 -33,26 -46,48 -12,22 -18,44 -18,63 0,20 4,31 19,42 -5,-3 -10,-5 -15,-8z"/>
    <path id="1" class="fil4 str41" d="M1196 2664l0 0m-89 159l15 8m-15 -8c-13,-8 -19,-23 -19,-42 0,-19 6,-42 19,-63 12,-22 29,-39 45,-48 16,-9 32,-12 44,-6 6,3 12,7 18,11 -18,-8 -29,-7 -47,3 -17,10 -33,26 -46,48 -12,22 -18,44 -18,63 0,20 4,31 19,42 -5,-3 -10,-5 -15,-8z"/>
   </g>
   <path class="fil3 str42" d="M1167 2827c-16,9 -33,11 -45,4 -13,-7 -19,-22 -19,-42 0,-19 6,-41 18,-63 13,-22 29,-38 46,-48 16,-9 33,-12 45,-4 13,7 19,22 19,41 0,19 -6,42 -18,64 -13,21 -29,38 -46,48z"/>
   <line class="fil4 str43" x1="1097" y1="2814" x2="1113" y2= "2823" />
   <line class="fil4 str43" x1="1089" y1="2792" x2="1103" y2= "2801" />
   <line class="fil4 str43" x1="1088" y1="2775" x2="1103" y2= "2783" />
   <line class="fil4 str43" x1="1090" y1="2759" x2="1105" y2= "2768" />
   <line class="fil4 str43" x1="1094" y1="2745" x2="1109" y2= "2753" />
   <line class="fil4 str43" x1="1100" y1="2731" x2="1115" y2= "2740" />
   <line class="fil4 str43" x1="1107" y1="2718" x2="1121" y2= "2726" />
   <line class="fil4 str43" x1="1114" y1="2706" x2="1129" y2= "2714" />
   <line class="fil4 str43" x1="1124" y1="2694" x2="1138" y2= "2702" />
   <line class="fil4 str43" x1="1134" y1="2683" x2="1149" y2= "2692" />
   <line class="fil4 str43" x1="1146" y1="2673" x2="1161" y2= "2682" />
   <line class="fil4 str43" x1="1161" y1="2665" x2="1176" y2= "2674" />
   <line class="fil4 str43" x1="1183" y1="2661" x2="1198" y2= "2669" />
   <g>
    <path class="fil3" d="M1385 2546l0 0 0 0zm-90 158l15 9 -15 -9zm0 0c-12,-7 -19,-22 -19,-41 0,-19 7,-42 19,-64 13,-21 29,-38 46,-48 15,-9 31,-11 44,-5 5,3 12,7 17,10 -18,-8 -29,-7 -47,4 -16,9 -33,26 -45,48 -13,22 -19,44 -19,63 0,19 4,30 19,42 -5,-3 -10,-6 -15,-9z"/>
    <path id="1" class="fil4 str44" d="M1385 2546l0 0m-90 158l15 9m-15 -9c-12,-7 -19,-22 -19,-41 0,-19 7,-42 19,-64 13,-21 29,-38 46,-48 15,-9 31,-11 44,-5 5,3 12,7 17,10 -18,-8 -29,-7 -47,4 -16,9 -33,26 -45,48 -13,22 -19,44 -19,63 0,19 4,30 19,42 -5,-3 -10,-6 -15,-9z"/>
   </g>
   <path class="fil3 str45" d="M1356 2708c-17,10 -33,12 -46,5 -13,-7 -19,-23 -19,-42 0,-19 6,-41 19,-63 12,-22 29,-39 45,-48 17,-10 33,-12 46,-5 13,8 19,23 19,42 0,19 -6,42 -19,63 -13,22 -29,39 -45,48z"/>
   <line class="fil4 str46" x1="1286" y1="2696" x2="1301" y2= "2705" />
   <line class="fil4 str46" x1="1277" y1="2674" x2="1292" y2= "2682" />
   <line class="fil4 str46" x1="1277" y1="2657" x2="1291" y2= "2665" />
   <line class="fil4 str46" x1="1279" y1="2641" x2="1293" y2= "2649" />
   <line class="fil4 str46" x1="1283" y1="2626" x2="1297" y2= "2635" />
   <line class="fil4 str46" x1="1288" y1="2613" x2="1303" y2= "2621" />
   <line class="fil4 str46" x1="1295" y1="2600" x2="1310" y2= "2608" />
   <line class="fil4 str46" x1="1303" y1="2587" x2="1317" y2= "2596" />
   <line class="fil4 str46" x1="1312" y1="2576" x2="1326" y2= "2584" />
   <line class="fil4 str46" x1="1322" y1="2565" x2="1337" y2= "2573" />
   <line class="fil4 str46" x1="1335" y1="2555" x2="1349" y2= "2564" />
   <line class="fil4 str46" x1="1350" y1="2547" x2="1364" y2= "2555" />
   <line class="fil4 str46" x1="1372" y1="2543" x2="1386" y2= "2551" />
   <polygon class="fil3" points="236,1901 236,1785 312,1829 312,1945 "/>
   <path class="fil5" d="M230 1901l0 -116c0,-3 3,-6 6,-6 2,0 3,1 4,1l75 44c2,1 3,3 3,5l0 0 0 116c0,3 -3,6 -6,6 -1,0 -3,0 -4,-1l-75 -43c-2,-1 -3,-3 -3,-6l0 0zm12 -105l0 102 64 37 0 -103 -64 -36z"/>
   <polygon class="fil3" points="39,1761 5,1741 82,1607 236,1785 198,1807 87,1679 "/>
   <path class="fil5" d="M36 1766l-34 -20c-3,-2 -4,-6 -2,-8l0 -1 77 -133c1,-3 5,-4 8,-2 1,0 1,0 2,1l154 178c2,3 2,7 -1,9 0,0 0,0 -1,0l0 0 -38 23c-3,1 -6,1 -8,-2l-105 -122 -43 75c-2,3 -6,4 -9,2zm-23 -28l24 14 44 -76c1,-1 1,-1 2,-2 2,-2 6,-2 8,1l108 125 28 -16 -144 -167 -70 121z"/>
   <polygon class="fil3" points="115,1804 80,1784 158,1650 312,1828 273,1850 162,1722 "/>
   <path class="fil5" d="M112 1809l-35 -20c-3,-2 -4,-6 -2,-8l0 -1 77 -133c2,-3 6,-4 9,-2 0,0 1,0 1,1l154 178c3,3 2,7 0,9 0,0 -1,0 -1,0l0 0 -39 23c-2,1 -6,1 -7,-2l-106 -122 -43 75c-1,3 -5,4 -8,2zm-23 -28l24 14 44 -76c0,-1 1,-1 1,-2 3,-2 7,-2 9,1l108 125 28 -16 -144 -167 -70 121z"/>
   <polygon class="fil3" points="80,1784 158,1650 82,1607 5,1741 "/>
   <path class="fil5" d="M78 1775l71 -123 -65 -37 -71 123 65 37zm85 -122l-77 133 0 1c-2,3 -6,4 -9,2l-75 -43 0 0 0 0c-3,-2 -4,-5 -2,-8l77 -134 0 0c1,-3 5,-4 8,-2l76 43 0 0 0 0c2,1 3,5 2,8z"/>
   <polygon class="fil3" points="198,1807 147,1748 162,1722 273,1850 "/>
   <path class="fil5" d="M193 1811l0 0 0 0 -51 -59c-1,-2 -2,-4 0,-7l15 -26c2,-3 5,-4 8,-2 1,0 2,0 2,1l111 129c2,2 2,6 -1,8 -2,2 -5,2 -7,1l-75 -43c-1,-1 -1,-1 -2,-2zm-39 -63l48 55 44 25 -83 -96 -9 16z"/>
   <polygon class="fil3" points="268,1968 312,1945 235,2140 80,2140 80,2096 205,2095 "/>
   <g>
    <path class="fil5" d="M265 1963l44 -23c3,-2 7,-1 8,2 1,2 1,4 1,5l0 0 -78 195c-1,3 -3,4 -5,4l0 0 -155 0c-3,0 -6,-3 -6,-6l0 0 0 -44c0,-4 3,-6 6,-6l1 0 120 -1 62 -123c0,-1 1,-2 2,-3zm35 -5l-27 15 -63 125c-1,2 -3,3 -5,3l-119 1 0 32 145 0 69 -176zm-90 140l0 0 0 0z"/>
   </g>
   <polygon class="fil3" points="193,1922 236,1901 159,2097 5,2097 5,2052 129,2052 "/>
   <path class="fil5" d="M191 1917l0 0 43 -21c3,-1 6,0 8,3 1,1 1,3 0,5l0 0 -77 195c-1,2 -3,4 -6,4l0 0 -154 0c-4,0 -6,-3 -6,-6l0 -1 0 -44c0,-3 2,-6 6,-6l120 0 63 -126c0,-2 1,-3 3,-3zm34 -3l-27 13 -64 127 0 0c-1,2 -3,4 -5,4l-118 0 0 32 144 0 70 -176z"/>
   <polygon class="fil3" points="5,2097 5,2052 80,2096 80,2140 "/>
   <path class="fil5" d="M-1 2097l0 -45c0,-3 2,-6 6,-6 1,0 2,0 3,1l75 43c2,1 3,3 3,6l0 0 0 44c0,3 -2,6 -6,6 -1,0 -2,0 -3,-1l-75 -43c-2,-1 -3,-3 -3,-5zm12 -35l0 31 63 37 0 -31 -63 -37z"/>
   <polygon class="fil3" points="80,2096 5,2052 129,2052 205,2095 "/>
   <path class="fil5" d="M77 2101l-75 -44c-3,-1 -4,-5 -2,-8 1,-2 3,-3 5,-3l124 0c1,0 2,0 3,0l76 44c2,2 3,5 2,8 -1,2 -3,3 -5,3l-125 1c-1,0 -2,-1 -3,-1zm-50 -43l55 32 100 -1 -55 -31 -100 0z"/>
   <polygon class="fil3" points="205,2095 129,2052 193,1922 266,1967 "/>
   <path class="fil5" d="M202 2101l-1 0 0 -1 -75 -43c-3,-2 -4,-5 -2,-8l0 0 64 -129c1,-3 5,-5 8,-3 0,0 0,0 1,0l72 45c3,2 4,5 2,8l-61 128c-1,3 -5,4 -8,3l0 0zm-65 -52l65 38 56 -117 -62 -39 -59 118z"/>
   <polygon class="fil3" points="268,1968 193,1922 236,1901 312,1945 "/>
   <g>
    <path class="fil5" d="M265 1974l-75 -47c-3,-1 -4,-5 -2,-8 1,-1 2,-2 3,-2l0 0 43 -21c2,-1 4,-1 6,0l75 44c3,1 4,5 2,8 0,1 -1,2 -2,2l-44 24c-2,1 -4,1 -6,0zm-59 -51l62 39 31 -17 -63 -37 -30 15zm34 -27c1,1 1,2 2,3l-2 -3z"/>
   </g>
   <path class="fil1" d="M6829 1380c0,6 9,11 20,11 10,0 19,-5 19,-11l0 -348c0,-6 -9,-11 -19,-11 -11,0 -20,5 -20,11l0 348z"/>
   <path class="fil1" d="M6831 705c0,11 8,20 18,20 11,0 19,-9 19,-20l0 -633c0,-27 -8,-49 -23,-61l0 0c-11,-9 -23,-12 -36,-11 0,0 -1,0 -1,0l0 0c-5,0 -10,1 -16,2l0 0 0 0c-8,3 -17,6 -25,11 -26,15 -52,41 -71,75 -20,35 -30,70 -30,100l39 0c-1,-107 126,-215 126,-116l0 633z"/>
   <polygon class="fil3 str47" points="6396,346 7020,706 7020,1112 6981,1134 6942,1067 6396,751 6396,437 6357,369 "/>
   <polygon class="fil3 str48" points="6357,369 6981,729 6981,1134 6357,774 "/>
   <path class="fil3" d="M6819 980c31,18 63,23 87,9 24,-14 36,-44 36,-80 0,-36 -12,-79 -36,-121 -24,-42 -55,-74 -87,-92 -31,-18 -63,-22 -87,-8 -24,14 -36,43 -36,79 0,37 12,80 36,122 24,41 55,73 87,91z"/>
   <g style="clip-path:url(#id0)">
    <g>
     <path id="1" class="fil4 str49" d="M6827 968c31,18 63,23 87,9 24,-14 36,-44 36,-80 0,-36 -12,-79 -36,-121 -24,-41 -55,-73 -87,-92 -31,-18 -63,-22 -87,-8 -24,14 -36,43 -36,80 0,36 12,79 36,121 24,41 55,73 87,91z"/>
     <polygon class="fil4 str49" points="6798,708 6856,742 6856,809 6915,843 6915,911 6856,877 6856,945 6798,911 6798,843 6739,809 6739,742 6798,776 "/>
    </g>
   </g>
   <path class="fil4 str50" d="M6819 980c31,18 63,23 87,9 24,-14 36,-44 36,-80 0,-36 -12,-79 -36,-121 -24,-42 -55,-74 -87,-92 -31,-18 -63,-22 -87,-8 -24,14 -36,43 -36,79 0,37 12,80 36,122 24,41 55,73 87,91z"/>
   <path class="fil3" d="M6506 799c31,19 63,23 87,9 24,-14 36,-43 36,-80 0,-36 -12,-79 -36,-121 -24,-41 -55,-73 -87,-91 -31,-19 -63,-23 -87,-9 -24,14 -36,43 -36,80 0,36 12,79 36,121 24,41 55,73 87,91z"/>
   <g style="clip-path:url(#id1)">
    <g>
     <path id="1" class="fil4 str49" d="M6514 787c31,19 63,23 87,9 24,-14 36,-43 36,-80 0,-36 -12,-79 -36,-121 -24,-41 -55,-73 -87,-91 -31,-19 -63,-23 -87,-9 -24,14 -36,43 -36,80 0,36 12,79 36,121 24,41 55,73 87,91z"/>
     <g>
      <path class="fil4 str49" d="M6445 654c8,4 16,6 22,2 6,-4 10,-11 10,-21 0,-9 -4,-20 -10,-31 -6,-10 -14,-19 -22,-23 -8,-5 -16,-6 -22,-3 -7,4 -10,12 -10,21 0,9 3,20 9,31 7,11 15,19 23,24z"/>
      <path class="fil4 str49" d="M6508 617c8,5 16,6 23,2 6,-3 9,-11 9,-20 0,-9 -3,-21 -9,-31 -7,-11 -15,-19 -23,-24 -8,-5 -16,-6 -22,-2 -6,4 -9,11 -9,20 0,10 3,21 9,32 6,10 14,19 22,23z"/>
      <path class="fil4 str49" d="M6571 727c9,5 17,6 23,2 6,-4 9,-11 9,-20 0,-10 -3,-21 -9,-32 -6,-10 -14,-19 -22,-23 -9,-5 -17,-6 -23,-2 -6,3 -9,11 -9,20 0,9 3,21 9,31 6,11 14,19 22,24z"/>
      <path class="fil4 str49" d="M6508 763c8,5 16,6 23,3 6,-4 9,-12 9,-21 0,-9 -3,-20 -9,-31 -7,-11 -15,-19 -23,-24 -8,-4 -16,-5 -22,-2 -6,4 -9,11 -9,21 0,9 3,20 9,31 6,10 14,19 22,23z"/>
     </g>
    </g>
   </g>
   <path class="fil4 str51" d="M6506 799c31,19 63,23 87,9 24,-14 36,-43 36,-80 0,-36 -12,-79 -36,-121 -24,-41 -55,-73 -87,-91 -31,-19 -63,-23 -87,-9 -24,14 -36,43 -36,80 0,36 12,79 36,121 24,41 55,73 87,91z"/>
   <line class="fil4 str48" x1="6747" y1="639" x2="6591" y2= "549" />
   <line class="fil4 str48" x1="6728" y1="650" x2="6611" y2= "582" />
   <line class="fil4 str48" x1="6728" y1="673" x2="6669" y2= "639" />
   <line class="fil4 str48" x1="6708" y1="887" x2="6611" y2= "830" />
   <line class="fil4 str48" x1="6708" y1="905" x2="6611" y2= "853" />
   <path class="fil1" d="M6666 536c0,6 9,11 19,11 11,0 20,-5 20,-11l0 -348c0,-6 -9,-11 -20,-11 -10,0 -19,5 -19,11l0 348z"/>
   <polygon class="fil3 str52" points="4323,2778 4958,2411 4958,1836 4323,2202 "/>
   <polygon class="fil3 str53" points="4323,2202 4958,1836 4943,1827 4308,2193 "/>
   <polygon class="fil3 str52" points="4777,3040 4323,2778 4958,2411 5411,2673 "/>
   <polygon class="fil3 str52" points="4958,2464 4414,2778 4640,2909 5185,2595 "/>
   <polygon class="fil3 str54" points="4937,2765 4847,2817 4983,2896 5073,2844 5073,2844 5073,2844 5164,2791 5028,2713 "/>
   <line class="fil4 str55" x1="4960" y1="2883" x2="5141" y2= "2778" />
   <line class="fil4 str55" x1="5073" y1="2844" x2="5051" y2= "2831" />
   <polygon class="fil3 str56" points="4931,2448 4891,2471 4908,2480 4947,2457 "/>
   <polygon class="fil3 str57" points="4350,2739 4931,2403 4931,1875 4350,2211 "/>
   <polygon class="fil3 str53" points="4323,2202 4323,2778 4308,2769 4308,2193 "/>
   <polygon class="fil3 str53" points="4323,2778 4777,3040 4777,3057 4323,2795 "/>
   <polygon class="fil3 str53" points="4777,3040 5411,2673 5411,2691 4777,3057 "/>
   <polygon class="fil1" points="5039,1723 4723,1905 4723,2308 5039,2126 "/>
   <line class="fil4 str58" x1="4750" y1="2244" x2="4986" y2= "2107" />
   <line class="fil4 str59" x1="4750" y1="1934" x2="4934" y2= "1827" />
   <polygon class="fil3 str60" points="4881,1888 4750,1964 4750,2116 4881,2040 4881,1918 "/>
   <line class="fil4 str59" x1="4907" y1="1873" x2="4960" y2= "1842" />
   <line class="fil4 str59" x1="4907" y1="1903" x2="4986" y2= "1858" />
   <line class="fil4 str59" x1="4907" y1="1934" x2="4960" y2= "1903" />
   <polyline class="fil4 str59" points="4750,2146 4986,2009 4986,2040 "/>
   <polyline class="fil4 str59" points="4986,2040 4750,2176 4750,2146 "/>
   <line class="fil4 str61" x1="4750" y1="2215" x2="4855" y2= "2155" />
  </g>
 </g>
</svg>
