<?xml version="1.0" encoding="UTF-8"?>
<!DOCTYPE svg PUBLIC "-//W3C//DTD SVG 1.1//EN" "http://www.w3.org/Graphics/SVG/1.1/DTD/svg11.dtd">
<!-- Creator: CorelDRAW X7 -->
<svg xmlns="http://www.w3.org/2000/svg" xml:space="preserve" width="297mm" height="108.876mm" version="1.1" style="shape-rendering:geometricPrecision; text-rendering:geometricPrecision; image-rendering:optimizeQuality; fill-rule:evenodd; clip-rule:evenodd"
viewBox="0 0 29700 10888"
 xmlns:xlink="http://www.w3.org/1999/xlink">
 <defs>
  <style type="text/css">
   <![CDATA[
    .fil2 {fill:none;fill-rule:nonzero}
    .fil7 {fill:#76B94A}
    .fil8 {fill:#4D6F91}
    .fil9 {fill:#00A0E3}
    .fil6 {fill:#009846}
    .fil5 {fill:#FEFEFE;fill-rule:nonzero}
    .fil1 {fill:#76B94A;fill-rule:nonzero}
    .fil3 {fill:#4D6F91;fill-rule:nonzero}
    .fil4 {fill:#00A0E3;fill-rule:nonzero}
    .fil0 {fill:#009846;fill-rule:nonzero}
    .fil10 {fill:white;fill-rule:nonzero}
   ]]>
  </style>
     <clipPath id="id0" style="clip-rule:nonzero">
      <path d="M17686 4716c0,-1077 220,-1906 661,-2491 441,-584 1063,-875 1868,-875 202,0 392,18 571,55 -839,544 -1414,1662 -1414,2953l0 1 0 0c0,670 -17,1334 -17,2005 0,547 67,955 202,1226 136,269 350,405 645,405 272,0 473,-112 604,-338 -224,685 -644,1261 -1183,1641 -526,-107 -952,-368 -1279,-786 -438,-562 -658,-1353 -658,-2378 0,-473 0,-946 0,-1418z"/>
     </clipPath>
     <clipPath id="id1" style="clip-rule:nonzero">
      <path d="M22866 6172c0,1077 -231,1906 -695,2490 -463,584 -1116,876 -1963,876 -212,0 -412,-19 -600,-56 881,-544 1486,-1661 1486,-2952l0 -1 0 -1c0,-670 12,-1333 12,-2004 0,-547 -71,-956 -214,-1227 -142,-269 -369,-404 -679,-404 -287,0 -499,112 -637,337 236,-684 679,-1260 1247,-1641 555,107 1004,369 1349,787 462,561 694,1353 694,2378 0,473 0,945 0,1418z"/>
     </clipPath>
 </defs>
 <g id="Layer_x0020_1">
  <metadata id="CorelCorpID_0Corel-Layer"/>
  <g id="_1890859722048">
   <g>
    <path class="fil0" d="M17686 4716c0,-1077 220,-1906 661,-2491 441,-584 1063,-875 1868,-875 202,0 392,18 571,55 -839,544 -1414,1662 -1414,2953l0 1 0 0c0,670 -17,1334 -17,2005 0,547 67,955 202,1226 136,269 350,405 645,405 272,0 473,-112 604,-338 -224,685 -644,1261 -1183,1641 -526,-107 -952,-368 -1279,-786 -438,-562 -658,-1353 -658,-2378 0,-473 0,-946 0,-1418z"/>
    <g style="clip-path:url(#id0)">
     <g>
      <path id="1" class="fil1" d="M17481 4949c0,-1192 220,-2110 661,-2757 441,-647 1063,-970 1868,-970 202,0 393,21 572,61 -839,603 -1415,1841 -1415,3270l0 1 0 1c0,741 -17,1477 -17,2219 0,607 68,1059 203,1359 135,298 350,448 644,448 272,0 473,-124 604,-374 -224,758 -644,1396 -1183,1817 -526,-118 -952,-408 -1279,-871 -438,-621 -658,-1498 -658,-2633 0,-524 0,-1047 0,-1571z"/>
     </g>
    </g>
    <path class="fil2" d="M17686 4716c0,-1077 220,-1906 661,-2491 441,-584 1063,-875 1868,-875 202,0 392,18 571,55 -839,544 -1414,1662 -1414,2953l0 1 0 0c0,670 -17,1334 -17,2005 0,547 67,955 202,1226 136,269 350,405 645,405 272,0 473,-112 604,-338 -224,685 -644,1261 -1183,1641 -526,-107 -952,-368 -1279,-786 -438,-562 -658,-1353 -658,-2378 0,-473 0,-946 0,-1418z"/>
    <path class="fil3" d="M22866 6172c0,1077 -231,1906 -695,2490 -463,584 -1116,876 -1963,876 -212,0 -412,-19 -600,-56 881,-544 1486,-1661 1486,-2952l0 -1 0 -1c0,-670 12,-1333 12,-2004 0,-547 -71,-956 -214,-1227 -142,-269 -369,-404 -679,-404 -287,0 -499,112 -637,337 236,-684 679,-1260 1247,-1641 555,107 1004,369 1349,787 462,561 694,1353 694,2378 0,473 0,945 0,1418z"/>
    <g style="clip-path:url(#id1)">
     <g>
      <path id="1" class="fil4" d="M23511 6118c0,1104 -278,1954 -835,2553 -557,599 -1342,897 -2359,897 -255,0 -496,-19 -722,-56 1060,-558 1786,-1704 1786,-3027l0 -1 0 0c0,-688 15,-1367 15,-2055 0,-561 -86,-980 -257,-1257 -171,-276 -443,-415 -816,-415 -345,0 -600,115 -766,346 284,-702 816,-1292 1499,-1682 667,109 1207,378 1621,806 555,575 834,1387 834,2438 0,484 0,969 0,1453z"/>
     </g>
    </g>
    <path class="fil2" d="M22866 6172c0,1077 -231,1906 -695,2490 -463,584 -1116,876 -1963,876 -212,0 -412,-19 -600,-56 881,-544 1486,-1661 1486,-2952l0 -1 0 -1c0,-670 12,-1333 12,-2004 0,-547 -71,-956 -214,-1227 -142,-269 -369,-404 -679,-404 -287,0 -499,112 -637,337 236,-684 679,-1260 1247,-1641 555,107 1004,369 1349,787 462,561 694,1353 694,2378 0,473 0,945 0,1418z"/>
   </g>
   <g>
    <path class="fil5" d="M25015 4808l-277 986 -274 -986 -290 2 -273 984 -275 -986 -290 0 429 1464 272 0 283 -968 284 968 273 0 429 -1464 -291 0zm-1181 -609l1028 -1308 0 -360 -1521 0 0 358 1028 0 -1028 1310 0 360 1521 0 0 -360 -1028 0zm1724 -296l1119 0c3,-34 6,-71 6,-105 0,-203 -60,-397 -186,-549 -141,-169 -358,-254 -584,-254 -225,0 -442,88 -583,254 -127,152 -180,338 -186,549 -5,200 57,392 186,550 141,169 358,242 583,254 226,11 446,-77 598,-246 33,-39 65,-81 90,-124l-380 -166c-12,14 -17,31 -29,48 -65,85 -166,130 -279,130 -109,0 -214,-45 -276,-130 -45,-59 -67,-132 -79,-211zm355 -550c113,0 214,43 279,130 26,37 45,79 59,124l-676 0c15,-45 34,-87 62,-124 62,-87 167,-130 276,-130zm1846 -355c-90,6 -183,28 -265,79 -70,42 -124,101 -163,169l0 -208 -338 0 0 1521 386 0 0 -811c0,-113 31,-214 99,-288 53,-56 132,-95 242,-104 110,-9 214,9 293,40l0 -356c-85,-33 -172,-47 -254,-42zm1164 1604c229,0 439,-85 583,-254 130,-161 189,-332 189,-550 0,-205 -53,-388 -189,-549 -140,-169 -358,-254 -583,-254 -222,0 -442,88 -583,254 -121,147 -186,335 -186,549 0,209 56,392 186,550 141,166 358,254 583,254zm279 -488c-62,85 -166,130 -279,130 -113,0 -217,-45 -279,-130 -65,-84 -84,-200 -84,-316 0,-115 19,-233 84,-318 62,-84 166,-127 279,-127 113,0 217,43 279,127 65,85 87,203 87,318 0,116 -22,232 -87,316zm-5269 2930c-8,25 -20,50 -35,71 -40,53 -107,81 -174,80 -69,1 -135,-27 -174,-80 -41,-53 -53,-124 -54,-194 1,-70 13,-142 54,-194 39,-53 105,-81 174,-81 67,0 134,28 174,81 17,22 28,49 37,77l155 -27c-14,-48 -37,-98 -73,-142 -71,-86 -178,-129 -293,-129 -115,0 -224,42 -294,129 -65,79 -94,176 -94,286 0,105 28,204 94,285 67,83 176,130 294,130 111,0 220,-42 293,-130 30,-37 51,-78 66,-119l-150 -43zm548 292c90,0 173,-33 230,-99 51,-63 74,-131 74,-216 0,-81 -21,-153 -74,-216 -56,-67 -141,-100 -230,-100 -87,0 -174,34 -229,100 -48,57 -73,131 -73,216 0,82 22,154 73,216 55,65 141,99 229,99zm110 -191c-24,33 -65,51 -110,51 -44,0 -85,-18 -109,-51 -26,-33 -34,-79 -34,-124 0,-46 8,-92 34,-125 24,-34 65,-50 109,-50 45,0 86,16 110,50 26,33 34,79 34,125 0,45 -8,91 -34,124zm1127 -381c-39,-35 -93,-57 -143,-57 -74,0 -145,36 -186,97 -9,-15 -20,-28 -34,-40 -38,-35 -93,-57 -142,-57 -67,0 -131,29 -173,79l0 -64 -133 0 0 598 152 0 0 -362c0,-30 4,-57 27,-84 19,-20 48,-33 77,-33 28,0 57,11 76,32 21,24 29,44 29,82l0 365 153 0 0 -362c0,-30 4,-57 27,-84 19,-20 48,-33 77,-33 29,0 57,11 76,32 21,24 29,44 29,82l0 365 153 0 0 -365c0,-76 -13,-145 -65,-191zm1009 0c-39,-35 -93,-57 -143,-57 -74,0 -145,36 -186,97 -9,-15 -20,-28 -33,-40 -39,-35 -93,-57 -143,-57 -67,0 -131,29 -173,79l0 -64 -133 0 0 598 152 0 0 -362c0,-30 4,-57 27,-84 19,-20 48,-33 77,-33 29,0 57,11 76,32 21,24 29,44 29,82l0 365 153 0 0 -362c0,-30 4,-57 28,-84 18,-20 47,-33 76,-33 29,0 58,11 76,32 21,24 29,44 29,82l0 365 153 0 0 -365c0,-76 -13,-145 -65,-191zm585 -42l0 260c0,41 -1,82 -7,109 -7,33 -22,59 -44,76 -20,14 -43,22 -71,23 -41,0 -73,-11 -94,-33 -31,-31 -40,-82 -40,-136l0 -299 -153 0 0 299c0,104 10,184 81,249 47,43 118,69 185,66 54,-2 114,-20 161,-57l0 41 133 0 0 -598 -151 0zm786 49c-47,-43 -118,-68 -185,-66 -54,2 -114,20 -161,58l0 -41 -133 0 0 598 151 0 0 -261c0,-40 1,-81 7,-108 7,-33 22,-60 44,-77 20,-14 43,-22 71,-23 41,0 73,11 94,34 31,31 40,81 40,136l0 299 153 0 0 -299c0,-104 -10,-184 -81,-250zm225 -265l0 133 151 0 0 -133 -151 0zm0 216l0 598 151 0 0 -598 -151 0zm698 116l0 -116 -173 0 0 -167 -150 0 0 167 -124 0 0 116 124 0 0 228c0,65 3,123 28,171 24,44 66,71 120,86 44,12 127,10 175,-3l0 -130c-32,5 -69,6 -97,3 -24,-2 -48,-15 -61,-36 -14,-21 -15,-55 -15,-102l0 -217 173 0zm529 -116l-152 424 -149 -424 -151 0 231 616c-19,53 -41,90 -58,100 -11,7 -39,9 -56,7l-17 -2 0 143 8 0c54,0 101,-5 144,-38 42,-31 72,-85 95,-147l255 -679 -150 0zm-3919 -1225c6,-10 14,-20 22,-28 43,-51 102,-67 173,-67 57,-2 112,8 156,34 41,23 71,59 82,102l-177 24c-157,25 -242,27 -364,92 -104,61 -177,177 -177,294 0,96 29,151 86,230 59,69 170,122 278,122 83,0 179,-20 256,-67 49,-28 116,-90 136,-148l0 187 242 0 0 -689c0,-67 -16,-149 -59,-220 -89,-150 -252,-218 -453,-218 -181,0 -331,60 -431,200 -8,10 -16,24 -22,32l252 120zm439 262c0,10 -2,51 -15,96 -34,132 -174,189 -290,193 -89,4 -149,-53 -144,-118 4,-87 128,-110 245,-132l204 -39zm1414 -294c-42,-116 -125,-212 -233,-267 -76,-38 -159,-55 -234,-55 -75,-1 -154,7 -240,43 -116,51 -201,161 -201,299 0,77 38,167 114,224 57,44 118,71 217,97 61,17 118,30 177,47 37,10 88,26 114,53 14,14 18,28 18,49 -4,20 -8,32 -28,50 -33,27 -104,37 -155,37 -67,0 -134,-10 -183,-63 -30,-31 -50,-91 -50,-124l-263 65c4,57 65,179 116,236 102,108 230,146 380,146 112,0 218,-16 305,-71 92,-59 149,-148 157,-252 8,-112 -39,-205 -128,-275 -72,-58 -124,-71 -216,-99 -55,-14 -118,-31 -173,-47 -55,-16 -99,-34 -115,-55 -2,-6 -7,-14 -7,-24 0,-12 7,-30 37,-51 28,-16 71,-24 120,-24 45,0 85,10 118,28 36,19 73,59 85,98l268 -65zm923 -78l0 -213 -317 0 0 -305 -276 0 0 305 -228 0 0 213 228 0 0 419c0,120 6,226 53,313 42,81 119,130 219,159 81,22 234,18 321,-6l0 -238c-59,8 -126,10 -179,6 -42,-4 -87,-29 -111,-67 -25,-39 -27,-102 -27,-187l0 -399 317 0zm482 411l807 0c2,-24 4,-51 4,-75 0,-147 -43,-287 -134,-396 -102,-122 -259,-184 -421,-184 -163,0 -319,64 -421,184 -91,109 -130,243 -134,396 -4,144 41,282 134,396 102,122 258,175 421,183 162,8 321,-55 431,-177 24,-28 47,-59 65,-89l-274 -120c-8,10 -13,22 -21,34 -47,61 -120,94 -201,94 -79,0 -155,-33 -199,-94 -33,-42 -49,-95 -57,-152zm256 -396c81,0 154,30 201,93 18,27 33,57 43,89l-488 0c10,-32 24,-62 45,-89 44,-63 120,-93 199,-93z"/>
    <path class="fil5" d="M23570 8349l41 0 -119 -351 -54 0 -119 351 41 0 23 -67 164 0 23 67zm-174 -105l69 -202 69 202 -138 0z"/>
    <polygon id="1" class="fil5" points="23885,8183 23991,8349 24039,8349 23920,8166 24029,7998 23982,7998 23885,8150 23801,8150 23801,7998 23761,7998 23761,8349 23801,8349 23801,8183 "/>
    <path id="2" class="fil5" d="M24228 7998l0 242c0,30 0,47 -13,70 -17,30 -45,46 -82,46 -17,0 -35,-4 -50,-13 -22,-12 -38,-35 -44,-60l39 -9c3,14 12,27 24,35 9,6 20,9 31,9 19,0 38,-10 48,-28 7,-14 6,-24 6,-50l0 -242 41 0z"/>
    <path id="3" class="fil5" d="M24550 8087c-12,-34 -33,-61 -61,-78 -21,-12 -48,-18 -73,-18 -22,0 -46,3 -69,15 -29,14 -51,45 -51,77 0,22 9,46 26,62 19,17 42,25 65,33l65 19c18,5 32,12 43,23 11,10 16,22 16,36 0,16 -6,34 -22,45 -16,12 -43,18 -66,18 -30,0 -62,-10 -80,-36 -11,-14 -18,-32 -21,-50l-40 10c5,22 14,45 29,65 26,34 66,49 111,49 34,0 66,-6 91,-23 24,-17 40,-48 40,-76 0,-26 -11,-50 -28,-67 -17,-16 -38,-26 -64,-33l-62 -19c-19,-6 -38,-13 -49,-24 -7,-7 -12,-19 -12,-30 0,-18 11,-35 27,-45 15,-7 33,-11 51,-11 19,0 39,6 53,15 21,12 33,31 42,53l39 -10z"/>
    <path id="4" class="fil5" d="M24863 8234c-5,15 -11,30 -20,43 -22,27 -57,42 -93,41 -36,0 -71,-14 -92,-41 -22,-29 -29,-67 -29,-103 0,-37 7,-75 29,-103 21,-28 56,-42 92,-42 36,1 71,14 93,42 10,14 17,30 21,47l41 -7c-6,-22 -15,-44 -31,-64 -29,-37 -75,-56 -124,-56 -49,0 -95,18 -124,56 -29,36 -38,81 -39,127 0,45 10,90 39,126 29,37 74,57 124,57 48,0 94,-19 124,-57 13,-17 22,-36 28,-55l-39 -11z"/>
    <polygon id="5" class="fil5" points="25181,8038 25181,7998 24963,7998 24963,8349 25181,8349 25181,8310 25003,8310 25003,8194 25152,8194 25152,8154 25003,8154 25003,8038 "/>
    <path id="6" class="fil5" d="M25587 8035c-12,-14 -28,-24 -45,-30 -11,-4 -24,-7 -37,-7l-147 0 0 351 39 0 0 -131 108 0c33,0 65,-16 85,-40 16,-19 26,-45 26,-70 -1,-27 -11,-54 -29,-73zm-28 118c-13,17 -34,27 -54,27l-108 0 0 -144 108 0c18,0 37,9 50,22 13,13 19,32 20,50 0,17 -6,33 -16,45z"/>
    <path id="7" class="fil5" d="M25696 8152c2,-3 4,-5 7,-8 13,-19 36,-27 60,-27 20,0 40,4 55,16 12,10 20,24 22,41l-55 7c-41,6 -69,9 -98,24 -24,15 -39,39 -39,67 0,19 6,33 16,48 14,21 41,35 68,35 23,2 46,-3 68,-14 18,-9 36,-25 46,-44l0 52 35 0 0 -165c0,-15 -3,-31 -10,-46 -19,-41 -59,-59 -107,-59 -40,0 -74,14 -96,45 -3,3 -6,8 -8,11l36 17zm145 55c0,22 0,39 -10,61 -15,34 -59,54 -94,51 -28,-2 -49,-24 -49,-49 1,-38 47,-46 90,-52 26,-5 44,-8 63,-11z"/>
    <path id="8" class="fil5" d="M26062 8079c-21,0 -43,7 -60,21 -10,8 -17,16 -22,25l0 -39 -36 0 0 263 40 0 0 -127c0,-36 1,-64 25,-86 12,-12 30,-19 50,-20 15,-1 28,2 40,6l0 -38c-12,-4 -24,-5 -37,-5z"/>
    <polygon id="9" class="fil5" points="26310,8086 26235,8298 26159,8086 26119,8086 26214,8349 26254,8349 26350,8086 "/>
    <path id="10" class="fil5" d="M26425 8152c2,-3 4,-5 7,-8 13,-19 36,-27 61,-27 20,0 40,4 54,16 12,10 20,24 22,41l-54 7c-41,6 -70,9 -99,24 -24,15 -38,39 -38,67 0,19 5,33 15,48 14,21 42,35 68,35 23,2 46,-3 68,-14 18,-9 36,-25 46,-44l0 52 35 0 0 -165c0,-15 -3,-31 -10,-46 -19,-41 -59,-59 -107,-59 -39,0 -73,14 -96,45 -3,3 -6,8 -8,11l36 17zm146 55c0,22 0,39 -11,61 -15,34 -59,54 -94,51 -27,-2 -49,-24 -48,-49 0,-38 46,-46 89,-52 27,-5 44,-8 64,-11z"/>
    <path id="11" class="fil5" d="M26707 8152c1,-3 3,-5 6,-8 13,-19 36,-27 61,-27 20,0 40,4 54,16 12,10 20,24 22,41l-54 7c-41,6 -70,9 -99,24 -24,15 -38,39 -38,67 0,19 5,33 15,48 14,21 42,35 68,35 23,2 46,-3 68,-14 18,-9 36,-25 46,-44l0 52 35 0 0 -165c0,-15 -3,-31 -10,-46 -19,-41 -59,-59 -107,-59 -39,0 -73,14 -96,45 -3,3 -6,8 -8,11l37 17zm145 55c0,22 0,39 -11,61 -15,34 -59,54 -94,51 -27,-2 -49,-24 -48,-49 0,-38 46,-46 89,-52 27,-5 44,-8 64,-11z"/>
    <path id="12" class="fil5" d="M27141 8102c-21,-16 -48,-24 -74,-22 -23,1 -49,10 -69,27 -3,3 -6,6 -8,9l0 -118 -36 0 0 351 40 0 0 -135c0,-12 1,-25 3,-36 4,-17 11,-33 24,-44 11,-10 27,-15 43,-16 20,-1 37,4 50,14 25,19 29,50 29,88l0 129 40 0 0 -129c0,-49 -6,-91 -42,-118z"/>
    <path id="13" class="fil5" d="M27528 8169l0 34 88 0c-3,26 -10,52 -25,73 -22,28 -57,42 -93,42 -36,0 -72,-14 -93,-42 -21,-28 -27,-66 -28,-102 1,-36 7,-75 28,-102 21,-28 57,-43 93,-43 36,0 71,15 93,43 3,5 7,12 11,19l37 -17c-5,-9 -11,-19 -17,-26 -30,-38 -74,-57 -124,-57 -50,0 -96,19 -124,57 -29,36 -38,81 -39,126 1,44 10,90 39,126 28,38 75,57 124,57 48,0 93,-18 124,-57 27,-34 37,-77 39,-120l0 -11 -133 0z"/>
    <path id="14" class="fil5" d="M27825 8357c39,0 73,-14 96,-43 22,-29 30,-61 30,-97 0,-33 -7,-68 -30,-95 -23,-29 -58,-43 -96,-43 -38,0 -73,15 -96,43 -21,26 -29,61 -29,95 0,35 7,69 29,97 23,28 58,43 96,43zm65 -68c-15,20 -39,30 -65,30 -25,0 -49,-10 -63,-30 -16,-19 -20,-46 -20,-72 0,-25 4,-52 20,-71 14,-20 38,-30 63,-30 26,0 50,10 65,30 14,19 19,46 19,71 0,26 -5,53 -19,72z"/>
    <path id="15" class="fil5" d="M28038 8152c2,-3 4,-5 6,-8 14,-19 37,-27 61,-27 20,0 40,4 54,16 13,10 20,24 22,41l-54 7c-41,6 -70,9 -98,24 -24,15 -39,39 -39,67 0,19 5,33 16,48 14,21 41,35 67,35 24,2 47,-3 68,-14 18,-9 37,-25 46,-44l0 52 35 0 0 -165c0,-15 -3,-31 -10,-46 -19,-41 -58,-59 -107,-59 -39,0 -73,14 -96,45 -3,3 -6,8 -8,11l37 17zm145 55c0,22 0,39 -10,61 -16,34 -60,54 -94,51 -28,-2 -50,-24 -49,-49 0,-38 47,-46 89,-52 27,-5 44,-8 64,-11z"/>
    <polygon id="16" class="fil5" points="28286,8349 28286,7991 28325,7991 28325,8349 "/>
   </g>
   <g>
    <path class="fil6" d="M11299 2377c-1015,-1487 -2699,-2377 -4500,-2377 -2517,0 -4705,1723 -5294,4170 1030,-1099 2461,-1718 3968,-1718 780,0 1549,162 2258,485 424,185 882,280 1344,280 819,0 1610,-299 2224,-840z"/>
    <path class="fil7" d="M2155 3877c-59,161 -356,763 -552,763 -88,0 -160,-71 -160,-160 0,-10 1,-21 3,-31 477,-2583 2726,-4449 5353,-4449 1801,0 3485,890 4500,2377l-54 47 -33 27c-636,-672 -1519,-1052 -2444,-1052 -310,0 -619,43 -917,128 -1276,623 -2382,1547 -3225,2689 -86,147 -245,234 -415,234 -266,0 -481,-215 -481,-481 0,-109 37,-215 105,-300 596,-1101 1550,-1963 2707,-2442 -1627,418 -2969,1562 -3640,3103 -48,123 -166,203 -298,203 -177,0 -320,-143 -320,-320 0,-39 7,-78 21,-115 468,-1570 1619,-2847 3132,-3475 -1523,544 -2725,1736 -3282,3254z"/>
    <path class="fil8" d="M0 5849c1015,1488 2699,2377 4500,2377 2517,0 4705,-1723 5294,-4170 -1030,1100 -2461,1719 -3968,1719 -780,0 -1549,-163 -2258,-486 -424,-184 -881,-280 -1344,-280 -819,0 -1610,299 -2224,840z"/>
    <path class="fil9" d="M9144 4349c59,-160 356,-763 552,-763 88,0 160,72 160,160 0,11 -1,21 -3,31 -477,2584 -2726,4449 -5353,4449 -1801,0 -3485,-889 -4500,-2377l41 -35 46 -39c636,672 1519,1052 2444,1052 310,0 619,-43 917,-127 1276,-623 2382,-1547 3225,-2690 86,-146 245,-234 415,-234 266,0 481,216 481,481 0,109 -37,215 -105,300 -596,1101 -1550,1964 -2707,2442 1627,-418 2969,-1562 3640,-3103 48,-122 166,-203 298,-203 177,0 320,144 320,321 0,39 -7,78 -21,114 -468,1570 -1619,2847 -3132,3475 1523,-544 2725,-1735 3282,-3254z"/>
    <path class="fil10" d="M1919 8732c-90,0 -165,49 -250,58 -31,0 -63,-9 -89,-22 -27,-18 -45,-36 -76,-31 -9,0 -23,4 -31,9 -27,18 -36,35 -50,67 -89,200 -178,401 -272,602l-339 758c-9,-4 -9,0 -9,5l-22 44c-31,76 -67,148 -94,219 0,13 -9,27 -13,36 -9,22 13,58 54,49 8,-5 13,-5 17,-9 72,-45 103,-125 134,-192 58,-138 121,-277 183,-415 14,-18 18,-44 31,-58 54,-36 130,-53 183,-18 94,54 201,63 308,49 281,-31 549,-200 678,-455 63,-116 80,-249 72,-379 -5,-67 -23,-134 -67,-187 -63,-76 -165,-125 -264,-125 -31,-5 -58,-5 -84,-5zm9 121c89,0 183,27 232,102 49,72 44,161 35,241 -31,197 -165,371 -343,464 -103,63 -223,103 -348,90 -98,-18 -188,-90 -210,-188 -13,-58 -4,-116 18,-169 58,-197 187,-380 370,-478 54,-26 107,-35 165,-53 27,-5 54,-9 81,-9zm1263 -112c-243,9 -466,139 -610,326 -119,152 -198,348 -185,540 4,102 48,205 132,263 102,62 232,62 340,18 54,-22 103,-57 153,-80 67,-40 134,-84 201,-120 18,107 112,192 214,218 98,27 210,14 290,-53 72,-40 134,-103 139,-187 0,-23 0,-58 -23,-72 -35,-13 -71,14 -76,49 -67,85 -174,143 -285,125 -36,-4 -80,-22 -98,-58 -40,-85 -27,-183 9,-263l80 -187c62,-139 138,-273 192,-412 13,-35 13,-71 -23,-80 -13,-4 -26,-4 -40,5l-71 31c-31,4 -49,-5 -80,-9 -81,-14 -161,-40 -241,-49l-18 -5zm40 134c71,0 134,63 147,130 18,62 0,133 -27,191 -80,206 -214,393 -403,509 -62,36 -134,71 -205,76 -90,4 -175,-54 -198,-138 -22,-67 -8,-143 5,-215 45,-191 184,-352 349,-455 85,-58 184,-93 287,-98l45 0zm1458 -107c-49,0 -98,0 -143,13 -58,18 -111,54 -165,85 -22,9 -35,31 -58,40 -22,0 -22,-31 -31,-40 -18,-35 -62,-49 -89,-22 -72,49 -98,138 -134,210 -125,263 -277,513 -406,776 -13,27 -22,53 -4,80 17,18 53,31 80,27 27,0 49,-18 58,-45 94,-160 160,-343 259,-504 75,-143 160,-285 294,-383 76,-54 161,-108 254,-112 54,-4 112,0 148,40 53,49 62,121 53,183l-9 49c5,0 5,5 0,14 -4,13 27,35 27,35 27,0 45,5 76,5 13,0 27,-5 35,-18 18,-40 14,-85 14,-130 0,-93 -40,-187 -116,-245 -40,-36 -89,-58 -143,-58zm744 0c-62,5 -107,63 -138,112 -58,93 -103,196 -152,294 -79,161 -146,340 -128,523 13,107 93,201 191,237 107,45 232,36 334,-9 174,-77 317,-210 420,-371 53,-94 102,-193 156,-291l4 -9c67,63 165,90 250,58 107,-26 188,-107 263,-178 27,-22 54,-45 72,-71 9,-9 22,-18 13,-32 9,-18 5,-44 -9,-58 -13,-13 -31,-22 -49,-22 -35,4 -44,45 -67,67 -67,76 -147,161 -254,178 -45,9 -98,5 -134,-31 -9,-9 -18,-18 -27,-31 45,-89 85,-174 121,-263 18,-36 13,-72 -22,-90 -23,-8 -45,-13 -67,-8 -27,4 -45,22 -58,49 -9,17 -14,35 -27,53 -121,241 -210,504 -384,715 -89,102 -196,196 -330,223 -71,13 -156,-5 -201,-67 -53,-76 -44,-179 -22,-268 49,-215 174,-402 263,-607 9,-27 27,-54 23,-85 -5,-18 -18,-18 -36,-18l-5 0zm1715 -27c-242,9 -466,139 -610,326 -119,152 -198,348 -185,540 5,102 48,205 132,263 102,62 232,62 340,18 54,-22 103,-57 153,-80 67,-40 134,-84 201,-120 18,107 112,192 214,218 99,27 210,14 290,-53 72,-40 134,-103 139,-187 0,-23 0,-58 -23,-72 -35,-13 -71,14 -75,49 -67,85 -174,143 -286,125 -36,-4 -80,-22 -98,-58 -40,-85 -27,-183 9,-263l80 -187c63,-139 138,-273 192,-412 13,-35 13,-71 -22,-80 -14,-4 -27,-4 -41,5l-71 31c-31,4 -49,-5 -80,-9 -81,-14 -161,-40 -241,-49l-18 -5zm40 134c72,0 134,63 147,130 18,62 0,133 -26,191 -81,206 -215,393 -403,509 -63,36 -135,71 -206,76 -90,4 -175,-54 -197,-138 -23,-67 -9,-143 4,-215 45,-191 184,-352 350,-455 84,-58 183,-93 287,-98l44 0zm1276 -134c-242,9 -466,139 -610,326 -119,152 -198,348 -185,540 5,102 49,205 132,263 102,62 233,62 340,18 54,-22 103,-57 153,-80 67,-40 134,-84 201,-120 18,107 112,192 214,218 99,27 210,14 290,-53 72,-40 134,-103 139,-187 0,-23 0,-58 -23,-72 -35,-13 -71,14 -75,49 -67,85 -174,143 -286,125 -36,-4 -80,-22 -98,-58 -40,-85 -27,-183 9,-263l80 -187c63,-139 138,-273 192,-412 13,-35 13,-71 -22,-80 -14,-4 -27,-4 -40,5l-72 31c-31,4 -49,-5 -80,-9 -80,-14 -161,-40 -241,-49l-18 -5zm40 134c72,0 134,63 147,130 18,62 0,133 -26,191 -81,206 -215,393 -403,509 -63,36 -135,71 -206,76 -90,4 -175,-54 -197,-138 -23,-67 -9,-143 4,-215 45,-191 184,-352 350,-455 84,-58 183,-93 287,-98l44 0zm1266 -673c-62,8 -102,66 -129,116 -107,227 -210,455 -317,678 -58,125 -120,241 -183,361 -71,134 -147,272 -214,410 -13,27 -26,49 -9,76 14,18 41,31 63,27 31,4 67,-4 80,-40 107,-192 183,-402 304,-589 62,-112 129,-223 236,-294 94,-63 196,-125 308,-121 76,0 138,63 151,134 23,85 -13,169 -40,250 -18,53 -35,107 -58,160 -35,90 -58,193 -40,287 14,107 80,209 188,241 133,35 272,-14 379,-94 31,-27 67,-58 98,-89 18,-27 27,-45 36,-72 4,-22 4,-44 4,-67 -4,-49 -45,-44 -89,5l-40 40c-76,71 -174,125 -277,120 -49,0 -98,-26 -120,-71 -27,-49 -36,-107 -23,-161 5,-26 14,-44 18,-76 31,-125 94,-246 116,-375 5,-107 -27,-223 -111,-294 -54,-45 -130,-67 -201,-58 -80,0 -156,35 -223,75 -36,14 -63,41 -94,58 -22,5 -22,-22 -31,-31 80,-174 165,-348 236,-526 18,-49 -18,-80 -18,-80z"/>
    <path class="fil10" d="M2323 10549l127 -308 128 308 -255 0zm106 -366c-3,0 -5,1 -7,3l-287 692c-1,3 -1,5 1,7 1,2 3,3 6,3l35 0c3,0 5,-2 6,-5l120 -288 294 0 120 288c1,3 3,5 6,5l36 0c2,0 4,-1 6,-3 1,-2 1,-4 0,-7l-287 -692c-1,-2 -3,-3 -6,-3l-43 0zm750 351l341 -340c2,-2 3,-5 1,-8 -1,-2 -3,-3 -6,-3l-46 0c-2,0 -4,0 -5,1l-314 314 0 -308c0,-4 -3,-6 -7,-6l-33 0c-4,0 -7,2 -7,6l0 691c0,4 3,7 7,7l33 0c4,0 7,-3 7,-7l0 -311 335 315c2,1 3,2 5,2l48 0c3,0 6,-2 7,-5 1,-2 0,-5 -2,-7l-364 -341zm640 354c-37,0 -72,-9 -104,-27 -32,-19 -58,-43 -77,-74 -3,-4 -2,-7 2,-9l28 -17c4,-2 7,-1 9,2 20,31 46,53 80,67 34,13 70,15 106,5 36,-9 66,-30 89,-62 22,-30 34,-64 34,-103l0 -480c0,-5 2,-7 6,-7l34 0c4,0 6,2 6,7l0 484c0,59 -21,109 -63,151 -41,42 -91,63 -150,63zm720 -604c-3,3 -6,3 -9,1 -3,-2 -5,-4 -8,-6 -3,-2 -7,-5 -10,-8 -9,-6 -17,-11 -25,-16 -21,-11 -42,-19 -65,-24 -16,-3 -31,-5 -42,-5l-11 0 -12 0c-4,0 -8,0 -13,1l-6 0 -6 1c-19,2 -35,6 -48,12 -17,6 -31,15 -42,27 -12,11 -20,26 -25,44l-1 7c-1,2 -1,5 -1,7 -1,6 -2,10 -2,13l0 8 0 0c0,1 0,1 0,1l0 -2 0 1 0 3 0 4 1 8 1 6 0 3 1 3 2 7c1,1 1,3 3,6l1 3 2 3 3 6 3 6 3 3 2 3c2,2 3,4 4,5 12,14 29,27 50,39 15,9 35,19 60,30l9 3 8 4 16 8 32 15c27,11 49,23 66,34 25,15 44,32 59,49 18,21 30,45 35,71l2 10c1,4 1,7 1,10l1 10 0 5 0 1 0 1 0 1 0 2 0 8 -1 4c0,2 0,4 0,5l-1 10 -2 10c-5,26 -15,49 -31,68 -14,19 -33,35 -55,46 -18,9 -39,17 -62,22l-8 1 -8 1c-5,1 -10,2 -14,2l-15 2 -14 0 -7 1 -4 0 -2 0 -2 0 -13 -1c-3,0 -8,0 -13,-1l-7 0 -6 -1c-15,-2 -32,-5 -49,-10 -26,-7 -51,-17 -74,-31 -9,-5 -18,-10 -25,-16 -7,-4 -13,-9 -18,-13 -4,-3 -7,-6 -10,-8 -3,-4 -3,-7 0,-10l24 -23c3,-3 6,-3 10,0 1,2 3,3 5,5 5,4 10,8 15,11 7,5 14,10 22,14 20,12 41,21 63,27 15,4 29,7 42,8l5 1 6 0c4,1 8,1 12,1l13 1 1 0 0 0 1 0 3 -1 7 0 12 0 13 -1c3,0 8,-1 13,-2l6 -1 7 -1c19,-4 36,-10 49,-17 17,-8 30,-19 41,-33 11,-15 19,-31 23,-50l1 -7 1 -7c0,-1 0,-2 0,-4l0 -3 1 -9 0 -2 0 -1 0 -1c0,1 0,1 0,1l0 0 0 -4 -1 -7c0,-2 0,-4 0,-7l-1 -4 -1 -3c-3,-19 -12,-37 -25,-52 -21,-24 -57,-48 -109,-72l-33 -15 -16 -8 -7 -3 -8 -4c-27,-12 -49,-22 -66,-32 -24,-15 -44,-31 -59,-47 -2,-2 -4,-5 -7,-8l-2 -4 -3 -4c-5,-7 -9,-13 -11,-17l-2 -5 -2 -4c-1,-4 -2,-7 -3,-9l-3 -10 -1 -5 -1 -5 -2 -11 0 -8 0 -4 0 -2 0 -1 0 -2c0,0 0,0 0,0l0 0 0 -10c0,-4 1,-11 2,-18 0,-3 0,-6 1,-9l2 -9c7,-25 19,-47 36,-64 16,-15 35,-28 57,-37 17,-6 37,-11 59,-14l8 -1 7 0c5,-1 10,-1 13,-1l14 0 13 1c14,0 30,2 49,5 26,6 51,16 75,28 9,5 18,11 26,16 6,4 12,8 18,13 2,2 5,5 9,8 4,4 4,7 0,10l-20 20zm508 604c-48,0 -95,-10 -139,-29 -43,-18 -80,-44 -113,-77 -32,-34 -58,-72 -75,-115 -18,-45 -27,-91 -26,-140 2,-90 34,-168 97,-234 62,-66 138,-103 228,-110 80,-7 153,12 220,55 4,3 4,6 1,9l-18 28c-2,4 -5,4 -9,2 -58,-37 -121,-54 -190,-48 -79,6 -145,38 -200,97 -54,58 -82,126 -83,205 0,42 8,82 24,120 15,37 37,70 65,99 29,29 61,51 98,67 38,16 78,24 120,24 61,0 116,-16 166,-49 4,-2 8,-2 10,2l18 27c3,4 2,7 -2,10 -58,38 -122,57 -192,57zm754 -658c5,0 7,-2 7,-7l0 -33c0,-4 -2,-6 -7,-6l-440 0c-4,0 -7,2 -7,6l0 691c0,4 3,7 7,7l440 0c5,0 7,-3 7,-7l0 -33c0,-4 -2,-7 -7,-7l-400 0 0 -282 266 0c5,0 7,-3 7,-7l0 -33c0,-4 -2,-7 -7,-7l-266 0 0 -282 400 0zm355 658c-4,0 -7,-3 -7,-7l0 -691c0,-5 3,-7 7,-7l33 0c5,0 7,2 7,7l0 691c0,4 -2,7 -7,7l-33 0zm530 -24c0,-28 -1,-64 -1,-108 0,-7 0,-15 0,-25l0 -14 0 -13c0,-12 0,-22 0,-29 0,-11 0,-21 0,-29l0 -16c0,-6 -1,-12 -1,-18 -2,-12 -5,-24 -8,-35 -8,-24 -21,-45 -39,-63 -17,-18 -38,-32 -62,-40 -11,-5 -22,-8 -35,-9l-4 -1 -5 0 -4 -1c-2,0 -4,0 -5,0l-4 0 -4 0 -5 0 -4 1c-23,1 -44,7 -64,17 -18,10 -34,22 -48,37l-3 4 0 -56c0,-5 -2,-7 -6,-7l-33 0c-5,0 -7,2 -7,7l0 415c0,4 2,7 7,7l33 0c4,0 6,-3 6,-7l0 -239 1 -11c0,-2 0,-4 0,-7l0 -4 1 -4c0,-4 1,-8 1,-11 3,-9 6,-18 10,-28 6,-11 13,-22 21,-31 10,-11 23,-20 36,-27 15,-7 31,-12 48,-13l3 0 3 0 2 0 1 0 4 0c1,0 2,0 4,0l3 1 3 0 3 1c9,1 18,3 26,6 18,7 33,17 45,30 13,14 22,29 28,47 3,9 5,17 6,26 1,4 1,8 1,13l0 16c0,17 0,37 -1,58 0,8 0,17 0,27l0 13 0 12c0,44 0,80 0,108l0 17c0,4 2,7 7,7l33 0c4,0 7,-3 7,-7l0 -17zm146 24c-4,0 -6,-3 -6,-7l0 -413c0,-4 2,-7 6,-7l33 0c4,0 7,3 7,7l0 413c0,4 -3,7 -7,7l-33 0zm50 -563c0,9 -3,17 -10,23 -6,7 -14,10 -23,10 -10,0 -18,-3 -24,-10 -7,-6 -10,-14 -10,-23 0,-10 3,-17 10,-24 6,-7 14,-10 24,-10 9,0 17,3 23,10 7,7 10,14 10,24zm344 505c-3,-3 -6,-4 -10,-1 -22,14 -42,16 -61,7 -20,-10 -31,-31 -31,-62l0 -267 68 0c4,0 7,-2 7,-7l0 -33c0,-4 -3,-7 -7,-7l-68 0 0 -121c0,-5 -2,-7 -6,-7l-33 0c-5,0 -7,2 -7,7l0 121 -59 0c-5,0 -7,3 -7,7l0 33c0,5 2,7 7,7l59 0 0 267c0,24 5,45 15,63 10,18 24,31 42,40 13,7 28,11 43,11 23,0 45,-8 66,-22 4,-2 4,-5 1,-9l-19 -27zm110 58c-4,0 -6,-3 -6,-7l0 -413c0,-4 2,-7 6,-7l33 0c5,0 7,3 7,7l0 413c0,4 -2,7 -7,7l-33 0zm50 -563c0,9 -3,17 -9,23 -7,7 -15,10 -24,10 -10,0 -17,-3 -24,-10 -6,-6 -9,-14 -9,-23 0,-10 3,-17 9,-24 7,-7 14,-10 24,-10 9,0 17,3 24,10 6,7 9,14 9,24zm369 449c-9,17 -20,30 -33,40 -15,12 -33,20 -52,24 -20,5 -41,5 -63,1 -23,-4 -39,-13 -49,-27 -10,-14 -15,-33 -14,-56 1,-20 9,-36 24,-48 12,-10 30,-18 52,-23 16,-4 35,-7 56,-8 16,-1 33,-2 50,-1 11,0 24,1 38,2 3,0 7,1 10,1l0 14 0 15 0 14 -2 10c-4,16 -10,30 -17,42zm71 114c6,0 8,-3 7,-8 -3,-28 -6,-55 -8,-81 -3,-35 -5,-65 -5,-91 0,-9 1,-19 1,-30l0 -24 0 -24c0,-18 -2,-34 -4,-48 -5,-35 -18,-63 -37,-83 -26,-26 -63,-39 -113,-39 -35,0 -67,7 -96,20 -11,5 -21,11 -30,17 -3,2 -7,5 -10,8 -3,1 -5,3 -7,5 -4,4 -4,7 0,11l24 22c3,3 6,3 9,0 2,-1 3,-3 5,-4 3,-3 6,-4 8,-6 7,-5 15,-9 23,-12 23,-10 47,-15 74,-15 36,0 63,9 79,26 19,18 28,53 29,103l0 0 -8 -1c-7,0 -13,-1 -18,-1 -8,0 -15,-1 -22,-1 -19,0 -36,0 -54,1 -23,2 -45,5 -63,9 -29,7 -52,18 -70,33 -12,10 -22,21 -28,34 -7,13 -11,28 -13,44 -1,35 6,63 22,86 9,13 21,23 35,31 13,7 27,11 43,14 28,5 55,4 81,-2 26,-6 49,-18 69,-34 11,-9 22,-20 31,-33 1,21 4,43 7,67 0,4 3,6 6,6l33 0zm289 -58c-2,-3 -5,-4 -9,-1 -22,14 -43,16 -61,7 -21,-10 -31,-31 -31,-62l0 -267 67 0c5,0 7,-2 7,-7l0 -33c0,-4 -2,-7 -7,-7l-67 0 0 -121c0,-5 -3,-7 -7,-7l-33 0c-5,0 -7,2 -7,7l1 121 -60 0c-5,0 -7,3 -7,7l0 33c0,5 2,7 7,7l60 0 0 267c0,24 4,45 14,63 10,18 24,31 42,40 14,7 28,11 43,11 23,0 45,-8 66,-22 4,-2 5,-5 2,-9l-20 -27zm111 58c-5,0 -7,-3 -7,-7l0 -413c0,-4 2,-7 7,-7l32 0c5,0 7,3 7,7l0 413c0,4 -2,7 -7,7l-32 0zm50 -563c0,9 -3,17 -10,23 -7,7 -14,10 -24,10 -9,0 -17,-3 -23,-10 -7,-6 -10,-14 -10,-23 0,-10 3,-17 10,-24 6,-7 14,-10 23,-10 10,0 17,3 24,10 7,7 10,14 10,24zm286 558c-1,3 -4,5 -6,5l-31 0c-3,0 -5,-2 -6,-5l-153 -413c-1,-3 -1,-5 1,-7 1,-2 3,-3 6,-3l34 0c3,0 5,2 6,5l128 342 126 -342c1,-3 4,-5 7,-5l34 0c3,0 5,1 6,3 2,2 2,4 1,7l-153 413zm397 -377c-45,0 -83,16 -113,48 -30,32 -46,71 -46,118l317 -27c-5,-41 -21,-74 -51,-100 -29,-25 -65,-39 -107,-39zm8 382c-59,0 -109,-21 -151,-63 -42,-42 -63,-92 -63,-151 0,-60 20,-111 61,-152 40,-42 89,-62 147,-62 56,1 104,21 144,63 40,41 60,90 60,147l0 11c0,4 -2,6 -6,7l-353 30c10,36 29,66 59,89 30,23 64,34 102,34 29,0 56,-7 81,-21 25,-13 45,-33 61,-57 2,-4 5,-5 9,-2l28 16c4,3 5,6 3,10 -20,31 -46,55 -78,74 -32,18 -67,27 -104,27z"/>
   </g>
  </g>
 </g>
</svg>
