<?xml version="1.0" encoding="UTF-8"?>
<!DOCTYPE svg PUBLIC "-//W3C//DTD SVG 1.1//EN" "http://www.w3.org/Graphics/SVG/1.1/DTD/svg11.dtd">
<!-- Creator: CorelDRAW X7 -->
<svg xmlns="http://www.w3.org/2000/svg" xml:space="preserve" width="67.9026mm" height="89.4926mm" version="1.1" style="shape-rendering:geometricPrecision; text-rendering:geometricPrecision; image-rendering:optimizeQuality; fill-rule:evenodd; clip-rule:evenodd"
viewBox="0 0 6790 8949"
 xmlns:xlink="http://www.w3.org/1999/xlink">
 <defs>
  <style type="text/css">
   <![CDATA[
    .str0 {stroke:#61003F;stroke-width:84.66;stroke-linecap:round;stroke-linejoin:round}
    .fil1 {fill:#61003F}
    .fil0 {fill:white}
   ]]>
  </style>
 </defs>
 <g id="Layer_x0020_1">
  <metadata id="CorelCorpID_0Corel-Layer"/>
  <g id="_2548765581024">
   <polygon class="fil0 str0" points="2,8784 225,8655 982,6638 6503,5067 6083,4431 1294,5797 1441,5425 5900,4170 5430,3543 1750,4595 1896,4217 5243,3270 3174,364 1911,3724 2130,3593 3184,820 4863,3170 1789,4049 1466,4887 5304,3786 5503,4063 1342,5239 1011,6085 5949,4685 6149,4957 869,6457 "/>
   <polygon class="fil0 str0" points="288,8949 511,8820 1268,6803 6789,5232 6369,4596 1580,5962 1727,5590 6186,4335 5716,3708 2036,4760 2182,4382 5529,3435 3460,529 2197,3889 2416,3758 3470,985 5149,3335 2075,4214 1752,5052 5590,3951 5789,4228 1628,5404 1297,6250 6235,4850 6435,5122 1155,6623 "/>
   <polygon class="fil1 str0" points="2036,4760 2147,4478 5430,3543 5716,3708 "/>
   <polygon class="fil1 str0" points="1628,5404 1342,5239 5503,4063 5789,4228 "/>
   <polygon class="fil1 str0" points="1155,6623 869,6457 6149,4957 6435,5122 "/>
   <polygon class="fil1 str0" points="1580,5962 1691,5680 6083,4431 6369,4596 "/>
   <polygon class="fil1 str0" points="869,6457 2,8784 288,8949 1155,6623 "/>
   <polygon class="fil1 str0" points="1342,5239 1011,6085 1297,6250 1628,5404 "/>
   <polygon class="fil1 str0" points="1789,4049 1466,4887 1752,5052 2075,4214 "/>
   <polygon class="fil0 str0" points="3174,364 1911,3724 2197,3889 3460,529 "/>
   <polygon class="fil1 str0" points="2075,4214 1789,4049 4863,3170 5149,3335 "/>
   <polygon class="fil0 str0" points="3174,364 1911,3724 2197,3889 3460,529 "/>
   <polygon class="fil1 str0" points="3174,364 1911,3724 2197,3889 3460,529 "/>
   <polygon class="fil1" points="3412,1139 3470,985 5149,3335 4863,3170 "/>
   <polygon class="fil1" points="5451,3991 5590,3951 5789,4228 5503,4063 "/>
   <polygon class="fil1" points="6094,4888 6233,4848 6432,5126 6146,4961 "/>
   <g>
    <polygon class="fil0 str0" points="5426,5509 1514,7758 4061,0 5241,1555 "/>
    <polygon class="fil0 str0" points="4061,0 1514,7758 1800,7903 4347,146 "/>
    <polygon class="fil0 str0" points="5712,5655 1800,7903 4347,146 5527,1701 "/>
   </g>
  </g>
 </g>
</svg>
