<?xml version="1.0" encoding="UTF-8"?>
<!DOCTYPE svg PUBLIC "-//W3C//DTD SVG 1.1//EN" "http://www.w3.org/Graphics/SVG/1.1/DTD/svg11.dtd">
<!-- Creator: CorelDRAW X7 -->
<svg xmlns="http://www.w3.org/2000/svg" xml:space="preserve" width="63.4152mm" height="109.135mm" version="1.1" style="shape-rendering:geometricPrecision; text-rendering:geometricPrecision; image-rendering:optimizeQuality; fill-rule:evenodd; clip-rule:evenodd"
viewBox="0 0 6342 10914"
 xmlns:xlink="http://www.w3.org/1999/xlink">
 <defs>
  <style type="text/css">
   <![CDATA[
    .fil4 {fill:none}
    .fil2 {fill:#61003F}
    .fil3 {fill:#DB4C1C}
    .fil0 {fill:#FFF4F0}
    .fil1 {fill:#61003F;fill-rule:nonzero}
   ]]>
  </style>
    <clipPath id="id0">
     <path d="M2050 7212c-72,41 -145,51 -200,19 -55,-32 -83,-99 -83,-183 0,-83 28,-182 83,-278 55,-95 127,-168 199,-210 72,-42 145,-52 200,-20 55,32 83,100 83,183 0,84 -27,183 -82,278 -56,96 -128,169 -200,211z"/>
    </clipPath>
    <clipPath id="id1">
     <path d="M2050 7061c-39,23 -78,28 -108,11 -30,-17 -44,-54 -44,-99 0,-45 14,-98 44,-149 30,-52 68,-91 107,-114 39,-22 78,-28 108,-10 30,17 45,53 45,98 0,45 -15,99 -45,150 -29,51 -68,91 -107,113z"/>
    </clipPath>
 </defs>
 <g id="Layer_x0020_1">
  <metadata id="CorelCorpID_0Corel-Layer"/>
  <g id="_2595167183248">
   <polygon class="fil0" points="5709,10682 5471,10819 5113,9924 4994,9993 4637,10200 4637,7997 5829,9511 5471,9718 5352,9787 "/>
   <path class="fil1" d="M5722 10703l-238 138c-12,7 -28,3 -35,-9 0,-2 -1,-3 -2,-5l-346 -867 -94 55 -358 206c-12,7 -27,3 -34,-9 -2,-4 -3,-8 -3,-12l0 0 0 -2203c0,-14 11,-25 25,-25 8,0 15,4 20,10l1191 1514c9,11 7,26 -4,35 -1,1 -2,2 -4,2l-356 206 -101 58 350 875c4,12 -1,25 -11,31l0 0zm-239 80l195 -112 -349 -874c-5,-11 -1,-25 10,-32l120 -69 332 -192 -1129 -1435 0 2087 320 -184 119 -69 0 0c1,-1 2,-1 3,-2 13,-5 27,1 33,14l346 868z"/>
   <polygon class="fil0" points="5829,10750 5590,10888 5233,9993 5113,10062 4756,10269 4756,8066 5948,9580 5590,9787 5471,9855 "/>
   <path class="fil1" d="M5841 10772l-238 138c-12,7 -27,3 -34,-9 -1,-2 -2,-3 -2,-5l-347 -867 -94 55 -358 206c-12,7 -27,3 -34,-9 -2,-4 -3,-8 -3,-12l0 0 0 -2203c0,-14 11,-25 25,-25 8,0 16,4 20,10l1192 1514c8,11 6,26 -5,35 -1,1 -2,2 -3,2l-357 206 -101 58 350 875c4,12 0,25 -11,31l0 0zm-238 80l195 -112 -350 -874c-5,-11 -1,-26 11,-32l119 -69 332 -192 -1129 -1435 0 2087 320 -185 119 -68 0 0c1,-1 2,-2 3,-2 13,-5 28,1 33,14l347 868z"/>
   <polygon class="fil0" points="4637,10200 4637,7997 4756,8066 4756,10269 "/>
   <path class="fil1" d="M4612 10200l0 -2203c0,-14 11,-25 25,-25 5,0 10,1 14,4l117 68c8,5 13,13 13,22l0 0 0 2203c0,13 -11,25 -25,25 -5,0 -10,-2 -14,-5l-118 -68c-8,-4 -12,-13 -12,-21l0 0zm50 -2160l0 2145 69 40 0 -2145 -69 -40z"/>
   <polygon class="fil0" points="5471,10819 5158,10036 5233,9993 5590,10888 "/>
   <path class="fil1" d="M5447 10827l-312 -782c-5,-11 0,-24 11,-30l0 0 74 -43c12,-7 27,-3 34,9 1,1 2,3 2,4l357 894c5,13 -1,27 -14,32 -7,3 -15,2 -21,-1l0 0 -119 -69c-6,-3 -10,-8 -12,-14zm-258 -780l302 755 49 29 -320 -802 -31 18z"/>
   <path class="fil2" d="M4722 1668l-981 566c-37,25 -73,63 -101,112 -28,49 -43,99 -46,143l0 502c3,40 18,73 47,90 28,16 64,13 101,-5l34 -20 0 421 274 -579 672 -388c37,-25 73,-64 101,-112 28,-49 44,-99 47,-144l0 -461 0 -40c-3,-41 -19,-73 -47,-90 -28,-16 -64,-13 -101,5z"/>
   <path class="fil3" d="M4876 1807l-981 566c-36,25 -72,63 -100,112 -29,49 -44,99 -47,143l0 502c3,41 19,73 47,90 28,16 64,13 101,-5l34 -20 0 421 274 -579 673 -388c36,-25 72,-64 100,-112 29,-49 44,-99 47,-143l0 -462 0 -40c-3,-41 -18,-73 -47,-90 -28,-16 -64,-13 -101,5z"/>
   <path class="fil2" d="M5030 1946l-980 566c-37,25 -73,64 -101,112 -28,49 -44,99 -47,144l0 501c3,41 19,73 47,90 28,16 64,13 101,-5l35 -20 0 421 273 -579 673 -388c37,-25 73,-63 101,-112 28,-49 43,-99 46,-143l0 -462 0 -40c-3,-41 -18,-73 -47,-90 -28,-16 -64,-13 -101,5z"/>
   <polygon class="fil0" points="2575,25 1448,676 1448,2846 2575,2195 "/>
   <path class="fil1" d="M2550 69l-1077 622 0 2112 1077 -622 0 -2112zm-1114 586l1125 -650c4,-3 9,-5 14,-5 14,0 25,12 25,25l0 2170 0 0c0,9 -4,17 -12,22l-1126 650c-4,2 -9,4 -14,4 -14,0 -25,-11 -25,-25l0 -2170 0 0c0,-8 5,-17 13,-21z"/>
   <line class="fil4" x1="1542" y1="839" x2="2481" y2= "297" />
   <path class="fil1" d="M1555 861c-12,7 -27,2 -34,-9 -7,-12 -3,-28 9,-35l939 -542c12,-7 27,-3 34,9 7,12 3,27 -9,34l-939 543z"/>
   <line class="fil4" x1="1542" y1="947" x2="2294" y2= "514" />
   <path class="fil1" d="M1555 969c-12,7 -27,3 -34,-9 -7,-12 -3,-27 9,-34l751 -434c12,-7 27,-3 34,9 7,12 3,27 -9,34l-751 434z"/>
   <line class="fil4" x1="1542" y1="1056" x2="2012" y2= "785" />
   <path class="fil1" d="M1555 1078c-12,6 -27,2 -34,-10 -7,-11 -3,-27 9,-34l469 -271c12,-7 27,-3 34,9 7,12 3,27 -9,34l-469 272z"/>
   <line class="fil4" x1="1542" y1="1164" x2="2387" y2= "676" />
   <path class="fil1" d="M1555 1186c-12,7 -27,3 -34,-9 -7,-12 -3,-27 9,-34l845 -488c12,-7 27,-3 34,9 7,12 3,27 -9,34l-845 488z"/>
   <line class="fil4" x1="1542" y1="1273" x2="2200" y2= "893" />
   <path class="fil1" d="M1555 1295c-12,6 -27,2 -34,-10 -7,-11 -3,-27 9,-34l657 -379c12,-7 27,-3 34,9 7,12 3,27 -9,34l-657 380z"/>
   <polygon class="fil0" points="2012,1110 1542,1381 1542,1924 2012,1653 2012,1219 "/>
   <path class="fil1" d="M1987 1153l-420 243 0 485 420 -243 0 -419 0 -66zm-457 207l468 -271c4,-2 9,-4 14,-4 14,0 25,11 25,25l0 109 0 434 0 0c0,8 -5,17 -13,21l-469 271 0 0c-4,2 -8,4 -13,4 -14,0 -25,-11 -25,-25l0 -541c0,-9 4,-18 13,-23z"/>
   <line class="fil4" x1="2106" y1="1056" x2="2294" y2= "947" />
   <path class="fil1" d="M2118 1078c-12,6 -27,2 -34,-10 -7,-11 -3,-27 9,-34l188 -108c12,-7 27,-3 34,9 7,12 3,27 -9,34l-188 109z"/>
   <line class="fil4" x1="2106" y1="1164" x2="2387" y2= "1002" />
   <path class="fil1" d="M2118 1186c-12,7 -27,3 -34,-9 -7,-12 -3,-27 9,-34l282 -163c12,-7 27,-3 34,9 7,12 3,27 -9,34l-282 163z"/>
   <line class="fil4" x1="2106" y1="1273" x2="2294" y2= "1164" />
   <path class="fil1" d="M2118 1295c-12,6 -27,2 -34,-10 -7,-11 -3,-27 9,-34l188 -108c12,-7 27,-3 34,9 7,12 3,27 -9,34l-188 109z"/>
   <polyline class="fil4" points="1542,2032 2387,1544 2387,1653 "/>
   <path class="fil1" d="M1555 2054c-12,7 -27,3 -34,-9 -7,-12 -3,-27 9,-34l845 -488c12,-7 27,-3 34,9 2,4 3,8 3,12l0 0 0 109c0,13 -11,25 -25,25 -13,0 -25,-12 -25,-25l0 -66 -807 467z"/>
   <polyline class="fil4" points="2387,1653 1542,2141 1542,2032 "/>
   <path class="fil1" d="M2375 1631c12,-7 27,-3 34,9 7,12 3,27 -9,34l-845 488c-12,7 -27,3 -34,-9 -3,-4 -4,-8 -4,-12l0 0 0 -109c0,-14 11,-25 25,-25 14,0 25,11 25,25l0 65 808 -466z"/>
   <line class="fil4" x1="1542" y1="2249" x2="1918" y2= "2032" />
   <path class="fil1" d="M1555 2271c-12,7 -27,3 -34,-9 -7,-12 -3,-27 9,-34l375 -217c12,-7 28,-3 34,9 7,12 3,27 -9,34l-375 217z"/>
   <line class="fil4" x1="1542" y1="2358" x2="2294" y2= "1924" />
   <path class="fil1" d="M1555 2379c-12,7 -27,3 -34,-9 -7,-12 -3,-27 9,-34l751 -434c12,-7 27,-3 34,9 7,12 3,27 -9,34l-751 434z"/>
   <line class="fil4" x1="1542" y1="2466" x2="2481" y2= "1924" />
   <path class="fil1" d="M1555 2488c-12,7 -27,3 -34,-9 -7,-12 -3,-28 9,-34l939 -543c12,-7 27,-3 34,9 7,12 3,27 -9,34l-939 543z"/>
   <line class="fil4" x1="1542" y1="2575" x2="2106" y2= "2249" />
   <path class="fil1" d="M1555 2596c-12,7 -27,3 -34,-9 -7,-12 -3,-27 9,-34l563 -325c12,-7 27,-3 34,9 7,12 3,27 -9,34l-563 325z"/>
   <line class="fil4" x1="1542" y1="2683" x2="2387" y2= "2195" />
   <path class="fil1" d="M1555 2705c-12,7 -27,3 -34,-9 -7,-12 -3,-28 9,-34l845 -489c12,-7 27,-2 34,9 7,12 3,28 -9,35l-845 488z"/>
   <polygon class="fil0" points="6317,4072 5903,3833 4524,4630 4524,6701 6317,5665 "/>
   <path class="fil1" d="M6293 4086l-390 -225 -1355 783 0 2016 1745 -1008 0 -1566zm-378 -273l412 238c8,4 14,12 14,21l0 1593 -1 0c0,9 -4,16 -11,21l-1792 1035c-4,2 -8,4 -13,4 -13,0 -24,-11 -24,-24l0 -2071 0 0c0,-8 4,-16 12,-21l1379 -796c7,-4 16,-5 24,0z"/>
   <polygon class="fil2" points="4800,5108 4800,6542 6041,5825 6041,4391 "/>
   <path class="fil1" d="M4823 5121l0 1379 1194 -689 0 -1379 -1194 689zm-47 1421l0 -1434 0 0c0,-8 4,-16 12,-21l1240 -716c3,-2 8,-4 13,-4 13,0 24,11 24,24l0 1434 0 0c0,8 -5,16 -12,20l-1240 716c-4,3 -8,4 -13,4 -14,0 -24,-10 -24,-23z"/>
   <polygon class="fil0" points="4850,5191 4850,6506 5988,5848 5988,4534 "/>
   <path class="fil1" d="M4874 5205l0 1260 1091 -630 0 -1260 -1091 630zm-48 1301l0 -1315 0 0c0,-8 5,-16 12,-20l1137 -657c4,-3 8,-4 13,-4 13,0 24,11 24,24l0 1314 0 0c0,9 -4,17 -12,21l-1137 656c-3,3 -8,5 -13,5 -13,0 -24,-11 -24,-24z"/>
   <polygon class="fil0" points="5075,4311 5765,3913 5765,4391 5075,4789 "/>
   <path class="fil1" d="M5065 4290l688 -398c12,-6 26,-2 33,9 2,4 3,8 3,12l0 0 0 478c0,9 -6,17 -13,21l-689 398c-11,6 -26,2 -32,-9 -2,-4 -3,-8 -3,-12l0 0 0 -478c0,-9 5,-17 13,-21zm676 -336l-642 371 0 423 642 -371 0 -423z"/>
   <polyline class="fil4" points="5075,4789 4938,4869 4938,4391 "/>
   <path class="fil1" d="M5064 4769c11,-7 25,-3 32,8 7,12 3,26 -9,33l-138 79c-11,7 -25,3 -32,-8 -2,-4 -3,-8 -3,-12l0 0 0 -478c0,-13 10,-24 24,-24 13,0 23,11 23,24l0 437 103 -59z"/>
   <polygon class="fil2" points="5627,4391 5627,4072 5489,4152 5489,4471 "/>
   <path class="fil1" d="M5603 4377l0 -264 -90 53 0 263 90 -52zm48 -305l0 319 0 0c0,8 -4,16 -12,20l-136 79c-4,3 -9,4 -14,4 -13,0 -24,-10 -24,-23l0 -319 1 0c0,-8 4,-16 11,-21l137 -78c4,-3 8,-4 13,-4 13,0 24,10 24,23z"/>
   <polygon class="fil0" points="4489,4613 4489,6684 4524,6701 4524,4630 "/>
   <path class="fil1" d="M4466 6684l0 -2071 0 0c0,-4 0,-7 2,-11 6,-12 20,-16 32,-10l33 16c9,4 15,12 15,22l0 2071 -1 0c0,3 0,7 -2,10 -6,12 -20,17 -32,11l-33 -16c-8,-4 -14,-12 -14,-22z"/>
   <polygon class="fil0" points="4524,4633 5903,3833 5869,3816 4489,4613 "/>
   <g>
    <path class="fil1" d="M5915 3854l-1379 799 0 0c-7,4 -16,5 -24,0l-33 -19c-4,-2 -8,-5 -10,-9 -7,-12 -3,-26 8,-33l1380 -796c6,-4 15,-5 22,-1l34 17c4,2 8,5 11,9 6,12 2,26 -9,33zm-2 -42l0 0 0 0z"/>
   </g>
   <line class="fil4" x1="5988" y1="4747" x2="5094" y2= "5267" />
   <path class="fil1" d="M5976 4727c12,-7 26,-3 33,8 6,12 2,26 -9,33l-894 520c-11,6 -26,2 -33,-9 -6,-11 -2,-26 9,-32l894 -520z"/>
   <line class="fil4" x1="5988" y1="5066" x2="5094" y2= "5586" />
   <path class="fil1" d="M5976 5045c12,-6 26,-2 33,9 6,11 2,26 -9,32l-894 520c-11,7 -26,3 -33,-8 -6,-12 -2,-26 9,-33l894 -520z"/>
   <line class="fil4" x1="5988" y1="5389" x2="5094" y2= "5904" />
   <path class="fil1" d="M5976 5368c12,-6 26,-2 33,9 6,11 2,26 -9,32l-894 516c-12,6 -26,2 -33,-9 -6,-11 -2,-26 9,-32l894 -516z"/>
   <line class="fil4" x1="5988" y1="5707" x2="5094" y2= "6223" />
   <path class="fil1" d="M5976 5687c12,-7 26,-3 33,9 6,11 2,25 -9,32l-894 515c-12,7 -26,3 -33,-8 -6,-12 -2,-26 9,-33l894 -515z"/>
   <polygon class="fil0" points="2421,6242 1674,6674 1674,8304 2421,7872 "/>
   <path class="fil1" d="M2405 6271l-714 412 0 1592 714 -412 0 -1592zm-739 389l746 -431c3,-2 6,-3 9,-3 10,0 17,7 17,16l0 1630 0 0c0,6 -3,11 -8,15l-746 430c-3,2 -6,3 -10,3 -9,0 -16,-7 -16,-16l0 -1630 0 0c0,-6 3,-11 8,-14z"/>
   <polygon class="fil0" points="1678,8304 1678,6674 18,5715 18,7345 "/>
   <path class="fil1" d="M1661 8275l0 -1592 -1627 -939 0 1591 1627 940zm33 -1601l0 1630 0 0c0,3 -1,5 -2,8 -5,8 -15,11 -23,6l-1659 -958c-5,-3 -9,-8 -9,-15l0 -1630 0 0c0,-3 1,-5 2,-8 5,-8 15,-11 23,-6l1659 958c5,3 9,8 9,15z"/>
   <polygon class="fil0" points="1688,6673 2425,6242 775,5283 28,5714 "/>
   <path class="fil1" d="M1688 6654l704 -411 -1617 -941 -714 412 1627 940zm745 -397l-736 430c-5,3 -11,4 -17,0l-1660 -958c-2,-2 -4,-4 -6,-6 -5,-8 -2,-18 6,-23l747 -431c5,-3 11,-3 17,0l1649 959 0 0c2,2 4,4 6,6 4,8 2,18 -6,23z"/>
   <path class="fil0" d="M2050 7272c-85,49 -171,61 -236,23 -66,-38 -99,-118 -99,-217 0,-99 33,-216 98,-329 65,-113 151,-200 236,-249 86,-49 171,-61 237,-23 65,37 98,118 98,216 0,99 -33,217 -98,329 -65,113 -150,200 -236,250z"/>
   <path class="fil1" d="M2058 7284c-46,27 -91,43 -135,47 -42,4 -82,-3 -117,-23 -35,-20 -61,-51 -79,-90 -18,-40 -27,-87 -27,-140 0,-52 9,-108 26,-166 17,-56 42,-114 74,-170 33,-57 70,-107 110,-149 42,-44 87,-80 132,-106 45,-26 91,-42 134,-46 42,-5 82,3 117,23 35,20 61,51 79,90 18,39 27,87 27,139 0,52 -9,109 -26,167 -17,56 -41,113 -74,170 -32,56 -70,106 -110,149 -42,44 -87,80 -131,105zm-137 17c38,-4 80,-18 122,-42 42,-25 84,-59 124,-101 39,-41 75,-89 106,-143 32,-54 55,-110 71,-163 17,-56 25,-110 25,-159 0,-48 -8,-91 -24,-127 -15,-33 -38,-59 -67,-76 -29,-17 -63,-23 -99,-20 -39,4 -81,19 -123,43 -42,24 -84,58 -124,100 -39,41 -75,89 -106,144 -31,54 -55,109 -71,163 -16,56 -25,109 -25,158 0,48 8,92 25,127 15,34 37,60 66,77 29,17 63,23 100,19z"/>
   <path class="fil0" d="M2050 7212c-72,41 -145,51 -200,19 -55,-32 -83,-99 -83,-183 0,-83 28,-182 83,-278 55,-95 127,-168 199,-210 72,-42 145,-52 200,-20 55,32 83,100 83,183 0,84 -27,183 -82,278 -56,96 -128,169 -200,211z"/>
   <g style="clip-path:url(#id0)">
    <g id="_2595167192880">
     <g>
      <path id="1" class="fil0" d="M2006 7176c-73,41 -145,51 -200,19 -56,-32 -83,-99 -83,-183 0,-83 27,-182 82,-278 55,-95 128,-168 200,-210 72,-42 144,-52 200,-20 55,32 83,100 83,183 0,84 -28,183 -83,278 -55,96 -127,169 -199,211z"/>
      <path id="2" class="fil1" d="M1799 7208l14 -25 0 0 4 3 5 2 5 2 5 2 5 2 5 2 5 1 6 1 5 1 6 0 5 1 6 0 5 0 6 0 6 0 6 -1 6 0 6 -1 6 -2 6 -1 6 -1 6 -2 7 -2 6 -2 6 -3 7 -2 6 -3 7 -3 6 -3 7 -3 6 -4 7 -3 14 24 -7 4 -7 4 -7 3 -7 4 -7 3 -8 3 -7 3 -7 2 -7 2 -7 3 -7 2 -7 1 -6 2 -7 1 -7 1 -7 1 -7 1 -7 0 -6 0 -7 0 -7 0 -6 -1 -7 0 -6 -2 -7 -1 -6 -1 -6 -2 -7 -2 -6 -3 -6 -2 -5 -3 -6 -3 0 0zm0 0c-7,-4 -9,-13 -5,-20 3,-6 12,-9 19,-5l-14 25zm-90 -196l28 0 0 0 0 8 0 7 0 7 1 8 1 7 1 7 1 6 1 7 1 7 2 6 1 6 2 7 2 6 2 5 2 6 2 6 3 5 2 5 3 5 3 5 3 5 3 4 4 5 3 4 4 4 3 4 4 4 4 3 4 3 5 4 4 3 5 2 -14 25 -6 -4 -5 -4 -6 -3 -5 -4 -5 -5 -4 -4 -5 -5 -4 -5 -4 -5 -4 -5 -4 -6 -4 -5 -3 -6 -3 -6 -3 -6 -3 -6 -3 -6 -2 -7 -3 -7 -2 -6 -2 -7 -2 -7 -1 -7 -2 -8 -1 -7 -1 -8 -1 -7 -1 -8 0 -8 -1 -8 0 -8 0 -8 0 0zm0 0c0,-7 6,-14 14,-14 8,0 14,7 14,14l-28 0zm84 -285l24 14 0 0 -5 9 -4 9 -5 9 -5 9 -4 8 -4 9 -4 9 -4 9 -4 9 -3 8 -4 9 -3 9 -3 9 -3 8 -3 9 -2 9 -3 8 -2 9 -2 8 -2 9 -2 8 -1 9 -2 8 -1 8 -1 8 -1 9 -1 8 -1 7 -1 8 0 8 0 8 0 7 -28 0 0 -8 0 -8 1 -8 0 -9 1 -8 1 -9 1 -8 1 -9 1 -9 2 -8 2 -9 2 -9 2 -9 2 -9 2 -9 3 -9 3 -9 3 -9 3 -9 3 -9 3 -10 4 -9 3 -9 4 -9 4 -9 5 -10 4 -9 4 -9 5 -9 5 -9 5 -9 5 -10 0 0zm0 0c4,-6 13,-9 19,-5 7,4 9,13 5,19l-24 -14zm205 -215l14 24 0 0 -7 4 -6 4 -7 4 -6 5 -7 4 -6 5 -7 5 -6 5 -7 5 -6 6 -7 5 -6 6 -6 6 -7 6 -6 6 -6 7 -6 6 -7 7 -6 7 -6 7 -6 7 -6 7 -5 8 -6 7 -6 8 -6 8 -5 8 -6 8 -5 9 -5 8 -5 9 -6 8 -24 -14 6 -9 5 -9 5 -8 6 -9 6 -9 6 -8 5 -8 6 -8 6 -8 6 -8 7 -8 6 -7 6 -8 7 -7 6 -7 6 -7 7 -6 7 -7 6 -6 7 -7 7 -6 6 -6 7 -5 7 -6 7 -5 7 -6 7 -5 7 -5 7 -4 7 -5 7 -4 7 -4 0 0zm0 0c6,-4 15,-2 19,5 4,7 1,15 -5,19l-14 -24zm214 -20l-14 24 0 0 -5 -2 -5 -3 -5 -2 -5 -2 -5 -1 -5 -2 -5 -1 -5 -1 -6 -1 -5 -1 -6 0 -5 -1 -6 0 -6 0 -6 1 -5 0 -6 1 -6 1 -6 1 -7 2 -6 1 -6 2 -6 2 -7 2 -6 2 -6 3 -7 3 -6 2 -7 4 -6 3 -7 3 -6 4 -14 -24 7 -4 7 -4 7 -4 7 -3 7 -3 7 -3 7 -3 7 -3 7 -2 7 -2 7 -2 7 -2 7 -1 7 -2 7 -1 7 -1 6 0 7 -1 7 0 7 0 6 1 7 0 6 1 7 1 6 1 7 2 6 2 6 2 6 2 6 3 6 3 6 3 0 0zm0 0c6,4 9,13 5,19 -4,7 -13,9 -19,5l14 -24zm90 195l-28 0 0 0 0 -7 -1 -8 0 -7 -1 -7 0 -7 -1 -7 -1 -7 -1 -7 -2 -6 -1 -6 -2 -7 -1 -6 -2 -6 -2 -6 -3 -5 -2 -6 -2 -5 -3 -6 -3 -5 -3 -5 -3 -4 -3 -5 -3 -4 -4 -4 -3 -4 -4 -4 -4 -4 -4 -3 -4 -4 -4 -3 -5 -3 -4 -3 14 -24 5 3 6 4 5 4 5 4 5 4 5 5 4 5 5 4 4 5 4 6 4 5 3 6 4 6 3 5 3 6 3 7 2 6 3 7 2 6 2 7 2 7 2 7 2 7 1 7 1 8 2 7 1 8 0 8 1 7 0 8 1 8 0 8 0 0zm0 0c0,8 -7,14 -14,14 -8,0 -14,-6 -14,-14l28 0zm-85 285l-24 -14 0 0 5 -9 5 -8 4 -9 5 -9 4 -9 4 -9 5 -8 3 -9 4 -9 4 -9 3 -9 3 -8 3 -9 3 -9 3 -9 3 -8 2 -9 2 -8 2 -9 2 -8 2 -9 2 -8 1 -8 2 -9 1 -8 1 -8 1 -8 0 -8 1 -8 0 -7 1 -8 0 -8 28 0 0 8 -1 9 0 8 -1 8 0 9 -1 8 -1 9 -2 9 -1 8 -2 9 -1 9 -2 9 -2 9 -3 9 -2 9 -3 9 -2 9 -3 9 -3 9 -3 9 -4 9 -3 9 -4 10 -4 9 -4 9 -4 9 -5 9 -4 10 -5 9 -5 9 -5 9 -5 9 0 0zm0 0c-4,7 -12,9 -19,5 -7,-4 -9,-12 -5,-19l24 14zm-204 216l-14 -24 0 0 6 -4 7 -4 6 -5 7 -4 6 -4 7 -5 6 -5 7 -5 6 -6 7 -5 6 -6 7 -5 6 -6 6 -6 7 -7 6 -6 6 -7 6 -6 6 -7 6 -7 6 -7 6 -8 6 -7 6 -8 5 -8 6 -8 6 -8 5 -8 5 -8 6 -8 5 -9 5 -9 24 14 -5 9 -5 9 -6 9 -6 9 -5 8 -6 9 -6 8 -6 8 -6 8 -6 8 -6 7 -6 8 -7 7 -6 7 -7 7 -6 7 -7 7 -6 7 -7 6 -7 6 -6 6 -7 6 -7 6 -7 6 -7 5 -6 5 -7 5 -7 5 -7 5 -7 4 -7 5 -7 4 0 0zm0 0c-7,4 -16,1 -19,-5 -4,-7 -2,-16 5,-19l14 24z"/>
     </g>
    </g>
   </g>
   <path class="fil4" d="M2050 7212c-72,41 -145,51 -200,19 -55,-32 -83,-99 -83,-183 0,-83 28,-182 83,-278 55,-95 127,-168 199,-210 72,-42 145,-52 200,-20 55,32 83,100 83,183 0,84 -27,183 -82,278 -56,96 -128,169 -200,211z"/>
   <path class="fil1" d="M2057 7224c-38,22 -77,36 -114,39 -36,4 -70,-2 -100,-20 -30,-17 -52,-43 -67,-76 -15,-34 -23,-74 -23,-119 0,-43 8,-91 22,-141 14,-47 35,-96 63,-144 27,-47 59,-90 93,-126 35,-37 73,-67 111,-89 39,-23 78,-36 114,-40 36,-3 70,3 100,20 30,17 52,44 67,77 15,33 23,74 23,118 0,44 -7,92 -22,141 -14,48 -35,96 -62,144 -28,48 -60,90 -94,126 -35,38 -73,68 -111,90zm-117 11c33,-3 68,-15 103,-35 36,-21 71,-50 105,-85 33,-34 63,-75 89,-121 27,-45 47,-92 60,-138 14,-46 21,-92 21,-133 0,-40 -7,-77 -20,-107 -13,-28 -31,-50 -56,-64 -24,-14 -53,-19 -83,-16 -33,3 -68,16 -103,36 -35,20 -71,49 -105,85 -32,34 -63,75 -89,120 -27,46 -47,93 -60,138 -14,47 -21,92 -21,133 0,41 7,77 21,107 12,28 31,50 55,64 25,14 53,19 83,16z"/>
   <path class="fil0" d="M2050 7061c-39,23 -78,28 -108,11 -30,-17 -44,-54 -44,-99 0,-45 14,-98 44,-149 30,-52 68,-91 107,-114 39,-22 78,-28 108,-10 30,17 45,53 45,98 0,45 -15,99 -45,150 -29,51 -68,91 -107,113z"/>
   <g style="clip-path:url(#id1)">
    <g>
     <g>
      <path id="1" class="fil2" d="M2012 7030c-39,22 -78,27 -108,10 -29,-17 -44,-53 -44,-98 0,-45 14,-99 44,-150 30,-51 69,-91 107,-113 39,-23 78,-28 108,-11 30,17 45,54 45,99 0,44 -15,98 -45,149 -29,52 -68,91 -107,114z"/>
      <path id="2" class="fil1" d="M1898 7052l13 -23 0 0 2 1 2 1 3 1 2 1 3 1 2 1 3 1 3 0 2 1 3 0 3 0 3 0 2 0 3 0 3 0 3 0 3 0 3 -1 4 -1 3 0 3 -1 3 -1 3 -1 4 -1 3 -1 3 -2 4 -1 3 -2 3 -1 4 -2 3 -2 3 -2 14 23 -4 2 -4 2 -4 2 -4 2 -4 2 -4 2 -4 1 -4 2 -4 1 -4 1 -3 1 -4 1 -4 1 -4 1 -4 0 -4 1 -4 0 -4 0 -3 1 -4 -1 -4 0 -4 0 -3 -1 -4 0 -4 -1 -3 -1 -4 -1 -4 -1 -3 -1 -4 -2 -3 -2 -3 -1 0 0zm0 0c-6,-4 -9,-12 -5,-18 4,-6 12,-9 18,-5l-13 23zm-51 -110l26 0 0 0 0 4 0 3 0 4 0 4 1 4 0 3 1 4 0 3 1 4 1 3 0 3 1 3 1 3 1 3 2 3 1 3 1 3 1 3 2 2 1 3 2 2 1 2 2 2 2 2 1 2 2 2 2 2 2 2 2 2 2 1 3 2 2 1 -13 23 -3 -2 -4 -2 -3 -3 -3 -2 -2 -3 -3 -2 -3 -3 -2 -3 -3 -2 -2 -3 -2 -4 -2 -3 -2 -3 -2 -3 -2 -4 -1 -3 -2 -4 -1 -4 -1 -3 -2 -4 -1 -4 -1 -4 -1 -4 0 -4 -1 -4 -1 -4 0 -4 -1 -5 0 -4 0 -4 0 -5 0 -4 0 0zm0 0c0,-7 5,-13 13,-13 7,0 13,5 13,13l-26 0zm46 -157l22 14 0 0 -2 4 -3 5 -2 5 -3 4 -2 5 -2 5 -2 4 -2 5 -2 5 -2 4 -2 5 -2 5 -1 4 -2 5 -1 4 -2 5 -1 4 -1 5 -1 5 -1 4 -1 4 -1 5 -1 4 -1 5 0 4 -1 4 0 4 -1 5 0 4 0 4 0 4 0 4 -26 0 0 -5 0 -4 0 -5 0 -5 1 -4 0 -5 1 -5 0 -4 1 -5 1 -5 1 -5 1 -5 1 -5 1 -5 2 -4 1 -5 2 -5 1 -5 2 -5 2 -5 2 -5 1 -5 3 -5 2 -5 2 -5 2 -5 2 -5 3 -6 3 -5 2 -5 3 -5 3 -5 0 0zm0 0c3,-6 11,-8 18,-4 6,3 8,11 4,18l-22 -14zm112 -118l13 23 0 0 -3 2 -4 2 -3 2 -4 3 -3 2 -4 2 -3 3 -3 3 -4 3 -3 2 -4 3 -3 3 -3 4 -4 3 -3 3 -3 3 -4 4 -3 4 -3 3 -3 4 -3 4 -4 4 -3 4 -3 4 -3 4 -3 4 -3 4 -3 4 -2 5 -3 4 -3 5 -3 5 -22 -14 3 -4 3 -5 3 -5 3 -5 3 -5 3 -4 3 -5 3 -4 4 -4 3 -5 3 -4 4 -4 3 -4 4 -4 3 -4 4 -4 3 -3 4 -4 4 -3 3 -4 4 -3 4 -3 4 -4 3 -3 4 -3 4 -2 4 -3 3 -3 4 -3 4 -2 4 -2 4 -3 0 0zm0 0c6,-3 14,-1 18,5 3,6 1,14 -5,18l-13 -23zm121 -10l-13 22 0 0 -3 -1 -2 -1 -2 -1 -3 -1 -2 -1 -3 -1 -3 0 -2 -1 -3 0 -3 -1 -2 0 -3 0 -3 0 -3 0 -3 0 -3 0 -3 1 -3 0 -3 1 -3 1 -3 0 -4 1 -3 1 -3 1 -3 2 -4 1 -3 1 -3 2 -4 1 -3 2 -4 2 -3 2 -13 -23 4 -2 4 -2 4 -2 4 -2 3 -2 4 -1 4 -2 4 -1 4 -2 4 -1 4 -1 4 -1 4 -1 4 0 3 -1 4 -1 4 0 4 0 4 0 4 0 3 0 4 0 4 1 4 0 3 1 4 1 3 1 4 1 4 2 3 1 3 2 4 2 0 0zm0 0c6,3 8,11 4,18 -3,6 -11,8 -17,4l13 -22zm51 110l-26 0 0 0 0 -4 0 -4 -1 -4 0 -4 0 -3 -1 -4 0 -3 -1 -4 0 -3 -1 -4 -1 -3 -1 -3 -1 -3 -1 -3 -1 -3 -1 -3 -2 -3 -1 -2 -1 -3 -2 -2 -1 -3 -2 -2 -2 -2 -1 -2 -2 -2 -2 -2 -2 -2 -2 -2 -2 -1 -2 -2 -2 -1 -2 -2 13 -22 3 2 3 2 3 2 3 2 3 3 3 2 2 3 3 3 2 3 2 3 2 3 2 3 2 3 2 4 2 3 2 4 1 3 2 4 1 4 1 3 1 4 1 4 1 4 1 4 1 4 0 5 1 4 0 4 0 4 1 5 0 4 0 5 0 0zm0 0c0,7 -6,13 -13,13 -7,0 -13,-6 -13,-13l26 0zm-46 156l-23 -13 0 0 3 -5 2 -5 3 -4 2 -5 2 -5 3 -4 2 -5 2 -5 2 -4 2 -5 1 -5 2 -4 2 -5 1 -4 2 -5 1 -5 1 -4 2 -5 1 -4 1 -5 1 -4 1 -5 0 -4 1 -4 1 -5 0 -4 1 -4 0 -4 0 -4 1 -4 0 -4 0 -4 26 0 0 4 0 5 -1 4 0 5 0 5 -1 4 0 5 -1 5 -1 4 -1 5 -1 5 -1 5 -1 5 -1 5 -1 5 -2 5 -1 5 -2 5 -2 5 -1 5 -2 5 -2 5 -2 5 -2 5 -2 5 -3 5 -2 5 -3 5 -2 5 -3 5 -3 5 -2 5 0 0zm0 0c-4,6 -12,8 -18,5 -6,-4 -9,-12 -5,-18l23 13zm-112 118l-14 -23 0 0 4 -2 3 -2 4 -2 3 -2 4 -3 3 -2 3 -3 4 -2 3 -3 4 -3 3 -3 3 -3 4 -3 3 -3 3 -4 4 -3 3 -4 3 -3 3 -4 4 -4 3 -3 3 -4 3 -4 3 -4 3 -4 3 -5 3 -4 3 -4 3 -5 3 -4 2 -5 3 -4 23 13 -3 5 -3 5 -3 4 -3 5 -3 5 -4 4 -3 5 -3 4 -3 5 -4 4 -3 4 -3 4 -4 4 -3 4 -4 4 -3 4 -4 4 -4 3 -3 4 -4 3 -4 3 -3 4 -4 3 -4 3 -4 3 -3 3 -4 3 -4 2 -4 3 -4 2 -4 3 -3 2 0 0zm0 0c-7,4 -15,1 -18,-5 -4,-6 -2,-14 4,-18l14 23z"/>
     </g>
    </g>
   </g>
   <path class="fil4" d="M2050 7061c-39,23 -78,28 -108,11 -30,-17 -44,-54 -44,-99 0,-45 14,-98 44,-149 30,-52 68,-91 107,-114 39,-22 78,-28 108,-10 30,17 45,53 45,98 0,45 -15,99 -45,150 -29,51 -68,91 -107,113z"/>
   <path class="fil1" d="M2056 7073c-21,12 -43,20 -63,22l-1 0c-20,2 -39,-2 -56,-12 -17,-10 -30,-25 -39,-44 -8,-18 -12,-41 -12,-66 0,-24 4,-50 12,-77 7,-26 19,-53 34,-79 15,-26 32,-49 51,-69 19,-20 40,-37 61,-49 21,-12 43,-20 63,-22l1 0c20,-2 40,2 57,11l0 1c17,10 30,25 38,43 8,19 13,41 13,66 0,24 -4,51 -12,78 -8,26 -19,52 -34,78 -16,27 -33,50 -51,69l-1 1c-19,20 -40,37 -61,49zm-66 -4c17,-2 35,-8 53,-19 19,-11 38,-26 55,-44l1 -1c17,-18 33,-39 47,-64 14,-24 25,-49 32,-73 7,-24 11,-48 11,-70 0,-21 -4,-40 -11,-55 -6,-14 -15,-25 -27,-32l0 0c-13,-7 -27,-10 -42,-8l0 0c-17,2 -35,8 -53,19 -19,10 -38,25 -55,44 -18,18 -34,40 -48,64 -14,24 -24,49 -31,73 -8,25 -11,49 -11,70 0,21 3,40 10,56 6,14 16,25 28,32 12,7 26,9 41,8l0 0z"/>
   <polygon class="fil0" points="194,6189 194,6098 1522,6865 1522,6956 "/>
   <path class="fil1" d="M178 6189l0 -91c0,-9 7,-17 16,-17 4,0 7,1 9,3l1328 767c5,3 8,8 8,14l0 0 0 91c0,9 -8,16 -17,16 -3,0 -6,-1 -9,-3l-1327 -766c-5,-3 -8,-9 -8,-14l0 0zm33 -63l0 53 1295 748 0 -53 -1295 -748z"/>
   <polygon class="fil2" points="194,7248 194,6865 1522,7632 1522,8015 "/>
   <polygon class="fil0" points="692,5523 858,5427 1024,5523 858,5619 "/>
   <path class="fil1" d="M684 5508l166 -95c5,-4 12,-3 17,0l166 95c7,5 10,15 6,23 -2,3 -4,5 -7,6l-165 96c-6,3 -12,3 -17,0l-166 -96c-8,-5 -11,-15 -6,-23 2,-2 4,-4 6,-6zm174 -62l-133 77 133 76 133 -76 -133 -77z"/>
   <polygon class="fil2" points="941,5666 1107,5571 1273,5666 1107,5762 "/>
   <polygon class="fil0" points="2249,7716 2249,7332 1917,7524 1917,7907 "/>
   <path class="fil1" d="M2232 7706l0 -345 -299 172 0 346 299 -173zm33 -374l0 384 0 0c0,5 -3,11 -8,14l-331 191c-3,2 -6,3 -9,3 -10,0 -17,-7 -17,-17l0 -383 0 0c0,-6 3,-11 8,-14l331 -192c3,-1 6,-2 10,-2 9,0 16,7 16,16z"/>
   <polygon class="fil0" points="2200,7688 2200,7416 1965,7552 1965,7823 "/>
   <path class="fil1" d="M2184 7679l0 -236 -203 118 0 235 203 -117zm31 -263l0 272 0 0c0,5 -2,10 -7,13l-234 135c-3,2 -6,3 -9,3 -8,0 -15,-7 -15,-16l0 -271 0 0c0,-5 2,-11 7,-13l234 -135c3,-2 6,-3 9,-3 8,0 15,7 15,15z"/>
   <polygon class="fil0" points="2028,7843 2028,7460 1917,7524 1917,7907 "/>
   <path class="fil1" d="M2011 7834l0 -346 -78 45 0 346 78 -45zm34 -374l0 383 -1 0c0,6 -2,11 -8,14l-110 64c-3,2 -6,3 -9,3 -10,0 -17,-7 -17,-17l0 -383 0 0c0,-6 3,-11 8,-14l111 -64c2,-2 6,-3 9,-3 9,0 17,7 17,17z"/>
   <polygon class="fil0" points="1291,5783 1374,5736 1457,5783 1374,5831 "/>
   <path class="fil1" d="M1287 5776l83 -48c3,-1 6,-1 8,0l83 48c4,3 5,8 3,12 -1,1 -2,2 -3,3l-83 48c-3,1 -6,1 -8,0l-83 -48c-4,-3 -5,-8 -3,-12 1,-1 2,-2 3,-3zm87 -31l-67 38 67 39 67 -39 -67 -38z"/>
   <polygon class="fil0" points="2183,6102 1539,5730 2535,5155 2535,5922 "/>
   <path class="fil1" d="M2174 6115l-643 -371c-8,-4 -10,-14 -6,-22 2,-3 4,-5 6,-6l996 -575c8,-5 18,-2 23,6 1,2 2,5 2,8l0 0 0 767c0,7 -4,12 -10,15l-352 179c-5,3 -12,3 -16,-1zm-602 -385l611 353 336 -171 0 -729 -947 547z"/>
   <polygon class="fil0" points="2120,5490 2369,5347 2369,5634 2120,5778 "/>
   <path class="fil1" d="M2113 5476l248 -144c8,-4 18,-1 23,6 1,3 2,6 2,9l0 0 0 287c0,7 -4,12 -9,15l-248 143c-8,5 -18,2 -23,-6 -1,-2 -2,-5 -2,-8l0 0 0 -288c0,-6 4,-12 9,-14zm240 -101l-216 125 0 249 216 -124 0 -250z"/>
   <polygon class="fil0" points="1456,5676 1539,5730 2535,5149 2452,5101 "/>
   <path class="fil1" d="M1488 5677l52 34 963 -562 -51 -29 -964 557zm42 67l-82 -54c-2,-1 -4,-3 -6,-6 -4,-7 -2,-18 6,-22l996 -575c5,-3 11,-3 17,0l82 47c3,1 5,4 7,7 4,7 2,18 -6,22l-996 581 0 0c-5,3 -12,3 -18,0z"/>
   <line class="fil4" x1="1524" y1="7089" x2="942" y2= "6753" />
   <path class="fil1" d="M1537 7068c11,7 15,22 9,34 -7,12 -23,16 -35,9l-581 -336c-12,-7 -16,-22 -9,-34 7,-12 22,-16 34,-9l582 336z"/>
   <line class="fil4" x1="1524" y1="7173" x2="797" y2= "6753" />
   <path class="fil1" d="M1537 7152c11,7 15,22 9,34 -7,12 -23,16 -35,9l-727 -420c-12,-7 -16,-22 -9,-34 7,-12 22,-16 34,-9l728 420z"/>
   <line class="fil4" x1="1524" y1="7257" x2="1088" y2= "7005" />
   <path class="fil1" d="M1537 7236c11,6 15,22 9,34 -7,12 -23,16 -35,9l-436 -252c-12,-7 -16,-22 -9,-34 7,-12 22,-16 34,-9l437 252z"/>
   <line class="fil4" x1="1524" y1="7341" x2="870" y2= "6963" />
   <path class="fil1" d="M1537 7320c11,6 15,22 9,34 -7,12 -23,16 -35,9l-654 -378c-12,-7 -16,-22 -9,-34 7,-12 22,-16 34,-9l655 378z"/>
  </g>
 </g>
</svg>
