<?xml version="1.0" encoding="UTF-8"?>
<!DOCTYPE svg PUBLIC "-//W3C//DTD SVG 1.1//EN" "http://www.w3.org/Graphics/SVG/1.1/DTD/svg11.dtd">
<!-- Creator: CorelDRAW X7 -->
<svg xmlns="http://www.w3.org/2000/svg" xml:space="preserve" width="5.24256in" height="2.26803in" version="1.1" style="shape-rendering:geometricPrecision; text-rendering:geometricPrecision; image-rendering:optimizeQuality; fill-rule:evenodd; clip-rule:evenodd"
viewBox="0 0 5243 2268"
 xmlns:xlink="http://www.w3.org/1999/xlink">
 <defs>
  <style type="text/css">
   <![CDATA[
    .fil0 {fill:#EBECEC;fill-rule:nonzero}
   ]]>
  </style>
 </defs>
 <g id="Layer_x0020_1">
  <metadata id="CorelCorpID_0Corel-Layer"/>
  <g id="_637341158480">
   <path class="fil0" d="M321 740c-12,20 -26,37 -42,50 -19,14 -41,24 -65,30 -24,5 -50,5 -78,0 -28,-5 -49,-16 -61,-33 -13,-18 -19,-41 -18,-70 1,-25 11,-45 30,-60 15,-13 37,-23 65,-29 20,-5 44,-9 70,-10 20,-2 41,-2 62,-2 14,1 31,2 48,4 4,0 8,0 13,1l0 18 -1 17 1 19 -4 11c-5,21 -12,38 -20,54zm2021 331l1824 0 0 40 -1824 0 0 -40zm-2342 0l2053 0 0 40 -2053 0 0 -40zm4374 137l99 -147 0 0c8,-13 11,-27 11,-42 0,-23 -8,-42 -23,-58 -17,-16 -36,-24 -59,-24 -17,0 -33,5 -47,15 -15,10 -25,24 -30,40 -1,2 0,3 2,4l30 9c2,0 3,0 4,-2 3,-8 8,-16 16,-21 8,-5 16,-8 25,-8 13,0 23,4 32,13 9,9 13,19 13,32 0,8 -2,15 -6,22l-134 200c0,1 0,2 0,3 1,1 1,1 3,1l182 0c2,0 2,-1 2,-3l0 -31c0,-2 0,-3 -2,-3l-118 0zm331 -235c-32,0 -60,12 -83,35 -11,11 -19,23 -25,37 -6,15 -9,30 -9,46 0,32 11,60 34,83 11,11 23,20 37,25 15,7 30,10 46,10 33,0 60,-12 83,-35 11,-11 20,-23 26,-37 6,-15 9,-30 9,-46 0,-32 -12,-60 -35,-83 -10,-11 -23,-19 -37,-26 -15,-6 -30,-9 -46,-9zm0 272c-21,0 -41,-4 -60,-12 -18,-8 -35,-19 -49,-33 -14,-14 -25,-31 -33,-49 -8,-19 -12,-39 -12,-60 0,-21 4,-41 12,-60 8,-18 19,-35 33,-49 14,-14 31,-25 49,-33 19,-8 39,-12 60,-12 21,0 41,4 60,12 19,8 35,19 49,33 14,14 26,31 33,49 8,19 13,39 13,60 0,21 -5,41 -13,60 -7,18 -19,35 -33,49 -14,14 -30,25 -49,33 -19,8 -39,12 -60,12zm204 -264c-2,2 -2,3 0,4l22 23c1,1 3,1 4,0l12 -13 0 247c0,2 1,3 3,3l32 0c1,0 2,-1 2,-3l0 -302c0,-2 -1,-3 -2,-3l-28 0c-1,0 -2,1 -2,1l-43 43zm242 227c-16,0 -28,-5 -39,-16 -11,-11 -16,-24 -16,-39 0,-9 2,-17 6,-25l1 0 0 -1 4 -5c5,-8 11,-13 19,-17 8,-4 16,-6 25,-6 15,0 27,5 38,16 11,11 16,23 16,38l0 1c0,15 -6,28 -16,38 -11,11 -24,16 -38,16zm-6 -146l77 -121c1,-1 1,-2 0,-3 0,-1 -1,-1 -2,-1l-38 0c-1,0 -2,0 -2,1l-103 161c-3,3 -5,7 -7,10l0 1c-8,13 -11,28 -11,43 0,26 9,47 27,65 18,18 39,27 65,27 25,0 46,-9 64,-26 18,-18 27,-39 27,-65l1 0 0 -1c0,-25 -9,-47 -28,-65 -17,-18 -39,-27 -64,-27l-6 1zm-4735 -181c6,0 9,-3 8,-10 -4,-35 -8,-68 -10,-100 -4,-44 -6,-82 -6,-115 0,-10 0,-23 1,-36l0 -30 0 -31c-1,-22 -2,-42 -5,-59 -7,-44 -22,-79 -47,-104 -32,-33 -79,-49 -140,-49 -44,0 -84,8 -121,25 -13,6 -25,13 -37,21 -4,3 -8,6 -12,10 -4,2 -7,5 -10,7 -4,4 -4,9 0,13l31 28c4,3 8,3 11,0 2,-2 5,-4 7,-6 3,-2 7,-5 10,-7 9,-5 18,-10 29,-15 27,-12 58,-18 92,-18 45,0 78,11 99,32 22,23 34,66 35,128l0 0 -9 0c-9,-1 -17,-1 -23,-1 -10,-1 -19,-2 -28,-2 -23,0 -45,0 -66,1 -30,2 -57,6 -80,12 -36,9 -65,22 -87,40 -15,13 -27,27 -35,43 -9,17 -14,35 -16,55 -2,43 7,79 27,107 12,16 26,29 44,39 16,8 33,14 53,18 36,6 70,5 102,-3 33,-8 62,-22 86,-42 14,-11 27,-25 38,-41 2,26 5,53 9,83 1,5 4,7 8,7l42 0zm399 -58c-57,0 -106,-20 -148,-61 -40,-41 -61,-90 -61,-147 0,-58 21,-107 61,-148 42,-41 91,-62 148,-62 58,0 107,21 148,62 41,41 61,90 61,148 0,57 -20,106 -61,147 -41,41 -90,61 -148,61zm29 -474c-47,-5 -92,2 -135,21 -41,17 -75,44 -103,79l0 -439c0,-6 -3,-9 -9,-9l-40 0c-6,0 -9,3 -9,9l0 863c0,5 3,8 9,8l40 0c6,0 9,-3 9,-8l0 -93c25,31 56,56 92,73 36,19 76,28 117,28 39,0 76,-8 110,-24 34,-15 63,-36 88,-64 26,-28 44,-60 55,-95 13,-37 17,-75 12,-115 -7,-61 -33,-114 -77,-158 -45,-44 -98,-70 -159,-76zm857 503c0,-36 -1,-82 -1,-137 0,-25 0,-47 0,-66 0,-26 0,-51 0,-74l0 -10 0 -11c-1,-8 -2,-16 -3,-23 -2,-15 -6,-30 -12,-44 -11,-30 -29,-56 -52,-77 -23,-23 -50,-39 -80,-48 -14,-5 -29,-9 -44,-10l-6 -1 -6 0c-2,0 -4,0 -5,0l-5 0c-8,-1 -15,-1 -23,0 -28,3 -55,11 -81,25 -22,12 -41,27 -58,46l-5 6 0 -419c0,-6 -3,-9 -8,-9l-41 0c-6,0 -8,3 -8,9l0 861c0,6 2,9 8,9l41 0c5,0 8,-3 8,-9l0 -279 0 0 1 -26c0,-2 0,-5 0,-9l1 -5c0,-1 0,-3 1,-5 0,-4 1,-9 2,-13 2,-12 6,-24 12,-36 7,-14 15,-28 26,-40 13,-14 28,-26 46,-35 18,-9 39,-15 60,-17 5,-1 11,-1 16,-1l5 1c2,0 4,0 5,0l3 0 5 0c11,2 22,5 33,8 22,8 42,20 59,36 17,17 30,36 38,58 4,11 7,22 9,33 1,5 1,11 2,17l0 8 0 10c0,57 0,103 -1,140 0,55 0,101 0,137l0 21c0,5 2,8 8,8l41 0c6,0 9,-3 9,-8l0 -21zm183 29c-5,0 -8,-3 -8,-8l0 -516c0,-5 3,-8 8,-8l41 0c6,0 8,3 8,8l0 516c0,5 -2,8 -8,8l-41 0zm62 -703c0,11 -4,21 -12,29 -8,9 -18,13 -29,13 -12,0 -22,-4 -30,-13 -8,-8 -12,-18 -12,-29 0,-11 4,-21 12,-29 8,-9 18,-13 30,-13 11,0 21,4 29,13 8,8 12,18 12,29zm279 930c-2,4 -4,6 -8,6l-44 0c-3,0 -6,-1 -8,-4 -1,-2 -1,-5 0,-8l88 -220 -218 -525c-1,-3 -1,-6 1,-8 2,-3 4,-4 7,-4l44 0c4,0 7,2 8,5l189 456 183 -456c2,-3 4,-5 8,-5l44 0c3,0 5,1 7,4 2,2 2,5 1,7l-302 752zm687 -368c-11,20 -25,37 -41,50 -19,14 -41,24 -66,30 -24,5 -50,5 -78,0 -28,-5 -48,-16 -60,-33 -13,-18 -19,-41 -18,-70 1,-25 11,-45 29,-60 16,-13 37,-23 65,-29 21,-5 44,-9 70,-10 20,-2 41,-2 62,-2 15,1 31,2 48,4 4,0 9,0 13,1l0 18 0 17 0 19 -3 11c-5,21 -12,38 -21,54zm89 141c7,0 10,-3 9,-10 -5,-35 -8,-68 -11,-100 -3,-44 -5,-82 -5,-115 0,-10 0,-23 0,-36l0 -30 0 -31c0,-22 -1,-42 -4,-59 -7,-44 -23,-79 -47,-104 -32,-33 -79,-49 -141,-49 -43,0 -83,8 -120,25 -13,6 -25,13 -37,21 -4,3 -9,6 -13,10 -3,2 -6,5 -9,7 -5,4 -5,9 0,13l31 28c3,3 7,3 11,0 2,-2 4,-4 6,-6 4,-2 7,-5 10,-7 9,-5 19,-10 29,-15 28,-12 59,-18 92,-18 46,0 79,11 99,32 23,23 35,66 36,128l0 0 -9 0c-10,-1 -18,-1 -24,-1 -9,-1 -18,-2 -27,-2 -23,0 -45,0 -67,1 -30,2 -56,6 -79,12 -36,9 -65,22 -87,40 -16,13 -27,27 -36,43 -8,17 -13,35 -15,55 -2,43 6,79 26,107 12,16 27,29 45,39 15,8 33,14 53,18 36,6 69,5 101,-3 33,-8 62,-22 86,-42 15,-11 28,-25 39,-41 2,26 5,53 8,83 1,5 4,7 9,7l41 0zm574 -29c0,-36 0,-81 -1,-135 0,-9 0,-19 0,-32l0 -16 0 -18c0,-14 0,-26 0,-35 0,-14 0,-26 0,-37l0 -20c0,-7 -1,-15 -2,-22 -1,-15 -5,-30 -10,-44 -9,-30 -25,-56 -48,-79 -21,-22 -47,-39 -77,-50 -14,-5 -28,-9 -44,-11l-5 0 -6 -1 -6 -1c-2,0 -4,0 -5,0l-5 0 -6 0 -5 0 -6 1c-28,2 -55,9 -80,22 -22,12 -42,27 -59,45l-4 5 0 -70c0,-5 -3,-8 -8,-8l-41 0c-6,0 -9,3 -9,8l0 519c0,5 3,8 9,8l41 0c5,0 8,-3 8,-8l0 -299 1 -13c0,-2 0,-6 0,-10l1 -4 0 -5c1,-5 1,-9 2,-14 3,-11 7,-23 12,-34 7,-15 16,-28 27,-39 12,-14 27,-25 45,-34 18,-9 38,-15 59,-16l4 0 4 0 2 0 2 0 5 0c1,0 2,0 4,0l4 1 3 0 5 1c11,2 22,4 32,8 22,9 41,21 57,38 16,16 27,36 35,58 3,10 6,21 7,32 0,5 1,11 1,17l0 19c0,22 -1,46 -1,72 0,11 0,22 0,34l0 17 0 15c0,54 0,99 -1,135l0 21c0,5 3,8 9,8l41 0c6,0 9,-3 9,-8l0 -21zm396 -43c-3,-4 -7,-4 -12,-2 -27,18 -53,22 -76,10 -26,-13 -39,-39 -39,-77l0 -334 84 0c6,0 9,-3 9,-9l0 -41c0,-6 -3,-8 -9,-8l-84 0 0 -152c0,-6 -3,-9 -8,-9l-41 0c-6,0 -9,3 -9,9l1 152 -75 0c-5,0 -8,2 -8,8l0 41c0,6 3,9 8,9l75 0 0 334c0,29 6,55 18,78 13,22 30,39 52,50 17,9 35,13 54,13 28,0 56,-9 83,-27 4,-3 5,-7 1,-12l-24 -33zm384 -456c-11,-2 -22,-3 -34,-3 -60,0 -111,22 -152,66l0 -61c0,-6 -3,-9 -8,-9l-42 0c-5,0 -8,3 -8,9l0 518c0,5 3,8 8,8l42 0c5,0 8,-3 8,-8l0 -312c0,-42 14,-79 44,-108 30,-30 66,-45 108,-45 8,0 16,0 23,2 5,0 9,-2 10,-7l8 -40c1,-6 -1,-9 -7,-10zm87 528c-6,0 -8,-3 -8,-8l0 -516c0,-5 2,-8 8,-8l41 0c6,0 8,3 8,8l0 516c0,5 -2,8 -8,8l-41 0zm62 -703c0,11 -4,21 -12,29 -8,9 -18,13 -29,13 -12,0 -22,-4 -30,-13 -8,-8 -12,-18 -12,-29 0,-11 4,-21 12,-29 8,-9 18,-13 30,-13 11,0 21,4 29,13 8,8 12,18 12,29zm347 376l197 -189c3,-3 3,-6 2,-10 -2,-3 -4,-5 -8,-5l-57 0c-3,0 -4,1 -6,3l-227 216 0 -557c0,-6 -3,-9 -8,-9l-41 0c-6,0 -8,3 -8,9l0 861c0,5 2,8 8,8l41 0c5,0 8,-3 8,-8l0 -224 57 -55 235 284c2,2 4,3 7,3l53 0c3,0 6,-2 8,-5 1,-3 0,-6 -2,-9l-259 -313zm327 327c-5,0 -8,-3 -8,-8l0 -516c0,-5 3,-8 8,-8l41 0c6,0 8,3 8,8l0 516c0,5 -2,8 -8,8l-41 0zm62 -703c0,11 -4,21 -12,29 -8,9 -18,13 -29,13 -12,0 -22,-4 -30,-13 -8,-8 -12,-18 -12,-29 0,-11 4,-21 12,-29 8,-9 18,-13 30,-13 11,0 21,4 29,13 8,8 12,18 12,29z"/>
   <path class="fil0" d="M183 1817l-1 -1c-28,-12 -48,-23 -59,-32 -13,-11 -19,-25 -19,-40 0,-38 25,-58 77,-58 21,0 40,4 58,13 6,3 12,6 18,10 2,2 4,3 6,5 2,1 3,2 4,3 2,2 4,2 6,0l19 -18 18 -17c2,-2 2,-4 0,-6 -2,-2 -4,-4 -6,-6 -3,-2 -6,-4 -9,-6 -8,-7 -17,-12 -27,-17 -27,-13 -56,-20 -87,-20 -42,0 -75,10 -100,31 -25,21 -37,50 -37,86 0,34 14,62 41,85 10,9 23,17 37,25 6,3 12,6 19,9l9 4 8 4 15 7 1 0c32,14 55,27 68,39 16,13 24,29 24,47 0,47 -31,70 -92,70 -24,0 -47,-5 -68,-15 -8,-4 -15,-8 -21,-12 -3,-2 -5,-4 -7,-5 -2,-2 -4,-3 -5,-5 -2,-1 -4,-1 -6,0l-37 35c-2,2 -2,4 0,6 2,2 4,4 6,6 4,3 7,5 10,8 10,7 20,13 30,19 31,15 63,22 98,22 46,0 83,-11 110,-34 27,-24 41,-55 41,-95 0,-37 -15,-68 -45,-93 -12,-10 -25,-19 -42,-28 -6,-3 -13,-7 -20,-10l-10 -4c-2,-2 -6,-3 -10,-5l-15 -7zm247 115c4,-23 13,-41 29,-55 16,-14 35,-21 57,-21 21,0 38,5 53,17 15,11 25,25 30,44l-169 15zm87 -131c-40,0 -74,14 -101,42 -28,28 -42,63 -42,104 0,41 15,75 43,103 29,29 63,43 104,43 25,0 49,-6 71,-18 22,-12 40,-30 53,-51 2,-3 1,-5 -1,-6l-40 -23c-3,-2 -5,-1 -6,1 -8,13 -19,24 -33,31 -14,8 -29,11 -44,11 -18,0 -35,-4 -50,-14 -14,-10 -26,-22 -33,-38l215 -18c3,-1 4,-2 4,-5l0 -18c0,-39 -14,-73 -41,-101 -27,-29 -60,-43 -99,-43zm368 237c-25,0 -46,-8 -64,-26 -18,-17 -27,-38 -27,-63l0 -4c0,-25 9,-46 27,-63 18,-18 39,-26 64,-26 25,0 47,8 65,26 18,18 27,40 27,65 0,25 -9,47 -27,65 -18,17 -40,26 -65,26zm6 -237c-36,-2 -69,9 -97,32l0 -27c0,-3 -2,-5 -4,-5l-48 0c-2,0 -4,2 -4,5l0 458c0,3 2,4 4,4l48 0c2,0 4,-1 4,-4l0 -203c27,22 57,32 91,32 42,0 78,-15 107,-46 13,-14 24,-31 31,-49 7,-20 10,-40 8,-61 -2,-37 -17,-68 -44,-94 -27,-27 -59,-41 -96,-42zm296 236c-8,-4 -12,-13 -12,-27l0 -155 44 0c3,0 5,-2 5,-5l0 -46c0,-3 -2,-4 -5,-4l-44 0 0 -62c0,-3 -2,-4 -4,-4l-47 0c-3,0 -4,1 -4,4l0 62 -45 0c-2,0 -4,1 -4,4l0 46c0,3 2,5 4,5l45 0 0 155c0,17 4,32 11,46 8,13 18,23 31,30 11,5 22,7 33,7 17,0 33,-5 49,-16 2,-1 3,-3 1,-5l-28 -38c-1,-2 -3,-2 -5,-1 -10,6 -18,7 -25,4zm469 -197c28,-24 41,-55 41,-92 0,-35 -13,-65 -38,-89 -26,-25 -57,-35 -93,-33 -32,3 -60,16 -83,41l-5 6c-2,2 -1,4 1,6l35 32c2,2 4,2 6,0l6 -6c11,-13 25,-20 41,-22 20,-3 38,3 52,17 16,14 23,30 22,50 -1,18 -8,33 -21,46 -13,12 -29,18 -47,18l-28 0c-3,0 -5,2 -5,4l0 49c0,2 2,4 5,4l28 0c22,0 42,7 59,23 17,16 25,35 26,57 1,24 -7,45 -25,62 -17,17 -38,25 -63,24 -25,-2 -46,-13 -62,-34l-5 -6c-2,-3 -4,-3 -6,-1l-38 29c-2,2 -2,4 -1,6l6 8c14,18 31,31 51,41 20,9 41,14 63,13 37,0 69,-14 96,-41 27,-27 40,-59 41,-96 0,-23 -5,-45 -15,-66 -11,-20 -25,-37 -44,-50zm384 -159c-49,0 -91,18 -126,53 -16,16 -29,35 -38,56 -9,22 -14,46 -14,70 0,49 17,91 52,126 17,16 35,29 57,38 22,9 45,14 69,14 49,0 92,-17 126,-52 17,-17 30,-35 39,-57 9,-22 14,-45 14,-69 0,-50 -18,-92 -53,-126 -16,-17 -35,-30 -56,-39 -22,-9 -46,-14 -70,-14zm0 412c-31,0 -62,-6 -91,-18 -28,-12 -52,-29 -74,-50 -22,-22 -38,-46 -50,-74 -12,-29 -18,-60 -18,-91 0,-32 6,-62 18,-91 12,-28 28,-53 50,-74 22,-22 46,-39 74,-51 29,-12 60,-18 91,-18 32,0 62,6 91,18 28,12 53,29 74,51 22,21 39,46 51,74 12,29 18,59 18,91 0,31 -6,62 -18,91 -12,28 -29,52 -51,74 -21,21 -46,38 -74,50 -29,12 -59,18 -91,18zm401 -56c-9,-4 -13,-13 -13,-27l0 -155 45 0c3,0 4,-2 4,-5l0 -46c0,-3 -1,-4 -4,-4l-45 0 0 -62c0,-3 -1,-4 -4,-4l-47 0c-2,0 -4,1 -4,4l0 62 -44 0c-3,0 -4,1 -4,4l0 46c0,3 1,5 4,5l44 0 0 155c0,17 4,32 12,46 7,13 18,23 31,30 10,5 21,7 33,7 17,0 33,-5 48,-16 3,-1 3,-3 1,-5l-27 -38c-2,-2 -4,-2 -6,-1 -9,6 -18,7 -24,4zm378 -40c-1,-8 -1,-19 -1,-33l0 -9 0 -9c0,-7 0,-14 0,-19l0 -5 0 -6c-1,-5 -1,-9 -2,-13 -1,-8 -3,-16 -7,-24 -6,-17 -16,-31 -29,-44 -12,-12 -27,-21 -44,-26 -8,-3 -16,-5 -25,-6 -1,0 -2,0 -3,0l-4 0 -1 0 -2 0 -2 -1 -2 0 -2 1 -2 0 -4 0 -3 0c-16,2 -31,6 -44,14 -5,3 -10,6 -16,10l0 -197c0,-3 -1,-4 -4,-4l-47 0c-3,0 -4,1 -4,4l0 458c0,3 1,5 4,5l47 0c3,0 4,-2 4,-5l0 -149 1 -16c0,-1 0,-3 0,-5l1 -2 0 -1 0 -1c0,-1 0,-3 1,-6 1,-5 3,-10 5,-15 3,-6 7,-12 12,-17 5,-6 12,-11 19,-15 8,-4 17,-6 26,-7l2 0 1 0 2 0 1 0 1 0 2 0c1,0 2,0 2,0l2 0c0,0 1,0 1,0 5,1 10,2 15,4 9,3 17,8 24,15 7,7 13,15 17,25 1,4 2,9 3,14 0,2 1,4 1,7l0 3 0 5c0,5 0,12 0,19l-1 9 0 9c0,14 0,25 0,33 0,28 0,51 0,69l0 23c0,3 1,4 4,4l47 0c3,0 4,-1 4,-4l0 -23c0,-18 0,-41 0,-69zm233 -110c-3,0 -4,-1 -4,-4l0 -47c0,-2 1,-4 4,-4l157 0c2,0 4,2 4,4l0 47c0,3 -2,4 -4,4l-157 0zm619 147c-48,0 -89,-17 -123,-51 -34,-34 -51,-75 -51,-123 0,-48 17,-89 51,-123 34,-34 75,-51 123,-51 48,0 89,17 123,51 34,34 50,75 50,123 0,48 -16,89 -50,123 -34,34 -75,51 -123,51zm0 -407c-64,0 -119,23 -165,68 -46,46 -68,101 -68,165 0,64 22,119 68,165 46,46 101,68 165,68 64,0 119,-22 165,-68 45,-46 68,-101 68,-165 0,-64 -23,-119 -68,-165 -46,-45 -101,-68 -165,-68zm436 412c-27,0 -49,-10 -67,-30 -19,-20 -26,-44 -24,-71 2,-21 11,-39 26,-54 14,-16 32,-25 53,-27 22,-3 42,1 60,12 2,1 4,1 6,-1l26 -38c1,-3 1,-5 -2,-7 -27,-17 -57,-24 -90,-22 -36,3 -67,18 -93,45 -26,26 -39,58 -41,94 -2,42 12,78 41,108 28,30 64,45 105,45 29,0 55,-7 79,-22 2,-2 3,-4 1,-6l-26 -39c-2,-2 -4,-2 -6,-1 -15,9 -30,14 -48,14zm239 -2c-8,-4 -12,-13 -12,-27l0 -155 44 0c3,0 4,-2 4,-5l0 -46c0,-3 -1,-4 -4,-4l-44 0 0 -62c0,-3 -2,-4 -5,-4l-46 0c-3,0 -5,1 -5,4l1 62 -45 0c-3,0 -4,1 -4,4l0 46c0,3 1,5 4,5l45 0 0 155c0,17 4,32 11,46 7,13 18,23 31,30 11,5 22,7 33,7 17,0 33,-5 49,-16 2,-1 3,-3 1,-5l-28 -38c-2,-2 -3,-2 -6,-1 -9,6 -17,7 -24,4zm282 -344c-2,2 -2,4 0,6l34 34c2,2 4,2 6,0l18 -18 0 374c0,3 2,4 5,4l48 0c2,0 4,-1 4,-4l0 -458c0,-3 -2,-4 -4,-4l-43 0c-1,0 -2,0 -3,1l-65 65zm393 308c0,-2 -1,-3 -1,-5l-1 -5c-2,-12 -8,-23 -17,-33 -6,-8 -15,-15 -25,-22 -7,-5 -16,-9 -26,-14l-11 -5 -6 -2 -4 -2 -3 -1c-8,-4 -15,-7 -20,-10 -6,-4 -11,-7 -14,-10l-1 -2 -1 -1 -1 -2 -1 -1 0 -1 0 -1 0 -1 0 0 -1 0 0 0 0 -3 0 -2 0 0 0 -2 0 -1 0 -2 1 -1 0 -2c1,-3 2,-6 5,-8 2,-2 5,-4 8,-6 4,-1 8,-2 14,-3l1 0 2 -1c1,0 2,0 4,0l4 0 3 0c3,0 8,1 12,2 7,1 13,3 19,6 2,1 3,2 6,4 1,1 3,2 4,3 2,2 4,2 6,0l30 -29c2,-2 2,-4 0,-6 -2,-2 -3,-3 -4,-3 -2,-2 -5,-4 -7,-6 -4,-2 -7,-5 -11,-7 -10,-5 -21,-9 -32,-12 -8,-1 -15,-2 -21,-2l-5 -1 -6 1c-2,0 -6,0 -11,0 -10,2 -19,4 -26,7 -11,4 -20,10 -27,17 -8,9 -14,19 -17,31 -2,4 -2,6 -2,8 -1,4 -1,6 -1,9l0 4 0 0c0,0 0,0 0,0l0 1 0 1 0 0 0 1 0 2 0 3c0,1 0,3 1,5l0 3 1 2 1 5c1,1 1,3 2,5l2 4c1,3 3,5 5,8l3 4c1,2 2,3 3,4 6,7 15,14 26,21 6,3 15,8 25,13l3 1 0 0 1 0 1 1 6 2 12 6c16,8 27,15 33,21 3,4 5,7 5,11l1 2c0,0 0,1 0,1l0 2 0 0 0 1 0 3 0 1 0 1c0,0 0,1 0,1l-1 1 0 1c-2,7 -6,13 -13,17 -4,2 -8,3 -14,5 -6,1 -11,1 -15,1l-3 0 -5 0c-1,0 -2,0 -4,0l-1 0 -1 -1c-1,0 -2,0 -3,0l-2 0 -2 -1 -3 0 -3 -1c-6,-2 -12,-5 -18,-8 -2,-1 -3,-2 -5,-3 -2,-1 -3,-3 -5,-4 -2,-2 -4,-1 -6,0l-34 32c-2,3 -2,5 0,7 3,2 6,4 9,6 4,4 9,7 14,10 9,5 20,9 30,12 8,2 15,4 21,4 3,1 5,1 6,1 2,0 4,0 5,0l5 0 1 0 1 0 2 0 3 0c7,0 15,-1 24,-2 10,-3 20,-6 28,-10 10,-5 19,-13 26,-22 7,-9 12,-20 14,-32l1 -5 1 -5c0,-1 0,-1 0,-2l0 -1 0 -1 0 -3 0 -3 0 -2 0 -4zm154 36c-8,-4 -12,-13 -12,-27l0 -155 44 0c3,0 4,-2 4,-5l0 -46c0,-3 -1,-4 -4,-4l-44 0 0 -62c0,-3 -2,-4 -5,-4l-46 0c-3,0 -5,1 -5,4l1 62 -45 0c-3,0 -4,1 -4,4l0 46c0,3 1,5 4,5l45 0 0 155c0,17 3,32 11,46 7,13 18,23 31,30 11,5 22,7 33,7 17,0 33,-5 49,-16 2,-1 2,-3 0,-5l-27 -38c-2,-2 -4,-2 -6,-1 -9,6 -17,7 -24,4z"/>
  </g>
 </g>
</svg>
