<?xml version="1.0" encoding="UTF-8"?>
<!DOCTYPE svg PUBLIC "-//W3C//DTD SVG 1.1//EN" "http://www.w3.org/Graphics/SVG/1.1/DTD/svg11.dtd">
<!-- Creator: CorelDRAW X7 -->
<svg xmlns="http://www.w3.org/2000/svg" xml:space="preserve" width="91.4398mm" height="67.2252mm" version="1.1" style="shape-rendering:geometricPrecision; text-rendering:geometricPrecision; image-rendering:optimizeQuality; fill-rule:evenodd; clip-rule:evenodd"
viewBox="0 0 9144 6723"
 xmlns:xlink="http://www.w3.org/1999/xlink">
 <defs>
  <style type="text/css">
   <![CDATA[
    .str12 {stroke:#61003F;stroke-width:84.66}
    .str8 {stroke:#61003F;stroke-width:84.65;stroke-linecap:round;stroke-linejoin:round}
    .str0 {stroke:#61003F;stroke-width:84.65;stroke-linecap:round;stroke-linejoin:round}
    .str10 {stroke:#61003F;stroke-width:84.66;stroke-linecap:round;stroke-linejoin:round}
    .str11 {stroke:#61003F;stroke-width:84.66;stroke-linecap:round;stroke-linejoin:round}
    .str2 {stroke:#61003F;stroke-width:84.66;stroke-linecap:round;stroke-linejoin:round}
    .str3 {stroke:#61003F;stroke-width:84.66;stroke-linecap:round;stroke-linejoin:round}
    .str5 {stroke:#61003F;stroke-width:84.66;stroke-linecap:round;stroke-linejoin:round}
    .str4 {stroke:#61003F;stroke-width:84.66;stroke-linecap:round;stroke-linejoin:round}
    .str7 {stroke:#61003F;stroke-width:84.66;stroke-linecap:round;stroke-linejoin:round}
    .str9 {stroke:#61003F;stroke-width:84.66;stroke-linecap:round;stroke-linejoin:round}
    .str1 {stroke:#61003F;stroke-width:84.66;stroke-linecap:round;stroke-linejoin:round}
    .str6 {stroke:#61003F;stroke-width:84.67;stroke-linecap:round;stroke-linejoin:round}
    .fil3 {fill:none}
    .fil4 {fill:#61003F}
    .fil0 {fill:#FFF4F0}
    .fil2 {fill:#FFF4F0}
    .fil1 {fill:#61003F;fill-rule:nonzero}
   ]]>
  </style>
   <clipPath id="id0">
    <path d="M7690 4199c-106,61 -212,76 -293,29 -81,-47 -122,-146 -122,-268 0,-123 40,-268 121,-408 81,-140 187,-248 293,-309 106,-61 212,-75 293,-28 81,46 121,145 121,268 0,122 -40,268 -121,407 -80,140 -186,248 -292,309z"/>
   </clipPath>
   <clipPath id="id1">
    <path d="M519 4981c80,46 160,57 221,21 61,-35 91,-109 91,-202 0,-92 -30,-201 -91,-306 -61,-105 -140,-187 -220,-233 -80,-46 -160,-56 -221,-21 -61,35 -91,110 -91,202 0,92 30,201 91,306 61,106 140,187 220,233z"/>
   </clipPath>
   <clipPath id="id2">
    <path d="M2182 5941c79,46 159,57 220,21 61,-35 92,-110 92,-202 0,-92 -31,-201 -91,-306 -61,-106 -141,-187 -220,-233 -80,-46 -160,-57 -221,-21 -61,35 -92,109 -92,202 0,92 31,201 91,306 61,106 141,187 221,233z"/>
   </clipPath>
   <clipPath id="id3">
    <path d="M4640 6048c-106,61 -212,75 -293,29 -81,-47 -122,-146 -122,-269 0,-122 40,-268 121,-407 81,-140 187,-248 293,-309 106,-61 212,-76 293,-29 81,47 122,146 122,269 0,122 -41,267 -121,407 -81,140 -187,248 -293,309z"/>
   </clipPath>
 </defs>
 <g id="Layer_x0020_1">
  <metadata id="CorelCorpID_0Corel-Layer"/>
  <g id="_2548769513872">
   <g>
    <polygon class="fil0" points="2494,1442 4988,2881 7481,1442 7481,2401 4988,3841 4988,2881 7481,1442 4988,2 "/>
    <path id="1" class="fil1" d="M4966 2918l-2493 -1440 42 -73 2494 1440 0 73 -43 0zm43 -73c20,11 27,37 15,58 -11,20 -37,27 -58,15l43 -73zm2494 -1367l-2494 1440 -43 -73 2494 -1440 64 37 -21 36zm-43 -73c21,-12 46,-5 58,15 12,21 5,47 -15,58l-43 -73zm-21 996l0 -959 85 0 0 959 -21 37 -64 -37zm85 0c0,24 -19,43 -43,43 -23,0 -42,-19 -42,-43l85 0zm-2558 1404l2494 -1440 43 73 -2494 1440 -64 -37 21 -36zm43 73c-20,12 -46,5 -58,-16 -12,-20 -5,-46 15,-57l43 73zm21 -997l0 960 -85 0 0 -960 21 -36 64 36zm-85 0c0,-23 19,-42 43,-42 23,0 42,19 42,42l-85 0zm2558 -1403l-2494 1440 -43 -73 2494 -1440 43 0 0 73zm-43 -73c21,-12 46,-5 58,15 12,21 5,47 -15,58l-43 -73zm-2451 -1440l2494 1440 -43 73 -2494 -1440 0 -73 43 0zm-43 73c-20,-11 -27,-37 -15,-57 12,-21 38,-28 58,-16l-43 73zm-2493 1367l2493 -1440 43 73 -2494 1440 -42 0 0 -73zm42 73c-20,12 -46,5 -58,-15 -12,-21 -5,-46 16,-58l42 73z"/>
   </g>
   <g id="_2548769511856">
    <g>
     <g>
      <polygon class="fil0" points="0,5281 0,4801 208,3721 2702,5161 2494,6241 2494,6721 "/>
      <path id="1" class="fil1" d="M42 4801l0 480 -84 0 0 -480 0 -8 84 8zm-84 0c0,-23 19,-42 42,-42 23,0 42,19 42,42l-84 0zm291 -1072l-207 1080 -84 -16 208 -1080 63 -28 20 44zm-83 -16c5,-23 27,-38 50,-33 23,4 38,26 33,49l-83 -16zm2514 1485l-2493 -1440 42 -73 2494 1439 20 45 -63 29zm43 -74c20,12 27,38 15,58 -11,20 -37,27 -58,16l43 -74zm-271 1109l208 -1080 83 16 -208 1080 -84 -8 1 -8zm83 16c-4,23 -26,38 -49,33 -23,-4 -38,-26 -34,-49l83 16zm-84 472l0 -480 85 0 0 480 -63 36 -22 -36zm85 0c0,23 -19,42 -42,42 -24,0 -43,-19 -43,-42l85 0zm-2515 -1477l2494 1440 -42 73 -2494 -1439 -21 -37 63 -37zm-42 74c-20,-12 -27,-38 -16,-58 12,-20 38,-27 58,-16l-42 74z"/>
     </g>
     <g>
      <polygon class="fil0" points="208,3721 2702,5161 4156,4321 1663,2881 "/>
      <path id="1" class="fil1" d="M2680 5198l-2493 -1440 42 -73 2494 1439 0 74 -43 0zm43 -74c20,12 27,38 15,58 -11,20 -37,27 -58,16l43 -74zm1455 -766l-1455 840 -43 -74 1455 -839 43 0 0 73zm-43 -73c20,-12 46,-5 58,15 12,20 5,46 -15,58l-43 -73zm-2451 -1440l2494 1440 -43 73 -2494 -1440 0 -73 43 0zm-43 73c-20,-12 -27,-38 -15,-58 12,-20 37,-27 58,-15l-43 73zm-1454 767l1454 -840 43 73 -1455 840 -42 0 0 -73zm42 73c-20,12 -46,5 -58,-16 -12,-20 -5,-46 16,-57l42 73z"/>
     </g>
     <g>
      <path class="fil0" d="M2702 5161l-208 1080 0 480 1422 -821c-5,-31 -7,-63 -7,-97 0,-168 55,-367 166,-559 25,-44 53,-86 81,-125l0 -798 -1454 840z"/>
      <path id="1" class="fil1" d="M2452 6233l208 -1080 83 16 -208 1080 -84 -8 1 -8zm83 16c-4,23 -26,38 -49,33 -23,-4 -38,-26 -34,-49l83 16zm-84 472l0 -480 85 0 0 480 -21 36 -64 -36zm85 0c0,23 -19,42 -42,42 -24,0 -43,-19 -43,-42l85 0zm1401 -784l-1422 820 -42 -73 1421 -821 64 31 -21 43zm-43 -74c21,-11 47,-4 58,16 12,20 5,46 -15,58l-43 -74zm-27 -60l84 0 0 0 0 3 0 3 0 3 0 3 0 3 0 3 1 3 0 3 0 3 0 2 0 3 0 3 0 3 0 3 1 3 0 3 0 2 0 3 0 3 1 3 0 3 0 2 1 3 0 3 0 3 0 3 1 2 0 3 0 3 1 2 0 3 1 3 -84 12 -1 -3 0 -3 -1 -3 0 -3 0 -4 -1 -3 0 -3 0 -3 -1 -3 0 -3 0 -3 -1 -4 0 -3 0 -3 0 -3 -1 -3 0 -4 0 -3 0 -3 0 -3 -1 -4 0 -3 0 -3 0 -3 0 -4 0 -3 0 -3 0 -4 0 -3 0 -3 0 -4 0 -3 0 0zm0 0c0,-23 19,-42 42,-42 23,0 42,19 42,42l-84 0zm171 -580l74 42 0 0 -10 18 -10 17 -9 18 -9 17 -9 18 -8 17 -8 18 -8 17 -7 18 -7 17 -7 18 -6 17 -7 18 -5 17 -6 17 -5 17 -5 18 -4 17 -5 16 -3 17 -4 17 -3 17 -3 16 -3 16 -2 17 -2 16 -2 15 -1 16 -1 16 -1 15 -1 15 0 15 -84 0 0 -17 0 -16 1 -17 1 -18 2 -17 2 -17 2 -18 2 -17 3 -18 3 -18 4 -18 4 -18 4 -18 5 -19 5 -18 5 -18 5 -19 6 -18 6 -19 7 -18 7 -19 7 -19 8 -18 7 -19 9 -19 8 -18 9 -19 9 -19 10 -18 10 -19 10 -19 10 -18 0 0zm0 0c12,-20 38,-27 58,-16 20,12 27,38 16,58l-74 -42zm76 -104l85 0 -8 25 -3 4 -3 3 -2 4 -3 3 -2 4 -3 4 -3 3 -2 4 -3 4 -2 3 -3 4 -2 4 -3 3 -2 4 -3 4 -2 4 -3 4 -2 3 -3 4 -2 4 -2 4 -3 4 -2 4 -3 4 -2 3 -2 4 -3 4 -2 4 -2 4 -3 4 -2 4 -2 4 -74 -42 3 -4 2 -5 3 -4 2 -4 3 -4 2 -4 3 -5 2 -4 3 -4 2 -4 3 -4 3 -4 2 -4 3 -4 2 -4 3 -4 3 -4 2 -4 3 -4 3 -4 2 -4 3 -4 3 -4 2 -4 3 -4 3 -4 2 -4 3 -4 3 -4 3 -3 2 -4 3 -4 -8 25zm8 -25c14,-19 40,-23 59,-9 19,14 23,40 10,59l-69 -50zm77 -773l0 798 -85 0 0 -798 21 -36 64 36zm-85 0c0,-23 19,-42 42,-42 24,0 43,19 43,42l-85 0zm-1434 803l1455 -839 43 73 -1455 840 -63 -45 20 -29zm43 74c-20,11 -46,4 -58,-16 -12,-20 -5,-46 15,-58l43 74z"/>
     </g>
     <g>
      <polygon class="fil0" points="2494,1442 1663,2881 4156,4321 4988,2881 "/>
      <path id="1" class="fil1" d="M1626 2860l831 -1440 73 43 -831 1440 -58 15 -15 -58zm73 43c-11,20 -37,27 -58,15 -20,-12 -27,-38 -15,-58l73 43zm2436 1455l-2494 -1440 43 -73 2494 1440 15 57 -58 16zm43 -73c20,11 27,37 15,57 -12,21 -38,28 -58,16l43 -73zm846 -1382l-831 1439 -73 -42 831 -1440 58 -15 15 58zm-73 -43c12,-20 38,-27 58,-15 20,11 27,37 15,58l-73 -43zm-2436 -1455l2494 1440 -43 73 -2493 -1440 -16 -58 58 -15zm-42 73c-21,-11 -28,-37 -16,-58 12,-20 38,-27 58,-15l-42 73z"/>
     </g>
     <g>
      <polygon class="fil0" points="4156,4321 4988,2881 4988,3841 "/>
      <path id="1" class="fil1" d="M5024 2903l-831 1439 -73 -42 831 -1440 79 21 -6 22zm-73 -43c12,-20 38,-27 58,-15 20,11 27,37 15,58l-73 -43zm-6 981l0 -960 85 0 0 960 -21 37 -64 -37zm85 0c0,24 -19,43 -42,43 -24,0 -43,-19 -43,-43l85 0zm-895 444l831 -480 43 73 -831 480 -58 -58 15 -15zm43 73c-21,12 -47,5 -58,-16 -12,-20 -5,-46 15,-57l43 73z"/>
     </g>
     <g>
      <polygon class="fil0" points="7481,2401 7481,1442 8313,1921 "/>
      <path id="1" class="fil1" d="M7524 1442l0 959 -85 0 0 -959 64 -37 21 37zm-85 0c0,-24 19,-43 42,-43 24,0 43,19 43,43l-85 0zm853 516l-832 -480 43 -73 831 480 0 73 -42 0zm42 -73c20,11 27,37 15,58 -11,20 -37,27 -57,15l42 -73zm-874 480l832 -480 42 73 -831 480 -64 -37 21 -36zm43 73c-21,12 -47,5 -58,-15 -12,-21 -5,-47 15,-58l43 73z"/>
     </g>
     <g>
      <polygon class="fil0" points="5819,482 8313,1921 9144,1442 6650,2 "/>
      <path id="1" class="fil1" d="M8292 1958l-2494 -1440 42 -73 2494 1440 0 73 -42 0zm42 -73c20,11 27,37 15,58 -11,20 -37,27 -57,15l42 -73zm831 -407l-831 480 -42 -73 831 -480 42 0 0 73zm-42 -73c20,-12 46,-5 58,15 11,21 4,47 -16,58l-42 -73zm-2452 -1440l2494 1440 -42 73 -2494 -1440 0 -73 42 0zm-42 73c-20,-11 -27,-37 -15,-57 11,-21 37,-28 57,-16l-42 73zm-831 407l831 -480 42 73 -831 480 -42 0 0 -73zm42 73c-20,12 -46,5 -58,-15 -11,-20 -4,-46 16,-58l42 73z"/>
     </g>
     <g>
      <path class="fil0" d="M7481 2401l0 599c15,-10 30,-19 45,-28 145,-84 291,-104 402,-40l162 94 1 0c110,64 166,200 166,367l887 -512 0 -1439 -1663 959z"/>
      <path id="1" class="fil1" d="M7439 3000l0 -599 85 0 0 599 -19 35 -66 -35zm85 0c0,23 -19,42 -43,42 -23,0 -42,-19 -42,-42l85 0zm-19 -65l42 74 0 0 -1 0 -2 1 -1 1 -1 1 -1 1 -2 0 -1 1 -2 1 -1 1 -1 0 -1 1 -2 1 -1 1 -1 1 -2 1 -1 0 -1 1 -2 1 -1 1 -1 1 -1 0 -2 1 -1 1 -2 1 -1 1 -1 1 -1 1 -2 0 -1 1 -1 1 -2 1 -1 1 -47 -71 1 0 2 -1 1 -1 2 -1 1 -1 2 -1 1 -1 2 -1 1 -1 1 -1 2 -1 2 -1 1 -1 1 -1 2 -1 1 -1 2 0 1 -1 2 -1 1 -1 2 -1 1 -1 2 -1 1 -1 1 -1 2 0 1 -1 2 -1 1 -1 2 -1 1 -1 2 -1 0 0zm0 0c20,-11 46,-4 58,16 11,20 4,46 -16,58l-42 -74zm444 -39l-42 73 0 0 -9 -5 -9 -4 -9 -4 -10 -4 -9 -3 -10 -3 -10 -3 -10 -2 -10 -1 -11 -2 -10 -1 -11 0 -11 0 -11 0 -11 1 -12 1 -11 1 -12 2 -12 2 -12 3 -12 3 -12 3 -12 4 -12 4 -13 5 -12 5 -13 5 -13 6 -12 6 -13 7 -13 6 -13 8 -42 -74 14 -8 15 -7 14 -8 15 -7 14 -6 14 -6 15 -6 14 -5 15 -5 14 -5 15 -4 14 -3 14 -4 15 -2 14 -3 14 -1 15 -2 14 0 14 -1 14 0 14 1 13 1 14 2 14 2 13 3 13 3 13 4 13 5 13 5 13 5 12 6 12 7 0 0zm0 0c21,11 28,37 16,58 -12,20 -38,27 -58,15l42 -73zm120 167l-162 -94 42 -73 163 94 -22 79 -21 -6zm43 -73c20,11 27,37 15,57 -12,21 -37,28 -58,16l43 -73zm-21 79l-1 0 0 -85 1 0 21 6 -21 79zm0 -85c23,0 42,19 42,42 0,24 -19,43 -42,43l0 -85zm145 373l43 73 -64 -37 0 -14 -1 -15 0 -14 -1 -14 -2 -14 -2 -14 -2 -13 -2 -13 -2 -13 -3 -12 -3 -12 -4 -12 -4 -12 -3 -11 -5 -11 -4 -11 -5 -10 -5 -10 -5 -10 -6 -9 -6 -9 -6 -9 -6 -8 -7 -8 -7 -8 -7 -7 -7 -7 -8 -7 -7 -6 -9 -6 -8 -6 -9 -5 43 -73 12 7 11 7 11 8 11 9 10 9 10 9 9 10 9 10 9 11 9 11 7 11 8 12 7 12 7 12 6 13 6 13 6 13 5 13 5 14 4 14 4 14 4 15 3 15 3 14 3 16 2 15 2 15 2 16 1 16 1 16 1 17 0 16 -64 -36zm64 36c0,24 -19,43 -43,43 -23,0 -42,-19 -42,-43l85 0zm865 -475l-886 512 -43 -73 887 -512 63 36 -21 37zm-42 -73c20,-12 46,-5 58,15 11,20 4,46 -16,58l-42 -73zm63 -1403l0 1439 -84 0 0 -1439 21 -37 63 37zm-84 0c0,-24 19,-43 42,-43 23,0 42,19 42,43l-84 0zm-1642 923l1663 -960 42 73 -1662 960 -64 -37 21 -36zm43 73c-21,12 -47,5 -58,-15 -12,-21 -5,-47 15,-58l43 73z"/>
     </g>
     <g>
      <path class="fil0" d="M4156 4321l0 798c96,-131 208,-234 320,-298 145,-84 291,-104 402,-40l110 63 0 -1003 -832 480z"/>
      <path id="1" class="fil1" d="M4114 5119l0 -798 85 0 0 798 -8 25 -77 -25zm85 0c0,23 -19,42 -43,42 -23,0 -42,-19 -42,-42l85 0zm256 -335l42 73 0 0 -10 6 -10 6 -10 7 -10 6 -9 7 -10 7 -10 7 -10 7 -10 8 -10 7 -10 8 -10 8 -10 9 -9 8 -10 9 -10 9 -10 9 -9 9 -10 10 -9 9 -10 10 -9 10 -10 11 -9 10 -9 11 -10 11 -9 10 -9 12 -9 11 -9 11 -9 12 -8 12 -69 -50 10 -13 9 -12 9 -12 10 -12 10 -12 10 -12 9 -12 10 -11 10 -11 11 -11 10 -11 10 -11 10 -10 11 -10 10 -10 10 -10 11 -10 11 -9 10 -10 11 -9 11 -8 10 -9 11 -9 11 -8 11 -8 11 -8 11 -7 11 -8 11 -7 11 -7 11 -6 11 -7 0 0zm0 0c20,-12 46,-5 58,16 11,20 4,46 -16,57l-42 -73zm444 -40l-42 74 0 0 -9 -5 -9 -5 -9 -4 -9 -3 -10 -4 -10 -2 -10 -3 -10 -2 -10 -2 -10 -1 -11 -1 -11 0 -11 0 -11 0 -11 0 -11 1 -12 2 -12 2 -11 2 -12 3 -12 3 -13 3 -12 4 -12 4 -13 5 -12 5 -13 5 -13 6 -12 6 -13 6 -13 7 -13 7 -42 -73 14 -8 15 -8 14 -7 15 -7 14 -7 15 -6 14 -5 15 -6 14 -5 14 -4 15 -4 14 -4 15 -3 14 -3 14 -2 14 -2 15 -1 14 -1 14 0 14 0 14 1 13 1 14 2 14 2 13 3 13 3 14 4 13 4 12 5 13 6 12 6 12 6 0 0zm0 0c21,12 28,38 16,58 -12,21 -38,27 -58,16l42 -74zm67 137l-109 -63 42 -74 110 64 21 36 -64 37zm43 -73c20,11 27,37 15,57 -11,21 -37,28 -58,16l43 -73zm21 -967l0 1003 -85 0 0 -1003 21 -36 64 36zm-85 0c0,-23 19,-42 43,-42 23,0 42,19 42,42l-85 0zm-810 444l831 -480 43 73 -831 480 -64 -37 21 -36zm43 73c-21,12 -47,5 -58,-16 -12,-20 -5,-46 15,-57l43 73z"/>
     </g>
    </g>
    <g>
     <path class="fil0" d="M4988 3841l0 1003 53 31 0 0c91,53 145,154 161,282l1033 -596 0 -1440 -1247 720z"/>
     <path id="1" class="fil1" d="M4945 4844l0 -1003 85 0 0 1003 -64 37 -21 -37zm85 0c0,24 -19,43 -42,43 -24,0 -43,-19 -43,-43l85 0zm-11 68l-53 -31 43 -73 53 30 -21 79 -22 -5zm43 -74c20,12 27,38 15,58 -11,20 -37,27 -58,16l43 -74zm-21 79l0 0 0 -84 0 0 21 5 -21 79zm0 -84c23,0 42,19 42,42 0,23 -19,42 -42,42l0 -84zm140 287l42 74 -63 -32 -1 -11 -2 -11 -2 -10 -2 -11 -2 -10 -3 -10 -3 -10 -2 -10 -4 -10 -3 -9 -3 -9 -4 -9 -4 -9 -4 -8 -4 -8 -4 -8 -5 -8 -4 -8 -5 -7 -5 -7 -6 -7 -5 -7 -6 -6 -5 -6 -6 -6 -6 -6 -7 -6 -6 -5 -7 -5 -6 -5 -7 -4 -8 -4 43 -74 10 6 9 6 9 7 9 7 9 7 9 7 8 8 8 8 7 8 8 9 7 9 7 9 6 9 7 9 6 10 6 10 5 10 5 11 5 10 5 11 5 11 4 11 4 11 3 12 4 12 3 11 3 12 3 13 2 12 3 12 1 13 2 13 -63 -32zm63 32c3,23 -13,44 -36,47 -24,3 -45,-13 -48,-37l84 -10zm1012 -554l-1033 596 -42 -74 1032 -596 64 37 -21 37zm-43 -74c21,-11 47,-4 58,16 12,20 5,46 -15,58l-43 -74zm64 -1403l0 1440 -85 0 0 -1440 21 -36 64 36zm-85 0c0,-23 19,-42 43,-42 23,0 42,19 42,42l-85 0zm-1226 684l1247 -720 43 73 -1247 720 -64 -37 21 -36zm43 73c-20,12 -46,5 -58,-16 -12,-20 -5,-46 15,-57l43 73z"/>
    </g>
    <g>
     <path class="fil0" d="M6235 3121l0 1440 748 -432c-16,-52 -24,-111 -24,-175 0,-167 55,-367 166,-559 99,-172 226,-308 356,-395l0 -599 -1246 720z"/>
     <path id="1" class="fil1" d="M6192 4561l0 -1440 85 0 0 1440 -21 37 -64 -37zm85 0c0,23 -19,42 -42,42 -24,0 -43,-19 -43,-42l85 0zm727 -395l-748 432 -43 -74 749 -432 61 25 -19 49zm-42 -74c20,-11 46,-4 57,16 12,20 5,46 -15,58l-42 -74zm-46 -138l85 0 0 0 0 6 0 6 0 5 0 6 1 5 0 6 0 5 1 5 0 6 0 5 1 5 0 6 1 5 0 5 1 5 1 5 0 5 1 5 1 5 1 5 1 5 1 5 1 5 1 5 1 5 1 4 1 5 1 5 1 4 2 5 1 4 1 5 -81 25 -1 -6 -2 -5 -1 -6 -2 -5 -1 -6 -2 -5 -1 -6 -1 -5 -1 -6 -1 -6 -2 -5 -1 -6 -1 -6 0 -6 -1 -5 -1 -6 -1 -6 -1 -6 0 -6 -1 -6 -1 -6 0 -6 -1 -6 0 -6 0 -6 -1 -6 0 -6 0 -7 0 -6 0 -6 -1 -6 0 -7 0 0zm0 0c0,-23 19,-42 43,-42 23,0 42,19 42,42l-85 0zm172 -580l73 43 0 0 -9 17 -10 17 -9 18 -9 18 -9 17 -8 18 -8 17 -8 18 -7 17 -7 18 -7 17 -7 18 -6 17 -5 17 -6 18 -5 17 -5 17 -4 17 -5 17 -4 17 -3 16 -3 17 -3 16 -3 17 -2 16 -2 16 -2 16 -1 15 -2 16 0 15 -1 15 0 15 -85 0 1 -16 0 -17 1 -17 1 -17 2 -18 2 -17 2 -17 2 -18 3 -18 3 -18 4 -18 4 -18 4 -18 5 -18 4 -19 6 -18 5 -18 6 -19 6 -18 7 -19 7 -19 7 -18 7 -19 8 -19 8 -18 9 -19 9 -19 9 -18 10 -19 9 -19 11 -18 10 -19 0 0zm0 0c12,-20 38,-27 58,-15 20,11 27,37 15,58l-73 -43zm351 -374l85 0 -19 35 -12 8 -11 8 -12 8 -11 9 -12 9 -11 9 -12 10 -11 10 -12 10 -11 10 -11 11 -12 11 -11 11 -11 11 -11 12 -11 12 -11 12 -11 13 -10 12 -11 13 -11 13 -10 14 -10 13 -11 14 -10 14 -10 14 -9 15 -10 15 -10 14 -9 16 -9 15 -10 16 -73 -43 10 -16 10 -17 10 -16 10 -16 10 -15 11 -16 10 -15 11 -15 11 -15 11 -14 11 -14 11 -14 12 -14 11 -14 12 -13 11 -13 12 -13 12 -12 12 -13 12 -12 12 -11 12 -12 13 -11 12 -11 12 -11 13 -10 12 -10 13 -10 13 -10 12 -9 13 -9 13 -8 -19 35zm19 -35c19,-13 46,-8 59,11 13,20 7,46 -12,59l-47 -70zm66 -564l0 599 -85 0 0 -599 21 -36 64 36zm-85 0c0,-23 19,-42 42,-42 24,0 43,19 43,42l-85 0zm-1226 684l1247 -720 43 73 -1247 720 -64 -37 21 -36zm43 73c-21,12 -46,5 -58,-16 -12,-20 -5,-46 15,-57l43 73z"/>
    </g>
   </g>
  </g>
  <g>
   <path class="fil0 str0" d="M7528 4283c-70,40 -140,66 -206,74l-34 59 -162 -93c-112,-65 -167,-201 -167,-369 0,-167 55,-367 166,-559 111,-191 256,-339 401,-423 145,-84 291,-104 402,-40l163 94 -34 59c25,62 38,135 38,216 0,167 -55,367 -166,559 -111,191 -256,339 -401,423z"/>
   <path class="fil0 str1" d="M7690 4377c-145,84 -291,103 -402,39 -111,-64 -167,-200 -167,-368 0,-168 55,-367 166,-559 111,-192 256,-339 401,-423 146,-84 291,-104 403,-40 111,64 166,200 166,368 0,168 -55,368 -166,559 -110,192 -256,340 -401,424z"/>
  </g>
  <path class="fil0" d="M7690 4199c-106,61 -212,76 -293,29 -81,-47 -122,-146 -122,-268 0,-123 40,-268 121,-408 81,-140 187,-248 293,-309 106,-61 212,-75 293,-28 81,46 121,145 121,268 0,122 -40,268 -121,407 -80,140 -186,248 -292,309z"/>
  <g style="clip-path:url(#id0)">
   <g>
    <path id="1" class="fil2 str2" d="M7571 4132c-106,62 -212,76 -293,29 -81,-47 -122,-146 -122,-268 0,-122 40,-268 121,-408 81,-139 187,-247 292,-308 106,-61 213,-76 294,-29 81,47 121,146 121,268 0,122 -40,268 -121,408 -80,140 -186,247 -292,308z"/>
   </g>
  </g>
  <path class="fil3 str3" d="M7690 4199c-106,61 -212,76 -293,29 -81,-47 -122,-146 -122,-268 0,-123 40,-268 121,-408 81,-140 187,-248 293,-309 106,-61 212,-75 293,-28 81,46 121,145 121,268 0,122 -40,268 -121,407 -80,140 -186,248 -292,309z"/>
  <path class="fil0" d="M519 4981c80,46 160,57 221,21 61,-35 91,-109 91,-202 0,-92 -30,-201 -91,-306 -61,-105 -140,-187 -220,-233 -80,-46 -160,-56 -221,-21 -61,35 -91,110 -91,202 0,92 30,201 91,306 61,106 140,187 220,233z"/>
  <g style="clip-path:url(#id1)">
   <g>
    <path id="1" class="fil3 str4" d="M694 4845c80,47 160,57 221,22 61,-35 91,-110 91,-202 0,-92 -30,-201 -91,-306 -61,-106 -140,-187 -220,-233 -80,-46 -160,-57 -221,-21 -61,35 -91,109 -91,202 0,91 30,201 91,306 61,105 140,187 220,232z"/>
   </g>
  </g>
  <path class="fil3 str5" d="M519 4981c80,46 160,57 221,21 61,-35 91,-109 91,-202 0,-92 -30,-201 -91,-306 -61,-105 -140,-187 -220,-233 -80,-46 -160,-56 -221,-21 -61,35 -91,110 -91,202 0,92 30,201 91,306 61,106 140,187 220,233z"/>
  <path class="fil0" d="M2182 5941c79,46 159,57 220,21 61,-35 92,-110 92,-202 0,-92 -31,-201 -91,-306 -61,-106 -141,-187 -220,-233 -80,-46 -160,-57 -221,-21 -61,35 -92,109 -92,202 0,92 31,201 91,306 61,106 141,187 221,233z"/>
  <g style="clip-path:url(#id2)">
   <g>
    <path id="1" class="fil3 str6" d="M2364 5802c80,46 160,57 221,21 61,-35 91,-109 91,-202 0,-92 -30,-201 -91,-306 -61,-106 -140,-187 -220,-233 -80,-46 -160,-56 -221,-21 -61,35 -91,110 -91,202 0,92 30,201 91,306 61,106 140,187 220,233z"/>
   </g>
  </g>
  <path class="fil3 str7" d="M2182 5941c79,46 159,57 220,21 61,-35 92,-110 92,-202 0,-92 -31,-201 -91,-306 -61,-106 -141,-187 -220,-233 -80,-46 -160,-57 -221,-21 -61,35 -92,109 -92,202 0,92 31,201 91,306 61,106 141,187 221,233z"/>
  <g>
   <path class="fil0 str8" d="M4478 6132c-70,40 -140,66 -206,74l-34 59 -162 -94c-111,-64 -167,-200 -167,-368 0,-168 55,-367 166,-559 111,-192 256,-339 401,-423 145,-84 291,-104 402,-40l163 94 -34 59c25,61 38,135 38,215 0,168 -55,368 -166,559 -111,192 -256,340 -401,424z"/>
   <path class="fil0 str9" d="M4640 6225c-145,84 -291,104 -402,40 -111,-64 -167,-200 -167,-368 0,-168 56,-367 166,-559 111,-192 256,-340 401,-424 146,-83 291,-103 403,-39 111,64 166,200 166,368 1,168 -55,367 -166,559 -110,192 -255,340 -401,423z"/>
  </g>
  <path class="fil2" d="M4640 6048c-106,61 -212,75 -293,29 -81,-47 -122,-146 -122,-269 0,-122 40,-268 121,-407 81,-140 187,-248 293,-309 106,-61 212,-76 293,-29 81,47 122,146 122,269 0,122 -41,267 -121,407 -81,140 -187,248 -293,309z"/>
  <g style="clip-path:url(#id3)">
   <g>
    <path id="1" class="fil0 str10" d="M4521 5981c-106,61 -212,76 -293,29 -81,-47 -122,-146 -122,-268 0,-123 40,-268 121,-408 81,-140 187,-248 293,-309 106,-61 212,-75 293,-28 81,46 121,145 121,268 0,122 -40,268 -121,407 -80,140 -186,248 -292,309z"/>
   </g>
  </g>
  <path class="fil3 str11" d="M4640 6048c-106,61 -212,75 -293,29 -81,-47 -122,-146 -122,-269 0,-122 40,-268 121,-407 81,-140 187,-248 293,-309 106,-61 212,-76 293,-29 81,47 122,146 122,269 0,122 -41,267 -121,407 -81,140 -187,248 -293,309z"/>
  <g>
   <polygon class="fil4" points="831,5292 831,5292 1039,4212 1870,4692 1663,5772 1663,5772 "/>
   <polygon class="fil4" points="5623,3879 5611,3972 6027,3732 6027,3646 "/>
   <polygon class="fil4" points="6870,3159 6858,3252 7274,3012 7274,2926 "/>
   <polygon class="fil4" points="1415,4429 1010,4195 2459,3352 2879,3595 "/>
   <polygon class="fil4" points="1909,4714 1504,4480 2953,3637 3373,3880 "/>
   <polygon class="fil4" points="7021,1194 6616,960 7444,471 7864,713 "/>
   <polygon class="fil4" points="7515,1479 7110,1245 7938,756 8358,998 "/>
  </g>
  <line class="fil3 str12" x1="6235" y1="3121" x2="6235" y2= "2161" />
 </g>
</svg>
