<?xml version="1.0" encoding="UTF-8"?>
<!DOCTYPE svg PUBLIC "-//W3C//DTD SVG 1.1//EN" "http://www.w3.org/Graphics/SVG/1.1/DTD/svg11.dtd">
<!-- Creator: CorelDRAW X7 -->
<svg xmlns="http://www.w3.org/2000/svg" xml:space="preserve" width="3.52059in" height="3.74906in" version="1.1" style="shape-rendering:geometricPrecision; text-rendering:geometricPrecision; image-rendering:optimizeQuality; fill-rule:evenodd; clip-rule:evenodd"
viewBox="0 0 3521 3749"
 xmlns:xlink="http://www.w3.org/1999/xlink">
 <defs>
  <style type="text/css">
   <![CDATA[
    .fil4 {fill:#76B94A}
    .fil1 {fill:#4D6F91}
    .fil2 {fill:#00A0E3}
    .fil3 {fill:#009846}
    .fil0 {fill:#FEFEFE;fill-rule:nonzero}
   ]]>
  </style>
 </defs>
 <g id="Layer_x0020_1">
  <metadata id="CorelCorpID_0Corel-Layer"/>
  <g id="_827290048336">
   <path class="fil0" d="M547 3055c-30,0 -56,17 -85,20 -11,0 -21,-3 -31,-8 -9,-6 -15,-12 -25,-10 -4,0 -8,1 -11,3 -9,6 -12,12 -17,23 -30,68 -61,137 -93,205l-116 259c-3,-1 -3,0 -3,2l-7 15c-11,26 -23,50 -32,75 0,4 -3,9 -5,12 -3,8 5,20 18,17 4,-2 5,-2 7,-3 24,-16 35,-43 45,-66 20,-47 41,-94 63,-142 4,-6 6,-15 10,-19 19,-13 45,-19 63,-6 32,18 68,21 105,16 96,-10 187,-68 231,-155 22,-40 28,-85 25,-130 -2,-22 -8,-45 -23,-64 -21,-25 -56,-42 -90,-42 -11,-2 -20,-2 -29,-2zm3 41c31,0 63,10 79,35 17,25 16,55 13,83 -11,67 -57,126 -118,158 -35,21 -76,35 -118,31 -34,-6 -64,-31 -72,-64 -5,-20 -2,-40 6,-58 20,-67 64,-130 126,-163 19,-9 37,-12 57,-19 9,-1 18,-3 27,-3zm432 -38c-83,3 -160,48 -209,112 -40,51 -67,118 -63,184 2,35 17,70 45,90 35,21 80,21 116,6 19,-8 35,-20 52,-27 23,-14 46,-29 69,-41 6,36 38,65 73,74 34,9 72,5 99,-18 25,-14 46,-35 48,-64 0,-8 0,-20 -8,-24 -12,-5 -24,4 -26,16 -23,29 -59,49 -97,43 -13,-2 -28,-8 -34,-20 -14,-29 -9,-62 3,-90l28 -64c21,-47 47,-93 65,-140 5,-12 5,-24 -8,-28 -4,-1 -9,-1 -13,2l-25 11c-10,1 -16,-2 -27,-3 -27,-5 -55,-14 -82,-17l-6 -2zm13 46c25,0 46,21 51,44 6,22 0,46 -10,66 -27,70 -73,134 -137,173 -22,13 -46,25 -71,26 -30,2 -59,-18 -67,-47 -7,-23 -3,-49 2,-73 15,-66 62,-120 119,-155 29,-20 63,-32 98,-34l15 0zm498 -37c-17,0 -33,0 -49,5 -19,6 -38,18 -56,29 -8,3 -12,11 -20,14 -7,0 -7,-11 -10,-14 -7,-12 -22,-17 -31,-8 -24,17 -33,48 -46,72 -42,90 -94,175 -138,265 -5,9 -8,18 -2,27 6,7 19,11 28,10 9,0 16,-7 19,-16 32,-54 55,-117 89,-172 26,-49 55,-97 100,-131 26,-18 55,-36 87,-38 18,-1 38,0 50,14 19,17 22,41 19,62l-3 17c1,0 1,2 0,5 -2,4 9,12 9,12 9,0 15,1 26,1 4,0 9,-1 12,-6 6,-13 4,-29 4,-44 0,-32 -13,-64 -39,-84 -14,-12 -31,-20 -49,-20zm254 0c-21,2 -36,22 -47,39 -20,32 -35,67 -52,100 -27,55 -50,116 -44,179 5,36 32,68 66,81 36,15 79,12 114,-3 59,-27 108,-72 143,-127 18,-32 35,-66 53,-99l2 -3c23,21 56,30 85,19 37,-9 64,-36 90,-61 9,-7 18,-15 24,-24 3,-3 8,-6 5,-11 3,-6 1,-15 -3,-19 -5,-5 -11,-8 -17,-8 -12,1 -15,15 -23,23 -23,26 -50,55 -87,61 -15,3 -33,1 -45,-11 -3,-3 -6,-6 -9,-11 15,-30 29,-59 41,-89 6,-13 4,-25 -8,-31 -7,-3 -15,-5 -23,-3 -9,2 -15,8 -19,17 -4,6 -5,12 -10,18 -41,82 -71,172 -131,244 -30,35 -67,67 -112,76 -25,5 -54,-1 -69,-23 -18,-26 -15,-61 -8,-91 17,-73 60,-137 90,-207 3,-10 10,-19 8,-29 -2,-7 -6,-7 -12,-7l-2 0zm586 -9c-83,3 -159,48 -208,112 -41,51 -68,118 -64,184 2,35 17,70 45,90 35,21 80,21 117,6 18,-8 35,-20 52,-27 22,-14 46,-29 68,-41 6,36 38,65 73,74 34,9 72,5 99,-18 25,-14 46,-35 48,-64 0,-8 0,-20 -8,-24 -12,-5 -24,4 -26,16 -23,29 -59,49 -97,43 -12,-2 -28,-8 -34,-20 -14,-29 -9,-62 3,-90l28 -64c21,-47 47,-93 65,-140 5,-12 5,-24 -7,-28 -5,-1 -10,-1 -14,2l-25 11c-10,1 -16,-2 -27,-3 -27,-5 -55,-14 -82,-17l-6 -2zm13 46c25,0 46,21 51,44 6,22 0,46 -9,66 -28,70 -74,134 -138,173 -21,13 -46,25 -70,26 -31,2 -60,-18 -68,-47 -7,-23 -3,-49 2,-73 15,-66 63,-120 119,-155 29,-20 63,-32 98,-34l15 0zm436 -46c-83,3 -159,48 -208,112 -41,51 -68,118 -63,184 1,35 16,70 45,90 35,21 79,21 116,6 18,-8 35,-20 52,-27 23,-14 46,-29 69,-41 6,36 38,65 73,74 33,9 71,5 99,-18 24,-14 46,-35 47,-64 0,-8 0,-20 -8,-24 -12,-5 -24,4 -25,16 -23,29 -60,49 -98,43 -12,-2 -27,-8 -33,-20 -14,-29 -10,-62 3,-90l27 -64c21,-47 47,-93 66,-140 4,-12 4,-24 -8,-28 -5,-1 -9,-1 -14,2l-24 11c-11,1 -17,-2 -28,-3 -27,-5 -54,-14 -82,-17l-6 -2zm14 46c24,0 45,21 50,44 6,22 0,46 -9,66 -28,70 -73,134 -138,173 -21,13 -46,25 -70,26 -31,2 -60,-18 -67,-47 -8,-23 -3,-49 1,-73 15,-66 63,-120 120,-155 28,-20 62,-32 98,-34l15 0zm432 -230c-21,3 -35,23 -44,40 -37,77 -72,155 -108,231 -20,43 -41,82 -63,124 -24,45 -50,92 -73,140 -4,9 -9,16 -3,26 5,6 14,10 22,9 10,1 22,-2 27,-14 36,-65 62,-137 104,-201 21,-38 44,-76 80,-101 32,-21 67,-42 105,-41 26,0 48,22 52,46 8,29 -4,58 -14,85 -6,19 -12,37 -19,55 -13,31 -20,66 -14,98 4,36 27,71 64,82 46,12 93,-4 129,-32 11,-9 23,-20 34,-30 6,-9 9,-16 12,-25 2,-7 2,-15 2,-23 -2,-16 -16,-15 -31,2l-14 14c-25,24 -59,42 -94,41 -17,0 -34,-9 -41,-25 -9,-16 -12,-36 -8,-54 2,-10 5,-16 6,-27 11,-42 32,-83 40,-127 1,-37 -9,-77 -38,-101 -18,-15 -44,-23 -69,-20 -27,0 -53,12 -76,26 -12,5 -21,14 -32,20 -7,1 -7,-8 -11,-11 28,-59 57,-119 81,-180 6,-16 -6,-27 -6,-27z"/>
   <path class="fil0" d="M573 3633l44 -106 44 106 -88 0zm37 -126c-1,0 -2,0 -3,1l-98 238c-1,1 -1,1 0,2 0,1 1,1 2,1l12 0c1,0 2,0 2,-1l41 -99 101 0 42 99c0,1 1,1 2,1l12 0c1,0 1,0 2,-1 0,-1 0,-1 0,-2l-99 -238c0,-1 -1,-1 -2,-1l-14 0zm354 35c-1,1 -2,1 -3,0 -1,-1 -2,-1 -3,-2 -1,-1 -2,-2 -3,-3 -3,-2 -6,-4 -9,-5 -7,-4 -15,-7 -22,-8 -6,-2 -11,-2 -15,-2l-4 0 -4 0c-1,0 -3,0 -4,0l-2 0 -2 0c-7,1 -12,3 -17,4 -6,3 -10,6 -14,10 -4,4 -7,9 -9,15l0 2c0,1 -1,2 -1,3 0,2 0,3 0,4l0 3 0 0c0,0 0,0 0,0l0 0 0 0 0 1 0 1 0 3 0 2 1 1 0 1 1 3c0,0 0,1 1,2l0 1 0 1 2 2 1 2 1 1 0 1c1,1 1,1 2,2 4,5 10,9 17,13 5,3 12,7 21,10l3 2 3 1 5 2 11 6c9,4 17,7 23,11 8,6 15,11 20,17 6,8 10,16 12,25l1 3c0,1 0,3 0,3l0 4 0 2 0 0 0 0 0 1 0 0 0 3 0 2c0,0 0,1 0,1l-1 4 0 3c-2,9 -5,17 -11,24 -5,6 -11,11 -19,15 -6,3 -13,6 -21,8l-3 0 -2 1c-2,0 -4,0 -5,0l-5 1 -5 0 -3 0 -1 0 -1 0 0 0 -5 0c-1,0 -2,0 -4,0l-3 -1 -2 0c-5,-1 -11,-2 -17,-3 -9,-3 -17,-6 -25,-11 -3,-2 -6,-3 -9,-5 -2,-2 -4,-3 -6,-5 -1,-1 -2,-2 -3,-3 -1,-1 -1,-2 0,-3l8 -8c1,-1 2,-1 3,0 1,1 2,1 2,2 2,1 4,2 5,4 3,1 5,3 8,4 7,4 14,7 22,9 5,2 10,3 14,4l2 0 2 0c1,0 3,0 4,0l4 0 1 0 0 0 0 0 1 0 2 0 5 0 4 0c1,0 3,-1 4,-1l3 0 2 -1c7,-1 12,-3 17,-6 6,-2 10,-6 14,-11 4,-5 6,-11 8,-17l0 -2 0 -3c1,0 1,0 1,-1l0 -1 0 -3 0 -1 0 0 0 -1c0,1 0,1 0,1l0 0 0 -2 0 -2c0,-1 0,-2 -1,-3l0 -1 0 -1c-1,-7 -4,-13 -9,-18 -7,-8 -19,-16 -37,-25l-12 -5 -5 -2 -2 -2 -3 -1c-10,-4 -17,-8 -23,-11 -8,-5 -15,-10 -20,-16 -1,-1 -2,-2 -2,-3l-1 -1 -1 -1c-2,-3 -3,-5 -4,-6l-1 -2 0 -2c-1,-1 -1,-2 -2,-3l-1 -3 0 -2 0 -2 -1 -3 0 -3 0 -1 0 -1 0 0 0 -1c0,0 0,0 0,0l0 0 0 -3c0,-2 0,-4 1,-7 0,-1 0,-2 0,-3l1 -3c2,-9 6,-16 12,-22 6,-5 12,-9 20,-12 6,-3 12,-4 20,-5l3 -1 2 0c2,0 4,0 5,0l4 0 5 0c5,0 10,1 17,2 9,2 17,5 26,10 3,1 6,3 8,5 3,2 5,3 7,5 0,0 1,1 3,3 1,1 1,2 0,3l-7 7zm133 76c-16,0 -30,6 -41,17 -11,11 -17,25 -17,41 0,16 6,29 17,40 11,12 25,17 41,17 16,0 29,-5 40,-17 12,-11 17,-24 17,-40 0,-16 -5,-30 -17,-41 -11,-11 -24,-17 -40,-17zm0 131c-20,0 -38,-7 -52,-21 -14,-15 -21,-32 -21,-52 0,-21 7,-38 21,-52 14,-14 32,-22 52,-22 20,0 37,8 52,22 14,14 21,31 21,52 0,20 -7,37 -21,52 -15,14 -32,21 -52,21zm170 0c-22,0 -40,-8 -54,-24 -15,-16 -21,-35 -19,-56 1,-18 8,-32 20,-45 12,-12 27,-19 44,-22 17,-2 33,2 48,11 2,1 2,2 1,3l-7 10c0,1 -1,1 -3,0 -9,-6 -20,-8 -31,-8 -15,0 -28,6 -39,17 -11,10 -17,23 -18,38 0,17 5,31 17,42 11,12 25,18 41,18 11,0 21,-3 30,-9 2,0 3,0 4,1l6 9c1,2 1,3 -1,4 -12,7 -25,11 -39,11zm75 0c-1,0 -2,-1 -2,-2l0 -142c0,-2 1,-2 2,-2l11 0c2,0 3,0 3,2l0 142c0,1 -1,2 -3,2l-11 0zm17 -193c0,3 -1,5 -3,8 -2,2 -5,3 -8,3 -4,0 -6,-1 -8,-3 -3,-3 -4,-5 -4,-8 0,-4 1,-6 4,-8 2,-3 4,-4 8,-4 3,0 6,1 8,4 2,2 3,4 3,8zm127 154c-3,6 -7,10 -12,14 -5,4 -11,7 -18,8 -6,2 -13,2 -21,0 -8,-1 -13,-4 -17,-9 -3,-5 -5,-11 -5,-19 1,-7 3,-12 9,-17 4,-3 10,-6 17,-8 6,-1 12,-2 20,-2 5,-1 11,-1 17,-1 4,0 8,1 13,1 1,0 2,0 3,0l0 5 0 5 0 5 0 3c-2,6 -4,11 -6,15zm24 39c2,0 3,-1 3,-3 -2,-9 -2,-19 -3,-27 -1,-12 -2,-23 -2,-32 0,-3 0,-6 0,-10l0 -8 0 -8c0,-7 0,-12 -1,-17 -2,-12 -6,-22 -13,-28 -8,-9 -21,-14 -38,-14 -12,0 -23,2 -33,7 -4,2 -7,4 -11,6 -1,1 -2,2 -3,2 -1,1 -2,2 -3,2 -1,2 -1,3 0,4l9 8c1,1 2,1 3,0 0,-1 1,-1 2,-2 1,-1 1,-1 2,-2 3,-1 5,-3 8,-4 8,-3 16,-5 26,-5 12,0 21,3 27,9 6,6 9,18 10,35l0 0 -3 0c-2,0 -5,0 -6,0 -3,-1 -5,-1 -8,-1 -6,0 -12,0 -18,1 -8,0 -16,1 -22,3 -10,2 -18,6 -24,11 -4,3 -7,7 -10,12 -2,4 -4,9 -4,15 -1,12 2,22 7,29 4,5 8,8 13,11 4,2 9,4 14,5 10,1 19,1 28,-1 9,-2 17,-6 24,-11 4,-4 7,-7 10,-12 1,7 2,15 3,23 0,1 1,2 2,2l11 0zm65 0c2,0 2,-1 2,-2l0 -238c0,-1 0,-2 -2,-2l-11 0c-2,0 -3,1 -3,2l0 238c0,1 1,2 3,2l11 0zm137 0c-2,0 -3,-1 -3,-2l0 -238c0,-1 1,-2 3,-2l11 0c2,0 2,1 2,2l0 238c0,1 0,2 -2,2l-11 0zm182 -8c0,-10 -1,-22 -1,-37 0,-3 0,-5 0,-9l0 -4 0 -5c0,-4 0,-7 0,-10 0,-4 0,-7 0,-10l0 -5c0,-3 0,-5 0,-7 -1,-4 -2,-8 -3,-12 -3,-8 -7,-15 -13,-21 -6,-7 -13,-11 -21,-14 -4,-2 -8,-3 -12,-3l-2 0 -1 -1 -2 0c-1,0 -1,0 -2,0l-1 0 -1 0 -2 0 -1 0c-8,1 -16,3 -23,7 -6,3 -11,7 -16,12l-1 1 0 -19c0,-1 -1,-2 -2,-2l-11 0c-2,0 -3,1 -3,2l0 143c0,1 1,2 3,2l11 0c1,0 2,-1 2,-2l0 -82 0 -4c0,-1 0,-2 0,-3l1 -1 0 -1c0,-2 0,-3 0,-4 1,-3 2,-6 4,-10 1,-3 4,-7 7,-10 3,-4 7,-7 12,-9 5,-3 11,-5 17,-5l1 0 1 0 0 0 1 0 1 0c0,0 1,0 1,0l1 0 1 0 1 1c4,0 7,1 9,2 7,2 12,6 16,10 4,5 8,10 10,16 1,3 1,6 2,9 0,1 0,3 0,5l0 5c0,6 0,13 0,20 0,3 0,6 0,9l0 5 0 4c0,15 0,27 -1,37l0 6c0,1 1,2 3,2l11 0c2,0 3,-1 3,-2l0 -6zm50 8c-2,0 -2,-1 -2,-2l0 -142c0,-2 0,-2 2,-2l11 0c2,0 3,0 3,2l0 142c0,1 -1,2 -3,2l-11 0zm17 -193c0,3 -1,5 -3,8 -3,2 -5,3 -8,3 -4,0 -6,-1 -9,-3 -2,-3 -3,-5 -3,-8 0,-4 1,-6 3,-8 3,-3 5,-4 9,-4 3,0 5,1 8,4 2,2 3,4 3,8zm118 173c-1,-1 -2,-1 -3,0 -8,5 -15,6 -21,2 -7,-3 -11,-10 -11,-21l0 -92 23 0c2,0 3,0 3,-2l0 -11c0,-2 -1,-3 -3,-3l-23 0 0 -41c0,-2 0,-3 -2,-3l-11 0c-2,0 -3,1 -3,3l0 41 -20 0c-2,0 -2,1 -2,3l0 11c0,2 0,2 2,2l20 0 0 92c0,8 2,15 6,22 3,6 8,10 14,13 5,3 9,4 15,4 8,0 15,-2 22,-7 2,-1 2,-2 1,-4l-7 -9zm38 20c-1,0 -2,-1 -2,-2l0 -142c0,-2 1,-2 2,-2l11 0c2,0 3,0 3,2l0 142c0,1 -1,2 -3,2l-11 0zm17 -193c0,3 -1,5 -3,8 -2,2 -5,3 -8,3 -3,0 -6,-1 -8,-3 -3,-3 -4,-5 -4,-8 0,-4 1,-6 4,-8 2,-3 5,-4 8,-4 3,0 6,1 8,4 2,2 3,4 3,8zm127 154c-3,6 -7,10 -11,14 -6,4 -12,7 -18,8 -7,2 -14,2 -22,0 -8,-1 -13,-4 -17,-9 -3,-5 -5,-11 -4,-19 0,-7 3,-12 8,-17 4,-3 10,-6 18,-8 5,-1 12,-2 19,-2 5,-1 11,-1 17,-1 4,0 8,1 13,1 1,0 2,0 4,0l0 5 -1 5 1 5 -1 3c-2,6 -4,11 -6,15zm25 39c1,0 2,-1 2,-3 -1,-9 -2,-19 -3,-27 -1,-12 -2,-23 -2,-32 0,-3 1,-6 1,-10l0 -8 0 -8c0,-7 -1,-12 -2,-17 -2,-12 -6,-22 -13,-28 -8,-9 -21,-14 -38,-14 -12,0 -23,2 -33,7 -4,2 -7,4 -10,6 -2,1 -3,2 -4,2 -1,1 -2,2 -3,2 -1,2 -1,3 0,4l9 8c1,1 2,1 3,0 1,-1 1,-1 2,-2 1,-1 2,-1 2,-2 3,-1 6,-3 8,-4 8,-3 17,-5 26,-5 12,0 21,3 27,9 6,6 10,18 10,35l0 0 -3 0c-2,0 -4,0 -6,0 -3,-1 -5,-1 -8,-1 -6,0 -12,0 -18,1 -8,0 -16,1 -22,3 -10,2 -18,6 -24,11 -4,3 -7,7 -10,12 -2,4 -3,9 -4,15 0,12 2,22 7,29 4,5 8,8 13,11 4,2 9,4 14,5 10,1 19,1 28,-1 9,-2 17,-6 24,-11 4,-4 7,-7 10,-12 1,7 2,15 3,23 0,1 1,2 2,2l12 0zm99 -20c-1,-1 -2,-1 -4,0 -7,5 -14,6 -20,2 -8,-3 -11,-10 -11,-21l0 -92 23 0c2,0 2,0 2,-2l0 -11c0,-2 0,-3 -2,-3l-23 0 0 -41c0,-2 -1,-3 -2,-3l-12 0c-1,0 -2,1 -2,3l0 41 -20 0c-2,0 -3,1 -3,3l0 11c0,2 1,2 3,2l20 0 0 92c0,8 2,15 5,22 4,6 8,10 14,13 5,3 10,4 15,4 8,0 16,-2 23,-7 1,-1 1,-2 0,-4l-6 -9zm38 20c-2,0 -3,-1 -3,-2l0 -142c0,-2 1,-2 3,-2l11 0c2,0 2,0 2,2l0 142c0,1 0,2 -2,2l-11 0zm17 -193c0,3 -1,5 -4,8 -2,2 -4,3 -8,3 -3,0 -6,-1 -8,-3 -2,-3 -3,-5 -3,-8 0,-4 1,-6 3,-8 2,-3 5,-4 8,-4 4,0 6,1 8,4 3,2 4,4 4,8zm98 192c0,1 -1,1 -2,1l-10 0c-1,0 -2,0 -3,-1l-52 -143c0,0 0,-1 0,-2 1,0 1,-1 2,-1l12 0c1,0 2,1 2,2l44 117 43 -117c1,-1 2,-2 3,-2l12 0c0,0 1,1 2,1 0,1 0,2 0,2l-53 143zm137 -130c-16,0 -29,6 -39,16 -11,11 -16,25 -16,41l109 -9c-2,-14 -7,-26 -17,-35 -11,-8 -23,-13 -37,-13zm2 131c-20,0 -37,-7 -52,-21 -14,-15 -21,-32 -21,-52 0,-21 7,-38 21,-53 13,-14 30,-21 50,-21 20,0 36,8 50,22 13,14 20,31 20,50l0 4c0,1 0,2 -2,2l-121 11c3,12 10,22 20,30 11,8 22,12 35,12 10,0 20,-2 28,-7 9,-5 16,-11 21,-20 1,-1 2,-1 3,-1l10 6c1,1 2,2 1,3 -7,11 -16,20 -27,26 -11,6 -23,9 -36,9z"/>
   <path class="fil1" d="M2282 2693l-514 153 -892 -139c-258,-205 -848,-467 -841,-761 304,-245 1066,-156 1499,-55 502,116 1725,-206 1560,-35l-812 837z"/>
   <path class="fil2" d="M1511 2864c-642,0 -1174,-289 -1483,-832 0,0 -9,-114 33,-55 223,311 683,508 1049,373 305,-113 842,-633 1148,-939 104,-104 290,-83 276,90 -47,556 -978,899 -954,1034 17,96 897,-530 1216,-1093 63,-112 237,-155 237,-24 -2,563 -998,1261 -1021,1312 -39,84 787,-570 1012,-1017 39,-78 147,-534 288,-410 -125,883 -884,1561 -1801,1561z"/>
   <path class="fil3" d="M1030 171l513 -153 892 139c259,205 848,467 842,761 -304,245 -1066,156 -1500,55 -502,-116 -1725,207 -1559,36l812 -838z"/>
   <path class="fil4" d="M1801 0c642,0 1173,289 1483,832 0,0 9,114 -33,55 -223,-311 -684,-508 -1050,-373 -304,113 -841,633 -1147,939 -104,104 -291,84 -276,-89 47,-556 978,-900 954,-1035 -17,-96 -898,530 -1216,1093 -63,112 -237,155 -237,25 2,-564 998,-1261 1021,-1313 38,-84 -787,570 -1012,1017 -40,78 -147,534 -288,410 125,-882 884,-1561 1801,-1561z"/>
  </g>
 </g>
</svg>
