<?xml version="1.0" encoding="UTF-8"?>
<!DOCTYPE svg PUBLIC "-//W3C//DTD SVG 1.1//EN" "http://www.w3.org/Graphics/SVG/1.1/DTD/svg11.dtd">
<!-- Creator: CorelDRAW X7 -->
<svg xmlns="http://www.w3.org/2000/svg" xml:space="preserve" width="67.9872mm" height="91.4398mm" version="1.1" style="shape-rendering:geometricPrecision; text-rendering:geometricPrecision; image-rendering:optimizeQuality; fill-rule:evenodd; clip-rule:evenodd"
viewBox="0 0 6799 9144"
 xmlns:xlink="http://www.w3.org/1999/xlink">
 <defs>
  <style type="text/css">
   <![CDATA[
    .str1 {stroke:#61003F;stroke-width:124.66;stroke-linecap:round;stroke-linejoin:round}
    .str0 {stroke:#61003F;stroke-width:124.67;stroke-linecap:round;stroke-linejoin:round}
    .fil2 {fill:none}
    .fil0 {fill:#FFF4F0}
    .fil1 {fill:#61003F;fill-rule:nonzero}
   ]]>
  </style>
   <clipPath id="id0">
    <path d="M4682 8317c0,411 -574,744 -1283,744 -708,0 -1283,-333 -1283,-744l0 -2521c0,-410 575,-743 1283,-743 709,0 1283,333 1283,743l0 2521z"/>
   </clipPath>
 </defs>
 <g id="Layer_x0020_1">
  <metadata id="CorelCorpID_0Corel-Layer"/>
  <circle class="fil0 str0" cx="3399" cy="3420" r="3337"/>
  <path class="fil0" d="M4682 8317c0,411 -574,744 -1283,744 -708,0 -1283,-333 -1283,-744l0 -2521c0,-410 575,-743 1283,-743 709,0 1283,333 1283,743l0 2521z"/>
  <g style="clip-path:url(#id0)">
   <g id="_2360863030400">
    <g>
     <path id="1" class="fil0" d="M3402 7573c708,0 1283,333 1283,744 0,411 -575,744 -1283,744 -709,0 -1283,-333 -1283,-744 0,-411 574,-744 1283,-744z"/>
     <path id="2" class="fil1" d="M4747 8317l-124 0 0 0 -2 -33 -4 -32 -7 -33 -10 -31 -13 -32 -15 -31 -18 -31 -20 -30 -24 -30 -26 -29 -28 -29 -31 -28 -33 -27 -36 -27 -38 -25 -40 -24 -43 -24 -44 -22 -46 -21 -49 -20 -50 -19 -51 -17 -54 -16 -55 -14 -56 -13 -58 -11 -59 -10 -60 -8 -61 -7 -63 -4 -63 -3 -64 -1 0 -124 68 1 67 3 66 5 65 7 64 8 63 11 61 12 60 14 59 15 57 17 56 19 54 20 52 21 51 23 49 25 47 26 44 27 43 28 40 30 39 31 35 33 34 33 30 35 29 36 25 37 22 39 20 39 16 41 12 41 10 42 5 43 2 44 0 0zm-1345 806l0 -124 0 0 64 -1 63 -3 63 -5 61 -6 60 -8 59 -10 58 -11 56 -13 55 -14 54 -16 51 -17 50 -19 49 -20 46 -21 44 -22 43 -24 40 -24 38 -26 36 -26 33 -27 31 -28 28 -29 26 -29 24 -30 20 -30 18 -31 15 -31 13 -32 10 -31 7 -33 4 -32 2 -33 124 0 -2 44 -5 43 -10 42 -12 41 -16 41 -20 39 -22 39 -25 37 -29 36 -30 35 -34 33 -35 33 -39 31 -40 30 -43 28 -44 27 -47 26 -49 25 -51 23 -52 21 -54 20 -56 19 -57 17 -59 15 -60 14 -61 12 -63 11 -64 8 -65 7 -66 5 -67 3 -68 1 0 0zm-1345 -806l124 0 0 0 2 33 4 32 7 33 10 31 13 32 15 31 18 31 20 30 24 30 26 29 28 29 31 28 33 27 36 26 38 26 40 24 43 24 44 22 46 21 49 20 50 19 51 17 54 16 55 14 56 13 58 11 59 10 60 8 61 6 62 5 64 3 64 1 0 124 -68 -1 -67 -3 -66 -5 -65 -7 -64 -8 -63 -11 -61 -12 -60 -14 -59 -15 -57 -17 -56 -19 -54 -20 -53 -21 -50 -23 -49 -25 -47 -26 -44 -27 -43 -28 -40 -30 -39 -31 -35 -33 -34 -33 -30 -35 -29 -36 -25 -37 -22 -39 -20 -39 -16 -41 -12 -41 -10 -42 -5 -43 -2 -44 0 0zm1345 -806l0 124 0 0 -64 1 -64 3 -62 4 -61 7 -60 8 -59 10 -58 11 -56 13 -55 14 -54 16 -51 17 -50 19 -49 20 -46 21 -44 22 -43 24 -40 24 -38 25 -36 27 -33 27 -31 28 -28 29 -26 29 -24 30 -20 30 -18 31 -15 31 -13 32 -10 31 -7 33 -4 32 -2 33 -124 0 2 -44 5 -43 10 -42 12 -41 16 -41 20 -39 22 -39 25 -37 29 -36 30 -35 34 -33 35 -33 39 -31 40 -30 43 -28 44 -27 47 -26 49 -25 50 -23 53 -21 54 -20 56 -19 57 -17 59 -15 60 -14 61 -12 63 -11 64 -8 65 -7 66 -5 67 -3 68 -1 0 0z"/>
    </g>
    <g>
     <path class="fil0" d="M3402 7213c708,0 1283,333 1283,744 0,411 -575,744 -1283,744 -709,0 -1283,-333 -1283,-744 0,-411 574,-744 1283,-744z"/>
     <path id="1" class="fil1" d="M4747 7957l-124 0 0 0 -2 -33 -4 -33 -7 -32 -10 -32 -13 -31 -15 -31 -18 -31 -20 -30 -24 -30 -26 -30 -28 -28 -31 -28 -33 -27 -36 -27 -38 -25 -40 -25 -43 -23 -44 -22 -46 -21 -49 -20 -50 -19 -51 -17 -54 -16 -55 -14 -56 -13 -58 -12 -59 -9 -60 -8 -61 -7 -63 -4 -63 -3 -64 -1 0 -124 68 1 67 3 66 5 65 7 64 8 63 11 61 12 60 13 59 16 57 17 56 18 54 20 52 22 51 23 49 25 47 25 44 28 43 28 40 30 39 31 35 33 34 33 30 35 29 36 25 37 22 39 20 39 16 40 12 42 10 42 5 43 2 44 0 0zm-1345 805l0 -123 0 0 64 -1 63 -3 63 -5 61 -6 60 -8 59 -10 58 -11 56 -13 55 -14 54 -16 51 -17 50 -19 49 -20 46 -21 44 -22 43 -24 40 -24 38 -26 36 -26 33 -27 31 -28 28 -29 26 -29 24 -30 20 -30 18 -31 15 -31 13 -32 10 -32 7 -32 4 -32 2 -33 124 0 -2 43 -5 43 -10 43 -12 41 -16 41 -20 39 -22 38 -25 38 -29 36 -30 35 -34 33 -35 33 -39 31 -40 29 -43 29 -44 27 -47 26 -49 25 -51 23 -52 21 -54 20 -56 19 -57 17 -59 15 -60 14 -61 12 -63 10 -64 9 -65 7 -66 5 -67 2 -68 1 0 0zm-1345 -805l124 0 0 0 2 33 4 32 7 32 10 32 13 32 15 31 18 31 20 30 24 30 26 29 28 29 31 28 33 27 36 26 38 26 40 24 43 24 44 22 46 21 49 20 50 19 51 17 54 16 55 14 56 13 58 11 59 10 60 8 61 6 62 5 64 3 64 1 0 123 -68 -1 -67 -2 -66 -5 -65 -7 -64 -9 -63 -10 -61 -12 -60 -14 -59 -15 -57 -17 -56 -19 -54 -20 -53 -21 -50 -23 -49 -25 -47 -26 -44 -27 -43 -29 -40 -29 -39 -31 -35 -33 -34 -33 -30 -35 -29 -36 -25 -38 -22 -38 -20 -39 -16 -41 -12 -41 -10 -43 -5 -43 -2 -43 0 0zm1345 -806l0 124 0 0 -64 1 -64 3 -62 4 -61 7 -60 8 -59 9 -58 12 -56 13 -55 14 -54 16 -51 17 -50 19 -49 20 -46 21 -44 22 -43 23 -40 25 -38 25 -36 27 -33 27 -31 28 -28 28 -26 30 -24 30 -20 30 -18 31 -15 31 -13 31 -10 32 -7 32 -4 33 -2 33 -124 0 2 -44 5 -43 10 -42 12 -42 16 -40 20 -39 22 -39 25 -37 29 -36 30 -35 34 -33 35 -33 39 -31 40 -30 43 -28 44 -28 47 -25 49 -25 50 -23 53 -22 54 -20 56 -18 57 -17 59 -16 60 -13 61 -12 63 -11 64 -8 65 -7 66 -5 67 -3 68 -1 0 0z"/>
    </g>
    <g>
     <path class="fil0" d="M3402 6853c708,0 1283,333 1283,744 0,410 -575,743 -1283,743 -709,0 -1283,-333 -1283,-743 0,-411 574,-744 1283,-744z"/>
     <path id="1" class="fil1" d="M4747 7597l-124 0 0 0 -2 -33 -4 -33 -7 -32 -10 -32 -13 -31 -15 -31 -18 -31 -20 -30 -24 -30 -26 -30 -28 -28 -31 -28 -33 -27 -36 -27 -38 -25 -40 -25 -43 -23 -44 -22 -46 -22 -49 -19 -50 -19 -51 -17 -54 -16 -55 -14 -56 -13 -58 -12 -59 -9 -60 -8 -61 -7 -63 -4 -63 -3 -64 -1 0 -124 68 1 67 3 66 5 65 7 64 8 63 10 61 13 60 13 59 16 57 17 56 18 54 20 52 22 51 23 49 24 47 26 44 28 43 28 40 30 39 31 35 32 34 34 30 35 29 36 25 37 22 38 20 40 16 40 12 42 10 42 5 43 2 44 0 0zm-1345 805l0 -123 0 0 64 -1 63 -3 63 -5 61 -6 60 -8 59 -10 58 -11 56 -13 55 -15 54 -15 51 -18 50 -18 49 -20 46 -21 44 -22 43 -24 40 -24 38 -26 36 -26 33 -27 31 -28 28 -29 26 -29 24 -30 20 -30 18 -31 15 -31 13 -32 10 -32 7 -32 4 -32 2 -33 124 0 -2 43 -5 43 -10 43 -12 41 -16 41 -20 39 -22 38 -25 38 -29 36 -30 34 -34 34 -35 32 -39 32 -40 29 -43 29 -44 27 -47 26 -49 24 -51 23 -52 22 -54 20 -56 19 -57 17 -59 15 -60 14 -61 12 -63 10 -64 9 -65 7 -66 4 -67 3 -68 1 0 0zm-1345 -805l124 0 0 0 2 33 4 32 7 32 10 32 13 32 15 31 18 31 20 30 24 30 26 29 28 29 31 28 33 27 36 26 38 26 40 24 43 24 44 22 46 21 49 20 50 18 51 18 54 15 55 15 56 13 58 11 59 10 60 8 61 6 62 5 64 3 64 1 0 123 -68 -1 -67 -3 -66 -4 -65 -7 -64 -9 -63 -10 -61 -12 -60 -14 -59 -15 -57 -17 -56 -19 -54 -20 -53 -22 -50 -23 -49 -24 -47 -26 -44 -27 -43 -29 -40 -29 -39 -32 -35 -32 -34 -34 -30 -34 -29 -36 -25 -38 -22 -38 -20 -39 -16 -41 -12 -41 -10 -43 -5 -43 -2 -43 0 0zm1345 -806l0 124 0 0 -64 1 -64 3 -62 4 -61 7 -60 8 -59 9 -58 12 -56 13 -55 14 -54 16 -51 17 -50 19 -49 19 -46 22 -44 22 -43 23 -40 25 -38 25 -36 27 -33 27 -31 28 -28 28 -26 30 -24 30 -20 30 -18 31 -15 31 -13 31 -10 32 -7 32 -4 33 -2 33 -124 0 2 -44 5 -43 10 -42 12 -42 16 -40 20 -40 22 -38 25 -37 29 -36 30 -35 34 -34 35 -32 39 -31 40 -30 43 -28 44 -28 47 -26 49 -24 50 -23 53 -22 54 -20 56 -18 57 -17 59 -16 60 -13 61 -13 63 -10 64 -8 65 -7 66 -5 67 -3 68 -1 0 0z"/>
    </g>
    <g>
     <path class="fil0" d="M3402 6493c708,0 1283,333 1283,744 0,410 -575,743 -1283,743 -709,0 -1283,-333 -1283,-743 0,-411 574,-744 1283,-744z"/>
     <path id="1" class="fil1" d="M4747 7237l-124 0 0 0 -2 -33 -4 -33 -7 -32 -10 -32 -13 -31 -15 -31 -18 -31 -20 -31 -24 -29 -26 -30 -28 -28 -31 -28 -33 -28 -36 -26 -38 -25 -40 -25 -43 -23 -44 -23 -46 -21 -49 -20 -50 -18 -51 -17 -54 -16 -55 -15 -56 -12 -58 -12 -59 -10 -60 -8 -61 -6 -63 -4 -63 -3 -64 -1 0 -124 68 1 67 3 66 5 65 6 64 9 63 10 61 12 60 14 59 16 57 17 56 18 54 20 52 22 51 23 49 24 47 26 44 27 43 29 40 30 39 31 35 32 34 34 30 35 29 36 25 37 22 38 20 40 16 40 12 42 10 42 5 43 2 44 0 0zm-1345 805l0 -124 0 0 64 -1 63 -2 63 -5 61 -6 60 -8 59 -10 58 -11 56 -13 55 -15 54 -15 51 -18 50 -18 49 -20 46 -21 44 -23 43 -23 40 -24 38 -26 36 -26 33 -27 31 -28 28 -29 26 -29 24 -30 20 -31 18 -30 15 -32 13 -31 10 -32 7 -32 4 -32 2 -33 124 0 -2 43 -5 43 -10 43 -12 41 -16 40 -20 40 -22 38 -25 37 -29 36 -30 35 -34 34 -35 32 -39 31 -40 30 -43 29 -44 27 -47 26 -49 24 -51 23 -52 22 -54 20 -56 19 -57 17 -59 15 -60 14 -61 12 -63 10 -64 9 -65 6 -66 5 -67 3 -68 1 0 0zm-1345 -805l124 0 0 0 2 33 4 32 7 32 10 32 13 31 15 32 18 30 20 31 24 30 26 29 28 29 31 28 33 27 36 26 38 26 40 24 43 23 44 23 46 21 49 20 50 18 51 18 54 15 55 15 56 13 58 11 59 10 60 8 61 6 62 5 64 2 64 1 0 124 -68 -1 -67 -3 -66 -5 -65 -6 -64 -9 -63 -10 -61 -12 -60 -14 -59 -15 -57 -17 -56 -19 -54 -20 -53 -22 -50 -23 -49 -24 -47 -26 -44 -27 -43 -29 -40 -30 -39 -31 -35 -32 -34 -34 -30 -35 -29 -36 -25 -37 -22 -38 -20 -40 -16 -40 -12 -41 -10 -43 -5 -43 -2 -43 0 0zm1345 -806l0 124 0 0 -64 1 -64 3 -62 4 -61 6 -60 8 -59 10 -58 12 -56 12 -55 15 -54 16 -51 17 -50 18 -49 20 -46 21 -44 23 -43 23 -40 25 -38 25 -36 26 -33 28 -31 28 -28 28 -26 30 -24 29 -20 31 -18 31 -15 31 -13 31 -10 32 -7 32 -4 33 -2 33 -124 0 2 -44 5 -43 10 -42 12 -42 16 -40 20 -40 22 -38 25 -37 29 -36 30 -35 34 -34 35 -32 39 -31 40 -30 43 -29 44 -27 47 -26 49 -24 50 -23 53 -22 54 -20 56 -18 57 -17 59 -16 60 -14 61 -12 63 -10 64 -9 65 -6 66 -5 67 -3 68 -1 0 0z"/>
    </g>
    <g>
     <path class="fil0" d="M3402 6133c708,0 1283,333 1283,743 0,411 -575,744 -1283,744 -709,0 -1283,-333 -1283,-744 0,-410 574,-743 1283,-743z"/>
     <path id="1" class="fil1" d="M4747 6876l-124 0 0 0 -2 -32 -4 -33 -7 -32 -10 -32 -13 -31 -15 -32 -18 -30 -20 -31 -24 -30 -26 -29 -28 -29 -31 -28 -33 -27 -36 -26 -38 -26 -40 -24 -43 -23 -44 -23 -46 -21 -49 -20 -50 -18 -51 -17 -54 -16 -55 -15 -56 -13 -58 -11 -59 -10 -60 -8 -61 -6 -63 -5 -63 -2 -64 -1 0 -124 68 1 67 3 66 5 65 6 64 9 63 10 61 12 60 14 59 15 57 17 56 19 54 20 52 22 51 23 49 24 47 26 44 27 43 29 40 30 39 31 35 32 34 34 30 35 29 36 25 37 22 38 20 40 16 40 12 42 10 42 5 43 2 43 0 0zm-1345 806l0 -124 0 0 64 -1 63 -2 63 -5 61 -6 60 -8 59 -10 58 -11 56 -13 55 -15 54 -16 51 -17 50 -18 49 -20 46 -21 44 -23 43 -23 40 -25 38 -25 36 -26 33 -28 31 -28 28 -28 26 -30 24 -29 20 -31 18 -30 15 -32 13 -31 10 -32 7 -32 4 -33 2 -33 124 0 -2 44 -5 43 -10 42 -12 42 -16 40 -20 40 -22 38 -25 37 -29 36 -30 35 -34 34 -35 32 -39 31 -40 30 -43 29 -44 27 -47 26 -49 24 -51 23 -52 22 -54 20 -56 18 -57 17 -59 16 -60 14 -61 12 -63 10 -64 9 -65 6 -66 5 -67 3 -68 1 0 0zm-1345 -806l124 0 0 0 2 33 4 33 7 32 10 32 13 31 15 32 18 30 20 31 24 29 26 30 28 28 31 28 33 28 36 26 38 25 40 25 43 23 44 23 46 21 49 20 50 18 51 17 54 16 55 15 56 13 58 11 59 10 60 8 61 6 62 5 64 2 64 1 0 124 -68 -1 -67 -3 -66 -5 -65 -6 -64 -9 -63 -10 -61 -12 -60 -14 -59 -16 -57 -17 -56 -18 -54 -20 -53 -22 -50 -23 -49 -24 -47 -26 -44 -27 -43 -29 -40 -30 -39 -31 -35 -32 -34 -34 -30 -35 -29 -36 -25 -37 -22 -38 -20 -40 -16 -40 -12 -42 -10 -42 -5 -43 -2 -44 0 0zm1345 -805l0 124 0 0 -64 1 -64 2 -62 5 -61 6 -60 8 -59 10 -58 11 -56 13 -55 15 -54 16 -51 17 -50 18 -49 20 -46 21 -44 23 -43 23 -40 24 -38 26 -36 26 -33 27 -31 28 -28 29 -26 29 -24 30 -20 31 -18 30 -15 32 -13 31 -10 32 -7 32 -4 33 -2 32 -124 0 2 -43 5 -43 10 -42 12 -42 16 -40 20 -40 22 -38 25 -37 29 -36 30 -35 34 -34 35 -32 39 -31 40 -30 43 -29 44 -27 47 -26 49 -24 50 -23 53 -22 54 -20 56 -19 57 -17 59 -15 60 -14 61 -12 63 -10 64 -9 65 -6 66 -5 67 -3 68 -1 0 0z"/>
    </g>
    <g>
     <path class="fil0" d="M3402 5773c708,0 1283,333 1283,743 0,411 -575,744 -1283,744 -709,0 -1283,-333 -1283,-744 0,-410 574,-743 1283,-743z"/>
     <path id="1" class="fil1" d="M4747 6516l-124 0 0 0 -2 -33 -4 -32 -7 -32 -10 -32 -13 -32 -15 -31 -18 -30 -20 -31 -24 -30 -26 -29 -28 -29 -31 -28 -33 -27 -36 -26 -38 -26 -40 -24 -43 -23 -44 -23 -46 -21 -49 -20 -50 -18 -51 -18 -54 -15 -55 -15 -56 -13 -58 -11 -59 -10 -60 -8 -61 -6 -63 -5 -63 -3 -64 0 0 -124 68 1 67 3 66 4 65 7 64 9 63 10 61 12 60 14 59 15 57 17 56 19 54 20 52 22 51 23 49 24 47 26 44 27 43 29 40 30 39 31 35 32 34 34 30 34 29 37 25 37 22 38 20 39 16 41 12 41 10 43 5 43 2 43 0 0zm-1345 806l0 -124 0 0 64 -1 63 -3 63 -4 61 -7 60 -8 59 -9 58 -12 56 -12 55 -15 54 -16 51 -17 50 -19 49 -19 46 -22 44 -22 43 -23 40 -25 38 -25 36 -26 33 -28 31 -28 28 -28 26 -30 24 -29 20 -31 18 -31 15 -31 13 -31 10 -32 7 -32 4 -33 2 -33 124 0 -2 44 -5 43 -10 42 -12 42 -16 40 -20 40 -22 38 -25 37 -29 36 -30 35 -34 34 -35 32 -39 31 -40 30 -43 29 -44 27 -47 26 -49 24 -51 23 -52 22 -54 20 -56 18 -57 17 -59 16 -60 14 -61 12 -63 10 -64 8 -65 7 -66 5 -67 3 -68 1 0 0zm-1345 -806l124 0 0 0 2 33 4 33 7 32 10 32 13 31 15 31 18 31 20 31 24 29 26 30 28 28 31 28 33 28 36 26 38 25 40 25 43 23 44 22 46 22 49 19 50 19 51 17 54 16 55 15 56 12 58 12 59 9 60 8 61 7 62 4 64 3 64 1 0 124 -68 -1 -67 -3 -66 -5 -65 -7 -64 -8 -63 -10 -61 -12 -60 -14 -59 -16 -57 -17 -56 -18 -54 -20 -53 -22 -50 -23 -49 -24 -47 -26 -44 -27 -43 -29 -40 -30 -39 -31 -35 -32 -34 -34 -30 -35 -29 -36 -25 -37 -22 -38 -20 -40 -16 -40 -12 -42 -10 -42 -5 -43 -2 -44 0 0zm1345 -805l0 124 0 0 -64 0 -64 3 -62 5 -61 6 -60 8 -59 10 -58 11 -56 13 -55 15 -54 15 -51 18 -50 18 -49 20 -46 21 -44 23 -43 23 -40 24 -38 26 -36 26 -33 27 -31 28 -28 29 -26 29 -24 30 -20 31 -18 30 -15 31 -13 32 -10 32 -7 32 -4 32 -2 33 -124 0 2 -43 5 -43 10 -43 12 -41 16 -41 20 -39 22 -38 25 -37 29 -37 30 -34 34 -34 35 -32 39 -31 40 -30 43 -29 44 -27 47 -26 49 -24 50 -23 53 -22 54 -20 56 -19 57 -17 59 -15 60 -14 61 -12 63 -10 64 -9 65 -7 66 -4 67 -3 68 -1 0 0z"/>
    </g>
    <g>
     <path class="fil0" d="M3402 5412c708,0 1283,333 1283,744 0,411 -575,744 -1283,744 -709,0 -1283,-333 -1283,-744 0,-411 574,-744 1283,-744z"/>
     <path id="1" class="fil1" d="M4747 6156l-124 0 0 0 -2 -33 -4 -32 -7 -32 -10 -32 -13 -32 -15 -31 -18 -31 -20 -30 -24 -30 -26 -29 -28 -29 -31 -28 -33 -27 -36 -26 -38 -26 -40 -24 -43 -24 -44 -22 -46 -21 -49 -20 -50 -18 -51 -18 -54 -16 -55 -14 -56 -13 -58 -11 -59 -10 -60 -8 -61 -6 -63 -5 -63 -3 -64 -1 0 -123 68 1 67 3 66 4 65 7 64 9 63 10 61 12 60 14 59 15 57 17 56 19 54 20 52 21 51 24 49 24 47 26 44 27 43 29 40 29 39 32 35 32 34 34 30 34 29 36 25 38 22 38 20 39 16 41 12 41 10 43 5 43 2 43 0 0zm-1345 806l0 -124 0 0 64 -1 63 -3 63 -4 61 -7 60 -8 59 -9 58 -12 56 -13 55 -14 54 -16 51 -17 50 -19 49 -20 46 -21 44 -22 43 -23 40 -25 38 -25 36 -27 33 -27 31 -28 28 -28 26 -30 24 -30 20 -30 18 -31 15 -31 13 -31 10 -32 7 -32 4 -33 2 -33 124 0 -2 44 -5 43 -10 42 -12 42 -16 40 -20 40 -22 38 -25 37 -29 36 -30 35 -34 34 -35 32 -39 31 -40 30 -43 28 -44 28 -47 25 -49 25 -51 23 -52 22 -54 20 -56 18 -57 17 -59 16 -60 13 -61 12 -63 11 -64 8 -65 7 -66 5 -67 3 -68 1 0 0zm-1345 -806l124 0 0 0 2 33 4 33 7 32 10 32 13 31 15 31 18 31 20 30 24 30 26 30 28 28 31 28 33 27 36 27 38 25 40 25 43 23 44 22 46 21 49 20 50 19 51 17 54 16 55 14 56 13 58 12 59 9 60 8 61 7 62 4 64 3 64 1 0 124 -68 -1 -67 -3 -66 -5 -65 -7 -64 -8 -63 -11 -61 -12 -60 -13 -59 -16 -57 -17 -56 -18 -54 -20 -53 -22 -50 -23 -49 -25 -47 -25 -44 -28 -43 -28 -40 -30 -39 -31 -35 -32 -34 -34 -30 -35 -29 -36 -25 -37 -22 -38 -20 -40 -16 -40 -12 -42 -10 -42 -5 -43 -2 -44 0 0zm1345 -805l0 123 0 0 -64 1 -64 3 -62 5 -61 6 -60 8 -59 10 -58 11 -56 13 -55 14 -54 16 -51 18 -50 18 -49 20 -46 21 -44 22 -43 24 -40 24 -38 26 -36 26 -33 27 -31 28 -28 29 -26 29 -24 30 -20 30 -18 31 -15 31 -13 32 -10 32 -7 32 -4 32 -2 33 -124 0 2 -43 5 -43 10 -43 12 -41 16 -41 20 -39 22 -38 25 -38 29 -36 30 -34 34 -34 35 -32 39 -32 40 -29 43 -29 44 -27 47 -26 49 -24 50 -24 53 -21 54 -20 56 -19 57 -17 59 -15 60 -14 61 -12 63 -10 64 -9 65 -7 66 -4 67 -3 68 -1 0 0z"/>
    </g>
    <g>
     <path class="fil0" d="M3402 5053c708,0 1283,333 1283,743 0,411 -575,744 -1283,744 -709,0 -1283,-333 -1283,-744 0,-410 574,-743 1283,-743z"/>
     <path id="1" class="fil1" d="M4747 5796l-125 0 0 0 -1 -33 -4 -32 -7 -32 -10 -32 -13 -32 -15 -31 -18 -30 -20 -31 -24 -30 -26 -29 -28 -29 -31 -28 -33 -27 -36 -26 -38 -26 -40 -24 -43 -23 -44 -23 -46 -21 -49 -20 -50 -18 -51 -18 -54 -15 -55 -15 -56 -13 -58 -11 -59 -10 -60 -8 -61 -6 -63 -5 -63 -3 -64 0 0 -124 68 1 67 3 66 5 65 6 64 9 63 10 61 12 60 14 59 15 57 17 56 19 54 20 52 22 51 23 49 24 46 26 45 27 43 29 40 30 38 31 36 32 34 34 30 34 28 37 26 37 22 38 19 39 17 41 12 41 10 43 5 43 2 43 0 0zm-1345 806l0 -124 0 0 64 -1 63 -3 63 -4 61 -7 60 -8 59 -9 58 -12 56 -12 55 -15 54 -16 51 -17 50 -19 49 -19 46 -22 44 -22 43 -23 40 -25 38 -25 36 -26 33 -28 31 -28 28 -28 26 -30 24 -29 20 -31 18 -31 15 -31 13 -31 10 -32 7 -32 4 -33 1 -33 125 0 -2 44 -5 43 -10 42 -12 42 -17 40 -19 40 -22 38 -26 37 -28 36 -30 35 -34 34 -36 32 -38 31 -40 30 -43 29 -45 27 -46 26 -49 24 -51 23 -52 22 -54 20 -56 18 -57 17 -59 16 -60 14 -61 12 -63 10 -64 8 -65 7 -66 5 -67 3 -68 1 0 0zm-1345 -806l124 0 0 0 2 33 4 33 7 32 10 32 12 31 16 31 18 31 20 31 24 29 26 30 28 28 31 28 33 28 36 26 38 25 40 25 43 23 44 22 46 22 49 19 50 19 51 17 54 16 55 15 56 12 58 12 59 9 60 8 61 7 62 4 64 3 64 1 0 124 -68 -1 -67 -3 -66 -5 -65 -7 -64 -8 -63 -10 -61 -12 -60 -14 -59 -16 -57 -17 -56 -18 -54 -20 -53 -22 -50 -23 -49 -24 -47 -26 -44 -27 -43 -29 -40 -30 -39 -31 -35 -32 -34 -34 -31 -35 -28 -36 -25 -37 -22 -38 -20 -40 -16 -40 -12 -42 -10 -42 -5 -43 -2 -44 0 0zm1345 -805l0 124 0 0 -64 0 -64 3 -62 5 -61 6 -60 8 -59 10 -58 11 -56 13 -55 15 -54 15 -51 18 -50 18 -49 20 -46 21 -44 23 -43 23 -40 24 -38 26 -36 26 -33 27 -31 28 -28 29 -26 29 -24 30 -20 31 -18 30 -16 31 -12 32 -10 32 -7 32 -4 32 -2 33 -124 0 2 -43 5 -43 10 -43 12 -41 16 -41 20 -39 22 -38 25 -37 28 -37 31 -34 34 -34 35 -32 39 -31 40 -30 43 -29 44 -27 47 -26 49 -24 50 -23 53 -22 54 -20 56 -19 57 -17 59 -15 60 -14 61 -12 63 -10 64 -9 65 -6 66 -5 67 -3 68 -1 0 0z"/>
    </g>
   </g>
  </g>
  <path class="fil2" d="M4682 8317c0,411 -574,744 -1283,744 -708,0 -1283,-333 -1283,-744l0 -2521c0,-410 575,-743 1283,-743 709,0 1283,333 1283,743l0 2521z"/>
  <path class="fil1" d="M4745 8317c0,229 -156,433 -407,579 -242,140 -573,226 -939,226 -365,0 -697,-86 -938,-226 -251,-146 -407,-350 -407,-579l0 -2521c0,-228 156,-433 407,-579 241,-140 573,-226 938,-226 366,0 697,86 939,226 251,146 407,351 407,579l0 2521zm-470 473c213,-124 345,-291 345,-473l0 -2521c0,-182 -132,-349 -345,-473 -223,-129 -532,-209 -876,-209 -343,0 -653,80 -875,209 -213,124 -345,291 -345,473l0 2521c0,182 132,349 345,473 222,129 532,209 875,209 344,0 653,-80 876,-209z"/>
  <line class="fil2 str1" x1="3036" y1="5762" x2="2657" y2= "3043" />
  <line class="fil2 str1" x1="3763" y1="5762" x2="4317" y2= "3043" />
  <polyline class="fil2 str1" points="2657,3043 3072,2803 3072,3282 3487,2564 3487,3522 3902,2803 3902,3282 4317,3043 "/>
  <path class="fil1" d="M3399 21c939,0 1789,381 2404,996 615,615 996,1465 996,2403 0,939 -381,1789 -996,2404 -615,615 -1465,996 -2404,996 -938,0 -1788,-381 -2403,-996 -616,-615 -996,-1465 -996,-2404 0,-938 380,-1788 996,-2403 615,-615 1465,-996 2403,-996zm2316 1084c-593,-593 -1411,-959 -2316,-959 -904,0 -1723,366 -2315,959 -593,592 -959,1411 -959,2315 0,905 366,1723 959,2316 592,593 1411,959 2315,959 905,0 1723,-366 2316,-959 593,-593 959,-1411 959,-2316 0,-904 -366,-1723 -959,-2315z"/>
 </g>
</svg>
