<?xml version="1.0" encoding="UTF-8"?>
<!DOCTYPE svg PUBLIC "-//W3C//DTD SVG 1.1//EN" "http://www.w3.org/Graphics/SVG/1.1/DTD/svg11.dtd">
<!-- Creator: CorelDRAW X7 -->
<svg xmlns="http://www.w3.org/2000/svg" xml:space="preserve" width="91.4398mm" height="56.3032mm" version="1.1" style="shape-rendering:geometricPrecision; text-rendering:geometricPrecision; image-rendering:optimizeQuality; fill-rule:evenodd; clip-rule:evenodd"
viewBox="0 0 9144 5630"
 xmlns:xlink="http://www.w3.org/1999/xlink">
 <defs>
  <style type="text/css">
   <![CDATA[
    .fil4 {fill:#61003F}
    .fil2 {fill:#61003F}
    .fil3 {fill:#DB4C1C}
    .fil5 {fill:#DB4C1C}
    .fil0 {fill:#FFF4F0}
    .fil1 {fill:#61003F;fill-rule:nonzero}
   ]]>
  </style>
    <clipPath id="id0">
     <path d="M6816 3720c173,0 313,81 313,181 0,100 -140,181 -313,181 -173,0 -313,-81 -313,-181 0,-100 140,-181 313,-181z"/>
    </clipPath>
 </defs>
 <g id="Layer_x0020_1">
  <metadata id="CorelCorpID_0Corel-Layer"/>
  <g id="_2548839388416">
   <g>
    <path class="fil0" d="M2447 1270c-545,314 -2128,1667 -2447,1167l0 333c0,52 33,101 88,138l4641 2679c63,26 140,41 222,41 83,0 160,-15 223,-41l3898 -2250c45,-37 72,-82 72,-130l0 -333c-249,447 -5518,-1197 -6223,-1604 -64,-32 -147,-51 -237,-51 -91,0 -174,19 -237,51z"/>
    <path id="1" class="fil1" d="M42 2437l-84 0 78 -23 27 34 33 25 39 18 45 10 53 3 59 -4 65 -12 71 -19 75 -25 80 -32 83 -37 85 -43 89 -46 91 -51 92 -55 93 -57 95 -60 94 -62 94 -63 94 -64 93 -64 92 -64 89 -63 88 -62 85 -61 82 -57 78 -55 74 -52 70 -48 66 -43 60 -39 55 -33 43 74 -53 31 -59 38 -64 42 -70 48 -74 51 -78 55 -81 57 -85 61 -88 62 -90 63 -91 64 -94 65 -94 64 -95 64 -96 62 -95 61 -94 58 -94 55 -92 52 -91 48 -88 43 -86 39 -83 33 -80 27 -77 20 -73 14 -69 5 -65 -4 -61 -14 -56 -25 -48 -38 -40 -48 78 -23zm-78 23c-12,-20 -6,-46 13,-59 20,-12 46,-7 59,13l-72 46zm-6 310l0 -333 84 0 0 333 0 0 -84 0zm84 0c0,23 -19,42 -42,42 -23,0 -42,-19 -42,-42l84 0zm67 101l-42 74 -2 -2 -6 -4 -6 -4 -5 -4 -6 -5 -5 -4 -5 -4 -5 -5 -5 -5 -5 -4 -5 -5 -4 -5 -4 -5 -5 -5 -3 -6 -4 -5 -4 -5 -3 -6 -4 -5 -3 -6 -3 -6 -2 -6 -3 -6 -2 -6 -2 -6 -2 -6 -2 -6 -1 -7 -1 -6 -1 -7 -1 -6 0 -7 0 -6 84 0 0 3 1 3 0 3 0 4 1 3 1 3 0 3 1 4 2 3 1 3 1 3 2 3 1 4 2 3 2 3 2 4 2 3 3 3 2 3 3 4 3 3 2 3 4 3 3 4 3 3 4 3 3 3 4 4 4 3 4 3 5 3 4 3 -3 -2zm3 2c19,13 24,39 11,59 -13,19 -39,24 -58,11l47 -70zm4596 2751l-4641 -2679 42 -74 4641 2680 -37 76 -5 -3zm42 -73c21,11 28,37 16,58 -12,20 -38,27 -58,15l42 -73zm201 35l0 85 0 0 -8 0 -8 -1 -8 0 -8 0 -8 0 -8 -1 -8 -1 -8 0 -8 -1 -8 -1 -8 -1 -8 -1 -7 -1 -8 -1 -7 -1 -8 -2 -7 -1 -8 -2 -7 -1 -8 -2 -7 -2 -7 -2 -7 -2 -7 -2 -7 -2 -7 -2 -7 -2 -7 -2 -6 -3 -7 -2 -6 -3 -7 -2 32 -79 6 2 5 3 6 2 5 2 6 2 6 1 6 2 6 2 6 2 6 1 6 2 6 2 6 1 7 1 6 2 7 1 6 1 7 1 6 1 7 1 7 1 7 1 7 1 6 0 7 1 8 1 7 0 7 0 7 1 7 0 7 0 7 0 0 0zm201 -35l43 73 -5 3 -7 2 -6 3 -7 2 -7 3 -6 2 -7 2 -7 2 -7 2 -7 2 -7 2 -7 2 -8 2 -7 2 -7 1 -8 2 -7 1 -8 2 -7 1 -8 1 -8 1 -7 1 -8 1 -8 1 -8 1 -8 0 -8 1 -8 1 -8 0 -8 0 -8 0 -8 1 -9 0 0 -85 8 0 7 0 7 0 7 -1 7 0 7 0 7 -1 7 -1 7 0 7 -1 7 -1 7 -1 6 -1 7 -1 7 -1 6 -1 7 -1 6 -2 6 -1 7 -1 6 -2 6 -2 6 -1 6 -2 6 -2 6 -2 6 -1 5 -2 6 -2 6 -2 5 -3 5 -2 -5 3zm5 -3c22,-9 47,2 56,23 9,22 -2,47 -23,56l-33 -79zm3936 -2175l-3898 2251 -43 -73 3899 -2251 47 70 -5 3zm-42 -73c20,-12 46,-5 57,16 12,20 5,46 -15,57l-42 -73zm51 -93l84 0 0 0 0 6 0 6 -1 6 0 6 -1 6 -1 5 -2 6 -1 6 -2 6 -2 5 -2 6 -2 5 -2 6 -3 5 -2 5 -3 5 -3 5 -3 5 -4 5 -3 5 -4 5 -3 5 -4 4 -4 5 -4 4 -4 5 -5 4 -4 4 -5 5 -4 4 -5 4 -5 4 -53 -66 4 -3 3 -3 4 -3 3 -3 3 -3 3 -3 3 -3 2 -3 3 -3 3 -3 2 -3 2 -3 2 -3 2 -3 2 -3 2 -4 2 -3 1 -3 2 -3 1 -3 1 -3 1 -3 1 -3 1 -3 1 -3 1 -3 0 -3 1 -3 0 -3 0 -3 1 -3 0 -3 0 0zm0 0c0,-23 19,-42 42,-42 23,0 42,19 42,42l-84 0zm84 -333l0 333 -84 0 0 -333 5 -20 79 20zm-84 0c0,-23 19,-42 42,-42 23,0 42,19 42,42l-84 0zm-6200 -1566l37 -76 3 1 77 41 102 47 127 54 148 60 168 64 186 69 203 72 216 75 230 78 241 79 250 81 257 81 263 81 267 80 269 80 269 77 268 74 265 72 260 68 254 63 245 59 234 53 223 47 209 40 194 32 176 25 157 16 135 7 111 -3 85 -12 54 -20 22 -19 74 41 -53 52 -77 28 -98 15 -120 3 -140 -8 -160 -16 -179 -25 -196 -33 -210 -40 -225 -47 -236 -54 -246 -58 -254 -64 -261 -68 -265 -72 -269 -75 -270 -77 -270 -79 -267 -81 -263 -81 -258 -81 -251 -81 -241 -80 -230 -78 -218 -75 -203 -73 -187 -69 -169 -64 -150 -61 -128 -54 -106 -49 -81 -43 2 1zm-2 -1c-21,-12 -28,-38 -16,-58 12,-21 38,-27 58,-16l-42 74zm-216 -45l0 -85 0 0 9 0 9 0 8 1 9 0 9 1 9 0 9 1 8 1 9 1 8 1 9 1 8 1 9 2 8 1 8 2 8 1 8 2 8 2 8 2 8 2 7 2 8 3 8 2 7 3 8 2 7 3 7 3 7 3 7 3 7 3 7 3 6 3 -37 76 -5 -3 -6 -2 -5 -3 -6 -2 -6 -3 -6 -2 -6 -2 -6 -2 -7 -2 -6 -2 -6 -2 -7 -2 -6 -2 -7 -2 -7 -1 -7 -2 -7 -1 -7 -2 -7 -1 -7 -1 -7 -1 -8 -1 -7 -1 -8 -1 -7 -1 -8 0 -7 -1 -8 0 -8 -1 -8 0 -7 0 -8 0 0 0zm-216 45l-43 -74 3 -1 7 -3 6 -3 7 -4 7 -2 7 -3 7 -3 8 -3 7 -2 8 -3 7 -2 8 -3 7 -2 8 -2 8 -2 8 -2 8 -2 8 -1 8 -2 9 -1 8 -2 8 -1 9 -1 8 -1 9 -1 9 -1 8 -1 9 0 9 -1 9 0 9 -1 9 0 9 0 0 85 -8 0 -8 0 -8 0 -8 1 -7 0 -8 1 -8 0 -7 1 -8 1 -7 1 -7 1 -8 1 -7 1 -7 1 -7 2 -7 1 -7 2 -7 1 -6 2 -7 2 -6 2 -7 2 -6 2 -7 2 -6 2 -6 2 -6 2 -6 3 -5 2 -6 3 -5 2 -6 3 3 -1zm-3 1c-21,10 -46,2 -56,-19 -11,-21 -2,-47 19,-57l37 76z"/>
   </g>
   <g>
    <path class="fil0" d="M3950 53l-3862 2246c-55,37 -88,85 -88,138 0,53 33,101 88,138l4641 2680c63,25 140,40 222,40 83,0 160,-15 223,-40l3891 -2263c45,-37 72,-82 72,-130 0,-49 -27,-94 -72,-130l-4641 -2679c-64,-32 -147,-51 -237,-51 -91,0 -173,19 -237,51z"/>
    <path id="1" class="fil1" d="M67 2262l3862 -2246 42 73 -3862 2246 -45 -71 3 -2zm42 73c-20,12 -46,5 -58,-15 -11,-20 -5,-46 16,-58l42 73zm-67 102l-84 0 0 0 0 -7 0 -6 1 -7 1 -6 1 -7 1 -6 2 -6 2 -7 2 -6 2 -6 3 -6 2 -6 3 -5 3 -6 3 -6 4 -5 4 -6 3 -5 4 -5 4 -5 5 -5 4 -5 5 -5 5 -5 4 -4 5 -5 6 -4 5 -5 5 -4 6 -4 5 -4 6 -4 48 70 -5 3 -4 3 -4 3 -4 3 -4 3 -3 3 -4 4 -3 3 -4 3 -3 3 -3 4 -2 3 -3 3 -2 3 -3 4 -2 3 -2 3 -2 4 -2 3 -1 3 -2 3 -1 4 -1 3 -2 3 -1 3 0 3 -1 4 -1 3 0 3 0 3 -1 4 0 3 0 0zm67 101l-42 74 -2 -2 -6 -4 -6 -4 -5 -4 -6 -4 -5 -5 -5 -4 -5 -5 -5 -5 -5 -4 -5 -5 -4 -5 -4 -5 -5 -5 -4 -5 -3 -6 -4 -5 -3 -6 -4 -5 -3 -6 -3 -6 -2 -6 -3 -6 -2 -6 -2 -6 -2 -6 -2 -6 -1 -7 -1 -6 -1 -7 -1 -6 0 -7 0 -6 84 0 0 3 1 3 0 4 0 3 1 3 1 3 0 3 1 4 2 3 1 3 1 3 2 4 1 3 2 3 2 3 2 4 2 3 3 3 2 4 3 3 3 3 2 3 4 4 3 3 3 3 4 3 3 3 4 4 4 3 4 3 5 3 4 3 -3 -2zm3 2c19,13 24,39 11,59 -13,19 -39,24 -58,11l47 -70zm4596 2751l-4641 -2679 42 -74 4641 2680 -37 76 -5 -3zm42 -73c21,12 28,37 16,58 -12,20 -38,27 -58,15l42 -73zm201 35l0 85 0 0 -8 0 -8 0 -8 -1 -8 0 -8 0 -8 -1 -8 0 -8 -1 -8 -1 -8 -1 -8 -1 -8 -1 -7 -1 -8 -1 -7 -1 -8 -2 -7 -1 -8 -2 -7 -1 -8 -2 -7 -2 -7 -2 -7 -2 -7 -2 -7 -2 -7 -2 -7 -2 -7 -2 -6 -3 -7 -2 -6 -3 -7 -2 32 -79 6 3 5 2 6 2 5 2 6 2 6 2 6 1 6 2 6 2 6 2 6 1 6 2 6 1 7 1 6 2 7 1 6 1 7 1 6 1 7 1 7 1 7 1 7 1 6 1 7 0 8 1 7 0 7 0 7 1 7 0 7 0 7 0 0 0zm201 -35l43 73 -5 3 -7 2 -6 3 -7 2 -7 3 -6 2 -7 2 -7 2 -7 2 -7 2 -7 2 -7 2 -8 2 -7 2 -7 1 -8 2 -7 1 -8 2 -7 1 -8 1 -8 1 -7 1 -8 1 -8 1 -8 1 -8 1 -8 0 -8 1 -8 0 -8 0 -8 1 -8 0 -9 0 0 -85 8 0 7 0 7 0 7 -1 7 0 7 0 7 -1 7 0 7 -1 7 -1 7 -1 7 -1 6 -1 7 -1 7 -1 6 -1 7 -1 6 -2 6 -1 7 -1 6 -2 6 -1 6 -2 6 -2 6 -2 6 -1 6 -2 5 -2 6 -2 6 -2 5 -2 5 -3 -5 3zm5 -3c22,-8 47,2 56,24 9,21 -2,46 -23,55l-33 -79zm3929 -2187l-3891 2263 -43 -73 3891 -2263 48 70 -5 3zm-43 -73c21,-12 46,-5 58,15 12,20 5,46 -15,58l-43 -73zm52 -93l84 0 0 0 0 6 0 6 -1 6 0 5 -1 6 -1 6 -2 6 -1 6 -2 5 -2 6 -2 5 -2 6 -2 5 -3 6 -3 5 -2 5 -3 5 -4 5 -3 5 -3 5 -4 5 -3 4 -4 5 -4 5 -4 4 -4 5 -5 4 -4 4 -5 4 -4 5 -5 4 -5 4 -53 -66 4 -3 3 -3 3 -3 4 -3 3 -3 3 -3 3 -3 2 -3 3 -3 2 -3 3 -3 2 -4 2 -3 2 -3 2 -3 2 -3 2 -3 1 -3 2 -3 1 -3 1 -3 1 -3 1 -3 1 -3 1 -3 1 -3 0 -3 1 -3 0 -3 0 -3 0 -3 1 -3 0 0zm-52 -94l43 -73 5 4 5 4 5 4 4 4 5 4 4 4 5 5 4 4 4 5 4 4 4 5 3 5 4 4 3 5 4 5 3 5 3 5 2 6 3 5 3 5 2 6 2 5 2 5 2 6 2 6 1 5 2 6 1 6 1 6 0 6 1 6 0 6 0 6 -84 0 -1 -3 0 -3 0 -4 0 -3 -1 -3 0 -3 -1 -3 -1 -3 -1 -3 -1 -3 -1 -3 -1 -3 -1 -3 -2 -3 -1 -3 -2 -3 -2 -3 -2 -3 -2 -3 -2 -3 -2 -3 -3 -3 -2 -3 -3 -3 -2 -3 -3 -3 -3 -3 -3 -3 -4 -3 -3 -3 -3 -3 -4 -3 5 3zm-5 -3c-18,-15 -21,-41 -6,-60 14,-18 41,-21 59,-6l-53 66zm-4593 -2749l4641 2679 -43 73 -4640 -2679 40 -74 2 1zm-42 73c-20,-11 -27,-37 -16,-58 12,-20 38,-27 58,-15l-42 73zm-216 -45l0 -84 0 0 9 0 9 0 9 0 9 1 8 0 9 1 9 1 9 0 8 1 9 1 8 2 9 1 8 1 8 2 8 1 8 2 8 2 8 2 8 2 8 2 8 2 7 2 8 3 7 2 8 3 7 3 7 2 7 3 7 3 7 3 7 3 7 4 -38 76 -5 -3 -6 -3 -5 -2 -6 -3 -6 -2 -6 -2 -6 -2 -6 -3 -6 -2 -7 -2 -6 -2 -7 -1 -6 -2 -7 -2 -7 -2 -7 -1 -7 -2 -7 -1 -7 -1 -7 -1 -7 -2 -8 -1 -7 -1 -7 0 -8 -1 -7 -1 -8 0 -8 -1 -8 0 -7 0 -8 -1 -8 0 0 0zm-216 45l-42 -73 2 -1 7 -4 7 -3 7 -3 7 -3 7 -3 7 -2 7 -3 7 -3 8 -2 7 -3 8 -2 8 -2 8 -2 7 -2 8 -2 8 -2 9 -2 8 -1 8 -2 8 -1 9 -1 8 -2 9 -1 8 -1 9 0 9 -1 8 -1 9 0 9 -1 9 0 9 0 9 0 0 84 -8 0 -8 1 -8 0 -7 0 -8 1 -8 0 -7 1 -8 1 -7 0 -8 1 -7 1 -7 2 -7 1 -8 1 -7 1 -7 2 -6 1 -7 2 -7 2 -7 2 -6 1 -7 2 -6 2 -6 2 -6 3 -6 2 -6 2 -6 2 -6 3 -6 2 -5 3 -5 2 2 -1zm-2 1c-21,11 -47,2 -57,-19 -10,-21 -2,-46 19,-56l38 75z"/>
   </g>
   <g>
    <polygon class="fil0" points="4384,4892 557,2682 4627,306 8454,2515 "/>
    <path id="1" class="fil1" d="M579 2646l3827 2209 -43 73 -3827 -2209 0 -73 43 0zm-43 73c-20,-12 -27,-38 -15,-58 12,-20 37,-27 58,-15l-43 73zm4112 -2377l-4069 2377 -43 -73 4070 -2377 42 0 0 73zm-42 -73c20,-12 46,-5 58,15 11,21 5,47 -16,58l-42 -73zm3827 2283l-3827 -2210 42 -73 3827 2210 0 73 -42 0zm42 -73c20,11 27,37 16,57 -12,21 -38,28 -58,16l42 -73zm-4112 2376l4070 -2376 42 73 -4069 2376 -43 0 0 -73zm43 73c-20,12 -46,5 -58,-15 -12,-20 -5,-46 15,-58l43 73z"/>
   </g>
   <path class="fil2" d="M2275 1369c-14,8 -33,13 -54,13 -42,0 -76,-20 -76,-44 0,-13 9,-24 23,-32l566 -327c14,-8 33,-13 54,-13 42,0 76,20 76,44 0,12 -8,23 -22,31l0 0 -567 328z"/>
   <ellipse class="fil2" cx="2033" cy="1446" rx="76" ry="44"/>
   <path class="fil0" d="M6816 3720c173,0 313,81 313,181 0,100 -140,181 -313,181 -173,0 -313,-81 -313,-181 0,-100 140,-181 313,-181z"/>
   <g style="clip-path:url(#id0)">
    <g>
     <g>
      <path id="1" class="fil1" d="M7171 4007l-84 0 0 0 -1 -5 0 -6 -2 -6 -1 -5 -3 -6 -3 -6 -3 -6 -4 -5 -5 -6 -5 -6 -6 -6 -6 -6 -7 -6 -8 -6 -8 -5 -9 -6 -9 -5 -10 -5 -11 -4 -11 -5 -11 -4 -12 -4 -12 -4 -12 -3 -13 -3 -14 -2 -13 -3 -14 -2 -14 -1 -15 -1 -14 -1 -15 0 0 -84 17 0 17 1 17 1 17 2 16 2 17 3 15 3 16 3 15 4 15 5 14 5 14 5 14 6 13 6 13 6 13 7 11 7 12 8 11 8 10 8 10 9 9 9 9 10 8 10 7 11 6 11 6 11 5 12 3 12 3 13 2 12 0 13 0 0zm-355 224l0 -84 0 0 15 0 14 -1 15 -1 14 -2 14 -1 13 -3 14 -2 13 -3 12 -3 12 -4 12 -4 11 -4 11 -5 11 -4 10 -5 9 -6 9 -5 8 -5 8 -6 7 -6 6 -6 6 -6 5 -6 5 -6 4 -5 3 -6 3 -6 3 -6 1 -6 2 -5 0 -6 1 -6 84 0 0 13 -2 13 -3 13 -3 12 -5 12 -6 11 -6 11 -7 11 -8 10 -9 10 -9 9 -10 9 -10 8 -11 8 -12 8 -11 7 -13 7 -13 6 -13 6 -14 6 -14 5 -14 5 -15 5 -15 3 -16 4 -15 3 -17 3 -16 2 -17 2 -17 1 -17 1 -17 0 0 0zm-355 -224l84 0 0 0 1 6 0 6 2 5 1 6 3 6 2 6 4 6 4 5 4 6 6 6 6 6 6 6 7 6 8 6 8 5 9 5 9 6 10 5 11 4 10 5 12 4 12 4 12 4 12 3 13 3 13 2 14 3 14 1 14 2 14 1 15 1 15 0 0 84 -17 0 -18 -1 -16 -1 -17 -2 -17 -2 -16 -3 -16 -3 -15 -4 -15 -3 -15 -5 -15 -5 -14 -5 -13 -6 -14 -6 -12 -6 -13 -7 -12 -7 -11 -8 -11 -8 -10 -8 -10 -9 -9 -9 -9 -10 -8 -10 -7 -11 -6 -11 -6 -11 -5 -12 -3 -12 -3 -13 -2 -13 0 -13 0 0zm355 -223l0 84 0 0 -15 0 -15 1 -14 1 -14 1 -14 2 -14 3 -13 2 -13 3 -12 3 -12 4 -12 4 -12 4 -10 5 -11 4 -10 5 -9 5 -9 6 -8 5 -8 6 -7 6 -6 6 -6 6 -6 6 -4 6 -4 5 -4 6 -2 6 -3 6 -1 5 -2 6 0 6 -1 5 -84 0 0 -13 2 -12 3 -13 3 -12 5 -12 6 -11 6 -11 7 -11 8 -10 9 -10 9 -9 10 -9 10 -8 11 -8 11 -8 12 -7 13 -7 12 -6 14 -6 13 -6 14 -5 15 -5 15 -5 15 -4 15 -3 16 -3 16 -3 17 -2 17 -2 16 -1 18 -1 17 0 0 0z"/>
     </g>
    </g>
   </g>
   <g>
    <path class="fil1" d="M7171 3901l-84 0 0 0 -1 -6 0 -5 -2 -6 -1 -6 -3 -5 -3 -6 -3 -6 -4 -6 -5 -6 -5 -6 -6 -6 -6 -6 -7 -5 -8 -6 -8 -6 -9 -5 -9 -5 -10 -5 -11 -5 -11 -4 -11 -5 -12 -3 -12 -4 -12 -3 -13 -3 -14 -3 -13 -2 -14 -2 -14 -1 -15 -1 -14 -1 -15 0 0 -84 17 0 17 1 17 1 17 2 16 2 17 2 15 3 16 4 15 4 15 4 14 5 14 5 14 6 13 6 13 7 13 6 11 8 12 7 11 8 10 9 10 9 9 9 9 10 8 10 7 10 6 11 6 12 5 12 3 12 3 12 2 13 0 13 0 0zm-355 224l0 -85 0 0 15 0 14 0 15 -1 14 -2 14 -2 13 -2 14 -3 13 -3 12 -3 12 -3 12 -4 11 -5 11 -4 11 -5 10 -5 9 -5 9 -5 8 -6 8 -6 7 -5 6 -6 6 -6 5 -6 5 -6 4 -6 3 -6 3 -6 3 -5 1 -6 2 -6 0 -5 1 -6 84 0 0 13 -2 13 -3 12 -3 12 -5 12 -6 12 -6 11 -7 10 -8 10 -9 10 -9 9 -10 9 -10 9 -11 8 -12 7 -11 8 -13 7 -13 6 -13 6 -14 6 -14 5 -14 5 -15 4 -15 4 -16 4 -15 3 -17 2 -16 3 -17 1 -17 2 -17 0 -17 1 0 0zm-355 -224l84 0 0 0 1 6 0 5 2 6 1 6 3 5 2 6 4 6 4 6 4 6 6 6 6 6 6 6 7 5 8 6 8 6 9 5 9 5 10 5 11 5 10 4 12 5 12 4 12 3 12 3 13 3 13 3 14 2 14 2 14 2 14 1 15 0 15 0 0 85 -17 -1 -18 0 -16 -2 -17 -1 -17 -3 -16 -2 -16 -3 -15 -4 -15 -4 -15 -4 -15 -5 -14 -5 -13 -6 -14 -6 -12 -6 -13 -7 -12 -8 -11 -7 -11 -8 -10 -9 -10 -9 -9 -9 -9 -10 -8 -10 -7 -10 -6 -11 -6 -12 -5 -12 -3 -12 -3 -12 -2 -13 0 -13 0 0zm355 -223l0 84 0 0 -15 0 -15 1 -14 1 -14 1 -14 2 -14 2 -13 3 -13 3 -12 3 -12 4 -12 3 -12 5 -10 4 -11 5 -10 5 -9 5 -9 5 -8 6 -8 6 -7 5 -6 6 -6 6 -6 6 -4 6 -4 6 -4 6 -2 6 -3 5 -1 6 -2 6 0 5 -1 6 -84 0 0 -13 2 -13 3 -12 3 -12 5 -12 6 -12 6 -11 7 -10 8 -10 9 -10 9 -9 10 -9 10 -9 11 -8 11 -7 12 -8 13 -6 12 -7 14 -6 13 -6 14 -5 15 -5 15 -4 15 -4 15 -4 16 -3 16 -2 17 -2 17 -2 16 -1 18 -1 17 0 0 0z"/>
   </g>
   <g>
    <path class="fil1" d="M46 2575c0,-23 19,-42 42,-42 24,0 43,19 43,42l-85 0zm0 333l0 -333 85 0 0 333 -85 0zm85 0c0,23 -19,42 -43,42 -23,0 -42,-19 -42,-42l85 0z"/>
   </g>
   <g>
    <path class="fil1" d="M4687 5255c0,-24 19,-43 42,-43 24,0 43,19 43,43l-85 0zm0 332l0 -332 85 0 0 332 -85 0zm85 0c0,24 -19,43 -43,43 -23,0 -42,-19 -42,-43l85 0z"/>
   </g>
   <g>
    <path class="fil1" d="M4909 5295c0,-23 19,-42 42,-42 24,0 43,19 43,42l-85 0zm0 333l0 -333 85 0 0 333 -85 0zm85 0c0,24 -19,43 -43,43 -23,0 -42,-19 -42,-43l85 0z"/>
   </g>
   <g>
    <path class="fil1" d="M5131 5255c0,-24 19,-43 43,-43 23,0 42,19 42,43l-85 0zm0 332l0 -332 85 0 0 332 -85 0zm85 0c0,24 -19,43 -42,43 -24,0 -43,-19 -43,-43l85 0z"/>
   </g>
   <polygon class="fil3" points="5781,2741 3744,1564 5868,338 7906,1514 "/>
   <polygon class="fil4" points="3306,3996 2409,3478 3345,2938 4242,3456 "/>
   <polygon class="fil5" points="3326,3467 2645,3074 3355,2664 4035,3057 "/>
   <polygon class="fil4" points="4508,1672 4226,1509 5883,565 6165,728 "/>
  </g>
 </g>
</svg>
