<?xml version="1.0" encoding="UTF-8"?>
<!DOCTYPE svg PUBLIC "-//W3C//DTD SVG 1.1//EN" "http://www.w3.org/Graphics/SVG/1.1/DTD/svg11.dtd">
<!-- Creator: CorelDRAW X7 -->
<svg xmlns="http://www.w3.org/2000/svg" xml:space="preserve" width="27.3472mm" height="60.1978mm" version="1.1" style="shape-rendering:geometricPrecision; text-rendering:geometricPrecision; image-rendering:optimizeQuality; fill-rule:evenodd; clip-rule:evenodd"
viewBox="0 0 2735 6020"
 xmlns:xlink="http://www.w3.org/1999/xlink">
 <defs>
  <style type="text/css">
   <![CDATA[
    .fil0 {fill:#FFF4F0}
    .fil1 {fill:#61003F;fill-rule:nonzero}
   ]]>
  </style>
 </defs>
 <g id="Layer_x0020_1">
  <metadata id="CorelCorpID_0Corel-Layer"/>
  <g id="_2548769496720">
   <g>
    <polygon class="fil0" points="2237,5591 1740,5878 995,4014 746,4157 1,4587 1,-1 2485,3153 1740,3583 1492,3727 "/>
    <path id="1" class="fil1" d="M1719 5841l496 -287 43 74 -497 286 -60 -20 18 -53zm42 73c-20,12 -46,5 -58,-15 -11,-20 -4,-46 16,-58l42 73zm-727 -1916l745 1864 -78 32 -746 -1865 19 -52 60 21zm-79 31c-8,-21 2,-46 24,-55 22,-8 46,2 55,24l-79 31zm-230 91l249 -143 42 73 -248 144 -43 -74 0 0zm43 74c-21,11 -47,4 -58,-16 -12,-20 -5,-46 15,-58l43 74zm-788 357l745 -431 43 74 -746 430 -63 -37 21 -36zm42 73c-20,12 -46,5 -57,-16 -12,-20 -5,-46 15,-57l42 73zm22 -4625l0 4588 -85 0 0 -4588 76 -27 9 27zm-85 0c0,-24 19,-43 42,-43 24,0 43,19 43,43l-85 0zm2493 3180l-2484 -3154 67 -53 2483 3155 -12 63 -54 -11zm66 -52c15,18 12,45 -7,60 -18,14 -45,11 -59,-8l66 -52zm-799 420l745 -430 42 73 -745 430 -42 -73 0 0zm42 73c-20,12 -46,5 -58,-15 -11,-21 -4,-47 16,-58l42 73zm-291 70l249 -143 42 73 -248 144 -61 -21 18 -53zm43 74c-21,11 -46,4 -58,-16 -12,-20 -5,-46 15,-58l43 74zm684 1843l-745 -1864 79 -32 745 1864 -18 53 -61 -21zm79 -32c9,22 -2,47 -24,55 -21,9 -46,-2 -55,-23l79 -32z"/>
   </g>
   <g>
    <polygon class="fil0" points="2485,5734 1988,6021 1243,4157 995,4300 250,4731 250,142 2733,3297 1988,3727 1740,3870 "/>
    <path id="1" class="fil1" d="M1967 5985l497 -287 42 73 -496 287 -61 -21 18 -52zm43 73c-21,12 -47,5 -58,-16 -12,-20 -5,-46 15,-57l43 73zm-728 -1917l746 1864 -79 32 -745 -1864 18 -53 60 21zm-78 32c-9,-22 2,-47 23,-55 22,-9 47,2 55,23l-78 32zm-230 91l248 -144 42 74 -248 143 -42 -73 0 0zm42 73c-20,12 -46,5 -58,-15 -12,-21 -5,-47 16,-58l42 73zm-787 357l745 -430 42 73 -745 430 -64 -36 22 -37zm42 73c-20,12 -46,5 -58,-15 -12,-20 -5,-46 16,-58l42 73zm21 -4625l0 4589 -85 0 0 -4589 76 -26 9 26zm-85 0c0,-23 19,-42 43,-42 23,0 42,19 42,42l-85 0zm2493 3181l-2484 -3155 67 -52 2484 3154 -12 63 -55 -10zm67 -53c14,19 11,45 -7,60 -19,14 -45,11 -60,-7l67 -53zm-800 420l745 -430 43 73 -746 430 -42 -73 0 0zm42 73c-20,12 -46,5 -57,-15 -12,-20 -5,-46 15,-58l42 73zm-290 71l248 -144 42 73 -248 144 -60 -21 18 -52zm42 73c-20,12 -46,5 -58,-16 -11,-20 -4,-46 16,-57l42 73zm685 1843l-745 -1864 78 -31 745 1864 -18 52 -60 -21zm78 -31c9,21 -2,46 -23,55 -22,8 -47,-2 -55,-24l78 -31z"/>
   </g>
   <g>
    <polygon class="fil0" points="1,4587 1,-1 250,142 250,4731 "/>
    <path id="1" class="fil1" d="M44 -1l0 4588 -85 0 0 -4588 63 -37 22 37zm-85 0c0,-24 19,-43 42,-43 24,0 43,19 43,43l-85 0zm270 180l-249 -144 42 -73 249 143 21 37 -63 37zm42 -74c20,12 27,38 15,58 -11,20 -37,27 -57,16l42 -74zm-64 4626l0 -4589 85 0 0 4589 -63 36 -22 -36zm85 0c0,23 -19,42 -42,42 -24,0 -43,-19 -43,-42l85 0zm-270 -180l249 143 -42 73 -249 -143 -21 -37 63 -36zm-42 73c-20,-12 -27,-38 -15,-58 11,-20 37,-27 57,-15l-42 73z"/>
   </g>
   <g>
    <polygon class="fil0" points="1740,5878 1088,4247 1243,4157 1988,6021 "/>
    <path id="1" class="fil1" d="M1127 4231l652 1631 -78 32 -652 -1632 18 -52 60 21zm-78 31c-9,-21 2,-46 23,-55 22,-8 47,2 55,24l-78 31zm215 -68l-155 89 -42 -73 155 -90 60 21 -18 53zm-42 -74c20,-11 46,-4 58,16 12,20 5,46 -16,58l-42 -74zm727 1917l-745 -1864 78 -32 746 1864 -61 53 -18 -21zm79 -32c8,22 -2,47 -24,55 -22,9 -46,-1 -55,-23l79 -32zm-267 -164l248 144 -42 73 -248 -144 -18 -20 60 -53zm-42 73c-20,-11 -27,-37 -16,-57 12,-21 38,-28 58,-16l-42 73z"/>
   </g>
  </g>
 </g>
</svg>
