<?xml version="1.0" encoding="UTF-8"?>
<!DOCTYPE svg PUBLIC "-//W3C//DTD SVG 1.1//EN" "http://www.w3.org/Graphics/SVG/1.1/DTD/svg11.dtd">
<!-- Creator: CorelDRAW X7 -->
<svg xmlns="http://www.w3.org/2000/svg" xml:space="preserve" width="91.4398mm" height="68.2412mm" version="1.1" style="shape-rendering:geometricPrecision; text-rendering:geometricPrecision; image-rendering:optimizeQuality; fill-rule:evenodd; clip-rule:evenodd"
viewBox="0 0 9144 6824"
 xmlns:xlink="http://www.w3.org/1999/xlink">
 <defs>
  <style type="text/css">
   <![CDATA[
    .str9 {stroke:#61003F;stroke-width:84.66;stroke-linecap:round;stroke-linejoin:round}
    .str0 {stroke:#61003F;stroke-width:84.67;stroke-linecap:round;stroke-linejoin:round}
    .str8 {stroke:#61003F;stroke-width:84.67;stroke-linecap:round;stroke-linejoin:round}
    .str6 {stroke:#61003F;stroke-width:84.67;stroke-linecap:round;stroke-linejoin:round}
    .str1 {stroke:#61003F;stroke-width:84.67;stroke-linecap:round;stroke-linejoin:round}
    .str7 {stroke:#61003F;stroke-width:84.67;stroke-linecap:round;stroke-linejoin:round}
    .str3 {stroke:#61003F;stroke-width:84.69;stroke-linecap:round;stroke-linejoin:round}
    .str5 {stroke:#61003F;stroke-width:84.69;stroke-linecap:round;stroke-linejoin:round}
    .str2 {stroke:#61003F;stroke-width:84.69;stroke-linecap:round;stroke-linejoin:round}
    .str4 {stroke:#61003F;stroke-width:84.69;stroke-linecap:round;stroke-linejoin:round}
    .fil2 {fill:none}
    .fil0 {fill:#61003F}
    .fil1 {fill:#FFF4F0}
    .fil3 {fill:#61003F;fill-rule:nonzero}
   ]]>
  </style>
 </defs>
 <g id="Layer_x0020_1">
  <metadata id="CorelCorpID_0Corel-Layer"/>
  <g id="_2548765590912">
   <polygon class="fil0 str0" points="5675,1733 5675,566 6762,1159 6762,2370 "/>
   <polygon class="fil1 str1" points="968,4451 968,3283 2055,3876 2055,5088 "/>
   <path class="fil1 str2" d="M973 4460c-601,-349 -973,-830 -973,-1362 0,-204 55,-402 157,-587 163,295 444,558 811,772l0 0 0 1168 5 9zm-814 -1951c25,-46 54,-91 85,-136 -31,45 -60,90 -85,136zm115 -178c25,-33 51,-65 79,-97 -28,32 -54,64 -79,97zm184 -209c17,-17 35,-34 53,-50 -18,16 -36,33 -53,50z"/>
   <polygon class="fil1" points="0,2194 156,2201 156,2539 177,2566 156,2602 156,3100 18,3091 "/>
   <path class="fil0 str3" d="M3322 -1c919,0 1752,217 2353,567l0 1174c-601,-350 -1434,-567 -2353,-567 -1482,0 -2737,562 -3165,1338 -102,-185 -157,-382 -157,-587 0,-1063 1487,-1925 3322,-1925zm-2811 2952c-18,-16 -36,-33 -53,-50 17,17 35,34 53,50zm-128 -128c-39,-43 -75,-87 -109,-131 34,44 70,88 109,131zm-139 -173c-31,-45 -60,-90 -85,-136 25,46 54,91 85,136z"/>
   <line class="fil2 str4" x1="0" y1="1924" x2="0" y2= "3098" />
   <line class="fil2 str5" x1="968" y1="3283" x2="968" y2= "4451" />
   <line class="fil2 str5" x1="5675" y1="566" x2="5675" y2= "1747" />
   <path class="fil1 str6" d="M3203 5501c-338,195 -677,241 -935,92 -259,-149 -388,-465 -388,-856 0,-389 128,-853 386,-1299 257,-446 595,-790 932,-984l0 -1 2640 -1523 2 -1c338,-196 676,-242 935,-93 258,150 388,466 388,856 0,390 -129,854 -386,1300 -258,446 -595,789 -933,984l-2 1 0 1 -2636 1521 -3 2z"/>
   <polygon class="fil1" points="2266,3438 6775,836 8756,1980 4249,6737 2268,5593 "/>
   <line class="fil2 str1" x1="2266" y1="3438" x2="4247" y2= "4582" />
   <line class="fil2 str1" x1="1880" y1="4737" x2="3861" y2= "5881" />
   <line class="fil2 str1" x1="2268" y1="5593" x2="4249" y2= "6737" />
   <line class="fil2 str1" x1="6654" y1="782" x2="8756" y2= "1980" />
   <path class="fil1 str7" d="M4854 6454c-338,195 -677,242 -935,92 -259,-149 -388,-465 -388,-856 0,-389 128,-853 386,-1299 257,-446 595,-789 932,-984l0 0 2640 -1524 2 -1c338,-195 676,-242 935,-92 258,149 388,465 388,856 0,389 -129,853 -386,1299 -258,446 -595,789 -933,984l-2 2 0 0 -2636 1521 -3 2z"/>
   <path class="fil1 str8" d="M5184 6645c-338,195 -677,241 -935,92 -259,-149 -388,-465 -388,-856 0,-390 128,-854 386,-1299 257,-446 595,-790 932,-984l0 -1 2640 -1524 2 -1c338,-195 677,-241 935,-92 259,150 388,466 388,856 0,390 -129,854 -386,1300 -257,446 -595,789 -932,984l-3 1 0 0 -2635 1522 -4 2z"/>
   <line class="fil2 str1" x1="6499" y1="2835" x2="6502" y2= "5884" />
   <g>
    <path class="fil1" d="M4118 2658c157,0 283,73 283,164 0,90 -126,164 -283,164 -156,0 -282,-74 -282,-164 0,-91 126,-164 282,-164z"/>
    <path id="1" class="fil3" d="M4444 2822l-85 0 0 0 0 -5 -1 -5 -1 -4 -1 -5 -2 -5 -3 -5 -3 -5 -3 -5 -4 -5 -5 -6 -5 -5 -6 -5 -6 -5 -7 -5 -7 -5 -8 -5 -8 -4 -9 -5 -9 -4 -10 -4 -10 -4 -11 -3 -10 -3 -12 -3 -11 -3 -12 -2 -12 -2 -13 -2 -12 -1 -13 -1 -13 -1 -14 0 0 -84 16 0 16 1 15 1 15 1 15 2 15 3 15 3 14 3 14 4 13 4 13 4 13 5 13 5 12 5 11 6 12 7 11 6 10 7 10 8 10 7 9 9 8 8 8 9 7 9 7 10 6 10 5 11 5 11 3 11 3 12 1 12 1 12 0 0zm-326 206l0 -84 0 0 14 0 13 -1 13 -1 12 -1 13 -2 12 -2 12 -2 11 -3 12 -3 10 -3 11 -4 10 -3 10 -4 9 -4 9 -5 8 -4 8 -5 7 -5 7 -5 6 -5 6 -5 5 -6 5 -5 4 -5 3 -5 3 -5 3 -5 2 -5 1 -5 1 -5 1 -4 0 -5 85 0 -1 12 -1 12 -3 12 -3 11 -5 11 -5 10 -6 11 -7 9 -7 10 -8 9 -8 8 -9 8 -10 8 -10 8 -10 7 -11 6 -12 6 -11 6 -12 6 -13 5 -13 5 -13 4 -13 4 -14 4 -14 3 -15 3 -15 2 -15 2 -15 2 -15 1 -16 1 -16 0 0 0zm-325 -206l85 0 0 0 0 5 1 4 1 5 1 5 2 5 3 5 3 5 3 5 4 5 5 5 5 6 6 5 6 5 7 5 7 5 8 5 8 4 9 5 9 4 10 4 10 3 10 4 11 3 11 3 12 3 12 2 12 2 12 2 13 1 13 1 13 1 13 0 0 84 -15 0 -16 -1 -15 -1 -16 -2 -15 -2 -14 -2 -15 -3 -14 -3 -14 -4 -13 -4 -13 -4 -13 -5 -13 -5 -12 -6 -12 -6 -11 -6 -11 -6 -10 -7 -10 -8 -10 -8 -9 -8 -8 -8 -8 -9 -7 -10 -7 -9 -6 -11 -5 -10 -5 -11 -3 -11 -3 -12 -1 -12 -1 -12 0 0zm325 -206l0 84 0 0 -13 0 -13 1 -13 1 -13 1 -12 2 -12 2 -12 2 -12 3 -11 3 -11 3 -10 3 -10 4 -10 4 -9 4 -9 5 -8 4 -8 5 -7 5 -7 5 -6 5 -6 5 -5 5 -5 6 -4 5 -3 5 -3 5 -3 5 -2 5 -1 5 -1 4 -1 5 0 5 -85 0 1 -12 1 -12 3 -12 3 -11 5 -11 5 -11 6 -10 7 -10 7 -9 8 -9 8 -8 9 -9 10 -7 10 -8 10 -7 11 -6 11 -7 12 -6 12 -5 13 -5 13 -5 13 -4 13 -4 14 -4 14 -3 15 -3 14 -3 15 -2 16 -1 15 -1 16 -1 15 0 0 0z"/>
   </g>
   <line class="fil2 str9" x1="6812" y1="3063" x2="7765" y2= "2513" />
   <line class="fil2 str9" x1="6812" y1="3200" x2="8003" y2= "2513" />
   <line class="fil2 str9" x1="6812" y1="3338" x2="7527" y2= "2925" />
   <line class="fil2 str9" x1="6812" y1="3476" x2="7884" y2= "2857" />
  </g>
 </g>
</svg>
