<?xml version="1.0" encoding="UTF-8"?>
<!DOCTYPE svg PUBLIC "-//W3C//DTD SVG 1.1//EN" "http://www.w3.org/Graphics/SVG/1.1/DTD/svg11.dtd">
<!-- Creator: CorelDRAW X7 -->
<svg xmlns="http://www.w3.org/2000/svg" xml:space="preserve" width="1000px" height="1000px" version="1.1" style="shape-rendering:geometricPrecision; text-rendering:geometricPrecision; image-rendering:optimizeQuality; fill-rule:evenodd; clip-rule:evenodd"
viewBox="0 0 2737 2804"
 xmlns:xlink="http://www.w3.org/1999/xlink">
 <defs>

  <style type="text/css">
   <![CDATA[
    .fil2 {fill:#FEFEFE;}
    .fil0 {fill:#FEFEFE;fill-rule:nonzero}
    .fil1 {fill:url(#id0)}
   ]]>
   @keyframes light-pulse {
   10%   { fill: #FFFFFF; }
  20%   { fill: #EEEEEE; }
  30%   { fill: #DDDDDD; }
  100% { fill: #FFFFFF; }
}



@-webkit-keyframes light-pulse {
  10%   { fill: #FFFFFF; }
  20%   { fill: #EEEEEE; }
  30%   { fill: #DDDDDD; }
  100% { fill: #FFFFFF; }
}
svg:hover .fil0,svg:hover .fil2{
  animation: light-pulse 1ms infinite;
}
.fil1{
  transition: all 1s ease-in-out;
}
.fil1:hover{
  fill: url(#id1);
}

  
  </style>
  <linearGradient id="id0" gradientUnits="userSpaceOnUse" x1="882.091" y1="2341.89" x2="1635.81" y2="525.925">
   <stop offset="0" style="stop-opacity:1; stop-color:#A8518A"/>
   <stop offset="1" style="stop-opacity:1; stop-color:#DC6038"/>
  </linearGradient>
   <linearGradient id="id1" gradientUnits="userSpaceOnUse" x1="600.091" y1="2500.89" x2="1535.81" y2="725.925">
    <stop offset="0" style="stop-opacity:1; stop-color:#A8518A"/>
   <stop offset="1" style="stop-opacity:1; stop-color:#DC6038"/>
  </linearGradient>
 </defs>
 <g id="Layer_x0020_1">
  <metadata id="CorelCorpID_0Corel-Layer"/>
  <path class="fil0" d="M43 2802c15,0 30,-8 37,-23l320 -652 2283 671c15,4 34,-4 45,-15 11,-11 11,-30 4,-45l-132 -275c-3,-11 -15,-19 -26,-23l-2039 -598 64 -124 1817 534c15,4 34,0 45,-15 11,-11 11,-30 8,-46l-136 -274c-4,-11 -15,-19 -26,-23l-1572 -459 64 -128 1350 399c15,4 34,0 45,-15 11,-11 15,-31 8,-46l-794 -1622c-7,-12 -23,-23 -38,-23 -18,0 -33,11 -41,23l-493 1009c-11,22 0,49 19,60 23,7 49,0 60,-23l455 -929 711 1457 -1294 -380c-18,-8 -41,3 -48,22l-102 203c-4,12 -4,27 0,38 4,11 15,19 26,23l1603 470 82 170 -1760 -520c-19,-4 -41,4 -49,22l-101 204c-4,11 -8,27 0,38 3,11 15,19 26,22l2069 610 82 166 -2226 -652c-19,-7 -42,4 -53,23l-331 685c-11,19 -4,46 19,57 8,4 11,4 19,4z"/>
  <polygon class="fil1" points="1545,64 2045,1051 2095,2804 423,2798 "/>
  <polygon class="fil2" points="766,1909 2103,2302 2083,2387 753,1995 "/>
  <polygon class="fil2" points="939,1495 2076,1827 2077,1918 917,1577 "/>
  <polygon class="fil2" points="1489,188 2060,1356 2064,1562 1442,287 "/>
 </g>
</svg>
