<?xml version="1.0" encoding="UTF-8"?>
<!DOCTYPE svg PUBLIC "-//W3C//DTD SVG 1.1//EN" "http://www.w3.org/Graphics/SVG/1.1/DTD/svg11.dtd">
<!-- Creator: CorelDRAW X7 -->
<svg xmlns="http://www.w3.org/2000/svg" xml:space="preserve" width="91.4398mm" height="22.6906mm" version="1.1" style="shape-rendering:geometricPrecision; text-rendering:geometricPrecision; image-rendering:optimizeQuality; fill-rule:evenodd; clip-rule:evenodd"
viewBox="0 0 9144 2269"
 xmlns:xlink="http://www.w3.org/1999/xlink">
 <defs>
  <style type="text/css">
   <![CDATA[
    .fil2 {fill:black}
    .fil0 {fill:black;fill-rule:nonzero}
    .fil1 {fill:url(#id0)}
   ]]>
  </style>
  <linearGradient id="id0" gradientUnits="userSpaceOnUse" x1="714.18" y1="1895.55" x2="1324.42" y2="425.27">
   <stop offset="0" style="stop-opacity:1; stop-color:#A8518A"/>
   <stop offset="1" style="stop-opacity:1; stop-color:#DC6038"/>
  </linearGradient>
 </defs>
 <g id="Layer_x0020_1">
  <metadata id="CorelCorpID_0Corel-Layer"/>
  <g id="_2548765636736">
   <path class="fil0" d="M35 2268c12,0 24,-6 30,-18l259 -529 1848 544c12,3 28,-3 37,-12 9,-9 9,-25 3,-37l-107 -223c-3,-9 -12,-15 -21,-18l-1650 -484 51 -101 1471 433c12,3 28,0 37,-12 9,-9 9,-25 6,-37l-110 -223c-3,-9 -12,-15 -21,-18l-1273 -372 52 -103 1093 323c12,3 27,0 36,-12 10,-9 13,-25 7,-37l-643 -1314c-6,-9 -18,-19 -30,-19 -16,0 -28,10 -34,19l-399 817c-9,18 0,39 15,49 19,6 40,0 49,-19l369 -752 575 1179 -1047 -307c-16,-7 -34,3 -40,18l-82 164c-3,9 -3,22 0,31 3,9 12,15 21,18l1297 381 67 137 -1425 -421c-15,-3 -33,3 -39,19l-83 165c-3,9 -6,21 0,30 3,9 13,15 22,18l1674 494 67 134 -1802 -527c-15,-6 -34,3 -43,18l-268 555c-9,15 -3,37 15,46 7,3 10,3 16,3z"/>
   <polygon class="fil1" points="1251,51 1655,850 1696,2270 343,2265 "/>
   <polygon class="fil2" points="620,1545 1703,1863 1686,1932 610,1614 "/>
   <polygon class="fil2" points="760,1209 1681,1478 1682,1552 742,1276 "/>
   <polygon class="fil2" points="1205,151 1668,1097 1671,1264 1168,232 "/>
   <path class="fil0" d="M2701 1249c-15,27 -33,49 -55,65 -25,19 -53,32 -85,40 -32,7 -66,7 -103,1 -37,-7 -63,-22 -79,-45 -17,-22 -25,-53 -24,-92 2,-32 15,-58 39,-78 20,-16 49,-29 85,-38 27,-7 58,-11 92,-13 27,-2 54,-2 81,-2 20,1 41,2 63,4 6,1 11,1 17,2l0 23 -1 24 1 24 -4 15c-7,26 -16,50 -27,70zm2651 435l2429 0 0 51 -2429 0 0 -51zm-3072 0l2693 0 0 51 -2693 0 0 -51zm538 -250c8,0 12,-4 11,-13 -6,-46 -11,-90 -14,-132 -5,-57 -7,-107 -7,-149 0,-14 0,-31 1,-49l0 -39 0 -40c-1,-29 -3,-55 -7,-78 -9,-58 -29,-103 -61,-136 -42,-43 -103,-64 -184,-64 -57,0 -110,11 -158,33 -17,8 -33,17 -49,27 -5,4 -11,9 -16,13 -5,3 -9,6 -12,10 -6,5 -6,11 0,16l40 37c5,4 10,4 14,0 3,-2 6,-5 9,-7 4,-4 9,-7 13,-9 12,-8 24,-15 38,-21 36,-15 77,-23 121,-23 59,0 102,14 129,41 30,31 46,87 47,169l0 0 -12 -1c-12,-1 -23,-1 -31,-1 -12,-1 -24,-2 -36,-2 -30,-1 -58,0 -87,1 -39,3 -74,8 -104,15 -47,12 -85,30 -114,53 -21,17 -36,35 -47,57 -11,21 -18,45 -20,72 -3,56 9,103 35,141 15,20 35,37 58,50 21,11 43,19 70,23 46,8 91,7 133,-3 43,-10 81,-29 112,-55 19,-15 36,-33 51,-54 3,34 7,70 11,109 1,6 5,9 12,9l54 0zm523 -75c-75,0 -139,-27 -193,-81 -54,-54 -81,-118 -81,-193 0,-76 27,-141 81,-194 54,-54 118,-81 193,-81 76,0 140,27 194,81 54,53 80,118 80,194 0,75 -26,139 -80,193 -54,54 -118,81 -194,81zm38 -622c-62,-7 -121,2 -177,27 -53,23 -98,57 -135,103l0 -575c0,-8 -3,-12 -11,-12l-53 0c-8,0 -11,4 -11,12l0 1131c0,7 3,11 11,11l53 0c8,0 11,-4 11,-11l0 -122c33,42 73,74 120,97 48,24 100,36 154,36 51,0 99,-10 145,-31 44,-20 82,-48 115,-85 33,-36 58,-78 72,-124 17,-49 22,-99 16,-150 -9,-81 -43,-150 -102,-208 -58,-58 -128,-91 -208,-99zm1124 659c-1,-48 -1,-107 -1,-179 0,-33 0,-63 0,-87 0,-34 0,-67 -1,-98l0 -13 0 -14c0,-10 -1,-20 -3,-30 -3,-20 -9,-39 -16,-58 -15,-39 -38,-73 -69,-101 -30,-29 -64,-50 -104,-63 -19,-6 -38,-11 -58,-13l-8 -1 -7 0c-3,0 -5,0 -8,0l-6 0c-10,-1 -20,-1 -30,0 -37,4 -72,15 -105,33 -30,15 -55,36 -78,61l-5 7 0 -550c0,-7 -4,-11 -12,-11l-53 0c-7,0 -11,4 -11,11l0 1130c0,7 4,11 11,11l53 0c8,0 12,-4 12,-11l0 -367 0 0 1 -33c0,-2 0,-7 0,-13l1 -5c0,-2 0,-5 1,-7 0,-6 1,-12 2,-17 3,-17 9,-32 16,-47 9,-19 21,-37 35,-53 17,-18 37,-34 60,-45 24,-13 51,-21 78,-23 8,-1 15,-1 22,-1l7 1c2,0 4,0 5,0l5 0 6 0c15,2 29,6 43,11 30,9 56,25 78,47 22,22 39,47 50,76 6,14 9,28 11,42 2,7 2,15 3,23l0 10 0 13c0,75 0,136 -1,185 0,72 0,131 0,179l0 27c0,7 3,11 11,11l54 0c7,0 11,-4 11,-11l0 -27zm240 38c-7,0 -11,-4 -11,-11l0 -676c0,-7 4,-11 11,-11l53 0c8,0 12,4 12,11l0 676c0,7 -4,11 -12,11l-53 0zm82 -922c0,15 -5,28 -16,39 -11,11 -24,16 -39,16 -16,0 -29,-5 -39,-16 -10,-11 -16,-24 -16,-39 0,-15 6,-28 16,-38 10,-11 23,-17 39,-17 15,0 28,6 39,17 11,10 16,23 16,38zm364 1220c-1,5 -5,7 -9,7l-58 0c-5,0 -8,-1 -10,-4 -2,-4 -2,-7 -1,-11l116 -288 -286 -689c-1,-4 -1,-8 1,-11 2,-3 5,-5 9,-5l59 0c5,0 8,2 10,7l247 597 240 -597c3,-5 6,-7 11,-7l58 0c4,0 6,2 9,5 2,3 2,6 1,10l-397 986zm902 -483c-15,27 -33,49 -55,65 -24,19 -53,32 -85,40 -32,7 -66,7 -102,1 -37,-7 -64,-22 -80,-45 -17,-22 -24,-53 -23,-92 1,-32 14,-58 38,-78 21,-16 49,-29 86,-38 27,-7 57,-11 91,-13 27,-2 54,-2 82,-2 19,1 40,2 63,4 5,1 11,1 16,2l0 23 0 24 0 24 -4 15c-6,26 -16,50 -27,70zm117 185c8,0 12,-4 11,-13 -6,-46 -10,-90 -14,-132 -4,-57 -7,-107 -7,-149 0,-14 0,-31 1,-49l0 -39 0 -40c-1,-29 -3,-55 -6,-78 -9,-58 -30,-103 -62,-136 -41,-43 -103,-64 -184,-64 -57,0 -110,11 -158,33 -17,8 -33,17 -48,27 -6,4 -12,9 -17,13 -4,3 -8,6 -12,10 -6,5 -6,11 0,16l40 37c5,4 10,4 15,0 2,-2 5,-5 8,-7 5,-4 9,-7 13,-9 12,-8 25,-15 38,-21 37,-15 77,-23 121,-23 60,0 103,14 130,41 30,31 45,87 46,169l0 0 -12 -1c-12,-1 -22,-1 -30,-1 -13,-1 -25,-2 -37,-2 -29,-1 -58,0 -87,1 -39,3 -74,8 -104,15 -47,12 -85,30 -114,53 -20,17 -36,35 -46,57 -12,21 -18,45 -21,72 -3,56 9,103 35,141 16,20 35,37 59,50 20,11 43,19 69,23 47,8 91,7 133,-3 43,-10 81,-29 113,-55 18,-15 35,-33 50,-54 3,34 7,70 12,109 1,6 5,9 11,9l54 0zm752 -38c0,-47 0,-106 -1,-177 0,-12 0,-26 0,-42l0 -21 0 -23c0,-19 0,-35 0,-47 0,-17 0,-34 0,-48l0 -26c0,-10 -1,-19 -2,-29 -3,-20 -7,-39 -13,-58 -13,-39 -34,-73 -63,-103 -29,-29 -62,-51 -102,-66 -18,-7 -37,-12 -57,-14l-7 -1 -8 -1 -7 -1c-3,0 -6,0 -8,0l-6 0 -7 0 -7 0 -8 1c-37,3 -72,13 -105,29 -29,16 -55,36 -78,60l-4 6 0 -92c0,-7 -4,-11 -12,-11l-53 0c-8,0 -11,4 -11,11l0 680c0,7 3,11 11,11l53 0c8,0 12,-4 12,-11l0 -391 1 -18c0,-3 0,-7 0,-12l0 -6 1 -7c1,-6 1,-12 2,-18 4,-15 10,-30 17,-45 9,-19 20,-36 34,-51 17,-18 37,-33 59,-44 24,-12 50,-19 78,-21l5 0 6 0 2 0 3 0 6 0c1,0 3,0 6,0l4 1 5 1 6 1c15,2 29,5 43,10 28,11 53,28 74,49 20,22 36,48 45,77 5,14 8,28 10,42 1,7 1,14 1,22l0 25c0,29 0,61 -1,95 0,14 0,29 0,44l0 22 0 20c0,71 0,130 -1,177l0 27c0,7 4,11 11,11l55 0c7,0 11,-4 11,-11l0 -27zm519 -56c-4,-5 -9,-6 -15,-3 -36,24 -69,28 -100,13 -34,-17 -51,-51 -51,-101l0 -438 111 0c7,0 11,-4 11,-11l0 -54c0,-8 -4,-12 -11,-12l-111 0 0 -198c0,-8 -4,-12 -11,-12l-54 0c-7,0 -11,4 -11,12l1 198 -98 0c-7,0 -11,4 -11,12l0 54c0,7 4,11 11,11l98 0 0 438c0,38 8,72 24,102 16,30 39,52 68,66 22,11 46,17 71,17 37,0 73,-12 108,-35 6,-4 7,-9 2,-16l-32 -43zm504 -599c-14,-2 -29,-3 -44,-3 -79,0 -146,29 -201,87l0 -81c0,-7 -3,-11 -10,-11l-54 0c-8,0 -11,4 -11,11l0 679c0,7 3,11 11,11l54 0c7,0 10,-4 10,-11l0 -409c0,-55 20,-103 59,-142 39,-39 87,-59 142,-59 10,0 20,1 30,3 7,1 11,-2 13,-9l10 -52c2,-8 -1,-13 -9,-14zm114 693c-7,0 -11,-4 -11,-11l0 -676c0,-7 4,-11 11,-11l53 0c8,0 12,4 12,11l0 676c0,7 -4,11 -12,11l-53 0zm82 -922c0,15 -5,28 -16,39 -11,11 -24,16 -39,16 -16,0 -29,-5 -39,-16 -10,-11 -16,-24 -16,-39 0,-15 6,-28 16,-38 10,-11 23,-17 39,-17 15,0 28,6 39,17 11,10 16,23 16,38zm454 494l258 -249c4,-3 5,-7 3,-12 -2,-5 -5,-7 -10,-7l-76 0c-2,0 -5,1 -7,3l-297 283 0 -730c0,-7 -4,-11 -11,-11l-53 0c-8,0 -12,4 -12,11l0 1129c0,7 4,11 12,11l53 0c7,0 11,-4 11,-11l0 -293 74 -72 308 372c3,3 5,4 9,4l70 0c4,0 8,-2 10,-6 2,-5 1,-9 -2,-12l-340 -410zm429 428c-7,0 -11,-4 -11,-11l0 -676c0,-7 4,-11 11,-11l54 0c7,0 11,4 11,11l0 676c0,7 -4,11 -11,11l-54 0zm82 -922c0,15 -5,28 -16,39 -11,11 -24,16 -39,16 -15,0 -28,-5 -38,-16 -11,-11 -16,-24 -16,-39 0,-15 5,-28 16,-38 10,-11 23,-17 38,-17 15,0 28,6 39,17 11,10 16,23 16,38z"/>
   <path class="fil0" d="M7997 1863l129 -192 0 -1c10,-17 15,-35 15,-55 0,-30 -10,-55 -31,-76 -21,-21 -47,-31 -76,-31 -23,0 -44,6 -63,20 -18,13 -31,31 -39,53 -1,2 0,4 3,4l39 12c3,1 4,0 5,-2 4,-11 11,-21 21,-28 10,-7 22,-11 34,-11 16,0 30,6 41,18 12,11 17,25 17,41 0,11 -2,21 -8,30l-175 261c-1,1 -1,2 0,4 1,1 2,2 3,2l239 0c2,0 3,-2 3,-4l0 -41c0,-3 -1,-4 -3,-4l-154 0z"/>
   <path id="1" class="fil0" d="M8430 1556c-42,0 -79,15 -109,45 -14,14 -25,30 -33,49 -8,19 -12,39 -12,60 0,42 15,79 45,109 14,14 31,25 49,33 19,8 39,12 60,12 43,0 79,-15 109,-45 14,-15 25,-31 33,-49 8,-19 12,-39 12,-60 0,-43 -15,-79 -45,-109 -14,-14 -30,-25 -49,-33 -19,-8 -39,-12 -60,-12zm0 356c-27,0 -53,-6 -79,-16 -24,-11 -45,-25 -64,-44 -18,-18 -33,-40 -43,-64 -10,-25 -16,-51 -16,-78 0,-28 6,-54 16,-79 10,-24 25,-45 43,-64 19,-19 40,-33 64,-43 26,-11 52,-16 79,-16 27,0 54,5 79,16 24,10 45,24 64,43 18,19 33,40 43,64 11,25 16,51 16,79 0,27 -5,53 -16,78 -10,24 -25,46 -43,64 -19,19 -40,33 -64,44 -25,10 -52,16 -79,16z"/>
   <path id="2" class="fil0" d="M8697 1566c-2,2 -2,4 0,5l29 30c1,1 3,1 5,0l16 -16 0 323c0,2 1,4 3,4l42 0c2,0 4,-2 4,-4l0 -396c0,-2 -2,-3 -4,-3l-37 0c-1,0 -2,0 -2,1l-56 56z"/>
   <path id="3" class="fil0" d="M9025 1864c-20,0 -37,-7 -51,-21 -14,-14 -21,-30 -21,-50 0,-20 7,-37 21,-51 14,-14 31,-21 51,-21 19,0 36,7 50,21 14,14 21,31 21,51 0,20 -7,36 -21,50 -14,14 -31,21 -50,21zm0 -309c16,0 30,6 41,17 12,12 17,26 17,42 0,16 -5,30 -17,41 -11,12 -25,18 -41,18 -17,0 -31,-6 -42,-18 -11,-11 -17,-25 -17,-41 0,-16 6,-30 17,-42 11,-11 25,-17 42,-17zm68 140c11,-10 21,-21 27,-35 7,-15 11,-30 11,-46 0,-29 -11,-54 -31,-75 -21,-21 -46,-31 -75,-31 -30,0 -55,10 -76,31 -20,21 -31,46 -31,75 0,16 4,31 11,46 6,14 16,25 27,35 -15,11 -27,25 -36,42 -10,18 -14,36 -14,56 0,32 11,60 35,84 23,23 51,35 84,35 32,0 60,-12 84,-35 23,-24 35,-52 35,-84 0,-20 -5,-39 -14,-56 -10,-17 -22,-31 -37,-42z"/>
  </g>
 </g>
</svg>
