<?xml version="1.0" encoding="UTF-8"?>
<!DOCTYPE svg PUBLIC "-//W3C//DTD SVG 1.1//EN" "http://www.w3.org/Graphics/SVG/1.1/DTD/svg11.dtd">
<!-- Creator: CorelDRAW X7 -->
<svg xmlns="http://www.w3.org/2000/svg" xml:space="preserve" width="58.1658mm" height="91.4398mm" version="1.1" style="shape-rendering:geometricPrecision; text-rendering:geometricPrecision; image-rendering:optimizeQuality; fill-rule:evenodd; clip-rule:evenodd"
viewBox="0 0 5817 9144"
 xmlns:xlink="http://www.w3.org/1999/xlink">
 <defs>
  <style type="text/css">
   <![CDATA[
    .fil0 {fill:#61003F}
   ]]>
  </style>
 </defs>
 <g id="Layer_x0020_1">
  <metadata id="CorelCorpID_0Corel-Layer"/>
  <g id="_2548769550832">
   <path class="fil0" d="M5815 3106c0,-86 -28,-189 -85,-288 -58,-99 -133,-176 -208,-219 -75,-43 -150,-54 -207,-20 -58,33 -87,103 -87,190l0 471c0,86 29,190 86,289 57,99 132,175 207,218 76,44 151,54 208,21 58,-33 86,-104 86,-190l0 -472zm-164 -132c0,-38 -13,-84 -38,-127 -25,-44 -58,-78 -91,-97 -33,-19 -66,-23 -91,-9 -26,15 -38,46 -38,84l0 583 0 0 0 1c0,38 12,83 38,127 25,43 58,77 91,96 33,19 66,23 91,9 25,-15 38,-46 38,-84 0,-1 0,-2 0,-3l0 0 0 -580z"/>
   <polygon class="fil0" points="5029,2463 4864,2367 4730,2290 4730,2488 4864,2565 4864,3512 5029,3607 "/>
   <path class="fil0" d="M5155 1589c0,-87 -29,-190 -86,-289 -57,-99 -132,-176 -207,-219 -75,-43 -150,-53 -208,-20 -57,33 -86,103 -86,190l0 471c0,87 29,190 86,289 57,99 132,175 207,219 75,43 150,53 208,20 57,-33 86,-103 86,-190l0 -471zm-164 -133c0,-38 -13,-84 -38,-127 -25,-44 -58,-77 -91,-96 -33,-20 -66,-24 -92,-9 -25,14 -38,45 -38,83l0 583 0 0 0 1c0,38 13,83 38,127 25,43 58,77 91,96 33,19 66,23 92,9 25,-15 38,-46 38,-84 0,-1 0,-2 0,-3l0 0 0 -580z"/>
   <polygon class="fil0" points="4368,1254 4203,1159 4070,1082 4070,1279 4203,1356 4203,2303 4368,2399 "/>
   <polygon class="fil0" points="5595,1370 5430,1275 5297,1198 5297,1395 5430,1472 5430,2419 5595,2515 "/>
   <path class="fil0" d="M4599 3015c0,-87 -29,-190 -86,-289 -57,-99 -132,-175 -207,-219 -76,-43 -151,-53 -208,-20 -58,33 -86,103 -86,190l0 471c0,87 28,190 85,289 58,99 133,175 208,219 75,43 150,53 207,20 58,-33 87,-103 87,-190l0 -471zm-165 -133c0,-38 -12,-83 -38,-127 -25,-44 -58,-77 -91,-96 -33,-19 -66,-24 -91,-9 -25,14 -38,45 -38,83l0 583 0 0 0 1c0,38 13,83 38,127 25,43 58,77 91,96 33,19 66,24 91,9 26,-15 38,-45 38,-84 0,-1 0,-2 0,-3l0 0 0 -580z"/>
   <polygon class="fil0" points="5456,3920 5291,3825 5157,3748 5157,3945 5291,4022 5291,4969 5456,5065 "/>
   <path class="fil0" d="M5022 4362c0,-86 -29,-189 -86,-288 -57,-100 -132,-176 -207,-219 -75,-44 -151,-54 -208,-21 -58,34 -86,104 -86,191l0 471c0,86 28,189 85,289 58,99 133,175 208,218 75,44 150,54 207,21 58,-33 87,-104 87,-191l0 -471zm-165 -133c0,-38 -12,-83 -37,-127 -26,-43 -59,-77 -92,-96 -33,-19 -66,-23 -91,-9 -25,15 -38,46 -38,84l0 582 0 0 0 1c0,38 13,84 38,127 25,44 58,78 91,97 33,19 66,23 91,9 26,-15 38,-46 38,-84 0,-1 0,-2 0,-3l0 0 0 -581z"/>
   <path class="fil0" d="M4265 4013c0,-86 -29,-190 -86,-289 -57,-99 -132,-175 -207,-218 -75,-44 -150,-54 -208,-21 -57,33 -86,104 -86,190l0 472c0,86 29,189 86,288 57,99 132,176 207,219 75,43 150,54 208,20 57,-33 86,-103 86,-190l0 -471zm-164 -133c0,-38 -13,-83 -38,-127 -25,-43 -58,-77 -91,-96 -33,-19 -66,-23 -92,-9 -25,15 -38,46 -38,84l0 582 0 0 0 1c0,38 13,84 38,127 25,44 58,77 91,96 33,20 66,24 92,9 25,-14 38,-45 38,-83 0,-1 0,-2 -1,-4l1 0 0 -580z"/>
   <polygon class="fil0" points="3875,2151 3709,2056 3576,1979 3576,2176 3709,2253 3709,3200 3875,3296 "/>
   <path class="fil0" d="M3522 3629c0,-87 -29,-190 -86,-289 -57,-99 -132,-176 -207,-219 -75,-43 -151,-54 -208,-20 -57,33 -86,103 -86,190l0 471c0,87 28,190 86,289 57,99 132,175 207,218 75,44 150,54 208,21 57,-33 86,-104 86,-190l0 -471zm-165 -133c0,-38 -12,-84 -37,-127 -25,-44 -58,-77 -91,-96 -34,-20 -67,-24 -92,-9 -25,14 -38,45 -38,83l0 583 0 0 0 1c0,38 13,83 38,127 25,43 58,77 91,96 33,19 66,23 91,9 26,-15 38,-46 38,-84 0,-1 0,-2 0,-3l0 0 0 -580z"/>
   <path class="fil0" d="M5815 7186c0,-87 -28,-190 -85,-289 -58,-99 -133,-176 -208,-219 -75,-43 -150,-53 -207,-20 -58,33 -87,103 -87,190l0 471c0,87 29,190 86,289 57,99 132,175 207,219 76,43 151,53 208,20 58,-33 86,-103 86,-190l0 -471zm-164 -133c0,-38 -13,-84 -38,-127 -25,-44 -58,-77 -91,-96 -33,-19 -66,-24 -91,-9 -26,14 -38,45 -38,83l0 583 0 0 0 1c0,38 12,83 38,127 25,43 58,77 91,96 33,19 66,24 91,9 25,-15 38,-46 38,-84 0,-1 0,-2 0,-3l0 0 0 -580z"/>
   <polygon class="fil0" points="5029,6542 4864,6447 4730,6370 4730,6567 4864,6644 4864,7591 5029,7687 "/>
   <path class="fil0" d="M5155 5668c0,-87 -29,-190 -86,-289 -57,-99 -132,-175 -207,-219 -75,-43 -150,-53 -208,-20 -57,33 -86,103 -86,190l0 471c0,87 29,190 86,289 57,99 132,175 207,219 75,43 150,53 208,20 57,-33 86,-103 86,-190l0 -471zm-164 -133c0,-38 -13,-83 -38,-127 -25,-44 -58,-77 -91,-96 -33,-19 -66,-24 -92,-9 -25,14 -38,45 -38,83l0 583 0 0 0 1c0,38 13,83 38,127 25,44 58,77 91,96 33,19 66,24 92,9 25,-14 38,-45 38,-84 0,-1 0,-2 0,-3l0 0 0 -580z"/>
   <polygon class="fil0" points="4368,5333 4203,5238 4070,5161 4070,5358 4203,5435 4203,6383 4368,6478 "/>
   <polygon class="fil0" points="5595,5449 5430,5354 5297,5277 5297,5474 5430,5551 5430,6498 5595,6594 "/>
   <path class="fil0" d="M4599 7094c0,-87 -29,-190 -86,-289 -57,-99 -132,-175 -207,-218 -76,-44 -151,-54 -208,-21 -58,33 -86,104 -86,190l0 471c0,87 28,190 85,289 58,99 133,176 208,219 75,43 150,54 207,20 58,-33 87,-103 87,-190l0 -471zm-165 -133c0,-38 -12,-83 -38,-127 -25,-43 -58,-77 -91,-96 -33,-19 -66,-24 -91,-9 -25,15 -38,45 -38,84l0 582 0 0 0 1c0,38 13,84 38,127 25,44 58,77 91,96 33,19 66,24 91,9 26,-14 38,-45 38,-83 0,-1 0,-3 0,-4l0 0 0 -580z"/>
   <polygon class="fil0" points="5456,7999 5291,7904 5157,7827 5157,8024 5291,8101 5291,9049 5456,9144 "/>
   <path class="fil0" d="M5022 8442c0,-87 -29,-190 -86,-289 -57,-99 -132,-176 -207,-219 -75,-43 -151,-54 -208,-20 -58,33 -86,103 -86,190l0 471c0,87 28,190 85,289 58,99 133,175 208,218 75,44 150,54 207,21 58,-33 87,-104 87,-190l0 -471zm-165 -133c0,-38 -12,-84 -37,-127 -26,-44 -59,-77 -92,-96 -33,-20 -66,-24 -91,-9 -25,14 -38,45 -38,83l0 583 0 0 0 1c0,38 13,83 38,127 25,43 58,77 91,96 33,19 66,23 91,9 26,-15 38,-46 38,-84 0,-1 0,-2 0,-3l0 0 0 -580z"/>
   <path class="fil0" d="M4265 8092c0,-86 -29,-189 -86,-288 -57,-99 -132,-176 -207,-219 -75,-43 -150,-54 -208,-21 -57,34 -86,104 -86,191l0 471c0,86 29,190 86,289 57,99 132,175 207,218 75,44 150,54 208,21 57,-33 86,-104 86,-190l0 -472zm-164 -132c0,-39 -13,-84 -38,-127 -25,-44 -58,-78 -91,-97 -33,-19 -66,-23 -92,-9 -25,15 -38,46 -38,84l0 583 0 0 0 0c0,39 13,84 38,127 25,44 58,78 91,97 33,19 66,23 92,9 25,-15 38,-46 38,-84 0,-1 0,-2 -1,-3l1 0 0 -580z"/>
   <polygon class="fil0" points="3875,6230 3709,6135 3576,6058 3576,6255 3709,6332 3709,7279 3875,7375 "/>
   <path class="fil0" d="M3834 5122c0,-86 -28,-189 -86,-288 -57,-99 -132,-176 -207,-219 -75,-43 -150,-54 -208,-21 -57,34 -86,104 -86,191l0 471c0,86 29,190 86,289 57,99 132,175 207,218 75,44 151,54 208,21 57,-33 86,-104 86,-190l0 -472zm-164 -132c0,-39 -13,-84 -38,-127 -25,-44 -58,-78 -91,-97 -33,-19 -66,-23 -91,-9 -26,15 -38,46 -38,84l0 583 0 0 0 0c0,39 12,84 37,127 25,44 58,78 91,97 34,19 67,23 92,9 25,-15 38,-46 38,-84 0,-1 0,-2 0,-3l0 0 0 -580z"/>
   <path class="fil0" d="M3522 7708c0,-87 -29,-190 -86,-289 -57,-99 -132,-175 -207,-219 -75,-43 -151,-53 -208,-20 -57,33 -86,103 -86,190l0 471c0,87 28,190 86,289 57,99 132,175 207,219 75,43 150,53 208,20 57,-33 86,-103 86,-190l0 -471zm-165 -133c0,-38 -12,-83 -37,-127 -25,-44 -58,-77 -91,-96 -34,-19 -67,-24 -92,-9 -25,14 -38,45 -38,83l0 583 0 0 0 1c0,38 13,83 38,127 25,43 58,77 91,96 33,19 66,24 91,9 26,-14 38,-45 38,-84 0,-1 0,-2 0,-3l0 0 0 -580z"/>
   <path class="fil0" d="M3834 1043c0,-86 -28,-190 -86,-289 -57,-99 -132,-175 -207,-218 -75,-44 -150,-54 -208,-21 -57,33 -86,104 -86,190l0 472c0,86 29,189 86,288 57,99 132,176 207,219 75,43 151,54 208,20 57,-33 86,-103 86,-190l0 -471zm-164 -133c0,-38 -13,-83 -38,-127 -25,-43 -58,-77 -91,-96 -33,-19 -66,-23 -91,-9 -26,15 -38,46 -38,84l0 582 0 0 0 1c0,38 12,84 37,127 25,44 58,77 91,96 34,20 67,24 92,9 25,-14 38,-45 38,-83 0,-1 0,-2 0,-4l0 0 0 -580z"/>
   <path class="fil0" d="M2569 2593c0,-87 -28,-190 -85,-289 -58,-99 -133,-176 -208,-219 -75,-43 -150,-53 -207,-20 -58,33 -87,103 -87,190l0 471c0,87 29,190 86,289 57,99 132,175 207,219 76,43 151,53 208,20 58,-33 86,-103 86,-190l0 -471zm-164 -133c0,-38 -13,-84 -38,-127 -25,-44 -58,-77 -91,-96 -33,-19 -66,-24 -91,-9 -26,14 -38,45 -38,83l0 583 0 0 0 1c0,38 12,83 38,127 25,43 58,77 91,96 33,19 66,24 91,9 25,-15 38,-46 38,-84 0,-1 0,-2 0,-3l0 0 0 -580z"/>
   <polygon class="fil0" points="1783,1949 1618,1854 1484,1777 1484,1974 1618,2051 1618,2998 1783,3094 "/>
   <path class="fil0" d="M1909 1075c0,-87 -29,-190 -86,-289 -57,-99 -132,-175 -207,-219 -75,-43 -150,-53 -208,-20 -57,33 -86,103 -86,190l0 471c0,87 29,190 86,289 57,99 132,175 207,219 75,43 150,53 208,20 57,-33 86,-103 86,-190l0 -471zm-164 -133c0,-38 -13,-83 -38,-127 -25,-44 -58,-77 -91,-96 -33,-19 -66,-24 -92,-9 -25,14 -38,45 -38,83l0 583 0 0 0 1c0,38 13,83 38,127 25,44 58,77 91,96 33,19 66,24 92,9 25,-14 38,-45 38,-84 0,-1 0,-2 0,-3l0 0 0 -580z"/>
   <polygon class="fil0" points="1122,740 957,645 824,568 824,765 957,842 957,1790 1122,1885 "/>
   <polygon class="fil0" points="2349,856 2184,761 2051,684 2051,881 2184,958 2184,1905 2349,2001 "/>
   <path class="fil0" d="M1353 2501c0,-87 -29,-190 -86,-289 -57,-99 -132,-175 -207,-218 -76,-44 -151,-54 -208,-21 -58,33 -86,103 -86,190l0 471c0,87 28,190 85,289 58,99 133,176 208,219 75,43 150,54 207,20 58,-33 87,-103 87,-190l0 -471zm-165 -133c0,-38 -12,-83 -38,-127 -25,-43 -58,-77 -91,-96 -33,-19 -66,-24 -91,-9 -25,15 -38,45 -38,84l0 582 0 0 0 1c0,38 13,84 38,127 25,44 58,77 91,96 33,19 66,24 91,9 25,-14 38,-45 38,-83 0,-1 0,-3 0,-4l0 0 0 -580z"/>
   <polygon class="fil0" points="2210,3406 2045,3311 1911,3234 1911,3431 2045,3508 2045,4456 2210,4551 "/>
   <path class="fil0" d="M1776 3849c0,-87 -29,-190 -86,-289 -57,-99 -132,-176 -207,-219 -75,-43 -151,-54 -208,-20 -58,33 -86,103 -86,190l0 471c0,87 28,190 85,289 58,99 133,175 208,218 75,44 150,54 207,21 58,-33 87,-104 87,-190l0 -471zm-165 -133c0,-38 -12,-84 -37,-127 -26,-44 -59,-77 -92,-97 -33,-19 -66,-23 -91,-9 -25,15 -38,46 -38,84l0 583 0 0 0 1c0,38 13,83 38,127 25,43 58,77 91,96 33,19 66,23 91,9 26,-15 38,-46 38,-84 0,-1 0,-2 0,-3l0 0 0 -580z"/>
   <path class="fil0" d="M1019 3499c0,-86 -29,-189 -86,-288 -57,-100 -132,-176 -207,-219 -75,-43 -150,-54 -208,-21 -57,34 -86,104 -86,191l0 471c0,86 28,189 86,289 57,99 132,175 207,218 75,44 150,54 208,21 57,-33 86,-104 86,-190l0 -472zm-165 -132c1,-39 -12,-84 -37,-127 -25,-44 -58,-78 -91,-97 -33,-19 -66,-23 -92,-9 -25,15 -38,46 -38,84l0 582 0 0 0 1c0,39 13,84 38,127 25,44 58,78 91,97 33,19 66,23 92,9 25,-15 37,-46 37,-84 0,-1 0,-2 0,-3l0 0 0 -580z"/>
   <polygon class="fil0" points="2882,172 2717,77 2583,0 2583,197 2717,274 2717,1222 2882,1317 "/>
   <path class="fil0" d="M3031 4627c0,-87 -28,-190 -85,-289 -58,-99 -133,-175 -208,-219 -75,-43 -150,-53 -207,-20 -58,33 -87,103 -87,190l0 471c0,87 29,190 86,289 57,99 132,176 207,219 75,43 151,53 208,20 58,-33 86,-103 86,-190l0 -471zm-164 -133c0,-38 -13,-83 -38,-127 -25,-43 -58,-77 -91,-96 -33,-19 -66,-24 -91,-9 -26,15 -38,45 -38,84l0 582 0 0 0 1c0,38 12,83 37,127 26,44 59,77 92,96 33,19 66,24 91,9 25,-14 38,-45 38,-83 0,-2 0,-3 0,-4l0 0 0 -580z"/>
   <path class="fil0" d="M2569 6672c0,-87 -28,-190 -85,-289 -58,-99 -133,-175 -208,-219 -75,-43 -150,-53 -207,-20 -58,33 -87,103 -87,190l0 471c0,87 29,190 86,289 57,99 132,175 207,219 76,43 151,53 208,20 58,-33 86,-103 86,-190l0 -471zm-164 -133c0,-38 -13,-83 -38,-127 -25,-44 -58,-77 -91,-96 -33,-19 -66,-24 -91,-9 -26,14 -38,45 -38,84l0 582 0 0 0 1c0,38 12,83 38,127 25,44 58,77 91,96 33,19 66,24 91,9 25,-14 38,-45 38,-83 0,-2 0,-3 0,-4l0 0 0 -580z"/>
   <polygon class="fil0" points="1783,6028 1618,5933 1484,5856 1484,6053 1618,6130 1618,7078 1783,7173 "/>
   <path class="fil0" d="M1909 5154c0,-87 -29,-190 -86,-289 -57,-99 -132,-175 -207,-218 -75,-44 -150,-54 -208,-21 -57,33 -86,104 -86,190l0 471c0,87 29,190 86,289 57,99 132,176 207,219 75,43 150,54 208,20 57,-33 86,-103 86,-190l0 -471zm-164 -133c0,-38 -13,-83 -38,-127 -25,-43 -58,-77 -91,-96 -33,-19 -66,-24 -92,-9 -25,15 -38,46 -38,84l0 582 0 0 0 1c0,38 13,84 38,127 25,44 58,77 91,96 33,19 66,24 92,9 25,-14 38,-45 38,-83 0,-1 0,-3 0,-4l0 0 0 -580z"/>
   <polygon class="fil0" points="1122,4820 957,4724 824,4647 824,4844 957,4921 957,5869 1122,5964 "/>
   <polygon class="fil0" points="2349,4935 2184,4840 2051,4763 2051,4960 2184,5037 2184,5985 2349,6080 "/>
   <path class="fil0" d="M1353 6580c0,-86 -29,-189 -86,-289 -57,-99 -132,-175 -207,-218 -76,-44 -151,-54 -208,-21 -58,33 -86,104 -86,191l0 471c0,86 28,189 85,288 58,100 133,176 208,219 75,44 150,54 207,21 58,-34 87,-104 87,-191l0 -471zm-165 -133c0,-38 -12,-83 -38,-127 -25,-43 -58,-77 -91,-96 -33,-19 -66,-23 -91,-9 -25,15 -38,46 -38,84l0 582 0 0 0 1c0,38 13,84 38,127 25,44 58,77 91,97 33,19 66,23 91,9 25,-15 38,-46 38,-84 0,-1 0,-2 0,-3l0 0 0 -581z"/>
   <polygon class="fil0" points="2210,7486 2045,7390 1911,7313 1911,7510 2045,7587 2045,8535 2210,8630 "/>
   <path class="fil0" d="M1776 7928c0,-87 -29,-190 -86,-289 -57,-99 -132,-175 -207,-219 -75,-43 -151,-53 -208,-20 -58,33 -86,103 -86,190l0 471c0,87 28,190 85,289 58,99 133,175 208,219 75,43 150,53 207,20 58,-33 87,-103 87,-190l0 -471zm-165 -133c0,-38 -12,-84 -37,-127 -26,-44 -59,-77 -92,-96 -33,-19 -66,-24 -91,-9 -25,14 -38,45 -38,83l0 583 0 0 0 1c0,38 13,83 38,127 25,43 58,77 91,96 33,19 66,24 91,9 26,-15 38,-45 38,-84 0,-1 0,-2 0,-3l0 0 0 -580z"/>
   <path class="fil0" d="M1019 7579c0,-87 -29,-190 -86,-289 -57,-99 -132,-176 -207,-219 -75,-43 -150,-53 -208,-20 -57,33 -86,103 -86,190l0 471c0,87 28,190 86,289 57,99 132,175 207,218 75,44 150,54 208,21 57,-33 86,-103 86,-190l0 -471zm-165 -133c1,-38 -12,-84 -37,-127 -25,-44 -58,-77 -91,-96 -33,-20 -66,-24 -92,-9 -25,14 -38,45 -38,83l0 583 0 0 0 1c0,38 13,83 38,127 25,43 58,77 91,96 33,19 66,23 92,9 25,-15 37,-46 37,-84 0,-1 0,-2 0,-3l0 0 0 -580z"/>
   <polygon class="fil0" points="629,5716 463,5621 330,5544 330,5741 463,5818 463,6766 629,6861 "/>
   <path class="fil0" d="M588 4609c0,-87 -28,-190 -86,-289 -57,-99 -132,-176 -207,-219 -75,-43 -150,-54 -208,-20 -57,33 -86,103 -86,190l0 471c0,87 29,190 86,289 57,99 132,175 207,218 75,44 151,54 208,21 57,-33 86,-103 86,-190l0 -471zm-164 -133c0,-38 -13,-84 -38,-127 -25,-44 -58,-77 -91,-96 -33,-20 -66,-24 -91,-9 -26,14 -38,45 -38,83l0 583 0 0 0 1c0,38 12,83 37,127 25,43 58,77 91,96 34,19 67,23 92,9 25,-15 38,-46 38,-84 0,-1 0,-2 0,-3l0 0 0 -580z"/>
   <path class="fil0" d="M3329 6198c0,-87 -29,-190 -86,-289 -57,-99 -132,-175 -207,-219 -76,-43 -151,-53 -208,-20 -58,33 -86,103 -86,190l0 471c0,87 28,190 85,289 58,99 133,175 208,219 75,43 150,53 207,20 58,-33 87,-103 87,-190l0 -471zm-165 -133c0,-38 -12,-83 -38,-127 -25,-44 -58,-77 -91,-96 -33,-19 -66,-24 -91,-9 -25,14 -38,45 -38,83l0 583 0 0 0 1c0,38 13,83 38,127 25,44 58,77 91,96 33,19 66,24 91,9 25,-14 38,-45 38,-84 0,-1 0,-2 0,-3l0 0 0 -580z"/>
   <path class="fil0" d="M3371 2207c0,-87 -29,-190 -86,-289 -57,-99 -132,-175 -207,-219 -75,-43 -150,-53 -208,-20 -57,33 -86,103 -86,190l0 471c0,87 29,190 86,289 57,99 132,176 207,219 75,43 150,53 208,20 57,-33 86,-103 86,-190l0 -471zm-164 -133c0,-38 -13,-83 -38,-127 -25,-43 -58,-77 -91,-96 -33,-19 -66,-24 -92,-9 -25,14 -38,45 -38,84l0 582 0 0 0 1c0,38 13,83 38,127 25,44 58,77 91,96 33,19 66,24 92,9 25,-14 38,-45 38,-83 0,-2 0,-3 0,-4l0 0 0 -580z"/>
  </g>
 </g>
</svg>
