<?xml version="1.0" encoding="UTF-8"?>
<!DOCTYPE svg PUBLIC "-//W3C//DTD SVG 1.1//EN" "http://www.w3.org/Graphics/SVG/1.1/DTD/svg11.dtd">
<!-- Creator: CorelDRAW X7 -->
<svg xmlns="http://www.w3.org/2000/svg" xml:space="preserve" width="28.3632mm" height="91.4398mm" version="1.1" style="shape-rendering:geometricPrecision; text-rendering:geometricPrecision; image-rendering:optimizeQuality; fill-rule:evenodd; clip-rule:evenodd"
viewBox="0 0 2836 9144"
 xmlns:xlink="http://www.w3.org/1999/xlink">
 <defs>
  <style type="text/css">
   <![CDATA[
    .fil1 {fill:#61003F}
    .fil0 {fill:#DB4C1C}
    .fil2 {fill:#FFF4F0}
    .fil4 {fill:#61003F;fill-rule:nonzero}
    .fil3 {fill:#61003F;fill-rule:nonzero}
   ]]>
  </style>
   <clipPath id="id0">
    <path d="M1975 4192c135,78 270,96 372,37 103,-59 155,-185 155,-341 0,-155 -51,-340 -154,-517 -102,-178 -237,-314 -371,-392 -135,-78 -269,-96 -372,-36 -103,59 -155,185 -155,340 0,155 52,340 154,518 102,177 237,314 371,391z"/>
   </clipPath>
   <clipPath id="id1">
    <path d="M637 3420c134,77 269,96 372,36 103,-59 154,-185 154,-341 0,-155 -51,-339 -153,-517 -103,-177 -237,-314 -372,-392 -134,-77 -269,-96 -372,-36 -103,59 -154,185 -154,340 0,156 51,340 153,518 103,177 237,314 372,392z"/>
   </clipPath>
 </defs>
 <g id="Layer_x0020_1">
  <metadata id="CorelCorpID_0Corel-Layer"/>
  <g id="_2548839386144">
   <ellipse class="fil0" cx="2087" cy="8850" rx="508" ry="294"/>
   <ellipse class="fil1" cx="2087" cy="8402" rx="508" ry="294"/>
   <ellipse class="fil0" cx="2087" cy="7954" rx="508" ry="294"/>
   <ellipse class="fil1" cx="2087" cy="7506" rx="508" ry="294"/>
   <ellipse class="fil0" cx="2087" cy="7059" rx="508" ry="294"/>
   <ellipse class="fil1" cx="2087" cy="6611" rx="508" ry="294"/>
   <ellipse class="fil0" cx="2087" cy="6163" rx="508" ry="294"/>
   <ellipse class="fil1" cx="2087" cy="5716" rx="508" ry="294"/>
  </g>
  <path class="fil1" d="M2020 5900c0,26 37,47 82,47 46,0 82,-21 82,-47l0 -1487c0,-26 -36,-47 -82,-47 -45,0 -82,21 -82,47l0 1487z"/>
  <path class="fil1" d="M2026 3016c0,48 36,87 79,87 44,0 79,-39 79,-87l0 -2707c0,-112 -32,-206 -98,-260l0 -1c-45,-36 -97,-51 -152,-47 -2,0 -5,0 -7,0l0 0c-21,1 -43,5 -65,11l0 0 0 0c-36,10 -72,26 -109,47 -110,64 -221,176 -305,322 -84,145 -126,297 -126,425l164 0c0,-459 540,-918 540,-497l0 2707z"/>
  <g>
   <polygon class="fil2" points="168,1482 2835,3022 2835,4755 2669,4851 2502,4562 168,3214 168,1870 1,1578 "/>
   <path id="1" class="fil3" d="M2848 3000l13 22 -38 22 -2668 -1540 25 -44 2668 1540zm-25 44l25 -44c12,7 16,22 9,35 -7,12 -22,16 -34,9zm38 1711l-13 22 -38 -22 0 -1733 51 0 0 1733zm-51 0l51 0c0,14 -12,25 -26,25 -14,0 -25,-11 -25,-25zm-129 118l-34 -9 9 -35 167 -96 25 44 -167 96zm-25 -44l25 44c-12,7 -27,3 -34,-9 -7,-12 -3,-28 9,-35zm-176 -254l35 -35 9 10 167 288 -44 26 -167 -289zm44 -25l-44 25c-7,-12 -2,-28 10,-35 12,-7 27,-2 34,10zm-2369 -1314l-13 -22 38 -22 2335 1348 -25 44 -2335 -1348zm25 -44l-25 44c-12,-7 -16,-22 -9,-34 7,-12 22,-17 34,-10zm-38 -1322l48 -13 3 13 0 1344 -51 0 0 -1344zm51 0l-51 0c0,-14 12,-26 26,-26 14,0 25,12 25,26zm-214 -279l9 -35 35 9 167 292 -44 25 -167 -291zm44 -26l-44 26c-7,-13 -3,-28 9,-35 12,-7 28,-3 35,9zm132 -105l25 0 0 44 -166 96 -26 -44 167 -96zm25 44l-25 -44c12,-7 28,-3 35,9 7,12 2,28 -10,35z"/>
  </g>
  <g>
   <polygon class="fil2" points="1,1578 2669,3118 2669,4851 1,3311 "/>
   <path id="1" class="fil3" d="M2681 3096l13 22 -38 22 -2668 -1540 26 -44 2667 1540zm-25 44l25 -44c13,7 17,23 10,35 -7,12 -23,16 -35,9zm38 1711l-38 22 -13 -22 0 -1733 51 0 0 1733zm-51 0l51 0c0,14 -11,25 -25,25 -14,0 -26,-11 -26,-25zm-2655 -1518l-12 -22 38 -22 2667 1540 -25 44 -2668 -1540zm26 -44l-26 44c-12,-7 -16,-23 -9,-35 7,-12 22,-16 35,-9zm-38 -1711l38 -22 12 22 0 1733 -50 0 0 -1733zm50 0l-50 0c0,-14 11,-25 25,-25 14,0 25,11 25,25z"/>
  </g>
  <path class="fil2" d="M1975 4192c135,78 270,96 372,37 103,-59 155,-185 155,-341 0,-155 -51,-340 -154,-517 -102,-178 -237,-314 -371,-392 -135,-78 -269,-96 -372,-36 -103,59 -155,185 -155,340 0,155 52,340 154,518 102,177 237,314 371,391z"/>
  <g style="clip-path:url(#id0)">
   <g>
    <g>
     <path id="1" class="fil4" d="M2394 4200l0 0 -11 6 -11 5 -11 5 -11 5 -11 3 -12 4 -12 3 -12 2 -12 2 -12 2 -12 1 -12 0 -13 1 -12 -1 -13 0 -13 -2 -12 -1 -13 -2 -13 -3 -13 -3 -13 -3 -13 -3 -13 -4 -13 -5 -13 -5 -13 -5 -13 -5 -13 -6 -13 -7 -13 -6 -14 -7 -13 -8 26 -44 12 7 12 7 12 6 12 6 12 5 12 5 12 5 12 4 12 4 12 4 11 3 12 3 11 3 12 2 11 1 11 2 11 1 11 1 11 0 10 0 11 -1 10 -1 10 -1 10 -2 10 -2 10 -2 9 -3 10 -3 9 -4 9 -4 9 -4 9 -5 0 0 25 44zm0 0l-25 -44c12,-7 27,-3 34,9 7,12 3,28 -9,35zm167 -363l0 0 0 15 0 15 -1 15 -1 14 -2 15 -1 14 -2 14 -3 13 -3 14 -3 13 -3 13 -4 13 -4 13 -4 12 -5 12 -5 12 -5 11 -6 12 -6 11 -6 10 -7 11 -7 10 -7 10 -8 9 -8 9 -8 9 -9 8 -9 8 -10 8 -9 7 -10 7 -11 6 -25 -44 8 -5 9 -6 8 -6 7 -6 8 -6 7 -7 7 -7 7 -8 6 -8 6 -8 6 -8 6 -9 5 -9 5 -10 5 -10 5 -10 4 -10 4 -11 4 -10 4 -12 3 -11 3 -12 3 -12 2 -12 2 -12 2 -13 2 -13 1 -13 1 -13 1 -14 0 -14 0 -14 0 0 51 0zm0 0l-51 0c0,-14 12,-25 26,-25 14,0 25,11 25,25zm-157 -530l0 0 10 17 9 17 9 17 9 17 8 17 8 18 8 17 8 17 7 17 7 17 6 17 7 17 6 17 5 17 6 17 5 17 5 17 4 16 4 17 4 17 4 16 3 17 3 16 2 16 3 16 2 16 1 16 2 16 1 15 1 16 0 15 0 15 -51 0 0 -14 0 -14 -1 -15 -1 -14 -1 -15 -2 -15 -2 -15 -2 -15 -2 -16 -3 -15 -3 -16 -4 -15 -3 -16 -4 -16 -4 -16 -5 -16 -5 -16 -5 -16 -5 -16 -6 -17 -6 -16 -6 -16 -7 -17 -7 -16 -7 -17 -8 -16 -7 -16 -8 -17 -9 -16 -9 -17 -9 -16 -9 -16 0 0 44 -26zm0 0l-44 26c-7,-13 -3,-28 10,-35 12,-7 27,-3 34,9zm-380 -401l0 0 13 8 13 8 13 8 13 9 13 9 13 9 12 10 13 10 13 11 13 10 12 11 13 12 12 11 12 12 13 12 12 13 12 13 12 13 12 13 12 14 11 14 12 14 11 15 11 15 11 15 11 15 11 15 11 16 10 16 10 17 10 16 10 17 -44 26 -9 -17 -10 -16 -10 -15 -10 -16 -10 -15 -10 -15 -11 -15 -10 -14 -11 -14 -11 -14 -11 -14 -11 -13 -11 -13 -12 -13 -11 -13 -12 -12 -11 -12 -12 -12 -12 -11 -12 -11 -12 -11 -12 -10 -12 -10 -12 -10 -12 -10 -12 -9 -12 -9 -12 -8 -12 -8 -12 -8 -13 -8 -12 -7 0 0 26 -44zm0 0l-26 44c-12,-7 -16,-22 -9,-35 7,-12 23,-16 35,-9zm-398 -37l0 0 11 -5 11 -6 11 -5 11 -4 11 -4 12 -3 12 -3 12 -3 12 -2 12 -1 12 -1 12 -1 13 0 12 0 13 1 13 1 12 2 13 2 13 2 13 3 13 3 13 4 13 4 13 4 13 5 13 5 13 6 13 6 13 6 14 7 13 7 13 7 -26 44 -12 -7 -12 -6 -12 -6 -12 -6 -12 -6 -12 -5 -12 -4 -12 -5 -12 -4 -11 -3 -12 -4 -12 -3 -11 -2 -11 -2 -12 -2 -11 -1 -11 -1 -11 -1 -10 0 -11 0 -10 0 -11 1 -10 2 -10 1 -10 2 -10 3 -9 2 -10 4 -9 3 -9 4 -9 5 -9 4 0 0 -25 -44zm0 0l25 44c-12,7 -27,3 -34,-9 -7,-12 -3,-28 9,-35zm-167 363l0 0 0 -15 0 -15 1 -14 1 -15 2 -14 2 -14 2 -14 2 -14 3 -13 3 -14 3 -13 4 -13 4 -12 4 -13 5 -12 5 -11 5 -12 6 -11 6 -11 6 -11 7 -10 7 -10 7 -10 8 -10 8 -9 8 -8 9 -9 9 -8 10 -7 9 -7 11 -7 10 -7 25 44 -8 6 -8 5 -8 6 -8 6 -8 7 -7 7 -7 7 -7 7 -6 8 -6 8 -6 9 -6 9 -5 9 -5 9 -5 10 -5 10 -4 10 -4 11 -4 11 -4 11 -3 12 -3 11 -3 12 -2 12 -2 13 -2 13 -2 12 -1 14 -1 13 -1 14 0 13 0 14 0 0 -51 0zm0 0l51 0c0,14 -12,26 -26,26 -14,0 -25,-12 -25,-26zm157 530l0 0 -10 -17 -9 -17 -9 -17 -9 -17 -8 -17 -8 -17 -8 -17 -8 -17 -7 -17 -7 -17 -6 -18 -7 -17 -6 -17 -5 -17 -6 -17 -5 -16 -5 -17 -4 -17 -4 -17 -4 -16 -3 -17 -4 -16 -3 -16 -2 -17 -3 -16 -2 -16 -1 -16 -2 -15 -1 -16 -1 -15 0 -16 0 -15 51 0 0 14 0 15 1 14 1 15 1 14 2 15 2 15 2 16 2 15 3 16 3 15 4 16 3 16 4 15 4 16 5 16 5 17 5 16 5 16 6 16 6 17 6 16 7 16 7 17 7 16 8 17 7 16 9 16 8 17 9 16 9 17 9 16 0 0 -44 25zm0 0l44 -25c7,12 3,28 -9,35 -13,7 -28,2 -35,-10zm380 401l0 0 -13 -7 -13 -8 -13 -9 -13 -9 -13 -9 -12 -9 -13 -10 -13 -10 -13 -10 -12 -11 -13 -11 -13 -11 -12 -12 -12 -12 -13 -12 -12 -12 -12 -13 -12 -13 -12 -14 -11 -14 -12 -13 -12 -15 -11 -14 -11 -15 -11 -15 -11 -15 -11 -16 -10 -16 -11 -16 -10 -16 -10 -17 -10 -17 44 -25 9 16 10 16 10 16 10 15 10 15 10 15 11 15 11 15 10 14 11 14 11 13 11 14 12 13 11 13 11 12 12 12 11 12 12 12 12 11 12 11 12 11 12 11 12 10 12 10 12 9 12 9 12 9 12 9 12 8 12 8 13 7 12 7 0 0 -26 44zm0 0l26 -44c12,7 16,23 9,35 -7,12 -22,16 -35,9z"/>
    </g>
    <g>
     <path class="fil4" d="M2148 3152l13 22 -39 22 -250 -145 26 -44 250 145zm-26 44l26 -44c12,7 16,22 9,34 -7,13 -22,17 -35,10zm39 267l-39 22 -12 -22 0 -289 51 0 0 289zm-51 0l51 0c0,14 -12,25 -26,25 -14,0 -25,-11 -25,-25zm288 122l13 22 -39 22 -250 -144 26 -44 250 144zm-26 44l26 -44c12,7 16,22 9,35 -7,12 -22,16 -35,9zm39 267l-38 22 -13 -22 0 -289 51 0 0 289zm-51 0l51 0c0,14 -12,25 -26,25 -14,0 -25,-11 -25,-25zm-238 -123l-12 -22 38 -22 250 145 -25 44 -251 -145zm26 -44l-26 44c-12,-7 -16,-22 -9,-34 7,-13 23,-17 35,-10zm13 311l-39 22 -12 -22 0 -289 51 0 0 289zm-51 0l51 0c0,14 -12,26 -26,26 -14,0 -25,-12 -25,-26zm-238 -122l-12 -22 38 -22 250 144 -26 44 -250 -144zm26 -44l-26 44c-12,-7 -16,-23 -9,-35 7,-12 23,-16 35,-9zm-38 -267l38 -22 12 22 0 289 -50 0 0 -289zm50 0l-50 0c0,-14 11,-25 25,-25 14,0 25,11 25,25zm-288 -122l-13 -22 39 -22 250 144 -26 44 -250 -144zm26 -44l-26 44c-12,-7 -16,-23 -9,-35 7,-12 22,-16 35,-9zm-39 -267l39 -22 12 22 0 289 -51 0 0 -289zm51 0l-51 0c0,-14 12,-26 26,-26 14,0 25,12 25,26zm238 122l12 22 -38 22 -250 -144 26 -44 250 144zm-26 44l26 -44c12,7 16,23 9,35 -7,12 -23,16 -35,9zm-12 -311l38 -22 12 22 0 289 -50 0 0 -289zm50 0l-50 0c0,-14 11,-25 25,-25 14,0 25,11 25,25z"/>
    </g>
   </g>
  </g>
  <g>
   <path class="fil3" d="M2360 4251l0 0 -11 6 -10 5 -12 5 -11 5 -11 3 -12 4 -12 3 -12 2 -12 2 -12 2 -12 1 -12 0 -13 1 -12 -1 -13 0 -12 -2 -13 -1 -13 -2 -13 -3 -13 -2 -13 -4 -13 -3 -13 -4 -13 -5 -13 -5 -13 -5 -13 -5 -13 -6 -13 -7 -13 -6 -13 -7 -13 -8 25 -44 12 7 12 7 12 6 12 6 12 5 12 5 12 5 12 4 12 4 12 4 11 3 12 3 11 3 12 2 11 2 11 1 11 1 11 1 11 0 10 0 11 -1 10 -1 10 -1 10 -2 10 -2 10 -2 9 -3 10 -3 9 -4 9 -4 9 -4 9 -5 0 0 25 44zm0 0l-25 -44c12,-7 27,-3 34,9 7,12 3,28 -9,35zm167 -363l0 0 0 15 0 15 -1 15 -1 14 -2 15 -1 14 -2 14 -3 13 -2 14 -3 13 -4 13 -3 13 -4 13 -5 12 -4 12 -5 12 -6 12 -5 11 -6 11 -7 10 -7 11 -7 10 -7 10 -8 9 -8 9 -8 9 -9 8 -9 8 -9 8 -10 7 -10 7 -11 6 -25 -44 8 -5 9 -6 8 -6 7 -6 8 -6 7 -7 7 -7 7 -8 6 -8 6 -8 6 -8 6 -9 5 -9 6 -10 4 -10 5 -10 4 -10 5 -11 3 -10 4 -12 3 -11 3 -12 3 -12 2 -12 2 -12 2 -13 2 -13 1 -13 1 -13 1 -14 0 -14 1 -14 0 0 50 0zm0 0l-50 0c0,-14 11,-25 25,-25 14,0 25,11 25,25zm-157 -530l0 0 10 17 9 17 9 17 9 17 8 17 9 18 7 17 8 17 7 17 7 17 7 17 6 17 6 17 6 17 5 17 5 17 5 17 4 16 4 17 4 17 4 16 3 17 3 16 2 16 3 16 2 16 1 16 2 16 1 15 1 16 0 15 0 15 -50 0 -1 -14 0 -14 -1 -15 -1 -14 -1 -15 -2 -15 -2 -15 -2 -15 -2 -16 -3 -15 -3 -16 -3 -15 -4 -16 -4 -16 -4 -16 -5 -16 -5 -16 -5 -16 -5 -16 -6 -17 -6 -16 -6 -16 -7 -17 -7 -16 -7 -17 -7 -16 -8 -16 -8 -17 -9 -16 -8 -17 -9 -16 -10 -16 0 0 44 -26zm0 0l-44 26c-7,-13 -3,-28 10,-35 12,-7 27,-3 34,9zm-380 -401l0 0 13 8 13 8 13 8 13 9 13 9 13 10 12 9 13 10 13 11 13 10 12 11 13 12 12 11 13 12 12 12 12 13 12 13 12 13 12 13 12 14 11 14 12 14 11 15 11 15 11 15 11 15 11 16 11 15 10 16 10 17 10 16 10 17 -44 26 -9 -17 -10 -16 -10 -15 -10 -16 -10 -15 -10 -15 -11 -15 -10 -14 -11 -14 -11 -14 -11 -14 -11 -13 -11 -13 -12 -13 -11 -13 -12 -12 -11 -12 -12 -11 -12 -12 -12 -11 -12 -11 -11 -10 -12 -10 -12 -10 -13 -10 -12 -9 -12 -9 -12 -8 -12 -8 -12 -8 -12 -8 -13 -7 0 0 26 -44zm0 0l-26 44c-12,-7 -16,-22 -9,-35 7,-12 23,-16 35,-9zm-398 -36l0 0 11 -6 11 -6 11 -5 11 -4 12 -4 11 -3 12 -3 12 -3 12 -2 12 -1 12 -1 13 -1 12 0 12 0 13 1 13 1 13 2 12 2 13 2 13 3 13 3 13 4 13 4 13 4 13 5 13 5 13 6 13 6 13 6 14 7 13 7 13 7 -26 44 -12 -7 -12 -6 -12 -6 -12 -6 -12 -6 -12 -5 -12 -4 -12 -5 -12 -4 -11 -3 -12 -4 -12 -3 -11 -2 -11 -2 -12 -2 -11 -1 -11 -1 -11 -1 -10 0 -11 0 -10 0 -11 1 -10 2 -10 1 -10 2 -10 3 -9 2 -9 4 -10 3 -9 4 -9 5 -9 4 0 0 -25 -43zm0 0l25 43c-12,8 -27,3 -34,-9 -7,-12 -3,-27 9,-34zm-167 362l0 0 0 -15 1 -15 0 -14 1 -15 2 -14 2 -14 2 -14 2 -14 3 -13 3 -14 3 -13 4 -13 4 -12 4 -12 5 -13 5 -11 5 -12 6 -11 6 -11 6 -11 7 -10 7 -10 7 -10 8 -10 8 -9 8 -8 9 -9 9 -8 10 -7 10 -7 10 -7 10 -6 25 43 -8 6 -8 5 -8 6 -8 6 -8 7 -7 7 -7 7 -6 7 -7 8 -6 8 -6 9 -6 9 -5 9 -5 9 -5 10 -5 10 -4 10 -4 11 -4 11 -4 11 -3 12 -3 11 -3 12 -2 12 -2 13 -2 13 -2 12 -1 14 -1 13 -1 14 0 13 0 14 0 0 -51 0zm0 0l51 0c0,14 -12,26 -26,26 -14,0 -25,-12 -25,-26zm157 530l0 0 -10 -17 -9 -17 -9 -17 -9 -17 -8 -17 -8 -17 -8 -17 -8 -17 -7 -17 -7 -17 -6 -18 -7 -17 -6 -17 -5 -17 -6 -16 -5 -17 -4 -17 -5 -17 -4 -17 -4 -16 -3 -17 -4 -16 -3 -16 -2 -17 -3 -16 -2 -16 -1 -16 -2 -15 -1 -16 0 -15 -1 -16 0 -15 51 0 0 14 0 15 1 14 1 15 1 15 2 14 2 16 2 15 2 15 3 16 3 15 4 16 3 16 4 15 5 16 4 16 5 17 5 16 5 16 6 16 6 17 7 16 6 16 7 17 7 16 8 17 8 16 8 16 8 17 9 16 9 17 9 16 0 0 -44 25zm0 0l44 -25c7,12 3,28 -9,35 -12,7 -28,2 -35,-10zm381 401l0 0 -14 -7 -13 -8 -13 -9 -13 -8 -12 -10 -13 -9 -13 -10 -13 -10 -13 -10 -12 -11 -13 -11 -12 -11 -13 -12 -12 -12 -13 -12 -12 -12 -12 -13 -12 -13 -12 -14 -11 -13 -12 -14 -11 -15 -12 -14 -11 -15 -11 -15 -11 -15 -11 -16 -10 -16 -11 -16 -10 -16 -10 -17 -10 -17 44 -25 9 16 10 16 10 16 10 15 10 16 11 14 10 15 11 15 10 14 11 14 11 13 11 14 12 13 11 13 11 12 12 12 12 12 11 12 12 11 12 11 12 11 12 11 12 10 12 10 12 9 12 9 12 9 12 9 12 8 13 8 12 7 12 7 0 0 -25 44zm0 0l25 -44c12,7 16,23 9,35 -7,12 -22,16 -34,9z"/>
  </g>
  <path class="fil2" d="M637 3420c134,77 269,96 372,36 103,-59 154,-185 154,-341 0,-155 -51,-339 -153,-517 -103,-177 -237,-314 -372,-392 -134,-77 -269,-96 -372,-36 -103,59 -154,185 -154,340 0,156 51,340 153,518 103,177 237,314 372,392z"/>
  <g style="clip-path:url(#id1)">
   <g>
    <g>
     <path id="1" class="fil4" d="M1055 3427l0 0 -10 6 -11 5 -11 5 -12 5 -11 4 -12 3 -11 3 -12 2 -12 2 -12 2 -13 1 -12 1 -12 0 -13 -1 -13 0 -12 -2 -13 -1 -13 -2 -13 -3 -13 -2 -12 -4 -13 -3 -13 -4 -13 -5 -14 -5 -13 -5 -13 -5 -13 -6 -13 -6 -13 -7 -13 -7 -13 -8 25 -43 12 6 12 7 13 6 12 6 12 5 12 5 12 5 11 4 12 4 12 4 12 3 11 3 12 3 11 2 11 2 11 1 11 1 11 1 11 0 10 0 11 -1 10 -1 10 -1 10 -2 10 -2 10 -2 10 -3 9 -3 9 -4 9 -4 9 -4 9 -5 0 0 25 44zm0 0l-25 -44c12,-7 28,-3 35,9 7,13 3,28 -10,35zm168 -363l0 0 -1 15 0 15 -1 15 -1 14 -1 15 -2 14 -2 14 -2 14 -3 13 -3 13 -4 13 -3 13 -4 13 -5 12 -4 12 -5 12 -6 12 -5 11 -6 11 -7 11 -6 10 -7 10 -8 10 -7 9 -8 9 -9 9 -9 8 -9 8 -9 8 -10 7 -10 7 -11 6 -25 -44 9 -5 8 -6 8 -5 8 -7 7 -6 7 -7 7 -7 7 -8 6 -8 7 -8 6 -8 5 -9 6 -9 5 -10 5 -9 4 -10 5 -11 4 -10 4 -11 3 -11 3 -12 3 -12 3 -12 3 -12 2 -12 2 -13 1 -13 1 -13 2 -13 0 -14 1 -14 0 -14 0 0 51 0zm0 0l-51 0c0,-14 11,-25 25,-25 14,0 26,11 26,25zm-157 -530l0 0 9 17 10 17 9 17 8 17 9 18 8 17 8 17 7 17 7 17 7 17 7 17 6 17 6 17 6 17 5 17 5 17 5 17 4 17 5 16 3 17 4 16 3 17 3 16 3 16 2 16 2 16 2 16 1 16 1 15 1 16 0 15 1 15 -51 0 0 -14 -1 -14 0 -14 -1 -15 -2 -15 -1 -15 -2 -15 -2 -15 -3 -15 -3 -16 -3 -15 -3 -16 -4 -16 -4 -16 -4 -16 -5 -16 -4 -16 -6 -16 -5 -16 -6 -17 -6 -16 -6 -16 -7 -17 -7 -16 -7 -16 -7 -17 -8 -16 -8 -17 -8 -16 -9 -17 -9 -16 -9 -16 0 0 44 -26zm0 0l-44 26c-7,-12 -3,-28 9,-35 12,-7 28,-3 35,9zm-381 -401l0 0 13 8 13 8 13 8 13 9 13 9 13 10 13 9 13 10 12 11 13 10 13 11 12 12 12 11 13 12 12 13 12 12 12 13 12 13 12 13 12 14 12 14 11 14 11 15 12 15 11 15 11 15 10 16 11 15 10 17 11 16 10 16 10 17 -44 26 -10 -16 -10 -16 -9 -16 -10 -16 -11 -15 -10 -15 -10 -15 -11 -14 -11 -14 -11 -14 -11 -14 -11 -13 -11 -13 -11 -13 -12 -13 -11 -12 -12 -12 -12 -11 -11 -12 -12 -11 -12 -11 -12 -10 -12 -10 -12 -10 -12 -9 -12 -10 -13 -8 -12 -9 -12 -8 -12 -8 -12 -8 -12 -7 0 0 25 -44zm0 0l-25 44c-12,-7 -17,-22 -10,-34 7,-13 23,-17 35,-10zm-398 -36l0 0 11 -6 11 -6 11 -5 11 -4 12 -4 11 -3 12 -3 12 -3 12 -2 12 -1 12 -1 13 -1 12 0 13 0 12 1 13 1 13 2 13 2 12 2 13 3 13 3 13 4 13 4 13 4 13 5 13 5 14 6 13 6 13 6 13 7 13 7 13 7 -25 44 -12 -7 -13 -6 -12 -6 -12 -6 -12 -5 -12 -6 -12 -4 -12 -5 -11 -4 -12 -3 -12 -4 -11 -2 -12 -3 -11 -2 -11 -2 -11 -1 -11 -1 -11 -1 -11 0 -11 0 -10 0 -10 1 -11 2 -10 1 -10 2 -9 3 -10 3 -9 3 -9 3 -10 4 -8 5 -9 5 0 0 -26 -44zm0 0l26 44c-12,7 -28,2 -35,-10 -7,-12 -3,-27 9,-34zm-167 362l0 0 0 -15 1 -15 1 -14 1 -15 1 -14 2 -14 2 -14 2 -14 3 -13 3 -14 3 -13 4 -12 4 -13 4 -12 5 -12 5 -12 5 -12 6 -11 6 -11 6 -11 7 -10 7 -10 7 -10 8 -9 8 -10 9 -8 8 -9 10 -8 9 -7 10 -7 10 -7 10 -6 26 44 -9 5 -8 5 -8 6 -8 6 -7 7 -8 7 -6 7 -7 8 -7 7 -6 9 -6 8 -5 9 -6 9 -5 9 -5 10 -5 10 -4 11 -4 10 -4 11 -3 11 -4 12 -3 11 -2 12 -3 13 -2 12 -2 13 -1 13 -2 13 -1 13 0 14 -1 13 0 14 0 0 -51 0zm0 0l51 0c0,14 -11,26 -25,26 -14,0 -26,-12 -26,-26zm157 530l0 0 -9 -17 -10 -17 -9 -17 -8 -17 -9 -17 -8 -17 -8 -17 -7 -17 -8 -17 -6 -17 -7 -17 -6 -17 -6 -17 -6 -17 -5 -17 -5 -17 -5 -17 -5 -17 -4 -16 -4 -17 -3 -17 -3 -16 -3 -16 -3 -16 -2 -17 -2 -16 -2 -15 -1 -16 -1 -16 -1 -15 -1 -16 0 -15 51 0 0 14 1 15 0 14 1 15 2 15 1 15 2 15 2 15 3 15 3 16 3 15 3 16 4 16 4 16 4 16 4 16 5 16 5 16 6 16 5 16 7 17 6 16 6 16 7 17 8 16 7 17 8 16 8 17 8 16 9 16 9 17 9 16 0 0 -44 25zm0 0l44 -25c7,12 3,28 -9,35 -12,7 -28,3 -35,-10zm381 401l0 0 -13 -7 -13 -8 -13 -9 -13 -8 -13 -9 -13 -10 -13 -10 -13 -10 -12 -10 -13 -11 -13 -11 -12 -11 -13 -12 -12 -12 -12 -12 -12 -12 -13 -13 -11 -13 -12 -14 -12 -13 -12 -14 -11 -15 -12 -14 -11 -15 -11 -15 -11 -15 -10 -16 -11 -16 -11 -16 -10 -16 -10 -17 -10 -17 44 -25 10 16 9 16 10 16 10 15 11 16 10 15 10 14 11 15 11 14 11 14 11 13 11 14 11 13 11 13 12 12 11 13 12 11 12 12 11 12 12 11 12 10 12 11 12 10 12 10 12 9 12 9 12 9 13 9 12 8 12 8 12 7 12 7 0 1 -25 43zm0 0l25 -44c12,7 16,23 9,35 -7,12 -22,16 -34,9z"/>
    </g>
    <g>
     <g>
      <path class="fil4" d="M485 2828l0 0 -4 2 -3 2 -4 2 -3 1 -4 1 -4 1 -4 1 -3 1 -4 1 -4 0 -4 1 -4 0 -4 0 -4 0 -4 0 -3 -1 -4 0 -4 -1 -4 -1 -4 0 -4 -1 -4 -2 -3 -1 -4 -1 -4 -1 -4 -2 -4 -2 -3 -1 -4 -2 -4 -2 -4 -2 -3 -2 25 -44 3 2 3 1 2 1 3 2 3 1 2 1 3 1 3 1 2 1 3 1 2 0 3 1 2 1 3 0 2 0 2 1 2 0 2 0 3 0 2 0 2 0 2 0 1 0 2 -1 2 0 2 -1 2 0 1 -1 2 0 1 -1 2 -1 2 -1 0 0 25 44zm0 0l-25 -44c12,-7 27,-2 34,10 7,12 3,27 -9,34zm52 -109l0 0 0 4 0 4 0 4 0 5 -1 4 0 4 -1 4 -1 4 0 4 -1 4 -1 4 -1 3 -2 4 -1 4 -1 4 -2 3 -1 4 -2 3 -2 4 -2 3 -2 3 -2 3 -3 3 -2 3 -3 3 -2 3 -3 3 -3 2 -3 3 -3 2 -4 2 -3 2 -25 -44 1 0 1 -1 2 -1 1 -2 2 -1 1 -1 1 -1 1 -2 1 -1 2 -2 1 -1 1 -2 1 -2 1 -1 1 -2 1 -2 1 -3 1 -2 0 -2 1 -2 1 -3 0 -2 1 -3 0 -2 1 -3 0 -3 1 -3 0 -3 0 -3 0 -3 1 -3 0 -3 0 0 50 0zm0 0l-50 0c0,-14 11,-26 25,-26 14,0 25,12 25,26zm-43 -146l0 0 3 5 3 4 2 5 2 4 3 5 2 5 2 4 2 5 2 5 2 4 2 5 1 5 2 4 2 5 1 5 1 4 2 5 1 4 1 5 1 5 1 4 1 5 1 4 1 5 0 4 1 5 0 4 1 4 0 5 0 4 0 4 0 5 -50 0 0 -4 -1 -3 0 -3 0 -4 0 -3 -1 -4 0 -3 -1 -4 0 -3 -1 -4 -1 -4 0 -3 -1 -4 -1 -4 -1 -4 -1 -4 -1 -3 -2 -4 -1 -4 -1 -4 -2 -4 -1 -4 -2 -4 -2 -4 -1 -4 -2 -4 -2 -4 -2 -4 -2 -4 -2 -4 -2 -4 -3 -4 0 0 44 -25zm0 0l-44 25c-7,-12 -2,-27 10,-34 12,-7 27,-3 34,9zm-104 -110l0 0 3 2 4 2 4 3 3 2 4 3 3 2 4 3 4 3 3 3 4 3 3 3 4 3 3 3 3 3 4 4 3 3 3 4 4 3 3 4 3 4 3 3 3 4 4 4 3 4 3 4 3 4 2 5 3 4 3 4 3 5 3 4 2 5 -44 25 -2 -4 -2 -3 -3 -4 -2 -4 -3 -4 -2 -3 -3 -4 -2 -3 -3 -4 -2 -3 -3 -3 -3 -4 -2 -3 -3 -3 -3 -3 -3 -3 -2 -3 -3 -3 -3 -2 -3 -3 -3 -2 -2 -3 -3 -2 -3 -3 -3 -2 -3 -2 -3 -2 -3 -2 -2 -2 -3 -2 -3 -2 -3 -1 0 0 26 -44zm0 0l-26 44c-12,-7 -16,-23 -9,-35 7,-12 22,-16 35,-9zm-122 -10l0 0 4 -2 3 -1 4 -2 4 -1 3 -2 4 -1 4 -1 4 0 4 -1 3 -1 4 0 4 0 4 0 4 0 4 0 4 1 4 0 3 1 4 0 4 1 4 1 4 1 4 1 3 2 4 1 4 2 4 1 4 2 3 2 4 2 4 2 4 2 -26 44 -3 -2 -2 -1 -3 -2 -3 -1 -3 -1 -2 -1 -3 -1 -2 -1 -3 -1 -3 -1 -2 -1 -2 0 -3 -1 -2 0 -3 -1 -2 0 -2 0 -2 0 -2 0 -2 0 -2 0 -2 0 -2 0 -2 1 -2 0 -2 0 -1 1 -2 0 -2 1 -1 1 -2 1 -1 0 0 0 -26 -44zm0 0l26 44c-12,7 -28,3 -35,-9 -7,-12 -3,-28 9,-35zm-52 110l0 0 0 -4 0 -4 0 -5 1 -4 0 -4 1 -4 0 -4 1 -4 1 -4 1 -4 1 -4 1 -4 1 -3 1 -4 2 -4 1 -3 2 -4 1 -3 2 -4 2 -3 2 -3 3 -4 2 -3 2 -3 3 -2 3 -3 3 -3 2 -3 4 -2 3 -2 3 -3 3 -2 26 44 -2 1 -1 1 -2 1 -1 1 -1 2 -2 1 -1 1 -1 1 -1 2 -1 1 -1 2 -2 2 -1 1 -1 2 -1 2 0 2 -1 2 -1 2 -1 3 -1 2 0 2 -1 3 -1 3 0 2 -1 3 0 3 0 3 -1 3 0 3 0 3 0 3 0 3 0 0 -51 0zm0 0l51 0c0,14 -12,25 -26,25 -14,0 -25,-11 -25,-25zm43 146l0 0 -3 -5 -2 -4 -3 -5 -2 -5 -2 -4 -3 -5 -2 -5 -2 -4 -2 -5 -2 -5 -1 -4 -2 -5 -2 -5 -1 -4 -2 -5 -1 -4 -1 -5 -2 -5 -1 -4 -1 -5 -1 -4 -1 -5 -1 -4 0 -5 -1 -4 -1 -5 0 -4 0 -5 -1 -4 0 -4 0 -5 0 -4 51 0 0 3 0 4 0 3 0 3 1 4 0 3 0 4 1 3 0 4 1 4 1 3 1 4 1 4 0 4 1 3 2 4 1 4 1 4 1 4 2 4 1 4 2 4 1 4 2 4 2 4 1 4 2 4 2 4 2 4 2 4 3 4 2 3 0 0 -44 26zm0 0l44 -26c7,13 3,28 -9,35 -13,7 -28,3 -35,-9zm105 110l0 0 -4 -2 -4 -2 -3 -3 -4 -2 -4 -3 -3 -2 -4 -3 -3 -3 -4 -3 -3 -3 -4 -3 -3 -3 -4 -3 -3 -3 -3 -4 -4 -3 -3 -4 -3 -3 -4 -4 -3 -4 -3 -4 -3 -3 -3 -4 -3 -4 -3 -4 -3 -5 -3 -4 -3 -4 -3 -5 -3 -4 -2 -5 -3 -4 44 -26 2 4 3 4 2 4 2 4 3 4 2 3 3 4 2 3 3 4 3 3 2 3 3 4 3 3 2 3 3 3 3 3 3 3 2 2 3 3 3 3 3 2 3 3 3 2 2 2 3 3 3 2 3 2 3 2 3 2 2 2 3 1 3 2 0 0 -25 44zm0 0l25 -44c12,7 16,23 9,35 -7,12 -22,16 -34,9z"/>
     </g>
     <g>
      <path class="fil4" d="M756 2672l0 0 -4 2 -3 2 -4 1 -4 2 -3 1 -4 1 -4 1 -4 1 -4 1 -3 0 -4 0 -4 1 -4 0 -4 0 -4 -1 -4 0 -4 -1 -4 0 -3 -1 -4 -1 -4 -1 -4 -1 -4 -1 -4 -1 -3 -2 -4 -1 -4 -2 -4 -1 -3 -2 -4 -2 -4 -2 -4 -2 26 -44 3 1 2 2 3 1 3 2 2 1 3 1 3 1 2 1 3 1 2 1 3 0 2 1 3 0 2 1 2 0 3 0 2 1 2 0 2 0 2 0 2 0 2 0 2 -1 2 0 2 0 1 -1 2 0 2 -1 1 0 2 -1 2 -1 1 -1 0 0 26 44zm0 0l-26 -44c12,-7 28,-3 35,9 7,13 3,28 -9,35zm52 -109l0 0 0 4 0 4 0 4 -1 4 0 4 -1 5 0 4 -1 4 -1 4 -1 3 -1 4 -1 4 -1 4 -1 4 -2 3 -1 4 -2 3 -1 4 -2 3 -2 4 -2 3 -3 3 -2 3 -2 3 -3 3 -3 3 -3 3 -3 2 -3 3 -3 2 -3 2 -3 2 -26 -44 2 -1 1 -1 1 -1 2 -1 1 -1 1 -1 2 -1 1 -2 1 -1 1 -2 1 -1 1 -2 1 -2 1 -2 1 -2 1 -2 1 -2 1 -2 1 -2 1 -3 0 -2 1 -2 1 -3 0 -3 1 -2 0 -3 0 -3 1 -3 0 -3 0 -3 0 -3 0 -4 0 0 51 1zm0 0l-51 -1c0,-14 12,-25 26,-25 14,0 25,11 25,26zm-43 -146l0 0 3 4 2 5 3 5 2 4 2 5 3 4 2 5 2 5 2 4 2 5 1 5 2 4 2 5 1 5 2 4 1 5 1 5 2 4 1 5 1 4 1 5 1 4 1 5 0 4 1 5 0 4 1 5 0 4 1 5 0 4 0 4 0 5 -51 -1 0 -3 0 -3 0 -3 0 -4 -1 -3 0 -4 0 -3 -1 -4 -1 -4 0 -3 -1 -4 -1 -4 -1 -3 -1 -4 -1 -4 -1 -4 -1 -4 -1 -4 -1 -3 -2 -4 -1 -4 -2 -4 -1 -4 -2 -4 -2 -4 -2 -4 -1 -4 -2 -4 -2 -4 -3 -4 -2 -4 -2 -4 0 0 44 -25zm0 0l-44 25c-7,-12 -3,-28 9,-35 12,-7 28,-2 35,10zm-105 -110l0 0 4 2 4 2 3 2 4 3 3 2 4 3 4 3 3 2 4 3 3 3 4 3 3 3 4 4 3 3 3 3 4 4 3 3 3 4 4 4 3 3 3 4 3 4 3 4 3 4 3 4 3 4 3 4 3 5 3 4 3 5 2 4 3 5 -44 25 -2 -4 -3 -4 -2 -4 -2 -3 -3 -4 -2 -4 -3 -3 -2 -4 -3 -3 -3 -3 -2 -4 -3 -3 -3 -3 -2 -3 -3 -3 -3 -3 -3 -3 -3 -3 -2 -2 -3 -3 -3 -3 -3 -2 -3 -3 -3 -2 -2 -2 -3 -2 -3 -2 -3 -2 -3 -2 -3 -2 -2 -2 -3 -1 0 0 25 -44zm0 0l-25 44c-12,-7 -16,-23 -9,-35 7,-12 22,-16 34,-9zm-121 -10l0 0 4 -2 3 -2 4 -1 3 -2 4 -1 4 -1 4 -1 3 -1 4 0 4 -1 4 0 4 0 4 0 3 0 4 0 4 0 4 1 4 0 4 1 4 1 4 1 3 1 4 1 4 2 4 1 4 1 3 2 4 2 4 2 4 1 3 2 4 3 -25 44 -3 -2 -3 -2 -2 -1 -3 -1 -3 -1 -3 -2 -2 -1 -3 -1 -2 0 -3 -1 -2 -1 -3 -1 -2 0 -3 -1 -2 0 -2 0 -2 0 -3 0 -2 -1 -2 0 -2 1 -2 0 -2 0 -1 0 -2 1 -2 0 -2 1 -1 0 -2 1 -1 0 -2 1 -2 1 0 0 -25 -44zm0 0l25 44c-12,7 -27,3 -34,-9 -7,-12 -3,-28 9,-35zm-52 110l0 0 0 -4 0 -5 0 -4 0 -4 1 -4 0 -4 1 -4 0 -4 1 -4 1 -4 1 -4 1 -4 1 -4 2 -3 1 -4 2 -4 1 -3 2 -4 2 -3 2 -3 2 -4 2 -3 3 -3 2 -3 3 -3 2 -3 3 -2 3 -3 3 -2 3 -3 4 -2 3 -2 25 44 -1 1 -2 1 -1 1 -1 1 -2 1 -1 1 -1 2 -1 1 -2 2 -1 1 -1 2 -1 1 -1 2 -1 2 -1 2 -1 2 -1 2 -1 2 0 2 -1 3 -1 2 0 3 -1 2 -1 3 0 3 0 3 -1 2 0 3 0 3 -1 3 0 4 0 3 0 0 -50 0zm0 0l50 0c0,14 -11,25 -25,25 -14,0 -25,-11 -25,-25zm43 146l0 0 -3 -5 -3 -5 -2 -4 -2 -5 -3 -5 -2 -4 -2 -5 -2 -4 -2 -5 -2 -5 -2 -4 -1 -5 -2 -5 -2 -4 -1 -5 -2 -5 -1 -4 -1 -5 -1 -4 -1 -5 -1 -5 -1 -4 -1 -5 -1 -4 0 -5 -1 -4 0 -4 -1 -5 0 -4 0 -5 0 -4 0 -4 50 0 0 3 0 3 1 4 0 3 0 4 1 3 0 4 1 3 0 4 1 3 1 4 0 4 1 4 1 3 1 4 1 4 1 4 2 4 1 4 1 4 2 4 1 4 2 3 2 4 1 4 2 4 2 4 2 4 2 4 2 4 2 4 2 4 0 0 -43 26zm0 0l43 -26c8,12 3,28 -9,35 -12,7 -27,3 -34,-9zm104 110l0 0 -3 -2 -4 -3 -4 -2 -3 -3 -4 -2 -4 -3 -3 -2 -4 -3 -3 -3 -4 -3 -3 -3 -4 -3 -3 -3 -3 -4 -4 -3 -3 -3 -3 -4 -4 -4 -3 -3 -3 -4 -3 -4 -4 -4 -3 -4 -3 -4 -3 -4 -3 -4 -3 -4 -2 -4 -3 -5 -3 -4 -3 -5 -2 -4 43 -26 3 4 2 4 3 4 2 4 2 3 3 4 2 3 3 4 3 3 2 4 3 3 3 3 2 3 3 3 3 3 3 3 2 3 3 3 3 3 3 2 3 3 2 2 3 3 3 2 3 2 3 3 3 2 2 2 3 2 3 1 3 2 3 2 0 0 -26 44zm0 0l26 -44c12,7 16,22 9,34 -7,13 -23,17 -35,10z"/>
     </g>
     <g>
      <path class="fil4" d="M1026 3141l0 0 -3 2 -4 2 -3 1 -4 2 -4 1 -4 1 -3 1 -4 1 -4 0 -4 1 -4 0 -4 0 -3 0 -4 0 -4 0 -4 0 -4 -1 -4 0 -4 -1 -4 -1 -3 -1 -4 -1 -4 -1 -4 -1 -4 -2 -4 -1 -3 -2 -4 -2 -4 -2 -4 -1 -3 -2 -4 -3 25 -44 3 2 3 2 3 1 2 1 3 1 3 2 2 1 3 1 3 0 2 1 3 1 2 1 2 0 3 1 2 0 2 0 3 0 2 1 2 0 2 0 2 -1 2 0 2 0 2 0 1 -1 2 0 2 -1 1 0 2 -1 2 0 1 -1 2 -1 0 0 25 44zm0 0l-25 -44c12,-7 27,-3 34,9 7,12 3,28 -9,35zm53 -110l0 0 0 5 -1 4 0 4 0 4 -1 4 0 4 -1 4 0 4 -1 4 -1 4 -1 4 -1 4 -1 4 -2 3 -1 4 -1 4 -2 3 -2 4 -2 3 -2 3 -2 4 -2 3 -2 3 -3 3 -2 3 -3 3 -3 2 -3 3 -3 2 -3 3 -3 2 -4 2 -25 -44 1 -1 2 -1 1 -1 1 -1 2 -1 1 -1 1 -2 2 -1 1 -2 1 -1 1 -2 1 -1 1 -2 1 -2 1 -2 1 -2 1 -2 1 -2 1 -2 0 -3 1 -2 1 -3 0 -2 1 -3 0 -3 1 -3 0 -2 0 -3 1 -3 0 -3 0 -4 0 -3 0 0 51 0zm0 0l-51 0c0,-14 11,-25 25,-25 14,0 26,11 26,25zm-43 -146l0 0 2 5 3 5 2 4 3 5 2 5 2 4 2 5 2 5 2 4 2 5 2 5 2 4 1 5 2 4 1 5 2 5 1 4 1 5 1 5 1 4 1 5 1 4 1 5 1 4 0 5 1 4 1 5 0 4 0 4 0 5 1 4 0 4 -51 0 0 -3 0 -3 0 -4 -1 -3 0 -3 0 -4 -1 -4 0 -3 -1 -4 -1 -3 0 -4 -1 -4 -1 -4 -1 -3 -1 -4 -1 -4 -1 -4 -1 -4 -2 -4 -1 -4 -2 -4 -1 -3 -2 -4 -1 -4 -2 -4 -2 -4 -2 -4 -2 -4 -2 -4 -2 -4 -2 -4 -2 -4 0 0 44 -26zm0 0l-44 26c-7,-12 -3,-28 9,-35 12,-7 28,-3 35,9zm-105 -110l0 0 4 2 3 3 4 2 3 3 4 2 4 3 3 2 4 3 3 3 4 3 3 3 4 3 3 3 4 4 3 3 3 3 4 4 3 4 3 3 3 4 4 4 3 4 3 4 3 4 3 4 3 4 3 4 3 5 2 4 3 4 3 5 3 4 -44 26 -3 -4 -2 -4 -2 -4 -3 -4 -2 -3 -3 -4 -2 -3 -3 -4 -2 -3 -3 -4 -3 -3 -2 -3 -3 -3 -3 -3 -3 -3 -2 -3 -3 -3 -3 -3 -3 -3 -3 -2 -2 -3 -3 -2 -3 -3 -3 -2 -3 -2 -3 -3 -2 -2 -3 -2 -3 -2 -3 -1 -3 -2 -3 -2 0 0 26 -44zm0 0l-26 44c-12,-7 -16,-22 -9,-34 7,-13 23,-17 35,-10zm-121 -9l0 0 3 -2 4 -2 3 -1 4 -2 4 -1 3 -1 4 -1 4 -1 4 -1 4 0 4 0 3 -1 4 0 4 1 4 0 4 0 4 1 4 0 4 1 3 1 4 1 4 1 4 1 4 1 4 2 3 1 4 2 4 2 4 1 3 2 4 2 4 2 -26 44 -2 -1 -3 -2 -3 -1 -3 -1 -2 -2 -3 -1 -3 -1 -2 -1 -3 -1 -2 0 -3 -1 -2 -1 -3 0 -2 -1 -2 0 -3 0 -2 -1 -2 0 -2 0 -2 0 -2 0 -2 0 -2 1 -2 0 -2 0 -1 1 -2 0 -2 1 -1 1 -2 0 -1 1 -2 1 0 0 -25 -44zm0 0l25 44c-12,7 -28,3 -35,-9 -7,-13 -3,-28 10,-35zm-53 110l0 0 0 -5 0 -4 1 -4 0 -4 0 -4 1 -5 0 -4 1 -4 1 -4 1 -3 1 -4 1 -4 1 -4 1 -4 2 -3 1 -4 2 -3 2 -4 2 -3 2 -4 2 -3 2 -3 2 -3 3 -3 2 -3 3 -3 3 -3 3 -2 3 -3 3 -2 3 -2 4 -2 25 44 -1 1 -2 1 -1 1 -2 1 -1 1 -1 1 -2 2 -1 1 -1 1 -1 2 -1 1 -1 2 -1 2 -1 2 -1 2 -1 2 -1 2 -1 2 -1 2 -1 3 0 2 -1 2 0 3 -1 3 0 3 -1 2 0 3 0 3 -1 3 0 3 0 3 0 4 0 0 -51 0zm0 0l51 0c0,14 -11,25 -25,25 -14,0 -26,-11 -26,-25zm43 145l0 0 -2 -4 -3 -5 -2 -5 -3 -4 -2 -5 -2 -4 -2 -5 -3 -5 -1 -4 -2 -5 -2 -5 -2 -4 -2 -5 -1 -5 -2 -4 -1 -5 -1 -5 -1 -4 -2 -5 -1 -4 -1 -5 -1 -4 0 -5 -1 -4 -1 -5 0 -4 -1 -5 0 -4 0 -5 -1 -4 0 -4 0 -4 51 0 0 3 0 3 0 3 1 4 0 3 0 4 1 3 0 4 1 4 0 3 1 4 1 4 1 3 1 4 1 4 1 4 1 4 1 4 2 3 1 4 1 4 2 4 1 4 2 4 2 4 2 4 2 4 2 4 2 4 2 4 2 4 2 4 0 0 -44 25zm0 0l44 -25c7,12 3,28 -9,35 -12,7 -28,3 -35,-10zm105 110l0 0 -4 -2 -3 -2 -4 -2 -4 -3 -3 -2 -4 -3 -3 -3 -4 -2 -4 -3 -3 -3 -4 -3 -3 -3 -3 -4 -4 -3 -3 -3 -4 -4 -3 -3 -3 -4 -3 -3 -4 -4 -3 -4 -3 -4 -3 -4 -3 -4 -3 -4 -3 -4 -3 -4 -3 -5 -3 -4 -2 -5 -3 -4 -3 -5 44 -25 2 4 3 4 2 4 3 3 2 4 3 4 2 3 3 4 2 3 3 3 3 4 2 3 3 3 3 3 2 3 3 3 3 3 3 3 3 3 2 2 3 3 3 2 3 3 3 2 3 2 2 2 3 2 3 2 3 2 3 2 3 2 2 2 0 -1 -25 44zm0 0l25 -43c12,7 17,22 10,34 -7,12 -23,16 -35,9z"/>
     </g>
     <g>
      <path class="fil4" d="M756 3297l0 0 -4 2 -3 2 -4 1 -4 2 -3 1 -4 1 -4 1 -4 1 -4 1 -3 0 -4 0 -4 1 -4 0 -4 0 -4 -1 -4 0 -4 -1 -4 0 -3 -1 -4 -1 -4 -1 -4 -1 -4 -1 -4 -1 -3 -2 -4 -1 -4 -2 -4 -1 -3 -2 -4 -2 -4 -2 -4 -2 26 -44 3 1 2 2 3 1 3 2 2 1 3 1 3 1 2 1 3 1 2 1 3 0 2 1 3 0 2 1 2 0 3 0 2 1 2 0 2 0 2 0 2 0 2 0 2 -1 2 0 2 0 1 -1 2 0 2 -1 1 0 2 -1 2 -1 1 -1 0 0 26 44zm0 0l-26 -44c12,-7 28,-3 35,9 7,13 3,28 -9,35zm52 -109l0 0 0 4 0 4 0 4 -1 4 0 4 -1 5 0 4 -1 4 -1 4 -1 3 -1 4 -1 4 -1 4 -1 4 -2 3 -1 4 -2 3 -1 4 -2 3 -2 4 -2 3 -3 3 -2 3 -2 3 -3 3 -3 3 -3 3 -3 2 -3 3 -3 2 -3 2 -3 2 -26 -44 2 -1 1 -1 1 -1 2 -1 1 -1 1 -1 2 -1 1 -2 1 -1 1 -2 1 -1 1 -2 1 -2 1 -2 1 -2 1 -2 1 -2 1 -2 1 -2 1 -3 0 -2 1 -2 1 -3 0 -3 1 -2 0 -3 0 -3 1 -3 0 -3 0 -3 0 -3 0 -4 0 0 51 1zm0 0l-51 -1c0,-14 12,-25 26,-25 14,0 25,11 25,26zm-43 -146l0 0 3 4 2 5 3 5 2 4 2 5 3 4 2 5 2 5 2 4 2 5 1 5 2 4 2 5 1 5 2 4 1 5 1 5 2 4 1 5 1 4 1 5 1 4 1 5 0 4 1 5 0 4 1 5 0 4 1 5 0 4 0 4 0 5 -51 -1 0 -3 0 -3 0 -3 0 -4 -1 -3 0 -4 0 -3 -1 -4 -1 -4 0 -3 -1 -4 -1 -4 -1 -3 -1 -4 -1 -4 -1 -4 -1 -4 -1 -4 -1 -3 -2 -4 -1 -4 -2 -4 -1 -4 -2 -4 -2 -4 -2 -4 -1 -4 -2 -4 -2 -4 -3 -4 -2 -4 -2 -4 0 0 44 -25zm0 0l-44 25c-7,-12 -3,-28 9,-35 12,-7 28,-2 35,10zm-105 -110l0 0 4 2 4 2 3 2 4 3 3 2 4 3 4 3 3 2 4 3 3 3 4 3 3 3 4 4 3 3 3 3 4 4 3 3 3 4 4 4 3 3 3 4 3 4 3 4 3 4 3 4 3 4 3 4 3 5 3 4 3 5 2 4 3 5 -44 25 -2 -4 -3 -4 -2 -4 -2 -3 -3 -4 -2 -4 -3 -3 -2 -4 -3 -3 -3 -3 -2 -4 -3 -3 -3 -3 -2 -3 -3 -3 -3 -3 -3 -3 -3 -3 -2 -2 -3 -3 -3 -3 -3 -2 -3 -3 -3 -2 -2 -2 -3 -2 -3 -2 -3 -2 -3 -2 -3 -2 -2 -2 -3 -1 0 0 25 -44zm0 0l-25 44c-12,-7 -16,-23 -9,-35 7,-12 22,-16 34,-9zm-121 -10l0 0 4 -2 3 -2 4 -1 3 -2 4 -1 4 -1 4 -1 3 -1 4 0 4 -1 4 0 4 0 4 0 3 0 4 0 4 0 4 1 4 0 4 1 4 1 4 1 3 1 4 1 4 2 4 1 4 1 4 2 3 2 4 2 4 1 3 2 4 3 -25 44 -3 -2 -3 -2 -2 -1 -3 -1 -3 -1 -3 -2 -2 -1 -3 -1 -2 0 -3 -1 -2 -1 -3 -1 -2 0 -3 -1 -2 0 -2 0 -2 0 -3 0 -2 -1 -2 0 -2 1 -2 0 -2 0 -1 0 -2 1 -2 0 -2 1 -1 0 -2 1 -1 0 -2 1 -2 1 0 0 -25 -44zm0 0l25 44c-12,7 -27,3 -34,-9 -7,-12 -3,-28 9,-35zm-52 110l0 0 0 -4 0 -5 0 -4 0 -4 1 -4 0 -4 1 -4 0 -4 1 -4 1 -4 1 -4 1 -4 1 -4 2 -3 1 -4 2 -4 1 -3 2 -4 2 -3 2 -3 2 -4 2 -3 3 -3 2 -3 3 -3 2 -3 3 -2 3 -3 3 -2 3 -3 4 -2 3 -2 25 44 -1 1 -2 1 -1 1 -1 1 -2 1 -1 1 -1 2 -1 1 -2 2 -1 1 -1 2 -1 1 -1 2 -1 2 -1 2 -1 2 -1 2 -1 2 0 2 -1 3 -1 2 0 3 -1 2 -1 3 0 3 0 3 -1 2 0 3 0 3 -1 3 0 4 0 3 0 0 -50 0zm0 0l50 0c0,14 -11,25 -25,25 -14,0 -25,-11 -25,-25zm43 146l0 0 -3 -5 -3 -5 -2 -4 -2 -5 -3 -5 -2 -4 -2 -5 -2 -5 -2 -4 -2 -5 -2 -5 -1 -4 -2 -5 -2 -4 -1 -5 -2 -5 -1 -4 -1 -5 -1 -4 -1 -5 -1 -5 -1 -4 -1 -5 -1 -4 0 -5 -1 -4 0 -4 -1 -5 0 -4 0 -5 0 -4 0 -4 50 0 0 3 0 3 1 4 0 3 0 4 1 3 0 4 1 3 0 4 1 3 1 4 0 4 1 4 1 3 1 4 1 4 1 4 2 4 1 4 1 4 2 4 1 4 2 3 2 4 1 4 2 4 2 4 2 4 2 4 2 4 2 4 2 4 0 0 -43 26zm0 0l43 -26c8,12 3,28 -9,35 -12,7 -27,3 -34,-9zm104 110l0 0 -3 -2 -4 -3 -4 -2 -3 -3 -4 -2 -4 -3 -3 -2 -4 -3 -3 -3 -4 -3 -3 -3 -4 -3 -3 -3 -3 -4 -4 -3 -3 -3 -3 -4 -4 -4 -3 -3 -3 -4 -3 -4 -4 -4 -3 -4 -3 -4 -3 -4 -3 -4 -3 -4 -2 -4 -3 -5 -3 -4 -3 -5 -2 -4 43 -26 3 4 2 4 3 4 2 4 2 3 3 4 2 3 3 4 3 3 2 4 3 3 3 3 2 3 3 3 3 3 3 3 2 3 3 3 3 3 3 2 3 3 2 2 3 3 3 2 3 2 3 3 3 2 2 2 3 2 3 1 3 2 3 2 0 0 -26 44zm0 0l26 -44c12,7 16,22 9,34 -7,13 -23,17 -35,10z"/>
     </g>
    </g>
   </g>
  </g>
  <g>
   <path class="fil3" d="M1022 3478l0 0 -11 6 -11 5 -11 5 -11 5 -12 4 -12 3 -11 3 -12 2 -12 2 -12 2 -13 1 -12 1 -12 0 -13 -1 -12 0 -13 -1 -13 -2 -13 -2 -13 -2 -12 -3 -13 -4 -13 -3 -13 -4 -13 -5 -13 -4 -14 -6 -13 -5 -13 -6 -13 -6 -13 -7 -13 -7 -13 -7 25 -44 12 6 13 7 12 6 12 6 12 5 12 5 12 5 12 4 11 4 12 4 12 3 11 3 12 3 11 2 11 2 11 1 11 1 11 1 11 0 11 0 10 -1 10 -1 11 -1 10 -2 9 -2 10 -2 10 -3 9 -3 9 -4 9 -4 9 -4 9 -5 0 0 26 44zm0 0l-26 -44c12,-7 28,-3 35,9 7,13 3,28 -9,35zm167 -363l0 0 0 15 -1 15 -1 15 -1 14 -1 15 -2 14 -2 14 -2 14 -3 13 -3 13 -3 13 -4 13 -4 13 -4 12 -5 12 -5 12 -5 12 -6 11 -6 11 -6 11 -7 10 -7 10 -8 10 -7 9 -8 9 -9 9 -9 8 -9 8 -9 8 -10 7 -10 7 -10 6 -26 -44 9 -5 8 -6 8 -5 8 -7 7 -6 7 -7 7 -7 7 -8 7 -8 6 -8 6 -8 5 -9 6 -9 5 -10 5 -9 4 -10 5 -11 4 -10 4 -11 3 -11 4 -12 3 -12 2 -12 3 -12 2 -12 2 -13 1 -13 2 -13 1 -13 0 -14 1 -14 0 -14 0 0 51 0zm0 0l-51 0c0,-14 11,-25 25,-25 14,0 26,11 26,25zm-157 -530l0 0 9 17 10 17 9 17 8 18 9 17 8 17 8 17 7 17 7 17 7 17 7 17 6 17 6 17 6 17 5 17 5 17 5 17 5 17 4 16 4 17 3 16 3 17 3 16 3 16 2 16 2 16 2 16 1 16 1 16 1 15 1 15 0 15 -51 0 0 -14 -1 -14 0 -14 -1 -15 -2 -15 -1 -15 -2 -15 -2 -15 -3 -15 -3 -16 -3 -15 -3 -16 -4 -16 -4 -16 -4 -16 -4 -16 -5 -16 -5 -16 -6 -16 -6 -17 -6 -16 -6 -16 -7 -17 -6 -16 -8 -16 -7 -17 -8 -16 -8 -17 -8 -16 -9 -17 -9 -16 -9 -16 0 0 44 -26zm0 0l-44 26c-7,-12 -3,-28 9,-35 12,-7 28,-3 35,9zm-381 -401l0 0 13 8 13 8 13 8 13 9 13 9 13 10 13 9 13 10 12 11 13 11 13 11 12 11 13 11 12 12 12 13 12 12 12 13 12 13 12 13 12 14 12 14 11 14 11 15 12 15 11 15 11 15 10 16 11 15 10 17 11 16 10 17 10 16 -44 26 -10 -16 -10 -16 -9 -16 -10 -16 -11 -15 -10 -15 -10 -14 -11 -15 -11 -14 -11 -14 -11 -14 -11 -13 -11 -13 -11 -13 -12 -12 -11 -13 -12 -12 -12 -11 -11 -12 -12 -11 -12 -11 -12 -10 -12 -10 -12 -10 -12 -9 -12 -10 -12 -8 -13 -9 -12 -8 -12 -8 -12 -8 -12 -7 0 0 25 -44zm0 0l-25 44c-12,-7 -17,-22 -10,-34 7,-13 23,-17 35,-10zm-398 -36l0 0 11 -6 11 -6 11 -4 11 -5 12 -4 12 -3 11 -3 12 -3 12 -2 12 -1 13 -1 12 -1 12 0 13 0 12 1 13 1 13 2 13 2 13 2 12 3 13 3 13 4 13 4 13 4 13 5 14 5 13 6 13 6 13 6 13 7 13 7 13 7 -25 44 -12 -7 -13 -6 -12 -6 -12 -6 -12 -5 -12 -6 -12 -4 -12 -5 -11 -4 -12 -3 -12 -3 -11 -3 -12 -3 -11 -2 -11 -2 -11 -1 -11 -1 -11 -1 -11 0 -11 0 -10 1 -10 0 -11 2 -10 1 -9 2 -10 3 -10 3 -9 3 -9 3 -9 4 -9 5 -9 5 0 0 -26 -44zm0 0l26 44c-12,7 -28,2 -35,-10 -7,-12 -3,-27 9,-34zm-167 362l0 0 0 -15 1 -14 1 -15 1 -15 1 -14 2 -14 2 -14 2 -14 3 -13 3 -14 3 -13 4 -12 4 -13 4 -12 5 -12 5 -12 5 -12 6 -11 6 -11 6 -11 7 -10 7 -10 8 -10 7 -9 8 -9 9 -9 9 -9 9 -7 9 -8 10 -7 10 -7 10 -6 26 44 -9 5 -8 5 -8 6 -8 6 -7 7 -7 7 -7 7 -7 8 -7 7 -6 9 -6 8 -5 9 -6 9 -5 9 -5 10 -4 10 -5 11 -4 10 -4 11 -3 11 -4 12 -3 11 -2 12 -3 13 -2 12 -2 13 -1 13 -2 13 -1 13 0 14 -1 13 0 14 0 0 -51 0zm0 0l51 0c0,14 -11,26 -25,26 -14,0 -26,-12 -26,-26zm157 530l0 0 -9 -17 -10 -17 -9 -17 -8 -17 -9 -17 -8 -17 -8 -17 -7 -17 -7 -17 -7 -17 -7 -17 -6 -17 -6 -17 -6 -17 -5 -17 -5 -17 -5 -17 -5 -17 -4 -16 -4 -17 -3 -17 -3 -16 -3 -16 -3 -16 -2 -17 -2 -16 -2 -15 -1 -16 -1 -16 -1 -15 -1 -15 0 -16 51 0 0 15 1 14 0 14 1 15 2 15 1 15 2 15 2 15 3 15 3 16 3 15 3 16 4 16 4 16 4 16 4 16 5 16 5 16 6 16 6 16 6 17 6 16 7 16 6 17 8 16 7 17 8 16 8 17 8 16 9 16 9 17 9 16 0 0 -44 25zm0 0l44 -25c7,12 3,28 -9,35 -12,7 -28,3 -35,-10zm381 402l0 0 -13 -8 -13 -8 -13 -9 -13 -8 -13 -9 -13 -10 -13 -10 -13 -10 -12 -10 -13 -11 -13 -11 -12 -11 -13 -12 -12 -12 -12 -12 -12 -12 -12 -13 -12 -13 -12 -14 -12 -13 -12 -14 -11 -15 -11 -14 -12 -15 -11 -15 -11 -15 -10 -16 -11 -16 -10 -16 -11 -16 -10 -17 -10 -17 44 -25 10 16 10 16 9 16 10 15 11 16 10 15 10 14 11 15 11 14 11 14 11 14 11 13 11 13 11 13 12 12 11 13 12 12 12 11 11 12 12 11 12 10 12 11 12 10 12 10 12 9 12 9 12 9 13 9 12 8 12 8 12 7 12 8 0 0 -25 44zm0 0l25 -44c12,7 17,22 10,34 -7,12 -23,17 -35,10z"/>
  </g>
  <g>
   <path class="fil3" d="M1656 2755l25 -44c12,7 16,23 9,35 -7,12 -22,16 -34,9zm-667 -385l25 -44 667 385 -25 44 -667 -385zm25 -44l-25 44c-13,-7 -17,-23 -10,-35 7,-12 23,-16 35,-9z"/>
  </g>
  <g>
   <path class="fil3" d="M1572 2803l26 -44c12,7 16,23 9,35 -7,12 -23,16 -35,9zm-500 -289l25 -44 501 289 -26 44 -500 -289zm25 -44l-25 44c-12,-7 -16,-22 -9,-34 7,-12 22,-17 34,-10z"/>
  </g>
  <g>
   <path class="fil3" d="M1572 2900l26 -44c12,7 16,22 9,34 -7,12 -23,17 -35,10zm-250 -145l25 -44 251 145 -26 44 -250 -145zm25 -44l-25 44c-12,-7 -16,-22 -9,-35 7,-12 22,-16 34,-9z"/>
  </g>
  <g>
   <path class="fil3" d="M1489 3814l25 -44c12,7 17,23 10,35 -7,12 -23,16 -35,9zm-417 -241l25 -44 417 241 -25 44 -417 -241zm25 -44l-25 44c-12,-7 -16,-22 -9,-34 7,-12 22,-17 34,-10z"/>
  </g>
  <g>
   <path class="fil3" d="M1490 3893l23 -45c13,7 18,22 11,34 -7,13 -22,17 -34,11zm-417 -223l24 -45 416 223 -23 45 -417 -223zm24 -45l-24 45c-13,-7 -17,-22 -11,-34 7,-13 22,-17 35,-11z"/>
  </g>
  <path class="fil1" d="M1322 2292c0,26 37,48 82,48 46,0 82,-22 82,-48l0 -1486c0,-27 -36,-48 -82,-48 -45,0 -82,21 -82,48l0 1486z"/>
 </g>
</svg>
