<?xml version="1.0" encoding="UTF-8"?>
<!DOCTYPE svg PUBLIC "-//W3C//DTD SVG 1.1//EN" "http://www.w3.org/Graphics/SVG/1.1/DTD/svg11.dtd">
<!-- Creator: CorelDRAW X7 -->
<svg xmlns="http://www.w3.org/2000/svg" xml:space="preserve" width="91.4398mm" height="91.3552mm" version="1.1" style="shape-rendering:geometricPrecision; text-rendering:geometricPrecision; image-rendering:optimizeQuality; fill-rule:evenodd; clip-rule:evenodd"
viewBox="0 0 9144 9136"
 xmlns:xlink="http://www.w3.org/1999/xlink">
 <defs>
  <style type="text/css">
   <![CDATA[
    .fil0 {fill:#61003F}
   ]]>
  </style>
 </defs>
 <g id="Layer_x0020_1">
  <metadata id="CorelCorpID_0Corel-Layer"/>
  <g id="_2548765574272">
   <path class="fil0" d="M1958 93c808,-175 3459,-50 4473,-52 724,-2 1360,153 1773,505 370,315 717,734 847,1368 176,857 47,3456 49,4503 3,1313 -564,2355 -1861,2626 -836,175 -3470,47 -4502,49 -794,2 -1251,-68 -1777,-495 -351,-285 -723,-697 -861,-1351 -184,-875 -55,-3470 -57,-4523 -3,-1483 647,-2356 1916,-2630zm6289 6995c138,-598 41,-2908 41,-3694 0,-812 160,-2182 -1174,-2498 -567,-134 -2945,-39 -3705,-39 -780,0 -2197,-185 -2505,1170 -146,639 -45,2913 -45,3718 0,839 -163,2186 1193,2495 589,135 2928,38 3707,38 1306,0 2217,-13 2488,-1190z"/>
   <path class="fil0" d="M6686 1757c690,-403 1233,708 554,1039 -745,362 -1194,-665 -554,-1039z"/>
   <path class="fil0" d="M6796 5006c-655,3001 -5058,2001 -4441,-919 624,-2948 5061,-1923 4441,919zm-839 0c564,-1874 -2206,-2654 -2765,-891 -291,918 306,1636 947,1838 860,270 1626,-309 1818,-947z"/>
  </g>
 </g>
</svg>
