<?xml version="1.0" encoding="UTF-8"?>
<!DOCTYPE svg PUBLIC "-//W3C//DTD SVG 1.1//EN" "http://www.w3.org/Graphics/SVG/1.1/DTD/svg11.dtd">
<!-- Creator: CorelDRAW X7 -->
<svg xmlns="http://www.w3.org/2000/svg" xml:space="preserve" width="34.0358mm" height="91.4398mm" version="1.1" style="shape-rendering:geometricPrecision; text-rendering:geometricPrecision; image-rendering:optimizeQuality; fill-rule:evenodd; clip-rule:evenodd"
viewBox="0 0 3404 9144"
 xmlns:xlink="http://www.w3.org/1999/xlink">
 <defs>
  <style type="text/css">
   <![CDATA[
    .str1 {stroke:#61003F;stroke-width:84.66;stroke-linecap:round;stroke-linejoin:round}
    .str0 {stroke:#61003F;stroke-width:84.66;stroke-linecap:round;stroke-linejoin:round}
    .fil0 {fill:#61003F}
    .fil1 {fill:#FFF4F0}
   ]]>
  </style>
 </defs>
 <g id="Layer_x0020_1">
  <metadata id="CorelCorpID_0Corel-Layer"/>
  <path class="fil0 str0" d="M1846 9002l-164 95 -1642 -8149 164 -95 118 585 1313 -758 -118 -585 165 -95 1641 8149 -164 95 -254 -1258 -1313 759 254 1257zm1020 -2210l-166 -824 -1313 758 166 824 1313 -758zm-205 -1019l-166 -824 -1313 758 166 824 1313 -758zm-205 -1019l-166 -823 -1313 758 166 823 1313 -758zm-205 -1018l-166 -824 -1313 758 166 824 1313 -758zm-205 -1019l-166 -824 -1313 758 166 824 1313 -758zm-206 -1019l-166 -823 -1312 758 165 823 1313 -758z"/>
  <path class="fil1 str1" d="M1971 9049l-164 95 -1642 -8149 165 -95 117 585 1313 -758 -117 -585 164 -95 1641 8149 -164 95 -253 -1257 -1313 758 253 1257zm1020 -2210l-166 -824 -1313 758 166 824 1313 -758zm-205 -1019l-166 -823 -1313 758 166 823 1313 -758zm-205 -1018l-166 -824 -1313 758 166 824 1313 -758zm-205 -1019l-166 -824 -1313 758 166 824 1313 -758zm-205 -1019l-166 -823 -1313 758 166 823 1313 -758zm-205 -1018l-166 -824 -1313 758 166 824 1313 -758z"/>
 </g>
</svg>
