<?xml version="1.0" encoding="UTF-8"?>
<!DOCTYPE svg PUBLIC "-//W3C//DTD SVG 1.1//EN" "http://www.w3.org/Graphics/SVG/1.1/DTD/svg11.dtd">
<!-- Creator: CorelDRAW X7 -->
<svg xmlns="http://www.w3.org/2000/svg" xml:space="preserve" width="0.2538mm" height="91.4398mm" version="1.1" style="shape-rendering:geometricPrecision; text-rendering:geometricPrecision; image-rendering:optimizeQuality; fill-rule:evenodd; clip-rule:evenodd"
viewBox="0 0 25 9144"
 xmlns:xlink="http://www.w3.org/1999/xlink">
 <defs>
  <style type="text/css">
   <![CDATA[
    .fil0 {fill:#61003F;fill-rule:nonzero}
   ]]>
  </style>
 </defs>
 <g id="Layer_x0020_1">
  <metadata id="CorelCorpID_0Corel-Layer"/>
  <g>
   <path class="fil0" d="M-27 0c0,-22 18,-40 40,-40 22,0 40,18 40,40l-80 0zm80 160l-80 0 0 -160 80 0 0 160zm0 0c0,22 -18,40 -40,40 -22,0 -40,-18 -40,-40l80 0zm-80 320c0,-22 18,-40 40,-40 22,0 40,18 40,40l-80 0zm80 160l-80 0 0 -160 80 0 0 160zm0 0c0,22 -18,40 -40,40 -22,0 -40,-18 -40,-40l80 0zm-80 320c0,-23 18,-40 40,-40 22,0 40,17 40,40l-80 0zm80 159l-80 0 0 -159 80 0 0 159zm0 0c0,23 -18,40 -40,40 -22,0 -40,-17 -40,-40l80 0zm-80 320c0,-22 18,-40 40,-40 22,0 40,18 40,40l-80 0zm80 160l-80 0 0 -160 80 0 0 160zm0 0c0,22 -18,40 -40,40 -22,0 -40,-18 -40,-40l80 0zm-80 320c0,-22 18,-40 40,-40 22,0 40,18 40,40l-80 0zm80 160l-80 0 0 -160 80 0 0 160zm0 0c0,22 -18,40 -40,40 -22,0 -40,-18 -40,-40l80 0zm-80 320c0,-22 18,-40 40,-40 22,0 40,18 40,40l-80 0zm80 160l-80 0 0 -160 80 0 0 160zm0 0c0,22 -18,40 -40,40 -22,0 -40,-18 -40,-40l80 0zm-80 320c0,-22 18,-40 40,-40 22,0 40,18 40,40l-80 0zm80 160l-80 0 0 -160 80 0 0 160zm0 0c0,22 -18,40 -40,40 -22,0 -40,-18 -40,-40l80 0zm-80 319c0,-22 18,-40 40,-40 22,0 40,18 40,40l-80 0zm80 160l-80 0 0 -160 80 0 0 160zm0 0c0,22 -18,40 -40,40 -22,0 -40,-18 -40,-40l80 0zm-80 320c0,-22 18,-40 40,-40 22,0 40,18 40,40l-80 0zm80 160l-80 0 0 -160 80 0 0 160zm0 0c0,22 -18,40 -40,40 -22,0 -40,-18 -40,-40l80 0zm-80 320c0,-22 18,-40 40,-40 22,0 40,18 40,40l-80 0zm80 160l-80 0 0 -160 80 0 0 160zm0 0c0,22 -18,40 -40,40 -22,0 -40,-18 -40,-40l80 0zm-80 320c0,-22 18,-40 40,-40 22,0 40,18 40,40l-80 0zm80 160l-80 0 0 -160 80 0 0 160zm0 0c0,22 -18,40 -40,40 -22,0 -40,-18 -40,-40l80 0zm-80 320c0,-23 18,-40 40,-40 22,0 40,17 40,40l-80 0zm80 159l-80 0 0 -159 80 0 0 159zm0 0c0,23 -18,40 -40,40 -22,0 -40,-17 -40,-40l80 0zm-80 320c0,-22 18,-40 40,-40 22,0 40,18 40,40l-80 0zm80 160l-80 0 0 -160 80 0 0 160zm0 0c0,22 -18,40 -40,40 -22,0 -40,-18 -40,-40l80 0zm-80 320c0,-22 18,-40 40,-40 22,0 40,18 40,40l-80 0zm80 160l-80 0 0 -160 80 0 0 160zm0 0c0,22 -18,40 -40,40 -22,0 -40,-18 -40,-40l80 0zm-80 320c0,-22 18,-40 40,-40 22,0 40,18 40,40l-80 0zm80 160l-80 0 0 -160 80 0 0 160zm0 0c0,22 -18,40 -40,40 -22,0 -40,-18 -40,-40l80 0zm-80 320c0,-22 18,-40 40,-40 22,0 40,18 40,40l-80 0zm80 160l-80 0 0 -160 80 0 0 160zm0 0c0,22 -18,40 -40,40 -22,0 -40,-18 -40,-40l80 0zm-80 319c0,-22 18,-39 40,-39 22,0 40,17 40,39l-80 0zm80 160l-80 0 0 -160 80 0 0 160zm0 0c0,22 -18,40 -40,40 -22,0 -40,-18 -40,-40l80 0zm-80 320c0,-22 18,-40 40,-40 22,0 40,18 40,40l-80 0zm80 160l-80 0 0 -160 80 0 0 160zm0 0c0,22 -18,40 -40,40 -22,0 -40,-18 -40,-40l80 0zm-80 320c0,-22 18,-40 40,-40 22,0 40,18 40,40l-80 0zm80 160l-80 0 0 -160 80 0 0 160zm0 0c0,22 -18,40 -40,40 -22,0 -40,-18 -40,-40l80 0zm-80 320c0,-22 18,-40 40,-40 22,0 40,18 40,40l-80 0zm0 28l0 -28 80 0 0 28 -80 0zm80 0c0,22 -18,40 -40,40 -22,0 -40,-18 -40,-40l80 0z"/>
  </g>
 </g>
</svg>
