<?xml version="1.0" encoding="UTF-8"?>
<!DOCTYPE svg PUBLIC "-//W3C//DTD SVG 1.1//EN" "http://www.w3.org/Graphics/SVG/1.1/DTD/svg11.dtd">
<!-- Creator: CorelDRAW X7 -->
<svg xmlns="http://www.w3.org/2000/svg" xml:space="preserve" width="68.9186mm" height="91.4398mm" version="1.1" style="shape-rendering:geometricPrecision; text-rendering:geometricPrecision; image-rendering:optimizeQuality; fill-rule:evenodd; clip-rule:evenodd"
viewBox="0 0 6892 9144"
 xmlns:xlink="http://www.w3.org/1999/xlink">
 <defs>
  <style type="text/css">
   <![CDATA[
    .fil0 {fill:#61003F}
    .fil1 {fill:#DB4C1C}
   ]]>
  </style>
 </defs>
 <g id="Layer_x0020_1">
  <metadata id="CorelCorpID_0Corel-Layer"/>
  <g id="_2548769549872">
   <path class="fil0" d="M4907 66l-4266 2464c-160,106 -317,274 -439,486 -122,212 -189,431 -202,623l0 2179c13,178 80,321 203,392 123,71 280,58 440,-20l150 -86 0 1831 1189 -2518 2928 -1690c159,-107 316,-275 438,-486 122,-212 190,-432 202,-624l0 -2006 0 -173c-12,-178 -80,-320 -203,-391 -123,-71 -280,-59 -440,19z"/>
   <path class="fil1" d="M5578 671l-4267 2463c-160,107 -316,275 -438,487 -122,211 -190,431 -202,623l0 2179c12,178 80,320 203,391 123,71 280,59 440,-19l150 -87 0 1831 1189 -2517 2927 -1690c160,-107 317,-275 439,-487 122,-212 189,-431 202,-623l0 -2007 0 -172c-13,-178 -80,-321 -203,-392 -123,-70 -280,-58 -440,20z"/>
   <path class="fil0" d="M6249 1276l-4267 2463c-160,107 -316,275 -438,486 -123,212 -190,432 -202,624l0 2179c12,178 80,320 203,391 123,71 279,59 440,-20l150 -86 0 1831 1189 -2518 2927 -1690c160,-106 316,-274 439,-486 122,-212 189,-431 202,-623l0 -2007 0 -173c-13,-178 -80,-320 -203,-391 -123,-71 -280,-58 -440,20z"/>
  </g>
 </g>
</svg>
