<?xml version="1.0" encoding="UTF-8"?>
<!DOCTYPE svg PUBLIC "-//W3C//DTD SVG 1.1//EN" "http://www.w3.org/Graphics/SVG/1.1/DTD/svg11.dtd">
<!-- Creator: CorelDRAW X7 -->
<svg xmlns="http://www.w3.org/2000/svg" xml:space="preserve" width="91.4398mm" height="56.8112mm" version="1.1" style="shape-rendering:geometricPrecision; text-rendering:geometricPrecision; image-rendering:optimizeQuality; fill-rule:evenodd; clip-rule:evenodd"
viewBox="0 0 9144 5681"
 xmlns:xlink="http://www.w3.org/1999/xlink">
 <defs>
  <style type="text/css">
   <![CDATA[
    .str3 {stroke:#61003F;stroke-width:84.67;stroke-linecap:round;stroke-linejoin:round}
    .str2 {stroke:#61003F;stroke-width:84.67;stroke-linecap:round;stroke-linejoin:round}
    .str0 {stroke:#61003F;stroke-width:84.67;stroke-linecap:round;stroke-linejoin:round}
    .str1 {stroke:#61003F;stroke-width:84.67;stroke-linecap:round;stroke-linejoin:round}
    .fil4 {fill:none}
    .fil1 {fill:#61003F}
    .fil5 {fill:#DB4C1C}
    .fil0 {fill:#FFF4F0}
    .fil3 {fill:#61003F;fill-rule:nonzero}
    .fil2 {fill:#61003F;fill-rule:nonzero}
   ]]>
  </style>
   <clipPath id="id0">
    <path d="M7205 3918c231,0 419,109 419,243 0,134 -188,243 -419,243 -232,0 -419,-109 -419,-243 0,-134 187,-243 419,-243z"/>
   </clipPath>
 </defs>
 <g id="Layer_x0020_1">
  <metadata id="CorelCorpID_0Corel-Layer"/>
  <path class="fil0 str0" d="M2931 460c-653,376 -2549,1996 -2931,1398l0 398c0,64 40,121 106,166l5559 3210c75,30 167,49 266,49 99,0 191,-19 266,-49l2860 -1652c55,-43 87,-97 87,-155l0 -399c-298,536 -4800,-2478 -5645,-2966 -77,-38 -176,-61 -284,-61 -109,0 -208,23 -284,61z"/>
  <path class="fil0 str1" d="M2931 61l-2826 1631c-65,45 -105,102 -105,166 0,63 40,121 106,165l5559 3210c75,31 167,49 266,49 99,0 191,-18 266,-49l2860 -1651c55,-44 87,-98 87,-156 0,-58 -32,-112 -87,-156l-5558 -3209c-77,-38 -176,-60 -284,-60 -109,0 -208,22 -284,60z"/>
  <polygon class="fil0 str2" points="5252,4798 668,2152 3724,387 8308,3034 "/>
  <path class="fil1" d="M1581 1307c-16,9 -39,15 -64,15 -51,0 -91,-23 -91,-53 0,-15 10,-28 27,-38l679 -391c16,-10 39,-16 64,-16 50,0 91,24 91,53 0,15 -10,28 -26,38l0 0 -680 392z"/>
  <ellipse class="fil1" cx="1292" cy="1399" rx="91" ry="53"/>
  <path class="fil0" d="M7205 3918c231,0 419,109 419,243 0,134 -188,243 -419,243 -232,0 -419,-109 -419,-243 0,-134 187,-243 419,-243z"/>
  <g style="clip-path:url(#id0)">
   <g id="_2548613347200">
    <g>
     <path id="1" class="fil0" d="M7205 4061c231,0 419,108 419,243 0,134 -188,243 -419,243 -232,0 -419,-109 -419,-243 0,-135 187,-243 419,-243z"/>
     <path id="2" class="fil2" d="M7666 4304l-85 0 0 0 0 -9 -1 -9 -2 -9 -3 -8 -3 -9 -5 -9 -5 -9 -6 -8 -6 -9 -8 -8 -8 -9 -10 -8 -10 -9 -11 -8 -11 -7 -12 -8 -14 -7 -13 -7 -15 -6 -15 -7 -15 -5 -17 -6 -16 -5 -17 -4 -18 -4 -18 -4 -19 -3 -19 -3 -19 -2 -20 -1 -20 -1 -20 0 0 -84 22 0 23 1 22 2 22 2 22 3 21 3 20 4 21 5 20 5 19 6 19 6 18 7 18 7 17 8 17 9 16 9 16 9 14 10 14 10 14 11 12 11 12 12 11 13 10 12 9 14 8 14 7 14 6 15 5 15 3 16 2 16 1 16 0 0zm-461 285l0 -84 0 0 20 -1 20 -1 20 -1 19 -2 19 -3 19 -3 18 -3 18 -4 17 -5 16 -5 17 -5 15 -6 15 -6 15 -7 13 -7 14 -7 12 -7 11 -8 11 -8 10 -8 10 -9 8 -8 8 -9 6 -8 6 -9 5 -9 5 -9 3 -8 3 -9 2 -9 1 -8 0 -9 85 0 -1 16 -2 16 -3 15 -5 16 -6 14 -7 15 -8 14 -9 13 -10 13 -11 12 -12 12 -12 11 -14 11 -14 11 -14 9 -16 10 -16 9 -17 8 -17 8 -18 7 -18 7 -19 6 -19 6 -20 5 -21 5 -20 4 -21 4 -22 2 -22 3 -22 1 -23 1 -22 1 0 0zm-462 -285l85 0 0 0 0 9 1 8 2 9 3 9 3 8 5 9 5 9 6 9 6 8 8 9 8 8 10 9 10 8 11 8 11 8 13 7 13 7 13 7 15 7 15 6 15 6 17 5 16 5 18 5 17 4 18 3 19 3 19 3 19 2 20 1 20 1 21 1 0 84 -23 -1 -23 -1 -22 -1 -22 -3 -21 -2 -22 -4 -20 -4 -21 -5 -20 -5 -19 -6 -19 -6 -18 -7 -18 -7 -17 -8 -17 -8 -16 -9 -16 -10 -14 -9 -14 -11 -14 -11 -12 -11 -12 -12 -11 -12 -10 -13 -9 -13 -8 -14 -7 -15 -6 -14 -5 -16 -3 -15 -2 -16 -1 -16 0 0zm462 -285l0 84 0 0 -21 0 -20 1 -20 1 -19 2 -19 3 -19 3 -18 4 -17 4 -18 4 -16 5 -17 6 -15 5 -15 7 -15 6 -13 7 -13 7 -13 8 -11 7 -11 8 -10 9 -10 8 -8 9 -8 8 -6 9 -6 8 -5 9 -5 9 -3 9 -3 8 -2 9 -1 9 0 9 -85 0 1 -16 2 -16 3 -16 5 -15 6 -15 7 -14 8 -14 9 -14 10 -12 11 -13 12 -12 12 -11 14 -11 14 -10 14 -10 16 -9 16 -9 17 -9 17 -8 18 -7 18 -7 19 -6 19 -6 20 -5 21 -5 20 -4 22 -3 21 -3 22 -2 22 -2 23 -1 23 0 0 0z"/>
    </g>
   </g>
  </g>
  <g>
   <path class="fil3" d="M7666 4161l-85 0 0 0 0 -9 -1 -8 -2 -9 -3 -9 -3 -9 -5 -8 -5 -9 -6 -9 -6 -8 -8 -9 -8 -8 -10 -9 -10 -8 -11 -8 -11 -8 -12 -7 -14 -8 -13 -6 -15 -7 -15 -6 -15 -6 -17 -5 -16 -5 -17 -5 -18 -4 -18 -3 -19 -4 -19 -2 -19 -2 -20 -2 -20 0 -20 -1 0 -84 22 1 23 1 22 1 22 2 22 3 21 4 20 4 21 5 20 5 19 5 19 7 18 7 18 7 17 8 17 8 16 9 16 9 14 10 14 11 14 11 12 11 12 12 11 12 10 13 9 13 8 14 7 14 6 15 5 16 3 15 2 16 1 16 0 0zm-461 285l0 -84 0 0 20 0 20 -1 20 -2 19 -2 19 -2 19 -3 18 -4 18 -4 17 -4 16 -5 17 -6 15 -6 15 -6 15 -6 13 -7 14 -7 12 -8 11 -8 11 -8 10 -8 10 -8 8 -9 8 -8 6 -9 6 -9 5 -8 5 -9 3 -9 3 -8 2 -9 1 -9 0 -9 85 0 -1 16 -2 16 -3 16 -5 15 -6 15 -7 14 -8 14 -9 13 -10 13 -11 13 -12 11 -12 12 -14 11 -14 10 -14 10 -16 9 -16 9 -17 9 -17 7 -18 8 -18 7 -19 6 -19 6 -20 5 -21 4 -20 5 -21 3 -22 3 -22 2 -22 2 -23 1 -22 0 0 0zm-462 -285l85 0 0 0 0 9 1 9 2 9 3 8 3 9 5 9 5 8 6 9 6 9 8 8 8 9 10 8 10 8 11 8 11 8 13 8 13 7 13 7 15 6 15 6 15 6 17 6 16 5 18 4 17 4 18 4 19 3 19 2 19 2 20 2 20 1 21 0 0 84 -23 0 -23 -1 -22 -2 -22 -2 -21 -3 -22 -3 -20 -5 -21 -4 -20 -5 -19 -6 -19 -6 -18 -7 -18 -8 -17 -7 -17 -9 -16 -9 -16 -9 -14 -10 -14 -10 -14 -11 -12 -12 -12 -11 -11 -13 -10 -13 -9 -13 -8 -14 -7 -14 -6 -15 -5 -15 -3 -16 -2 -16 -1 -16 0 0zm462 -285l0 84 0 0 -21 1 -20 0 -20 2 -19 2 -19 2 -19 4 -18 3 -17 4 -18 5 -16 5 -17 5 -15 6 -15 6 -15 7 -13 6 -13 8 -13 7 -11 8 -11 8 -10 8 -10 9 -8 8 -8 9 -6 8 -6 9 -5 9 -5 8 -3 9 -3 9 -2 9 -1 8 0 9 -85 0 1 -16 2 -16 3 -15 5 -16 6 -15 7 -14 8 -14 9 -13 10 -13 11 -12 12 -12 12 -11 14 -11 14 -11 14 -10 16 -9 16 -9 17 -8 17 -8 18 -7 18 -7 19 -7 19 -5 20 -5 21 -5 20 -4 22 -4 21 -3 22 -2 22 -1 23 -1 23 -1 0 0z"/>
  </g>
  <line class="fil4 str3" x1="106" y1="2023" x2="106" y2= "2422" />
  <line class="fil4 str3" x1="5665" y1="5233" x2="5665" y2= "5632" />
  <line class="fil4 str3" x1="5931" y1="5282" x2="5931" y2= "5681" />
  <line class="fil4 str3" x1="6197" y1="5233" x2="6197" y2= "5632" />
  <polygon class="fil5" points="5980,3171 3622,1810 6081,390 8439,1752 "/>
  <polygon class="fil1" points="7169,2263 5627,1373 7235,444 8778,1335 "/>
 </g>
</svg>
