<?xml version="1.0" encoding="UTF-8"?>
<!DOCTYPE svg PUBLIC "-//W3C//DTD SVG 1.1//EN" "http://www.w3.org/Graphics/SVG/1.1/DTD/svg11.dtd">
<!-- Creator: CorelDRAW X7 -->
<svg xmlns="http://www.w3.org/2000/svg" xml:space="preserve" width="297mm" height="297mm" version="1.1" style="shape-rendering:geometricPrecision; text-rendering:geometricPrecision; image-rendering:optimizeQuality; fill-rule:evenodd; clip-rule:evenodd"
viewBox="0 0 29700 29700"
 xmlns:xlink="http://www.w3.org/1999/xlink">
 <defs>
  <style type="text/css">
   <![CDATA[
    .fil0 {fill:#61003F}
   ]]>
  </style>
 </defs>
 <g id="Layer_x0020_1">
  <metadata id="CorelCorpID_0Corel-Layer"/>
  <path class="fil0" d="M21242 9402c1291,1486 2072,3426 2072,5549 0,4675 -3789,8464 -8464,8464 -4675,0 -8465,-3789 -8465,-8464 0,-2125 783,-4066 2076,-5553l1853 1611c-918,1055 -1474,2433 -1474,3942 0,3319 2691,6010 6010,6010 3319,0 6010,-2691 6010,-6010 0,-1509 -556,-2887 -1474,-3942l-1916 1644 -535 -6369 6219 1470 -1912 1648z"/>
 </g>
</svg>
