<?xml version="1.0" encoding="UTF-8"?>
<!DOCTYPE svg PUBLIC "-//W3C//DTD SVG 1.1//EN" "http://www.w3.org/Graphics/SVG/1.1/DTD/svg11.dtd">
<!-- Creator: CorelDRAW X7 -->
<svg xmlns="http://www.w3.org/2000/svg" xml:space="preserve" width="91.4398mm" height="79.1632mm" version="1.1" style="shape-rendering:geometricPrecision; text-rendering:geometricPrecision; image-rendering:optimizeQuality; fill-rule:evenodd; clip-rule:evenodd"
viewBox="0 0 9144 7916"
 xmlns:xlink="http://www.w3.org/1999/xlink">
 <defs>
  <style type="text/css">
   <![CDATA[
    .str0 {stroke:#61003F;stroke-width:84.65;stroke-linecap:round;stroke-linejoin:round}
    .str2 {stroke:#61003F;stroke-width:84.65;stroke-linecap:round;stroke-linejoin:round}
    .str3 {stroke:#61003F;stroke-width:84.65;stroke-linecap:round;stroke-linejoin:round}
    .str5 {stroke:#61003F;stroke-width:84.65;stroke-linecap:round;stroke-linejoin:round}
    .str1 {stroke:#61003F;stroke-width:84.65;stroke-linecap:round;stroke-linejoin:round}
    .str4 {stroke:#61003F;stroke-width:84.66;stroke-linecap:round;stroke-linejoin:round}
    .fil1 {fill:none}
    .fil0 {fill:#FFF4F0}
   ]]>
  </style>
 </defs>
 <g id="Layer_x0020_1">
  <metadata id="CorelCorpID_0Corel-Layer"/>
  <g id="_2512748908672">
   <g>
    <polygon class="fil0 str0" points="5944,5278 9144,3430 7772,-1 4572,1846 "/>
    <line class="fil1 str0" x1="5029" y1="1582" x2="6401" y2= "5014" />
    <line class="fil1 str0" x1="5486" y1="1318" x2="6858" y2= "4750" />
    <line class="fil1 str0" x1="5944" y1="1055" x2="7315" y2= "4486" />
    <line class="fil1 str0" x1="6401" y1="791" x2="7772" y2= "4222" />
    <line class="fil1 str0" x1="6858" y1="527" x2="8230" y2= "3958" />
    <line class="fil1 str0" x1="7315" y1="263" x2="8687" y2= "3694" />
    <line class="fil1 str0" x1="4743" y1="2275" x2="7944" y2= "428" />
    <line class="fil1 str0" x1="4915" y1="2704" x2="8115" y2= "857" />
    <line class="fil1 str0" x1="5086" y1="3133" x2="8287" y2= "1286" />
    <line class="fil1 str0" x1="5258" y1="3562" x2="8458" y2= "1714" />
    <line class="fil1 str0" x1="5429" y1="3991" x2="8630" y2= "2143" />
    <line class="fil1 str0" x1="5601" y1="4420" x2="8801" y2= "2572" />
    <line class="fil1 str0" x1="5772" y1="4849" x2="8973" y2= "3001" />
   </g>
   <path class="fil0 str1" d="M2550 4293c-180,-104 -270,-325 -270,-597 0,-272 89,-595 269,-906 179,-311 414,-550 650,-686 235,-136 471,-168 652,-64l2281 1327 -1291 2238 -2291 -1312z"/>
   <path class="fil0 str2" d="M5113 5665c-28,1 -56,1 -84,-1l0 0c-67,-7 -131,-26 -188,-59 -179,-104 -269,-323 -269,-593 0,-270 89,-591 267,-900 178,-308 412,-546 646,-681 234,-135 468,-167 647,-64 60,35 109,82 149,139l340 587 -903 1575 -605 -3z"/>
   <path class="fil0 str3" d="M7545 6419l-8 5 -8 4 -7 4 -8 4 -8 4 -8 4 -7 4 -8 4 -8 3 0 0 -7 4 -8 3 -8 3 -8 3 0 0 -7 3 -8 3 -8 3 -7 3 0 0 -8 2 -7 2 -8 3 0 0 -8 2 -7 2 -8 2 -7 2 -8 1 0 0 -7 2 0 0 -8 2 0 0 -7 1 -7 1 -8 1 -7 1 -7 1 -8 1 -7 0 -7 1 0 0 -7 0 0 0 -8 0 0 0 -7 1 -7 0 -7 -1 -7 0 -7 0 0 0 -7 -1 -7 -1 -7 0 -6 -1 0 0 -7 -1 -7 -1 0 0 -7 -2 -6 -1 -7 -2 -7 -2 -6 -1 -7 -2 -6 -2 -6 -3 -7 -2 -6 -3 -6 -2 -6 -3 -6 -3 -7 -3 -6 -3 -6 -4 0 0 0 2 -1597 -931c-125,-72 -188,-226 -188,-416 0,-189 62,-415 187,-631 125,-217 289,-384 453,-479 163,-93 326,-116 451,-46l0 0 1 0 3 2 1 1 1602 917 0 0 6 4 0 0 6 4 0 0 5 3 0 0 6 4 6 4 0 0 5 4 5 4 6 5 0 0c3,3 6,5 10,9 3,3 6,6 10,9l0 0c3,3 6,6 9,10l0 0c3,3 6,6 9,10l0 0 5 5 4 5 0 0c3,4 5,8 8,11l4 6 0 0c3,4 5,8 8,12l0 0 4 6 0 0 3 6 0 0 4 6 3 6 4 6 0 0 3 7 3 6 0 0 3 7 3 7 0 0 3 6 3 7 0 0 3 7 3 7 0 0 2 7 3 7 2 8 2 7 2 7 2 8 2 7 2 8 2 8 0 0 1 4c25,60 37,131 37,209 0,163 -54,357 -162,544 -68,119 -151,221 -238,300l-2 1 -7 8 -7 8 -7 8 0 0 -8 7 0 0 -7 8 -7 7 -8 7 -7 8 -7 7 0 0 -8 7 -7 7 -8 6 -7 7 -8 7 0 0 -7 6 -8 7 -8 6 -7 6 -8 7 -7 6 -8 6 0 0 -8 5 -7 6 -8 6 -8 5 -7 6 -8 5 -8 5 -8 6 -7 5 -8 5 -8 4 -8 5 -7 5 -8 4z"/>
   <path class="fil0 str3" d="M7545 6419c-166,96 -331,118 -458,45 -126,-73 -189,-227 -189,-418 0,-191 63,-418 188,-636 126,-218 292,-386 457,-481 165,-96 331,-119 457,-46 90,52 148,146 174,264 25,60 37,131 37,209 0,163 -54,357 -162,544 -68,119 -151,221 -238,300 -84,92 -175,167 -266,219z"/>
   <path class="fil0 str4" d="M7659 6312c-142,82 -283,101 -391,38 -109,-62 -163,-194 -163,-358 0,-163 54,-357 162,-544 107,-187 249,-331 390,-412 142,-82 283,-101 392,-39 108,63 162,195 162,359 0,163 -54,357 -162,544 -107,187 -249,330 -390,412z"/>
   <g>
    <polygon class="fil0 str5" points="1372,7918 4572,6070 3200,2638 0,4486 "/>
    <line class="fil1 str5" x1="457" y1="4222" x2="1829" y2= "7654" />
    <line class="fil1 str5" x1="914" y1="3958" x2="2286" y2= "7390" />
    <line class="fil1 str5" x1="1372" y1="3694" x2="2743" y2= "7126" />
    <line class="fil1 str5" x1="1829" y1="3430" x2="3200" y2= "6862" />
    <line class="fil1 str5" x1="2286" y1="3166" x2="3658" y2= "6598" />
    <line class="fil1 str5" x1="2743" y1="2902" x2="4115" y2= "6334" />
    <line class="fil1 str5" x1="171" y1="4915" x2="3372" y2= "3067" />
    <line class="fil1 str5" x1="343" y1="5344" x2="3543" y2= "3496" />
    <line class="fil1 str5" x1="514" y1="5773" x2="3715" y2= "3925" />
    <line class="fil1 str5" x1="686" y1="6202" x2="3886" y2= "4354" />
    <line class="fil1 str5" x1="857" y1="6631" x2="4058" y2= "4783" />
    <line class="fil1 str5" x1="1029" y1="7060" x2="4229" y2= "5212" />
    <line class="fil1 str5" x1="1200" y1="7489" x2="4401" y2= "5641" />
   </g>
  </g>
 </g>
</svg>
