<?xml version="1.0" encoding="UTF-8"?>
<!DOCTYPE svg PUBLIC "-//W3C//DTD SVG 1.1//EN" "http://www.w3.org/Graphics/SVG/1.1/DTD/svg11.dtd">
<!-- Creator: CorelDRAW X7 -->
<svg xmlns="http://www.w3.org/2000/svg" xml:space="preserve" width="91.4398mm" height="86.0212mm" version="1.1" style="shape-rendering:geometricPrecision; text-rendering:geometricPrecision; image-rendering:optimizeQuality; fill-rule:evenodd; clip-rule:evenodd"
viewBox="0 0 9144 8602"
 xmlns:xlink="http://www.w3.org/1999/xlink">
 <defs>
  <style type="text/css">
   <![CDATA[
    .fil0 {fill:#61003F}
   ]]>
  </style>
 </defs>
 <g id="Layer_x0020_1">
  <metadata id="CorelCorpID_0Corel-Layer"/>
  <path class="fil0" d="M0 6548l0 90c23,39 8,69 75,163 33,46 71,81 114,114 255,195 675,271 998,328 13,3 7,1 21,5 51,16 56,159 79,253 19,76 38,158 78,213 97,135 246,140 438,104 669,-122 917,-88 1401,261 522,376 1118,635 1766,475 692,-171 967,-538 1343,-706 310,-138 691,-90 1030,-33 455,77 484,-133 569,-562 351,-80 756,-117 1048,-342 47,-37 78,-67 113,-115 44,-63 43,-111 71,-158l0 -90c-20,-31 -12,-44 -39,-91 -147,-259 -411,-2 -1177,-605 -264,-208 -728,-809 -790,-1124 -49,-251 325,-321 548,-399 763,-267 649,-812 162,-957 -342,-102 -474,143 -775,115 4,-235 31,-469 39,-708 24,-671 1,-1133 -363,-1682l-57 -82c-368,-518 -951,-868 -1592,-974 -56,-9 -303,-30 -327,-41l-325 0 -50 11c-787,58 -1455,321 -1932,982 -427,591 -449,1056 -433,1786 6,238 34,473 38,708 -348,31 -465,-208 -795,-107 -467,142 -580,696 202,956 121,40 239,72 349,127 107,52 217,120 175,281 -87,337 -517,893 -791,1112 -312,248 -552,381 -967,461 -94,18 -167,69 -208,146 -9,16 -13,26 -19,44 -2,6 -5,17 -7,21 -7,18 -6,13 -10,20z"/>
 </g>
</svg>
