<?xml version="1.0" encoding="UTF-8"?>
<!DOCTYPE svg PUBLIC "-//W3C//DTD SVG 1.1//EN" "http://www.w3.org/Graphics/SVG/1.1/DTD/svg11.dtd">
<!-- Creator: CorelDRAW X7 -->
<svg xmlns="http://www.w3.org/2000/svg" xml:space="preserve" width="91.4398mm" height="76.7926mm" version="1.1" style="shape-rendering:geometricPrecision; text-rendering:geometricPrecision; image-rendering:optimizeQuality; fill-rule:evenodd; clip-rule:evenodd"
viewBox="0 0 9144 7679"
 xmlns:xlink="http://www.w3.org/1999/xlink">
 <defs>
  <style type="text/css">
   <![CDATA[
    .fil0 {fill:#61003F}
   ]]>
  </style>
 </defs>
 <g id="Layer_x0020_1">
  <metadata id="CorelCorpID_0Corel-Layer"/>
  <path class="fil0" d="M4454 2381c53,-673 -131,-1075 265,-1620 630,-867 2022,-967 2784,-435 629,439 568,104 1360,-145 -36,467 -218,543 -485,869l-70 92c368,-16 564,-84 836,-204 -124,474 -436,557 -772,861 -192,2437 -1050,4099 -2610,5018 -796,469 -1790,847 -2917,862 -880,13 -2454,-342 -2845,-845 1094,-2 1914,-157 2615,-883 -469,-89 -774,-106 -1099,-385 -218,-187 -466,-474 -503,-901l601 -24c-356,-273 -358,-88 -974,-706 -290,-291 -442,-667 -479,-1202 294,63 498,165 821,116 -55,-41 -379,-373 -435,-447 -299,-397 -404,-891 -326,-1396 18,-112 62,-290 95,-377l156 -263c834,827 1987,2144 3982,2015z"/>
 </g>
</svg>
