<?xml version="1.0" encoding="UTF-8"?>
<!DOCTYPE svg PUBLIC "-//W3C//DTD SVG 1.1//EN" "http://www.w3.org/Graphics/SVG/1.1/DTD/svg11.dtd">
<!-- Creator: CorelDRAW X7 -->
<svg xmlns="http://www.w3.org/2000/svg" xml:space="preserve" width="91.4398mm" height="62.5686mm" version="1.1" style="shape-rendering:geometricPrecision; text-rendering:geometricPrecision; image-rendering:optimizeQuality; fill-rule:evenodd; clip-rule:evenodd"
viewBox="0 0 9144 6257"
 xmlns:xlink="http://www.w3.org/1999/xlink">
 <defs>
  <style type="text/css">
   <![CDATA[
    .fil0 {fill:#61003F}
   ]]>
  </style>
 </defs>
 <g id="Layer_x0020_1">
  <metadata id="CorelCorpID_0Corel-Layer"/>
  <path class="fil0" d="M50 4990c-56,-757 -80,-3090 10,-3799 168,-1323 1420,-1163 2661,-1163 762,0 5090,-119 5626,128 388,179 722,597 750,1148 40,775 87,3104 -13,3788 -203,1401 -1755,1101 -2673,1151 -753,-14 -5055,99 -5589,-142 -375,-169 -732,-565 -772,-1111zm3335 -620c750,-428 1628,-794 2338,-1246l-2334 -1256 -4 2502z"/>
 </g>
</svg>
