<?xml version="1.0" encoding="UTF-8"?>
<!DOCTYPE svg PUBLIC "-//W3C//DTD SVG 1.1//EN" "http://www.w3.org/Graphics/SVG/1.1/DTD/svg11.dtd">
<!-- Creator: CorelDRAW X7 -->
<svg xmlns="http://www.w3.org/2000/svg" xml:space="preserve" width="39.9626mm" height="27.1778mm" version="1.1" style="shape-rendering:geometricPrecision; text-rendering:geometricPrecision; image-rendering:optimizeQuality; fill-rule:evenodd; clip-rule:evenodd"
viewBox="0 0 3996 2718"
 xmlns:xlink="http://www.w3.org/1999/xlink">
 <defs>
  <style type="text/css">
   <![CDATA[
    .fil2 {fill:none;fill-rule:nonzero}
    .fil5 {fill:#5B5B5B;fill-rule:nonzero}
    .fil1 {fill:#76B94A;fill-rule:nonzero}
    .fil3 {fill:#4D6F91;fill-rule:nonzero}
    .fil4 {fill:#00A0E3;fill-rule:nonzero}
    .fil0 {fill:#009846;fill-rule:nonzero}
   ]]>
  </style>
     <clipPath id="id0" style="clip-rule:nonzero">
      <path d="M2 1117c0,-358 73,-634 219,-828 147,-194 354,-291 621,-291 67,0 131,6 190,19 -279,181 -470,552 -470,981l0 0 0 0c0,223 -6,444 -6,667 0,182 23,317 68,407 45,90 116,135 214,135 90,0 157,-37 201,-112 -75,227 -215,418 -394,545 -174,-36 -316,-123 -425,-261 -145,-187 -218,-450 -218,-791 0,-157 0,-314 0,-471z"/>
     </clipPath>
     <clipPath id="id1" style="clip-rule:nonzero">
      <path d="M1723 1601c0,358 -77,633 -231,827 -154,195 -371,291 -652,291 -71,0 -137,-6 -200,-18 293,-181 494,-552 494,-981l0 0 0 -1c0,-223 4,-443 4,-666 0,-182 -23,-317 -71,-407 -47,-90 -122,-135 -225,-135 -96,0 -166,37 -212,112 78,-227 226,-419 414,-545 185,35 334,122 449,261 153,187 230,450 230,791 0,157 0,314 0,471z"/>
     </clipPath>
 </defs>
 <g id="Layer_x0020_1">
  <metadata id="CorelCorpID_0Corel-Layer"/>
  <g id="_1623418430384">
   <g>
    <path class="fil0" d="M2 1117c0,-358 73,-634 219,-828 147,-194 354,-291 621,-291 67,0 131,6 190,19 -279,181 -470,552 -470,981l0 0 0 0c0,223 -6,444 -6,667 0,182 23,317 68,407 45,90 116,135 214,135 90,0 157,-37 201,-112 -75,227 -215,418 -394,545 -174,-36 -316,-123 -425,-261 -145,-187 -218,-450 -218,-791 0,-157 0,-314 0,-471z"/>
    <g style="clip-path:url(#id0)">
     <g>
      <path id="1" class="fil1" d="M-66 1195c0,-397 73,-702 219,-917 147,-215 354,-322 621,-322 67,0 131,7 190,20 -279,200 -470,612 -470,1087l0 0 0 0c0,247 -6,491 -6,738 0,202 23,352 68,452 45,99 116,148 214,148 90,0 157,-41 201,-124 -75,252 -215,464 -394,604 -174,-39 -316,-136 -425,-289 -145,-207 -218,-498 -218,-876 0,-173 0,-347 0,-521z"/>
     </g>
    </g>
    <path class="fil2" d="M2 1117c0,-358 73,-634 219,-828 147,-194 354,-291 621,-291 67,0 131,6 190,19 -279,181 -470,552 -470,981l0 0 0 0c0,223 -6,444 -6,667 0,182 23,317 68,407 45,90 116,135 214,135 90,0 157,-37 201,-112 -75,227 -215,418 -394,545 -174,-36 -316,-123 -425,-261 -145,-187 -218,-450 -218,-791 0,-157 0,-314 0,-471z"/>
    <path class="fil3" d="M1723 1601c0,358 -77,633 -231,827 -154,195 -371,291 -652,291 -71,0 -137,-6 -200,-18 293,-181 494,-552 494,-981l0 0 0 -1c0,-223 4,-443 4,-666 0,-182 -23,-317 -71,-407 -47,-90 -122,-135 -225,-135 -96,0 -166,37 -212,112 78,-227 226,-419 414,-545 185,35 334,122 449,261 153,187 230,450 230,791 0,157 0,314 0,471z"/>
    <g style="clip-path:url(#id1)">
     <g>
      <path id="1" class="fil4" d="M1938 1583c0,367 -93,649 -278,848 -185,199 -446,299 -784,299 -85,0 -165,-7 -240,-19 352,-186 594,-566 594,-1006l0 0 0 -1c0,-228 5,-454 5,-682 0,-187 -29,-326 -86,-418 -57,-92 -147,-138 -271,-138 -115,0 -199,38 -255,115 95,-233 272,-430 499,-559 221,36 401,125 539,268 184,191 277,461 277,810 0,161 0,322 0,483z"/>
     </g>
    </g>
    <path class="fil2" d="M1723 1601c0,358 -77,633 -231,827 -154,195 -371,291 -652,291 -71,0 -137,-6 -200,-18 293,-181 494,-552 494,-981l0 0 0 -1c0,-223 4,-443 4,-666 0,-182 -23,-317 -71,-407 -47,-90 -122,-135 -225,-135 -96,0 -166,37 -212,112 78,-227 226,-419 414,-545 185,35 334,122 449,261 153,187 230,450 230,791 0,157 0,314 0,471z"/>
   </g>
   <g>
    <path class="fil5" d="M2437 1148l-91 327 -92 -327 -96 0 -91 327 -91 -327 -96 0 142 486 91 0 93 -322 95 322 90 0 143 -486 -97 0zm-392 -203l342 -434 0 -120 -506 0 0 119 342 0 -342 435 0 120 506 0 0 -120 -342 0zm573 -98l372 0c1,-11 2,-24 2,-35 0,-67 -20,-132 -62,-182 -47,-57 -119,-85 -194,-85 -75,0 -147,29 -194,85 -42,50 -60,112 -62,182 -1,67 19,130 62,183 47,56 119,80 194,84 75,4 148,-25 199,-81 11,-14 21,-28 29,-42l-126 -55c-4,5 -6,10 -9,16 -22,28 -56,43 -93,43 -36,0 -71,-15 -92,-43 -15,-20 -22,-44 -26,-70zm118 -183c37,0 71,14 93,43 8,12 15,26 19,41l-224 0c4,-15 11,-29 20,-41 21,-29 56,-43 92,-43zm614 -118c-30,2 -61,10 -89,26 -23,14 -41,34 -54,56l0 -69 -112 0 0 506 128 0 0 -270c0,-37 10,-71 33,-95 18,-19 44,-32 80,-35 37,-3 72,3 98,13l0 -118c-28,-11 -57,-16 -84,-14zm386 533c76,0 146,-28 194,-84 43,-54 63,-111 63,-183 0,-68 -18,-129 -63,-182 -47,-57 -119,-85 -194,-85 -74,0 -147,29 -193,85 -41,48 -62,111 -62,182 0,69 18,130 62,183 46,55 118,84 193,84zm93 -162c-21,28 -55,43 -93,43 -37,0 -72,-15 -92,-43 -22,-28 -29,-66 -29,-105 0,-38 7,-78 29,-106 20,-28 55,-42 92,-42 38,0 72,14 93,42 22,28 29,68 29,106 0,39 -7,77 -29,105zm-1751 974c-3,8 -7,16 -12,23 -13,18 -35,27 -58,27 -22,0 -45,-9 -57,-27 -14,-17 -18,-41 -18,-64 0,-23 4,-47 18,-65 12,-17 35,-26 57,-26 23,0 45,9 58,26 6,8 10,17 13,26l51 -9c-5,-16 -12,-32 -24,-47 -24,-29 -59,-43 -98,-43 -38,0 -74,14 -97,43 -22,26 -32,58 -32,95 0,35 10,68 32,94 22,28 58,44 97,44 37,0 74,-14 98,-44 10,-12 17,-25 22,-39l-50 -14zm182 97c30,0 58,-11 76,-33 17,-21 25,-44 25,-72 0,-27 -7,-51 -25,-72 -18,-22 -46,-33 -76,-33 -29,0 -58,11 -76,33 -16,19 -24,44 -24,72 0,27 7,51 24,72 18,21 47,33 76,33zm37 -64c-8,11 -22,17 -37,17 -15,0 -28,-6 -36,-17 -9,-11 -11,-26 -11,-41 0,-15 2,-31 11,-42 8,-11 21,-16 36,-16 15,0 29,5 37,16 8,11 11,27 11,42 0,15 -3,30 -11,41zm374 -126c-13,-12 -31,-19 -48,-19 -24,0 -48,12 -61,32 -3,-5 -7,-9 -11,-13 -13,-12 -31,-19 -48,-19 -22,0 -43,9 -57,26l0 -21 -44 0 0 198 50 0 0 -120c0,-10 1,-19 9,-28 6,-7 16,-11 26,-11 9,0 19,4 25,11 7,8 10,14 10,27l0 121 50 0 0 -120c0,-10 2,-19 10,-28 6,-7 15,-11 25,-11 10,0 19,4 25,11 7,8 10,14 10,27l0 121 51 0 0 -121c0,-25 -5,-48 -22,-63zm335 0c-13,-12 -31,-19 -47,-19 -25,0 -48,12 -62,32 -3,-5 -7,-9 -11,-13 -13,-12 -31,-19 -47,-19 -23,0 -44,9 -58,26l0 -21 -44 0 0 198 50 0 0 -120c0,-10 2,-19 10,-28 6,-7 15,-11 25,-11 9,0 19,4 25,11 7,8 10,14 10,27l0 121 51 0 0 -120c0,-10 1,-19 9,-28 6,-7 16,-11 25,-11 10,0 19,4 26,11 7,8 9,14 9,27l0 121 51 0 0 -121c0,-25 -4,-48 -22,-63zm195 -14l0 86c0,14 -1,27 -2,36 -3,11 -8,20 -15,26 -7,4 -15,7 -24,7 -13,0 -24,-3 -31,-11 -10,-10 -13,-27 -13,-45l0 -99 -51 0 0 99c0,35 3,61 27,83 16,14 39,23 61,22 18,-1 38,-7 54,-19l0 13 44 0 0 -198 -50 0zm261 16c-16,-14 -39,-23 -61,-22 -18,1 -38,7 -54,19l0 -13 -44 0 0 198 50 0 0 -86c0,-14 1,-27 2,-36 3,-11 8,-20 15,-26 7,-4 14,-7 24,-7 13,0 24,3 31,11 10,10 13,27 13,45l0 99 51 0 0 -99c0,-35 -3,-61 -27,-83zm75 -88l0 44 50 0 0 -44 -50 0zm0 72l0 198 50 0 0 -198 -50 0zm232 38l0 -38 -58 0 0 -56 -50 0 0 56 -41 0 0 38 41 0 0 76c0,22 1,41 10,57 8,14 22,23 40,28 14,5 42,4 58,-1l0 -43c-11,2 -23,2 -33,1 -7,0 -15,-5 -20,-12 -4,-7 -5,-18 -5,-34l0 -72 58 0zm176 -38l-51 141 -49 -141 -50 0 76 204c-6,18 -13,30 -19,34 -4,2 -13,3 -19,2l-5 -1 0 48 2 0c18,0 34,-2 48,-13 14,-10 24,-28 32,-49l84 -225 -49 0zm-1303 -407c2,-4 5,-7 8,-10 14,-17 33,-22 57,-22 19,-1 37,3 52,11 13,8 24,20 27,34l-59 8c-52,8 -80,9 -121,31 -34,20 -58,58 -58,98 0,31 9,50 28,76 20,23 57,41 92,41 28,0 60,-7 86,-23 16,-9 38,-30 45,-49l0 62 80 0 0 -229c0,-22 -5,-49 -19,-73 -30,-50 -84,-72 -151,-72 -60,0 -110,19 -143,66 -3,3 -6,8 -8,11l84 40zm146 87c0,3 -1,17 -5,32 -11,43 -58,62 -96,64 -30,1 -50,-18 -48,-39 1,-30 42,-37 81,-44l68 -13zm470 -98c-14,-39 -42,-70 -77,-89 -26,-12 -53,-18 -78,-18 -25,-1 -52,2 -80,14 -38,17 -67,54 -67,100 0,25 13,55 38,74 19,15 39,24 72,32 21,6 40,10 59,16 12,3 29,9 38,17 5,5 6,10 6,17 -1,6 -3,10 -9,17 -11,8 -35,12 -52,12 -22,0 -44,-4 -61,-21 -10,-10 -16,-31 -16,-41l-88 21c2,19 22,60 39,79 34,35 76,48 126,48 37,0 73,-5 102,-23 30,-20 49,-50 52,-84 2,-37 -13,-68 -43,-91 -24,-20 -41,-24 -72,-34 -18,-4 -39,-10 -57,-15 -18,-6 -33,-12 -39,-18 0,-2 -2,-5 -2,-8 0,-4 2,-11 13,-17 9,-6 23,-8 39,-8 15,0 29,3 40,9 12,6 24,20 28,32l89 -21zm307 -26l0 -71 -106 0 0 -101 -91 0 0 101 -76 0 0 71 76 0 0 139c0,40 2,75 17,104 14,27 40,44 73,53 27,8 78,6 107,-2l0 -79c-20,3 -42,3 -60,2 -14,-1 -29,-9 -37,-22 -8,-13 -9,-34 -9,-62l0 -133 106 0zm160 137l268 0c1,-8 1,-17 1,-25 0,-49 -14,-96 -44,-132 -34,-41 -86,-61 -140,-61 -54,0 -106,21 -140,61 -30,36 -43,81 -44,132 -2,48 13,94 44,131 34,41 86,58 140,61 54,3 107,-18 143,-59 8,-9 16,-19 22,-29l-91 -40c-3,3 -4,7 -7,11 -16,21 -40,31 -67,31 -26,0 -51,-10 -66,-31 -11,-14 -16,-31 -19,-50zm85 -132c27,0 51,10 67,31 6,9 11,19 14,30l-162 0c3,-11 8,-21 15,-30 15,-21 40,-31 66,-31z"/>
    <path class="fil5" d="M1957 2324l14 0 -40 -116 -18 0 -39 116 14 0 7 -22 55 0 7 22zm-58 -34l23 -68 23 68 -46 0z"/>
    <polygon id="1" class="fil5" points="2062,2269 2097,2324 2113,2324 2074,2264 2110,2208 2094,2208 2062,2258 2034,2258 2034,2208 2021,2208 2021,2324 2034,2324 2034,2269 "/>
    <path id="2" class="fil5" d="M2176 2208l0 80c0,10 0,16 -4,24 -6,10 -15,15 -28,15 -5,0 -11,-2 -16,-4 -8,-5 -13,-12 -15,-20l13 -3c1,4 4,8 8,11 3,2 7,3 10,3 7,0 13,-3 16,-9 2,-5 2,-8 2,-17l0 -80 14 0z"/>
    <path id="3" class="fil5" d="M2283 2237c-4,-11 -11,-20 -20,-26 -7,-4 -16,-6 -25,-6 -7,0 -15,1 -23,5 -9,5 -16,15 -16,26 0,7 2,15 8,21 6,5 14,8 22,10l21 7c6,1 11,4 15,8 3,3 5,7 5,12 0,5 -2,11 -7,14 -6,4 -15,6 -22,6 -10,0 -21,-3 -27,-12 -4,-4 -6,-10 -7,-16l-13 3c1,8 4,15 9,22 9,11 22,16 37,16 12,0 22,-2 30,-8 9,-5 14,-15 14,-25 0,-8 -4,-16 -10,-22 -5,-5 -12,-9 -21,-11l-20 -6c-7,-2 -13,-5 -16,-8 -3,-3 -5,-7 -5,-10 0,-6 4,-12 10,-15 4,-3 10,-4 16,-4 7,0 13,2 18,5 7,4 11,10 14,18l13 -4z"/>
    <path id="4" class="fil5" d="M2387 2286c-2,5 -4,10 -7,14 -7,10 -19,14 -31,14 -12,0 -23,-4 -30,-14 -7,-9 -10,-22 -10,-34 0,-12 3,-25 10,-34 7,-9 18,-14 30,-14 12,0 24,5 31,14 4,5 6,10 7,16l14 -3c-2,-7 -5,-14 -10,-21 -10,-12 -25,-19 -42,-19 -16,0 -31,6 -41,19 -9,12 -13,27 -13,42 0,15 4,30 13,42 10,13 25,19 41,19 16,0 32,-6 42,-19 4,-5 7,-12 9,-18l-13 -4z"/>
    <polygon id="5" class="fil5" points="2493,2221 2493,2208 2420,2208 2420,2324 2493,2324 2493,2311 2433,2311 2433,2273 2483,2273 2483,2260 2433,2260 2433,2221 "/>
    <path id="6" class="fil5" d="M2627 2220c-3,-4 -9,-8 -14,-10 -4,-1 -8,-2 -13,-2l-49 0 0 116 13 0 0 -43 36 0c11,0 22,-5 29,-14 5,-6 8,-14 8,-23 0,-9 -3,-17 -10,-24zm-9 39c-4,6 -11,9 -18,9l-36 0 0 -47 36 0c6,0 13,2 17,7 4,4 6,10 7,16 0,6 -2,11 -6,15z"/>
    <path id="7" class="fil5" d="M2664 2259c0,-1 1,-2 2,-3 4,-6 12,-9 20,-9 7,0 13,2 18,6 4,3 7,8 8,13l-19 3c-13,2 -23,3 -32,8 -8,5 -13,13 -13,22 0,6 2,11 5,16 5,7 14,11 23,12 7,0 15,-2 22,-5 6,-3 12,-9 15,-15l0 17 12 0 0 -54c0,-5 -1,-11 -3,-16 -7,-13 -20,-19 -36,-19 -13,0 -24,4 -32,15 -1,1 -2,2 -2,3l12 6zm48 18c0,8 0,13 -3,20 -6,12 -20,19 -32,17 -9,0 -16,-8 -16,-16 0,-13 16,-15 30,-17 9,-2 15,-3 21,-4z"/>
    <path id="8" class="fil5" d="M2785 2235c-7,0 -14,2 -20,7 -3,2 -5,5 -7,8l0 -13 -12 0 0 87 13 0 0 -42c0,-12 1,-21 9,-28 4,-4 10,-7 16,-7 5,0 10,1 14,2l0 -13c-4,-1 -8,-1 -13,-1z"/>
    <polygon id="9" class="fil5" points="2868,2237 2843,2307 2817,2237 2804,2237 2836,2324 2849,2324 2881,2237 "/>
    <path id="10" class="fil5" d="M2906 2259c1,-1 1,-2 2,-3 5,-6 12,-9 20,-9 7,0 14,2 18,6 5,3 7,8 8,13l-18 3c-14,2 -23,3 -33,8 -8,5 -13,13 -13,22 0,6 2,11 5,16 5,7 14,11 23,12 8,0 15,-2 22,-5 6,-3 13,-9 16,-15l0 17 11 0 0 -54c0,-5 0,-11 -3,-16 -6,-13 -19,-19 -35,-19 -13,0 -25,4 -32,15 -1,1 -2,2 -3,3l12 6zm48 18c0,8 0,13 -3,20 -5,12 -20,19 -31,17 -10,0 -17,-8 -16,-16 0,-13 15,-15 29,-17 9,-2 15,-3 21,-4z"/>
    <path id="11" class="fil5" d="M3000 2259c0,-1 1,-2 2,-3 4,-6 12,-9 20,-9 6,0 13,2 18,6 4,3 6,8 7,13l-18 3c-13,2 -23,3 -33,8 -7,5 -12,13 -12,22 0,6 1,11 5,16 5,7 14,11 22,12 8,0 16,-2 23,-5 6,-3 12,-9 15,-15l0 17 12 0 0 -54c0,-5 -1,-11 -4,-16 -6,-13 -19,-19 -35,-19 -13,0 -24,4 -32,15 -1,1 -2,2 -3,3l13 6zm48 18c0,8 0,13 -4,20 -5,12 -19,19 -31,17 -9,0 -16,-8 -16,-16 0,-13 15,-15 30,-17 8,-2 14,-3 21,-4z"/>
    <path id="12" class="fil5" d="M3144 2242c-7,-5 -16,-8 -25,-7 -7,0 -16,3 -23,9 0,1 -1,2 -2,3l0 -39 -12 0 0 116 13 0 0 -44c0,-5 0,-9 1,-12 1,-6 4,-11 8,-15 4,-3 9,-5 14,-5 7,-1 12,1 17,4 8,7 10,17 10,29l0 43 13 0 0 -43c0,-16 -2,-30 -14,-39z"/>
    <path id="13" class="fil5" d="M3272 2265l0 11 30 0c-1,9 -4,17 -9,24 -7,9 -18,14 -30,14 -12,0 -24,-5 -31,-14 -7,-9 -9,-22 -10,-34 1,-12 3,-25 10,-34 7,-9 19,-14 31,-14 12,0 23,5 30,14 2,2 3,4 4,7l12 -6c-1,-3 -3,-6 -5,-9 -10,-12 -25,-19 -41,-19 -17,0 -32,7 -42,19 -9,12 -12,27 -12,42 0,15 3,30 12,42 10,13 25,19 42,19 16,0 30,-6 41,-19 9,-11 12,-25 13,-40l0 -3 -45 0z"/>
    <path id="14" class="fil5" d="M3371 2327c13,0 24,-5 32,-14 8,-10 10,-21 10,-32 0,-12 -2,-23 -10,-32 -7,-10 -19,-14 -32,-14 -12,0 -24,5 -32,14 -7,9 -9,20 -9,32 0,11 2,22 9,32 8,9 20,14 32,14zm22 -22c-5,6 -13,9 -22,9 -8,0 -16,-3 -21,-9 -5,-7 -6,-16 -6,-24 0,-9 1,-18 6,-24 5,-7 13,-10 21,-10 9,0 17,3 22,10 5,6 6,15 6,24 0,8 -1,17 -6,24z"/>
    <path id="15" class="fil5" d="M3442 2259c1,-1 1,-2 2,-3 5,-6 12,-9 20,-9 7,0 14,2 18,6 4,3 7,8 8,13l-18 3c-14,2 -24,3 -33,8 -8,5 -13,13 -13,22 0,6 2,11 5,16 5,7 14,11 23,12 8,0 15,-2 22,-5 6,-3 12,-9 16,-15l0 17 11 0 0 -54c0,-5 -1,-11 -3,-16 -6,-13 -20,-19 -36,-19 -13,0 -24,4 -32,15 -1,1 -2,2 -2,3l12 6zm48 18c0,8 0,13 -3,20 -5,12 -20,19 -31,17 -10,0 -17,-8 -17,-16 1,-13 16,-15 30,-17 9,-2 15,-3 21,-4z"/>
    <polygon id="16" class="fil5" points="3524,2324 3524,2205 3537,2205 3537,2324 "/>
   </g>
  </g>
 </g>
</svg>
