<?xml version="1.0" encoding="UTF-8"?>
<!DOCTYPE svg PUBLIC "-//W3C//DTD SVG 1.1//EN" "http://www.w3.org/Graphics/SVG/1.1/DTD/svg11.dtd">
<!-- Creator: CorelDRAW X7 -->
<svg xmlns="http://www.w3.org/2000/svg" xml:space="preserve" width="45.1272mm" height="45.1272mm" version="1.1" style="shape-rendering:geometricPrecision; text-rendering:geometricPrecision; image-rendering:optimizeQuality; fill-rule:evenodd; clip-rule:evenodd"
viewBox="0 0 4513 4513"
 xmlns:xlink="http://www.w3.org/1999/xlink">
 <defs>
  <style type="text/css">
   <![CDATA[
    .str43 {stroke:#FFF4F0;stroke-width:7.62}
    .str11 {stroke:#FFF4F0;stroke-width:42.33;stroke-linecap:round;stroke-linejoin:round}
    .str9 {stroke:#FFF4F0;stroke-width:50.79;stroke-linecap:round;stroke-linejoin:round}
    .str17 {stroke:#FFF4F0;stroke-width:13.89}
    .str30 {stroke:#FFF4F0;stroke-width:6.11;stroke-linecap:round;stroke-linejoin:round}
    .str36 {stroke:#FFF4F0;stroke-width:6.11;stroke-linecap:round;stroke-linejoin:round}
    .str35 {stroke:#FFF4F0;stroke-width:6.11;stroke-linecap:round;stroke-linejoin:round}
    .str37 {stroke:#FFF4F0;stroke-width:6.11;stroke-linecap:round;stroke-linejoin:round}
    .str34 {stroke:#FFF4F0;stroke-width:6.11;stroke-linecap:round;stroke-linejoin:round}
    .str32 {stroke:#FFF4F0;stroke-width:6.11;stroke-linecap:round;stroke-linejoin:round}
    .str31 {stroke:#FFF4F0;stroke-width:6.11;stroke-linecap:round;stroke-linejoin:round}
    .str33 {stroke:#FFF4F0;stroke-width:6.11;stroke-linecap:round;stroke-linejoin:round}
    .str10 {stroke:#FFF4F0;stroke-width:13.89;stroke-linecap:round;stroke-linejoin:round}
    .str2 {stroke:#FFF4F0;stroke-width:13.89;stroke-linecap:round;stroke-linejoin:round}
    .str4 {stroke:#FFF4F0;stroke-width:13.89;stroke-linecap:round;stroke-linejoin:round}
    .str5 {stroke:#FFF4F0;stroke-width:13.89;stroke-linecap:round;stroke-linejoin:round}
    .str3 {stroke:#FFF4F0;stroke-width:13.89;stroke-linecap:round;stroke-linejoin:round}
    .str0 {stroke:#FFF4F0;stroke-width:13.89;stroke-linecap:round;stroke-linejoin:round}
    .str14 {stroke:#FFF4F0;stroke-width:13.89;stroke-linecap:round;stroke-linejoin:round}
    .str1 {stroke:#FFF4F0;stroke-width:13.89;stroke-linecap:round;stroke-linejoin:round}
    .str6 {stroke:#FFF4F0;stroke-width:13.89;stroke-linecap:round;stroke-linejoin:round}
    .str12 {stroke:#FFF4F0;stroke-width:13.89;stroke-linecap:round;stroke-linejoin:round}
    .str13 {stroke:#FFF4F0;stroke-width:13.89;stroke-linecap:round;stroke-linejoin:round}
    .str7 {stroke:#FFF4F0;stroke-width:13.89;stroke-linecap:round;stroke-linejoin:round}
    .str15 {stroke:#FFF4F0;stroke-width:13.89;stroke-linecap:round;stroke-linejoin:round}
    .str8 {stroke:#FFF4F0;stroke-width:13.89;stroke-linecap:round;stroke-linejoin:round}
    .str16 {stroke:#FFF4F0;stroke-width:13.89;stroke-linecap:round;stroke-linejoin:round}
    .str25 {stroke:#FFF4F0;stroke-width:9.21;stroke-linecap:round;stroke-linejoin:round}
    .str20 {stroke:#FFF4F0;stroke-width:9.21;stroke-linecap:round;stroke-linejoin:round}
    .str26 {stroke:#FFF4F0;stroke-width:9.21;stroke-linecap:round;stroke-linejoin:round}
    .str21 {stroke:#FFF4F0;stroke-width:9.21;stroke-linecap:round;stroke-linejoin:round}
    .str23 {stroke:#FFF4F0;stroke-width:9.21;stroke-linecap:round;stroke-linejoin:round}
    .str22 {stroke:#FFF4F0;stroke-width:9.21;stroke-linecap:round;stroke-linejoin:round}
    .str24 {stroke:#FFF4F0;stroke-width:9.21;stroke-linecap:round;stroke-linejoin:round}
    .str19 {stroke:#FFF4F0;stroke-width:9.21;stroke-linecap:round;stroke-linejoin:round}
    .str44 {stroke:#FFF4F0;stroke-width:6.72;stroke-linecap:round;stroke-linejoin:round}
    .str42 {stroke:#FFF4F0;stroke-width:6.72;stroke-linecap:round;stroke-linejoin:round}
    .str40 {stroke:#FFF4F0;stroke-width:9.37;stroke-linecap:round;stroke-linejoin:round}
    .str41 {stroke:#FFF4F0;stroke-width:9.37;stroke-linecap:round;stroke-linejoin:round}
    .str27 {stroke:#FFF4F0;stroke-width:14.69;stroke-linecap:round;stroke-linejoin:round}
    .str18 {stroke:#FFF4F0;stroke-width:14.69;stroke-linecap:round;stroke-linejoin:round}
    .str28 {stroke:#FFF4F0;stroke-width:14.69;stroke-linecap:round;stroke-linejoin:round}
    .str39 {stroke:#FFF4F0;stroke-width:9.75;stroke-linecap:round;stroke-linejoin:round}
    .str29 {stroke:#FFF4F0;stroke-width:9.75;stroke-linecap:round;stroke-linejoin:round}
    .str38 {stroke:#FFF4F0;stroke-width:9.75;stroke-linecap:round;stroke-linejoin:round}
    .fil4 {fill:none}
    .fil5 {fill:none;fill-rule:nonzero}
    .fil3 {fill:#61003F}
    .fil1 {fill:#FFF4F0}
    .fil2 {fill:white}
    .fil0 {fill:#FFF4F0;fill-rule:nonzero}
   ]]>
  </style>
    <clipPath id="id0">
     <path d="M3147 4036c-20,12 -40,15 -55,6 -16,-9 -23,-28 -23,-51 0,-23 7,-51 23,-77 15,-26 35,-47 55,-58 20,-12 40,-15 55,-6 16,9 23,28 23,51 0,23 -7,51 -23,77 -15,26 -35,47 -55,58z"/>
    </clipPath>
    <clipPath id="id1">
     <path d="M1792 4184c15,9 30,11 42,4 12,-7 17,-21 17,-38 0,-17 -5,-38 -17,-58 -11,-20 -26,-35 -41,-44 -16,-9 -31,-11 -42,-4 -12,7 -17,21 -17,38 0,18 5,38 17,58 11,20 26,35 41,44z"/>
    </clipPath>
    <clipPath id="id2">
     <path d="M2106 4365c16,9 31,11 42,4 12,-6 17,-20 17,-38 0,-17 -5,-38 -17,-58 -11,-20 -26,-35 -41,-44 -15,-8 -31,-10 -42,-4 -12,7 -17,21 -17,38 0,18 5,39 17,58 11,20 26,36 41,44z"/>
    </clipPath>
    <clipPath id="id3">
     <path d="M2571 4386c-20,11 -40,14 -55,5 -16,-9 -23,-28 -23,-51 0,-23 7,-50 22,-77 16,-26 36,-46 56,-58 20,-12 40,-14 55,-5 15,8 23,27 23,50 0,23 -8,51 -23,77 -15,27 -35,47 -55,59z"/>
    </clipPath>
    <clipPath id="id4">
     <path d="M4074 1307c35,20 70,25 96,10 27,-16 40,-48 40,-88 0,-40 -13,-88 -40,-134 -26,-46 -61,-81 -95,-101 -35,-20 -70,-25 -97,-10 -26,16 -39,48 -39,88 0,41 13,88 39,134 27,46 61,81 96,101z"/>
    </clipPath>
    <clipPath id="id5">
     <path d="M309 3247c-23,13 -46,17 -63,6 -18,-10 -27,-31 -27,-58 0,-27 9,-58 26,-89 18,-30 41,-54 64,-67 23,-13 46,-16 64,-6 17,10 26,32 26,58 0,27 -8,59 -26,89 -18,30 -41,54 -64,67z"/>
    </clipPath>
 </defs>
 <g id="Layer_x0020_1">
  <metadata id="CorelCorpID_0Corel-Layer"/>
  <g id="_2595193701136">
   <path class="fil0" d="M879 1948l-364 0 -63 206 -284 0 404 -1102 250 0 407 1102 -285 0 -65 -206zm-300 -205l237 0 -119 -382 -118 382zm1582 -691l0 722c0,82 -17,152 -52,212 -35,60 -85,105 -150,137 -65,31 -142,47 -231,47 -134,0 -240,-35 -317,-105 -77,-69 -117,-165 -118,-286l0 -727 267 0 0 732c3,121 59,181 168,181 55,0 97,-15 125,-45 28,-31 42,-80 42,-148l0 -720 266 0zm1030 205l-330 0 0 897 -266 0 0 -897 -325 0 0 -205 921 0 0 205zm1024 369c0,107 -20,203 -60,285 -39,83 -96,147 -170,192 -73,44 -157,67 -251,67 -93,0 -177,-22 -249,-65 -73,-43 -130,-105 -170,-185 -41,-80 -62,-173 -64,-277l0 -62c0,-108 19,-203 59,-286 40,-82 97,-146 171,-191 73,-45 158,-67 252,-67 93,0 177,22 250,66 73,45 130,108 170,190 41,82 61,176 62,282l0 51zm-270 -47c0,-109 -18,-193 -55,-249 -37,-57 -89,-86 -157,-86 -133,0 -204,100 -211,301l-1 81c0,108 18,191 54,249 35,58 89,87 159,87 68,0 119,-29 155,-86 37,-57 55,-139 56,-246l0 -51zm-2926 1428l-418 0 0 263 493 0 0 205 -759 0 0 -1102 761 0 0 205 -495 0 0 232 418 0 0 197zm594 -268l180 -366 304 0 -308 546 316 556 -306 0 -186 -373 -185 373 -306 0 316 -556 -307 -546 302 0 180 366zm844 361l0 375 -265 0 0 -1102 439 0c85,0 159,15 224,46 65,31 115,75 151,133 35,57 53,122 53,194 0,107 -38,193 -115,258 -77,64 -183,96 -317,96l-170 0zm0 -205l174 0c52,0 91,-13 118,-38 27,-26 41,-62 41,-109 0,-52 -14,-93 -42,-123 -28,-31 -66,-47 -113,-47l-178 0 0 317zm1676 52c0,107 -20,203 -59,285 -40,83 -97,147 -170,192 -74,44 -158,67 -251,67 -94,0 -178,-22 -250,-65 -73,-43 -129,-105 -170,-186 -41,-80 -62,-172 -64,-276l0 -62c0,-108 20,-203 60,-286 39,-82 96,-146 170,-191 74,-45 158,-68 252,-68 93,0 177,23 250,67 73,45 130,108 171,190 40,82 61,176 61,282l0 51zm-270 -47c0,-110 -18,-193 -55,-250 -36,-56 -89,-85 -157,-85 -133,0 -203,100 -211,300l-1 81c0,108 18,192 54,250 36,58 89,87 160,87 67,0 119,-29 155,-86 36,-57 54,-139 55,-246l0 -51z"/>
   <polygon class="fil1" points="2864,1691 3906,1691 3906,1707 2864,1707 "/>
   <polygon class="fil1" points="417,2638 1459,2638 1459,2669 417,2669 "/>
   <polygon class="fil1" points="2954,1558 3560,1558 3560,1567 2954,1567 "/>
   <polygon class="fil2" points="2780,1583 3779,1583 3779,1614 2780,1614 "/>
   <polygon class="fil1" points="249,2595 1031,2595 1031,2610 249,2610 "/>
   <polygon class="fil2" points="159,2685 765,2685 765,2694 159,2694 "/>
   <polygon class="fil2" points="3709,1270 4490,1270 4490,1274 3709,1274 "/>
   <polygon class="fil2" points="2888,1398 3409,1398 3409,1429 2888,1429 "/>
   <polygon class="fil1" points="2850,2029 3308,2029 3308,2049 2850,2049 "/>
   <polygon class="fil1" points="2743,1795 2972,1795 2972,1836 2743,1836 "/>
   <polygon class="fil1" points="2890,1852 3156,1852 3156,1864 2890,1864 "/>
   <polygon class="fil2" points="2659,1886 3117,1886 3117,1927 2659,1927 "/>
   <polygon class="fil1" points="3126,2734 4168,2734 4168,2749 3126,2749 "/>
   <polygon class="fil1" points="145,1490 1187,1490 1187,1521 145,1521 "/>
   <polygon class="fil1" points="544,1083 1586,1083 1586,1114 544,1114 "/>
   <polygon class="fil1" points="3216,2600 3822,2600 3822,2609 3216,2609 "/>
   <polygon class="fil2" points="2299,1329 1257,1329 1257,1360 2299,1360 "/>
   <polygon class="fil2" points="286,1129 892,1129 892,1138 286,1138 "/>
   <polygon class="fil2" points="1,1015 782,1015 782,1019 1,1019 "/>
   <polygon class="fil2" points="3150,2441 3671,2441 3671,2472 3150,2472 "/>
   <polygon class="fil1" points="1897,1211 1419,1211 1419,1231 1897,1231 "/>
   <polygon class="fil1" points="2226,1774 1748,1774 1748,1795 2226,1795 "/>
   <polygon class="fil1" points="2338,1540 2099,1540 2099,1581 2338,1581 "/>
   <polygon class="fil1" points="2185,1597 1907,1597 1907,1609 2185,1609 "/>
   <polygon class="fil2" points="2425,1631 1947,1631 1947,1672 2425,1672 "/>
   <polygon class="fil1" points="1536,1815 1864,1815 1864,1855 1536,1855 "/>
   <polygon class="fil1" points="3244,3168 2862,3168 2862,3180 3244,3180 "/>
   <polygon class="fil2" points="3574,3201 2918,3201 2918,3241 3574,3241 "/>
   <polygon class="fil1" points="2981,3082 2325,3082 2325,3102 2981,3102 "/>
   <polygon class="fil1" points="2844,2909 2462,2909 2462,2921 2844,2921 "/>
   <polygon class="fil2" points="2910,2942 2254,2942 2254,2982 2910,2982 "/>
   <polygon class="fil1" points="2547,3149 2333,3149 2333,3123 2547,3123 "/>
   <polygon class="fil1" points="2410,3113 2161,3113 2161,3105 2410,3105 "/>
   <polygon class="fil2" points="2625,3091 2198,3091 2198,3065 2625,3065 "/>
   <polygon class="fil1" points="1910,3169 1483,3169 1483,3156 1910,3156 "/>
   <polygon class="fil1" points="2011,3318 1797,3318 1797,3292 2011,3292 "/>
   <polygon class="fil1" points="1873,3281 1625,3281 1625,3274 1873,3274 "/>
   <polygon class="fil2" points="2089,3260 1661,3260 1661,3234 2089,3234 "/>
   <polygon class="fil3 str0" points="2165,3515 2637,3787 3108,3515 3108,3697 2637,3969 2637,3787 3108,3515 2637,3243 "/>
   <polygon class="fil3 str1" points="1694,4241 1694,4150 1734,3946 2205,4218 2165,4422 2165,4513 "/>
   <polygon class="fil3 str1" points="1734,3946 2205,4218 2480,4059 2008,3787 "/>
   <path class="fil3 str2" d="M2205 4218l-40 204 0 91 269 -155c-1,-6 -1,-12 -1,-19 0,-31 10,-69 31,-105 5,-9 10,-17 16,-24l0 -151 -275 159z"/>
   <polygon class="fil3 str1" points="2165,3515 2008,3787 2480,4059 2637,3787 "/>
   <polygon class="fil3 str1" points="2480,4059 2637,3787 2637,3969 "/>
   <polygon class="fil3 str1" points="3108,3697 3108,3515 3265,3606 "/>
   <polygon class="fil3 str1" points="2794,3334 3265,3606 3422,3515 2951,3243 "/>
   <path class="fil3 str3" d="M3108 3697l0 113c3,-2 5,-4 8,-6 28,-15 55,-19 76,-7l31 18 0 0c21,12 31,37 31,69l168 -97 0 -272 -314 182z"/>
   <path class="fil3 str4" d="M2480 4059l0 151c18,-25 39,-44 60,-56 27,-16 55,-20 76,-8l21 12 0 -189 -157 90z"/>
   <path class="fil3 str5" d="M2637 3969l0 189 10 6 0 0c17,10 27,29 30,53l195 -112 0 -272 -235 136z"/>
   <path class="fil3 str6" d="M2872 3833l0 272 142 -82c-3,-10 -5,-21 -5,-33 0,-32 10,-69 31,-106 19,-32 43,-58 68,-74l0 -113 -236 136z"/>
   <path class="fil3 str7" d="M3117 4052c-14,8 -27,13 -39,14l-7 11 -30 -17c-21,-13 -32,-38 -32,-70 0,-32 10,-69 31,-106 21,-36 49,-64 76,-80 28,-15 55,-19 76,-7l31 18 -7 11c5,11 8,25 8,41 0,31 -11,69 -32,105 -21,36 -48,64 -75,80z"/>
   <path class="fil3 str8" d="M3147 4070c-27,16 -55,19 -76,7 -21,-12 -31,-38 -31,-69 0,-32 10,-70 31,-106 21,-36 48,-64 76,-80 27,-16 55,-19 76,-7 21,12 31,37 31,69 0,32 -10,70 -31,106 -21,36 -48,64 -76,80z"/>
   <path class="fil3" d="M3147 4036c-20,12 -40,15 -55,6 -16,-9 -23,-28 -23,-51 0,-23 7,-51 23,-77 15,-26 35,-47 55,-58 20,-12 40,-15 55,-6 16,9 23,28 23,51 0,23 -7,51 -23,77 -15,26 -35,47 -55,58z"/>
   <g style="clip-path:url(#id0)">
    <g>
     <path id="1" class="fil4 str9" d="M3125 4024c-20,11 -40,14 -56,5 -15,-9 -23,-27 -23,-51 0,-23 8,-50 23,-77 15,-26 35,-46 55,-58 20,-11 41,-14 56,-5 15,8 23,27 23,50 0,23 -8,51 -23,77 -15,27 -35,47 -55,59z"/>
    </g>
   </g>
   <path class="fil4 str10" d="M3147 4036c-20,12 -40,15 -55,6 -16,-9 -23,-28 -23,-51 0,-23 7,-51 23,-77 15,-26 35,-47 55,-58 20,-12 40,-15 55,-6 16,9 23,28 23,51 0,23 -7,51 -23,77 -15,26 -35,47 -55,58z"/>
   <path class="fil3" d="M1792 4184c15,9 30,11 42,4 12,-7 17,-21 17,-38 0,-17 -5,-38 -17,-58 -11,-20 -26,-35 -41,-44 -16,-9 -31,-11 -42,-4 -12,7 -17,21 -17,38 0,18 5,38 17,58 11,20 26,35 41,44z"/>
   <g style="clip-path:url(#id1)">
    <g>
     <path id="1" class="fil4 str11" d="M1825 4158c15,9 31,11 42,5 12,-7 17,-21 17,-39 0,-17 -5,-38 -17,-58 -11,-19 -26,-35 -41,-43 -16,-9 -31,-11 -42,-5 -12,7 -17,21 -17,39 0,17 5,38 17,58 11,19 26,35 41,43z"/>
    </g>
   </g>
   <path class="fil4 str12" d="M1792 4184c15,9 30,11 42,4 12,-7 17,-21 17,-38 0,-17 -5,-38 -17,-58 -11,-20 -26,-35 -41,-44 -16,-9 -31,-11 -42,-4 -12,7 -17,21 -17,38 0,18 5,38 17,58 11,20 26,35 41,44z"/>
   <path class="fil3" d="M2106 4365c16,9 31,11 42,4 12,-6 17,-20 17,-38 0,-17 -5,-38 -17,-58 -11,-20 -26,-35 -41,-44 -15,-8 -31,-10 -42,-4 -12,7 -17,21 -17,38 0,18 5,39 17,58 11,20 26,36 41,44z"/>
   <g style="clip-path:url(#id2)">
    <g>
     <path id="1" class="fil4 str11" d="M2141 4339c15,9 30,11 42,4 11,-6 17,-21 17,-38 0,-17 -6,-38 -17,-58 -12,-20 -27,-35 -42,-44 -15,-9 -30,-11 -42,-4 -11,7 -17,21 -17,38 0,18 6,38 17,58 12,20 27,35 42,44z"/>
    </g>
   </g>
   <path class="fil4 str13" d="M2106 4365c16,9 31,11 42,4 12,-6 17,-20 17,-38 0,-17 -5,-38 -17,-58 -11,-20 -26,-35 -41,-44 -15,-8 -31,-10 -42,-4 -12,7 -17,21 -17,38 0,18 5,39 17,58 11,20 26,36 41,44z"/>
   <path class="fil3 str14" d="M2540 4401c-13,8 -26,13 -39,14l-6 12 -31 -18c-21,-12 -31,-38 -31,-70 0,-31 10,-69 31,-105 21,-37 49,-64 76,-80 27,-16 55,-20 76,-8l31 18 -7 11c5,12 7,26 7,41 0,31 -10,69 -31,105 -21,37 -48,65 -76,80z"/>
   <path class="fil3 str15" d="M2571 4419c-27,16 -55,20 -76,8 -21,-13 -32,-38 -32,-70 0,-32 11,-69 32,-106 21,-36 48,-64 76,-80 27,-15 55,-19 76,-7 21,12 31,38 31,70 0,31 -10,69 -31,105 -21,36 -49,64 -76,80z"/>
   <path class="fil2" d="M2571 4386c-20,11 -40,14 -55,5 -16,-9 -23,-28 -23,-51 0,-23 7,-50 22,-77 16,-26 36,-46 56,-58 20,-12 40,-14 55,-5 15,8 23,27 23,50 0,23 -8,51 -23,77 -15,27 -35,47 -55,59z"/>
   <g style="clip-path:url(#id3)">
    <g>
     <path id="1" class="fil3 str9" d="M2548 4373c-20,12 -40,14 -55,5 -15,-8 -23,-27 -23,-50 0,-23 8,-51 23,-77 15,-27 35,-47 55,-59 20,-11 40,-14 56,-5 15,9 23,28 23,51 0,23 -8,50 -23,77 -16,26 -36,46 -56,58z"/>
    </g>
   </g>
   <path class="fil4 str16" d="M2571 4386c-20,11 -40,14 -55,5 -16,-9 -23,-28 -23,-51 0,-23 7,-50 22,-77 16,-26 36,-46 56,-58 20,-12 40,-14 55,-5 15,8 23,27 23,50 0,23 -8,51 -23,77 -15,27 -35,47 -55,59z"/>
   <polygon class="fil1" points="1851,4243 1851,4243 1891,4039 2048,4129 2008,4333 2008,4333 "/>
   <polygon class="fil1" points="2757,3976 2754,3993 2833,3948 2833,3932 "/>
   <polygon class="fil1" points="2992,3840 2990,3857 3069,3812 3069,3796 "/>
   <polygon class="fil1" points="1962,4080 1885,4036 2159,3876 2238,3922 "/>
   <polygon class="fil1" points="2055,4134 1978,4089 2252,3930 2332,3976 "/>
   <polygon class="fil1" points="3021,3468 2944,3424 3101,3332 3180,3378 "/>
   <polygon class="fil1" points="3114,3522 3038,3478 3194,3386 3273,3432 "/>
   <line class="fil4 str17" x1="2872" y1="3833" x2="2872" y2= "3651" />
   <polygon class="fil3 str18" points="4324,1295 4199,1511 3950,1367 3825,1006 3950,790 4199,934 "/>
   <path class="fil3" d="M4074 1307c35,20 70,25 96,10 27,-16 40,-48 40,-88 0,-40 -13,-88 -40,-134 -26,-46 -61,-81 -95,-101 -35,-20 -70,-25 -97,-10 -26,16 -39,48 -39,88 0,41 13,88 39,134 27,46 61,81 96,101z"/>
   <g style="clip-path:url(#id4)">
    <g>
     <path id="1" class="fil4 str19" d="M4095 1295c35,20 70,25 96,10 27,-16 40,-48 40,-88 0,-40 -13,-88 -40,-134 -26,-46 -61,-81 -96,-101 -34,-20 -69,-25 -96,-10 -26,16 -40,48 -40,88 0,40 14,88 40,134 27,46 61,81 96,101z"/>
     <path class="fil4 str20" d="M4116 1283c35,20 69,25 96,10 27,-16 40,-48 40,-88 0,-40 -13,-88 -40,-134 -26,-46 -61,-81 -96,-101 -34,-20 -69,-25 -96,-10 -26,16 -40,48 -40,88 0,40 14,88 40,134 26,46 61,81 96,101z"/>
     <path class="fil4 str21" d="M4137 1271c35,20 69,25 96,10 27,-16 40,-48 40,-88 0,-41 -13,-88 -40,-134 -26,-46 -61,-81 -96,-101 -35,-20 -69,-25 -96,-10 -26,16 -40,48 -40,88 0,40 13,88 40,134 26,46 61,81 96,101z"/>
     <path class="fil4 str22" d="M4158 1259c34,20 69,25 96,9 26,-15 40,-47 40,-88 0,-40 -14,-87 -40,-133 -26,-46 -61,-81 -96,-101 -35,-20 -69,-25 -96,-10 -27,16 -40,48 -40,88 0,40 13,88 40,134 26,46 61,81 96,101z"/>
     <path class="fil4 str23" d="M4180 1246c35,20 70,25 96,10 27,-16 40,-48 40,-88 0,-41 -13,-88 -40,-134 -26,-46 -61,-81 -95,-101 -35,-20 -70,-25 -97,-10 -26,16 -39,48 -39,88 0,40 13,88 39,134 27,46 61,81 96,101z"/>
     <path class="fil4 str24" d="M4201 1234c35,20 70,25 96,9 27,-15 40,-47 40,-88 0,-40 -13,-87 -40,-133 -26,-46 -61,-81 -96,-101 -34,-20 -69,-25 -96,-10 -26,16 -40,48 -40,88 0,40 14,88 40,134 27,46 61,81 96,101z"/>
     <path class="fil4 str25" d="M4222 1222c35,20 69,25 96,9 27,-15 40,-47 40,-88 0,-40 -13,-87 -40,-133 -26,-46 -61,-81 -96,-101 -34,-20 -69,-25 -96,-10 -26,15 -40,48 -40,88 0,40 14,88 40,134 26,46 61,81 96,101z"/>
     <path class="fil4 str26" d="M4243 1210c35,20 69,25 96,9 26,-15 40,-48 40,-88 0,-40 -13,-87 -40,-133 -26,-46 -61,-81 -96,-101 -35,-21 -69,-25 -96,-10 -27,15 -40,48 -40,88 0,40 13,88 40,134 26,46 61,81 96,101z"/>
    </g>
   </g>
   <path class="fil4 str27" d="M4074 1307c35,20 70,25 96,10 27,-16 40,-48 40,-88 0,-40 -13,-88 -40,-134 -26,-46 -61,-81 -95,-101 -35,-20 -70,-25 -97,-10 -26,16 -39,48 -39,88 0,41 13,88 39,134 27,46 61,81 96,101z"/>
   <polygon class="fil3 str28" points="4199,934 3950,790 4138,682 4387,826 4512,1186 4387,1402 4199,1511 4325,1295 "/>
   <polygon class="fil3 str28" points="4512,1186 4387,826 4199,934 4325,1295 "/>
   <polygon class="fil3 str29" points="144,3239 226,3382 392,3287 475,3048 392,2904 226,3000 "/>
   <path class="fil3" d="M309 3247c-23,13 -46,17 -63,6 -18,-10 -27,-31 -27,-58 0,-27 9,-58 26,-89 18,-30 41,-54 64,-67 23,-13 46,-16 64,-6 17,10 26,32 26,58 0,27 -8,59 -26,89 -18,30 -41,54 -64,67z"/>
   <g style="clip-path:url(#id5)">
    <g>
     <path id="1" class="fil4 str30" d="M296 3239c-24,13 -47,17 -64,6 -18,-10 -27,-31 -27,-58 0,-27 9,-58 27,-89 17,-30 40,-54 63,-67 23,-13 46,-16 64,-6 18,10 26,32 26,58 0,27 -8,59 -26,89 -17,30 -40,54 -63,67z"/>
     <path class="fil4 str31" d="M282 3231c-23,13 -47,17 -64,6 -18,-10 -27,-31 -27,-58 0,-27 9,-58 27,-89 17,-30 40,-54 63,-67 23,-13 46,-16 64,-6 18,10 27,32 27,58 0,27 -9,59 -27,89 -17,30 -40,54 -63,67z"/>
     <path class="fil4 str32" d="M268 3223c-23,13 -46,17 -64,6 -18,-10 -26,-31 -27,-58 0,-27 9,-58 27,-89 17,-30 40,-54 63,-67 24,-13 47,-16 64,-6 18,10 27,32 27,58 0,27 -9,59 -27,89 -17,30 -40,54 -63,67z"/>
     <path class="fil4 str33" d="M254 3215c-23,13 -46,17 -64,6 -18,-10 -26,-31 -26,-58 0,-27 8,-58 26,-89 18,-30 41,-54 64,-67 23,-13 46,-16 63,-6 18,10 27,32 27,58 0,27 -9,59 -26,89 -18,30 -41,54 -64,67z"/>
     <path class="fil4 str34" d="M239 3206c-23,14 -46,17 -64,7 -17,-10 -26,-32 -26,-59 0,-26 9,-58 26,-88 18,-31 41,-54 64,-67 23,-14 46,-17 64,-7 17,10 26,32 26,59 0,26 -9,58 -26,88 -18,31 -41,54 -64,67z"/>
     <path class="fil4 str35" d="M225 3198c-23,14 -46,17 -64,7 -17,-10 -26,-32 -26,-59 0,-26 9,-58 26,-88 18,-31 41,-54 64,-67 23,-14 46,-17 64,-7 17,10 26,32 26,59 0,26 -9,58 -26,88 -18,31 -41,54 -64,67z"/>
     <path class="fil4 str36" d="M211 3190c-23,14 -46,17 -63,7 -18,-10 -27,-32 -27,-59 0,-26 9,-58 26,-88 18,-31 41,-54 64,-67 23,-14 46,-17 64,-7 17,10 26,32 26,59 0,26 -8,58 -26,88 -18,31 -41,54 -64,67z"/>
     <path class="fil4 str37" d="M197 3182c-23,14 -46,17 -63,7 -18,-10 -27,-32 -27,-59 0,-26 9,-58 27,-88 17,-31 40,-54 63,-67 23,-14 46,-17 64,-7 18,10 26,32 26,59 0,26 -8,58 -26,88 -17,31 -41,54 -64,67z"/>
    </g>
   </g>
   <path class="fil4 str38" d="M309 3247c-23,13 -46,17 -63,6 -18,-10 -27,-31 -27,-58 0,-27 9,-58 26,-89 18,-30 41,-54 64,-67 23,-13 46,-16 64,-6 17,10 26,32 26,58 0,27 -8,59 -26,89 -18,30 -41,54 -64,67z"/>
   <polygon class="fil3 str39" points="226,3000 392,2904 267,2832 102,2928 19,3167 102,3310 226,3382 143,3239 "/>
   <polygon class="fil3 str39" points="19,3167 102,2928 226,3000 143,3239 "/>
   <polygon class="fil3 str40" points="1583,822 1583,190 1912,0 1912,633 "/>
   <polygon class="fil1" points="1609,245 1609,175 1670,140 1670,210 "/>
   <polygon class="fil1" points="1731,175 1731,105 1791,70 1791,140 "/>
   <polygon class="fil1" points="1852,105 1852,35 1912,0 1912,70 "/>
   <polygon class="fil1" points="1791,210 1791,140 1852,105 1852,175 "/>
   <polygon class="fil1" points="1670,280 1670,210 1731,175 1731,245 "/>
   <polygon class="fil1" points="1583,330 1583,260 1609,245 1609,315 "/>
   <polygon class="fil1" points="1609,385 1609,315 1670,280 1670,350 "/>
   <polygon class="fil1" points="1731,315 1731,245 1791,210 1791,280 "/>
   <polygon class="fil1" points="1852,245 1852,175 1912,140 1912,210 "/>
   <polygon class="fil1" points="1791,350 1791,280 1852,245 1852,315 "/>
   <polygon class="fil1" points="1670,420 1670,350 1731,315 1731,385 "/>
   <polygon class="fil1" points="1583,470 1583,400 1609,385 1609,455 "/>
   <polygon class="fil1" points="1609,525 1609,455 1670,420 1670,490 "/>
   <polygon class="fil1" points="1731,455 1731,385 1791,350 1791,420 "/>
   <polygon class="fil1" points="1852,385 1852,315 1912,280 1912,350 "/>
   <polygon class="fil1" points="1791,490 1791,420 1852,385 1852,455 "/>
   <polygon class="fil1" points="1670,560 1670,490 1731,455 1731,525 "/>
   <polygon class="fil1" points="1583,609 1583,539 1609,525 1609,594 "/>
   <polygon class="fil1" points="1609,664 1609,594 1670,560 1670,629 "/>
   <polygon class="fil1" points="1731,594 1731,525 1791,490 1791,560 "/>
   <polygon class="fil1" points="1852,525 1852,455 1912,420 1912,490 "/>
   <polygon class="fil1" points="1791,629 1791,560 1852,525 1852,594 "/>
   <polygon class="fil1" points="1670,699 1670,629 1731,594 1731,664 "/>
   <polygon class="fil1" points="1583,749 1583,679 1609,664 1609,734 "/>
   <polygon class="fil1" points="1609,804 1609,734 1670,699 1670,769 "/>
   <polygon class="fil1" points="1731,734 1731,664 1791,629 1791,699 "/>
   <polygon class="fil1" points="1852,664 1852,594 1912,560 1912,629 "/>
   <polygon class="fil3 str41" points="1346,1065 1346,432 1674,242 1674,875 "/>
   <polygon class="fil1" points="1372,487 1372,417 1432,382 1432,452 "/>
   <polygon class="fil1" points="1493,417 1493,347 1553,312 1553,382 "/>
   <polygon class="fil1" points="1614,347 1614,277 1674,242 1674,312 "/>
   <polygon class="fil1" points="1553,452 1553,382 1614,347 1614,417 "/>
   <polygon class="fil1" points="1432,522 1432,452 1493,417 1493,487 "/>
   <polygon class="fil1" points="1346,572 1346,502 1372,487 1372,557 "/>
   <polygon class="fil1" points="1372,627 1372,557 1432,522 1432,592 "/>
   <polygon class="fil1" points="1493,557 1493,487 1553,452 1553,522 "/>
   <polygon class="fil1" points="1614,487 1614,417 1674,382 1674,452 "/>
   <polygon class="fil1" points="1553,592 1553,522 1614,487 1614,557 "/>
   <polygon class="fil1" points="1432,662 1432,592 1493,557 1493,627 "/>
   <polygon class="fil1" points="1346,712 1346,642 1372,627 1372,697 "/>
   <polygon class="fil1" points="1372,767 1372,697 1432,662 1432,732 "/>
   <polygon class="fil1" points="1493,697 1493,627 1553,592 1553,662 "/>
   <polygon class="fil1" points="1614,627 1614,557 1674,522 1674,592 "/>
   <polygon class="fil1" points="1553,732 1553,662 1614,627 1614,697 "/>
   <polygon class="fil1" points="1432,802 1432,732 1493,697 1493,767 "/>
   <polygon class="fil1" points="1346,852 1346,782 1372,767 1372,837 "/>
   <polygon class="fil1" points="1372,907 1372,837 1432,802 1432,872 "/>
   <polygon class="fil1" points="1493,837 1493,767 1553,732 1553,802 "/>
   <polygon class="fil1" points="1614,767 1614,697 1674,662 1674,732 "/>
   <polygon class="fil1" points="1553,872 1553,802 1614,767 1614,837 "/>
   <polygon class="fil1" points="1432,942 1432,872 1493,837 1493,907 "/>
   <polygon class="fil1" points="1346,992 1346,922 1372,907 1372,977 "/>
   <polygon class="fil1" points="1372,1047 1372,977 1432,942 1432,1012 "/>
   <polygon class="fil1" points="1493,977 1493,907 1553,872 1553,942 "/>
   <polygon class="fil1" points="1614,907 1614,837 1674,802 1674,872 "/>
   <polygon class="fil3 str41" points="1583,295 1583,190 1670,245 "/>
   <path class="fil3 str42" d="M1350 366c-13,0 -25,7 -25,15l0 1300c0,8 12,14 25,14 14,0 25,-6 25,-14l0 -1300c0,-8 -11,-15 -25,-15z"/>
   <g>
    <path class="fil3" d="M1350 366c-13,0 -25,7 -25,15 0,8 12,14 25,14 14,0 25,-6 25,-14 0,-8 -11,-15 -25,-15z"/>
    <path id="1" class="fil5 str43" d="M1350 366c-13,0 -25,7 -25,15 0,8 12,14 25,14 14,0 25,-6 25,-14 0,-8 -11,-15 -25,-15z"/>
   </g>
   <path class="fil3 str44" d="M1350 331c14,0 25,11 25,25 0,14 -11,25 -25,25 -13,0 -25,-11 -25,-25 0,-14 12,-25 25,-25z"/>
  </g>
 </g>
</svg>
