<?xml version="1.0" encoding="UTF-8"?>
<!DOCTYPE svg PUBLIC "-//W3C//DTD SVG 1.1//EN" "http://www.w3.org/Graphics/SVG/1.1/DTD/svg11.dtd">
<!-- Creator: CorelDRAW X7 -->
<svg xmlns="http://www.w3.org/2000/svg" xml:space="preserve" width="87.8838mm" height="40.7246mm" version="1.1" style="shape-rendering:geometricPrecision; text-rendering:geometricPrecision; image-rendering:optimizeQuality; fill-rule:evenodd; clip-rule:evenodd"
viewBox="0 0 8788 4072"
 xmlns:xlink="http://www.w3.org/1999/xlink">
 <defs>
  <style type="text/css">
   <![CDATA[
    .str2 {stroke:#FFF4F0;stroke-width:13.79;stroke-linecap:round;stroke-linejoin:round}
    .str1 {stroke:#FFF4F0;stroke-width:13.79;stroke-linecap:round;stroke-linejoin:round}
    .str0 {stroke:#FFF4F0;stroke-width:13.99;stroke-linecap:round;stroke-linejoin:round}
    .str6 {stroke:#FFF4F0;stroke-width:16.8;stroke-linecap:round;stroke-linejoin:round}
    .str7 {stroke:#FFF4F0;stroke-width:16.8;stroke-linecap:round;stroke-linejoin:round}
    .str5 {stroke:#FFF4F0;stroke-width:16.8;stroke-linecap:round;stroke-linejoin:round}
    .str3 {stroke:#FFF4F0;stroke-width:12.1;stroke-linecap:round;stroke-linejoin:round}
    .str4 {stroke:#FFF4F0;stroke-width:12.1;stroke-linecap:round;stroke-linejoin:round}
    .fil3 {fill:none}
    .fil2 {fill:#61003F}
    .fil1 {fill:#FFF4F0}
    .fil4 {fill:#FFF4F0;fill-rule:nonzero}
    .fil0 {fill:#FFF4F0;fill-rule:nonzero}
   ]]>
  </style>
     <clipPath id="id0">
      <path d="M1764 3257c0,60 -84,109 -187,109 -103,0 -187,-49 -187,-109l0 -367c0,-60 84,-108 187,-108 103,0 187,48 187,108l0 367z"/>
     </clipPath>
 </defs>
 <g id="Layer_x0020_1">
  <metadata id="CorelCorpID_0Corel-Layer"/>
  <g id="_2595068624480">
   <polygon class="fil0" points="261,2164 -2,2164 -2,1070 261,1070 "/>
   <polygon id="1" class="fil0" points="1358,2164 1096,2164 708,1483 708,2164 445,2164 445,1070 708,1070 1095,1751 1095,1070 1358,1070 "/>
   <polygon id="2" class="fil0" points="2363,1273 2034,1273 2034,2164 1770,2164 1770,1273 1448,1273 1448,1070 2363,1070 "/>
   <polygon id="3" class="fil0" points="3152,1699 2738,1699 2738,1961 3227,1961 3227,2164 2474,2164 2474,1070 3229,1070 3229,1273 2738,1273 2738,1504 3152,1504 "/>
   <path id="4" class="fil0" d="M3741 1778l-143 0 0 386 -264 0 0 -1094 431 0c130,0 231,29 305,86 73,58 109,139 109,244 0,77 -15,140 -46,190 -31,50 -79,91 -145,122l229 441 0 11 -283 0 -193 -386zm-143 -203l167 0c50,0 88,-13 113,-40 26,-26 38,-63 38,-110 0,-48 -13,-85 -38,-112 -26,-27 -63,-40 -113,-40l-167 0 0 302z"/>
   <polygon id="5" class="fil0" points="5252,2164 4990,2164 4602,1483 4602,2164 4339,2164 4339,1070 4602,1070 4989,1751 4989,1070 5252,1070 "/>
   <path id="6" class="fil0" d="M5984 1873c0,-38 -14,-68 -41,-90 -28,-21 -76,-44 -144,-67 -69,-23 -125,-45 -168,-67 -142,-69 -213,-165 -213,-287 0,-61 17,-114 53,-161 35,-46 85,-82 150,-108 64,-26 137,-39 218,-39 78,0 149,15 211,43 63,27 111,67 146,119 34,52 52,111 52,178l-263 0c0,-45 -14,-79 -41,-104 -28,-25 -65,-37 -111,-37 -47,0 -85,10 -112,31 -27,21 -41,48 -41,80 0,28 15,53 45,76 30,23 83,47 159,71 76,24 138,51 186,79 118,68 178,162 178,282 0,96 -37,171 -109,225 -72,55 -171,82 -296,82 -89,0 -169,-15 -241,-47 -72,-32 -126,-76 -163,-131 -36,-55 -54,-119 -54,-191l264 0c0,58 16,101 46,129 30,28 79,42 148,42 43,0 78,-10 103,-28 25,-19 38,-45 38,-80z"/>
   <polygon id="7" class="fil0" points="7297,2164 7035,2164 7035,1707 6647,1707 6647,2164 6383,2164 6383,1070 6647,1070 6647,1504 7035,1504 7035,1070 7297,1070 "/>
   <polygon id="8" class="fil0" points="7745,2164 7482,2164 7482,1070 7745,1070 "/>
   <path id="9" class="fil0" d="M8193 1792l0 372 -264 0 0 -1094 437 0c83,0 157,15 222,46 64,31 114,74 149,131 35,57 53,121 53,193 0,107 -38,192 -115,256 -76,64 -181,96 -314,96l-168 0zm0 -204l173 0c51,0 90,-12 116,-38 27,-25 41,-61 41,-108 0,-51 -14,-92 -42,-122 -27,-31 -65,-46 -112,-47l-176 0 0 315z"/>
   <polygon id="10" class="fil0" points="3180,3011 2765,3011 2765,3272 3255,3272 3255,3476 2501,3476 2501,2381 3257,2381 3257,2584 2765,2584 2765,2815 3180,2815 "/>
   <polygon id="11" class="fil0" points="3771,2745 3949,2381 4251,2381 3945,2924 4259,3476 3955,3476 3771,3105 3586,3476 3283,3476 3596,2924 3291,2381 3592,2381 "/>
   <path id="12" class="fil0" d="M4609 3103l0 373 -264 0 0 -1095 437 0c83,0 157,16 222,46 64,31 114,75 149,132 35,56 53,121 53,193 0,106 -38,192 -115,255 -76,64 -181,96 -314,96l-168 0zm0 -203l173 0c51,0 90,-13 116,-38 27,-26 41,-62 41,-109 0,-51 -14,-91 -42,-122 -27,-31 -65,-46 -112,-47l-176 0 0 316z"/>
   <path id="13" class="fil0" d="M6273 2951c0,107 -20,201 -60,283 -39,83 -96,146 -168,191 -73,44 -156,66 -250,66 -93,0 -175,-22 -248,-64 -72,-43 -128,-105 -168,-184 -41,-80 -62,-171 -64,-275l0 -61c0,-108 20,-202 59,-284 40,-82 96,-146 169,-190 74,-45 157,-67 251,-67 93,0 175,22 248,66 73,44 129,107 170,188 40,82 60,175 61,281l0 50zm-269 -46c0,-109 -18,-192 -54,-248 -37,-57 -88,-85 -156,-85 -132,0 -202,99 -210,298l0 81c0,107 17,190 53,247 35,58 88,87 158,87 67,0 118,-29 154,-85 37,-57 55,-138 55,-245l0 -50z"/>
   <g>
    <rect class="fil1" x="7346" y="1705" width="1034.56" height="15.4007"/>
    <rect class="fil1" x="5967" y="1353" width="1034.56" height="30.8046"/>
    <rect class="fil1" x="7689" y="1572" width="601.805" height="8.95798"/>
    <rect class="fil2" x="7630" y="1597" width="991.72" height="30.8046"/>
    <rect class="fil1" x="6392" y="1310" width="775.922" height="14.1541"/>
    <rect class="fil2" x="6656" y="1399" width="601.805" height="8.95798"/>
    <rect class="fil2" x="6765" y="1286" width="775.922" height="3.9432"/>
    <rect class="fil2" x="7839" y="1413" width="517.277" height="30.8046"/>
    <rect class="fil1" x="7939" y="1480" width="474.701" height="20.3375"/>
    <rect class="fil1" x="8098" y="2040" width="455.043" height="20.3375"/>
    <rect class="fil1" x="8432" y="1807" width="227.519" height="40.6792"/>
    <rect class="fil1" x="8249" y="1864" width="264.698" height="11.8295"/>
    <rect class="fil2" x="8288" y="1898" width="455.043" height="40.6792"/>
    <rect class="fil1" x="2985" y="1452" width="1034.56" height="15.4007"/>
    <rect class="fil1" x="2002" y="1505" width="1034.56" height="30.8046"/>
    <rect class="fil1" x="1606" y="1100" width="1034.56" height="30.8046"/>
    <rect class="fil1" x="3329" y="1319" width="601.805" height="8.95798"/>
    <rect class="fil2" x="3417" y="1344" width="1034.56" height="30.8046"/>
    <rect class="fil2" x="2295" y="1146" width="601.805" height="8.95798"/>
    <rect class="fil2" x="2404" y="1033" width="775.922" height="3.9432"/>
    <rect class="fil2" x="3479" y="1161" width="517.277" height="30.8046"/>
    <rect class="fil1" x="3578" y="1227" width="474.701" height="20.3375"/>
    <rect class="fil1" x="3904" y="1787" width="474.701" height="20.3375"/>
    <rect class="fil1" x="4253" y="1554" width="237.348" height="40.6792"/>
    <rect class="fil1" x="4062" y="1611" width="276.134" height="11.8295"/>
    <rect class="fil2" x="4102" y="1645" width="474.701" height="40.6792"/>
    <rect class="fil1" x="1330" y="1827" width="325.745" height="39.6476"/>
    <rect class="fil1" x="1068" y="1883" width="378.976" height="11.5295"/>
    <rect class="fil2" x="1124" y="1916" width="651.497" height="39.6476"/>
    <rect class="fil1" x="376" y="1797" width="651.497" height="19.8218"/>
    <rect class="fil1" x="512" y="1626" width="378.976" height="11.5295"/>
    <rect class="fil2" x="306" y="1659" width="651.497" height="39.6476"/>
    <rect class="fil1" x="4886" y="1834" width="212.28" height="25.8374"/>
    <rect class="fil1" x="5022" y="1816" width="246.969" height="7.51351"/>
    <rect class="fil2" x="4809" y="1777" width="424.564" height="25.8374"/>
    <rect class="fil1" x="5519" y="1867" width="424.564" height="12.9174"/>
    <rect class="fil1" x="5419" y="2002" width="212.28" height="25.8374"/>
    <rect class="fil1" x="5555" y="1984" width="246.969" height="7.51351"/>
    <rect class="fil2" x="5342" y="1944" width="424.564" height="25.8374"/>
   </g>
   <g>
    <rect class="fil1" x="2665" y="2949" width="1113.75" height="17.1094"/>
    <rect class="fil1" x="4149" y="2559" width="1113.75" height="34.2224"/>
    <rect class="fil1" x="2761" y="2802" width="647.867" height="9.95186"/>
    <rect class="fil2" x="2405" y="2830" width="1067.63" height="34.2224"/>
    <rect class="fil1" x="3970" y="2511" width="835.311" height="15.7245"/>
    <rect class="fil2" x="3874" y="2610" width="647.867" height="9.95186"/>
    <rect class="fil2" x="3569" y="2484" width="835.311" height="4.38069"/>
    <rect class="fil2" x="2691" y="2626" width="556.869" height="34.2224"/>
    <rect class="fil1" x="2630" y="2700" width="511.034" height="22.5939"/>
    <rect class="fil1" x="2480" y="3321" width="489.871" height="22.5939"/>
    <rect class="fil1" x="2365" y="3063" width="244.933" height="45.1925"/>
    <rect class="fil1" x="2522" y="3126" width="284.958" height="13.142"/>
    <rect class="fil2" x="2275" y="3164" width="489.871" height="45.1925"/>
    <rect class="fil1" x="6198" y="3093" width="228.528" height="28.704"/>
    <rect class="fil1" x="6014" y="3073" width="265.872" height="8.34713"/>
    <rect class="fil2" x="6053" y="3029" width="457.06" height="28.704"/>
    <rect class="fil1" x="5289" y="3130" width="457.06" height="14.3505"/>
    <rect class="fil1" x="5624" y="3279" width="228.528" height="28.704"/>
    <rect class="fil1" x="5440" y="3259" width="265.872" height="8.34713"/>
    <rect class="fil2" x="5479" y="3215" width="457.06" height="28.704"/>
   </g>
   <path class="fil1" d="M7528 4036l-42 25 -425 -2110 42 -25 31 152 340 -197 -31 -151 43 -25 425 2111 -43 24 -65 -325 -341 196 66 325zm264 -572l-43 -213 -340 196 43 213 340 -196zm-53 -264l-43 -213 -340 196 43 214 340 -197zm-53 -264l-43 -213 -340 196 43 214 340 -197zm-53 -263l-43 -214 -340 197 43 213 340 -196zm-53 -264l-43 -213 -340 196 43 213 340 -196zm-53 -264l-43 -213 -340 196 43 213 340 -196z"/>
   <path class="fil2 str0" d="M7549 4049l-42 24 -425 -2110 42 -25 31 152 340 -196 -31 -152 43 -24 425 2110 -43 24 -65 -325 -340 196 65 326zm265 -573l-43 -213 -340 196 43 214 340 -197zm-54 -263l-43 -214 -340 197 43 213 340 -196zm-53 -264l-43 -214 -340 197 43 213 340 -196zm-53 -264l-43 -213 -340 196 43 213 340 -196zm-53 -264l-43 -213 -340 196 43 213 340 -196zm-53 -264l-43 -213 -340 196 43 214 340 -197z"/>
   <g>
    <polygon class="fil2 str1" points="2459,608 2286,646 2205,950 2433,762 "/>
    <g>
     <path class="fil2" d="M2290 706l-85 244 85 -49 0 -195zm-85 -49l-168 98 0 -488 -85 49 211 -317 211 73 -84 49 0 487 -85 49zm0 293l0 -293 254 -146 0 97 -254 342zm85 536l253 -147 0 -779 -253 146 0 0 0 195 0 585z"/>
     <path id="1" class="fil3 str2" d="M2290 706l-85 244 85 -49m-85 -244l-168 98 0 -488 -85 49 211 -317 211 73 -84 49 0 487m-85 342l0 -293 254 -146 0 97m-169 878l253 -147 0 -779 -253 146 0 0 0 195 0 585z"/>
    </g>
   </g>
   <g id="_2595068624032">
    <circle class="fil2 str3" cx="1577" cy="2544" r="486"/>
    <path class="fil2" d="M1764 3257c0,60 -84,109 -187,109 -103,0 -187,-49 -187,-109l0 -367c0,-60 84,-108 187,-108 103,0 187,48 187,108l0 367z"/>
    <g style="clip-path:url(#id0)">
     <g>
      <g>
       <path id="1" class="fil2" d="M1577 3149c103,0 187,48 187,108 0,60 -84,109 -187,109 -103,0 -187,-49 -187,-109 0,-60 84,-108 187,-108z"/>
       <path id="2" class="fil4" d="M1773 3257l-18 0 0 0 0 -4 -1 -5 -1 -5 -1 -5 -2 -4 -2 -5 -3 -4 -3 -5 -3 -4 -4 -4 -4 -4 -5 -4 -5 -4 -5 -4 -5 -4 -6 -4 -6 -3 -7 -3 -7 -3 -7 -3 -7 -3 -7 -2 -8 -3 -8 -2 -8 -2 -9 -1 -8 -2 -9 -1 -9 -1 -9 -1 -9 0 -10 0 0 -18 10 0 10 1 9 0 10 1 9 2 9 1 9 2 9 2 9 2 8 3 8 2 8 3 8 3 7 4 7 3 7 4 6 4 7 4 5 4 6 5 5 5 5 5 5 5 4 5 3 5 4 6 2 6 3 6 2 6 1 6 1 6 0 6 0 0zm-196 118l0 -18 0 0 10 0 9 -1 9 0 9 -1 9 -2 8 -1 9 -2 8 -1 8 -3 8 -2 7 -2 7 -3 7 -3 7 -3 7 -3 6 -4 6 -3 5 -4 5 -4 5 -4 5 -4 4 -4 4 -4 3 -5 3 -4 3 -5 2 -4 2 -5 1 -4 1 -5 1 -5 0 -5 18 0 0 7 -1 6 -1 6 -2 6 -3 6 -2 6 -4 5 -3 6 -4 5 -5 5 -5 5 -5 5 -6 4 -5 5 -7 4 -6 4 -7 3 -7 4 -7 3 -8 3 -8 3 -8 3 -8 3 -9 2 -9 2 -9 2 -9 1 -9 1 -10 1 -9 1 -10 0 -10 1 0 0zm-196 -118l18 0 0 0 0 5 1 5 1 5 2 4 1 5 3 4 2 5 3 4 4 5 3 4 5 4 4 4 5 4 5 4 6 4 6 3 6 4 6 3 7 3 7 3 7 3 8 2 8 2 8 3 8 1 8 2 9 1 9 2 9 1 9 0 9 1 9 0 0 18 -10 -1 -9 0 -10 -1 -10 -1 -9 -1 -9 -1 -9 -2 -9 -2 -8 -2 -9 -3 -8 -3 -8 -3 -7 -3 -8 -3 -7 -4 -7 -3 -6 -4 -6 -4 -6 -5 -6 -4 -5 -5 -5 -5 -4 -5 -4 -5 -4 -6 -3 -5 -3 -6 -2 -6 -2 -6 -2 -6 0 -6 -1 -7 0 0zm196 -117l0 18 0 0 -9 0 -9 0 -9 1 -9 1 -9 1 -9 2 -8 1 -8 2 -8 2 -8 3 -8 2 -7 3 -7 3 -7 3 -6 3 -6 3 -6 4 -6 4 -5 4 -5 4 -4 4 -5 4 -3 4 -4 4 -3 5 -2 4 -3 5 -1 4 -2 5 -1 5 -1 5 0 4 -18 0 1 -6 0 -6 2 -6 2 -6 2 -6 3 -6 3 -6 4 -5 4 -5 4 -5 5 -5 5 -5 6 -5 6 -4 6 -4 6 -4 7 -4 7 -3 8 -4 7 -3 8 -3 8 -2 9 -3 8 -2 9 -2 9 -2 9 -1 9 -2 10 -1 10 0 9 -1 10 0 0 0z"/>
      </g>
      <g>
       <path class="fil2" d="M1577 3097c103,0 187,48 187,108 0,60 -84,108 -187,108 -103,0 -187,-48 -187,-108 0,-60 84,-108 187,-108z"/>
       <path id="1" class="fil4" d="M1773 3205l-18 0 0 0 0 -5 -1 -5 -1 -4 -1 -5 -2 -5 -2 -4 -3 -5 -3 -4 -3 -4 -4 -5 -4 -4 -5 -4 -5 -4 -5 -4 -5 -3 -6 -4 -6 -3 -7 -4 -7 -3 -7 -3 -7 -2 -7 -3 -8 -2 -8 -2 -8 -2 -9 -2 -8 -1 -9 -1 -9 -1 -9 -1 -9 0 -10 -1 0 -17 10 0 10 0 9 1 10 1 9 1 9 2 9 1 9 2 9 3 8 2 8 3 8 3 8 3 7 3 7 4 7 4 6 4 7 4 5 4 6 5 5 4 5 5 5 5 4 5 3 6 4 5 2 6 3 6 2 6 1 6 1 7 0 6 0 0zm-196 117l0 -18 0 0 10 0 9 0 9 -1 9 -1 9 -1 8 -1 9 -2 8 -2 8 -2 8 -2 7 -3 7 -3 7 -2 7 -4 7 -3 6 -3 6 -4 5 -3 5 -4 5 -4 5 -4 4 -5 4 -4 3 -4 3 -5 3 -4 2 -5 2 -4 1 -5 1 -5 1 -4 0 -5 18 0 0 6 -1 6 -1 7 -2 6 -3 6 -2 5 -4 6 -3 5 -4 6 -5 5 -5 4 -5 5 -6 5 -5 4 -7 4 -6 4 -7 4 -7 4 -7 3 -8 3 -8 3 -8 3 -8 2 -9 2 -9 2 -9 2 -9 2 -9 1 -10 1 -9 1 -10 0 -10 0 0 0zm-196 -117l18 0 0 0 0 5 1 4 1 5 2 5 1 4 3 5 2 4 3 5 4 4 3 4 5 5 4 4 5 4 5 4 6 3 6 4 6 3 6 3 7 4 7 2 7 3 8 3 8 2 8 2 8 2 8 2 9 1 9 1 9 1 9 1 9 0 9 0 0 18 -10 0 -9 0 -10 -1 -10 -1 -9 -1 -9 -2 -9 -2 -9 -2 -8 -2 -9 -2 -8 -3 -8 -3 -7 -3 -8 -3 -7 -4 -7 -4 -6 -4 -6 -4 -6 -4 -6 -5 -5 -5 -5 -4 -4 -5 -4 -6 -4 -5 -3 -6 -3 -5 -2 -6 -2 -6 -2 -7 0 -6 -1 -6 0 0zm196 -117l0 17 0 0 -9 1 -9 0 -9 1 -9 1 -9 1 -9 1 -8 2 -8 2 -8 2 -8 2 -8 3 -7 2 -7 3 -7 3 -6 4 -6 3 -6 4 -6 3 -5 4 -5 4 -4 4 -5 4 -3 5 -4 4 -3 4 -2 5 -3 4 -1 5 -2 5 -1 4 -1 5 0 5 -18 0 1 -6 0 -7 2 -6 2 -6 2 -6 3 -6 3 -5 4 -6 4 -5 4 -5 5 -5 5 -4 6 -5 6 -4 6 -4 6 -4 7 -4 7 -4 8 -3 7 -3 8 -3 8 -3 9 -2 8 -3 9 -2 9 -1 9 -2 9 -1 10 -1 10 -1 9 0 10 0 0 0z"/>
      </g>
      <g>
       <path class="fil2" d="M1577 3044c103,0 187,49 187,108 0,60 -84,109 -187,109 -103,0 -187,-49 -187,-109 0,-59 84,-108 187,-108z"/>
       <path id="1" class="fil4" d="M1773 3152l-18 0 0 0 0 -4 -1 -5 -1 -5 -1 -4 -2 -5 -2 -5 -3 -4 -3 -5 -3 -4 -4 -4 -4 -4 -5 -4 -5 -4 -5 -4 -5 -4 -6 -4 -6 -3 -7 -3 -7 -3 -7 -3 -7 -3 -7 -2 -8 -3 -8 -2 -8 -2 -9 -1 -8 -2 -9 -1 -9 -1 -9 0 -9 -1 -10 0 0 -18 10 0 10 1 9 0 10 1 9 2 9 1 9 2 9 2 9 2 8 3 8 2 8 3 8 3 7 4 7 3 7 4 6 4 7 4 5 5 6 4 5 5 5 5 5 5 4 5 3 5 4 6 2 6 3 6 2 6 1 6 1 6 0 6 0 0zm-196 118l0 -18 0 0 10 0 9 -1 9 0 9 -1 9 -1 8 -2 9 -2 8 -1 8 -3 8 -2 7 -2 7 -3 7 -3 7 -3 7 -3 6 -4 6 -3 5 -4 5 -4 5 -4 5 -4 4 -4 4 -4 3 -5 3 -4 3 -5 2 -4 2 -5 1 -4 1 -5 1 -5 0 -5 18 0 0 7 -1 6 -1 6 -2 6 -3 6 -2 6 -4 5 -3 6 -4 5 -5 5 -5 5 -5 5 -6 4 -5 5 -7 4 -6 4 -7 3 -7 4 -7 3 -8 4 -8 2 -8 3 -8 3 -9 2 -9 2 -9 2 -9 1 -9 1 -10 1 -9 1 -10 1 -10 0 0 0zm-196 -118l18 0 0 0 0 5 1 5 1 5 2 4 1 5 3 4 2 5 3 4 4 5 3 4 5 4 4 4 5 4 5 4 6 4 6 3 6 4 6 3 7 3 7 3 7 3 8 2 8 2 8 3 8 1 8 2 9 2 9 1 9 1 9 0 9 1 9 0 0 18 -10 0 -9 -1 -10 -1 -10 -1 -9 -1 -9 -1 -9 -2 -9 -2 -8 -2 -9 -3 -8 -3 -8 -2 -7 -4 -8 -3 -7 -4 -7 -3 -6 -4 -6 -4 -6 -5 -6 -4 -5 -5 -5 -5 -4 -5 -4 -5 -4 -6 -3 -5 -3 -6 -2 -6 -2 -6 -2 -6 0 -6 -1 -7 0 0zm196 -117l0 18 0 0 -9 0 -9 1 -9 0 -9 1 -9 1 -9 2 -8 1 -8 2 -8 2 -8 3 -8 2 -7 3 -7 3 -7 3 -6 3 -6 3 -6 4 -6 4 -5 4 -5 4 -4 4 -5 4 -3 4 -4 4 -3 5 -2 4 -3 5 -1 5 -2 4 -1 5 -1 5 0 4 -18 0 1 -6 0 -6 2 -6 2 -6 2 -6 3 -6 3 -6 4 -5 4 -5 4 -5 5 -5 5 -5 6 -4 6 -5 6 -4 6 -4 7 -4 7 -3 8 -4 7 -3 8 -3 8 -2 9 -3 8 -2 9 -2 9 -2 9 -1 9 -2 10 -1 10 0 9 -1 10 0 0 0z"/>
      </g>
      <g>
       <path class="fil2" d="M1577 2992c103,0 187,48 187,108 0,60 -84,108 -187,108 -103,0 -187,-48 -187,-108 0,-60 84,-108 187,-108z"/>
       <path id="1" class="fil4" d="M1773 3100l-18 0 0 0 0 -5 -1 -5 -1 -4 -1 -5 -2 -5 -2 -4 -3 -5 -3 -4 -3 -4 -4 -5 -4 -4 -5 -4 -5 -4 -5 -4 -5 -3 -6 -4 -6 -3 -7 -4 -7 -3 -7 -3 -7 -2 -7 -3 -8 -2 -8 -2 -8 -2 -9 -2 -8 -1 -9 -1 -9 -1 -9 -1 -9 0 -10 -1 0 -17 10 0 10 0 9 1 10 1 9 1 9 2 9 1 9 2 9 3 8 2 8 3 8 3 8 3 7 3 7 4 7 4 6 4 7 4 5 4 6 5 5 4 5 5 5 5 4 6 3 5 4 6 2 5 3 6 2 6 1 6 1 7 0 6 0 0zm-196 117l0 -18 0 0 10 0 9 0 9 -1 9 -1 9 -1 8 -1 9 -2 8 -2 8 -2 8 -2 7 -3 7 -3 7 -2 7 -3 7 -4 6 -3 6 -4 5 -3 5 -4 5 -4 5 -4 4 -4 4 -5 3 -4 3 -5 3 -4 2 -5 2 -4 1 -5 1 -5 1 -4 0 -5 18 0 0 6 -1 7 -1 6 -2 6 -3 6 -2 5 -4 6 -3 5 -4 6 -5 5 -5 5 -5 4 -6 5 -5 4 -7 4 -6 4 -7 4 -7 4 -7 3 -8 3 -8 3 -8 3 -8 2 -9 2 -9 2 -9 2 -9 2 -9 1 -10 1 -9 1 -10 0 -10 0 0 0zm-196 -117l18 0 0 0 0 5 1 4 1 5 2 5 1 4 3 5 2 4 3 5 4 4 3 5 5 4 4 4 5 4 5 4 6 3 6 4 6 3 6 4 7 3 7 2 7 3 8 3 8 2 8 2 8 2 8 2 9 1 9 1 9 1 9 1 9 0 9 0 0 18 -10 0 -9 0 -10 -1 -10 -1 -9 -1 -9 -2 -9 -2 -9 -2 -8 -2 -9 -2 -8 -3 -8 -3 -7 -3 -8 -3 -7 -4 -7 -4 -6 -4 -6 -4 -6 -4 -6 -5 -5 -4 -5 -5 -4 -5 -4 -6 -4 -5 -3 -6 -3 -5 -2 -6 -2 -6 -2 -6 0 -7 -1 -6 0 0zm196 -117l0 17 0 0 -9 1 -9 0 -9 1 -9 1 -9 1 -9 1 -8 2 -8 2 -8 2 -8 2 -8 3 -7 2 -7 3 -7 3 -6 4 -6 3 -6 4 -6 3 -5 4 -5 4 -4 4 -5 4 -3 5 -4 4 -3 4 -2 5 -3 4 -1 5 -2 5 -1 4 -1 5 0 5 -18 0 1 -6 0 -7 2 -6 2 -6 2 -6 3 -5 3 -6 4 -5 4 -6 4 -5 5 -5 5 -4 6 -5 6 -4 6 -4 6 -4 7 -4 7 -4 8 -3 7 -3 8 -3 8 -3 9 -2 8 -3 9 -2 9 -1 9 -2 9 -1 10 -1 10 -1 9 0 10 0 0 0z"/>
      </g>
      <g>
       <path class="fil2" d="M1577 2939c103,0 187,49 187,108 0,60 -84,109 -187,109 -103,0 -187,-49 -187,-109 0,-59 84,-108 187,-108z"/>
       <path id="1" class="fil4" d="M1773 3047l-18 0 0 0 0 -4 -1 -5 -1 -5 -1 -4 -2 -5 -2 -5 -3 -4 -3 -4 -3 -5 -4 -4 -4 -4 -5 -4 -5 -4 -5 -4 -5 -4 -6 -3 -6 -4 -7 -3 -7 -3 -7 -3 -7 -3 -7 -2 -8 -3 -8 -2 -8 -2 -9 -1 -8 -2 -9 -1 -9 -1 -9 0 -9 -1 -10 0 0 -18 10 0 10 1 9 0 10 1 9 2 9 1 9 2 9 2 9 2 8 3 8 2 8 3 8 3 7 4 7 3 7 4 6 4 7 4 5 5 6 4 5 5 5 5 5 5 4 5 3 5 4 6 2 6 3 6 2 6 1 6 1 6 0 6 0 0zm-196 118l0 -18 0 0 10 0 9 -1 9 0 9 -1 9 -1 8 -2 9 -1 8 -2 8 -2 8 -3 7 -2 7 -3 7 -3 7 -3 7 -3 6 -4 6 -3 5 -4 5 -4 5 -4 5 -4 4 -4 4 -4 3 -5 3 -4 3 -5 2 -4 2 -5 1 -4 1 -5 1 -5 0 -5 18 0 0 7 -1 6 -1 6 -2 6 -3 6 -2 6 -4 5 -3 6 -4 5 -5 5 -5 5 -5 5 -6 4 -5 5 -7 4 -6 4 -7 4 -7 3 -7 3 -8 4 -8 3 -8 2 -8 3 -9 2 -9 2 -9 2 -9 1 -9 1 -10 1 -9 1 -10 1 -10 0 0 0zm-196 -118l18 0 0 0 0 5 1 5 1 5 2 4 1 5 3 4 2 5 3 4 4 5 3 4 5 4 4 4 5 4 5 4 6 4 6 3 6 4 6 3 7 3 7 3 7 3 8 2 8 3 8 2 8 2 8 1 9 2 9 1 9 1 9 0 9 1 9 0 0 18 -10 0 -9 -1 -10 -1 -10 -1 -9 -1 -9 -1 -9 -2 -9 -2 -8 -2 -9 -3 -8 -2 -8 -3 -7 -4 -8 -3 -7 -3 -7 -4 -6 -4 -6 -4 -6 -5 -6 -4 -5 -5 -5 -5 -4 -5 -4 -5 -4 -6 -3 -5 -3 -6 -2 -6 -2 -6 -2 -6 0 -6 -1 -7 0 0zm196 -117l0 18 0 0 -9 0 -9 1 -9 0 -9 1 -9 1 -9 2 -8 1 -8 2 -8 2 -8 3 -8 2 -7 3 -7 3 -7 3 -6 3 -6 4 -6 3 -6 4 -5 4 -5 4 -4 4 -5 4 -3 4 -4 5 -3 4 -2 4 -3 5 -1 5 -2 4 -1 5 -1 5 0 4 -18 0 1 -6 0 -6 2 -6 2 -6 2 -6 3 -6 3 -6 4 -5 4 -5 4 -5 5 -5 5 -5 6 -4 6 -5 6 -4 6 -4 7 -4 7 -3 8 -4 7 -3 8 -3 8 -2 9 -3 8 -2 9 -2 9 -2 9 -1 9 -2 10 -1 10 0 9 -1 10 0 0 0z"/>
      </g>
      <g>
       <path class="fil2" d="M1577 2887c103,0 187,48 187,108 0,60 -84,108 -187,108 -103,0 -187,-48 -187,-108 0,-60 84,-108 187,-108z"/>
       <path id="1" class="fil4" d="M1773 2995l-18 0 0 0 0 -5 -1 -5 -1 -4 -1 -5 -2 -4 -2 -5 -3 -5 -3 -4 -3 -4 -4 -5 -4 -4 -5 -4 -5 -4 -5 -4 -5 -3 -6 -4 -6 -3 -7 -4 -7 -3 -7 -3 -7 -2 -7 -3 -8 -2 -8 -2 -8 -2 -9 -2 -8 -1 -9 -1 -9 -1 -9 -1 -9 0 -10 0 0 -18 10 0 10 0 9 1 10 1 9 1 9 2 9 1 9 2 9 3 8 2 8 3 8 3 8 3 7 3 7 4 7 4 6 4 7 4 5 4 6 5 5 4 5 5 5 5 4 6 3 5 4 6 2 5 3 6 2 6 1 6 1 7 0 6 0 0zm-196 117l0 -18 0 0 10 0 9 0 9 -1 9 -1 9 -1 8 -1 9 -2 8 -2 8 -2 8 -2 7 -3 7 -2 7 -3 7 -3 7 -4 6 -3 6 -4 5 -3 5 -4 5 -4 5 -4 4 -4 4 -5 3 -4 3 -4 3 -5 2 -5 2 -4 1 -5 1 -4 1 -5 0 -5 18 0 0 6 -1 7 -1 6 -2 6 -3 6 -2 5 -4 6 -3 5 -4 6 -5 5 -5 5 -5 4 -6 5 -5 4 -7 4 -6 4 -7 4 -7 4 -7 3 -8 3 -8 3 -8 3 -8 2 -9 3 -9 2 -9 1 -9 2 -9 1 -10 1 -9 1 -10 0 -10 0 0 0zm-196 -117l18 0 0 0 0 5 1 5 1 4 2 5 1 4 3 5 2 5 3 4 4 4 3 5 5 4 4 4 5 4 5 4 6 3 6 4 6 3 6 4 7 3 7 3 7 2 8 3 8 2 8 2 8 2 8 2 9 1 9 1 9 1 9 1 9 0 9 0 0 18 -10 0 -9 0 -10 -1 -10 -1 -9 -1 -9 -2 -9 -1 -9 -2 -8 -3 -9 -2 -8 -3 -8 -3 -7 -3 -8 -3 -7 -4 -7 -4 -6 -4 -6 -4 -6 -4 -6 -5 -5 -4 -5 -5 -4 -5 -4 -6 -4 -5 -3 -6 -3 -5 -2 -6 -2 -6 -2 -6 0 -7 -1 -6 0 0zm196 -117l0 18 0 0 -9 0 -9 0 -9 1 -9 1 -9 1 -9 1 -8 2 -8 2 -8 2 -8 2 -8 3 -7 2 -7 3 -7 3 -6 4 -6 3 -6 4 -6 3 -5 4 -5 4 -4 4 -5 4 -3 5 -4 4 -3 4 -2 5 -3 5 -1 4 -2 5 -1 4 -1 5 0 5 -18 0 1 -6 0 -7 2 -6 2 -6 2 -6 3 -5 3 -6 4 -5 4 -6 4 -5 5 -5 5 -4 6 -5 6 -4 6 -4 6 -4 7 -4 7 -4 8 -3 7 -3 8 -3 8 -3 9 -2 8 -3 9 -2 9 -1 9 -2 9 -1 10 -1 10 -1 9 0 10 0 0 0z"/>
      </g>
      <g>
       <path class="fil2" d="M1577 2834c103,0 187,49 187,109 0,59 -84,108 -187,108 -103,0 -187,-49 -187,-108 0,-60 84,-109 187,-109z"/>
       <path id="1" class="fil4" d="M1773 2943l-18 0 0 0 0 -5 -1 -5 -1 -5 -1 -4 -2 -5 -2 -4 -3 -5 -3 -4 -3 -5 -4 -4 -4 -4 -5 -4 -5 -4 -5 -4 -5 -4 -6 -3 -6 -4 -7 -3 -7 -3 -7 -3 -7 -3 -7 -2 -8 -3 -8 -2 -8 -2 -9 -1 -8 -2 -9 -1 -9 -1 -9 0 -9 -1 -10 0 0 -18 10 0 10 1 9 1 10 1 9 1 9 1 9 2 9 2 9 2 8 3 8 2 8 3 8 4 7 3 7 3 7 4 6 4 7 4 5 5 6 4 5 5 5 5 5 5 4 5 3 6 4 5 2 6 3 6 2 6 1 6 1 6 0 7 0 0zm-196 117l0 -18 0 0 10 0 9 -1 9 0 9 -1 9 -1 8 -2 9 -1 8 -2 8 -2 8 -3 7 -2 7 -3 7 -3 7 -3 7 -3 6 -4 6 -3 5 -4 5 -4 5 -4 5 -4 4 -4 4 -4 3 -5 3 -4 3 -4 2 -5 2 -5 1 -4 1 -5 1 -5 0 -4 18 0 0 6 -1 6 -1 6 -2 6 -3 6 -2 6 -4 6 -3 5 -4 5 -5 5 -5 5 -5 5 -6 4 -5 5 -7 4 -6 4 -7 4 -7 3 -7 4 -8 3 -8 3 -8 2 -8 3 -9 2 -9 2 -9 2 -9 1 -9 2 -10 1 -9 0 -10 1 -10 0 0 0zm-196 -117l18 0 0 0 0 4 1 5 1 5 2 4 1 5 3 5 2 4 3 4 4 5 3 4 5 4 4 4 5 4 5 4 6 4 6 3 6 4 6 3 7 3 7 3 7 3 8 2 8 3 8 2 8 2 8 1 9 2 9 1 9 1 9 0 9 1 9 0 0 18 -10 0 -9 -1 -10 0 -10 -1 -9 -2 -9 -1 -9 -2 -9 -2 -8 -2 -9 -3 -8 -2 -8 -3 -7 -3 -8 -4 -7 -3 -7 -4 -6 -4 -6 -4 -6 -5 -6 -4 -5 -5 -5 -5 -4 -5 -4 -5 -4 -5 -3 -6 -3 -6 -2 -6 -2 -6 -2 -6 0 -6 -1 -6 0 0zm196 -118l0 18 0 0 -9 0 -9 1 -9 0 -9 1 -9 1 -9 2 -8 1 -8 2 -8 2 -8 3 -8 2 -7 3 -7 3 -7 3 -6 3 -6 4 -6 3 -6 4 -5 4 -5 4 -4 4 -5 4 -3 4 -4 5 -3 4 -2 5 -3 4 -1 5 -2 4 -1 5 -1 5 0 5 -18 0 1 -7 0 -6 2 -6 2 -6 2 -6 3 -6 3 -5 4 -6 4 -5 4 -5 5 -5 5 -5 6 -4 6 -5 6 -4 6 -4 7 -4 7 -3 8 -3 7 -4 8 -3 8 -2 9 -3 8 -2 9 -2 9 -2 9 -1 9 -1 10 -1 10 -1 9 -1 10 0 0 0z"/>
      </g>
      <g>
       <path class="fil2" d="M1577 2782c103,0 187,48 187,108 0,60 -84,108 -187,108 -103,0 -187,-48 -187,-108 0,-60 84,-108 187,-108z"/>
       <path id="1" class="fil4" d="M1773 2890l-18 0 0 0 0 -5 -1 -4 -1 -5 -1 -5 -2 -4 -2 -5 -3 -4 -3 -5 -3 -4 -4 -4 -4 -5 -5 -4 -5 -4 -5 -4 -5 -3 -6 -4 -6 -3 -7 -3 -7 -4 -7 -2 -7 -3 -7 -3 -8 -2 -8 -2 -8 -2 -9 -2 -8 -1 -9 -1 -9 -1 -9 -1 -9 0 -10 0 0 -18 10 0 10 0 9 1 10 1 9 1 9 2 9 2 9 2 9 2 8 2 8 3 8 3 8 3 7 3 7 4 7 4 6 4 7 4 5 4 6 5 5 4 5 5 5 5 4 6 3 5 4 6 2 5 3 6 2 6 1 6 1 7 0 6 0 0zm-196 117l0 -17 0 0 10 -1 9 0 9 -1 9 -1 9 -1 8 -1 9 -2 8 -2 8 -2 8 -2 7 -3 7 -2 7 -3 7 -3 7 -4 6 -3 6 -4 5 -3 5 -4 5 -4 5 -4 4 -4 4 -5 3 -4 3 -4 3 -5 2 -4 2 -5 1 -5 1 -4 1 -5 0 -5 18 0 0 6 -1 7 -1 6 -2 6 -3 6 -2 6 -4 5 -3 6 -4 5 -5 5 -5 5 -5 4 -6 5 -5 4 -7 4 -6 4 -7 4 -7 4 -7 3 -8 3 -8 3 -8 3 -8 2 -9 3 -9 2 -9 1 -9 2 -9 1 -10 1 -9 1 -10 0 -10 0 0 0zm-196 -117l18 0 0 0 0 5 1 5 1 4 2 5 1 5 3 4 2 5 3 4 4 4 3 5 5 4 4 4 5 4 5 4 6 3 6 4 6 3 6 4 7 3 7 3 7 2 8 3 8 2 8 2 8 2 8 2 9 1 9 1 9 1 9 1 9 0 9 1 0 17 -10 0 -9 0 -10 -1 -10 -1 -9 -1 -9 -2 -9 -1 -9 -2 -8 -3 -9 -2 -8 -3 -8 -3 -7 -3 -8 -3 -7 -4 -7 -4 -6 -4 -6 -4 -6 -4 -6 -5 -5 -4 -5 -5 -4 -5 -4 -5 -4 -6 -3 -5 -3 -6 -2 -6 -2 -6 -2 -6 0 -7 -1 -6 0 0zm196 -117l0 18 0 0 -9 0 -9 0 -9 1 -9 1 -9 1 -9 1 -8 2 -8 2 -8 2 -8 2 -8 3 -7 3 -7 2 -7 4 -6 3 -6 3 -6 4 -6 3 -5 4 -5 4 -4 4 -5 5 -3 4 -4 4 -3 5 -2 4 -3 5 -1 4 -2 5 -1 5 -1 4 0 5 -18 0 1 -6 0 -7 2 -6 2 -6 2 -6 3 -5 3 -6 4 -5 4 -6 4 -5 5 -5 5 -4 6 -5 6 -4 6 -4 6 -4 7 -4 7 -4 8 -3 7 -3 8 -3 8 -3 9 -2 8 -2 9 -2 9 -2 9 -2 9 -1 10 -1 10 -1 9 0 10 0 0 0z"/>
      </g>
     </g>
    </g>
    <g>
     <path class="fil4" d="M1577 3375l0 -18 0 0 9 0 9 -1 9 0 9 -1 9 -2 9 -1 8 -2 8 -1 8 -3 8 -2 8 -2 7 -3 7 -3 7 -3 6 -3 6 -4 6 -3 6 -4 5 -4 5 -4 4 -4 5 -4 3 -4 4 -5 3 -4 2 -5 3 -4 1 -5 2 -4 1 -5 1 -5 0 -5 18 0 -1 7 0 6 -2 6 -2 6 -2 6 -3 6 -3 5 -4 6 -4 5 -4 5 -5 5 -5 5 -6 4 -6 5 -6 4 -7 4 -6 3 -7 4 -8 3 -7 3 -8 3 -8 3 -9 3 -8 2 -9 2 -9 2 -9 1 -9 1 -10 1 -10 1 -9 0 -10 1 0 0zm-196 -118l18 0 0 0 0 5 1 5 1 5 1 4 2 5 2 4 3 5 3 4 3 5 4 4 4 4 5 4 5 4 5 4 5 4 6 3 6 4 7 3 7 3 7 3 7 3 7 2 8 2 8 3 8 1 9 2 8 1 9 2 9 1 9 0 9 1 10 0 0 18 -10 -1 -10 0 -9 -1 -10 -1 -9 -1 -9 -1 -9 -2 -9 -2 -9 -2 -8 -3 -8 -3 -8 -3 -8 -3 -7 -3 -7 -4 -7 -3 -6 -4 -7 -4 -6 -5 -5 -4 -5 -5 -5 -5 -5 -5 -4 -5 -3 -6 -4 -5 -2 -6 -3 -6 -2 -6 -1 -6 -1 -6 0 -7 0 0zm0 0c0,-5 4,-9 9,-9 5,0 9,4 9,9l-18 0zm18 -367l0 367 -18 0 0 -367 0 0 18 0zm-18 0c0,-5 4,-9 9,-9 5,0 9,4 9,9l-18 0zm196 -117l0 18 0 0 -10 0 -9 0 -9 1 -9 1 -9 1 -8 1 -9 2 -8 2 -8 2 -8 2 -7 3 -7 3 -7 2 -7 3 -7 4 -6 3 -6 4 -5 3 -5 4 -5 4 -5 4 -4 5 -4 4 -3 4 -3 5 -3 4 -2 5 -2 4 -1 5 -1 5 -1 4 0 5 -18 0 0 -6 1 -6 1 -7 2 -6 3 -6 2 -5 4 -6 3 -5 4 -6 5 -5 5 -4 5 -5 5 -5 6 -4 7 -4 6 -4 7 -4 7 -4 7 -3 8 -3 8 -3 8 -3 8 -2 9 -2 9 -2 9 -2 9 -2 9 -1 10 -1 9 -1 10 0 10 0 0 0zm196 117l-18 0 0 0 0 -5 -1 -4 -1 -5 -2 -5 -1 -4 -3 -5 -2 -4 -3 -5 -4 -4 -3 -4 -5 -5 -4 -4 -5 -4 -5 -4 -6 -3 -6 -4 -6 -3 -6 -4 -7 -3 -7 -2 -7 -3 -8 -3 -8 -2 -8 -2 -8 -2 -8 -2 -9 -1 -9 -1 -9 -1 -9 -1 -9 0 -9 0 0 -18 10 0 9 0 10 1 10 1 9 1 9 2 9 2 9 2 8 2 9 2 8 3 8 3 7 3 8 3 7 4 6 4 7 4 6 4 6 4 6 5 5 5 5 4 4 5 4 6 4 5 3 6 3 5 2 6 2 6 2 7 0 6 1 6 0 0zm0 0c0,5 -4,9 -9,9 -5,0 -9,-4 -9,-9l18 0zm-18 367l0 -367 18 0 0 367 0 0 -18 0zm18 0c0,5 -4,9 -9,9 -5,0 -9,-4 -9,-9l18 0z"/>
    </g>
    <line class="fil3 str4" x1="1524" y1="2885" x2="1469" y2= "2489" />
    <line class="fil3 str4" x1="1630" y1="2885" x2="1710" y2= "2489" />
    <polyline class="fil3 str4" points="1469,2489 1529,2454 1529,2524 1590,2419 1590,2559 1650,2454 1650,2524 1710,2489 "/>
    <circle class="fil3 str3" cx="1577" cy="2544" r="486"/>
   </g>
   <g>
    <path class="fil2 str5" d="M5613 292l-466 269c-17,12 -34,30 -48,53 -13,23 -20,47 -22,68l0 238c2,19 9,35 22,42 14,8 31,7 48,-2l17 -9 0 200 130 -275 319 -184c17,-12 34,-30 48,-54 13,-23 20,-47 22,-68l0 -218 0 -19c-2,-20 -9,-35 -22,-43 -14,-8 -31,-6 -48,2z"/>
    <path class="fil2 str6" d="M5686 358l-466 269c-17,11 -34,30 -47,53 -14,23 -21,47 -22,68l0 238c1,19 8,35 22,42 13,8 30,7 48,-2l16 -9 0 200 130 -275 319 -185c18,-11 35,-29 48,-53 13,-23 21,-47 22,-68l0 -219 0 -18c-1,-20 -9,-35 -22,-43 -14,-8 -31,-6 -48,2z"/>
    <path class="fil2 str7" d="M5759 424l-465 269c-18,11 -35,30 -48,53 -14,23 -21,47 -22,68l0 238c1,19 8,35 22,42 13,8 30,7 48,-2l16 -9 0 199 130 -274 319 -185c18,-11 35,-30 48,-53 13,-23 21,-47 22,-68l0 -219 0 -18c-1,-20 -9,-35 -22,-43 -13,-8 -30,-6 -48,2z"/>
   </g>
  </g>
 </g>
</svg>
