<?xml version="1.0" encoding="UTF-8"?>
<!DOCTYPE svg PUBLIC "-//W3C//DTD SVG 1.1//EN" "http://www.w3.org/Graphics/SVG/1.1/DTD/svg11.dtd">
<!-- Creator: CorelDRAW X7 -->
<svg xmlns="http://www.w3.org/2000/svg" xml:space="preserve" width="297mm" height="122.039mm" version="1.1" style="shape-rendering:geometricPrecision; text-rendering:geometricPrecision; image-rendering:optimizeQuality; fill-rule:evenodd; clip-rule:evenodd"
viewBox="0 0 29700 12204"
 xmlns:xlink="http://www.w3.org/1999/xlink">
 <defs>
  <style type="text/css">
   <![CDATA[
    .fil8 {fill:none;fill-rule:nonzero}
    .fil1 {fill:#76B94A}
    .fil2 {fill:#4D6F91}
    .fil3 {fill:#00A0E3}
    .fil0 {fill:#009846}
    .fil5 {fill:#5B5B5B;fill-rule:nonzero}
    .fil11 {fill:#5B5B5B;fill-rule:nonzero}
    .fil4 {fill:#5B5B5B;fill-rule:nonzero}
    .fil7 {fill:#76B94A;fill-rule:nonzero}
    .fil9 {fill:#4D6F91;fill-rule:nonzero}
    .fil10 {fill:#00A0E3;fill-rule:nonzero}
    .fil6 {fill:#009846;fill-rule:nonzero}
    .fil12 {fill:#61003F;fill-rule:nonzero}
   ]]>
  </style>
      <clipPath id="id0" style="clip-rule:nonzero">
       <path d="M18525 5312c0,-1002 204,-1773 615,-2317 410,-543 988,-814 1737,-814 188,0 365,17 532,51 -780,507 -1316,1546 -1316,2747l0 1 0 0c0,623 -16,1241 -16,1865 0,509 63,889 189,1141 126,250 325,376 599,376 253,0 440,-104 562,-314 -208,637 -599,1172 -1101,1526 -489,-99 -885,-342 -1189,-731 -407,-522 -612,-1259 -612,-2212 0,-440 0,-879 0,-1319z"/>
      </clipPath>
      <clipPath id="id1" style="clip-rule:nonzero">
       <path d="M23343 6666c0,1002 -215,1773 -646,2317 -431,543 -1039,814 -1826,814 -197,0 -384,-17 -558,-51 819,-506 1382,-1546 1382,-2747l0 -1 0 0c0,-624 11,-1240 11,-1865 0,-509 -66,-888 -199,-1140 -132,-251 -343,-377 -632,-377 -267,0 -464,104 -592,314 219,-636 632,-1172 1160,-1526 516,99 934,343 1255,731 429,523 645,1259 645,2212 0,440 0,880 0,1319z"/>
      </clipPath>
 </defs>
 <g id="Layer_x0020_1">
  <metadata id="CorelCorpID_0Corel-Layer"/>
  <g id="_1890861061472">
   <g>
    <path class="fil0" d="M10283 3198c-924,-1353 -2457,-2163 -4095,-2163 -2292,0 -4282,1568 -4818,3795 937,-1001 2240,-1564 3611,-1564 709,0 1409,148 2055,442 386,168 802,255 1222,255 746,0 1465,-272 2025,-765z"/>
    <path class="fil1" d="M1961 4563c-54,147 -324,695 -502,695 -80,0 -146,-65 -146,-146 0,-9 1,-19 3,-28 434,-2351 2481,-4049 4872,-4049 1638,0 3171,810 4095,2163l-50 43 -30 25c-578,-612 -1382,-958 -2224,-958 -282,0 -563,39 -834,116 -1162,567 -2168,1408 -2935,2448 -79,133 -223,213 -378,213 -242,0 -437,-196 -437,-438 0,-99 33,-195 95,-273 543,-1002 1411,-1787 2464,-2222 -1481,380 -2703,1421 -3313,2824 -43,111 -151,184 -271,184 -161,0 -292,-130 -292,-291 0,-36 7,-71 20,-105 426,-1428 1473,-2590 2850,-3162 -1386,495 -2480,1580 -2987,2961z"/>
    <path class="fil2" d="M0 6358c924,1354 2456,2163 4095,2163 2291,0 4282,-1568 4818,-3795 -937,1001 -2240,1564 -3611,1564 -710,0 -1410,-148 -2055,-442 -386,-168 -802,-254 -1223,-254 -745,0 -1465,271 -2024,764z"/>
    <path class="fil3" d="M8321 4993c54,-146 324,-694 503,-694 80,0 145,65 145,145 0,10 -1,19 -2,29 -435,2350 -2481,4048 -4872,4048 -1639,0 -3171,-809 -4095,-2163l38 -32 42 -36c578,612 1382,958 2224,958 282,0 563,-39 834,-116 1161,-567 2168,-1408 2935,-2448 78,-133 223,-212 378,-212 241,0 437,196 437,437 0,99 -34,196 -96,273 -542,1002 -1410,1787 -2463,2222 1481,-380 2702,-1421 3312,-2823 44,-112 152,-185 272,-185 161,0 291,131 291,292 0,35 -6,71 -19,104 -426,1429 -1473,2591 -2850,3162 1385,-495 2480,-1579 2986,-2961z"/>
    <path class="fil4" d="M1746 8982c-81,0 -150,45 -227,53 -29,0 -57,-8 -81,-21 -25,-16 -41,-32 -69,-28 -9,0 -21,4 -29,8 -24,16 -32,33 -45,61 -81,183 -162,365 -247,548l-309 690c-8,-4 -8,0 -8,4l-20 41c-29,69 -61,134 -85,199 0,12 -9,24 -13,32 -8,21 13,53 49,45 8,-4 12,-4 16,-8 65,-41 94,-114 122,-175 53,-126 110,-251 167,-377 12,-17 16,-41 28,-53 49,-33 118,-49 166,-16 86,48 183,56 281,44 255,-28 499,-182 617,-414 57,-105 73,-227 65,-345 -4,-61 -21,-122 -61,-170 -57,-69 -150,-114 -240,-114 -28,-4 -53,-4 -77,-4zm8 109c81,0 167,25 211,94 45,65 41,146 33,219 -29,179 -150,337 -313,422 -93,57 -203,94 -316,81 -90,-16 -171,-81 -191,-170 -12,-53 -4,-106 16,-154 53,-179 170,-345 337,-435 49,-24 97,-32 150,-48 25,-4 49,-9 73,-9zm1150 -101c-221,8 -424,126 -555,296 -108,138 -181,317 -168,492 4,93 44,186 119,239 94,57 212,57 310,16 49,-19 94,-52 139,-72 61,-37 122,-77 183,-110 17,98 102,175 195,199 89,25 191,12 264,-48 65,-37 122,-94 126,-171 0,-20 0,-53 -20,-65 -33,-12 -65,12 -69,45 -61,77 -159,130 -260,113 -33,-4 -73,-20 -90,-52 -36,-78 -24,-167 9,-240l73 -170c56,-127 125,-249 174,-375 12,-32 12,-65 -20,-73 -12,-4 -24,-4 -37,4l-65 29c-28,4 -44,-4 -73,-8 -73,-12 -146,-37 -219,-45l-16 -4zm36 122c65,0 122,57 134,117 17,57 0,122 -24,175 -73,187 -196,357 -367,463 -57,32 -122,65 -187,69 -82,4 -159,-49 -179,-126 -21,-61 -9,-130 4,-195 40,-174 167,-321 318,-414 77,-53 167,-85 261,-89l40 0zm1327 -98c-44,0 -89,0 -130,13 -52,16 -101,48 -150,77 -20,8 -32,28 -53,36 -20,0 -20,-28 -28,-36 -16,-33 -57,-45 -81,-21 -65,45 -90,126 -122,191 -114,240 -252,467 -369,707 -13,24 -21,48 -5,73 17,16 49,28 74,24 24,0 44,-16 52,-41 86,-146 146,-312 236,-458 69,-130 146,-260 268,-350 69,-48 146,-97 231,-101 49,-4 102,0 134,37 49,44 57,109 49,166l-8 45c4,0 4,4 0,12 -4,12 24,32 24,32 24,0 41,4 69,4 12,0 24,-4 33,-16 16,-36 12,-77 12,-118 0,-85 -37,-170 -106,-223 -36,-32 -81,-53 -130,-53zm678 0c-57,4 -98,57 -126,102 -53,85 -94,178 -138,268 -73,146 -134,309 -117,475 12,98 84,184 174,216 97,41 211,33 304,-8 158,-70 288,-191 382,-337 48,-86 93,-176 142,-265l4 -8c61,57 150,81 227,53 98,-25 171,-98 240,-163 24,-20 48,-40 65,-65 8,-8 20,-16 12,-28 8,-16 4,-41 -8,-53 -12,-12 -29,-20 -45,-20 -32,4 -40,40 -61,61 -61,69 -134,146 -231,162 -41,8 -90,4 -122,-28 -8,-8 -16,-17 -24,-29 40,-81 77,-158 109,-239 17,-33 12,-65 -20,-81 -20,-9 -41,-13 -61,-9 -24,4 -41,21 -53,45 -8,16 -12,33 -24,49 -110,219 -191,459 -349,650 -81,93 -179,179 -301,203 -65,12 -142,-4 -182,-61 -49,-69 -41,-162 -21,-243 45,-196 159,-367 240,-553 8,-25 24,-49 20,-77 -4,-17 -16,-17 -32,-17l-4 0zm1560 -24c-221,8 -424,126 -555,296 -108,138 -181,317 -168,492 4,93 44,186 119,239 94,57 212,57 310,16 49,-19 94,-52 139,-72 61,-37 123,-77 183,-110 17,98 102,175 195,199 90,25 191,12 264,-48 65,-37 122,-94 126,-171 0,-20 0,-53 -20,-65 -33,-12 -65,12 -69,45 -61,77 -159,130 -260,113 -33,-4 -73,-20 -89,-52 -37,-78 -25,-167 8,-240l73 -170c57,-127 126,-249 174,-375 13,-32 13,-65 -20,-73 -12,-4 -24,-4 -36,4l-65 29c-29,4 -45,-4 -74,-8 -73,-12 -146,-37 -219,-45l-16 -4zm37 122c65,0 121,57 134,117 16,57 0,122 -25,175 -73,187 -195,357 -367,463 -56,32 -122,65 -187,69 -82,4 -159,-49 -179,-126 -21,-61 -8,-130 4,-195 40,-174 167,-321 318,-414 77,-53 167,-85 261,-89l41 0zm1161 -122c-221,8 -425,126 -555,296 -108,138 -181,317 -169,492 4,93 44,186 120,239 93,57 212,57 310,16 49,-19 93,-52 139,-72 61,-37 122,-77 183,-110 16,98 102,175 195,199 89,25 191,12 264,-48 65,-37 122,-94 126,-171 0,-20 0,-53 -21,-65 -32,-12 -65,12 -69,45 -60,77 -158,130 -259,113 -33,-4 -74,-20 -90,-52 -36,-78 -24,-167 8,-240l73 -170c57,-127 126,-249 175,-375 12,-32 12,-65 -20,-73 -12,-4 -25,-4 -37,4l-65 29c-28,4 -44,-4 -73,-8 -73,-12 -146,-37 -219,-45l-16 -4zm36 122c65,0 122,57 134,117 16,57 0,122 -24,175 -73,187 -196,357 -367,463 -57,32 -122,65 -187,69 -82,4 -159,-49 -180,-126 -20,-61 -8,-130 4,-195 41,-174 168,-321 318,-414 78,-53 168,-85 262,-89l40 0zm1153 -613c-57,8 -94,61 -118,105 -98,207 -191,414 -288,617 -53,114 -110,220 -167,329 -65,122 -134,248 -195,374 -12,24 -24,44 -8,69 12,16 37,28 57,24 28,4 61,-4 73,-36 97,-175 166,-366 276,-536 57,-102 118,-203 215,-268 86,-57 179,-114 280,-110 69,0 126,57 138,122 21,77 -12,154 -36,227 -16,49 -33,98 -53,146 -32,82 -53,176 -36,261 12,97 73,191 170,219 122,33 248,-12 345,-85 29,-24 61,-53 90,-81 16,-25 24,-41 32,-65 4,-21 4,-41 4,-61 -4,-45 -41,-41 -81,4l-37 36c-69,65 -158,114 -251,110 -45,0 -90,-24 -110,-65 -24,-45 -32,-97 -20,-146 4,-24 12,-41 16,-70 28,-113 85,-223 105,-341 5,-97 -24,-203 -101,-268 -49,-40 -118,-61 -183,-53 -73,0 -142,33 -203,70 -32,12 -57,36 -85,52 -20,4 -20,-20 -28,-28 73,-158 150,-317 215,-479 16,-45 -16,-73 -16,-73z"/>
    <path class="fil5" d="M2114 10635l116 -280 116 280 -232 0zm96 -333c-2,0 -4,1 -5,3l-262 630c-1,2 -1,4 1,5 1,2 3,3 5,3l32 0c3,0 5,-1 6,-4l109 -262 268 0 109 262c1,3 3,4 5,4l33 0c2,0 4,-1 5,-3 1,-1 1,-3 0,-5l-261 -630c-1,-2 -3,-3 -6,-3l-39 0zm683 319l310 -309c2,-2 3,-4 2,-7 -1,-2 -3,-3 -6,-3l-42 0c-2,0 -4,0 -5,1l-286 285 0 -279c0,-5 -2,-7 -6,-7l-29 0c-5,0 -7,2 -7,7l0 628c0,4 2,6 7,6l29 0c4,0 6,-2 6,-6l0 -283 306 286c1,2 3,2 5,2l43 0c3,0 5,-1 6,-4 1,-2 0,-4 -2,-6l-331 -311zm582 322c-33,0 -65,-8 -94,-24 -29,-17 -53,-39 -71,-68 -2,-3 -1,-6 3,-8l25 -15c4,-2 7,-1 9,2 17,28 41,48 72,60 31,13 63,15 96,6 33,-9 60,-28 81,-57 21,-27 31,-59 31,-94l0 -437c0,-4 2,-6 6,-6l30 0c5,0 7,2 7,6l0 441c0,53 -19,99 -58,137 -37,38 -83,57 -137,57zm656 -549c-3,3 -6,3 -9,1 -2,-2 -4,-4 -6,-6 -4,-2 -7,-4 -10,-7 -8,-5 -16,-10 -23,-15 -19,-10 -38,-17 -58,-21 -16,-3 -29,-5 -39,-5l-10 0 -11 0c-4,0 -8,0 -12,1l-5 0 -5 1c-18,2 -32,6 -44,10 -16,6 -28,14 -38,25 -11,11 -19,24 -23,40l-2 6c0,3 0,5 0,7 -1,5 -2,9 -2,12l0 7 0 0c0,1 0,1 0,1l0 -1 0 0 0 3 0 3 1 8 1 5 0 3 1 3 2 6c0,1 1,3 2,6l1 2 2 4 3 5 3 5 2 3 2 3c1,2 3,3 4,5 11,12 26,23 45,34 14,9 32,18 55,28l8 3 7 4 15 6 29 14c24,10 44,21 60,31 22,14 40,29 54,45 16,19 27,41 32,65l2 9c0,3 0,6 0,8l1 9 0 5 0 1 0 1 0 1 0 2 0 7 -1 4c0,2 0,3 0,4l-1 9 -1 9c-5,24 -14,45 -29,63 -13,17 -30,31 -50,41 -16,9 -35,15 -56,20l-7 1 -7 1c-6,1 -10,2 -14,2l-13 1 -13 1 -6 0 -4 0 -2 0 -1 0 -12 0c-3,0 -7,-1 -12,-1l-6 -1 -6 -1c-14,-1 -29,-4 -45,-8 -23,-7 -46,-16 -67,-28 -8,-5 -16,-10 -23,-15 -6,-4 -11,-8 -16,-12 -3,-3 -6,-5 -9,-8 -3,-3 -3,-6 0,-9l22 -20c3,-3 5,-3 8,0 2,1 4,3 6,4 4,4 8,7 13,11 6,4 13,8 20,12 18,11 38,19 58,24 13,4 26,7 38,8l5 1 4 0c4,1 8,1 12,1l11 1 2 0 0 0 0 0 3 -1 6 0 11 0 12 -1c3,-1 7,-1 11,-2l6 -1 6 -1c18,-4 33,-9 46,-15 15,-8 27,-18 37,-30 10,-14 17,-29 20,-46l1 -6 1 -6c1,-1 1,-2 1,-4l0 -3 0 -8 0 -2 0 -1 0 0c0,0 0,0 0,0l0 0 0 -3 0 -7c0,-2 0,-4 -1,-7l-1 -3 0 -3c-4,-17 -11,-33 -23,-47 -19,-22 -52,-44 -99,-66l-30 -13 -15 -7 -6 -3 -8 -4c-24,-10 -44,-20 -59,-29 -23,-13 -41,-28 -54,-43 -2,-2 -4,-4 -6,-7l-3 -3 -3 -4c-4,-6 -7,-12 -9,-16l-2 -4 -2 -4c-1,-3 -2,-6 -3,-9l-3 -8 0 -5 -1 -5 -2 -9 0 -7 -1 -4 0 -2 0 -1 0 -2c0,0 0,0 0,0l0 0 0 -8c1,-5 1,-11 2,-18 1,-2 1,-5 2,-7l2 -9c6,-23 17,-42 33,-58 14,-14 31,-25 51,-33 16,-6 34,-11 54,-13l7 -1 7 0c4,-1 8,-1 12,-1l12 0 12 0c13,1 27,2 45,6 23,5 46,14 68,25 8,5 16,9 23,15 6,3 11,7 17,11 2,2 4,5 8,8 3,3 3,6 0,9l-18 18zm462 549c-44,0 -86,-9 -126,-26 -39,-16 -73,-40 -103,-70 -30,-30 -53,-65 -69,-105 -16,-40 -24,-83 -23,-127 2,-82 31,-153 88,-213 57,-60 126,-94 207,-100 73,-6 140,11 201,50 3,3 3,5 1,8l-17 26c-2,3 -4,3 -8,1 -53,-34 -110,-48 -173,-43 -71,5 -132,35 -181,88 -50,52 -75,115 -76,186 0,38 7,75 21,110 14,34 34,64 60,90 26,26 55,46 89,61 35,15 71,22 109,22 55,0 106,-15 151,-45 4,-2 7,-1 9,2l17 25c2,3 2,6 -2,8 -53,35 -111,52 -175,52zm686 -598c4,0 6,-2 6,-6l0 -30c0,-5 -2,-7 -6,-7l-400 0c-4,0 -6,2 -6,7l0 628c0,4 2,6 6,6l400 0c4,0 6,-2 6,-6l0 -30c0,-4 -2,-6 -6,-6l-364 0 0 -257 242 0c5,0 7,-2 7,-6l0 -30c0,-4 -2,-6 -7,-6l-242 0 0 -257 364 0zm324 598c-5,0 -7,-2 -7,-6l0 -629c0,-4 2,-6 7,-6l29 0c5,0 7,2 7,6l0 629c0,4 -2,6 -7,6l-29 0zm481 -21c0,-26 0,-59 0,-98 0,-7 0,-15 0,-24l0 -12 0 -12c0,-11 0,-20 0,-26 0,-10 0,-19 0,-27l0 -14c-1,-6 -1,-11 -2,-16 -1,-11 -3,-22 -7,-33 -7,-21 -19,-40 -35,-57 -16,-16 -34,-29 -56,-37 -10,-3 -21,-6 -32,-8l-4 0 -4 -1 -5 0c-1,0 -3,0 -3,0l-4 0 -4 0 -4 0 -4 0c-21,2 -40,7 -59,17 -16,8 -30,19 -43,33l-2 3 0 -51c0,-4 -3,-6 -7,-6l-30 0c-4,0 -6,2 -6,6l0 378c0,4 2,6 6,6l30 0c4,0 7,-2 7,-6l0 -218 0 -9c0,-2 0,-4 0,-7l1 -3 0 -4c0,-4 1,-7 1,-10 2,-8 5,-17 9,-25 5,-11 12,-20 19,-28 10,-11 21,-19 33,-25 14,-7 28,-11 44,-12l2 0 3 0 2 0 1 0 4 0c1,0 2,0 3,0l2 1 3 0 3 1c9,1 17,3 24,5 16,7 30,16 41,28 12,12 20,26 26,42 2,8 4,16 5,24 0,4 0,8 0,12l0 14c0,16 0,34 0,53 0,8 0,16 0,24l0 13 0 11c0,39 0,72 0,98l0 15c0,4 2,6 6,6l30 0c4,0 6,-2 6,-6l0 -15zm133 21c-3,0 -5,-2 -5,-6l0 -376c0,-4 2,-6 5,-6l30 0c5,0 7,2 7,6l0 376c0,4 -2,6 -7,6l-30 0zm46 -512c0,8 -3,15 -9,21 -6,6 -13,9 -21,9 -9,0 -16,-3 -22,-9 -6,-6 -9,-13 -9,-21 0,-9 3,-16 9,-22 6,-6 13,-9 22,-9 8,0 15,3 21,9 6,6 9,13 9,22zm313 460c-2,-3 -5,-4 -9,-2 -20,14 -38,16 -55,7 -19,-9 -28,-28 -28,-56l0 -243 61 0c4,0 6,-2 6,-7l0 -29c0,-5 -2,-7 -6,-7l-61 0 0 -110c0,-4 -3,-7 -7,-7l-30 0c-4,0 -6,3 -6,7l1 110 -55 0c-4,0 -6,2 -6,7l0 29c0,5 2,7 6,7l55 0 0 243c0,21 4,40 13,57 9,17 22,29 38,37 12,6 25,9 39,9 21,0 41,-6 60,-20 4,-2 4,-4 2,-8l-18 -24zm100 52c-4,0 -6,-2 -6,-6l0 -376c0,-4 2,-6 6,-6l30 0c5,0 6,2 6,6l0 376c0,4 -1,6 -6,6l-30 0zm46 -512c0,8 -3,15 -9,21 -6,6 -13,9 -21,9 -9,0 -16,-3 -22,-9 -6,-6 -9,-13 -9,-21 0,-9 3,-16 9,-22 6,-6 13,-9 22,-9 8,0 15,3 21,9 6,6 9,13 9,22zm336 409c-9,15 -19,27 -31,36 -14,11 -30,18 -47,22 -18,4 -37,4 -57,1 -21,-4 -35,-12 -44,-25 -10,-12 -14,-29 -13,-51 0,-18 8,-32 21,-43 11,-9 27,-17 47,-22 15,-3 32,-6 51,-7 15,-1 30,-1 46,-1 10,1 22,1 35,3 3,0 6,0 9,0l0 13 -1 13 1 14 -2 8c-4,15 -9,28 -15,39zm64 103c5,0 7,-2 7,-7 -4,-26 -6,-50 -8,-73 -3,-32 -4,-60 -4,-84 0,-7 0,-16 0,-26l0 -22 0 -22c0,-17 -1,-31 -3,-44 -5,-32 -16,-57 -34,-75 -23,-24 -58,-36 -103,-36 -31,0 -60,6 -87,18 -10,5 -19,10 -27,15 -3,3 -7,5 -10,8 -2,1 -4,3 -6,5 -4,3 -4,6 0,9l22 20c3,3 6,3 8,0 2,-1 3,-2 5,-4 2,-1 5,-3 7,-4 7,-5 14,-8 21,-12 21,-8 43,-13 67,-13 33,0 57,8 72,23 17,17 26,48 26,94l0 0 -6 0c-7,-1 -13,-1 -17,-1 -7,-1 -14,-1 -20,-1 -17,-1 -33,0 -49,0 -22,2 -41,5 -58,9 -26,6 -47,16 -63,29 -11,9 -20,20 -26,32 -6,12 -10,25 -11,40 -2,31 4,57 19,78 9,11 20,21 33,28 11,6 24,10 38,13 26,4 51,4 74,-2 24,-6 45,-16 63,-31 10,-8 20,-18 28,-30 1,19 3,39 6,61 1,3 3,5 6,5l30 0zm263 -52c-2,-3 -5,-4 -8,-2 -20,14 -39,16 -56,7 -19,-9 -28,-28 -28,-56l0 -243 61 0c4,0 6,-2 6,-7l0 -29c0,-5 -2,-7 -6,-7l-61 0 0 -110c0,-4 -2,-7 -6,-7l-30 0c-5,0 -7,3 -7,7l1 110 -54 0c-4,0 -7,2 -7,7l0 29c0,5 3,7 7,7l54 0 0 243c0,21 4,40 13,57 9,17 22,29 38,37 13,6 26,9 40,9 20,0 40,-6 60,-20 3,-2 4,-4 1,-8l-18 -24zm101 52c-4,0 -6,-2 -6,-6l0 -376c0,-4 2,-6 6,-6l30 0c4,0 6,2 6,6l0 376c0,4 -2,6 -6,6l-30 0zm45 -512c0,8 -3,15 -9,21 -6,6 -13,9 -21,9 -9,0 -16,-3 -22,-9 -6,-6 -8,-13 -8,-21 0,-9 2,-16 8,-22 6,-6 13,-9 22,-9 8,0 15,3 21,9 6,6 9,13 9,22zm261 508c-2,3 -4,4 -6,4l-27 0c-3,0 -5,-1 -6,-4l-139 -376c-1,-2 -1,-4 0,-6 1,-2 3,-3 5,-3l32 0c3,0 5,2 6,4l115 312 116 -312c1,-2 3,-4 6,-4l31 0c2,0 4,1 5,3 2,2 2,4 1,6l-139 376zm361 -343c-41,0 -75,15 -103,43 -27,29 -41,65 -42,108l289 -25c-4,-37 -20,-67 -46,-90 -27,-24 -59,-36 -98,-36zm7 347c-53,0 -99,-19 -137,-57 -38,-38 -57,-84 -57,-137 0,-55 18,-101 55,-139 36,-37 81,-56 134,-56 51,1 95,20 131,57 36,37 54,82 54,134l0 10c0,4 -2,6 -5,6l-321 28c9,33 27,59 53,80 28,21 59,32 93,32 27,0 51,-6 74,-19 23,-13 41,-30 55,-52 2,-4 5,-4 9,-2l26 14c3,3 4,6 2,9 -18,29 -42,51 -71,68 -29,16 -61,24 -95,24z"/>
   </g>
   <g>
    <g>
     <path class="fil6" d="M18525 5312c0,-1002 204,-1773 615,-2317 410,-543 988,-814 1737,-814 188,0 365,17 532,51 -780,507 -1316,1546 -1316,2747l0 1 0 0c0,623 -16,1241 -16,1865 0,509 63,889 189,1141 126,250 325,376 599,376 253,0 440,-104 562,-314 -208,637 -599,1172 -1101,1526 -489,-99 -885,-342 -1189,-731 -407,-522 -612,-1259 -612,-2212 0,-440 0,-879 0,-1319z"/>
     <g style="clip-path:url(#id0)">
      <g>
       <path id="1" class="fil7" d="M18335 5529c0,-1109 204,-1963 614,-2565 411,-602 989,-902 1738,-902 188,0 365,19 531,57 -780,561 -1315,1712 -1315,3042l0 1 0 0c0,690 -16,1374 -16,2065 0,564 63,984 188,1263 126,278 326,417 599,417 254,0 441,-115 563,-348 -209,705 -600,1299 -1101,1691 -489,-110 -886,-380 -1190,-810 -407,-579 -611,-1394 -611,-2450 0,-487 0,-974 0,-1461z"/>
      </g>
     </g>
     <path class="fil8" d="M18525 5312c0,-1002 204,-1773 615,-2317 410,-543 988,-814 1737,-814 188,0 365,17 532,51 -780,507 -1316,1546 -1316,2747l0 1 0 0c0,623 -16,1241 -16,1865 0,509 63,889 189,1141 126,250 325,376 599,376 253,0 440,-104 562,-314 -208,637 -599,1172 -1101,1526 -489,-99 -885,-342 -1189,-731 -407,-522 -612,-1259 -612,-2212 0,-440 0,-879 0,-1319z"/>
     <path class="fil9" d="M23343 6666c0,1002 -215,1773 -646,2317 -431,543 -1039,814 -1826,814 -197,0 -384,-17 -558,-51 819,-506 1382,-1546 1382,-2747l0 -1 0 0c0,-624 11,-1240 11,-1865 0,-509 -66,-888 -199,-1140 -132,-251 -343,-377 -632,-377 -267,0 -464,104 -592,314 219,-636 632,-1172 1160,-1526 516,99 934,343 1255,731 429,523 645,1259 645,2212 0,440 0,880 0,1319z"/>
     <g style="clip-path:url(#id1)">
      <g>
       <path id="1" class="fil10" d="M23943 6616c0,1027 -258,1818 -776,2375 -518,557 -1249,834 -2195,834 -237,0 -461,-17 -671,-52 985,-519 1661,-1585 1661,-2815l0 -1 0 -1c0,-639 14,-1271 14,-1911 0,-522 -80,-911 -239,-1169 -160,-257 -413,-386 -759,-386 -321,0 -558,107 -713,322 264,-653 760,-1202 1395,-1565 620,102 1122,351 1508,750 516,535 775,1290 775,2267 0,451 0,902 0,1352z"/>
      </g>
     </g>
     <path class="fil8" d="M23343 6666c0,1002 -215,1773 -646,2317 -431,543 -1039,814 -1826,814 -197,0 -384,-17 -558,-51 819,-506 1382,-1546 1382,-2747l0 -1 0 0c0,-624 11,-1240 11,-1865 0,-509 -66,-888 -199,-1140 -132,-251 -343,-377 -632,-377 -267,0 -464,104 -592,314 219,-636 632,-1172 1160,-1526 516,99 934,343 1255,731 429,523 645,1259 645,2212 0,440 0,880 0,1319z"/>
    </g>
    <g>
     <path class="fil11" d="M25342 5398l-257 917 -255 -917 -271 2 -253 915 -255 -917 -270 0 398 1361 254 0 263 -900 264 900 253 0 399 -1361 -270 0zm-1098 -567l956 -1216 0 -336 -1415 0 0 333 956 0 -956 1219 0 335 1415 0 0 -335 -956 0zm1604 -275l1040 0c3,-32 6,-66 6,-98 0,-188 -56,-369 -174,-510 -130,-158 -333,-236 -542,-236 -210,0 -412,81 -542,236 -119,141 -168,314 -174,510 -5,187 53,365 174,512 130,157 332,225 542,236 209,10 414,-71 555,-228 32,-37 61,-76 84,-116l-353 -154c-11,13 -16,29 -27,44 -60,79 -154,121 -259,121 -102,0 -199,-42 -257,-121 -42,-55 -63,-123 -73,-196zm330 -511c105,0 199,39 259,120 24,34 42,73 55,115l-629 0c14,-42 32,-81 58,-115 58,-81 155,-120 257,-120zm1717 -331c-84,6 -171,27 -247,74 -65,39 -115,94 -151,157l0 -194 -315 0 0 1415 359 0 0 -754c0,-105 29,-200 92,-268 49,-52 123,-89 225,-97 102,-8 199,8 273,37l0 -330c-79,-32 -160,-45 -236,-40zm1082 1492c213,0 409,-79 543,-236 121,-150 176,-309 176,-512 0,-191 -50,-361 -176,-510 -131,-158 -333,-236 -543,-236 -207,0 -411,81 -542,236 -113,136 -173,311 -173,510 0,195 52,365 173,512 131,154 333,236 542,236zm260 -454c-58,79 -155,121 -260,121 -105,0 -202,-42 -259,-121 -60,-78 -79,-186 -79,-294 0,-107 19,-217 79,-296 57,-78 154,-117 259,-117 105,0 202,39 260,117 60,79 81,189 81,296 0,108 -21,216 -81,294zm-4901 2726c-7,23 -19,46 -33,66 -37,49 -99,75 -162,74 -64,1 -126,-25 -162,-74 -38,-50 -49,-116 -50,-181 1,-65 12,-132 50,-180 36,-50 98,-75 162,-75 63,0 125,25 162,75 16,20 27,45 35,71l144 -25c-13,-44 -35,-90 -68,-132 -66,-80 -166,-120 -273,-120 -107,0 -208,39 -273,120 -61,73 -88,164 -88,266 0,98 26,190 88,265 62,77 164,122 273,122 103,0 205,-40 273,-122 28,-34 48,-72 61,-110l-139 -40zm510 272c83,0 161,-31 213,-93 48,-59 69,-122 69,-201 0,-75 -19,-142 -69,-201 -51,-62 -131,-93 -213,-93 -82,0 -162,32 -213,93 -45,54 -68,123 -68,201 0,76 20,143 68,201 51,61 130,93 213,93zm102 -179c-23,31 -61,48 -102,48 -41,0 -80,-17 -102,-48 -24,-31 -31,-73 -31,-115 0,-42 7,-86 31,-117 22,-30 61,-46 102,-46 41,0 79,16 102,46 24,31 32,75 32,117 0,42 -8,84 -32,115zm1048 -354c-36,-32 -87,-53 -133,-53 -69,0 -135,33 -173,90 -9,-13 -19,-26 -31,-37 -36,-32 -87,-53 -133,-53 -62,0 -122,27 -161,73l0 -59 -123 0 0 556 141 0 0 -337c0,-28 4,-52 25,-77 18,-20 45,-31 71,-31 27,0 54,10 72,30 19,21 26,40 26,76l0 339 143 0 0 -337c0,-28 4,-52 25,-77 18,-20 45,-31 71,-31 27,0 54,10 71,30 20,21 27,40 27,76l0 339 142 0 0 -339c0,-71 -12,-135 -60,-178zm938 0c-36,-32 -86,-53 -133,-53 -68,0 -134,33 -173,90 -8,-13 -18,-26 -31,-37 -36,-32 -86,-53 -132,-53 -62,0 -122,27 -161,73l0 -59 -124 0 0 556 141 0 0 -337c0,-28 4,-52 26,-77 18,-20 44,-31 71,-31 27,0 54,10 71,30 20,21 27,40 27,76l0 339 142 0 0 -337c0,-28 4,-52 26,-77 18,-20 44,-31 71,-31 27,0 54,10 71,30 20,21 27,40 27,76l0 339 142 0 0 -339c0,-71 -12,-135 -61,-178zm544 -39l0 242c0,38 -1,76 -6,101 -6,31 -20,56 -41,71 -18,13 -40,20 -66,22 -38,0 -68,-11 -87,-31 -29,-29 -38,-77 -38,-127l0 -278 -142 0 0 278c0,97 10,171 75,232 45,40 111,64 173,62 50,-3 106,-19 150,-54l0 38 124 0 0 -556 -142 0zm732 46c-44,-40 -110,-64 -172,-62 -51,2 -106,19 -150,54l0 -38 -124 0 0 556 141 0 0 -242c0,-38 1,-76 6,-101 6,-31 21,-56 41,-71 19,-14 41,-21 66,-22 39,0 68,11 88,31 29,29 37,76 37,127l0 278 142 0 0 -278c0,-97 -9,-171 -75,-232zm209 -247l0 123 140 0 0 -123 -140 0zm0 201l0 556 140 0 0 -556 -140 0zm649 108l0 -108 -160 0 0 -155 -140 0 0 155 -116 0 0 108 116 0 0 212c0,61 3,114 26,159 22,41 61,66 112,80 41,12 118,9 162,-3l0 -120c-30,4 -64,5 -90,3 -22,-2 -45,-15 -57,-34 -12,-20 -13,-52 -13,-95l0 -202 160 0zm493 -108l-142 394 -138 -394 -141 0 215 573c-18,49 -38,84 -54,93 -10,7 -36,9 -52,7l-16 -2 0 132 7 0c51,0 94,-4 134,-35 39,-28 67,-79 89,-137l237 -631 -139 0zm-3646 -1139c6,-10 13,-19 21,-27 39,-47 94,-62 160,-62 53,-2 104,8 146,32 38,21 66,55 76,95l-165 22c-146,23 -225,25 -338,85 -97,57 -165,165 -165,274 0,89 27,140 80,214 55,64 159,114 259,114 77,0 166,-19 238,-63 45,-26 108,-83 126,-138l0 174 226 0 0 -641c0,-62 -16,-138 -55,-204 -83,-140 -235,-202 -422,-202 -168,0 -308,55 -401,185 -7,9 -15,23 -21,30l235 112zm408 244c0,9 -2,47 -13,89 -32,122 -162,175 -270,179 -83,4 -138,-49 -134,-109 3,-82 119,-103 228,-123l189 -36zm1316 -274c-40,-108 -117,-197 -217,-248 -70,-36 -148,-51 -218,-51 -69,-2 -143,6 -223,39 -107,48 -187,150 -187,278 0,72 36,156 106,209 53,41 110,65 202,90 57,15 110,28 165,44 34,9 81,24 106,49 13,13 17,26 17,45 -4,19 -8,30 -27,47 -30,25 -96,35 -143,35 -63,0 -125,-10 -171,-59 -28,-29 -47,-85 -47,-115l-244 60c4,53 61,166 108,219 95,101 214,137 354,137 104,0 202,-16 283,-67 85,-54 138,-138 146,-234 7,-104 -36,-191 -119,-255 -67,-55 -116,-67 -201,-93 -51,-13 -109,-28 -161,-44 -51,-15 -92,-32 -107,-51 -2,-5 -6,-13 -6,-22 0,-12 6,-28 34,-48 26,-15 66,-22 111,-22 42,0 80,9 110,26 34,17 68,55 80,91l249 -60zm859 -72l0 -199 -295 0 0 -284 -257 0 0 284 -212 0 0 199 212 0 0 389c0,112 5,210 49,291 39,76 111,121 204,148 75,21 217,17 299,-6l0 -221c-55,8 -118,9 -167,5 -40,-3 -81,-26 -104,-62 -23,-36 -24,-94 -24,-174l0 -370 295 0zm448 382l750 0c2,-23 4,-48 4,-70 0,-137 -40,-267 -125,-369 -94,-113 -240,-170 -391,-170 -152,0 -297,58 -391,170 -86,102 -121,227 -125,369 -4,134 37,262 125,368 94,114 239,163 391,171 151,7 298,-52 400,-165 23,-27 44,-55 61,-83l-255 -112c-8,10 -12,21 -19,32 -44,57 -112,87 -187,87 -74,0 -144,-30 -185,-87 -31,-39 -46,-88 -53,-141zm238 -369c75,0 143,28 187,87 17,25 30,53 39,83l-453 0c9,-30 22,-58 42,-83 41,-59 111,-87 185,-87z"/>
     <path class="fil11" d="M23998 8692l38 0 -111 -327 -49 0 -111 327 38 0 21 -63 153 0 21 63zm-162 -98l64 -188 64 188 -128 0z"/>
     <polygon id="1" class="fil11" points="24291,8537 24389,8692 24434,8692 24324,8522 24425,8365 24381,8365 24291,8506 24213,8506 24213,8365 24176,8365 24176,8692 24213,8692 24213,8537 "/>
     <path id="2" class="fil11" d="M24610 8365l0 225c0,28 0,44 -12,65 -16,28 -42,43 -76,43 -17,0 -33,-4 -46,-12 -21,-12 -36,-32 -42,-56l37 -8c2,13 11,25 22,32 8,6 18,9 28,9 18,0 36,-9 45,-27 6,-12 6,-22 6,-46l0 -225 38 0z"/>
     <path id="3" class="fil11" d="M24910 8447c-11,-31 -31,-56 -57,-72 -20,-11 -45,-16 -68,-16 -21,0 -43,2 -64,13 -27,13 -47,42 -47,72 0,20 7,43 24,58 17,15 39,23 60,30l60 18c17,4 30,11 41,22 9,9 14,20 14,33 0,15 -6,31 -20,42 -15,11 -40,16 -61,16 -29,0 -58,-9 -75,-33 -10,-13 -16,-29 -19,-47l-38 10c5,21 13,42 27,60 24,32 61,45 103,45 32,0 62,-5 85,-21 23,-16 37,-44 37,-71 1,-23 -10,-45 -26,-61 -16,-15 -35,-25 -59,-31l-58 -18c-18,-5 -36,-12 -45,-22 -7,-7 -12,-18 -12,-28 0,-17 10,-33 26,-42 13,-7 30,-11 47,-10 18,0 36,5 49,13 19,12 31,29 39,50l37 -10z"/>
     <path id="4" class="fil11" d="M25200 8584c-4,14 -10,28 -18,40 -20,26 -53,39 -87,39 -33,0 -66,-13 -85,-39 -20,-27 -27,-62 -27,-96 0,-34 7,-69 27,-95 19,-26 52,-40 85,-39 34,0 67,13 87,39 9,13 16,28 19,44l38 -7c-5,-20 -14,-41 -28,-59 -27,-35 -70,-52 -116,-52 -45,0 -88,16 -115,52 -27,33 -36,75 -36,117 0,42 9,84 36,118 27,35 69,52 115,52 46,0 88,-16 116,-52 12,-16 21,-33 26,-51l-37 -11z"/>
     <polygon id="5" class="fil11" points="25496,8402 25496,8365 25294,8365 25294,8692 25496,8692 25496,8655 25330,8655 25330,8547 25469,8547 25469,8510 25330,8510 25330,8402 "/>
     <path id="6" class="fil11" d="M25874 8399c-11,-12 -26,-22 -42,-28 -10,-3 -22,-6 -34,-6l-137 0 0 327 36 0 0 -123 101 0c31,0 60,-14 79,-37 14,-18 24,-41 24,-65 -1,-25 -10,-50 -27,-68zm-26 110c-12,16 -32,25 -50,25l-101 0 0 -133 101 0c17,0 34,8 46,20 12,12 18,29 19,46 0,16 -6,31 -15,42z"/>
     <path id="7" class="fil11" d="M25976 8509c1,-3 3,-6 6,-9 12,-17 34,-25 56,-25 19,0 37,5 50,15 12,9 19,23 21,38l-50 7c-39,6 -65,8 -92,23 -22,14 -36,36 -36,62 0,17 5,30 15,45 13,19 38,32 63,32 21,2 43,-3 63,-13 16,-8 34,-23 43,-41l0 49 32 0 0 -154c0,-14 -2,-29 -9,-43 -18,-38 -55,-54 -99,-54 -37,0 -69,12 -90,41 -3,3 -6,7 -7,11l34 16zm135 51c0,20 0,36 -10,56 -14,32 -55,51 -87,47 -26,-2 -46,-22 -46,-45 1,-36 44,-43 83,-49 25,-4 42,-7 60,-9z"/>
     <path id="8" class="fil11" d="M26316 8440c-20,1 -40,6 -56,20 -9,7 -16,15 -21,23l0 -36 -33 0 0 245 37 0 0 -119c0,-33 1,-59 23,-80 11,-11 28,-18 47,-18 14,-1 26,1 37,5l0 -35c-11,-4 -22,-5 -34,-5z"/>
     <polygon id="9" class="fil11" points="26546,8447 26476,8644 26406,8447 26368,8447 26457,8692 26495,8692 26584,8447 "/>
     <path id="10" class="fil11" d="M26654 8509c2,-3 3,-6 6,-9 12,-17 34,-25 56,-25 19,0 38,5 51,15 11,9 18,23 20,38l-50 7c-38,6 -65,8 -92,23 -22,14 -36,36 -36,62 0,17 5,30 15,45 13,19 38,32 63,32 22,2 43,-3 63,-13 17,-8 34,-23 43,-41l0 49 33 0 0 -154c0,-14 -3,-29 -10,-43 -18,-38 -54,-54 -99,-54 -37,0 -69,12 -90,41 -3,3 -5,7 -7,11l34 16zm135 51c0,20 0,36 -10,56 -14,32 -55,51 -87,47 -26,-2 -46,-22 -45,-45 0,-36 43,-43 82,-49 25,-4 42,-7 60,-9z"/>
     <path id="11" class="fil11" d="M26915 8509c2,-3 4,-6 6,-9 13,-17 34,-25 57,-25 18,0 37,5 50,15 12,9 19,23 21,38l-51 7c-38,6 -65,8 -91,23 -23,14 -36,36 -36,62 0,17 5,30 14,45 13,19 39,32 63,32 22,2 43,-3 63,-13 17,-8 34,-23 43,-41l0 49 33 0 0 -154c0,-14 -3,-29 -10,-43 -17,-38 -54,-54 -99,-54 -37,0 -68,12 -90,41 -2,3 -5,7 -7,11l34 16zm135 51c0,20 0,36 -9,56 -15,32 -56,51 -88,47 -26,-2 -46,-22 -45,-45 0,-36 43,-43 83,-49 25,-4 41,-7 59,-9z"/>
     <path id="12" class="fil11" d="M27319 8461c-19,-14 -44,-21 -68,-20 -22,1 -46,9 -64,25 -3,3 -6,6 -8,9l0 -110 -33 0 0 327 37 0 0 -126c0,-12 0,-23 3,-33 3,-17 10,-31 21,-41 11,-10 26,-15 41,-15 18,-1 34,3 46,12 23,18 27,47 27,82l0 121 37 0 0 -121c1,-45 -5,-84 -39,-110z"/>
     <path id="13" class="fil11" d="M27679 8524l0 31 82 0c-2,25 -9,49 -24,68 -19,26 -52,40 -86,40 -33,0 -66,-14 -86,-40 -20,-25 -25,-61 -26,-95 1,-33 6,-69 26,-94 20,-27 53,-40 86,-40 34,0 67,13 86,40 4,5 8,11 11,17l34 -15c-4,-9 -10,-18 -16,-25 -27,-35 -68,-52 -115,-52 -46,0 -89,17 -115,52 -27,34 -35,75 -36,117 1,42 9,84 36,118 26,36 70,52 115,52 45,0 87,-16 115,-52 25,-32 35,-71 37,-112l0 -10 -124 0z"/>
     <path id="14" class="fil11" d="M27956 8698c36,0 67,-12 89,-39 20,-27 28,-57 28,-90 0,-31 -7,-63 -28,-89 -21,-27 -54,-40 -89,-40 -35,0 -69,14 -89,40 -20,25 -28,57 -28,89 0,32 7,64 28,90 21,26 54,39 89,39zm60 -62c-14,18 -37,27 -60,27 -24,0 -46,-9 -59,-27 -15,-18 -19,-43 -19,-67 0,-24 4,-49 19,-67 13,-18 35,-27 59,-27 23,0 46,9 60,27 13,18 18,43 18,67 0,24 -5,49 -18,67z"/>
     <path id="15" class="fil11" d="M28153 8509c2,-3 4,-6 6,-9 13,-17 34,-25 57,-25 18,0 37,5 50,15 12,9 19,23 21,38l-51 7c-38,6 -64,8 -91,23 -22,14 -36,36 -36,62 0,17 5,30 14,45 14,19 39,32 63,32 22,2 44,-3 63,-13 17,-8 34,-23 43,-41l0 49 33 0 0 -154c0,-14 -3,-29 -9,-43 -18,-38 -55,-54 -100,-54 -36,0 -68,12 -89,41 -3,3 -6,7 -8,11l34 16zm135 51c0,20 0,36 -9,56 -15,32 -55,51 -88,47 -25,-2 -45,-22 -45,-45 1,-36 44,-43 83,-49 25,-4 41,-7 59,-9z"/>
     <polygon id="16" class="fil11" points="28384,8692 28384,8359 28421,8359 28421,8692 "/>
    </g>
   </g>
   <g>
    <path class="fil12" d="M14838 0c0,-9 5,-16 12,-16 7,0 12,7 12,16l-24 0zm24 318l-24 0 0 -318 24 0 0 318zm0 0c0,9 -5,16 -12,16 -7,0 -12,-7 -12,-16l24 0zm-24 159c0,-8 5,-16 12,-16 7,0 12,8 12,16l-24 0zm24 319l-24 0 0 -319 24 0 0 319zm0 0c0,8 -5,16 -12,16 -7,0 -12,-8 -12,-16l24 0zm-24 159c0,-9 5,-16 12,-16 7,0 12,7 12,16l-24 0zm24 318l-24 0 0 -318 24 0 0 318zm0 0c0,9 -5,16 -12,16 -7,0 -12,-7 -12,-16l24 0zm-24 159c0,-9 5,-16 12,-16 7,0 12,7 12,16l-24 0zm24 318l-24 0 0 -318 24 0 0 318zm0 0c0,9 -5,16 -12,16 -7,0 -12,-7 -12,-16l24 0zm-24 160c0,-9 5,-16 12,-16 7,0 12,7 12,16l-24 0zm24 318l-24 0 0 -318 24 0 0 318zm0 0c0,9 -5,16 -12,16 -7,0 -12,-7 -12,-16l24 0zm-24 159c0,-9 5,-16 12,-16 7,0 12,7 12,16l-24 0zm24 318l-24 0 0 -318 24 0 0 318zm0 0c0,9 -5,16 -12,16 -7,0 -12,-7 -12,-16l24 0zm-24 159c0,-9 5,-16 12,-16 7,0 12,7 12,16l-24 0zm24 318l-24 0 0 -318 24 0 0 318zm0 0c0,9 -5,16 -12,16 -7,0 -12,-7 -12,-16l24 0zm-24 160c0,-9 5,-16 12,-16 7,0 12,7 12,16l-24 0zm24 318l-24 0 0 -318 24 0 0 318zm0 0c0,9 -5,16 -12,16 -7,0 -12,-7 -12,-16l24 0zm-24 159c0,-9 5,-16 12,-16 7,0 12,7 12,16l-24 0zm24 318l-24 0 0 -318 24 0 0 318zm0 0c0,9 -5,16 -12,16 -7,0 -12,-7 -12,-16l24 0zm-24 159c0,-8 5,-16 12,-16 7,0 12,8 12,16l-24 0zm24 319l-24 0 0 -319 24 0 0 319zm0 0c0,8 -5,16 -12,16 -7,0 -12,-8 -12,-16l24 0zm-24 159c0,-9 5,-16 12,-16 7,0 12,7 12,16l-24 0zm24 318l-24 0 0 -318 24 0 0 318zm0 0c0,9 -5,16 -12,16 -7,0 -12,-7 -12,-16l24 0zm-24 159c0,-9 5,-16 12,-16 7,0 12,7 12,16l-24 0zm24 318l-24 0 0 -318 24 0 0 318zm0 0c0,9 -5,16 -12,16 -7,0 -12,-7 -12,-16l24 0zm-24 160c0,-9 5,-16 12,-16 7,0 12,7 12,16l-24 0zm24 318l-24 0 0 -318 24 0 0 318zm0 0c0,9 -5,16 -12,16 -7,0 -12,-7 -12,-16l24 0zm-24 159c0,-9 5,-16 12,-16 7,0 12,7 12,16l-24 0zm24 318l-24 0 0 -318 24 0 0 318zm0 0c0,9 -5,16 -12,16 -7,0 -12,-7 -12,-16l24 0zm-24 159c0,-8 5,-16 12,-16 7,0 12,8 12,16l-24 0zm24 319l-24 0 0 -319 24 0 0 319zm0 0c0,8 -5,16 -12,16 -7,0 -12,-8 -12,-16l24 0zm-24 159c0,-9 5,-16 12,-16 7,0 12,7 12,16l-24 0zm24 318l-24 0 0 -318 24 0 0 318zm0 0c0,9 -5,16 -12,16 -7,0 -12,-7 -12,-16l24 0zm-24 159c0,-9 5,-16 12,-16 7,0 12,7 12,16l-24 0zm24 318l-24 0 0 -318 24 0 0 318zm0 0c0,9 -5,16 -12,16 -7,0 -12,-7 -12,-16l24 0zm-24 160c0,-9 5,-16 12,-16 7,0 12,7 12,16l-24 0zm24 318l-24 0 0 -318 24 0 0 318zm0 0c0,9 -5,16 -12,16 -7,0 -12,-7 -12,-16l24 0zm-24 159c0,-9 5,-16 12,-16 7,0 12,7 12,16l-24 0zm24 318l-24 0 0 -318 24 0 0 318zm0 0c0,9 -5,16 -12,16 -7,0 -12,-7 -12,-16l24 0zm-24 159c0,-8 5,-16 12,-16 7,0 12,8 12,16l-24 0zm24 319l-24 0 0 -319 24 0 0 319zm0 0c0,8 -5,15 -12,15 -7,0 -12,-7 -12,-15l24 0zm-24 159c0,-9 5,-16 12,-16 7,0 12,7 12,16l-24 0zm24 318l-24 0 0 -318 24 0 0 318zm0 0c0,9 -5,16 -12,16 -7,0 -12,-7 -12,-16l24 0zm-24 159c0,-9 5,-16 12,-16 7,0 12,7 12,16l-24 0zm24 318l-24 0 0 -318 24 0 0 318zm0 0c0,9 -5,16 -12,16 -7,0 -12,-7 -12,-16l24 0zm-24 159c0,-8 5,-15 12,-15 7,0 12,7 12,15l-24 0zm24 319l-24 0 0 -319 24 0 0 319zm0 0c0,8 -5,16 -12,16 -7,0 -12,-8 -12,-16l24 0zm-24 159c0,-9 5,-16 12,-16 7,0 12,7 12,16l-24 0zm24 318l-24 0 0 -318 24 0 0 318zm0 0c0,9 -5,16 -12,16 -7,0 -12,-7 -12,-16l24 0zm-24 159c0,-9 5,-16 12,-16 7,0 12,7 12,16l-24 0zm24 318l-24 0 0 -318 24 0 0 318zm0 0c0,9 -5,16 -12,16 -7,0 -12,-7 -12,-16l24 0zm-24 160c0,-9 5,-16 12,-16 7,0 12,7 12,16l-24 0zm0 269l0 -269 24 0 0 269 -24 0zm24 0c0,9 -5,16 -12,16 -7,0 -12,-7 -12,-16l24 0z"/>
   </g>
  </g>
 </g>
</svg>
