<?xml version="1.0" encoding="UTF-8"?>
<!DOCTYPE svg PUBLIC "-//W3C//DTD SVG 1.1//EN" "http://www.w3.org/Graphics/SVG/1.1/DTD/svg11.dtd">
<!-- Creator: CorelDRAW X7 -->
<svg xmlns="http://www.w3.org/2000/svg" xml:space="preserve" width="76.4538mm" height="39.9626mm" version="1.1" style="shape-rendering:geometricPrecision; text-rendering:geometricPrecision; image-rendering:optimizeQuality; fill-rule:evenodd; clip-rule:evenodd"
viewBox="0 0 7645 3996"
 xmlns:xlink="http://www.w3.org/1999/xlink">
 <defs>
  <style type="text/css">
   <![CDATA[
    .fil5 {fill:none}
    .fil2 {fill:#61003F}
    .fil1 {fill:#FFF4F0}
    .fil3 {fill:#61003F;fill-rule:nonzero}
    .fil4 {fill:#FFF4F0;fill-rule:nonzero}
    .fil0 {fill:#FFF4F0;fill-rule:nonzero}
   ]]>
  </style>
    <clipPath id="id0">
     <path d="M7446 1009l-503 291 0 -682c3,-50 20,-106 51,-160 32,-55 72,-98 113,-125l174 -101c41,-20 82,-23 113,-5l195 113 -11 164 -132 -95 0 600zm-339 -676l0 0 0 0z"/>
    </clipPath>
    <clipPath id="id1">
     <path d="M6943 618l0 682 194 112 0 -682 -194 -112z"/>
    </clipPath>
    <clipPath id="id2">
     <path d="M7641 1122l-504 290 0 -682c3,-49 21,-106 52,-160 31,-54 71,-97 112,-125l175 -100c41,-20 81,-24 113,-5 31,18 49,54 52,100l0 682zm-340 -677l0 0 0 0z"/>
    </clipPath>
 </defs>
 <g id="Layer_x0020_1">
  <metadata id="CorelCorpID_0Corel-Layer"/>
  <g id="_2595167183120">
   <path class="fil0" d="M901 1551c0,-38 -14,-68 -41,-90 -27,-21 -75,-44 -143,-67 -69,-23 -125,-45 -168,-66 -142,-70 -213,-166 -213,-287 0,-61 18,-114 53,-160 35,-47 85,-83 150,-108 64,-26 137,-39 217,-39 79,0 149,14 211,42 63,28 111,68 146,119 34,52 51,111 51,178l-262 0c0,-45 -14,-80 -41,-104 -27,-25 -64,-37 -111,-37 -47,0 -84,11 -111,31 -27,21 -41,48 -41,80 0,28 15,53 45,76 30,23 83,46 158,71 76,24 138,50 186,78 118,68 177,162 177,282 0,95 -36,170 -108,225 -72,54 -171,82 -296,82 -89,0 -169,-16 -240,-48 -72,-32 -126,-75 -162,-131 -37,-55 -55,-119 -55,-191l264 0c0,59 15,102 46,130 30,28 79,41 147,41 44,0 78,-9 103,-28 25,-18 38,-45 38,-79z"/>
   <path id="1" class="fil0" d="M1563 1470l0 371 -264 0 0 -1092 436 0c83,0 157,16 222,46 64,31 114,75 149,131 35,57 53,121 53,193 0,106 -38,191 -115,255 -76,64 -180,96 -314,96l-167 0zm0 -203l172 0c51,0 90,-13 116,-38 27,-26 41,-62 41,-108 0,-51 -14,-92 -42,-122 -27,-31 -65,-46 -112,-47l-175 0 0 315z"/>
   <polygon id="2" class="fil0" points="2976,1377 2562,1377 2562,1639 3051,1639 3051,1841 2299,1841 2299,749 3053,749 3053,952 2562,952 2562,1182 2976,1182 "/>
   <path id="3" class="fil0" d="M3778 1637l-360 0 -63 204 -282 0 401 -1092 247 0 404 1092 -283 0 -64 -204zm-298 -203l235 0 -118 -379 -117 379z"/>
   <polygon id="4" class="fil0" points="4576,1435 4468,1553 4468,1841 4204,1841 4204,749 4468,749 4468,1231 4559,1092 4795,749 5120,749 4751,1232 5120,1841 4808,1841 "/>
   <polygon id="5" class="fil0" points="5864,1377 5450,1377 5450,1639 5939,1639 5939,1841 5187,1841 5187,749 5940,749 5940,952 5450,952 5450,1182 5864,1182 "/>
   <path id="6" class="fil0" d="M6451 1456l-142 0 0 385 -263 0 0 -1092 429 0c130,0 231,29 304,87 73,57 109,138 109,243 0,76 -15,139 -46,189 -30,50 -78,91 -144,122l228 440 0 11 -282 0 -193 -385zm-142 -203l166 0c50,0 88,-13 113,-39 26,-27 38,-64 38,-111 0,-47 -13,-84 -38,-111 -26,-27 -63,-40 -113,-40l-166 0 0 301z"/>
   <path id="7" class="fil0" d="M602 2860c0,-39 -13,-69 -41,-90 -27,-22 -75,-44 -143,-67 -69,-23 -125,-45 -168,-67 -142,-69 -212,-165 -212,-286 0,-61 17,-114 52,-161 36,-46 86,-82 150,-108 64,-26 137,-38 217,-38 79,0 149,14 212,42 62,27 110,67 145,119 34,52 52,111 52,177l-263 0c0,-44 -14,-79 -41,-103 -27,-25 -64,-37 -110,-37 -47,0 -85,10 -112,31 -27,21 -41,47 -41,79 0,28 15,54 45,77 30,22 83,46 159,70 75,25 137,51 185,79 118,68 178,162 178,281 0,96 -37,171 -109,225 -71,55 -170,82 -296,82 -88,0 -168,-16 -240,-47 -72,-32 -126,-76 -162,-131 -36,-55 -54,-119 -54,-191l264 0c0,59 15,102 45,129 30,28 79,42 147,42 44,0 78,-9 103,-28 26,-19 38,-45 38,-79z"/>
   <polygon id="8" class="fil0" points="1678,2686 1264,2686 1264,2947 1753,2947 1753,3150 1000,3150 1000,2058 1754,2058 1754,2261 1264,2261 1264,2491 1678,2491 "/>
   <path id="9" class="fil0" d="M2423 2860c0,-39 -14,-69 -41,-90 -27,-22 -75,-44 -143,-67 -69,-23 -125,-45 -168,-67 -142,-69 -213,-165 -213,-286 0,-61 18,-114 53,-161 35,-46 85,-82 150,-108 64,-26 137,-38 217,-38 79,0 149,14 211,42 63,27 111,67 146,119 34,52 51,111 51,177l-262 0c0,-44 -14,-79 -41,-103 -27,-25 -64,-37 -111,-37 -47,0 -84,10 -111,31 -27,21 -41,47 -41,79 0,28 15,54 45,77 30,22 83,46 158,70 76,25 138,51 186,79 118,68 177,162 177,281 0,96 -36,171 -108,225 -72,55 -171,82 -296,82 -89,0 -169,-16 -240,-47 -72,-32 -126,-76 -162,-131 -37,-55 -55,-119 -55,-191l264 0c0,59 15,102 46,129 30,28 79,42 147,42 44,0 78,-9 103,-28 25,-19 38,-45 38,-79z"/>
   <path id="10" class="fil0" d="M3384 2860c0,-39 -13,-69 -40,-90 -28,-22 -76,-44 -144,-67 -69,-23 -124,-45 -168,-67 -142,-69 -212,-165 -212,-286 0,-61 17,-114 53,-161 35,-46 85,-82 149,-108 65,-26 137,-38 218,-38 78,0 149,14 211,42 62,27 110,67 145,119 34,52 52,111 52,177l-263 0c0,-44 -14,-79 -41,-103 -27,-25 -64,-37 -110,-37 -47,0 -84,10 -112,31 -27,21 -41,47 -41,79 0,28 16,54 45,77 30,22 83,46 159,70 75,25 137,51 185,79 118,68 178,162 178,281 0,96 -36,171 -108,225 -72,55 -171,82 -297,82 -88,0 -168,-16 -240,-47 -72,-32 -126,-76 -162,-131 -36,-55 -54,-119 -54,-191l264 0c0,59 15,102 45,129 30,28 79,42 147,42 44,0 78,-9 104,-28 25,-19 37,-45 37,-79z"/>
   <polygon id="11" class="fil0" points="4063,3150 3801,3150 3801,2058 4063,2058 "/>
   <path id="12" class="fil0" d="M5170 2626c0,107 -19,201 -59,283 -39,82 -95,146 -168,190 -73,44 -156,66 -249,66 -93,0 -175,-21 -247,-64 -72,-43 -128,-104 -169,-183 -40,-80 -61,-171 -63,-274l0 -62c0,-107 20,-201 59,-283 39,-82 95,-145 169,-190 73,-44 156,-66 250,-66 92,0 175,22 247,66 73,44 129,106 169,188 41,81 61,174 61,279l0 50zm-267 -46c0,-108 -18,-191 -55,-247 -36,-56 -88,-85 -155,-85 -132,0 -202,99 -209,298l-1 80c0,107 18,190 53,247 35,58 88,86 158,86 67,0 118,-28 154,-84 36,-57 54,-138 55,-244l0 -51z"/>
   <polygon id="13" class="fil0" points="6218,3150 5957,3150 5570,2470 5570,3150 5307,3150 5307,2058 5570,2058 5956,2738 5956,2058 6218,2058 "/>
   <path id="14" class="fil0" d="M6948 2860c0,-39 -13,-69 -41,-90 -27,-22 -75,-44 -143,-67 -69,-23 -125,-45 -168,-67 -142,-69 -212,-165 -212,-286 0,-61 17,-114 52,-161 36,-46 86,-82 150,-108 64,-26 137,-38 217,-38 79,0 149,14 212,42 62,27 110,67 145,119 34,52 51,111 51,177l-262 0c0,-44 -14,-79 -41,-103 -27,-25 -64,-37 -110,-37 -48,0 -85,10 -112,31 -27,21 -41,47 -41,79 0,28 15,54 45,77 30,22 83,46 159,70 75,25 137,51 185,79 118,68 177,162 177,281 0,96 -36,171 -108,225 -71,55 -170,82 -296,82 -88,0 -168,-16 -240,-47 -72,-32 -126,-76 -162,-131 -36,-55 -54,-119 -54,-191l264 0c0,59 15,102 45,129 30,28 79,42 147,42 44,0 78,-9 103,-28 26,-19 38,-45 38,-79z"/>
   <rect class="fil1" x="4190" y="1383" width="685.248" height="15.3684"/>
   <rect class="fil1" x="5103" y="1032" width="685.248" height="30.7399"/>
   <rect class="fil1" x="4249" y="1250" width="398.609" height="8.93917"/>
   <rect class="fil2" x="4030" y="1276" width="656.87" height="30.7399"/>
   <rect class="fil1" x="4993" y="989" width="513.936" height="14.1244"/>
   <rect class="fil2" x="4933" y="1078" width="398.609" height="8.93917"/>
   <rect class="fil2" x="4746" y="965" width="513.936" height="3.93492"/>
   <rect class="fil2" x="4206" y="1092" width="342.621" height="30.7399"/>
   <rect class="fil1" x="4076" y="1717" width="301.4" height="20.2948"/>
   <rect class="fil1" x="4005" y="1485" width="150.698" height="40.5938"/>
   <rect class="fil1" x="4102" y="1542" width="175.324" height="11.8047"/>
   <rect class="fil2" x="3950" y="1576" width="301.4" height="40.5938"/>
   <rect class="fil1" x="1646" y="1130" width="685.248" height="15.3684"/>
   <rect class="fil1" x="2297" y="1183" width="685.248" height="30.7399"/>
   <rect class="fil1" x="2559" y="779" width="685.248" height="30.7399"/>
   <rect class="fil1" x="1705" y="998" width="398.609" height="8.93917"/>
   <rect class="fil2" x="3028" y="1023" width="685.248" height="30.7399"/>
   <rect class="fil2" x="2390" y="826" width="398.609" height="8.93917"/>
   <rect class="fil2" x="2202" y="713" width="513.936" height="3.93492"/>
   <rect class="fil2" x="1662" y="840" width="342.621" height="30.7399"/>
   <rect class="fil1" x="3135" y="907" width="314.42" height="20.2948"/>
   <rect class="fil1" x="3351" y="1465" width="314.42" height="20.2948"/>
   <rect class="fil1" x="3582" y="1233" width="157.209" height="40.5938"/>
   <rect class="fil1" x="3455" y="1290" width="182.898" height="11.8047"/>
   <rect class="fil2" x="3482" y="1323" width="314.42" height="40.5938"/>
   <rect class="fil1" x="3212" y="1505" width="215.759" height="39.5644"/>
   <rect class="fil1" x="1472" y="1560" width="251.016" height="11.5053"/>
   <rect class="fil2" x="1509" y="1593" width="431.522" height="39.5644"/>
   <rect class="fil1" x="1014" y="1475" width="431.522" height="19.7802"/>
   <rect class="fil1" x="1104" y="1304" width="251.016" height="11.5053"/>
   <rect class="fil2" x="967" y="1337" width="431.522" height="39.5644"/>
   <rect class="fil1" x="6364" y="1512" width="140.605" height="25.7831"/>
   <rect class="fil1" x="6250" y="1494" width="163.581" height="7.49773"/>
   <rect class="fil2" x="6274" y="1455" width="281.212" height="25.7831"/>
   <rect class="fil1" x="5804" y="1545" width="281.212" height="12.8903"/>
   <rect class="fil1" x="6011" y="1679" width="140.605" height="25.7831"/>
   <rect class="fil1" x="5897" y="1661" width="163.581" height="7.49773"/>
   <rect class="fil2" x="5921" y="1622" width="281.212" height="25.7831"/>
   <rect class="fil1" x="2468" y="2645" width="796.208" height="15.3684"/>
   <rect class="fil1" x="1407" y="2294" width="796.208" height="30.7399"/>
   <rect class="fil1" x="2732" y="2512" width="463.154" height="8.93917"/>
   <rect class="fil2" x="2687" y="2537" width="763.235" height="30.7399"/>
   <rect class="fil1" x="1734" y="2251" width="597.156" height="14.1244"/>
   <rect class="fil2" x="1937" y="2340" width="463.154" height="8.93917"/>
   <rect class="fil2" x="2021" y="2227" width="597.156" height="3.93492"/>
   <rect class="fil2" x="2848" y="2354" width="398.1" height="30.7399"/>
   <rect class="fil1" x="3046" y="2979" width="350.204" height="20.2948"/>
   <rect class="fil1" x="3303" y="2747" width="175.101" height="40.5938"/>
   <rect class="fil1" x="3163" y="2804" width="203.714" height="11.8047"/>
   <rect class="fil2" x="3192" y="2837" width="350.204" height="40.5938"/>
   <rect class="fil1" x="5423" y="2392" width="796.208" height="15.3684"/>
   <rect class="fil1" x="4667" y="2445" width="796.208" height="30.7399"/>
   <rect class="fil1" x="4362" y="2041" width="796.208" height="30.7399"/>
   <rect class="fil1" x="5688" y="2260" width="463.154" height="8.93917"/>
   <rect class="fil2" x="3818" y="2285" width="796.208" height="30.7399"/>
   <rect class="fil2" x="4893" y="2087" width="463.154" height="8.93917"/>
   <rect class="fil2" x="4977" y="1975" width="597.156" height="3.93492"/>
   <rect class="fil2" x="5803" y="2102" width="398.1" height="30.7399"/>
   <rect class="fil1" x="4125" y="2168" width="365.334" height="20.2948"/>
   <rect class="fil1" x="3873" y="2727" width="365.334" height="20.2948"/>
   <rect class="fil1" x="3788" y="2495" width="182.665" height="40.5938"/>
   <rect class="fil1" x="3905" y="2551" width="212.515" height="11.8047"/>
   <rect class="fil2" x="3721" y="2585" width="365.334" height="40.5938"/>
   <rect class="fil1" x="4150" y="2767" width="250.696" height="39.5644"/>
   <rect class="fil1" x="6130" y="2822" width="291.662" height="11.5053"/>
   <rect class="fil2" x="5877" y="2855" width="501.397" height="39.5644"/>
   <rect class="fil1" x="6453" y="2737" width="501.397" height="19.7802"/>
   <rect class="fil1" x="6557" y="2566" width="291.662" height="11.5053"/>
   <rect class="fil2" x="6507" y="2599" width="501.397" height="39.5644"/>
   <rect class="fil1" x="575" y="2774" width="163.372" height="25.7831"/>
   <rect class="fil1" x="680" y="2756" width="190.069" height="7.49773"/>
   <rect class="fil2" x="515" y="2716" width="326.748" height="25.7831"/>
   <rect class="fil1" x="1062" y="2806" width="326.748" height="12.8902"/>
   <rect class="fil1" x="985" y="2941" width="163.372" height="25.7831"/>
   <rect class="fil1" x="1090" y="2923" width="190.069" height="7.49773"/>
   <rect class="fil2" x="925" y="2883" width="326.748" height="25.7831"/>
   <path class="fil1" d="M7344 1343c0,-9 7,-17 16,-17 8,0 15,8 15,17l0 718c0,22 -6,40 -19,50l0 1c-9,7 -19,9 -29,9 -1,0 -1,0 -2,0l0 0c-4,-1 -8,-1 -12,-2l0 0 0 0c-7,-2 -14,-5 -21,-9 -21,-13 -43,-34 -59,-62 -16,-29 -24,-58 -24,-82l31 0c0,88 104,177 104,95l0 -718z"/>
   <path class="fil1" d="M7209 1679c0,-5 7,-9 16,-9 8,0 15,4 15,9l0 287c0,5 -7,9 -15,9 -9,0 -16,-4 -16,-9l0 -287z"/>
   <path class="fil1" d="M7105 2350c0,9 -7,17 -15,17 -9,0 -16,-8 -16,-17l0 -766c0,-22 7,-40 19,-51l0 0c9,-7 19,-10 30,-9 0,0 0,0 1,0l0 0c4,0 8,1 12,2l0 0 0 0c7,2 14,5 21,9 22,13 43,34 59,62 16,28 24,58 24,82l-31 0c0,-88 -104,-177 -104,-95l0 766z"/>
   <path class="fil1" d="M7240 1834c0,5 -7,9 -15,9 -9,0 -16,-4 -16,-9l0 -155c0,-5 7,-9 16,-9 8,0 15,4 15,9l0 155z"/>
   <polygon class="fil1" points="7120,1332 7120,1465 7235,1531 7235,1332 "/>
   <path class="fil3" d="M7124 1336l0 126 107 62 0 -188 -107 0zm-8 129l0 -133 0 0c0,-2 2,-4 4,-4l114 0 1 0c2,0 4,2 4,4l0 199 0 0c0,0 -1,1 -1,2 -1,2 -4,2 -5,1l-115 -66c-1,0 -2,-2 -2,-3z"/>
   <polygon class="fil1" points="7531,1157 7531,1360 7235,1531 7235,1332 "/>
   <path class="fil3" d="M7535 1157l0 203c0,1 -1,3 -2,3l-296 171c-2,1 -5,1 -6,-1 0,-1 0,-2 0,-2l0 0 0 -199c0,-2 0,-3 2,-4l296 -174c2,-1 5,-1 6,1 0,1 0,2 0,2l0 0zm-8 200l0 -193 -288 170 0 190 288 -167z"/>
   <path class="fil2" d="M7446 1009l-503 291 0 -682c3,-50 20,-106 51,-160 32,-55 72,-98 113,-125l174 -101c41,-20 82,-23 113,-5l195 113 -11 164 -132 -95 0 600zm-339 -676l0 0 0 0z"/>
   <g style="clip-path:url(#id0)">
    <g>
     <path id="1" class="fil4" d="M7607 1127c1,0 1,1 1,1 0,1 -1,1 -1,1l-1101 -545c-1,0 -1,-1 -1,-1 1,-1 1,-1 2,-1l1100 545z"/>
     <path class="fil4" d="M6401 1049c-1,0 -1,0 -1,0 0,-1 0,-2 0,-2l1730 -544c1,-1 1,0 1,0 1,1 0,1 0,2l-1730 544z"/>
     <path class="fil4" d="M6401 1931c-1,0 -1,0 -1,0 0,-1 0,-2 0,-2l1730 -544c1,-1 1,0 1,0 1,1 0,1 0,2l-1730 544z"/>
     <path class="fil4" d="M6401 1895c-1,0 -1,-1 -1,-1 0,-1 0,-1 0,-1l1730 -545c1,0 1,0 1,1 1,0 0,1 0,1l-1730 545z"/>
     <path class="fil4" d="M6401 1858c-1,0 -1,0 -1,-1 0,0 0,-1 0,-1l1730 -545c1,0 1,0 1,1 1,0 0,1 0,1l-1730 545z"/>
     <path class="fil4" d="M6401 1821c-1,0 -1,0 -1,-1 0,0 0,-1 0,-1l1730 -545c1,0 1,0 1,1 1,1 0,1 0,1l-1730 545z"/>
     <path class="fil4" d="M6401 1784c-1,0 -1,0 -1,0 0,-1 0,-2 0,-2l1730 -544c1,-1 1,0 1,0 1,1 0,1 0,2l-1730 544z"/>
     <path class="fil4" d="M6401 1748c-1,0 -1,-1 -1,-1 0,-1 0,-1 0,-1l1730 -545c1,0 1,0 1,1 1,0 0,1 0,1l-1730 545z"/>
     <path class="fil4" d="M6401 1711c-1,0 -1,0 -1,-1 0,0 0,-1 0,-1l1730 -545c1,0 1,0 1,1 1,0 0,1 0,1l-1730 545z"/>
     <path class="fil4" d="M6401 1674c-1,0 -1,0 -1,-1 0,0 0,-1 0,-1l1730 -545c1,0 1,0 1,1 1,1 0,1 0,1l-1730 545z"/>
     <path class="fil4" d="M6401 1637c-1,0 -1,0 -1,0 0,-1 0,-2 0,-2l1730 -544c1,-1 1,0 1,0 1,1 0,1 0,2l-1730 544z"/>
     <path class="fil4" d="M6401 1601c-1,0 -1,-1 -1,-1 0,-1 0,-1 0,-1l1730 -545c1,0 1,0 1,1 1,0 0,1 0,1l-1730 545z"/>
     <path class="fil4" d="M6401 1564c-1,0 -1,0 -1,-1 0,0 0,-1 0,-1l1730 -545c1,0 1,0 1,1 1,0 0,1 0,1l-1730 545z"/>
     <path class="fil4" d="M6401 1527c-1,0 -1,0 -1,-1 0,0 0,-1 0,-1l1730 -545c1,0 1,0 1,1 1,1 0,1 0,1l-1730 545z"/>
     <path class="fil4" d="M6401 1490c-1,0 -1,0 -1,0 0,-1 0,-2 0,-2l1730 -544c1,-1 1,0 1,0 1,1 0,1 0,2l-1730 544z"/>
     <path class="fil4" d="M6401 1454c-1,0 -1,-1 -1,-1 0,-1 0,-1 0,-1l1730 -545c1,0 1,0 1,1 1,0 0,1 0,1l-1730 545z"/>
     <path class="fil4" d="M6401 1417c-1,0 -1,0 -1,-1 0,0 0,-1 0,-1l1730 -545c1,0 1,0 1,1 1,0 0,1 0,1l-1730 545z"/>
     <path class="fil4" d="M6401 1380c-1,0 -1,0 -1,-1 0,0 0,-1 0,-1l1730 -545c1,0 1,0 1,1 1,1 0,1 0,1l-1730 545z"/>
     <path class="fil4" d="M6401 1343c-1,0 -1,0 -1,0 0,-1 0,-2 0,-2l1730 -544c1,-1 1,0 1,0 1,1 0,1 0,2l-1730 544z"/>
     <path class="fil4" d="M6401 1307c-1,0 -1,-1 -1,-1 0,-1 0,-1 0,-1l1730 -545c1,0 1,0 1,1 1,0 0,1 0,1l-1730 545z"/>
     <path class="fil4" d="M6401 1270c-1,0 -1,0 -1,-1 0,0 0,-1 0,-1l1730 -545c1,0 1,0 1,1 1,0 0,1 0,1l-1730 545z"/>
     <path class="fil4" d="M6401 1233c-1,0 -1,0 -1,-1 0,0 0,-1 0,-1l1730 -545c1,0 1,0 1,1 1,1 0,1 0,1l-1730 545z"/>
     <path class="fil4" d="M6401 1196c-1,0 -1,0 -1,0 0,-1 0,-2 0,-2l1730 -544c1,-1 1,0 1,0 1,1 0,1 0,2l-1730 544z"/>
     <path class="fil4" d="M6401 1160c-1,0 -1,-1 -1,-1 0,-1 0,-1 0,-1l1730 -545c1,0 1,0 1,1 1,0 0,1 0,1l-1730 545z"/>
     <path class="fil4" d="M6401 1123c-1,0 -1,0 -1,-1 0,0 0,-1 0,-1l1730 -545c1,0 1,0 1,1 1,0 0,1 0,1l-1730 545z"/>
     <path class="fil4" d="M6401 1086c-1,0 -1,0 -1,-1 0,0 0,-1 0,-1l1730 -545c1,0 1,0 1,1 1,1 0,1 0,1l-1730 545z"/>
     <path class="fil4" d="M6401 1968c-1,0 -1,0 -1,-1 0,0 0,-1 0,-1l1730 -545c1,0 1,0 1,1 1,1 0,1 0,1l-1730 545z"/>
     <path class="fil4" d="M7607 1084c1,0 1,1 1,2 0,0 -1,0 -1,0l-1101 -545c-1,0 -1,-1 -1,-1 1,-1 1,-1 2,-1l1100 545z"/>
     <path class="fil4" d="M7607 1041c1,1 1,1 1,2 0,0 -1,0 -1,0l-1101 -544c-1,-1 -1,-1 -1,-2 1,0 1,-1 2,0l1100 544z"/>
     <path class="fil4" d="M7607 999c1,0 1,0 1,1 0,1 -1,1 -1,0l-1101 -544c-1,0 -1,-1 -1,-2 1,0 1,0 2,0l1100 545z"/>
     <path class="fil4" d="M7607 913c1,0 1,1 1,1 0,1 -1,1 -1,1l-1101 -545c-1,0 -1,-1 -1,-1 1,-1 1,-1 2,-1l1100 545z"/>
     <path class="fil4" d="M7607 870c1,1 1,1 1,2 0,0 -1,0 -1,0l-1101 -545c-1,0 -1,0 -1,-1 1,0 1,-1 2,0l1100 544z"/>
     <path class="fil4" d="M7607 828c1,0 1,0 1,1 0,0 -1,1 -1,0l-1101 -544c-1,-1 -1,-1 -1,-2 1,0 1,0 2,0l1100 545z"/>
     <path class="fil4" d="M7607 785c1,0 1,1 1,1 0,1 -1,1 -1,1l-1101 -545c-1,0 -1,-1 -1,-1 1,-1 1,-1 2,-1l1100 545z"/>
     <path class="fil4" d="M7607 742c1,0 1,1 1,1 0,1 -1,1 -1,1l-1101 -545c-1,0 -1,-1 -1,-1 1,-1 1,-1 2,-1l1100 545z"/>
     <path class="fil4" d="M7607 699c1,0 1,1 1,2 0,0 -1,0 -1,0l-1101 -545c-1,0 -1,0 -1,-1 1,0 1,-1 2,0l1100 544z"/>
     <path class="fil4" d="M7607 656c1,1 1,1 1,2 0,0 -1,1 -1,0l-1101 -544c-1,-1 -1,-1 -1,-2 1,0 1,0 2,0l1100 544z"/>
     <path class="fil4" d="M7607 614c1,0 1,1 1,1 0,1 -1,1 -1,1l-1101 -545c-1,0 -1,-1 -1,-2 1,0 1,0 2,0l1100 545z"/>
     <path class="fil4" d="M7607 571c1,0 1,1 1,1 0,1 -1,1 -1,1l-1101 -545c-1,0 -1,-1 -1,-1 1,-1 1,-1 2,-1l1100 545z"/>
     <path class="fil4" d="M7607 528c1,0 1,1 1,2 0,0 -1,0 -1,0l-1101 -545c-1,0 -1,-1 -1,-1 1,-1 1,-1 2,-1l1100 545z"/>
     <path class="fil4" d="M7607 485c1,1 1,1 1,2 0,0 -1,1 -1,0l-1101 -544c-1,-1 -1,-1 -1,-2 1,0 1,-1 2,0l1100 544z"/>
     <path class="fil4" d="M7607 443c1,0 1,1 1,1 0,1 -1,1 -1,1l-1101 -545c-1,0 -1,-1 -1,-2 1,0 1,0 2,0l1100 545z"/>
     <path class="fil4" d="M7607 400c1,0 1,1 1,1 0,1 -1,1 -1,1l-1101 -545c-1,0 -1,-1 -1,-1 1,-1 1,-1 2,-1l1100 545z"/>
     <path class="fil4" d="M7607 1897c1,0 1,0 1,1 0,1 -1,1 -1,0l-1101 -544c-1,0 -1,-1 -1,-2 1,0 1,0 2,0l1100 545z"/>
     <path class="fil4" d="M7607 1854c1,0 1,1 1,1 0,1 -1,1 -1,1l-1101 -545c-1,0 -1,-1 -1,-1 1,-1 1,-1 2,-1l1100 545z"/>
     <path class="fil4" d="M7607 1811c1,0 1,1 1,1 0,1 -1,1 -1,1l-1101 -545c-1,0 -1,-1 -1,-1 1,-1 1,-1 2,-1l1100 545z"/>
     <path class="fil4" d="M7607 1768c1,1 1,1 1,2 0,0 -1,0 -1,0l-1101 -545c-1,0 -1,0 -1,-1 1,0 1,-1 2,0l1100 544z"/>
     <path class="fil4" d="M7607 1726c1,0 1,0 1,1 0,0 -1,1 -1,0l-1101 -544c-1,-1 -1,-1 -1,-2 1,0 1,0 2,0l1100 545z"/>
     <path class="fil4" d="M7607 1683c1,0 1,1 1,1 0,1 -1,1 -1,1l-1101 -545c-1,0 -1,-1 -1,-1 1,-1 1,-1 2,-1l1100 545z"/>
     <path class="fil4" d="M7607 1640c1,0 1,1 1,1 0,1 -1,1 -1,1l-1101 -545c-1,0 -1,-1 -1,-1 1,-1 1,-1 2,-1l1100 545z"/>
     <path class="fil4" d="M7607 1597c1,1 1,1 1,2 0,0 -1,0 -1,0l-1101 -545c-1,0 -1,0 -1,-1 1,0 1,-1 2,0l1100 544z"/>
     <path class="fil4" d="M7607 1554c1,1 1,1 1,2 0,0 -1,1 -1,0l-1101 -544c-1,-1 -1,-1 -1,-2 1,0 1,0 2,0l1100 544z"/>
     <path class="fil4" d="M7607 1512c1,0 1,1 1,1 0,1 -1,1 -1,1l-1101 -545c-1,0 -1,-1 -1,-2 1,0 1,0 2,0l1100 545z"/>
     <path class="fil4" d="M7607 1469c1,0 1,1 1,1 0,1 -1,1 -1,1l-1101 -545c-1,0 -1,-1 -1,-1 1,-1 1,-1 2,-1l1100 545z"/>
     <path class="fil4" d="M7607 1426c1,0 1,1 1,2 0,0 -1,0 -1,0l-1101 -545c-1,0 -1,-1 -1,-1 1,-1 1,-1 2,-1l1100 545z"/>
     <path class="fil4" d="M7607 1383c1,1 1,1 1,2 0,0 -1,1 -1,0l-1101 -544c-1,-1 -1,-1 -1,-2 1,0 1,-1 2,0l1100 544z"/>
     <path class="fil4" d="M7607 1341c1,0 1,1 1,1 0,1 -1,1 -1,1l-1101 -545c-1,0 -1,-1 -1,-2 1,0 1,0 2,0l1100 545z"/>
     <path class="fil4" d="M7607 1298c1,0 1,1 1,1 0,1 -1,1 -1,1l-1101 -545c-1,0 -1,-1 -1,-1 1,-1 1,-1 2,-1l1100 545z"/>
     <path class="fil4" d="M7607 1255c1,0 1,1 1,2 0,0 -1,0 -1,0l-1101 -545c-1,0 -1,-1 -1,-1 1,-1 1,-1 2,-1l1100 545z"/>
     <path class="fil4" d="M7607 1212c1,1 1,1 1,2 0,0 -1,1 -1,0l-1101 -544c-1,-1 -1,-1 -1,-2 1,0 1,-1 2,0l1100 544z"/>
     <path class="fil4" d="M7607 1170c1,0 1,1 1,1 0,1 -1,1 -1,1l-1101 -545c-1,0 -1,-1 -1,-2 1,0 1,0 2,0l1100 545z"/>
     <path class="fil4" d="M6401 94c-1,0 -1,0 -1,-1 0,0 0,-1 0,-1l1730 -545c1,0 1,0 1,1 1,0 0,1 0,1l-1730 545z"/>
     <path class="fil4" d="M6401 976c-1,0 -1,0 -1,-1 0,0 0,-1 0,-1l1730 -545c1,0 1,0 1,1 1,0 0,1 0,1l-1730 545z"/>
     <path class="fil4" d="M6401 939c-1,0 -1,0 -1,-1 0,0 0,-1 0,-1l1730 -545c1,0 1,0 1,1 1,1 0,1 0,1l-1730 545z"/>
     <path class="fil4" d="M6401 902c-1,0 -1,0 -1,0 0,-1 0,-2 0,-2l1730 -544c1,-1 1,0 1,0 1,1 0,1 0,2l-1730 544z"/>
     <path class="fil4" d="M6401 866c-1,0 -1,-1 -1,-1 0,-1 0,-1 0,-1l1730 -545c1,0 1,0 1,1 1,0 0,1 0,1l-1730 545z"/>
     <path class="fil4" d="M6401 829c-1,0 -1,0 -1,-1 0,0 0,-1 0,-1l1730 -545c1,0 1,0 1,1 1,0 0,1 0,1l-1730 545z"/>
     <path class="fil4" d="M6401 792c-1,0 -1,0 -1,-1 0,0 0,-1 0,-1l1730 -545c1,0 1,0 1,1 1,1 0,1 0,1l-1730 545z"/>
     <path class="fil4" d="M6401 755c-1,0 -1,0 -1,0 0,-1 0,-2 0,-2l1730 -544c1,-1 1,0 1,0 1,1 0,1 0,2l-1730 544z"/>
     <path class="fil4" d="M6401 719c-1,0 -1,-1 -1,-1 0,-1 0,-1 0,-1l1730 -545c1,0 1,0 1,1 1,0 0,1 0,1l-1730 545z"/>
     <path class="fil4" d="M6401 682c-1,0 -1,0 -1,-1 0,0 0,-1 0,-1l1730 -545c1,0 1,0 1,1 1,0 0,1 0,1l-1730 545z"/>
     <path class="fil4" d="M6401 645c-1,0 -1,0 -1,-1 0,0 0,-1 0,-1l1730 -545c1,0 1,0 1,1 1,1 0,1 0,1l-1730 545z"/>
     <path class="fil4" d="M6401 608c-1,0 -1,0 -1,0 0,-1 0,-2 0,-2l1730 -544c1,-1 1,0 1,0 1,1 0,1 0,2l-1730 544z"/>
     <path class="fil4" d="M6401 572c-1,0 -1,-1 -1,-1 0,-1 0,-1 0,-1l1730 -545c1,0 1,0 1,1 1,0 0,1 0,1l-1730 545z"/>
     <path class="fil4" d="M6401 535c-1,0 -1,0 -1,-1 0,0 0,-1 0,-1l1730 -545c1,0 1,0 1,1 1,0 0,1 0,1l-1730 545z"/>
     <path class="fil4" d="M6401 498c-1,0 -1,0 -1,-1 0,0 0,-1 0,-1l1730 -545c1,0 1,0 1,1 1,1 0,1 0,1l-1730 545z"/>
     <path class="fil4" d="M6401 461c-1,0 -1,0 -1,0 0,-1 0,-2 0,-2l1730 -544c1,-1 1,0 1,0 1,1 0,1 0,2l-1730 544z"/>
     <path class="fil4" d="M6401 425c-1,0 -1,-1 -1,-1 0,-1 0,-1 0,-1l1730 -545c1,0 1,0 1,0 1,1 0,2 0,2l-1730 545z"/>
     <path class="fil4" d="M6401 388c-1,0 -1,0 -1,-1 0,0 0,-1 0,-1l1730 -545c1,0 1,0 1,1 1,0 0,1 0,1l-1730 545z"/>
     <path class="fil4" d="M6401 351c-1,0 -1,0 -1,-1 0,0 0,-1 0,-1l1730 -545c1,0 1,0 1,1 1,1 0,1 0,1l-1730 545z"/>
     <path class="fil4" d="M6401 314c-1,0 -1,0 -1,0 0,-1 0,-2 0,-2l1730 -544c1,-1 1,0 1,0 1,1 0,1 0,2l-1730 544z"/>
     <path class="fil4" d="M6401 278c-1,0 -1,-1 -1,-1 0,-1 0,-1 0,-1l1730 -545c1,0 1,0 1,0 1,1 0,2 0,2l-1730 545z"/>
     <path class="fil4" d="M6401 241c-1,0 -1,0 -1,-1 0,0 0,-1 0,-1l1730 -545c1,0 1,0 1,1 1,0 0,1 0,1l-1730 545z"/>
     <path class="fil4" d="M6401 204c-1,0 -1,0 -1,-1 0,0 0,-1 0,-1l1730 -545c1,0 1,0 1,1 1,1 0,1 0,1l-1730 545z"/>
     <path class="fil4" d="M6401 167c-1,0 -1,0 -1,0 0,-1 0,-2 0,-2l1730 -544c1,-1 1,0 1,0 1,1 0,1 0,2l-1730 544z"/>
     <path class="fil4" d="M6401 131c-1,0 -1,-1 -1,-1 0,-1 0,-1 0,-1l1730 -545c1,0 1,0 1,0 1,1 0,2 0,2l-1730 545z"/>
     <path class="fil4" d="M6401 1013c-1,0 -1,-1 -1,-1 0,-1 0,-1 0,-1l1730 -545c1,0 1,0 1,1 1,0 0,1 0,1l-1730 545z"/>
    </g>
   </g>
   <path class="fil5" d="M7446 1009l-503 291 0 -682c3,-50 20,-106 51,-160 32,-55 72,-98 113,-125l174 -101c41,-20 82,-23 113,-5l195 113 -11 164 -132 -95 0 600zm-339 -676l0 0 0 0z"/>
   <g>
    <path class="fil4" d="M7448 1014l-503 290c-2,2 -6,1 -7,-1 0,-1 -1,-2 -1,-3l0 0 0 -682 0 -1c2,-26 7,-53 16,-81 9,-26 21,-54 37,-81 15,-27 33,-51 52,-72 20,-22 41,-40 62,-54l0 -1 175 -100 0 0 0 0c21,-11 43,-17 63,-18 20,-1 38,3 55,13l0 0 194 112c2,1 3,3 3,5l0 0 -11 164c0,3 -3,5 -6,5 -1,0 -2,-1 -2,-1l-124 -89 0 590c0,2 -1,4 -3,5zm-500 277l493 -285 0 -597 0 0c0,-1 0,-2 1,-3 2,-2 5,-3 7,-1l124 89 10 -152 -191 -110 -1 0c-14,-9 -31,-12 -49,-12 -18,1 -38,7 -59,17l-174 100c-20,14 -40,32 -59,53 -19,20 -36,44 -51,70 -15,27 -27,53 -36,80 -8,27 -14,53 -15,77l0 1 0 673zm449 -1068c2,1 3,4 2,7l-2 -7z"/>
   </g>
   <polygon class="fil2" points="6943,618 6943,1300 7137,1412 7137,730 "/>
   <g style="clip-path:url(#id1)">
    <g id="_2595059670240">
     <path id="1" class="fil4" d="M7409 673c0,0 1,-1 1,0 1,0 1,0 1,1l-545 1101c0,0 -1,0 -1,0 -1,0 -1,-1 -1,-1l545 -1101z"/>
     <path class="fil4" d="M7332 1879c0,1 -1,2 -1,2 -1,0 -1,0 -1,-1l-545 -1730c0,0 0,-1 0,-1 1,0 2,0 2,1l545 1729z"/>
     <path class="fil4" d="M8214 1879c0,1 -1,2 -1,2 -1,0 -1,0 -1,-1l-545 -1730c0,0 0,-1 1,-1 0,0 1,0 1,1l545 1729z"/>
     <path class="fil4" d="M8177 1879c0,1 0,2 -1,2 0,0 -1,0 -1,-1l-545 -1730c0,0 0,-1 1,-1 0,0 1,0 1,1l545 1729z"/>
     <path class="fil4" d="M8140 1879c0,1 0,2 -1,2 0,0 -1,0 -1,-1l-545 -1730c0,0 0,-1 1,-1 1,0 1,0 1,1l545 1729z"/>
     <path class="fil4" d="M8103 1879c0,1 0,2 0,2 -1,0 -2,0 -2,-1l-544 -1730c-1,0 0,-1 0,-1 1,0 1,0 2,1l544 1729z"/>
     <path class="fil4" d="M8067 1879c0,1 -1,2 -1,2 -1,0 -1,0 -1,-1l-545 -1730c0,0 0,-1 1,-1 0,0 1,0 1,1l545 1729z"/>
     <path class="fil4" d="M8030 1879c0,1 0,2 -1,2 0,0 -1,0 -1,-1l-545 -1730c0,0 0,-1 1,-1 0,0 1,0 1,1l545 1729z"/>
     <path class="fil4" d="M7993 1879c0,1 0,2 -1,2 0,0 -1,0 -1,-1l-545 -1730c0,0 0,-1 1,-1 1,0 1,0 1,1l545 1729z"/>
     <path class="fil4" d="M7956 1879c0,1 0,2 0,2 -1,0 -2,0 -2,-1l-544 -1730c-1,0 0,-1 0,-1 1,0 1,0 2,1l544 1729z"/>
     <path class="fil4" d="M7920 1879c0,1 -1,2 -1,2 -1,0 -1,0 -1,-1l-545 -1730c0,0 0,-1 1,-1 0,0 1,0 1,1l545 1729z"/>
     <path class="fil4" d="M7883 1879c0,1 0,2 -1,2 0,0 -1,0 -1,-1l-545 -1730c0,0 0,-1 1,-1 0,0 1,0 1,1l545 1729z"/>
     <path class="fil4" d="M7846 1879c0,1 0,2 -1,2 0,0 -1,0 -1,-1l-545 -1730c0,0 0,-1 1,-1 1,0 1,0 1,1l545 1729z"/>
     <path class="fil4" d="M7809 1879c0,1 0,2 0,2 -1,0 -2,0 -2,-1l-544 -1730c-1,0 0,-1 0,-1 1,0 1,0 2,1l544 1729z"/>
     <path class="fil4" d="M7773 1879c0,1 -1,2 -1,2 -1,0 -1,0 -1,-1l-545 -1730c0,0 0,-1 1,-1 0,0 1,0 1,1l545 1729z"/>
     <path class="fil4" d="M7736 1879c0,1 0,2 -1,2 0,0 -1,0 -1,-1l-545 -1730c0,0 0,-1 1,-1 0,0 1,0 1,1l545 1729z"/>
     <path class="fil4" d="M7699 1879c0,1 0,2 -1,2 0,0 -1,0 -1,-1l-545 -1730c0,0 0,-1 1,-1 1,0 1,0 1,1l545 1729z"/>
     <path class="fil4" d="M7662 1879c0,1 0,2 0,2 -1,0 -2,0 -2,-1l-544 -1730c-1,0 0,-1 0,-1 1,0 1,0 2,1l544 1729z"/>
     <path class="fil4" d="M7626 1879c0,1 -1,2 -1,2 -1,0 -1,0 -1,-1l-545 -1730c0,0 0,-1 0,-1 1,0 2,0 2,1l545 1729z"/>
     <path class="fil4" d="M7589 1879c0,1 0,2 -1,2 0,0 -1,0 -1,-1l-545 -1730c0,0 0,-1 1,-1 0,0 1,0 1,1l545 1729z"/>
     <path class="fil4" d="M7552 1879c0,1 0,2 -1,2 0,0 -1,0 -1,-1l-545 -1730c0,0 0,-1 1,-1 1,0 1,0 1,1l545 1729z"/>
     <path class="fil4" d="M7515 1879c0,1 0,2 0,2 -1,0 -2,0 -2,-1l-544 -1730c-1,0 0,-1 0,-1 1,0 1,0 2,1l544 1729z"/>
     <path class="fil4" d="M7479 1879c0,1 -1,2 -1,2 -1,0 -1,0 -1,-1l-545 -1730c0,0 0,-1 0,-1 1,0 2,0 2,1l545 1729z"/>
     <path class="fil4" d="M7442 1879c0,1 0,2 -1,2 0,0 -1,0 -1,-1l-545 -1730c0,0 0,-1 1,-1 0,0 1,0 1,1l545 1729z"/>
     <path class="fil4" d="M7405 1879c0,1 0,2 -1,2 0,0 -1,0 -1,-1l-545 -1730c0,0 0,-1 1,-1 1,0 1,0 1,1l545 1729z"/>
     <path class="fil4" d="M7368 1879c0,1 0,2 0,2 -1,0 -2,0 -2,-1l-544 -1730c-1,0 0,-1 0,-1 1,0 1,0 2,1l544 1729z"/>
     <path class="fil4" d="M8250 1879c0,1 0,2 0,2 -1,0 -2,0 -2,-1l-544 -1730c-1,0 0,-1 0,-1 1,0 1,0 2,1l544 1729z"/>
     <path class="fil4" d="M7366 673c1,0 1,-1 2,0 0,0 0,0 0,1l-545 1101c0,0 0,0 -1,0 0,0 -1,-1 0,-1l544 -1101z"/>
     <path class="fil4" d="M7324 673c0,0 0,-1 1,0 0,0 1,0 0,1l-544 1101c-1,0 -1,0 -2,0 0,0 0,-1 0,-1l545 -1101z"/>
     <path class="fil4" d="M7281 673c0,0 1,-1 1,0 1,0 1,0 1,1l-545 1101c0,0 -1,0 -1,0 -1,0 -1,-1 -1,-1l545 -1101z"/>
     <path class="fil4" d="M7238 673c0,0 1,-1 1,0 1,0 1,0 1,1l-545 1101c0,0 -1,0 -1,0 -1,0 -1,-1 -1,-1l545 -1101z"/>
     <path class="fil4" d="M7195 673c1,0 1,-1 2,0 0,0 0,0 0,1l-545 1101c0,0 0,0 -1,0 0,0 -1,-1 0,-1l544 -1101z"/>
     <path class="fil4" d="M7153 673c0,0 0,-1 1,0 0,0 1,0 0,1l-544 1101c-1,0 -1,0 -2,0 0,0 0,-1 0,-1l545 -1101z"/>
     <path class="fil4" d="M7110 673c0,0 1,-1 1,0 1,0 1,0 1,1l-545 1101c0,0 -1,0 -1,0 -1,0 -1,-1 -1,-1l545 -1101z"/>
     <path class="fil4" d="M7067 673c0,0 1,-1 1,0 1,0 1,0 1,1l-545 1101c0,0 -1,0 -1,0 -1,0 -1,-1 -1,-1l545 -1101z"/>
     <path class="fil4" d="M7024 673c0,0 1,-1 2,0 0,0 0,0 0,1l-545 1101c0,0 0,0 -1,0 -1,0 -1,-1 0,-1l544 -1101z"/>
     <path class="fil4" d="M6981 673c1,0 1,-1 2,0 0,0 1,0 0,1l-544 1101c-1,0 -1,0 -2,0 0,0 -1,-1 0,-1l544 -1101z"/>
     <path class="fil4" d="M6939 673c0,0 1,-1 1,0 1,0 1,0 1,1l-545 1101c0,0 -1,0 -2,0 0,0 0,-1 0,-1l545 -1101z"/>
     <path class="fil4" d="M6896 673c0,0 1,-1 1,0 1,0 1,0 1,1l-545 1101c0,0 -1,0 -1,0 -1,0 -1,-1 -1,-1l545 -1101z"/>
     <path class="fil4" d="M6853 673c0,0 1,-1 2,0 0,0 0,0 0,1l-545 1101c0,0 -1,0 -1,0 -1,0 -1,-1 -1,-1l545 -1101z"/>
     <path class="fil4" d="M6810 673c1,0 1,-1 2,0 0,0 1,0 0,1l-544 1101c-1,0 -1,0 -2,0 0,0 -1,-1 0,-1l544 -1101z"/>
     <path class="fil4" d="M6768 673c0,0 1,-1 1,0 1,0 1,0 1,1l-545 1101c0,0 -1,0 -2,0 0,0 0,-1 0,-1l545 -1101z"/>
     <path class="fil4" d="M6725 673c0,0 1,-1 1,0 1,0 1,0 1,1l-545 1101c0,0 -1,0 -1,0 -1,0 -1,-1 -1,-1l545 -1101z"/>
     <path class="fil4" d="M6682 673c0,0 1,-1 2,0 0,0 0,0 0,1l-545 1101c0,0 -1,0 -1,0 -1,0 -1,-1 -1,-1l545 -1101z"/>
     <path class="fil4" d="M8179 673c0,0 1,-1 1,0 1,0 1,0 1,1l-545 1101c0,0 -1,0 -1,0 -1,0 -1,-1 -1,-1l545 -1101z"/>
     <path class="fil4" d="M8136 673c0,0 1,-1 1,0 1,0 1,0 1,1l-545 1101c0,0 -1,0 -1,0 -1,0 -1,-1 -1,-1l545 -1101z"/>
     <path class="fil4" d="M8093 673c1,0 1,-1 2,0 0,0 0,0 0,1l-545 1101c0,0 0,0 -1,0 0,0 -1,-1 0,-1l544 -1101z"/>
     <path class="fil4" d="M8051 673c0,0 0,-1 1,0 0,0 1,0 0,1l-544 1101c-1,0 -1,0 -2,0 0,0 0,-1 0,-1l545 -1101z"/>
     <path class="fil4" d="M8008 673c0,0 1,-1 1,0 1,0 1,0 1,1l-545 1101c0,0 -1,0 -1,0 -1,0 -1,-1 -1,-1l545 -1101z"/>
     <path class="fil4" d="M7965 673c0,0 1,-1 1,0 1,0 1,0 1,1l-545 1101c0,0 -1,0 -1,0 -1,0 -1,-1 -1,-1l545 -1101z"/>
     <path class="fil4" d="M7922 673c0,0 1,-1 2,0 0,0 0,0 0,1l-545 1101c0,0 0,0 -1,0 -1,0 -1,-1 0,-1l544 -1101z"/>
     <path class="fil4" d="M7879 673c1,0 1,-1 2,0 0,0 1,0 0,1l-544 1101c-1,0 -1,0 -2,0 0,0 0,-1 0,-1l544 -1101z"/>
     <path class="fil4" d="M7837 673c0,0 1,-1 1,0 1,0 1,0 1,1l-545 1101c0,0 -1,0 -2,0 0,0 0,-1 0,-1l545 -1101z"/>
     <path class="fil4" d="M7794 673c0,0 1,-1 1,0 1,0 1,0 1,1l-545 1101c0,0 -1,0 -1,0 -1,0 -1,-1 -1,-1l545 -1101z"/>
     <path class="fil4" d="M7751 673c0,0 1,-1 2,0 0,0 0,0 0,1l-545 1101c0,0 -1,0 -1,0 -1,0 -1,-1 -1,-1l545 -1101z"/>
     <path class="fil4" d="M7708 673c1,0 1,-1 2,0 0,0 1,0 0,1l-544 1101c-1,0 -1,0 -2,0 0,0 -1,-1 0,-1l544 -1101z"/>
     <path class="fil4" d="M7666 673c0,0 1,-1 1,0 1,0 1,0 1,1l-545 1101c0,0 -1,0 -2,0 0,0 0,-1 0,-1l545 -1101z"/>
     <path class="fil4" d="M7623 673c0,0 1,-1 1,0 1,0 1,0 1,1l-545 1101c0,0 -1,0 -1,0 -1,0 -1,-1 -1,-1l545 -1101z"/>
     <path class="fil4" d="M7580 673c0,0 1,-1 2,0 0,0 0,0 0,1l-545 1101c0,0 -1,0 -1,0 -1,0 -1,-1 -1,-1l545 -1101z"/>
     <path class="fil4" d="M7537 673c1,0 1,-1 2,0 0,0 1,0 0,1l-544 1101c-1,0 -1,0 -2,0 0,0 -1,-1 0,-1l544 -1101z"/>
     <path class="fil4" d="M7495 673c0,0 0,-1 1,0 1,0 1,0 0,1l-544 1101c0,0 -1,0 -2,0 0,0 0,-1 0,-1l545 -1101z"/>
     <path class="fil4" d="M7452 673c0,0 1,-1 1,0 1,0 1,0 1,1l-545 1101c0,0 -1,0 -1,0 -1,0 -1,-1 -1,-1l545 -1101z"/>
     <path class="fil4" d="M6376 1879c0,1 0,2 -1,2 0,0 -1,0 -1,-1l-545 -1730c0,0 0,-1 1,-1 1,0 1,0 1,1l545 1729z"/>
     <path class="fil4" d="M7258 1879c0,1 0,2 -1,2 0,0 -1,0 -1,-1l-545 -1730c0,0 0,-1 1,-1 1,0 1,0 1,1l545 1729z"/>
     <path class="fil4" d="M7221 1879c0,1 0,2 0,2 -1,0 -2,0 -2,-1l-544 -1730c-1,0 0,-1 0,-1 1,0 1,0 2,1l544 1729z"/>
     <path class="fil4" d="M7185 1879c0,1 -1,2 -1,2 -1,0 -1,0 -1,-1l-545 -1730c0,0 0,-1 0,-1 1,0 2,0 2,1l545 1729z"/>
     <path class="fil4" d="M7148 1879c0,1 0,2 -1,2 0,0 -1,0 -1,-1l-545 -1730c0,0 0,-1 1,-1 0,0 1,0 1,1l545 1729z"/>
     <path class="fil4" d="M7111 1879c0,1 0,2 -1,2 0,0 -1,0 -1,-1l-545 -1730c0,0 0,-1 1,-1 1,0 1,0 1,1l545 1729z"/>
     <path class="fil4" d="M7074 1879c0,1 0,2 0,2 -1,0 -2,0 -2,-1l-544 -1730c-1,0 0,-1 0,-1 1,0 1,0 2,1l544 1729z"/>
     <path class="fil4" d="M7038 1879c0,1 -1,2 -1,2 -1,0 -1,0 -2,-1l-544 -1730c0,0 0,-1 0,-1 1,0 2,0 2,1l545 1729z"/>
     <path class="fil4" d="M7001 1879c0,1 0,2 -1,2 0,0 -1,0 -1,-1l-545 -1730c0,0 0,-1 1,-1 0,0 1,0 1,1l545 1729z"/>
     <path class="fil4" d="M6964 1879c0,1 0,2 -1,2 0,0 -1,0 -1,-1l-545 -1730c0,0 0,-1 1,-1 1,0 1,0 1,1l545 1729z"/>
     <path class="fil4" d="M6927 1879c0,1 0,2 0,2 -1,0 -2,0 -2,-1l-544 -1730c-1,0 0,-1 0,-1 1,0 1,0 2,1l544 1729z"/>
     <path class="fil4" d="M6890 1879c1,1 0,2 0,2 -1,0 -1,0 -2,-1l-544 -1730c0,0 0,-1 0,-1 1,0 2,0 2,1l544 1729z"/>
     <path class="fil4" d="M6854 1879c0,1 0,2 -1,2 0,0 -1,0 -1,-1l-545 -1730c0,0 0,-1 1,-1 0,0 1,0 1,1l545 1729z"/>
     <path class="fil4" d="M6817 1879c0,1 0,2 -1,2 0,0 -1,0 -1,-1l-545 -1730c0,0 0,-1 1,-1 1,0 1,0 1,1l545 1729z"/>
     <path class="fil4" d="M6780 1879c0,1 0,2 0,2 -1,0 -2,0 -2,-1l-544 -1730c-1,0 0,-1 0,-1 1,0 1,0 2,1l544 1729z"/>
     <path class="fil4" d="M6743 1879c1,1 0,2 0,2 -1,0 -1,0 -2,-1l-544 -1730c0,0 0,-1 0,-1 1,0 2,0 2,1l544 1729z"/>
     <path class="fil4" d="M6707 1879c0,1 0,2 -1,2 -1,0 -1,0 -1,-1l-545 -1730c0,0 0,-1 1,-1 0,0 1,0 1,1l545 1729z"/>
     <path class="fil4" d="M6670 1879c0,1 0,2 -1,2 0,0 -1,0 -1,-1l-545 -1730c0,0 0,-1 1,-1 1,0 1,0 1,1l545 1729z"/>
     <path class="fil4" d="M6633 1879c0,1 0,2 0,2 -1,0 -2,0 -2,-1l-544 -1730c-1,0 0,-1 0,-1 1,0 1,0 2,1l544 1729z"/>
     <path class="fil4" d="M6596 1879c1,1 0,2 0,2 -1,0 -1,0 -2,-1l-544 -1730c0,0 0,-1 0,-1 1,0 2,0 2,1l544 1729z"/>
     <path class="fil4" d="M6560 1879c0,1 0,2 -1,2 -1,0 -1,0 -1,-1l-545 -1730c0,0 0,-1 1,-1 0,0 1,0 1,1l545 1729z"/>
     <path class="fil4" d="M6523 1879c0,1 0,2 -1,2 0,0 -1,0 -1,-1l-545 -1730c0,0 0,-1 1,-1 1,0 1,0 1,1l545 1729z"/>
     <path class="fil4" d="M6486 1879c0,1 0,2 0,2 -1,0 -2,0 -2,-1l-544 -1730c-1,0 0,-1 0,-1 1,0 1,0 2,1l544 1729z"/>
     <path class="fil4" d="M6449 1879c1,1 0,2 0,2 -1,0 -1,0 -2,-1l-544 -1730c0,0 0,-1 0,-1 1,0 2,0 2,1l544 1729z"/>
     <path class="fil4" d="M6413 1879c0,1 0,2 -1,2 -1,0 -1,0 -1,-1l-545 -1730c0,0 0,-1 1,-1 0,0 1,0 1,1l545 1729z"/>
     <path class="fil4" d="M7295 1879c0,1 0,2 -1,2 0,0 -1,0 -1,-1l-545 -1730c0,0 0,-1 1,-1 0,0 1,0 1,1l545 1729z"/>
    </g>
   </g>
   <polygon class="fil5" points="6943,618 6943,1300 7137,1412 7137,730 "/>
   <path class="fil4" d="M6948 627l0 670 184 106 0 -670 -184 -106zm-11 673l0 -682 0 0c0,-1 1,-2 1,-3 1,-3 5,-3 7,-2l194 112c2,1 3,3 3,5l0 682 0 0c0,1 0,2 0,3 -2,2 -5,3 -7,2l-195 -112c-1,-1 -3,-3 -3,-5z"/>
   <path class="fil2" d="M7641 1122l-504 290 0 -682c3,-49 21,-106 52,-160 31,-54 71,-97 112,-125l175 -100c41,-20 81,-24 113,-5 31,18 49,54 52,100l0 682zm-340 -677l0 0 0 0z"/>
   <g style="clip-path:url(#id2)">
    <g id="_2595167189488">
     <path id="1" class="fil4" d="M7299 328c0,-1 0,-1 1,-2 0,0 1,0 1,1l545 1100c0,1 0,2 -1,2 0,0 -1,0 -1,-1l-545 -1100z"/>
     <path class="fil4" d="M7381 1534c0,0 -1,1 -2,0 0,0 0,0 0,-1l544 -1730c1,0 1,0 2,0 0,0 1,1 0,1l-544 1730z"/>
     <path class="fil4" d="M6499 1534c-1,0 -1,1 -2,0 0,0 -1,0 0,-1l544 -1730c1,0 1,0 2,0 0,0 1,1 0,1l-544 1730z"/>
     <path class="fil4" d="M6535 1534c0,0 0,1 -1,0 0,0 -1,0 -1,-1l545 -1730c0,0 1,0 1,0 1,0 1,1 1,1l-545 1730z"/>
     <path class="fil4" d="M6572 1534c0,0 -1,1 -1,0 -1,0 -1,0 -1,-1l545 -1730c0,0 1,0 1,0 1,0 1,1 1,1l-545 1730z"/>
     <path class="fil4" d="M6609 1534c0,0 -1,1 -1,0 -1,0 -1,0 -1,-1l545 -1730c0,0 0,0 1,0 0,0 1,1 1,1l-545 1730z"/>
     <path class="fil4" d="M6646 1534c-1,0 -1,1 -2,0 0,0 -1,0 0,-1l544 -1730c1,0 1,0 2,0 0,0 1,1 0,1l-544 1730z"/>
     <path class="fil4" d="M6682 1534c0,0 0,1 -1,0 0,0 -1,0 -1,-1l545 -1730c0,0 1,0 1,0 1,0 1,1 1,1l-545 1730z"/>
     <path class="fil4" d="M6719 1534c0,0 -1,1 -1,0 -1,0 -1,0 -1,-1l545 -1730c0,0 1,0 1,0 1,0 1,1 1,1l-545 1730z"/>
     <path class="fil4" d="M6756 1534c0,0 -1,1 -1,0 -1,0 -1,0 -1,-1l545 -1730c0,0 0,0 1,0 0,0 1,1 1,1l-545 1730z"/>
     <path class="fil4" d="M6793 1534c0,0 -1,1 -2,0 0,0 -1,0 0,-1l544 -1730c1,0 1,0 2,0 0,0 1,1 0,1l-544 1730z"/>
     <path class="fil4" d="M6829 1534c0,0 0,1 -1,0 0,0 -1,0 -1,-1l545 -1730c0,0 1,0 1,0 1,0 1,1 1,1l-545 1730z"/>
     <path class="fil4" d="M6866 1534c0,0 -1,1 -1,0 -1,0 -1,0 -1,-1l545 -1730c0,0 1,0 1,0 1,0 1,1 1,1l-545 1730z"/>
     <path class="fil4" d="M6903 1534c0,0 -1,1 -1,0 -1,0 -1,0 -1,-1l545 -1730c0,0 0,0 1,0 0,0 1,1 1,1l-545 1730z"/>
     <path class="fil4" d="M6940 1534c0,0 -1,1 -2,0 0,0 0,0 0,-1l544 -1730c1,0 1,0 2,0 0,0 1,1 0,1l-544 1730z"/>
     <path class="fil4" d="M6976 1534c0,0 0,1 -1,0 0,0 -1,0 -1,-1l545 -1730c0,0 1,0 1,0 1,0 1,1 1,1l-545 1730z"/>
     <path class="fil4" d="M7013 1534c0,0 -1,1 -1,0 -1,0 -1,0 -1,-1l545 -1730c0,0 1,0 1,0 1,0 1,1 1,1l-545 1730z"/>
     <path class="fil4" d="M7050 1534c0,0 -1,1 -1,0 -1,0 -1,0 -1,-1l545 -1730c0,0 0,0 1,0 1,0 1,1 1,1l-545 1730z"/>
     <path class="fil4" d="M7087 1534c0,0 -1,1 -2,0 0,0 0,0 0,-1l544 -1730c1,0 1,0 2,0 0,0 1,1 0,1l-544 1730z"/>
     <path class="fil4" d="M7123 1534c0,0 0,1 -1,0 0,0 -1,0 -1,-1l545 -1730c0,0 1,0 1,0 1,0 1,1 1,1l-545 1730z"/>
     <path class="fil4" d="M7160 1534c0,0 -1,1 -1,0 -1,0 -1,0 -1,-1l545 -1730c0,0 1,0 1,0 1,0 1,1 1,1l-545 1730z"/>
     <path class="fil4" d="M7197 1534c0,0 -1,1 -1,0 -1,0 -1,0 -1,-1l545 -1730c0,0 0,0 1,0 1,0 1,1 1,1l-545 1730z"/>
     <path class="fil4" d="M7234 1534c0,0 -1,1 -2,0 0,0 0,0 0,-1l544 -1730c1,0 1,0 2,0 0,0 1,1 0,1l-544 1730z"/>
     <path class="fil4" d="M7270 1534c0,0 0,1 -1,0 0,0 -1,0 -1,-1l545 -1730c0,0 1,0 1,0 1,0 1,1 1,1l-545 1730z"/>
     <path class="fil4" d="M7307 1534c0,0 -1,1 -1,0 -1,0 -1,0 -1,-1l545 -1730c0,0 1,0 1,0 1,0 1,1 1,1l-545 1730z"/>
     <path class="fil4" d="M7344 1534c0,0 -1,1 -1,0 -1,0 -1,0 -1,-1l545 -1730c0,0 0,0 1,0 1,0 1,1 1,1l-545 1730z"/>
     <path class="fil4" d="M6462 1534c0,0 -1,1 -1,0 -1,0 -1,0 -1,-1l545 -1730c0,0 0,0 1,0 0,0 1,1 1,1l-545 1730z"/>
     <path class="fil4" d="M7342 328c0,-1 0,-1 0,-2 1,0 2,0 2,1l545 1100c0,1 0,2 -1,2 0,0 -1,0 -1,-1l-545 -1100z"/>
     <path class="fil4" d="M7385 328c0,-1 0,-1 0,-2 1,0 1,0 2,1l544 1100c1,1 0,2 0,2 -1,0 -1,0 -2,-1l-544 -1100z"/>
     <path class="fil4" d="M7428 328c-1,-1 -1,-1 0,-2 1,0 1,0 1,1l545 1100c0,1 0,2 0,2 -1,0 -2,0 -2,-1l-544 -1100z"/>
     <path class="fil4" d="M7470 328c0,-1 0,-1 1,-2 0,0 1,0 1,1l545 1100c0,1 0,2 -1,2 0,0 -1,0 -1,-1l-545 -1100z"/>
     <path class="fil4" d="M7513 328c0,-1 0,-1 1,-2 0,0 1,0 1,1l545 1100c0,1 0,2 -1,2 0,0 -1,0 -1,-1l-545 -1100z"/>
     <path class="fil4" d="M7556 328c0,-1 0,-1 0,-2 1,0 1,0 2,1l544 1100c1,1 0,2 0,2 -1,0 -1,0 -1,-1l-545 -1100z"/>
     <path class="fil4" d="M7599 328c-1,-1 0,-1 0,-2 1,0 1,0 1,1l545 1100c0,1 0,2 0,2 -1,0 -1,0 -2,-1l-544 -1100z"/>
     <path class="fil4" d="M7641 328c0,-1 0,-1 1,-2 0,0 1,0 1,1l545 1100c0,1 0,2 -1,2 0,0 -1,0 -1,-1l-545 -1100z"/>
     <path class="fil4" d="M7684 328c0,-1 0,-1 1,-2 0,0 1,0 1,1l545 1100c0,1 0,2 -1,2 0,0 -1,0 -1,-1l-545 -1100z"/>
     <path class="fil4" d="M7727 328c0,-1 0,-1 0,-2 1,0 1,0 2,1l544 1100c1,1 1,2 0,2 -1,0 -1,0 -1,-1l-545 -1100z"/>
     <path class="fil4" d="M7770 328c-1,-1 0,-1 0,-2 1,0 1,0 2,1l544 1100c0,1 0,2 0,2 -1,0 -1,0 -2,-1l-544 -1100z"/>
     <path class="fil4" d="M7812 328c0,-1 0,-1 1,-2 0,0 1,0 1,1l545 1100c0,1 0,2 0,2 -1,0 -2,0 -2,-1l-545 -1100z"/>
     <path class="fil4" d="M7855 328c0,-1 0,-1 1,-2 0,0 1,0 1,1l545 1100c0,1 0,2 -1,2 0,0 -1,0 -1,-1l-545 -1100z"/>
     <path class="fil4" d="M7898 328c0,-1 0,-1 0,-2 1,0 2,0 2,1l545 1100c0,1 0,2 -1,2 0,0 -1,0 -1,-1l-545 -1100z"/>
     <path class="fil4" d="M7941 328c-1,-1 0,-1 0,-2 1,0 1,0 2,1l544 1100c1,1 0,2 0,2 -1,0 -1,0 -2,-1l-544 -1100z"/>
     <path class="fil4" d="M7983 328c0,-1 0,-1 1,-2 0,0 1,0 1,1l545 1100c0,1 0,2 0,2 -1,0 -2,0 -2,-1l-545 -1100z"/>
     <path class="fil4" d="M8026 328c0,-1 0,-1 1,-2 0,0 1,0 1,1l545 1100c0,1 0,2 -1,2 0,0 -1,0 -1,-1l-545 -1100z"/>
     <path class="fil4" d="M6530 328c-1,-1 -1,-1 0,-2 1,0 1,0 1,1l545 1100c0,1 0,2 0,2 -1,0 -2,0 -2,-1l-544 -1100z"/>
     <path class="fil4" d="M6572 328c0,-1 0,-1 1,-2 0,0 1,0 1,1l545 1100c0,1 0,2 -1,2 0,0 -1,0 -1,-1l-545 -1100z"/>
     <path class="fil4" d="M6615 328c0,-1 0,-1 1,-2 0,0 1,0 1,1l545 1100c0,1 0,2 -1,2 0,0 -1,0 -1,-1l-545 -1100z"/>
     <path class="fil4" d="M6658 328c0,-1 0,-1 0,-2 1,0 1,0 2,1l544 1100c1,1 0,2 0,2 -1,0 -1,0 -1,-1l-545 -1100z"/>
     <path class="fil4" d="M6701 328c-1,-1 0,-1 0,-2 1,0 1,0 1,1l545 1100c0,1 0,2 0,2 -1,0 -1,0 -2,-1l-544 -1100z"/>
     <path class="fil4" d="M6743 328c0,-1 0,-1 1,-2 0,0 1,0 1,1l545 1100c0,1 0,2 -1,2 0,0 -1,0 -1,-1l-545 -1100z"/>
     <path class="fil4" d="M6786 328c0,-1 0,-1 1,-2 0,0 1,0 1,1l545 1100c0,1 0,2 -1,2 0,0 -1,0 -1,-1l-545 -1100z"/>
     <path class="fil4" d="M6829 328c0,-1 0,-1 0,-2 1,0 1,0 2,1l544 1100c1,1 0,2 0,2 -1,0 -1,0 -1,-1l-545 -1100z"/>
     <path class="fil4" d="M6872 328c-1,-1 0,-1 0,-2 1,0 1,0 1,1l545 1100c0,1 0,2 0,2 -1,0 -1,0 -2,-1l-544 -1100z"/>
     <path class="fil4" d="M6914 328c0,-1 0,-1 1,-2 0,0 1,0 1,1l545 1100c0,1 0,2 -1,2 0,0 -1,0 -1,-1l-545 -1100z"/>
     <path class="fil4" d="M6957 328c0,-1 0,-1 1,-2 0,0 1,0 1,1l545 1100c0,1 0,2 -1,2 0,0 -1,0 -1,-1l-545 -1100z"/>
     <path class="fil4" d="M7000 328c0,-1 0,-1 0,-2 1,0 2,0 2,1l544 1100c1,1 1,2 0,2 -1,0 -1,0 -1,-1l-545 -1100z"/>
     <path class="fil4" d="M7043 328c-1,-1 0,-1 0,-2 1,0 1,0 2,1l544 1100c1,1 0,2 0,2 -1,0 -1,0 -2,-1l-544 -1100z"/>
     <path class="fil4" d="M7085 328c0,-1 0,-1 1,-2 0,0 1,0 1,1l545 1100c0,1 0,2 0,2 -1,0 -2,0 -2,-1l-545 -1100z"/>
     <path class="fil4" d="M7128 328c0,-1 0,-1 1,-2 0,0 1,0 1,1l545 1100c0,1 0,2 -1,2 0,0 -1,0 -1,-1l-545 -1100z"/>
     <path class="fil4" d="M7171 328c0,-1 0,-1 0,-2 1,0 2,0 2,1l545 1100c0,1 0,2 -1,2 0,0 -1,0 -1,-1l-545 -1100z"/>
     <path class="fil4" d="M7214 328c-1,-1 0,-1 0,-2 1,0 1,0 2,1l544 1100c1,1 0,2 0,2 -1,0 -1,0 -2,-1l-544 -1100z"/>
     <path class="fil4" d="M7256 328c0,-1 0,-1 1,-2 0,0 1,0 1,1l545 1100c0,1 0,2 0,2 -1,0 -2,0 -2,-1l-545 -1100z"/>
     <path class="fil4" d="M8336 1534c0,0 -1,1 -1,0 -1,0 -1,0 -1,-1l545 -1730c0,0 1,0 1,0 1,0 1,1 1,1l-545 1730z"/>
     <path class="fil4" d="M7454 1534c0,0 -1,1 -1,0 -1,0 -1,0 -1,-1l545 -1730c0,0 1,0 1,0 1,0 1,1 1,1l-545 1730z"/>
     <path class="fil4" d="M7491 1534c0,0 -1,1 -1,0 -1,0 -1,0 -1,-1l545 -1730c0,0 0,0 1,0 1,0 1,1 1,1l-545 1730z"/>
     <path class="fil4" d="M7528 1534c0,0 -1,1 -2,0 0,0 0,0 0,-1l544 -1730c1,0 1,0 2,0 0,0 1,1 0,1l-544 1730z"/>
     <path class="fil4" d="M7564 1534c0,0 0,1 -1,0 0,0 -1,0 -1,-1l545 -1730c0,0 1,0 1,0 1,0 1,1 1,1l-545 1730z"/>
     <path class="fil4" d="M7601 1534c0,0 -1,1 -1,0 -1,0 -1,0 -1,-1l545 -1730c0,0 1,0 1,0 1,0 1,1 1,1l-545 1730z"/>
     <path class="fil4" d="M7638 1534c0,0 -1,1 -1,0 -1,0 -1,0 -1,-1l545 -1730c0,0 0,0 1,0 1,0 1,1 1,1l-545 1730z"/>
     <path class="fil4" d="M7675 1534c0,0 -1,1 -2,0 0,0 0,0 0,-1l544 -1730c1,0 1,0 2,0 0,0 1,1 0,1l-544 1730z"/>
     <path class="fil4" d="M7711 1534c0,0 0,1 -1,0 0,0 -1,0 -1,-1l545 -1730c0,0 1,0 1,0 1,0 1,1 1,1l-545 1730z"/>
     <path class="fil4" d="M7748 1534c0,0 -1,1 -1,0 -1,0 -1,0 -1,-1l545 -1730c0,0 1,0 1,0 1,0 1,1 1,1l-545 1730z"/>
     <path class="fil4" d="M7785 1534c0,0 -1,1 -1,0 -1,0 -1,0 -1,-1l545 -1730c0,0 0,0 1,0 1,0 1,1 1,1l-545 1730z"/>
     <path class="fil4" d="M7822 1534c0,0 -1,1 -2,0 0,0 0,0 0,-1l544 -1730c1,0 1,0 2,0 0,0 1,1 0,1l-544 1730z"/>
     <path class="fil4" d="M7858 1534c0,0 0,1 -1,0 0,0 -1,0 -1,-1l545 -1730c0,0 1,0 1,0 1,0 1,1 1,1l-545 1730z"/>
     <path class="fil4" d="M7895 1534c0,0 -1,1 -1,0 -1,0 -1,0 -1,-1l545 -1730c0,0 1,0 1,0 1,0 1,1 1,1l-545 1730z"/>
     <path class="fil4" d="M7932 1534c0,0 -1,1 -1,0 -1,0 -1,0 -1,-1l545 -1730c0,0 0,0 1,0 1,0 1,1 1,1l-545 1730z"/>
     <path class="fil4" d="M7969 1534c0,0 -1,1 -2,0 0,0 0,0 0,-1l544 -1730c1,0 1,0 2,0 0,0 1,1 0,1l-544 1730z"/>
     <path class="fil4" d="M8005 1534c0,0 0,1 -1,0 0,0 -1,0 -1,-1l545 -1730c0,0 1,0 1,0 1,0 1,1 1,1l-545 1730z"/>
     <path class="fil4" d="M8042 1534c0,0 -1,1 -1,0 -1,0 -1,0 -1,-1l545 -1730c0,0 1,0 1,0 1,0 1,1 1,1l-545 1730z"/>
     <path class="fil4" d="M8079 1534c0,0 -1,1 -1,0 -1,0 -1,0 -1,-1l545 -1730c0,0 0,0 1,0 1,0 1,1 1,1l-545 1730z"/>
     <path class="fil4" d="M8116 1534c0,0 -1,1 -2,0 0,0 0,0 0,-1l544 -1730c1,0 1,0 2,0 0,0 1,1 0,1l-544 1730z"/>
     <path class="fil4" d="M8152 1534c0,0 0,1 -1,0 0,0 -1,0 -1,-1l545 -1730c0,0 1,0 1,0 1,0 1,1 1,1l-545 1730z"/>
     <path class="fil4" d="M8189 1534c0,0 -1,1 -1,0 -1,0 -1,0 -1,-1l545 -1730c0,0 1,0 1,0 1,0 1,1 1,1l-545 1730z"/>
     <path class="fil4" d="M8226 1534c0,0 -1,1 -1,0 -1,0 -1,0 -1,-1l545 -1730c0,0 0,0 1,0 1,0 1,1 1,1l-545 1730z"/>
     <path class="fil4" d="M8263 1534c0,0 -1,1 -2,0 0,0 0,0 0,-1l544 -1730c1,0 1,0 2,0 0,0 1,1 0,1l-544 1730z"/>
     <path class="fil4" d="M8299 1534c0,0 0,1 -1,0 0,0 -1,0 -1,-1l545 -1730c0,0 1,0 2,0 0,0 0,1 0,1l-545 1730z"/>
     <path class="fil4" d="M7417 1534c0,0 0,1 -1,0 0,0 -1,0 -1,-1l545 -1730c0,0 1,0 1,0 1,0 1,1 1,1l-545 1730z"/>
    </g>
   </g>
   <path class="fil5" d="M7641 1122l-504 290 0 -682c3,-49 21,-106 52,-160 31,-54 71,-97 112,-125l175 -100c41,-20 81,-24 113,-5 31,18 49,54 52,100l0 682zm-340 -677l0 0 0 0z"/>
   <path class="fil4" d="M7643 1126l-503 291c-3,1 -6,0 -7,-2 -1,-1 -1,-2 -1,-3l0 0 0 -682 0 -1c2,-25 7,-52 16,-80 9,-27 21,-55 36,-82l1 0c15,-27 33,-51 52,-72 19,-22 40,-40 62,-54l0 0 174 -101 0 0 0 0c22,-11 43,-17 64,-18 19,0 38,4 54,13 17,9 29,24 38,41 10,18 15,40 17,64l0 0 0 0 0 682c0,2 -1,3 -3,4zm-501 277l494 -284 0 -679c-2,-22 -7,-43 -16,-59 -8,-16 -19,-29 -34,-37 -15,-8 -31,-12 -49,-11 -19,1 -39,6 -59,16l-174 101c-20,13 -41,31 -60,52 -18,21 -35,44 -50,70l-1 1c-15,26 -27,53 -35,79 -9,27 -14,53 -16,78l0 0 0 673z"/>
   <polygon class="fil1" points="6943,1075 6943,1300 7137,1412 7137,1188 "/>
   <polygon class="fil1" points="7641,897 7641,1122 7137,1412 7137,1188 "/>
   <polygon class="fil2" points="719,3678 719,3053 1260,3157 "/>
   <path class="fil4" d="M714 3678l0 -1 0 -624c0,-3 2,-5 5,-5 0,0 1,0 1,0l0 0 541 104c3,1 5,3 4,6 0,2 -1,3 -2,3l-540 520c-2,3 -6,2 -8,0 -1,-1 -1,-2 -1,-3zm11 -618l0 605 523 -504 -523 -101z"/>
   <polygon class="fil2" points="178,3990 719,3365 178,3365 "/>
   <path class="fil4" d="M184 3975l523 -604 -523 0 0 604zm539 -606l-540 624 0 0 0 0c-1,1 -3,2 -5,2 -3,0 -5,-2 -5,-5l0 -624 0 -1c0,-3 2,-5 5,-5l541 0 0 0c1,0 3,0 4,1 2,2 2,6 0,8z"/>
   <polygon class="fil2" points="178,3365 178,3990 88,3938 88,3313 629,3313 629,3001 1170,3105 1260,3157 719,3053 719,3365 "/>
   <g>
    <path class="fil4" d="M184 3371l0 619c0,3 -2,5 -6,5 -1,0 -2,0 -2,-1l-90 -52c-2,-1 -3,-3 -3,-4l0 0 0 -625c0,-3 2,-5 5,-5l1 0 534 0 0 -307c0,-3 3,-5 6,-5 0,0 1,0 1,0l541 104c0,0 1,0 1,1l90 52c3,1 4,4 2,7 -1,2 -3,3 -5,3l-534 -103 0 305c0,3 -3,6 -6,6l0 0 -535 0zm-11 609l0 -614 0 -1c0,-3 2,-5 5,-5l536 0 0 -307 0 0c0,0 0,0 0,-1 0,-3 3,-5 6,-4l509 98 -61 -35 -534 -103 0 305 0 0c0,3 -2,6 -5,6l-535 0 0 615 79 46zm999 -879l0 0 0 0z"/>
   </g>
   <polygon class="fil2" points="719,3365 719,3678 629,3626 633,3464 "/>
   <path class="fil4" d="M725 3365l0 313c0,3 -3,5 -6,5 -1,0 -2,0 -3,-1l-90 -52c-2,-1 -3,-3 -3,-5l0 0 5 -161c0,-1 0,-2 1,-3l0 0 86 -99c2,-2 5,-3 8,-1 1,1 2,3 2,4l0 0zm-11 303l0 -288 -75 87 -4 155 79 46z"/>
   <line class="fil5" x1="629" y1="3313" x2="719" y2= "3365" />
   <path class="fil4" d="M626 3318c-2,-1 -3,-5 -2,-7 2,-3 5,-4 8,-2l90 52c2,1 3,5 2,7 -2,3 -5,4 -8,2l-90 -52z"/>
   <line class="fil5" x1="88" y1="3313" x2="178" y2= "3365" />
   <path class="fil4" d="M86 3318c-3,-1 -4,-5 -2,-7 1,-3 5,-4 7,-2l90 52c3,1 4,5 2,7 -1,3 -5,4 -7,2l-90 -52z"/>
   <line class="fil5" x1="629" y1="3001" x2="719" y2= "3053" />
   <path class="fil4" d="M626 3006c-2,-1 -3,-5 -2,-7 2,-3 5,-4 8,-2l90 52c2,1 3,4 2,7 -2,3 -5,4 -8,2l-90 -52z"/>
   <path class="fil2" d="M3438 14l-481 278c-18,12 -36,31 -49,55 -14,24 -22,48 -23,70l0 246c1,20 9,36 23,44 14,8 31,6 49,-2l17 -10 0 206 134 -284 330 -190c18,-12 36,-31 50,-55 14,-24 21,-49 23,-70l0 -227 0 -19c-2,-20 -9,-36 -23,-44 -14,-8 -32,-7 -50,2z"/>
   <g>
    <path class="fil4" d="M3442 22l-480 277c-9,6 -17,13 -25,22 -8,9 -16,19 -22,30 -6,11 -11,23 -15,34l0 0 0 0c-4,11 -6,22 -6,32l0 0 0 246c0,8 2,16 6,23 3,6 7,10 12,13l0 1c6,2 12,4 18,3 7,0 15,-2 23,-6l17 -10c4,-2 9,-1 12,4 1,1 1,2 1,4l0 0 0 168 117 -249c1,-2 3,-3 4,-4l330 -190c8,-6 17,-14 25,-22 8,-9 15,-19 21,-30 7,-11 12,-23 15,-34l0 0 0 0c4,-11 6,-22 7,-32l0 0 0 -227 0 -19c-1,-9 -3,-17 -6,-23 -3,-6 -7,-11 -13,-14l0 0c-5,-3 -11,-4 -18,-4 -7,1 -15,3 -23,7zm-489 262l481 -277 0 -1c11,-5 21,-8 31,-8 9,0 18,2 27,6l0 0c8,5 15,12 19,21 5,9 7,19 8,30 0,0 0,1 0,1l0 19 0 227 0 0 0 0c0,12 -3,25 -7,37l0 0c-4,13 -10,25 -17,37 -7,13 -15,24 -23,33 -9,10 -19,19 -29,25l0 0 -328 190 -133 280c-1,4 -4,6 -8,6 -5,0 -8,-4 -8,-9l0 -191 -4 2 -1 0c-10,5 -20,8 -30,9 -10,0 -19,-2 -27,-6l-1 -1c-8,-4 -14,-12 -19,-20 -4,-9 -7,-19 -8,-30 0,0 0,-1 0,-1l0 -246 0 0 0 -1c1,-11 3,-24 8,-37l0 0c4,-12 9,-24 16,-37 7,-12 15,-23 24,-32 9,-10 18,-19 28,-25l1 -1zm481 -277l0 0 0 0zm-482 278l0 0 0 0zm-40 415c4,2 6,7 3,11l-3 -11zm50 12l0 0 0 0zm521 -693c-4,-2 -5,-7 -3,-11l3 11z"/>
   </g>
   <path class="fil2" d="M3514 82l-481 278c-18,12 -36,31 -50,55 -14,24 -21,49 -23,70l0 246c2,20 9,36 23,44 14,8 32,7 50,-2l17 -10 0 206 134 -283 330 -191c18,-12 36,-31 49,-55 14,-24 22,-48 23,-70l0 -226 0 -20c-1,-20 -9,-36 -23,-44 -13,-8 -31,-6 -49,2z"/>
   <g>
    <path class="fil4" d="M3518 90l-481 277 0 0c-8,6 -17,13 -25,22 -8,9 -15,19 -21,30l0 0 0 0c-7,11 -12,23 -15,34l0 0 0 0c-4,11 -6,22 -7,32l0 0 0 246c1,9 3,17 6,23 3,6 7,10 13,14l0 0c5,3 11,4 18,4 7,-1 15,-3 23,-7l17 -9c4,-3 9,-1 11,3 1,1 2,3 2,4l0 0 0 168 117 -249c1,-2 2,-3 4,-4l329 -190c9,-6 17,-13 25,-22 8,-9 16,-19 22,-30l0 -1c7,-11 12,-22 15,-33l0 0 0 0c4,-11 6,-22 7,-32l0 0 0 -226 0 0 0 -19c-1,-9 -3,-17 -6,-24 -3,-6 -8,-10 -13,-13l0 -1c-6,-3 -12,-4 -18,-3 -7,0 -15,2 -23,6zm-490 263l481 -278 1 0c10,-5 20,-8 30,-9 10,0 19,2 27,6l1 1c8,4 14,11 19,20 4,9 7,19 8,31l0 0 0 0 0 20 0 0 0 226 0 0 0 0c-1,12 -3,25 -7,38l0 0c-4,12 -10,24 -17,36l0 1c-7,12 -15,23 -24,32 -9,10 -18,19 -28,25l-1 1 -327 189 -133 281c-1,3 -4,5 -8,5 -5,0 -9,-4 -9,-9l0 -191 -4 2 0 1c-11,5 -21,7 -31,8 -9,0 -18,-2 -26,-6l-1 0c-8,-5 -15,-12 -19,-21 -5,-9 -7,-19 -8,-30 0,0 0,-1 0,-1l0 -246 0 0 0 0c1,-12 3,-25 7,-37l0 0c4,-13 10,-25 17,-37l0 0c7,-13 15,-24 23,-33 9,-10 19,-19 29,-25l0 0 0 0zm481 -278l0 0 0 0zm-521 693c4,2 5,7 3,11l-3 -11zm49 12l0 0 0 0zm522 -693c-4,-2 -5,-7 -3,-11l3 11z"/>
   </g>
   <path class="fil2" d="M3589 150l-481 278c-18,12 -35,31 -49,55 -14,24 -22,49 -23,70l0 246c1,20 9,36 23,44 14,8 32,7 50,-2l16 -10 0 207 135 -284 330 -191c18,-12 35,-31 49,-55 14,-23 21,-48 23,-70l0 -226 0 -20c-2,-20 -9,-36 -23,-44 -14,-8 -32,-6 -50,2z"/>
   <g>
    <path class="fil4" d="M3593 158l-480 278c-9,5 -17,13 -25,22 -8,8 -15,18 -22,29l0 0 0 0c-6,12 -11,23 -15,34l0 0 0 0c-3,11 -6,22 -6,32l0 0 0 246c0,9 2,17 6,23 3,6 7,11 12,14l1 0c5,3 11,4 17,4 8,-1 15,-3 24,-7l16 -9c4,-3 10,-1 12,3 1,1 1,3 1,4l0 0 0 168 118 -249c1,-2 2,-3 4,-4l329 -190c8,-6 17,-13 25,-22 8,-9 15,-19 22,-30l0 0 0 0c6,-11 11,-23 15,-34l0 0 0 0c3,-11 5,-22 6,-32l0 0 0 -226 0 -20c0,-8 -2,-16 -6,-23 -3,-5 -7,-10 -12,-13l-1 0c-5,-3 -11,-5 -17,-4 -8,0 -16,2 -24,6zm-489 263l481 -278 1 0c10,-5 20,-8 30,-9 10,0 19,2 27,7l0 0c9,5 15,12 20,20 4,9 7,19 7,30 1,1 1,1 1,1l0 20 0 226 0 0 0 1c-1,11 -4,24 -8,37l0 0c-4,12 -9,25 -16,37l0 0c-8,12 -16,23 -24,33 -9,9 -19,18 -29,24l0 1 -328 189 -132 281c-2,3 -5,5 -9,5 -4,0 -8,-4 -8,-8l0 -192 -4 2 -1 1c-10,5 -20,8 -30,8 -10,0 -19,-1 -27,-6l0 0c-9,-5 -15,-12 -20,-21 -4,-8 -7,-19 -8,-30 0,0 0,-1 0,-1l0 -246 0 0 0 0c1,-12 4,-24 8,-37l0 0c4,-13 9,-25 16,-37l0 0c7,-13 16,-24 24,-33 9,-10 18,-18 28,-25l1 0zm481 -278l0 0 0 0zm-482 278l0 0 0 0zm-39 415c4,2 5,8 2,12l-2 -12zm49 12l0 0 0 0zm521 -692c-4,-3 -5,-8 -3,-12l3 12z"/>
   </g>
  </g>
 </g>
</svg>
