<?xml version="1.0" encoding="UTF-8"?>
<!DOCTYPE svg PUBLIC "-//W3C//DTD SVG 1.1//EN" "http://www.w3.org/Graphics/SVG/1.1/DTD/svg11.dtd">
<!-- Creator: CorelDRAW X7 -->
<svg xmlns="http://www.w3.org/2000/svg" xml:space="preserve" width="55.7952mm" height="67.7332mm" version="1.1" style="shape-rendering:geometricPrecision; text-rendering:geometricPrecision; image-rendering:optimizeQuality; fill-rule:evenodd; clip-rule:evenodd"
viewBox="0 0 5580 6773"
 xmlns:xlink="http://www.w3.org/1999/xlink">
 <defs>
  <style type="text/css">
   <![CDATA[
    .fil2 {fill:none}
    .fil3 {fill:#61003F}
    .fil0 {fill:#FFF4F0}
    .fil1 {fill:#61003F;fill-rule:nonzero}
    .fil4 {fill:#61003F;fill-rule:nonzero}
   ]]>
  </style>
 </defs>
 <g id="Layer_x0020_1">
  <metadata id="CorelCorpID_0Corel-Layer"/>
  <g id="_1891000290960">
   <g>
    <path class="fil0" d="M2210 3687c-96,56 -193,69 -267,27 -73,-43 -110,-133 -110,-245 0,-111 36,-243 110,-370 73,-128 170,-225 266,-281l0 0 753 -435 0 0c97,-56 193,-69 267,-26 74,42 111,132 111,244 0,111 -37,243 -110,370 -74,128 -170,226 -266,281l-1 1 0 0 -752 434 -1 0z"/>
    <path class="fil1" d="M2218 3703c-51,30 -102,48 -151,52 -48,5 -93,-3 -133,-26 -39,-23 -69,-58 -89,-102 -20,-44 -30,-98 -30,-158 0,-58 10,-122 29,-188 19,-63 47,-128 83,-191 37,-64 79,-120 125,-168 46,-49 96,-89 146,-118 1,-1 2,-2 3,-2l752 -434 0 -1c52,-29 103,-47 152,-52 48,-5 94,3 133,26l1 1c39,23 69,58 88,101 21,45 31,98 31,158 0,58 -10,122 -30,188 -18,63 -46,128 -83,191 -36,64 -79,121 -124,168 -47,50 -97,90 -147,119 -1,1 -2,1 -3,2l-751 433 0 0 -1 1c0,0 -1,0 -1,0zm-154 17c43,-5 90,-21 136,-48l1 0 1 -1 0 0 0 0 751 -433c0,0 1,-1 1,-1l1 0 0 0c47,-28 95,-66 140,-113 43,-46 84,-100 119,-161 36,-62 62,-124 80,-184 19,-63 28,-123 28,-178 0,-54 -9,-103 -27,-143 -17,-37 -42,-66 -74,-85l-1 -1c-33,-19 -71,-26 -111,-22 -44,5 -91,21 -138,48l0 1 -752 434c0,0 -1,0 -1,0 -48,28 -95,66 -140,113 -44,46 -84,100 -120,162 -35,61 -62,123 -80,183 -18,63 -27,124 -27,178 0,55 9,103 27,143 17,38 42,67 74,86 33,19 71,26 112,22z"/>
    <polygon class="fil0" points="1943,3099 3229,2357 3794,2683 2509,4040 1943,3714 "/>
    <line class="fil2" x1="1943" y1="3099" x2="2508" y2= "3425" />
    <path class="fil1" d="M1934 3114c-9,-5 -12,-16 -7,-24 5,-9 16,-12 25,-7l565 326c9,5 11,16 7,25 -5,9 -16,11 -25,6l-565 -326z"/>
    <line class="fil2" x1="1833" y1="3469" x2="2398" y2= "3796" />
    <path class="fil1" d="M1824 3485c-9,-5 -12,-16 -7,-25 5,-8 16,-11 25,-6l565 326c8,5 11,16 6,25 -5,8 -16,11 -24,6l-565 -326z"/>
    <line class="fil2" x1="1943" y1="3714" x2="2509" y2= "4040" />
    <path class="fil1" d="M1934 3729c-8,-5 -11,-16 -6,-24 5,-9 16,-12 24,-7l566 326c8,5 11,16 6,25 -5,8 -16,11 -24,6l-566 -326z"/>
    <line class="fil2" x1="3195" y1="2341" x2="3794" y2= "2683" />
    <path class="fil1" d="M3186 2357c-9,-5 -12,-16 -7,-25 5,-8 16,-11 24,-6l600 341c9,5 12,16 7,25 -5,8 -16,11 -25,6l-599 -341z"/>
    <path class="fil0" d="M2681 3959c-96,56 -193,69 -267,26 -73,-42 -110,-132 -110,-244 0,-111 36,-243 110,-370 73,-128 170,-226 266,-281l0 0 753 -435 0 0c97,-56 193,-69 267,-26 74,42 111,132 111,244 0,111 -37,243 -110,370 -74,128 -170,226 -266,281l-1 1 0 0 -752 434 -1 0z"/>
    <path class="fil1" d="M2689 3975c-51,30 -102,48 -151,52 -48,5 -93,-3 -133,-26 -39,-23 -69,-58 -89,-102 -20,-45 -30,-98 -30,-158 0,-58 10,-122 29,-188 19,-63 47,-128 83,-191 37,-64 79,-120 125,-168 46,-49 96,-89 146,-119 1,0 2,-1 3,-2l752 -433 0 0 0 -1 1 0c51,-30 103,-47 151,-52 48,-5 94,3 133,26 40,23 69,58 89,102 21,45 31,98 31,158 0,58 -10,122 -30,188 -18,63 -46,128 -83,191 -36,64 -79,120 -124,168 -47,50 -97,90 -147,119 -1,1 -2,1 -3,2l-751 433 0 0 -1 1c0,0 -1,0 -1,0zm-154 17c43,-5 90,-21 136,-48l1 0 1 -1 0 0 0 0 750 -433c1,0 2,-1 2,-1l1 0 0 0c47,-28 95,-66 140,-113 43,-46 84,-100 119,-162 36,-61 62,-123 80,-183 19,-63 28,-123 28,-178 0,-54 -9,-103 -27,-143 -17,-38 -42,-67 -75,-86 -33,-19 -71,-26 -111,-22 -44,5 -90,21 -137,48l-1 0 0 1 0 0 0 0 -752 434c-1,0 -1,0 -1,0 -48,28 -95,66 -140,113 -44,46 -84,100 -120,162 -35,61 -62,123 -80,183 -18,63 -27,123 -27,178 0,54 9,103 27,143 17,38 42,67 74,86 33,19 71,26 112,22z"/>
    <path class="fil3" d="M2775 4014c-96,55 -193,68 -266,26 -74,-43 -111,-133 -111,-244 0,-111 37,-244 110,-371 73,-127 170,-225 266,-281l0 0 753 -435 1 0c96,-55 193,-69 266,-26 74,43 111,133 111,244 0,111 -37,244 -110,371 -74,127 -170,225 -266,281l-1 0 0 0 -752 434 -1 1z"/>
    <path class="fil1" d="M2783 4030c-51,29 -102,47 -150,52 -49,4 -94,-4 -133,-27 -40,-22 -70,-58 -90,-102 -20,-44 -30,-98 -30,-157 0,-59 10,-123 29,-188 19,-63 47,-128 84,-192 36,-64 79,-120 124,-168 46,-49 96,-89 146,-118 1,-1 2,-2 4,-2l751 -434 0 0 1 0 1 -1c51,-29 102,-47 150,-52 48,-5 94,4 133,26l0 0 0 0c40,23 70,58 90,102 20,45 30,99 30,158 0,58 -10,122 -29,188 -19,63 -47,128 -84,192 -36,63 -79,120 -124,168 -47,49 -97,89 -147,118 -1,1 -2,2 -3,2l-751 433 0 0 -1 1c0,0 0,1 -1,1zm-154 16c43,-4 90,-21 136,-47l1 -1 1 0 0 0 0 0 751 -433c0,-1 1,-1 1,-2l1 0 0 0c48,-27 95,-66 140,-113 44,-46 84,-100 119,-161 36,-61 62,-124 80,-184 19,-63 28,-123 28,-178 0,-54 -9,-103 -27,-143 -17,-37 -42,-67 -75,-86l0 0c-32,-18 -70,-25 -111,-21 -44,4 -90,20 -137,47l0 1 -1 0 0 0 0 0 -752 434c0,0 -1,1 -1,1 -48,27 -95,65 -140,113 -44,46 -84,100 -119,161 -36,61 -62,123 -80,184 -19,62 -28,123 -28,178 0,54 9,103 27,143 17,37 42,66 74,85 33,19 71,26 112,22z"/>
    <line class="fil2" x1="1864" y1="3277" x2="2335" y2= "3549" />
    <path class="fil1" d="M1855 3293c-8,-5 -11,-16 -6,-25 5,-8 15,-11 24,-6l471 272c9,5 12,15 7,24 -5,9 -16,12 -25,7l-471 -272z"/>
    <line class="fil2" x1="2058" y1="2941" x2="2529" y2= "3213" />
    <path class="fil1" d="M2049 2957c-8,-5 -11,-16 -6,-25 5,-8 15,-11 24,-6l471 272c9,5 12,16 7,24 -5,9 -16,12 -25,7l-471 -272z"/>
    <line class="fil2" x1="2209" y1="2818" x2="2680" y2= "3090" />
    <path class="fil1" d="M2200 2833c-9,-5 -12,-15 -7,-24 5,-9 16,-12 25,-7l471 272c8,5 11,16 6,25 -5,8 -16,11 -24,6l-471 -272z"/>
    <line class="fil2" x1="2585" y1="2601" x2="3056" y2= "2872" />
    <path class="fil1" d="M2576 2616c-8,-5 -11,-16 -6,-24 5,-9 16,-12 24,-7l471 272c9,5 12,16 7,24 -5,9 -16,12 -25,7l-471 -272z"/>
    <line class="fil2" x1="3105" y1="2333" x2="3578" y2= "2605" />
    <path class="fil1" d="M3096 2348c-8,-5 -11,-16 -7,-24 5,-9 16,-12 25,-7l473 272c8,5 11,16 6,24 -5,9 -16,12 -24,7l-473 -272z"/>
    <line class="fil2" x1="3000" y1="2363" x2="3473" y2= "2635" />
    <path class="fil1" d="M2991 2378c-9,-5 -12,-16 -7,-24 5,-9 16,-12 25,-7l472 272c9,5 12,16 7,24 -5,9 -16,12 -24,7l-473 -272z"/>
    <line class="fil2" x1="2893" y1="2414" x2="3366" y2= "2686" />
    <path class="fil1" d="M2885 2430c-9,-5 -12,-16 -7,-25 5,-8 16,-11 24,-6l473 272c9,4 12,15 7,24 -5,8 -16,11 -25,7l-472 -272z"/>
    <line class="fil2" x1="2771" y1="2474" x2="3244" y2= "2746" />
    <path class="fil1" d="M2762 2489c-9,-5 -12,-16 -7,-24 5,-9 16,-12 25,-7l473 272c8,5 11,16 6,24 -5,9 -16,12 -24,7l-473 -272z"/>
    <line class="fil2" x1="2689" y1="2540" x2="3161" y2= "2812" />
    <path class="fil1" d="M2680 2556c-9,-5 -12,-16 -7,-25 5,-8 16,-11 25,-6l472 271c9,5 12,16 7,25 -5,8 -16,11 -25,6l-472 -271z"/>
    <line class="fil2" x1="2465" y1="2668" x2="2931" y2= "2936" />
    <path class="fil1" d="M2456 2683c-9,-5 -12,-16 -7,-24 5,-9 16,-12 24,-7l467 268c9,5 12,16 7,25 -5,8 -16,11 -25,6l-466 -268z"/>
    <line class="fil2" x1="2335" y1="2744" x2="2808" y2= "3016" />
    <path class="fil1" d="M2326 2760c-9,-5 -12,-16 -7,-25 5,-8 16,-11 25,-6l472 272c9,4 12,15 7,24 -5,8 -16,11 -24,7l-473 -272z"/>
    <polygon class="fil0" points="3814,4260 2730,3634 3814,3008 4899,3634 "/>
    <g>
     <path class="fil1" d="M3805 4275l-1084 -626c-9,-5 -12,-16 -7,-24 2,-3 4,-5 7,-7l1084 -626c6,-3 13,-3 18,0l1084 626c9,5 12,16 7,25 -2,2 -4,5 -7,6l-1084 626c-6,4 -13,3 -18,0zm-1040 -641l1049 605 1049 -605 -1049 -606 -1049 606zm-44 -16c5,-3 12,-3 18,0l-18 0zm0 0l0 0 0 0zm2186 31c-5,3 -12,3 -17,0l17 0zm0 0l0 0 0 0z"/>
    </g>
    <polygon class="fil0" points="3814,3947 2730,3321 3814,2694 4899,3321 "/>
    <g>
     <path class="fil1" d="M3805 3962l-1084 -626c-9,-5 -12,-16 -7,-24 2,-3 4,-5 7,-7l1084 -626c6,-3 13,-3 18,0l1084 626c9,5 12,16 7,24 -2,3 -4,6 -7,7l-1084 626c-6,3 -13,3 -18,0zm-1040 -641l1049 605 1049 -605 -1049 -606 -1049 606zm-44 -16c5,-3 12,-3 18,0l-18 0zm0 0l0 0 0 0zm2186 31c-5,3 -12,3 -17,0l17 0zm0 0l0 0 0 0z"/>
    </g>
    <polygon class="fil0" points="3814,3947 2730,3321 2730,3634 3814,4260 "/>
    <g>
     <path class="fil1" d="M3796 3957l-1048 -605 0 271 1048 606 0 -272zm-1057 -652l1083 626c6,2 10,9 10,16l0 313 0 0c0,3 -1,6 -2,9 -5,8 -16,11 -25,6l-1084 -626 18 -344zm-27 17c0,-4 0,-7 2,-10 5,-9 16,-12 25,-7l-27 17zm0 312l0 -312 0 312z"/>
    </g>
    <polygon class="fil0" points="3814,4260 3814,3947 4899,3321 4899,3634 "/>
    <path class="fil1" d="M3796 4260l0 -313c0,-8 5,-14 11,-17l1083 -625c8,-5 19,-2 24,7 2,2 2,6 2,9l1 0 0 313c0,7 -5,13 -11,16l-1083 625c-8,5 -19,2 -24,-6 -2,-3 -3,-6 -3,-9l0 0zm36 -303l0 272 1049 -606 0 -271 -1049 605z"/>
    <polygon class="fil0" points="3814,3768 3080,3344 3814,2921 4548,3344 "/>
    <g>
     <path class="fil1" d="M3804 3783l-732 -423c-9,-5 -12,-16 -7,-24 2,-3 4,-6 7,-7l733 -424c6,-3 13,-3 18,1l734 423c8,5 11,16 6,24 -1,3 -4,5 -6,7l0 0 -734 424c-6,3 -13,3 -19,-1zm-688 -439l698 403 698 -403 -698 -402 -698 402zm-44 -15c5,-3 12,-3 17,0l-17 0zm0 0l0 0 0 0z"/>
    </g>
    <polygon class="fil0" points="3814,3556 3080,3133 3814,2709 4548,3133 "/>
    <g>
     <path class="fil1" d="M3805 3572l-733 -424c-9,-5 -12,-16 -7,-24 2,-3 4,-5 7,-7l733 -423c6,-4 13,-3 18,0l0 0 734 423c8,5 11,16 6,25 -2,3 -4,5 -7,7l-733 423c-6,3 -13,3 -18,0zm-689 -439l698 403 698 -403 -698 -403 -698 403zm-44 -16c5,-3 12,-3 17,0l-17 0zm0 0l0 0 0 0z"/>
    </g>
    <polygon class="fil0" points="3814,3556 3080,3133 3080,3344 3814,3768 "/>
    <path class="fil1" d="M3796 3567l-698 -403 0 170 698 403 0 -170zm-707 -450l733 423c6,3 10,9 10,16l0 212 0 0c0,3 -1,6 -2,9 -5,9 -16,11 -25,7l-733 -424c-6,-3 -9,-9 -9,-16l0 -210c-1,-4 0,-7 2,-10 5,-9 16,-12 24,-7z"/>
    <polygon class="fil0" points="3814,3768 3814,3556 4548,3133 4548,3344 "/>
    <path class="fil1" d="M3796 3768l0 -212c0,-7 4,-13 11,-16l732 -423c8,-5 19,-2 24,7 2,3 3,6 3,9l0 0 0 211c0,8 -4,14 -10,17l-733 423c-8,5 -19,2 -24,-7 -2,-3 -3,-6 -3,-9l0 0zm36 -201l0 170 698 -403 0 -170 -698 403z"/>
    <g>
     <path class="fil0" d="M2354 33l0 0 0 0zm-326 577l53 31 -53 -31zm0 0c-46,-26 -69,-82 -69,-152 0,-69 23,-151 69,-231 45,-79 105,-140 165,-174 58,-34 116,-43 161,-20 20,11 44,26 64,37 -66,-29 -106,-24 -171,13 -60,35 -120,96 -166,175 -46,79 -69,162 -69,231 0,70 16,110 69,152 -18,-10 -35,-20 -53,-31z"/>
    </g>
    <path class="fil1" d="M2068 654l-31 -18 -1 0 -17 -10c0,0 -1,-1 -1,-1 -26,-15 -45,-38 -57,-66 -13,-28 -20,-63 -20,-101 0,-37 6,-77 19,-119 11,-39 29,-80 52,-121 23,-40 50,-75 78,-105 30,-32 62,-57 94,-76 32,-18 63,-30 93,-33 31,-4 59,0 85,13 14,7 30,17 45,26 7,4 15,9 20,12 9,5 12,16 7,24 -5,8 -15,11 -23,8l0 0c-30,-13 -54,-19 -77,-17 -24,2 -48,11 -79,29 -29,17 -58,40 -85,69 -27,28 -52,62 -74,99 -21,38 -38,76 -49,113 -11,39 -17,76 -17,109 0,32 4,58 13,79 9,22 25,40 49,59 8,6 9,17 3,25 -5,8 -16,9 -24,4l-3 -2zm-75 -110c3,7 6,13 10,18 -6,-21 -9,-45 -9,-73 0,-37 7,-77 19,-119 12,-40 29,-81 52,-121 24,-40 50,-76 79,-106 30,-31 62,-57 94,-75 24,-14 45,-24 66,-29 -7,-1 -15,0 -22,0 -26,4 -53,13 -80,29 -29,17 -58,40 -86,69 -26,28 -51,62 -73,99 -22,38 -38,76 -49,113 -11,39 -17,76 -17,109 0,33 5,62 16,86z"/>
    <path class="fil0" d="M2247 625c-60,34 -120,43 -166,16 -46,-26 -69,-83 -69,-152 0,-69 23,-152 69,-231 46,-79 106,-140 166,-175 60,-34 120,-43 166,-16 46,26 69,83 69,152 0,69 -23,152 -69,231 -46,79 -106,140 -166,175z"/>
    <path class="fil1" d="M2256 640c-33,19 -66,31 -97,34 -31,3 -61,-2 -87,-17l0 0 0 0c-26,-15 -45,-38 -58,-67 -13,-29 -20,-63 -20,-101 0,-37 7,-77 19,-119 12,-40 29,-81 52,-121 24,-40 50,-76 79,-106 30,-31 62,-57 94,-75 32,-19 65,-31 97,-34 31,-3 61,3 87,17 26,15 45,38 58,67 13,29 19,63 19,101 0,37 -6,77 -18,119 -12,40 -29,81 -52,121 -24,40 -50,76 -79,106 -30,31 -62,57 -94,75zm-100 -2c26,-2 54,-12 82,-29 29,-16 59,-40 86,-69 27,-28 52,-61 74,-99 21,-38 38,-76 49,-113 11,-38 17,-75 17,-109 0,-33 -6,-62 -17,-86 -10,-22 -24,-40 -43,-51 -19,-11 -42,-15 -66,-12 -26,2 -54,12 -83,29 -29,17 -58,40 -85,69 -27,28 -52,62 -74,99 -21,38 -38,76 -49,113 -11,39 -17,76 -17,109 0,33 6,62 17,86 9,22 24,40 43,51l0 0c19,11 42,15 66,12z"/>
    <line class="fil2" x1="1992" y1="578" x2="2049" y2= "611" />
    <path class="fil1" d="M1983 594c-8,-5 -11,-16 -6,-25 5,-8 16,-11 24,-6l57 33c9,4 11,15 7,24 -5,9 -16,11 -25,6l-57 -32z"/>
    <line class="fil2" x1="1962" y1="499" x2="2015" y2= "530" />
    <path class="fil1" d="M1953 515c-9,-5 -12,-16 -7,-25 5,-8 16,-11 25,-6l53 30c9,5 12,16 7,25 -5,8 -16,11 -25,6l-53 -30z"/>
    <line class="fil2" x1="1960" y1="436" x2="2013" y2= "467" />
    <path class="fil1" d="M1951 452c-9,-5 -12,-16 -7,-25 5,-8 16,-11 25,-6l53 31c8,5 11,15 7,24 -5,9 -16,12 -25,7l-53 -31z"/>
    <line class="fil2" x1="1968" y1="379" x2="2021" y2= "410" />
    <path class="fil1" d="M1959 395c-9,-5 -12,-16 -7,-24 5,-9 16,-12 25,-7l53 31c9,5 11,16 7,24 -5,9 -16,12 -25,7l-53 -31z"/>
    <line class="fil2" x1="1982" y1="326" x2="2036" y2= "357" />
    <path class="fil1" d="M1974 342c-9,-5 -12,-16 -7,-25 5,-8 16,-11 24,-6l54 31c8,5 11,15 6,24 -5,9 -16,12 -24,7l-53 -31z"/>
    <line class="fil2" x1="2002" y1="276" x2="2056" y2= "307" />
    <path class="fil1" d="M1993 292c-8,-5 -11,-16 -6,-25 5,-8 16,-11 24,-6l54 31c8,4 11,15 6,24 -5,9 -16,11 -24,7l-54 -31z"/>
    <line class="fil2" x1="2027" y1="229" x2="2080" y2= "260" />
    <path class="fil1" d="M2018 244c-9,-5 -12,-16 -7,-24 5,-9 16,-12 25,-7l53 31c9,5 11,16 7,25 -5,8 -16,11 -25,6l-53 -31z"/>
    <line class="fil2" x1="2055" y1="184" x2="2109" y2= "215" />
    <path class="fil1" d="M2046 199c-8,-5 -11,-16 -6,-24 5,-9 16,-12 24,-7l54 31c8,5 11,16 6,24 -5,9 -16,12 -24,7l-54 -31z"/>
    <line class="fil2" x1="2089" y1="141" x2="2141" y2= "172" />
    <path class="fil1" d="M2080 157c-9,-5 -12,-16 -7,-25 5,-8 16,-11 24,-6l53 30c8,5 11,16 6,25 -5,8 -15,11 -24,6l-52 -30z"/>
    <line class="fil2" x1="2127" y1="102" x2="2180" y2= "133" />
    <path class="fil1" d="M2118 117c-9,-5 -12,-15 -7,-24 5,-9 16,-12 25,-7l53 31c9,5 12,16 7,25 -5,8 -16,11 -25,6l-53 -31z"/>
    <line class="fil2" x1="2172" y1="66" x2="2225" y2= "97" />
    <path class="fil1" d="M2163 82c-9,-5 -12,-16 -7,-25 5,-8 16,-11 24,-6l54 30c8,5 11,16 6,25 -5,8 -15,11 -24,6l-53 -30z"/>
    <line class="fil2" x1="2226" y1="36" x2="2279" y2= "67" />
    <path class="fil1" d="M2217 52c-8,-5 -11,-16 -6,-25 5,-8 16,-11 24,-6l53 30c8,5 11,16 6,25 -5,8 -16,11 -24,6l-53 -30z"/>
    <line class="fil2" x1="2306" y1="21" x2="2359" y2= "52" />
    <path class="fil1" d="M2297 36c-8,-5 -11,-16 -6,-24 5,-9 16,-12 24,-7l53 31c9,5 12,16 7,24 -5,9 -16,12 -25,7l-53 -31z"/>
    <path class="fil0" d="M3865 4643c-97,55 -193,68 -267,26 -74,-43 -110,-133 -111,-244 0,-111 37,-244 111,-371 73,-127 169,-225 266,-281l0 0 753 -434 0 -1c97,-55 193,-69 267,-26 74,43 111,133 111,244 0,111 -37,244 -111,371 -73,127 -169,225 -266,281l0 0 0 0 -752 434 -1 1z"/>
    <path class="fil1" d="M3873 4659c-51,29 -102,47 -151,52 -48,4 -93,-4 -133,-27 -39,-22 -69,-58 -89,-102 -20,-44 -30,-98 -30,-157 0,-59 9,-123 29,-188 19,-63 46,-128 83,-192 37,-64 79,-120 124,-168 47,-49 97,-89 147,-118 1,-1 2,-2 3,-2l752 -434 0 0 0 0 1 -1c51,-29 103,-47 151,-52 48,-5 93,4 133,26l0 1 0 -1c39,23 69,58 89,103 20,44 30,98 30,157 0,59 -9,122 -29,188 -19,63 -46,128 -83,192l0 0 0 0c-37,63 -79,120 -124,168 -47,49 -97,89 -147,118 -1,1 -3,2 -4,2l-750 433 0 0 -1 1c0,0 -1,1 -1,1zm-154 16c43,-4 89,-21 136,-47l1 -1 1 0 0 0 0 0 751 -434c0,0 0,0 1,-1l1 0c47,-27 95,-66 140,-113 43,-46 84,-100 119,-161l0 0c35,-61 62,-123 80,-184 18,-63 28,-123 28,-178 0,-54 -9,-103 -28,-143 -16,-37 -41,-67 -74,-86l0 0c-33,-18 -71,-25 -112,-21 -43,4 -89,20 -136,47l-1 1 0 0 0 0 0 0 -752 434c-1,0 -1,1 -2,1 -47,27 -95,65 -140,113 -43,46 -84,100 -119,161 -35,61 -62,123 -80,184 -18,62 -28,123 -28,178 0,54 9,103 28,143 16,37 41,67 74,85 33,19 71,26 112,22z"/>
    <polygon class="fil0" points="3598,4054 4884,3312 5449,3638 4163,4995 3598,4669 "/>
    <line class="fil2" x1="3598" y1="4054" x2="4163" y2= "4380" />
    <path class="fil1" d="M3589 4070c-9,-5 -12,-16 -7,-25 5,-8 16,-11 25,-6l565 326c8,5 11,16 6,24 -5,9 -16,12 -24,7l-565 -326z"/>
    <line class="fil2" x1="3487" y1="4425" x2="4053" y2= "4751" />
    <path class="fil1" d="M3478 4440c-8,-5 -11,-16 -6,-24 5,-9 16,-12 24,-7l566 327c8,5 11,16 6,24 -5,9 -16,12 -24,7l-566 -327z"/>
    <line class="fil2" x1="3598" y1="4669" x2="4163" y2= "4995" />
    <path class="fil1" d="M3589 4684c-8,-5 -11,-16 -6,-24 5,-9 16,-12 24,-7l565 327c9,5 12,16 7,24 -5,9 -16,12 -25,7l-565 -327z"/>
    <line class="fil2" x1="4849" y1="3297" x2="5449" y2= "3638" />
    <path class="fil1" d="M4841 3312c-9,-5 -12,-16 -7,-24 5,-9 16,-12 24,-7l600 342c9,5 12,16 7,24 -5,9 -16,12 -25,7l-599 -342z"/>
    <path class="fil0" d="M4336 4915c-97,55 -193,68 -267,26 -74,-43 -111,-133 -111,-244 0,-111 37,-244 111,-371 73,-127 169,-225 266,-281l0 0 753 -435 0 0c97,-55 193,-69 267,-26 74,42 111,133 111,244 0,111 -37,244 -111,371 -73,127 -169,225 -266,281l0 0 0 0 -752 434 -1 1z"/>
    <path class="fil1" d="M4344 4931c-51,29 -102,47 -151,52 -48,4 -93,-4 -133,-27 -39,-23 -69,-58 -89,-102 -20,-44 -30,-98 -30,-157 0,-59 9,-123 29,-188 19,-63 46,-128 83,-192 37,-64 79,-120 124,-168 47,-49 97,-89 147,-118 1,-1 2,-2 3,-2l752 -434 0 0c52,-30 103,-48 152,-53 48,-5 93,4 133,26l0 0 0 0c39,23 69,58 89,102 20,45 30,99 30,158 0,58 -9,122 -29,188 -19,63 -46,128 -83,192l0 0 0 0c-37,63 -79,120 -124,168 -47,49 -97,89 -147,118 -1,1 -3,2 -4,2l-750 433 0 0 -1 1c0,0 -1,0 -1,1zm-154 16c43,-4 89,-21 136,-47l1 -1 1 0 0 0 0 -1 751 -433c0,0 0,0 1,-1l1 0c47,-27 95,-66 140,-113 43,-46 84,-100 119,-161l0 0c35,-61 62,-124 80,-184 18,-63 28,-123 28,-178 0,-54 -9,-103 -28,-143 -16,-37 -41,-67 -74,-86l0 0c-33,-19 -71,-25 -112,-21 -43,4 -90,21 -137,48l0 0 -752 434c-1,0 -1,1 -2,1 -47,27 -95,65 -140,113 -43,46 -84,100 -119,161 -35,61 -62,123 -80,184 -18,62 -28,123 -28,178 0,54 9,103 28,143 16,37 41,66 74,85 33,19 71,26 112,22z"/>
    <path class="fil0" d="M4430 4969c-96,56 -193,69 -267,26 -73,-42 -110,-133 -110,-244 0,-111 36,-243 110,-371 73,-127 169,-225 266,-280l0 0 753 -435 0 0c97,-56 193,-69 267,-27 74,43 111,133 111,244 0,112 -37,244 -110,371 -74,127 -170,225 -266,281l-1 0 0 0 -752 434 -1 1z"/>
    <path class="fil1" d="M4438 4985c-51,29 -102,47 -151,52 -48,5 -93,-3 -133,-26l0 0 0 0c-39,-23 -69,-58 -89,-102 -20,-45 -30,-99 -30,-158 0,-58 10,-122 29,-188 19,-63 47,-128 83,-192 37,-63 79,-120 125,-168 46,-49 96,-89 146,-118 1,-1 2,-1 3,-2l752 -434 0 0c52,-30 103,-48 152,-52 48,-5 93,3 133,26 40,23 69,58 89,102 21,44 31,98 31,157 0,59 -10,123 -30,188 -18,64 -46,129 -83,192l0 1c-37,63 -79,120 -124,167 -47,49 -97,90 -147,119 -1,0 -2,1 -4,2l-750 433 0 0 -1 0c0,1 -1,1 -1,1zm-154 16c43,-4 89,-20 136,-47 0,0 1,0 1,-1l1 0 0 0 0 0 751 -433c0,-1 1,-1 1,-1l1 -1c47,-27 95,-65 140,-113 43,-45 83,-99 119,-160l0 -1c35,-61 62,-123 80,-184 19,-62 28,-123 28,-178 0,-54 -9,-102 -27,-142 -17,-38 -42,-67 -75,-86 -33,-19 -71,-26 -111,-22 -44,4 -91,21 -138,48l0 0 -752 434c-1,1 -1,1 -1,1 -48,28 -96,66 -140,113 -44,46 -84,100 -120,161 -35,61 -62,124 -80,184 -18,63 -27,123 -27,178 0,54 9,103 27,143 17,37 42,67 74,86l0 0c33,19 71,25 112,21z"/>
    <line class="fil2" x1="3519" y1="4233" x2="3990" y2= "4504" />
    <path class="fil1" d="M3510 4248c-9,-5 -12,-16 -7,-24 5,-9 16,-12 25,-7l471 272c8,5 11,16 6,24 -5,9 -16,12 -24,7l-471 -272z"/>
    <line class="fil2" x1="3713" y1="3897" x2="4184" y2= "4169" />
    <path class="fil1" d="M3704 3912c-9,-5 -12,-16 -7,-24 5,-9 16,-12 25,-7l471 272c8,5 11,16 6,25 -5,8 -16,11 -24,6l-471 -272z"/>
    <line class="fil2" x1="3864" y1="3773" x2="4335" y2= "4045" />
    <path class="fil1" d="M3855 3789c-9,-5 -12,-16 -7,-25 5,-8 16,-11 24,-6l471 272c9,5 12,16 7,24 -5,9 -16,12 -24,7l-471 -272z"/>
    <line class="fil2" x1="4240" y1="3556" x2="4711" y2= "3828" />
    <path class="fil1" d="M4231 3571c-8,-5 -11,-15 -6,-24 4,-9 15,-11 24,-7l471 272c9,5 11,16 7,25 -5,8 -16,11 -25,6l-471 -272z"/>
    <line class="fil2" x1="4760" y1="3288" x2="5233" y2= "3560" />
    <path class="fil1" d="M4751 3304c-9,-5 -12,-16 -7,-25 5,-8 16,-11 25,-6l472 271c9,5 12,16 7,25 -5,8 -16,11 -24,6l-473 -271z"/>
    <line class="fil2" x1="4655" y1="3318" x2="5127" y2= "3590" />
    <path class="fil1" d="M4646 3334c-9,-5 -12,-16 -7,-25 5,-8 16,-11 24,-6l473 271c9,5 12,16 7,25 -5,8 -16,11 -25,6l-472 -271z"/>
    <line class="fil2" x1="4548" y1="3370" x2="5021" y2= "3641" />
    <path class="fil1" d="M4539 3385c-8,-5 -11,-16 -6,-24 5,-9 16,-12 24,-7l473 272c8,5 11,16 7,24 -5,9 -16,12 -25,7l-473 -272z"/>
    <line class="fil2" x1="4426" y1="3429" x2="4898" y2= "3701" />
    <path class="fil1" d="M4417 3445c-9,-5 -12,-16 -7,-25 5,-8 16,-11 25,-6l472 271c9,5 12,16 7,25 -5,8 -16,11 -24,6l-473 -271z"/>
    <line class="fil2" x1="4343" y1="3495" x2="4816" y2= "3767" />
    <path class="fil1" d="M4334 3511c-8,-5 -11,-16 -6,-24 5,-9 16,-12 24,-7l473 272c9,5 12,16 7,24 -5,9 -16,12 -25,7l-473 -272z"/>
    <line class="fil2" x1="4119" y1="3623" x2="4586" y2= "3891" />
    <path class="fil1" d="M4110 3638c-8,-4 -11,-15 -6,-24 5,-8 16,-11 24,-7l467 269c8,5 11,16 7,24 -5,9 -16,12 -25,7l-467 -269z"/>
    <line class="fil2" x1="3990" y1="3700" x2="4462" y2= "3971" />
    <path class="fil1" d="M3981 3715c-9,-5 -12,-16 -7,-24 5,-9 16,-12 24,-7l473 272c9,5 12,16 7,24 -5,9 -16,12 -25,7l-472 -272z"/>
    <g>
     <path class="fil0" d="M3830 1943l0 0 0 0zm-343 608l57 32 -57 -32zm0 0c-48,-28 -72,-87 -72,-160 0,-73 24,-160 72,-243 48,-84 111,-148 174,-184 61,-35 122,-45 169,-21 22,11 47,27 68,39 -69,-30 -112,-26 -180,14 -64,36 -127,101 -175,184 -48,83 -72,170 -72,243 0,74 16,116 73,160 -19,-11 -38,-21 -57,-32z"/>
    </g>
    <path class="fil1" d="M3838 1927c0,0 1,0 1,1l0 0c16,7 31,17 47,26 8,5 15,10 21,13 9,5 12,16 7,24 -5,8 -15,11 -23,8l0 0c-32,-14 -57,-20 -82,-18 -25,2 -51,12 -83,31 -30,17 -61,42 -90,73 -28,29 -54,64 -77,104l-1 1c-23,39 -40,79 -51,118 -12,41 -18,80 -18,115 0,34 3,61 13,84 10,23 27,42 53,62 7,6 9,17 3,25 -6,8 -17,9 -24,4l-48 -28 -8 -4c0,0 0,0 -1,0 -26,-16 -46,-40 -60,-69 -13,-30 -20,-66 -20,-106 0,-39 6,-82 19,-125 13,-42 31,-85 56,-127l0 0 0 0c24,-42 52,-80 82,-112 31,-33 65,-59 99,-79 33,-19 66,-31 97,-35 31,-3 61,1 88,14zm-388 555c4,8 8,16 14,24 -8,-24 -11,-51 -11,-83 0,-39 7,-81 19,-125 13,-41 31,-84 55,-126l1 -1c24,-42 52,-79 82,-111 31,-33 65,-60 99,-79 28,-17 52,-27 75,-33 -9,-1 -19,0 -30,1 -26,3 -55,14 -84,30 -30,18 -61,43 -90,73 -28,30 -55,65 -77,105l-1 0c-22,39 -40,80 -51,119 -12,40 -18,79 -18,115 0,34 5,65 17,91z"/>
    <path class="fil0" d="M3718 2566c-63,37 -126,45 -174,17 -49,-28 -73,-87 -73,-160 0,-73 24,-160 72,-243 48,-83 111,-148 175,-184 63,-36 126,-45 174,-17 49,28 73,87 73,160 0,73 -24,160 -72,243 -48,83 -111,148 -175,184z"/>
    <path class="fil1" d="M3727 2582c-34,19 -69,32 -102,35 -32,3 -63,-3 -90,-18l0 0 0 0c-28,-16 -48,-40 -62,-70 -13,-30 -20,-66 -20,-106 0,-39 7,-81 19,-125 13,-42 31,-85 56,-127l0 0 0 0c24,-42 52,-79 82,-111 31,-33 65,-60 99,-79 34,-20 69,-33 102,-36 32,-3 63,3 90,18 28,16 48,40 61,70 14,30 21,66 21,106 0,39 -7,81 -20,125 -12,42 -30,85 -55,127l0 0 0 0c-24,42 -52,79 -82,111 -31,33 -65,60 -99,80zm-105 -1c28,-3 57,-13 88,-30 30,-18 61,-43 90,-74 28,-29 54,-64 77,-104l0 0c23,-40 40,-80 52,-119 12,-41 18,-80 18,-115 0,-35 -6,-66 -17,-91 -11,-24 -26,-42 -46,-54 -21,-11 -44,-16 -70,-13 -28,3 -58,13 -88,31 -30,17 -61,42 -90,73 -28,29 -54,64 -77,104l0 0c-23,40 -41,80 -52,119 -12,41 -18,80 -18,115 0,35 6,66 17,91 11,24 26,42 46,54l0 0c21,11 44,16 70,13z"/>
    <line class="fil2" x1="3450" y1="2517" x2="3510" y2= "2552" />
    <path class="fil1" d="M3441 2533c-9,-5 -12,-16 -7,-25 5,-8 16,-11 25,-6l60 34c8,5 11,16 6,24 -5,9 -16,12 -24,7l-60 -34z"/>
    <line class="fil2" x1="3418" y1="2434" x2="3474" y2= "2466" />
    <path class="fil1" d="M3409 2449c-9,-5 -12,-16 -7,-24 5,-9 16,-12 25,-7l56 33c9,5 11,16 7,24 -5,9 -16,12 -25,7l-56 -33z"/>
    <line class="fil2" x1="3416" y1="2368" x2="3472" y2= "2400" />
    <path class="fil1" d="M3407 2383c-9,-5 -12,-16 -7,-24 5,-9 16,-12 25,-7l56 33c8,5 11,15 6,24 -5,9 -16,12 -24,7l-56 -33z"/>
    <line class="fil2" x1="3424" y1="2308" x2="3480" y2= "2340" />
    <path class="fil1" d="M3415 2323c-8,-5 -11,-16 -6,-24 5,-9 16,-12 24,-7l56 33c9,5 12,16 7,24 -5,9 -16,12 -25,7l-56 -33z"/>
    <line class="fil2" x1="3440" y1="2252" x2="3496" y2= "2284" />
    <path class="fil1" d="M3431 2267c-9,-5 -12,-16 -7,-24 5,-9 16,-12 25,-7l56 33c8,5 11,16 6,24 -5,9 -16,12 -24,7l-56 -33z"/>
    <line class="fil2" x1="3460" y1="2199" x2="3517" y2= "2232" />
    <path class="fil1" d="M3452 2215c-9,-5 -12,-16 -7,-25 5,-8 16,-11 24,-6l57 32c8,5 11,16 6,24 -5,9 -16,12 -24,7l-56 -32z"/>
    <line class="fil2" x1="3486" y1="2149" x2="3542" y2= "2182" />
    <path class="fil1" d="M3477 2165c-8,-5 -11,-16 -6,-25 5,-8 16,-11 24,-6l56 32c9,5 12,16 7,25 -5,8 -16,11 -25,6l-56 -32z"/>
    <line class="fil2" x1="3516" y1="2102" x2="3572" y2= "2134" />
    <path class="fil1" d="M3507 2117c-8,-5 -11,-16 -6,-24 5,-9 16,-12 24,-7l56 33c9,5 12,16 7,24 -5,9 -16,12 -25,7l-56 -33z"/>
    <line class="fil2" x1="3551" y1="2057" x2="3606" y2= "2089" />
    <path class="fil1" d="M3542 2073c-8,-5 -11,-16 -6,-25 5,-8 16,-11 24,-6l55 31c9,5 12,16 7,25 -5,8 -16,11 -25,6l-55 -31z"/>
    <line class="fil2" x1="3592" y1="2016" x2="3648" y2= "2048" />
    <path class="fil1" d="M3583 2031c-9,-5 -12,-16 -7,-24 5,-9 16,-12 24,-7l57 32c8,5 11,16 6,25 -5,9 -16,11 -24,6l-56 -32z"/>
    <line class="fil2" x1="3639" y1="1978" x2="3695" y2= "2010" />
    <path class="fil1" d="M3630 1993c-9,-4 -12,-15 -7,-24 5,-9 16,-11 25,-7l56 33c8,5 11,16 6,24 -5,9 -16,12 -24,7l-56 -33z"/>
    <line class="fil2" x1="3696" y1="1946" x2="3752" y2= "1978" />
    <path class="fil1" d="M3687 1962c-8,-5 -11,-16 -6,-25 5,-8 16,-11 24,-6l56 32c8,5 11,16 6,24 -5,9 -16,12 -24,7l-56 -32z"/>
    <line class="fil2" x1="3780" y1="1930" x2="3836" y2= "1963" />
    <path class="fil1" d="M3771 1946c-8,-5 -11,-16 -6,-25 5,-8 16,-11 24,-6l56 32c9,5 12,16 7,25 -5,8 -16,11 -25,6l-56 -32z"/>
    <path class="fil0" d="M4115 3104c0,96 -136,175 -303,175 -167,0 -302,-79 -302,-175l0 -751c0,-96 135,-175 302,-175 167,0 303,79 303,175l0 751z"/>
    <path class="fil1" d="M4133 3104c0,55 -38,104 -98,139 -57,33 -136,54 -223,54 -86,0 -165,-21 -222,-54 -61,-35 -98,-84 -98,-139l0 -751c0,-55 37,-104 98,-139 57,-33 136,-54 222,-54 87,0 166,21 223,54 60,35 98,84 98,139l0 751zm-116 108c49,-28 80,-67 80,-108l0 -751c0,-41 -31,-80 -80,-108 -52,-30 -124,-49 -205,-49 -80,0 -152,19 -205,49 -49,28 -79,67 -79,108l0 751c0,41 30,80 79,108 53,30 125,49 205,49 81,0 153,-19 205,-49z"/>
    <path class="fil0" d="M3812 2178c167,0 303,79 303,175 0,97 -136,176 -303,176 -167,0 -302,-79 -302,-176 0,-96 135,-175 302,-175z"/>
    <path class="fil1" d="M3812 2160c87,0 166,21 223,54 60,35 98,84 98,139 0,56 -38,105 -98,140 -57,33 -136,54 -223,54 -86,0 -165,-21 -222,-54 -61,-35 -98,-84 -98,-140 0,-55 37,-104 98,-139 57,-33 136,-54 222,-54zm205 85c-52,-30 -124,-49 -205,-49 -80,0 -152,19 -205,49 -49,28 -79,67 -79,108 0,42 30,80 79,109 53,30 125,49 205,49 81,0 153,-19 205,-49 49,-29 80,-67 80,-109 0,-41 -31,-80 -80,-108z"/>
    <polygon class="fil0" points="918,1311 918,880 2411,18 3905,2173 3531,2389 2225,557 "/>
    <path class="fil1" d="M900 1311l0 -431c0,-7 4,-13 11,-16l1491 -862c9,-4 19,-2 24,6l0 0 1493 2155c6,8 4,19 -4,25 -1,0 -2,1 -2,1l-373 215c-8,5 -18,3 -23,-5l0 0 -1297 -1819 -1293 747c-9,5 -20,2 -24,-7 -2,-3 -3,-6 -3,-9l0 0zm36 -421l0 390 1280 -739 0 0c8,-4 18,-2 23,5l1297 1819 343 -197 -1473 -2126 -1470 848z"/>
    <polygon class="fil0" points="918,1311 918,880 1198,1042 1198,1473 "/>
    <path class="fil1" d="M900 1311l0 -431c0,-10 8,-18 18,-18 4,0 7,1 10,3l279 161c6,3 9,10 9,16l0 0 0 431c0,10 -8,18 -18,18 -4,0 -7,-2 -10,-4l-279 -160c-6,-4 -9,-10 -9,-16l0 0zm36 -400l0 390 244 141 0 -390 -244 -141z"/>
    <polygon class="fil0" points="1198,1042 918,880 2411,18 2691,180 "/>
    <g>
     <path class="fil1" d="M1188 1057l-279 -161c-8,-5 -11,-16 -6,-25 1,-3 4,-5 6,-6l1493 -863c6,-3 13,-3 18,0l280 162c9,5 12,16 7,24 -2,3 -4,5 -7,7l0 0 -1493 862c-6,4 -13,3 -19,0zm-234 -177l244 141 1458 -841 -245 -141 -1457 841zm-45 -15c6,-4 12,-4 18,0l-18 0zm0 0l0 0 0 0z"/>
    </g>
    <polygon class="fil0" points="2388,786 3531,2389 3811,2550 2505,718 "/>
    <path class="fil1" d="M2414 791l1130 1584 205 119 -1249 -1752 -86 49zm1103 1608l-1143 -1602c-1,-1 -1,-2 -1,-2 -5,-9 -3,-20 6,-25l117 -67 0 0c8,-5 18,-3 23,5l1306 1832c5,5 6,13 2,19 -5,9 -16,12 -25,7l-280 -162 0 0c-2,-1 -4,-3 -5,-5z"/>
    <polygon class="fil0" points="1198,1473 1198,1042 2691,180 4185,2335 3811,2550 2505,718 "/>
    <path class="fil1" d="M1180 1473l0 -431c0,-7 4,-14 10,-16l1492 -862c9,-5 19,-2 24,6l1493 2155c6,8 4,19 -4,25 -1,0 -2,0 -2,1l-373 215c-8,5 -18,2 -23,-5l0 0 -1297 -1819 -1293 746c-9,5 -20,2 -24,-6 -2,-3 -3,-6 -3,-9l0 0zm36 -421l0 390 1280 -739 0 0c8,-5 18,-3 23,5l1297 1819 343 -198 -1473 -2126 -1470 849z"/>
    <g>
     <path class="fil0" d="M2737 217l0 0 0 0zm-326 578l54 30 -54 -30zm0 0c-45,-27 -68,-83 -68,-152 0,-70 22,-152 68,-231 46,-79 106,-140 166,-175 57,-33 115,-42 160,-20 21,11 44,26 65,38 -66,-29 -107,-25 -172,13 -60,34 -120,95 -166,175 -45,79 -68,161 -68,230 0,70 15,111 69,152 -18,-10 -36,-20 -54,-30z"/>
    </g>
    <path class="fil1" d="M2452 839l-31 -18 -1 -1 -17 -10c-1,0 -1,0 -2,-1 -25,-15 -44,-37 -57,-65 -13,-29 -19,-63 -19,-101 0,-37 6,-78 18,-119 12,-40 29,-81 53,-121 23,-40 50,-76 78,-106 30,-32 62,-57 94,-76 31,-18 63,-29 93,-33 30,-3 59,1 84,13 15,8 30,17 45,26 7,4 14,8 21,12 8,5 11,16 6,25 -4,8 -14,11 -22,7l0 0c-30,-13 -54,-19 -78,-17 -24,2 -48,12 -78,29 -29,17 -58,40 -86,69 -26,29 -51,62 -73,99 -22,38 -38,76 -49,114 -12,38 -17,75 -17,108 0,33 3,58 13,80 9,21 24,39 49,58 8,6 9,18 3,25 -6,8 -16,10 -24,4l-3 -1zm-75 -110c3,6 6,12 9,17 -6,-21 -8,-45 -8,-73 0,-37 6,-77 18,-119 12,-39 30,-80 53,-120 23,-41 50,-76 78,-106 30,-32 62,-57 94,-76 25,-14 46,-24 67,-29 -8,0 -15,0 -23,1 -25,3 -52,13 -79,28 -29,17 -58,41 -86,70 -27,28 -52,61 -73,99 -22,37 -38,76 -49,113 -12,38 -18,75 -18,109 0,32 6,62 17,86z"/>
    <path class="fil0" d="M2631 809c-60,35 -120,43 -166,16 -46,-26 -69,-82 -69,-152 0,-69 23,-151 68,-230 46,-80 106,-141 166,-175 60,-35 120,-43 166,-17 46,27 69,83 69,152 0,70 -23,152 -68,231 -46,79 -106,140 -166,175z"/>
    <path class="fil1" d="M2640 825c-33,19 -66,30 -97,33 -32,3 -61,-2 -87,-17 -26,-15 -46,-38 -59,-67 -13,-28 -19,-63 -19,-101 0,-37 6,-77 18,-119 12,-39 30,-80 53,-120 23,-41 50,-76 78,-106 30,-32 62,-57 94,-76 33,-19 66,-30 97,-33 32,-4 61,2 87,17 26,15 46,38 59,66 13,29 19,63 19,101 0,37 -6,78 -18,119 -12,40 -30,81 -53,121 -23,40 -50,76 -78,106 -30,32 -62,57 -94,76zm-101 -2c26,-3 55,-13 83,-29 29,-17 58,-41 86,-70 26,-28 51,-61 73,-99 22,-37 38,-76 49,-113 12,-38 17,-75 17,-109 0,-32 -5,-62 -16,-86 -10,-22 -25,-39 -44,-50 -19,-11 -41,-15 -65,-13 -26,3 -55,13 -83,29 -29,17 -58,40 -86,69 -26,29 -51,62 -73,99 -22,38 -38,76 -49,114 -12,38 -17,75 -17,108 0,33 5,63 16,87 10,22 25,39 44,50 19,11 41,15 65,13z"/>
    <line class="fil2" x1="2376" y1="763" x2="2433" y2= "795" />
    <path class="fil1" d="M2367 778c-9,-5 -12,-16 -7,-24 5,-9 16,-12 25,-7l57 33c8,5 11,16 6,24 -5,9 -16,12 -24,7l-57 -33z"/>
    <line class="fil2" x1="2345" y1="683" x2="2399" y2= "714" />
    <path class="fil1" d="M2337 699c-9,-5 -12,-16 -7,-24 5,-9 16,-12 24,-7l54 31c8,5 11,16 6,24 -5,9 -16,12 -24,7l-53 -31z"/>
    <line class="fil2" x1="2343" y1="621" x2="2397" y2= "651" />
    <path class="fil1" d="M2334 636c-8,-5 -11,-16 -6,-24 5,-9 16,-12 24,-7l54 31c8,5 11,16 6,24 -5,9 -16,12 -24,7l-54 -31z"/>
    <line class="fil2" x1="2351" y1="564" x2="2405" y2= "595" />
    <path class="fil1" d="M2342 579c-8,-5 -11,-16 -6,-24 5,-9 16,-12 24,-7l54 31c8,5 11,16 6,24 -5,9 -16,12 -24,7l-54 -31z"/>
    <line class="fil2" x1="2366" y1="511" x2="2419" y2= "541" />
    <path class="fil1" d="M2357 526c-8,-5 -11,-16 -6,-24 5,-9 15,-12 24,-7l53 31c9,5 12,16 7,24 -5,9 -16,12 -25,7l-53 -31z"/>
    <line class="fil2" x1="2386" y1="461" x2="2439" y2= "491" />
    <path class="fil1" d="M2377 476c-9,-5 -11,-16 -7,-24 5,-9 16,-12 25,-7l53 31c9,5 12,16 7,24 -5,9 -16,12 -25,7l-53 -31z"/>
    <line class="fil2" x1="2410" y1="413" x2="2464" y2= "444" />
    <path class="fil1" d="M2401 429c-8,-5 -11,-16 -6,-25 5,-8 16,-11 24,-6l54 30c8,5 11,16 6,25 -5,8 -16,11 -24,6l-54 -30z"/>
    <line class="fil2" x1="2439" y1="368" x2="2492" y2= "399" />
    <path class="fil1" d="M2430 384c-8,-5 -11,-16 -7,-25 5,-8 16,-11 25,-6l53 30c9,5 12,16 7,25 -5,8 -16,11 -25,6l-53 -30z"/>
    <line class="fil2" x1="2472" y1="326" x2="2524" y2= "356" />
    <path class="fil1" d="M2463 341c-8,-5 -11,-16 -6,-24 5,-9 15,-12 24,-7l52 30c9,5 12,16 7,25 -5,8 -16,11 -24,6l-53 -30z"/>
    <line class="fil2" x1="2510" y1="286" x2="2564" y2= "317" />
    <path class="fil1" d="M2501 302c-8,-5 -11,-16 -6,-25 5,-8 16,-11 24,-6l54 31c8,4 11,15 6,24 -5,9 -16,11 -24,7l-54 -31z"/>
    <line class="fil2" x1="2555" y1="251" x2="2608" y2= "281" />
    <path class="fil1" d="M2546 266c-8,-5 -11,-16 -6,-24 5,-9 15,-12 24,-7l53 31c9,5 12,16 7,24 -5,9 -16,12 -24,7l-54 -31z"/>
    <line class="fil2" x1="2610" y1="221" x2="2662" y2= "251" />
    <path class="fil1" d="M2601 236c-9,-5 -12,-16 -7,-24 5,-9 16,-12 25,-7l52 30c9,5 12,16 7,25 -5,8 -16,11 -24,6l-53 -30z"/>
    <line class="fil2" x1="2690" y1="205" x2="2743" y2= "236" />
    <path class="fil1" d="M2681 221c-9,-5 -12,-16 -7,-25 5,-8 16,-11 25,-6l53 30c8,5 11,16 6,25 -4,8 -15,11 -24,6l-53 -30z"/>
    <g>
     <path class="fil0" d="M4204 2160l0 0 0 0zm-343 608l57 32 -57 -32zm0 0c-48,-28 -72,-87 -72,-160 0,-73 24,-160 72,-243 48,-84 111,-148 175,-185 60,-35 121,-44 168,-20 22,11 47,27 68,39 -69,-30 -112,-26 -180,14 -64,36 -127,101 -175,184 -48,83 -72,170 -72,243 0,73 16,116 73,160 -19,-11 -38,-22 -57,-32z"/>
    </g>
    <g>
     <path class="fil1" d="M4212 2144l1 0c15,8 31,18 47,27 8,5 15,9 21,13 9,5 12,16 7,24 -5,8 -14,11 -23,8l0 0c-32,-14 -57,-20 -82,-18 -25,2 -50,12 -82,30 -31,18 -62,43 -91,73 -28,30 -54,65 -77,105l-1 1c-22,39 -40,79 -51,118 -12,41 -18,80 -18,115 0,34 4,61 14,84 9,22 26,42 52,62 7,6 9,17 3,25 -6,8 -17,9 -24,4l-48 -28 -7 -4c-1,0 -1,0 -2,-1 -26,-15 -46,-39 -60,-69 -13,-29 -20,-66 -20,-105 0,-39 7,-82 19,-125 13,-42 31,-85 56,-127 24,-43 52,-80 82,-112 31,-33 65,-60 99,-79 33,-19 66,-31 97,-35 32,-4 61,1 88,14zm-388 555c4,8 9,16 14,23 -8,-23 -11,-50 -11,-82 0,-39 7,-81 20,-125 12,-41 30,-84 54,-126l1 -1c24,-42 52,-80 82,-111 31,-33 65,-60 99,-80 28,-16 52,-26 75,-32 -9,-1 -19,0 -29,1 -27,3 -56,13 -85,30 -30,18 -61,42 -90,73 -28,30 -54,65 -77,105 -23,39 -41,80 -52,119 -12,40 -18,79 -18,115 0,34 6,65 17,91zm388 -555l0 0 1 0 -1 0z"/>
    </g>
    <path class="fil0" d="M4093 2783c-64,36 -127,45 -175,17 -49,-28 -73,-87 -73,-160 0,-73 24,-160 72,-243 48,-83 111,-148 175,-184 63,-37 126,-45 175,-17 48,28 72,87 72,160 0,73 -24,159 -72,243 -48,83 -111,147 -174,184z"/>
    <path class="fil1" d="M4101 2798c-34,20 -69,32 -101,36 -33,3 -64,-3 -91,-18 -27,-16 -48,-40 -61,-70 -14,-30 -21,-66 -21,-106 0,-39 7,-81 20,-125 12,-42 30,-85 55,-127l0 0 0 0c24,-42 52,-80 82,-111 31,-33 65,-60 99,-80 34,-19 69,-32 102,-35 32,-3 63,3 90,18 28,16 48,40 62,70 13,30 20,66 20,106 0,39 -6,81 -19,125 -13,41 -31,85 -56,127l0 0 0 0c-24,42 -52,79 -82,111 -31,33 -65,60 -99,79zm-105 0c28,-3 58,-13 88,-31 30,-17 61,-42 90,-73 28,-29 55,-64 77,-104l0 0c23,-40 41,-80 52,-119 12,-41 18,-80 18,-115 0,-35 -6,-66 -17,-91 -11,-24 -26,-42 -46,-54 -21,-12 -44,-16 -70,-13 -28,2 -57,13 -87,30 -31,18 -62,43 -91,73 -28,30 -54,65 -77,105l0 0c-23,39 -40,80 -52,119 -12,41 -18,80 -18,115 0,35 6,66 17,91 11,23 26,42 47,54 20,11 44,15 69,13z"/>
    <line class="fil2" x1="3824" y1="2734" x2="3884" y2= "2768" />
    <path class="fil1" d="M3815 2749c-9,-5 -11,-16 -7,-24 5,-9 16,-12 25,-7l60 35c8,5 11,16 6,24 -5,9 -16,12 -24,7l-60 -35z"/>
    <line class="fil2" x1="3792" y1="2651" x2="3848" y2= "2683" />
    <path class="fil1" d="M3783 2666c-8,-5 -11,-16 -7,-24 5,-9 16,-12 25,-7l56 33c9,4 12,15 7,24 -5,8 -16,11 -25,7l-56 -33z"/>
    <line class="fil2" x1="3790" y1="2584" x2="3846" y2= "2617" />
    <path class="fil1" d="M3781 2600c-9,-5 -12,-16 -7,-24 5,-9 16,-12 25,-7l56 32c8,5 11,16 6,25 -5,8 -16,11 -24,6l-56 -32z"/>
    <line class="fil2" x1="3798" y1="2525" x2="3854" y2= "2557" />
    <path class="fil1" d="M3789 2540c-8,-5 -11,-16 -6,-24 5,-9 16,-12 24,-7l56 32c9,5 12,16 7,25 -5,9 -16,11 -25,6l-56 -32z"/>
    <line class="fil2" x1="3814" y1="2469" x2="3870" y2= "2501" />
    <path class="fil1" d="M3805 2484c-9,-5 -12,-16 -7,-24 5,-9 16,-12 25,-7l56 33c8,5 11,16 6,24 -5,9 -16,12 -24,7l-56 -33z"/>
    <line class="fil2" x1="3835" y1="2416" x2="3891" y2= "2448" />
    <path class="fil1" d="M3826 2431c-9,-4 -12,-15 -7,-24 5,-9 16,-11 25,-7l56 33c8,5 11,16 6,24 -5,9 -16,12 -24,7l-56 -33z"/>
    <line class="fil2" x1="3860" y1="2366" x2="3916" y2= "2398" />
    <path class="fil1" d="M3851 2382c-8,-5 -11,-16 -6,-25 5,-9 16,-11 24,-6l56 32c9,5 12,16 7,24 -5,9 -16,12 -25,7l-56 -32z"/>
    <line class="fil2" x1="3890" y1="2319" x2="3947" y2= "2351" />
    <path class="fil1" d="M3881 2334c-8,-5 -11,-16 -6,-24 5,-9 16,-12 24,-7l57 33c8,4 11,15 6,24 -5,9 -16,11 -24,7l-57 -33z"/>
    <line class="fil2" x1="3925" y1="2274" x2="3980" y2= "2306" />
    <path class="fil1" d="M3916 2289c-8,-4 -11,-15 -6,-24 5,-8 16,-11 24,-7l55 32c9,5 12,16 7,25 -5,8 -16,11 -24,6l-56 -32z"/>
    <line class="fil2" x1="3966" y1="2232" x2="4022" y2= "2265" />
    <path class="fil1" d="M3957 2248c-9,-5 -12,-16 -7,-25 5,-8 16,-11 25,-6l56 32c8,5 11,16 6,25 -5,8 -16,11 -24,6l-56 -32z"/>
    <line class="fil2" x1="4013" y1="2195" x2="4069" y2= "2227" />
    <path class="fil1" d="M4004 2210c-9,-5 -12,-16 -7,-24 5,-9 16,-12 25,-7l56 33c8,5 11,16 6,24 -5,9 -16,12 -24,7l-56 -33z"/>
    <line class="fil2" x1="4070" y1="2163" x2="4126" y2= "2195" />
    <path class="fil1" d="M4061 2179c-8,-5 -11,-16 -6,-25 5,-8 16,-11 24,-6l56 32c8,5 11,16 6,24 -5,9 -16,12 -24,7l-56 -32z"/>
    <line class="fil2" x1="4154" y1="2147" x2="4210" y2= "2179" />
    <path class="fil1" d="M4145 2162c-8,-4 -11,-15 -6,-24 5,-9 16,-11 24,-7l56 33c9,5 12,16 7,24 -5,9 -16,12 -25,7l-56 -33z"/>
    <g>
     <path class="fil0" d="M4591 4232l0 0 0 0zm-343 608l56 32 -56 -32zm0 0c-48,-28 -72,-87 -72,-160 0,-73 24,-160 72,-243 48,-84 111,-148 174,-184 61,-35 122,-45 169,-21 22,11 47,27 68,40 -69,-31 -112,-26 -181,13 -63,37 -126,101 -174,184 -48,84 -72,170 -72,243 0,74 16,116 72,160 -19,-11 -37,-21 -56,-32z"/>
    </g>
    <g>
     <path class="fil1" d="M4598 4216l1 1c16,7 32,17 47,26 8,5 16,10 22,13 9,5 11,16 7,25 -5,8 -15,11 -23,7l0 0c-32,-14 -57,-20 -82,-18 -25,2 -51,12 -83,31 -30,17 -61,42 -90,73 -28,29 -55,65 -78,104 -23,40 -40,80 -51,119 -12,41 -18,80 -18,115 0,35 3,61 13,84 10,23 26,42 52,62 8,6 9,18 3,25 -5,8 -16,9 -24,4l-48 -27 -7 -4c0,-1 -1,-1 -1,-1 -27,-16 -47,-40 -60,-69 -14,-30 -20,-66 -20,-106 0,-39 6,-81 19,-125 12,-42 31,-85 55,-127 25,-42 53,-80 83,-111 31,-33 64,-60 98,-80 33,-19 66,-31 98,-35 31,-3 61,1 87,14zm-387 555c4,9 8,17 13,24 -7,-24 -10,-51 -10,-83 0,-39 6,-81 19,-125 13,-41 31,-84 55,-127 25,-42 53,-79 83,-111 31,-33 65,-60 98,-79 28,-16 52,-27 76,-32 -10,-1 -20,-1 -30,0 -27,3 -55,14 -84,30 -31,18 -61,43 -90,73 -29,30 -55,65 -78,105 -23,39 -40,80 -52,119 -12,40 -18,80 -18,115 0,35 6,66 18,91zm387 -555l1 0 0 1 -1 -1z"/>
    </g>
    <path class="fil0" d="M4479 4855c-63,37 -126,45 -175,17 -48,-28 -72,-87 -72,-160 0,-73 24,-159 72,-243 48,-83 111,-147 174,-184 63,-36 127,-45 175,-17 48,28 73,87 73,160 0,73 -24,160 -72,243 -49,83 -112,148 -175,184z"/>
    <path class="fil1" d="M4488 4871c-34,20 -69,32 -102,35 -33,3 -64,-2 -91,-18l0 0 0 0c-27,-16 -47,-40 -61,-70 -13,-30 -20,-66 -20,-106 0,-39 6,-81 19,-125 13,-41 31,-84 55,-127 25,-42 53,-79 83,-111 31,-33 65,-60 98,-79 35,-20 69,-32 102,-36 33,-3 64,3 91,18 27,16 48,40 61,70 14,30 21,66 21,106 0,39 -7,81 -20,125 -12,42 -31,85 -55,127l0 0 0 0c-24,42 -52,80 -82,111 -32,33 -65,60 -99,80zm-105 -1c27,-2 57,-13 87,-30 31,-18 62,-43 91,-73 28,-30 54,-65 77,-105l0 0c23,-39 40,-80 52,-119 12,-41 18,-80 18,-115 0,-35 -6,-66 -17,-91 -11,-23 -26,-42 -47,-54 -20,-11 -44,-15 -69,-13 -28,3 -58,13 -88,31 -30,17 -61,42 -90,73 -28,29 -55,65 -78,104 -23,40 -40,80 -51,119 -12,41 -18,80 -18,115 0,35 5,66 17,91 10,24 26,42 46,54l0 0c20,12 44,16 70,13z"/>
    <line class="fil2" x1="4211" y1="4806" x2="4270" y2= "4841" />
    <path class="fil1" d="M4202 4822c-9,-5 -12,-16 -7,-25 5,-8 16,-11 25,-6l59 34c9,5 12,16 7,25 -5,8 -16,11 -25,6l-59 -34z"/>
    <line class="fil2" x1="4179" y1="4723" x2="4235" y2= "4755" />
    <path class="fil1" d="M4170 4738c-9,-5 -12,-16 -7,-24 5,-9 16,-12 25,-7l56 33c8,5 11,16 6,24 -5,9 -16,12 -24,7l-56 -33z"/>
    <line class="fil2" x1="4176" y1="4657" x2="4232" y2= "4689" />
    <path class="fil1" d="M4167 4672c-8,-5 -11,-16 -6,-24 5,-9 16,-12 24,-7l56 33c9,5 12,16 7,24 -5,9 -16,12 -24,7l-57 -33z"/>
    <line class="fil2" x1="4185" y1="4597" x2="4241" y2= "4629" />
    <path class="fil1" d="M4176 4612c-9,-5 -12,-16 -7,-24 5,-9 16,-12 25,-7l56 33c8,5 11,16 6,24 -5,9 -16,12 -24,7l-56 -33z"/>
    <line class="fil2" x1="4200" y1="4541" x2="4256" y2= "4573" />
    <path class="fil1" d="M4191 4557c-8,-5 -11,-16 -6,-25 5,-9 16,-11 24,-6l56 32c9,5 12,16 7,24 -5,9 -16,12 -25,7l-56 -32z"/>
    <line class="fil2" x1="4221" y1="4488" x2="4277" y2= "4521" />
    <path class="fil1" d="M4212 4504c-8,-5 -11,-16 -6,-25 5,-8 16,-11 24,-6l56 32c9,5 12,16 7,25 -5,8 -16,11 -25,6l-56 -32z"/>
    <line class="fil2" x1="4247" y1="4438" x2="4303" y2= "4471" />
    <path class="fil1" d="M4238 4454c-9,-5 -12,-16 -7,-25 5,-8 16,-11 25,-6l56 32c9,5 11,16 6,25 -4,8 -15,11 -24,6l-56 -32z"/>
    <line class="fil2" x1="4277" y1="4391" x2="4333" y2= "4423" />
    <path class="fil1" d="M4268 4406c-9,-5 -11,-16 -6,-24 4,-9 15,-12 24,-7l56 33c9,5 12,16 7,24 -5,9 -16,12 -25,7l-56 -33z"/>
    <line class="fil2" x1="4312" y1="4346" x2="4367" y2= "4378" />
    <path class="fil1" d="M4303 4362c-9,-5 -12,-16 -7,-25 5,-8 16,-11 25,-6l55 32c9,5 12,16 7,24 -5,9 -16,12 -25,7l-55 -32z"/>
    <line class="fil2" x1="4352" y1="4305" x2="4408" y2= "4337" />
    <path class="fil1" d="M4343 4320c-8,-5 -11,-16 -6,-24 5,-9 16,-12 24,-7l56 33c9,5 12,16 7,24 -5,9 -16,12 -25,7l-56 -33z"/>
    <line class="fil2" x1="4399" y1="4267" x2="4455" y2= "4300" />
    <path class="fil1" d="M4390 4283c-8,-5 -11,-16 -6,-25 5,-8 16,-11 24,-6l56 32c9,5 12,16 7,24 -5,9 -16,12 -25,7l-56 -32z"/>
    <line class="fil2" x1="4457" y1="4236" x2="4512" y2= "4268" />
    <path class="fil1" d="M4448 4251c-9,-5 -12,-16 -7,-24 5,-9 16,-12 25,-7l55 32c9,5 12,16 7,25 -5,8 -16,11 -25,6l-55 -32z"/>
    <line class="fil2" x1="4541" y1="4219" x2="4597" y2= "4252" />
    <path class="fil1" d="M4532 4235c-9,-5 -12,-16 -7,-25 5,-8 16,-11 25,-6l56 32c9,5 12,16 7,25 -5,8 -16,11 -25,6l-56 -32z"/>
    <g>
     <path class="fil0" d="M5314 3778l0 0 0 0zm-343 608l56 32 -56 -32zm0 0c-48,-28 -73,-87 -73,-160 0,-73 24,-160 73,-243 48,-84 111,-148 174,-184 61,-35 121,-45 169,-21 22,11 46,27 68,40 -69,-31 -112,-26 -181,13 -63,37 -126,101 -174,184 -48,84 -72,170 -72,243 0,74 16,116 72,160 -19,-11 -37,-21 -56,-32z"/>
    </g>
    <g>
     <path class="fil1" d="M5321 3762l1 1c15,7 32,17 47,26 8,5 16,10 22,13 8,5 11,16 6,25 -4,8 -14,11 -22,7l0 0c-32,-14 -57,-20 -82,-18 -25,2 -51,12 -83,31 -31,17 -61,42 -90,73 -29,29 -55,65 -78,104l0 0 0 0c-23,40 -40,80 -52,119 -12,41 -18,80 -18,115 0,35 4,61 14,84 10,23 26,42 52,62 8,6 9,18 3,25 -6,8 -16,9 -24,4l-49 -28 0 0 -1 -1 -2 -1 0 0 -1 0 -1 -1 0 0 -1 -1 -1 0c-27,-16 -47,-40 -60,-69 -14,-30 -20,-66 -20,-106 0,-39 6,-81 19,-125 12,-42 31,-85 55,-127l0 0 0 0c24,-42 53,-80 83,-111 31,-33 64,-60 98,-80 33,-19 66,-31 98,-35 31,-3 61,1 87,14zm-387 555c4,9 8,17 13,24 -7,-24 -10,-51 -10,-83 0,-39 6,-81 19,-125 13,-42 31,-85 55,-127l0 0c25,-42 53,-79 83,-111 31,-33 65,-60 98,-79 28,-16 52,-27 76,-32 -10,-1 -20,-1 -30,0 -27,3 -55,14 -84,30 -31,18 -61,43 -91,73 -28,30 -54,65 -77,105l0 0c-23,39 -40,80 -52,119 -12,40 -18,80 -18,115 0,35 6,66 18,91zm387 -555l1 0 0 1 -1 -1z"/>
    </g>
    <path class="fil0" d="M5202 4401c-63,37 -127,45 -175,17 -48,-28 -72,-87 -72,-160 0,-73 24,-159 72,-243 48,-83 111,-147 174,-184 63,-36 127,-45 175,-17 48,28 73,87 73,160 0,73 -24,160 -73,243 -48,83 -111,148 -174,184z"/>
    <path class="fil1" d="M5211 4417c-34,20 -69,32 -102,35 -33,3 -64,-2 -91,-18l0 0 0 0c-27,-16 -47,-40 -61,-70 -14,-30 -20,-66 -20,-106 0,-39 6,-81 19,-125 13,-42 31,-85 55,-127l1 -1c24,-42 52,-79 82,-110 31,-33 65,-60 98,-79 35,-20 69,-32 102,-36 33,-3 64,3 91,18 27,16 48,40 61,70 14,30 20,66 20,106 1,39 -6,81 -19,125 -12,42 -31,85 -55,127 -24,42 -53,80 -82,111 -32,33 -65,60 -99,80zm-105 -1c27,-2 57,-13 87,-30 31,-18 62,-43 91,-73 28,-30 54,-65 77,-105 23,-39 40,-80 52,-119 12,-41 18,-80 18,-115 0,-35 -6,-66 -18,-91 -10,-23 -26,-42 -46,-54 -20,-11 -44,-15 -69,-13 -28,3 -58,13 -88,31 -31,17 -61,42 -90,73 -28,29 -54,64 -77,103l-1 1c-23,40 -40,80 -52,119 -12,41 -18,80 -18,115 0,35 6,66 18,91 10,24 26,42 46,54l0 0c20,12 44,16 70,13z"/>
    <line class="fil2" x1="4933" y1="4352" x2="4993" y2= "4387" />
    <path class="fil1" d="M4925 4368c-9,-5 -12,-16 -7,-25 5,-8 16,-11 24,-6l60 34c9,5 12,16 7,25 -5,8 -16,11 -25,6l-59 -34z"/>
    <line class="fil2" x1="4901" y1="4269" x2="4958" y2= "4301" />
    <path class="fil1" d="M4893 4284c-9,-5 -12,-15 -7,-24 5,-9 16,-12 24,-7l57 33c8,5 11,16 6,24 -5,9 -16,12 -24,7l-56 -33z"/>
    <line class="fil2" x1="4899" y1="4203" x2="4955" y2= "4235" />
    <path class="fil1" d="M4890 4218c-8,-5 -11,-16 -6,-24 5,-9 16,-12 24,-7l56 33c9,5 12,16 7,24 -5,9 -16,12 -25,7l-56 -33z"/>
    <line class="fil2" x1="4908" y1="4143" x2="4964" y2= "4175" />
    <path class="fil1" d="M4899 4158c-9,-5 -12,-15 -7,-24 5,-9 16,-12 25,-7l56 33c8,5 11,16 6,24 -5,9 -16,12 -24,7l-56 -33z"/>
    <line class="fil2" x1="4923" y1="4087" x2="4979" y2= "4119" />
    <path class="fil1" d="M4914 4103c-8,-5 -11,-16 -6,-25 5,-9 16,-11 24,-6l56 32c9,5 12,16 7,24 -5,9 -16,12 -25,7l-56 -32z"/>
    <line class="fil2" x1="4944" y1="4034" x2="5000" y2= "4067" />
    <path class="fil1" d="M4935 4050c-8,-5 -11,-16 -6,-25 5,-8 16,-11 24,-6l56 32c9,5 12,16 7,25 -5,8 -16,11 -25,6l-56 -32z"/>
    <line class="fil2" x1="4970" y1="3984" x2="5026" y2= "4017" />
    <path class="fil1" d="M4961 4000c-9,-5 -12,-16 -7,-25 5,-8 16,-11 25,-6l56 32c8,5 11,16 6,25 -5,8 -16,11 -24,6l-56 -32z"/>
    <line class="fil2" x1="5000" y1="3937" x2="5056" y2= "3969" />
    <path class="fil1" d="M4991 3952c-9,-5 -12,-15 -7,-24 5,-9 16,-12 25,-7l56 33c9,5 12,16 7,24 -5,9 -16,12 -25,7l-56 -33z"/>
    <line class="fil2" x1="5035" y1="3892" x2="5090" y2= "3924" />
    <path class="fil1" d="M5026 3908c-9,-5 -12,-16 -7,-25 5,-8 16,-11 25,-6l55 32c8,5 11,15 6,24 -4,9 -15,12 -24,7l-55 -32z"/>
    <line class="fil2" x1="5075" y1="3851" x2="5131" y2= "3883" />
    <path class="fil1" d="M5066 3866c-8,-5 -11,-16 -6,-24 5,-9 16,-12 24,-7l56 33c9,5 12,16 7,24 -5,9 -16,12 -25,7l-56 -33z"/>
    <line class="fil2" x1="5122" y1="3813" x2="5178" y2= "3846" />
    <path class="fil1" d="M5113 3829c-8,-5 -11,-16 -6,-25 5,-8 16,-11 24,-6l56 32c9,5 12,16 7,24 -5,9 -16,12 -25,7l-56 -32z"/>
    <line class="fil2" x1="5180" y1="3782" x2="5235" y2= "3814" />
    <path class="fil1" d="M5171 3797c-9,-5 -12,-16 -7,-24 5,-9 16,-12 25,-7l55 32c9,5 12,16 7,24 -5,9 -16,12 -25,7l-55 -32z"/>
    <line class="fil2" x1="5264" y1="3765" x2="5320" y2= "3798" />
    <path class="fil1" d="M5255 3781c-9,-5 -12,-16 -7,-25 5,-8 16,-11 25,-6l56 32c9,5 11,16 6,25 -4,8 -15,11 -24,6l-56 -32z"/>
    <polygon class="fil0" points="908,1305 908,859 1198,1027 1198,1473 "/>
    <path class="fil1" d="M890 1305l0 -446c0,-10 8,-18 18,-18 4,0 8,2 11,4l288 166c6,3 9,9 9,16l0 0 0 446c0,10 -8,18 -18,18 -4,0 -7,-2 -10,-4l-289 -166c-5,-3 -9,-9 -9,-16l0 0zm36 -415l0 405 254 147 0 -405 -254 -147z"/>
    <polygon class="fil0" points="153,765 20,688 316,175 908,859 760,945 334,451 "/>
    <path class="fil1" d="M144 781l-133 -77c-9,-5 -12,-16 -7,-25l1 0 295 -512c5,-9 16,-12 25,-7 2,1 3,2 5,4l0 0 592 684c6,7 5,18 -2,25 -1,1 -2,1 -3,2l0 0 -148 85c-8,5 -17,3 -23,-4l-409 -474 -169 292c-5,9 -16,12 -24,7zm-100 -99l102 59 173 -299 0 0c1,-2 2,-3 3,-4 8,-7 19,-6 26,1l416 483 117 -67 -562 -649 -275 476z"/>
    <polygon class="fil0" points="443,930 310,853 606,340 1198,1024 1050,1110 624,616 "/>
    <path class="fil1" d="M434 946l-133 -77c-9,-5 -12,-16 -7,-25l1 -1 295 -511c5,-9 16,-12 25,-7 1,1 3,2 4,4l0 0 593 684c6,7 5,18 -2,25 -1,1 -2,1 -3,2l0 0 -148 85c-8,5 -18,3 -23,-4l-409 -474 -169 292c-5,9 -16,12 -24,7zm-100 -99l102 59 172 -299 0 0c1,-2 3,-3 4,-5 8,-6 19,-5 25,2l417 483 116 -67 -561 -649 -275 476z"/>
    <polygon class="fil0" points="310,853 606,340 316,175 20,688 "/>
    <path class="fil1" d="M303 829l278 -482 -258 -147 -279 482 259 147zm318 -480l-295 512 -1 1c-5,9 -16,12 -24,7l-290 -165 0 0 0 0c-9,-5 -12,-16 -7,-24l296 -513 0 0c5,-9 16,-12 25,-7l290 165 0 0 0 0c8,5 11,16 6,24z"/>
    <polygon class="fil0" points="760,945 565,718 624,616 1050,1110 "/>
    <path class="fil1" d="M747 957l-196 -227c-5,-6 -5,-14 -2,-21l0 0 59 -102c5,-9 16,-11 25,-6 2,1 4,2 5,4l425 493c7,8 6,19 -1,25 -6,6 -15,6 -21,2l-290 -165c-1,-1 -3,-2 -4,-3zm-160 -241l185 215 197 112 -342 -396 -40 69z"/>
    <polygon class="fil0" points="1030,1562 1198,1473 902,2221 310,2221 310,2050 786,2049 "/>
    <path class="fil1" d="M1021 1547l169 -90c8,-5 19,-1 24,7 2,5 2,11 1,15l0 0 -296 749c-3,7 -10,11 -17,11l0 0 -592 0c-10,0 -18,-8 -18,-18 0,0 0,-1 0,-1l0 -170c0,-10 8,-18 18,-18l465 -1 239 -477c1,-3 4,-6 7,-7l0 0zm142 -36l-120 65 -241 481c-3,6 -9,10 -16,10l-459 1 0 135 563 0 273 -692z"/>
    <polygon class="fil0" points="743,1385 908,1305 612,2054 20,2054 20,1883 496,1882 "/>
    <path class="fil1" d="M735 1369l165 -80c9,-4 20,0 24,9 3,4 3,10 1,14l0 0 -296 748c-3,7 -10,12 -17,12l0 0 -592 0c-10,0 -18,-8 -18,-18 0,-1 0,-1 0,-2l0 -169c0,-10 8,-18 18,-18l465 -1 242 -486c1,-4 4,-7 8,-9l0 0zm140 -27l-119 57 -244 491 0 0c-2,6 -9,10 -16,10l-458 1 0 135 562 0 275 -694z"/>
    <polygon class="fil0" points="20,2054 20,1883 310,2050 310,2221 "/>
    <path class="fil1" d="M2 2054l0 -171c0,-10 8,-18 18,-18 3,0 6,1 9,2l0 0 290 168c6,3 9,10 8,16l0 170c0,10 -8,18 -17,18 -4,0 -7,-1 -10,-3l-289 -167c-6,-3 -9,-9 -9,-15l0 0zm36 -140l0 130 254 146 0 -129 -254 -147z"/>
    <polygon class="fil0" points="310,2050 20,1883 496,1882 786,2049 "/>
    <path class="fil1" d="M301 2066l-290 -168c-9,-5 -12,-16 -7,-24 4,-6 10,-9 17,-9l475 -1c4,0 7,1 10,3l289 167c9,5 12,16 7,24 -4,6 -10,9 -16,9l0 0 -476 1c-4,0 -7,-1 -9,-2l0 0zm-215 -165l228 131 406 -1 -228 -131 -406 1z"/>
    <polygon class="fil0" points="786,2049 496,1882 743,1385 1022,1558 "/>
    <g>
     <path class="fil1" d="M777 2065l-289 -168c-9,-4 -12,-15 -8,-23l0 0 247 -496c4,-9 15,-13 24,-9 0,1 1,1 2,2l278 172c8,4 11,15 7,23l-236 491c-4,9 -15,13 -24,8 0,0 -1,0 -1,0zm-257 -190l258 149 221 -459 -249 -154 -230 464zm257 190c-8,-5 -11,-15 -7,-23l7 23z"/>
    </g>
    <polygon class="fil0" points="1030,1562 743,1385 908,1305 1198,1473 "/>
    <path class="fil1" d="M1020 1578l-287 -177c-8,-6 -11,-17 -6,-25 2,-3 5,-5 8,-7l0 0 165 -80c6,-2 13,-2 18,2l289 166c8,5 11,16 6,25 -1,3 -4,5 -7,7l0 0 -168 89c-6,3 -13,3 -18,0l0 0zm-240 -191l250 155 131 -70 -253 -146 -128 61z"/>
   </g>
   <polygon class="fil4" points="1758,6507 1506,6507 1506,6727 1796,6727 1796,6766 1460,6766 1460,6226 1794,6226 1794,6265 1506,6265 1506,6468 1758,6468 "/>
   <polygon id="1" class="fil4" points="2055,6699 2058,6710 2061,6699 2231,6226 2281,6226 2080,6766 2036,6766 1835,6226 1885,6226 "/>
   <polygon id="2" class="fil4" points="2658,6507 2406,6507 2406,6727 2696,6727 2696,6766 2360,6766 2360,6226 2694,6226 2694,6265 2406,6265 2406,6468 2658,6468 "/>
   <polygon id="3" class="fil4" points="3194,6766 3149,6766 2838,6304 2838,6766 2792,6766 2792,6226 2838,6226 3149,6688 3149,6226 3194,6226 "/>
   <polygon id="4" class="fil4" points="3687,6265 3502,6265 3502,6766 3456,6766 3456,6265 3272,6265 3272,6226 3687,6226 "/>
   <path id="5" class="fil4" d="M4074 6633c0,-30 -11,-54 -32,-71 -21,-17 -59,-34 -115,-50 -56,-15 -97,-33 -123,-51 -36,-26 -54,-61 -54,-103 0,-42 17,-75 50,-101 35,-26 78,-39 131,-39 36,0 68,7 96,21 28,14 50,33 66,58 16,25 23,52 23,83l-46 0c0,-37 -12,-67 -38,-89 -25,-23 -59,-34 -101,-34 -41,0 -74,9 -99,28 -24,18 -36,42 -36,72 0,27 11,50 33,67 22,17 57,32 105,46 49,13 85,27 110,41 25,14 44,31 57,51 12,20 19,43 19,70 0,43 -17,77 -51,103 -34,25 -79,38 -135,38 -38,0 -73,-6 -105,-20 -31,-14 -55,-33 -72,-57 -16,-25 -24,-53 -24,-84l45 0c0,38 14,68 43,90 28,22 66,33 113,33 42,0 76,-10 101,-28 26,-19 39,-43 39,-74z"/>
  </g>
 </g>
</svg>
