<?xml version="1.0" encoding="UTF-8"?>
<!DOCTYPE svg PUBLIC "-//W3C//DTD SVG 1.1//EN" "http://www.w3.org/Graphics/SVG/1.1/DTD/svg11.dtd">
<!-- Creator: CorelDRAW X7 -->
<svg xmlns="http://www.w3.org/2000/svg" xml:space="preserve" width="40.4706mm" height="67.7332mm" version="1.1" style="shape-rendering:geometricPrecision; text-rendering:geometricPrecision; image-rendering:optimizeQuality; fill-rule:evenodd; clip-rule:evenodd"
viewBox="0 0 4047 6773"
 xmlns:xlink="http://www.w3.org/1999/xlink">
 <defs>
  <style type="text/css">
   <![CDATA[
    .fil0 {fill:#61003F}
    .fil1 {fill:#FFF4F0}
    .fil2 {fill:#61003F;fill-rule:nonzero}
    .fil3 {fill:#61003F;fill-rule:nonzero}
   ]]>
  </style>
     <clipPath id="id0">
      <path d="M2170 4052c130,75 260,93 360,35 99,-57 149,-179 149,-329 0,-150 -50,-329 -149,-500 -99,-172 -229,-304 -358,-379 -131,-75 -261,-93 -360,-35 -100,57 -150,179 -150,329 0,150 50,329 149,500 99,172 229,304 359,379z"/>
     </clipPath>
     <clipPath id="id1">
      <path d="M876 3305c130,75 260,93 360,35 99,-57 149,-179 149,-329 0,-150 -49,-329 -148,-500 -100,-172 -229,-304 -359,-379 -130,-75 -261,-93 -360,-35 -100,57 -149,179 -149,329 0,150 49,329 148,500 99,172 229,304 359,379z"/>
     </clipPath>
 </defs>
 <g id="Layer_x0020_1">
  <metadata id="CorelCorpID_0Corel-Layer"/>
  <g id="_1890937290864">
   <g>
    <path class="fil0" d="M2213 4992c0,26 36,46 80,46 43,0 79,-20 79,-46l0 -1436c0,-26 -36,-47 -79,-47 -44,0 -80,21 -80,47l0 1436z"/>
    <path class="fil0" d="M2219 2915c0,47 34,84 76,84 43,0 77,-37 77,-84l0 -2616c0,-109 -32,-200 -95,-252l0 0c-44,-35 -94,-50 -147,-46 -2,0 -5,0 -7,0l0 0c-20,1 -41,5 -62,11l-1 0 0 0c-34,9 -70,25 -105,45 -107,61 -213,170 -295,311 -81,141 -122,287 -122,411l159 0c0,-443 522,-888 522,-480l0 2616z"/>
    <g>
     <polygon class="fil1" points="423,1432 3001,2921 3001,4595 2840,4688 2679,4409 423,3107 423,1807 262,1525 "/>
     <path id="1" class="fil2" d="M3013 2899l13 22 -37 21 -2579 -1489 25 -42 2578 1488zm-24 43l24 -43c12,7 16,22 9,34 -6,12 -21,16 -33,9zm37 1653l-13 21 -36 -21 0 -1674 49 0 0 1674zm-49 0l49 0c0,14 -11,25 -25,25 -13,0 -24,-11 -24,-25zm-125 115l-33 -9 9 -34 161 -93 24 42 -161 94zm-24 -43l24 43c-12,6 -27,2 -33,-9 -7,-12 -3,-27 9,-34zm-170 -245l33 -34 9 9 161 279 -42 25 -161 -279zm42 -25l-42 25c-7,-12 -3,-27 9,-34 12,-7 27,-3 33,9zm-2290 -1269l-12 -21 37 -22 2256 1303 -24 43 -2257 -1303zm25 -43l-25 43c-11,-7 -15,-22 -8,-34 6,-11 21,-15 33,-9zm-37 -1278l46 -12 3 12 0 1300 -49 0 0 -1300zm49 0l-49 0c0,-14 11,-25 25,-25 13,0 24,11 24,25zm-207 -270l9 -33 34 9 161 282 -43 24 -161 -282zm43 -24l-43 24c-6,-12 -2,-27 9,-33 12,-7 27,-3 34,9zm127 -102l25 0 0 42 -161 93 -25 -42 161 -93zm25 42l-25 -42c12,-7 27,-3 34,9 7,11 3,26 -9,33z"/>
    </g>
    <g>
     <polygon class="fil1" points="262,1525 2840,3014 2840,4688 262,3200 "/>
     <path id="1" class="fil2" d="M2852 2992l12 22 -36 21 -2579 -1489 25 -42 2578 1488zm-24 43l24 -43c12,7 16,22 9,34 -7,12 -22,16 -33,9zm36 1653l-36 22 -13 -22 0 -1674 49 0 0 1674zm-49 0l49 0c0,14 -11,25 -24,25 -14,0 -25,-11 -25,-25zm-2566 -1467l-12 -21 37 -22 2578 1489 -24 43 -2579 -1489zm25 -43l-25 43c-11,-7 -15,-22 -9,-34 7,-11 22,-15 34,-9zm-37 -1653l37 -21 12 21 0 1675 -49 0 0 -1675zm49 0l-49 0c0,-14 11,-25 25,-25 13,0 24,11 24,25z"/>
    </g>
    <path class="fil1" d="M2170 4052c130,75 260,93 360,35 99,-57 149,-179 149,-329 0,-150 -50,-329 -149,-500 -99,-172 -229,-304 -358,-379 -131,-75 -261,-93 -360,-35 -100,57 -150,179 -150,329 0,150 50,329 149,500 99,172 229,304 359,379z"/>
    <g style="clip-path:url(#id0)">
     <g id="_1890937295088">
      <g>
       <path id="1" class="fil2" d="M2575 4059l0 0 -11 6 -10 5 -11 5 -11 4 -11 4 -11 3 -12 3 -11 2 -12 2 -11 2 -12 1 -12 0 -12 0 -12 0 -13 -1 -12 -1 -12 -1 -12 -2 -13 -3 -12 -2 -13 -3 -12 -4 -13 -4 -13 -4 -12 -5 -13 -5 -12 -5 -13 -6 -13 -6 -12 -6 -13 -7 -13 -7 25 -43 11 7 12 6 12 6 12 6 11 5 12 5 11 4 12 5 11 3 11 4 12 3 11 3 11 2 11 2 11 2 11 1 10 1 11 1 10 0 10 0 10 0 10 -1 10 -1 10 -2 9 -2 10 -2 9 -3 9 -3 9 -4 9 -3 9 -5 8 -4 0 0 25 42zm0 0l-25 -42c12,-7 27,-3 34,9 6,11 2,26 -9,33zm161 -350l0 0 0 14 -1 14 0 15 -1 14 -2 13 -1 14 -2 14 -3 13 -2 13 -3 13 -3 12 -4 13 -4 12 -4 12 -5 12 -4 11 -6 11 -5 11 -6 11 -6 10 -6 10 -7 10 -7 9 -8 9 -8 9 -8 8 -8 9 -9 7 -9 8 -10 6 -9 7 -10 6 -25 -42 8 -5 8 -6 8 -5 7 -6 8 -7 7 -6 6 -7 7 -8 6 -7 6 -8 6 -8 5 -9 6 -9 5 -9 4 -9 5 -10 4 -10 4 -10 4 -11 3 -10 3 -11 3 -12 3 -11 2 -12 2 -12 2 -12 1 -13 2 -13 1 -13 0 -13 1 -13 0 -13 0 0 49 0zm0 0l-49 0c0,-14 11,-25 25,-25 13,0 24,11 24,25zm-152 -513l0 0 10 17 9 16 8 17 9 16 8 17 8 16 7 17 8 16 7 17 6 16 7 17 6 16 5 17 6 16 5 16 5 17 5 16 4 16 4 16 4 16 3 16 3 16 3 16 3 16 2 15 2 16 1 15 2 15 1 15 0 15 1 15 0 15 -49 0 0 -14 -1 -14 0 -14 -1 -14 -1 -14 -2 -15 -2 -14 -2 -15 -2 -15 -3 -15 -3 -15 -3 -15 -4 -15 -4 -16 -4 -15 -4 -15 -5 -16 -5 -16 -5 -15 -6 -16 -5 -16 -6 -16 -7 -15 -7 -16 -6 -16 -8 -16 -7 -16 -8 -16 -8 -16 -9 -16 -8 -15 -9 -16 0 0 42 -25zm0 0l-42 25c-7,-12 -3,-27 9,-34 12,-6 27,-2 33,9zm-367 -387l0 0 12 7 13 8 12 8 13 8 12 9 13 9 12 10 13 9 12 10 12 11 12 10 12 11 12 12 12 11 12 12 12 12 12 12 11 13 12 13 11 13 11 14 11 14 11 14 11 14 11 14 10 15 11 15 10 16 10 15 10 16 10 16 9 16 -42 25 -9 -16 -10 -15 -9 -15 -10 -15 -10 -15 -10 -15 -10 -14 -10 -14 -11 -13 -10 -14 -11 -13 -10 -13 -11 -13 -11 -12 -11 -12 -12 -12 -11 -12 -11 -11 -11 -11 -12 -11 -11 -10 -12 -10 -11 -10 -12 -9 -12 -9 -12 -9 -11 -9 -12 -8 -12 -8 -11 -8 -12 -7 -12 -7 0 0 25 -42zm0 0l-25 42c-12,-7 -16,-22 -9,-33 7,-12 22,-16 34,-9zm-385 -36l0 0 11 -5 10 -6 11 -4 11 -5 11 -3 11 -4 11 -3 12 -2 11 -2 12 -1 12 -1 12 -1 12 0 12 0 12 1 13 1 12 2 12 2 13 2 12 3 13 3 12 3 13 4 12 4 13 5 13 5 12 6 13 5 13 6 12 7 13 7 13 7 -25 42 -12 -6 -11 -7 -12 -6 -12 -5 -11 -6 -12 -4 -12 -5 -11 -4 -11 -4 -12 -4 -11 -3 -11 -3 -11 -2 -11 -2 -11 -2 -11 -1 -10 -1 -11 -1 -10 0 -11 0 -10 1 -10 1 -9 1 -10 1 -10 2 -9 3 -9 2 -9 4 -9 3 -9 4 -9 4 -8 5 0 0 -25 -43zm0 0l25 43c-12,7 -27,3 -34,-9 -7,-12 -3,-27 9,-34zm-161 351l0 0 0 -15 0 -14 1 -14 1 -14 1 -14 2 -14 2 -13 2 -13 3 -13 3 -13 3 -13 4 -12 4 -13 4 -11 4 -12 5 -12 5 -11 6 -11 6 -10 6 -11 6 -10 7 -9 7 -10 8 -9 7 -9 8 -8 9 -8 9 -8 9 -7 9 -7 10 -7 10 -6 25 43 -9 5 -8 5 -7 6 -8 6 -7 6 -7 7 -7 7 -6 7 -6 8 -6 8 -6 8 -6 8 -5 9 -5 9 -5 10 -4 9 -4 10 -4 10 -4 11 -3 11 -3 11 -3 11 -3 12 -2 12 -2 12 -2 12 -2 12 -1 13 -1 13 -1 13 0 13 0 14 0 0 -49 0zm0 0l49 0c0,13 -11,24 -25,24 -13,0 -24,-11 -24,-24zm151 512l0 0 -9 -16 -9 -17 -9 -16 -8 -17 -8 -16 -8 -17 -8 -16 -7 -17 -7 -16 -6 -17 -7 -16 -6 -17 -6 -16 -5 -17 -5 -16 -5 -16 -5 -17 -4 -16 -4 -16 -4 -16 -3 -16 -3 -16 -3 -16 -3 -15 -2 -16 -2 -15 -2 -16 -1 -15 -1 -15 -1 -15 0 -15 0 -14 49 0 0 13 0 14 1 14 1 14 1 15 2 14 2 15 2 14 2 15 3 15 3 15 3 15 4 16 3 15 4 15 5 16 5 15 5 16 5 16 5 15 6 16 6 16 7 16 6 16 7 16 7 15 8 16 8 16 8 16 8 16 9 16 9 16 0 0 -43 24zm0 0l43 -24c7,11 3,26 -9,33 -12,7 -27,3 -34,-9zm368 388l0 0 -12 -8 -13 -8 -13 -8 -12 -8 -13 -9 -12 -9 -12 -9 -13 -10 -12 -10 -12 -10 -13 -11 -12 -11 -12 -11 -12 -12 -11 -12 -12 -12 -12 -12 -11 -13 -12 -13 -11 -13 -11 -13 -12 -14 -11 -14 -10 -14 -11 -15 -11 -15 -10 -15 -10 -15 -10 -16 -10 -16 -10 -16 -10 -16 43 -24 9 15 10 16 9 15 10 15 10 15 10 14 10 14 10 14 10 14 11 13 10 14 11 12 11 13 11 12 11 13 11 11 11 12 12 11 11 11 12 11 11 10 12 10 11 10 12 10 12 9 11 9 12 8 12 9 11 7 12 8 12 7 12 7 0 0 -25 43zm0 0l25 -43c11,7 15,22 9,34 -7,11 -22,16 -34,9z"/>
      </g>
      <g>
       <path class="fil2" d="M2336 3046l13 21 -37 22 -242 -140 25 -43 241 140zm-24 43l24 -43c12,7 16,22 9,34 -6,11 -21,15 -33,9zm37 257l-37 22 -12 -22 0 -279 49 0 0 279zm-49 0l49 0c0,14 -11,25 -25,25 -13,0 -24,-11 -24,-25zm278 119l12 21 -36 21 -242 -139 24 -43 242 140zm-24 42l24 -42c12,6 16,22 9,33 -7,12 -22,16 -33,9zm36 258l-36 21 -13 -21 0 -279 49 0 0 279zm-49 0l49 0c0,14 -11,25 -24,25 -14,0 -25,-11 -25,-25zm-229 -118l-12 -21 36 -22 242 140 -24 42 -242 -139zm24 -43l-24 43c-12,-7 -16,-22 -9,-34 7,-11 22,-16 33,-9zm13 301l-37 21 -12 -21 0 -279 49 0 0 279zm-49 0l49 0c0,13 -11,24 -25,24 -13,0 -24,-11 -24,-24zm-230 -119l-12 -21 37 -21 241 139 -24 43 -242 -140zm25 -42l-25 42c-12,-6 -16,-21 -9,-33 7,-12 22,-16 34,-9zm-37 -258l37 -21 12 21 0 279 -49 0 0 -279zm49 0l-49 0c0,-14 11,-25 25,-25 13,0 24,11 24,25zm-278 -118l-13 -22 37 -21 242 140 -25 42 -241 -139zm24 -43l-24 43c-12,-7 -16,-22 -9,-34 6,-12 21,-16 33,-9zm-37 -258l37 -21 12 21 0 279 -49 0 0 -279zm49 0l-49 0c0,-13 11,-24 25,-24 13,0 24,11 24,24zm230 119l12 21 -37 21 -241 -139 24 -43 242 140zm-25 42l25 -42c12,6 16,21 9,33 -7,12 -22,16 -34,9zm-12 -300l37 -22 12 22 0 279 -49 0 0 -279zm49 0l-49 0c0,-14 11,-25 25,-25 13,0 24,11 24,25z"/>
      </g>
     </g>
    </g>
    <g>
     <path class="fil2" d="M2542 4108l0 0 -11 6 -10 5 -11 5 -11 4 -11 4 -11 3 -11 3 -12 3 -12 2 -11 1 -12 1 -12 1 -12 0 -12 -1 -12 0 -13 -1 -12 -2 -12 -2 -13 -2 -12 -3 -13 -3 -12 -4 -13 -3 -12 -5 -13 -4 -13 -5 -12 -6 -13 -6 -13 -6 -12 -6 -13 -7 -13 -7 25 -42 12 6 11 6 12 6 12 6 11 5 12 5 12 5 11 4 11 4 12 3 11 3 11 3 11 3 11 2 11 1 11 2 10 1 11 0 10 1 11 0 10 -1 10 -1 9 -1 10 -2 10 -2 9 -2 9 -3 9 -3 9 -3 9 -4 9 -4 8 -5 0 0 25 42zm0 0l-25 -42c12,-7 27,-3 34,9 7,12 3,27 -9,33zm161 -350l0 0 0 14 0 15 -1 14 -1 14 -2 14 -1 13 -2 14 -2 13 -3 13 -3 13 -3 13 -4 12 -4 12 -4 12 -4 12 -5 11 -5 11 -6 11 -6 11 -6 10 -6 10 -7 10 -7 10 -8 9 -7 8 -9 9 -8 8 -9 8 -9 7 -9 7 -10 6 -10 6 -25 -42 8 -5 8 -5 8 -6 8 -6 7 -6 7 -7 7 -7 6 -7 6 -8 6 -8 6 -8 6 -9 5 -8 5 -9 4 -10 5 -10 4 -10 4 -10 4 -10 3 -11 3 -11 3 -11 3 -12 2 -12 2 -12 2 -12 2 -13 1 -12 1 -13 1 -13 0 -14 0 -13 0 0 49 0zm0 0l-49 0c0,-14 11,-25 25,-25 13,0 24,11 24,25zm-151 -512l0 0 9 16 9 16 9 17 8 16 8 17 8 17 8 16 7 17 7 16 6 17 7 16 6 17 6 16 5 16 5 17 5 16 5 16 4 17 4 16 4 16 3 16 3 15 3 16 3 16 2 15 2 16 2 15 1 15 1 16 1 14 0 15 0 15 -49 0 0 -14 0 -14 -1 -14 -1 -14 -1 -14 -2 -14 -2 -15 -2 -15 -2 -14 -3 -15 -3 -15 -3 -16 -4 -15 -3 -15 -5 -16 -4 -15 -5 -16 -5 -15 -5 -16 -5 -16 -6 -16 -6 -15 -7 -16 -6 -16 -7 -16 -7 -16 -8 -16 -8 -16 -8 -15 -8 -16 -9 -16 -9 -16 0 0 43 -24zm0 0l-43 24c-7,-12 -3,-27 9,-33 12,-7 27,-3 34,9zm-368 -388l0 0 12 7 13 8 13 8 12 9 13 9 12 9 12 9 13 10 12 10 12 10 12 11 13 11 12 11 12 11 11 12 12 12 12 13 11 12 12 13 11 14 11 13 12 14 11 14 10 14 11 15 11 15 10 15 10 15 10 16 10 15 10 16 10 17 -43 24 -9 -16 -10 -15 -9 -15 -10 -15 -10 -15 -10 -14 -10 -14 -10 -14 -10 -14 -11 -14 -11 -13 -10 -13 -11 -12 -11 -13 -11 -12 -11 -12 -12 -11 -11 -12 -11 -10 -12 -11 -11 -11 -12 -10 -11 -9 -12 -10 -12 -9 -11 -9 -12 -9 -12 -8 -12 -8 -11 -7 -12 -8 -12 -6 0 0 25 -43zm0 0l-25 43c-12,-7 -16,-22 -9,-34 7,-12 22,-16 34,-9zm-385 -35l0 0 11 -6 10 -5 11 -5 11 -4 11 -4 11 -3 12 -3 11 -3 12 -1 11 -2 12 -1 12 -1 12 0 12 1 12 0 13 1 12 2 12 2 13 2 12 3 13 3 12 4 13 4 13 4 12 4 13 5 12 6 13 6 13 6 12 6 13 7 13 7 -25 43 -12 -7 -11 -6 -12 -6 -12 -6 -11 -5 -12 -5 -11 -5 -12 -4 -11 -4 -12 -3 -11 -3 -11 -3 -11 -3 -11 -2 -11 -1 -11 -2 -10 -1 -11 0 -10 -1 -10 1 -10 0 -10 1 -10 1 -10 2 -9 2 -10 2 -9 3 -9 3 -9 3 -9 4 -9 4 -8 5 0 0 -25 -42zm0 0l25 42c-12,7 -27,3 -34,-9 -6,-12 -2,-27 9,-33zm-161 350l0 0 0 -14 0 -15 1 -14 1 -14 2 -14 1 -13 2 -14 3 -13 2 -13 3 -13 3 -13 4 -12 4 -12 4 -12 4 -12 5 -11 5 -11 6 -11 6 -11 6 -10 6 -10 7 -10 7 -9 8 -10 8 -8 8 -9 8 -8 9 -8 9 -7 10 -7 9 -6 10 -6 25 42 -8 5 -8 5 -8 6 -8 6 -7 6 -7 7 -6 7 -7 7 -6 8 -6 8 -6 8 -5 9 -6 8 -5 9 -4 10 -5 10 -4 10 -4 10 -4 10 -3 11 -3 11 -3 12 -3 11 -2 12 -2 12 -2 12 -2 13 -1 12 -1 13 0 13 -1 14 0 13 0 0 -49 0zm0 0l49 0c0,14 -11,25 -25,25 -13,0 -24,-11 -24,-25zm152 512l0 0 -10 -16 -9 -16 -8 -17 -9 -16 -8 -17 -8 -16 -7 -17 -8 -17 -7 -16 -6 -17 -7 -16 -6 -17 -5 -16 -6 -16 -5 -17 -5 -16 -5 -16 -4 -16 -4 -17 -4 -16 -3 -16 -3 -15 -3 -16 -3 -16 -2 -15 -2 -16 -1 -15 -2 -15 -1 -15 -1 -15 0 -15 0 -15 49 0 0 14 1 14 0 14 1 14 1 14 2 14 2 15 2 15 2 15 3 14 3 16 3 15 4 15 4 15 4 16 4 15 5 16 5 15 5 16 5 16 6 16 6 15 7 16 6 16 7 16 8 16 7 16 8 16 8 15 9 16 8 16 9 16 0 0 -42 24zm0 0l42 -24c7,12 3,27 -9,33 -12,7 -27,3 -33,-9zm367 388l0 0 -12 -7 -13 -8 -12 -8 -13 -9 -12 -8 -13 -10 -12 -9 -13 -10 -12 -10 -12 -10 -12 -11 -12 -11 -12 -11 -12 -11 -12 -12 -12 -12 -12 -13 -11 -12 -12 -13 -11 -14 -11 -13 -11 -14 -11 -14 -11 -14 -11 -15 -10 -15 -11 -15 -10 -15 -10 -15 -10 -16 -10 -16 -9 -17 42 -24 9 16 10 15 9 15 10 15 10 15 10 14 10 15 10 13 11 14 10 14 11 13 10 13 11 12 11 13 11 12 11 12 12 11 11 12 11 11 12 10 11 11 12 10 11 10 12 9 12 9 11 9 12 9 12 8 12 8 11 7 12 8 12 7 0 0 -25 42zm0 0l25 -42c12,6 16,21 9,33 -7,12 -22,16 -34,9z"/>
    </g>
    <path class="fil1" d="M876 3305c130,75 260,93 360,35 99,-57 149,-179 149,-329 0,-150 -49,-329 -148,-500 -100,-172 -229,-304 -359,-379 -130,-75 -261,-93 -360,-35 -100,57 -149,179 -149,329 0,150 49,329 148,500 99,172 229,304 359,379z"/>
    <g style="clip-path:url(#id1)">
     <g>
      <g>
       <path id="1" class="fil2" d="M1281 3312l0 0 -11 6 -10 5 -11 5 -11 4 -11 4 -11 3 -11 3 -12 2 -11 2 -12 2 -12 1 -12 0 -12 0 -12 0 -12 -1 -13 -1 -12 -1 -12 -2 -13 -2 -12 -3 -13 -3 -12 -4 -13 -4 -12 -4 -13 -5 -13 -5 -12 -5 -13 -6 -13 -6 -12 -6 -13 -7 -13 -7 25 -43 12 7 11 6 12 6 12 6 11 5 12 5 12 4 11 5 11 4 12 3 11 3 11 3 11 2 11 2 11 2 11 2 10 1 11 0 10 0 11 0 10 0 10 -1 9 -1 10 -2 10 -2 9 -2 9 -3 9 -3 9 -4 9 -3 9 -5 8 -4 0 0 25 42zm0 0l-25 -42c12,-7 27,-3 34,9 7,11 3,26 -9,33zm161 -350l0 0 0 14 0 15 -1 14 -1 14 -1 14 -2 13 -2 14 -2 13 -3 13 -3 13 -3 12 -4 13 -4 12 -4 12 -4 12 -5 11 -5 11 -6 11 -6 11 -6 10 -6 10 -7 10 -7 9 -8 9 -7 9 -8 9 -9 8 -9 7 -9 8 -9 7 -10 6 -10 6 -25 -42 9 -5 8 -6 7 -5 8 -6 7 -7 7 -6 7 -7 6 -8 6 -7 6 -8 6 -8 6 -9 5 -9 5 -9 5 -9 4 -10 4 -10 4 -10 4 -11 3 -10 3 -11 3 -12 3 -11 2 -12 2 -12 2 -12 2 -13 1 -13 1 -12 1 -14 0 -13 0 -13 0 0 49 0zm0 0l-49 0c0,-14 11,-25 25,-25 13,0 24,11 24,25zm-151 -513l0 0 9 17 9 16 9 17 8 16 8 17 8 16 8 17 7 16 7 17 6 16 7 17 6 16 6 17 5 16 5 17 5 16 5 16 4 16 4 16 4 16 3 16 3 16 3 16 3 16 2 15 2 16 2 15 1 15 1 15 1 15 0 15 0 15 -49 0 0 -14 0 -14 -1 -14 -1 -14 -1 -14 -2 -15 -2 -14 -2 -15 -2 -15 -3 -15 -3 -15 -3 -15 -4 -15 -3 -15 -4 -16 -5 -15 -5 -16 -4 -16 -6 -15 -5 -16 -6 -16 -6 -16 -7 -15 -6 -16 -7 -16 -7 -16 -8 -16 -8 -16 -8 -16 -8 -15 -9 -16 -9 -16 0 0 43 -25zm0 0l-43 25c-7,-12 -3,-27 9,-34 12,-6 27,-2 34,9zm-368 -387l0 0 12 7 13 8 13 8 12 9 13 8 12 9 12 10 13 9 12 11 12 10 13 10 12 11 12 12 12 11 11 12 12 12 12 12 11 13 12 13 11 13 11 14 12 14 11 14 10 14 11 14 11 15 10 15 10 16 10 15 10 16 10 16 10 16 -43 25 -9 -16 -10 -15 -9 -15 -10 -15 -10 -15 -10 -15 -10 -14 -10 -14 -10 -13 -11 -14 -10 -13 -11 -13 -11 -13 -11 -12 -11 -12 -11 -12 -11 -12 -12 -11 -11 -11 -12 -10 -11 -11 -12 -10 -11 -10 -12 -9 -12 -9 -11 -9 -12 -9 -12 -8 -11 -8 -12 -8 -12 -7 -12 -7 0 0 25 -42zm0 0l-25 42c-11,-7 -15,-22 -9,-33 7,-12 22,-16 34,-9zm-385 -36l0 0 11 -5 10 -6 11 -4 11 -5 11 -3 11 -4 12 -2 11 -3 12 -2 11 -1 12 -1 12 -1 12 0 12 0 13 1 12 1 12 2 12 2 13 2 12 3 13 3 12 3 13 4 13 5 12 4 13 5 13 6 12 5 13 6 13 7 12 7 13 7 -25 42 -11 -6 -12 -7 -12 -6 -12 -5 -11 -5 -12 -5 -11 -5 -12 -4 -11 -4 -11 -4 -12 -3 -11 -2 -11 -3 -11 -2 -11 -2 -11 -1 -10 -1 -11 -1 -10 0 -10 0 -10 1 -10 1 -10 1 -10 1 -9 2 -10 3 -9 2 -9 4 -9 3 -9 4 -9 4 -8 5 0 0 -25 -43zm0 0l25 43c-12,7 -27,3 -34,-9 -6,-12 -2,-27 9,-34zm-161 351l0 0 0 -15 1 -14 0 -14 1 -14 2 -14 1 -14 2 -13 3 -13 2 -13 3 -13 3 -13 4 -12 4 -12 4 -12 5 -12 4 -11 5 -12 6 -11 6 -10 6 -11 6 -10 7 -9 7 -10 8 -9 8 -9 8 -8 8 -8 9 -8 9 -7 10 -7 9 -7 10 -6 25 43 -8 5 -8 5 -8 6 -7 6 -8 6 -7 7 -6 7 -7 7 -6 8 -6 8 -6 8 -5 8 -6 9 -5 9 -4 10 -5 9 -4 10 -4 11 -4 10 -3 11 -3 11 -3 11 -3 12 -2 12 -2 12 -2 12 -1 12 -2 13 -1 13 0 13 -1 13 0 14 0 0 -49 0zm0 0l49 0c0,13 -11,24 -25,24 -13,0 -24,-11 -24,-24zm152 512l0 0 -10 -16 -9 -17 -8 -16 -9 -17 -8 -16 -8 -17 -7 -16 -8 -17 -7 -16 -6 -17 -7 -16 -6 -17 -5 -16 -6 -17 -5 -16 -5 -16 -5 -17 -4 -16 -4 -16 -4 -16 -3 -16 -3 -16 -3 -15 -3 -16 -2 -16 -2 -15 -1 -15 -2 -16 -1 -15 0 -15 -1 -14 0 -15 49 0 0 14 1 13 0 14 1 14 1 15 2 14 2 15 2 14 2 15 3 15 3 15 3 15 4 16 4 15 4 15 4 16 5 15 5 16 5 16 6 16 5 15 6 16 7 16 7 16 6 16 8 16 7 15 8 16 8 16 9 16 8 16 9 16 0 0 -42 24zm0 0l42 -24c7,11 3,26 -9,33 -12,7 -27,3 -33,-9zm367 388l0 0 -12 -8 -13 -7 -12 -9 -13 -8 -12 -9 -13 -9 -12 -9 -13 -10 -12 -10 -12 -10 -12 -11 -12 -11 -12 -11 -12 -12 -12 -11 -12 -13 -12 -12 -11 -13 -12 -13 -11 -13 -11 -13 -11 -14 -11 -14 -11 -14 -11 -15 -10 -15 -11 -15 -10 -15 -10 -16 -10 -16 -10 -16 -9 -16 42 -24 9 15 10 16 9 15 10 15 10 15 10 14 10 14 10 14 11 14 10 13 11 14 10 13 11 12 11 13 11 12 12 11 11 12 11 11 11 11 12 11 11 10 12 10 11 10 12 10 12 9 12 9 11 8 12 9 12 7 11 8 12 7 12 7 0 0 -25 43zm0 0l25 -43c12,7 16,22 9,34 -7,12 -22,16 -34,9z"/>
      </g>
      <g>
       <g>
        <path class="fil2" d="M729 2734l0 0 -3 1 -3 2 -4 2 -3 1 -4 1 -4 1 -3 1 -4 1 -4 1 -3 0 -4 0 -4 1 -4 0 -3 0 -4 -1 -4 0 -4 -1 -3 0 -4 -1 -4 -1 -4 -1 -3 -1 -4 -1 -4 -1 -3 -1 -4 -2 -4 -1 -3 -2 -4 -2 -4 -2 -3 -2 -4 -2 25 -42 2 1 3 2 3 1 2 2 3 1 3 1 2 1 3 1 2 1 3 0 2 1 2 1 3 0 2 1 2 0 2 0 3 0 2 0 2 1 2 -1 2 0 1 0 2 0 2 0 2 -1 1 0 2 -1 2 0 1 -1 2 0 1 -1 2 -1 0 0 24 43zm0 0l-24 -43c12,-7 27,-3 33,9 7,12 3,27 -9,34zm51 -106l0 0 0 4 0 4 0 4 -1 4 0 4 -1 4 0 4 -1 4 -1 3 0 4 -1 4 -1 4 -2 3 -1 4 -1 3 -2 4 -1 3 -2 4 -2 3 -2 3 -2 3 -2 3 -2 3 -2 3 -3 3 -3 3 -2 2 -3 3 -3 2 -3 2 -3 3 -4 2 -24 -43 1 -1 2 -1 1 -1 1 -1 2 -1 1 -1 1 -1 1 -2 1 -1 2 -2 1 -1 1 -2 1 -1 1 -2 1 -2 0 -2 1 -2 1 -2 1 -2 1 -3 0 -2 1 -2 0 -3 1 -2 0 -3 1 -3 0 -3 0 -2 1 -3 0 -3 0 -3 0 -3 0 0 49 0zm0 0l-49 0c0,-14 11,-25 25,-25 13,0 24,11 24,25zm-41 -141l0 0 2 4 3 5 2 4 2 5 2 4 3 4 2 5 2 5 1 4 2 5 2 4 2 4 1 5 2 4 1 5 2 4 1 5 1 4 1 5 1 4 1 5 1 4 1 4 0 5 1 4 1 4 0 5 0 4 1 4 0 4 0 4 0 5 -49 0 0 -4 0 -3 0 -3 -1 -3 0 -4 0 -3 -1 -3 0 -4 -1 -3 0 -4 -1 -4 -1 -3 -1 -4 -1 -3 -1 -4 -1 -4 -1 -4 -1 -3 -1 -4 -1 -4 -2 -4 -1 -3 -2 -4 -2 -4 -1 -4 -2 -4 -2 -4 -2 -3 -2 -4 -2 -4 -2 -4 -2 -4 0 0 43 -24zm0 0l-43 24c-7,-12 -3,-27 9,-33 12,-7 27,-3 34,9zm-102 -107l0 0 4 2 3 3 4 2 3 2 4 3 3 2 4 3 3 2 4 3 3 3 3 3 4 3 3 3 3 3 4 4 3 3 3 3 3 4 3 3 3 4 4 4 3 3 3 4 2 4 3 4 3 4 3 4 3 4 3 5 2 4 3 4 3 5 -43 24 -2 -4 -2 -3 -3 -4 -2 -4 -2 -3 -3 -4 -2 -3 -3 -4 -2 -3 -3 -3 -2 -3 -3 -3 -3 -3 -2 -3 -3 -3 -3 -3 -2 -3 -3 -3 -3 -2 -2 -3 -3 -2 -3 -3 -3 -2 -2 -2 -3 -2 -3 -2 -3 -2 -2 -2 -3 -2 -3 -2 -3 -2 -2 -1 0 0 24 -43zm0 0l-24 43c-12,-7 -16,-22 -9,-34 6,-12 22,-16 33,-9zm-117 -9l0 0 3 -2 4 -1 3 -2 4 -1 4 -2 3 -1 4 -1 3 0 4 -1 4 0 4 -1 3 0 4 0 4 0 4 0 3 1 4 0 4 1 4 0 3 1 4 1 4 1 3 1 4 2 4 1 4 1 3 2 4 2 3 1 4 2 4 2 3 2 -24 43 -3 -2 -3 -1 -2 -2 -3 -1 -3 -1 -2 -1 -3 -1 -2 -1 -3 -1 -2 -1 -2 0 -3 -1 -2 0 -3 -1 -2 0 -2 0 -2 -1 -2 0 -2 0 -2 0 -2 0 -2 0 -2 1 -2 0 -1 0 -2 1 -2 0 -1 1 -2 0 -1 1 -2 1 -1 1 0 0 -25 -43zm0 0l25 43c-12,6 -27,2 -34,-9 -7,-12 -3,-27 9,-34zm-51 106l0 0 0 -4 1 -4 0 -4 0 -4 1 -4 0 -4 1 -4 0 -4 1 -4 1 -3 1 -4 1 -4 1 -4 1 -3 2 -4 1 -3 2 -4 1 -3 2 -3 2 -3 2 -4 2 -3 3 -3 2 -3 2 -2 3 -3 3 -3 3 -2 3 -3 3 -2 3 -2 3 -2 25 43 -2 0 -1 1 -2 1 -1 1 -1 2 -1 1 -2 1 -1 1 -1 2 -1 1 -1 2 -1 1 -1 2 -1 2 -1 2 -1 2 -1 2 -1 2 0 2 -1 2 -1 3 0 2 -1 3 0 2 -1 3 0 2 -1 3 0 3 0 3 0 3 0 3 0 3 0 0 -50 0zm0 0l50 0c0,14 -11,25 -25,25 -14,0 -25,-11 -25,-25zm42 141l0 0 -3 -4 -2 -5 -2 -4 -3 -5 -2 -4 -2 -5 -2 -4 -2 -5 -2 -4 -2 -5 -2 -4 -1 -5 -2 -4 -1 -5 -2 -4 -1 -5 -1 -4 -1 -5 -2 -4 -1 -5 -1 -4 0 -4 -1 -5 -1 -4 -1 -4 0 -5 -1 -4 0 -4 0 -4 0 -5 -1 -4 0 -4 50 0 0 3 0 3 0 4 0 3 0 3 1 4 0 3 1 4 0 3 1 4 1 3 0 4 1 3 1 4 1 4 1 3 1 4 1 4 2 4 1 4 1 3 2 4 1 4 2 4 2 4 1 3 2 4 2 4 2 4 2 4 2 4 2 4 0 0 -42 24zm0 0l42 -24c7,11 3,26 -9,33 -11,7 -26,3 -33,-9zm101 106l0 0 -3 -2 -4 -2 -3 -2 -4 -2 -3 -3 -4 -2 -3 -3 -4 -3 -3 -3 -4 -2 -3 -3 -3 -3 -4 -3 -3 -4 -3 -3 -3 -3 -4 -4 -3 -3 -3 -4 -3 -3 -3 -4 -3 -4 -3 -4 -3 -3 -3 -4 -3 -4 -3 -4 -2 -5 -3 -4 -3 -4 -2 -5 -3 -4 42 -24 3 3 2 4 2 4 3 3 2 4 2 3 3 4 2 3 3 4 2 3 3 3 3 3 2 3 3 3 2 3 3 3 3 3 3 2 2 3 3 2 3 3 2 2 3 3 3 2 3 2 2 2 3 2 3 2 3 2 2 2 3 1 3 2 0 0 -25 42zm0 0l25 -42c12,7 16,22 9,33 -7,12 -22,16 -34,9z"/>
       </g>
       <g>
        <path class="fil2" d="M991 2583l0 0 -3 1 -4 2 -3 2 -4 1 -3 1 -4 1 -4 1 -3 1 -4 1 -4 0 -4 0 -3 1 -4 0 -4 -1 -4 0 -3 0 -4 -1 -4 0 -4 -1 -3 -1 -4 -1 -4 -1 -3 -1 -4 -1 -4 -1 -3 -2 -4 -1 -4 -2 -3 -2 -4 -2 -4 -2 -3 -2 24 -42 3 1 3 2 2 1 3 1 3 2 2 1 3 1 2 1 3 1 2 0 3 1 2 1 2 0 3 1 2 0 2 0 2 0 2 0 2 1 2 -1 2 0 2 0 2 0 2 0 1 -1 2 0 2 -1 1 0 2 -1 1 0 2 -1 1 -1 0 0 25 43zm0 0l-25 -43c12,-7 27,-3 34,9 7,12 3,27 -9,34zm51 -106l0 0 0 4 -1 4 0 4 0 4 0 4 -1 4 -1 4 0 4 -1 3 -1 4 -1 4 -1 4 -1 3 -1 4 -2 3 -1 4 -2 3 -1 4 -2 3 -2 3 -2 3 -2 3 -3 3 -2 3 -2 3 -3 3 -3 2 -3 3 -3 2 -3 2 -3 3 -3 2 -25 -43 2 -1 1 -1 2 -1 1 -1 1 -1 1 -1 2 -1 1 -2 1 -1 1 -2 1 -1 1 -2 1 -1 1 -2 1 -2 1 -2 1 -2 1 -2 0 -2 1 -3 1 -2 0 -2 1 -3 1 -2 0 -3 0 -3 1 -3 0 -2 0 -3 0 -3 0 -3 1 -3 0 0 49 0zm0 0l-49 0c0,-14 11,-25 24,-25 14,0 25,11 25,25zm-42 -141l0 0 3 4 2 5 2 4 3 4 2 5 2 4 2 5 2 4 2 5 2 5 2 4 1 4 2 5 1 5 2 4 1 4 1 5 2 4 1 5 1 4 1 5 0 4 1 4 1 5 1 4 0 4 1 5 0 4 0 4 0 4 1 4 0 5 -49 0 -1 -4 0 -3 0 -3 0 -3 0 -4 -1 -3 0 -3 -1 -4 0 -3 -1 -4 0 -3 -1 -4 -1 -4 -1 -3 -1 -4 -1 -4 -1 -4 -1 -3 -2 -4 -1 -4 -1 -4 -2 -3 -1 -4 -2 -4 -2 -4 -1 -4 -2 -4 -2 -3 -2 -4 -2 -4 -2 -4 -2 -4 0 0 42 -24zm0 0l-42 24c-7,-12 -3,-27 9,-33 11,-7 26,-3 33,9zm-101 -107l0 0 3 2 4 3 3 2 4 2 3 3 4 2 3 3 4 2 3 3 4 3 3 3 3 3 4 3 3 3 3 4 3 3 4 3 3 4 3 3 3 4 3 4 3 3 3 4 3 4 3 4 3 4 3 4 2 4 3 5 3 4 3 4 2 5 -42 24 -3 -4 -2 -3 -2 -4 -3 -4 -2 -3 -2 -4 -3 -3 -2 -4 -3 -3 -2 -3 -3 -3 -3 -3 -2 -3 -3 -3 -2 -3 -3 -3 -3 -3 -2 -3 -3 -2 -3 -3 -3 -2 -2 -3 -3 -2 -3 -2 -3 -2 -2 -2 -3 -2 -3 -2 -3 -2 -2 -2 -3 -2 -3 -1 0 0 25 -43zm0 0l-25 43c-11,-7 -15,-22 -9,-34 7,-12 22,-16 34,-9zm-117 -9l0 0 3 -2 3 -1 4 -2 4 -1 3 -2 4 -1 3 -1 4 0 4 -1 3 0 4 -1 4 0 4 0 3 0 4 0 4 1 4 0 3 1 4 0 4 1 4 1 3 1 4 1 4 2 3 1 4 1 4 2 3 2 4 1 4 2 3 2 4 2 -25 43 -2 -2 -3 -1 -3 -2 -2 -1 -3 -1 -3 -1 -2 -1 -3 -1 -2 -1 -3 -1 -2 0 -2 -1 -3 0 -2 -1 -2 0 -2 0 -3 -1 -2 0 -2 0 -2 0 -2 0 -1 0 -2 1 -2 0 -2 0 -1 1 -2 0 -2 1 -1 0 -2 1 -1 1 -2 1 0 0 -24 -43zm0 0l24 43c-12,6 -27,2 -33,-9 -7,-12 -3,-27 9,-34zm-51 106l0 0 0 -4 0 -4 0 -4 1 -4 0 -4 1 -4 0 -4 1 -4 1 -4 0 -3 1 -4 1 -4 2 -4 1 -3 1 -4 2 -3 1 -4 2 -3 2 -3 2 -3 2 -4 2 -3 2 -3 2 -3 3 -2 3 -3 2 -3 3 -2 3 -3 3 -2 3 -2 4 -2 24 43 -1 0 -2 1 -1 1 -1 1 -2 2 -1 1 -1 1 -1 1 -1 2 -1 1 -2 2 -1 1 -1 2 -1 2 0 2 -1 2 -1 2 -1 2 -1 2 -1 2 0 3 -1 2 0 3 -1 2 0 3 -1 2 0 3 0 3 -1 3 0 3 0 3 0 3 0 0 -49 0zm0 0l49 0c0,14 -11,25 -24,25 -14,0 -25,-11 -25,-25zm41 141l0 0 -2 -4 -3 -5 -2 -4 -2 -5 -2 -4 -3 -5 -2 -4 -2 -5 -1 -4 -2 -5 -2 -4 -2 -5 -1 -4 -2 -5 -1 -4 -1 -5 -2 -4 -1 -5 -1 -4 -1 -5 -1 -4 -1 -4 -1 -5 0 -4 -1 -4 -1 -5 0 -4 0 -4 -1 -4 0 -5 0 -4 0 -4 49 0 0 3 0 3 0 4 1 3 0 3 0 4 1 3 0 4 1 3 0 4 1 3 1 4 1 3 1 4 1 4 1 3 1 4 1 4 1 4 2 3 1 4 1 4 2 4 2 4 1 4 2 3 2 4 2 4 2 4 2 4 2 4 2 3 0 0 -43 25zm0 0l43 -25c7,12 3,27 -9,34 -12,7 -27,3 -34,-9zm102 106l0 0 -4 -2 -3 -2 -4 -2 -3 -2 -4 -3 -3 -2 -4 -3 -3 -3 -4 -3 -3 -2 -3 -3 -4 -3 -3 -3 -3 -4 -4 -3 -3 -3 -3 -4 -3 -3 -3 -4 -3 -3 -3 -4 -4 -4 -2 -4 -3 -3 -3 -4 -3 -4 -3 -5 -3 -4 -3 -4 -2 -4 -3 -5 -3 -4 43 -25 2 4 2 4 3 4 2 3 3 4 2 3 2 4 3 3 2 4 3 3 3 3 2 3 3 3 2 3 3 3 3 3 2 3 3 2 3 3 3 2 2 3 3 2 3 3 2 2 3 2 3 2 3 2 2 2 3 2 3 2 3 1 2 2 0 0 -24 42zm0 0l24 -42c12,7 16,22 9,33 -6,12 -21,16 -33,9z"/>
       </g>
       <g>
        <path class="fil2" d="M1252 3036l0 0 -3 1 -3 2 -4 2 -3 1 -4 1 -4 1 -3 1 -4 1 -4 1 -3 0 -4 0 -4 1 -4 0 -3 0 -4 -1 -4 0 -4 -1 -3 0 -4 -1 -4 -1 -3 -1 -4 -1 -4 -1 -4 -1 -3 -1 -4 -2 -4 -1 -3 -2 -4 -2 -3 -2 -4 -2 -4 -2 25 -42 3 1 2 2 3 1 3 2 2 1 3 1 2 1 3 1 2 1 3 0 2 1 3 1 2 0 2 1 2 0 3 0 2 0 2 0 2 1 2 0 2 -1 2 0 1 0 2 0 2 -1 2 0 1 -1 2 0 1 -1 2 0 1 -1 2 -1 0 0 24 43zm0 0l-24 -43c12,-7 27,-3 33,9 7,12 3,27 -9,34zm51 -106l0 0 0 4 0 4 0 4 -1 4 0 4 0 4 -1 4 -1 4 0 3 -1 4 -1 4 -1 4 -1 3 -2 4 -1 3 -2 4 -1 3 -2 4 -2 3 -2 3 -2 3 -2 3 -2 3 -2 3 -3 3 -2 3 -3 2 -3 3 -3 2 -3 2 -3 3 -4 2 -24 -43 1 -1 2 -1 1 -1 1 -1 2 -1 1 -1 1 -1 1 -2 2 -1 1 -2 1 -1 1 -2 1 -1 1 -2 1 -2 1 -2 0 -2 1 -2 1 -2 1 -3 0 -2 1 -2 1 -3 0 -2 1 -3 0 -3 0 -3 1 -2 0 -3 0 -3 0 -3 0 -3 0 0 49 0zm0 0l-49 0c0,-14 11,-25 25,-25 13,0 24,11 24,25zm-41 -141l0 0 2 4 3 5 2 4 2 5 3 4 2 4 2 5 2 5 2 4 1 5 2 4 2 5 1 4 2 4 1 5 2 4 1 5 1 4 1 5 1 4 1 5 1 4 1 4 0 5 1 4 1 4 0 5 0 4 1 4 0 4 0 4 0 5 -49 0 0 -4 0 -3 0 -3 0 -3 -1 -4 0 -3 -1 -3 0 -4 -1 -3 0 -4 -1 -4 -1 -3 -1 -4 0 -3 -1 -4 -1 -4 -2 -4 -1 -3 -1 -4 -1 -4 -2 -4 -1 -3 -2 -4 -1 -4 -2 -4 -2 -4 -2 -4 -2 -3 -2 -4 -2 -4 -2 -4 -2 -4 0 0 43 -24zm0 0l-43 24c-7,-12 -3,-27 9,-33 12,-7 27,-3 34,9zm-102 -107l0 0 4 2 3 3 4 2 3 2 4 3 3 2 4 3 3 2 4 3 3 3 4 3 3 3 3 3 3 3 4 4 3 3 3 3 3 4 3 3 4 4 3 4 3 3 3 4 3 4 3 4 2 4 3 4 3 4 3 5 2 4 3 4 3 5 -43 24 -2 -4 -2 -3 -3 -4 -2 -4 -2 -3 -3 -4 -2 -3 -3 -4 -2 -3 -3 -3 -2 -3 -3 -3 -3 -3 -2 -3 -3 -3 -3 -3 -2 -3 -3 -3 -3 -2 -2 -3 -3 -2 -3 -3 -3 -2 -2 -2 -3 -2 -3 -2 -3 -2 -2 -2 -3 -2 -3 -2 -2 -2 -3 -1 0 0 24 -43zm0 0l-24 43c-12,-7 -16,-22 -9,-34 7,-12 22,-16 33,-9zm-117 -9l0 0 4 -2 3 -1 4 -2 3 -1 4 -2 3 -1 4 -1 4 0 3 -1 4 0 4 -1 3 0 4 0 4 0 4 0 3 1 4 0 4 1 4 0 3 1 4 1 4 1 4 1 3 2 4 1 4 1 3 2 4 2 4 1 3 2 4 2 3 2 -24 43 -3 -2 -3 -1 -2 -2 -3 -1 -2 -1 -3 -1 -3 -1 -2 -1 -3 -1 -2 -1 -2 0 -3 -1 -2 0 -2 -1 -3 0 -2 0 -2 -1 -2 0 -2 0 -2 0 -2 0 -2 0 -2 1 -1 0 -2 0 -2 1 -2 0 -1 1 -2 0 -1 1 -2 1 -1 1 0 0 -25 -43zm0 0l25 43c-12,6 -27,2 -34,-9 -7,-12 -3,-27 9,-34zm-50 106l0 0 0 -4 0 -4 0 -4 0 -4 1 -4 0 -4 1 -4 0 -4 1 -4 1 -3 1 -4 1 -4 1 -4 1 -3 2 -4 1 -3 2 -4 1 -3 2 -3 2 -3 2 -4 2 -3 3 -3 2 -3 3 -2 2 -3 3 -3 3 -2 3 -3 3 -2 3 -2 3 -2 25 43 -2 0 -1 1 -1 1 -2 1 -1 2 -1 1 -1 1 -2 1 -1 2 -1 1 -1 2 -1 1 -1 2 -1 2 -1 2 -1 2 -1 2 -1 2 0 2 -1 2 -1 3 0 2 -1 3 0 2 -1 3 0 2 -1 3 0 3 0 3 0 3 0 3 0 3 0 0 -49 0zm0 0l49 0c0,14 -11,25 -25,25 -13,0 -24,-11 -24,-25zm41 141l0 0 -2 -4 -3 -5 -2 -4 -3 -5 -2 -4 -2 -5 -2 -4 -2 -5 -2 -4 -2 -5 -1 -4 -2 -5 -2 -4 -1 -5 -2 -4 -1 -5 -1 -4 -1 -5 -1 -4 -2 -5 0 -4 -1 -4 -1 -5 -1 -4 0 -4 -1 -5 0 -4 -1 -4 0 -4 0 -5 0 -4 0 -4 49 0 0 3 0 3 0 4 0 3 0 3 1 4 0 3 1 4 0 3 1 4 1 3 0 4 1 3 1 4 1 4 1 3 1 4 1 4 2 4 1 4 1 3 2 4 1 4 2 4 2 4 2 3 1 4 2 4 2 4 2 4 2 4 3 4 0 0 -43 24zm0 0l43 -24c6,11 2,26 -9,33 -12,7 -27,3 -34,-9zm101 106l0 0 -3 -2 -4 -2 -3 -2 -4 -2 -3 -3 -4 -2 -3 -3 -4 -3 -3 -3 -3 -2 -4 -3 -3 -3 -3 -3 -4 -4 -3 -3 -3 -3 -3 -4 -4 -3 -3 -4 -3 -3 -3 -4 -3 -4 -3 -4 -3 -3 -3 -4 -3 -4 -3 -4 -2 -5 -3 -4 -3 -4 -2 -5 -3 -4 43 -24 2 3 2 4 2 4 3 3 2 4 3 3 2 4 2 3 3 4 2 3 3 3 3 3 2 3 3 3 3 3 2 3 3 3 3 2 2 3 3 2 3 3 3 2 2 3 3 2 3 2 3 2 2 2 3 2 3 2 2 2 3 1 3 2 0 0 -25 42zm0 0l25 -42c12,7 16,22 9,33 -7,12 -22,16 -34,9z"/>
       </g>
       <g>
        <path class="fil2" d="M991 3187l0 0 -3 1 -4 2 -3 2 -4 1 -3 1 -4 1 -4 1 -3 1 -4 1 -4 0 -4 0 -3 1 -4 0 -4 0 -4 -1 -3 0 -4 -1 -4 0 -4 -1 -3 -1 -4 -1 -4 -1 -3 -1 -4 -1 -4 -1 -3 -2 -4 -1 -4 -2 -3 -2 -4 -2 -4 -1 -3 -3 24 -42 3 1 3 2 2 1 3 2 3 1 2 1 3 1 2 1 3 1 2 0 3 1 2 1 2 0 3 1 2 0 2 0 2 0 2 0 2 1 2 0 2 -1 2 0 2 0 2 0 1 -1 2 0 2 -1 1 0 2 -1 1 0 2 -1 1 -1 0 0 25 43zm0 0l-25 -43c12,-7 27,-3 34,9 7,12 3,27 -9,34zm51 -106l0 0 0 4 -1 4 0 4 0 4 0 4 -1 4 -1 4 0 4 -1 3 -1 4 -1 4 -1 4 -1 3 -1 4 -2 3 -1 4 -2 3 -1 4 -2 3 -2 3 -2 3 -2 3 -3 3 -2 3 -2 3 -3 3 -3 2 -3 3 -3 2 -3 2 -3 3 -3 2 -25 -43 2 -1 1 -1 2 -1 1 -1 1 -1 1 -1 2 -1 1 -2 1 -1 1 -2 1 -1 1 -2 1 -1 1 -2 1 -2 1 -2 1 -2 1 -2 0 -2 1 -3 1 -2 0 -2 1 -3 1 -2 0 -3 0 -3 1 -3 0 -2 0 -3 0 -3 0 -3 1 -3 0 0 49 0zm0 0l-49 0c0,-14 11,-25 24,-25 14,0 25,11 25,25zm-42 -141l0 0 3 4 2 5 2 4 3 5 2 4 2 5 2 4 2 5 2 4 2 5 2 4 1 5 2 4 1 5 2 4 1 4 1 5 2 4 1 5 1 4 1 5 0 4 1 4 1 5 1 4 0 4 1 5 0 4 0 4 0 4 1 4 0 5 -49 0 -1 -4 0 -3 0 -3 0 -3 0 -4 -1 -3 0 -3 -1 -4 0 -3 -1 -4 0 -3 -1 -4 -1 -4 -1 -3 -1 -4 -1 -4 -1 -4 -1 -3 -2 -4 -1 -4 -1 -4 -2 -3 -1 -4 -2 -4 -2 -4 -1 -4 -2 -4 -2 -3 -2 -4 -2 -4 -2 -4 -2 -4 0 0 42 -24zm0 0l-42 24c-7,-12 -3,-27 9,-33 11,-7 26,-3 33,9zm-101 -107l0 0 3 2 4 3 3 2 4 2 3 3 4 2 3 3 4 2 3 3 4 3 3 3 3 3 4 3 3 3 3 4 3 3 4 3 3 4 3 3 3 4 3 4 3 3 3 4 3 4 3 4 3 4 3 4 2 4 3 5 3 4 3 4 2 5 -42 24 -3 -4 -2 -3 -2 -4 -3 -4 -2 -3 -2 -4 -3 -3 -2 -4 -3 -3 -2 -3 -3 -3 -3 -3 -2 -3 -3 -3 -2 -3 -3 -3 -3 -3 -2 -3 -3 -2 -3 -3 -3 -2 -2 -3 -3 -2 -3 -2 -3 -2 -2 -2 -3 -2 -3 -2 -3 -2 -2 -2 -3 -2 -3 -1 0 0 25 -43zm0 0l-25 43c-11,-7 -15,-22 -9,-34 7,-12 22,-16 34,-9zm-117 -9l0 0 3 -2 3 -1 4 -2 3 -1 4 -2 4 -1 3 -1 4 0 4 -1 3 0 4 -1 4 0 4 0 3 0 4 0 4 1 4 0 3 1 4 1 4 0 4 1 3 1 4 1 4 2 3 1 4 1 4 2 3 2 4 1 4 2 3 2 4 2 -25 43 -2 -2 -3 -1 -3 -2 -2 -1 -3 -1 -3 -1 -2 -1 -3 -1 -2 -1 -3 -1 -2 0 -2 -1 -3 0 -2 -1 -2 0 -2 0 -3 -1 -2 0 -2 0 -2 0 -2 0 -1 0 -2 1 -2 0 -2 0 -1 1 -2 0 -2 1 -1 0 -2 1 -1 1 -2 1 0 0 -24 -43zm0 0l24 43c-12,6 -27,2 -33,-9 -7,-12 -3,-27 9,-34zm-51 106l0 0 0 -4 0 -4 0 -4 1 -4 0 -4 1 -4 0 -4 1 -4 1 -4 0 -3 1 -4 1 -4 2 -4 1 -3 1 -4 2 -3 1 -4 2 -3 2 -3 2 -3 2 -4 2 -3 2 -3 2 -3 3 -2 3 -3 2 -3 3 -2 3 -3 3 -2 3 -2 4 -2 24 43 -1 1 -2 0 -1 1 -1 1 -2 2 -1 1 -1 1 -1 1 -1 2 -1 1 -2 2 -1 1 -1 2 -1 2 0 2 -1 2 -1 2 -1 2 -1 2 -1 2 0 3 -1 2 0 3 -1 2 0 3 -1 2 0 3 0 3 -1 3 0 3 0 3 0 3 0 0 -49 0zm0 0l49 0c0,14 -11,25 -24,25 -14,0 -25,-11 -25,-25zm41 141l0 0 -2 -4 -3 -5 -2 -4 -2 -5 -2 -4 -3 -5 -2 -4 -2 -5 -1 -4 -2 -5 -2 -4 -2 -5 -1 -4 -2 -5 -1 -4 -1 -5 -2 -4 -1 -5 -1 -4 -1 -5 -1 -4 -1 -4 -1 -5 0 -4 -1 -4 -1 -5 0 -4 0 -4 -1 -4 0 -5 0 -4 0 -4 49 0 0 3 0 3 0 4 1 3 0 3 0 4 1 3 0 4 1 3 0 4 1 3 1 4 1 3 1 4 1 4 1 3 1 4 1 4 1 4 2 4 1 3 1 4 2 4 2 4 1 4 2 3 2 4 2 4 2 4 2 4 2 4 2 4 0 0 -43 24zm0 0l43 -24c7,11 3,26 -9,33 -12,7 -27,3 -34,-9zm102 106l0 0 -4 -2 -3 -2 -4 -2 -3 -2 -4 -3 -3 -2 -4 -3 -3 -3 -4 -3 -3 -2 -3 -3 -4 -3 -3 -3 -3 -4 -4 -3 -3 -3 -3 -4 -3 -3 -3 -4 -3 -3 -3 -4 -4 -4 -2 -3 -3 -4 -3 -4 -3 -4 -3 -4 -3 -5 -3 -4 -2 -4 -3 -5 -3 -4 43 -24 2 3 2 4 3 4 2 3 3 4 2 3 2 4 3 3 2 4 3 3 3 3 2 3 3 3 2 3 3 3 3 3 2 3 3 2 3 3 2 2 3 3 3 2 3 3 2 2 3 2 3 2 3 2 2 2 3 2 3 2 3 1 2 2 0 0 -24 42zm0 0l24 -42c12,7 16,22 9,33 -6,12 -21,16 -33,9z"/>
       </g>
      </g>
     </g>
    </g>
    <g>
     <path class="fil2" d="M1248 3362l0 0 -10 5 -11 5 -11 5 -11 4 -11 4 -11 3 -11 3 -12 3 -11 2 -12 1 -12 1 -12 1 -12 0 -12 0 -12 -1 -12 -1 -13 -2 -12 -2 -12 -2 -13 -3 -12 -3 -13 -4 -13 -3 -12 -5 -13 -4 -12 -5 -13 -6 -13 -5 -12 -7 -13 -6 -13 -7 -12 -7 24 -42 12 6 12 7 11 5 12 6 12 5 11 5 12 5 11 4 12 4 11 3 11 4 11 2 11 3 11 2 11 2 11 1 11 1 10 0 11 1 10 0 10 -1 10 -1 10 -1 9 -2 10 -2 9 -2 10 -3 9 -3 9 -3 8 -4 9 -4 8 -5 0 0 25 43zm0 0l-25 -43c12,-7 27,-3 34,9 7,12 3,27 -9,34zm162 -351l0 0 -1 14 0 15 -1 14 -1 14 -1 14 -2 14 -2 13 -2 13 -3 13 -3 13 -3 13 -4 12 -3 12 -5 12 -4 12 -5 11 -5 12 -6 10 -5 11 -6 10 -7 10 -7 10 -7 10 -7 9 -8 8 -8 9 -9 8 -9 8 -9 7 -9 7 -10 6 -10 7 -25 -43 9 -5 8 -5 7 -6 8 -6 7 -6 7 -7 7 -7 6 -7 7 -8 6 -8 5 -8 6 -8 5 -9 5 -9 5 -10 4 -9 4 -10 4 -11 4 -10 3 -11 4 -11 3 -11 2 -12 3 -12 2 -12 1 -12 2 -13 1 -12 1 -13 1 -13 0 -14 0 -13 0 0 50 0zm0 0l-50 0c0,-14 11,-25 25,-25 14,0 25,11 25,25zm-152 -512l0 0 9 16 9 17 9 16 8 17 8 16 8 17 8 16 7 17 7 16 7 17 6 16 6 17 6 16 5 17 6 16 4 16 5 16 4 17 4 16 4 16 4 16 3 16 2 15 3 16 2 16 2 15 2 15 1 16 1 15 1 15 0 14 1 15 -50 0 0 -14 0 -13 -1 -14 -1 -15 -1 -14 -2 -14 -1 -15 -3 -15 -2 -14 -3 -15 -3 -15 -3 -16 -3 -15 -4 -15 -4 -16 -5 -15 -4 -16 -5 -15 -6 -16 -5 -16 -6 -15 -6 -16 -6 -16 -7 -16 -7 -16 -7 -16 -8 -16 -8 -15 -8 -16 -8 -16 -9 -16 -9 -16 0 0 43 -24zm0 0l-43 24c-7,-12 -2,-27 9,-33 12,-7 27,-3 34,9zm-368 -388l0 0 13 8 12 7 13 8 12 9 13 9 12 9 13 9 12 10 12 10 13 10 12 11 12 11 12 11 12 12 12 11 11 12 12 13 12 13 11 12 11 14 12 13 11 14 11 14 11 14 10 15 11 15 10 15 11 15 10 16 9 15 10 16 10 17 -43 24 -9 -15 -9 -16 -10 -15 -9 -15 -10 -15 -10 -14 -10 -14 -11 -14 -10 -14 -11 -14 -10 -13 -11 -13 -11 -12 -11 -13 -11 -12 -11 -12 -11 -11 -12 -11 -11 -11 -11 -11 -12 -11 -11 -10 -12 -9 -12 -10 -11 -9 -12 -9 -12 -8 -12 -9 -11 -8 -12 -7 -12 -7 -12 -7 0 0 25 -43zm0 0l-25 43c-11,-7 -15,-22 -8,-34 6,-12 21,-16 33,-9zm-384 -35l0 0 10 -6 11 -5 10 -5 11 -4 11 -4 11 -3 12 -3 11 -2 12 -2 12 -2 12 -1 11 0 12 -1 13 1 12 0 12 2 12 1 13 2 12 2 13 3 12 3 13 4 12 4 13 4 12 5 13 5 13 5 12 6 13 6 13 6 12 7 13 7 -25 43 -11 -7 -12 -6 -12 -6 -11 -6 -12 -5 -12 -5 -11 -5 -12 -4 -11 -4 -11 -3 -12 -3 -11 -3 -11 -3 -11 -2 -11 -1 -10 -2 -11 -1 -10 0 -11 -1 -10 1 -10 0 -10 1 -10 1 -10 2 -9 2 -10 2 -9 3 -9 3 -9 3 -9 4 -8 5 -9 4 0 0 -24 -42zm0 0l24 42c-12,7 -27,3 -33,-9 -7,-12 -3,-27 9,-33zm-162 350l0 0 0 -14 1 -15 1 -14 1 -14 1 -14 2 -13 2 -14 2 -13 3 -13 2 -13 4 -13 3 -12 4 -12 4 -12 5 -12 5 -11 5 -11 5 -11 6 -11 6 -10 7 -10 6 -10 8 -9 7 -10 8 -8 8 -9 8 -8 9 -7 9 -8 10 -7 10 -6 10 -6 24 42 -8 5 -8 6 -8 5 -7 6 -7 7 -7 6 -7 7 -7 7 -6 8 -6 8 -6 8 -5 9 -5 8 -5 10 -5 9 -5 10 -4 10 -4 10 -3 10 -4 11 -3 11 -3 12 -2 11 -3 12 -2 12 -2 12 -1 13 -2 12 -1 13 0 13 -1 14 0 13 0 0 -49 0zm0 0l49 0c0,14 -11,25 -24,25 -14,0 -25,-11 -25,-25zm152 513l0 0 -9 -17 -9 -16 -9 -17 -9 -16 -8 -17 -8 -16 -7 -17 -7 -16 -7 -17 -7 -17 -6 -16 -6 -17 -6 -16 -6 -16 -5 -17 -5 -16 -4 -16 -5 -16 -4 -17 -3 -16 -4 -16 -3 -15 -3 -16 -2 -16 -3 -15 -1 -16 -2 -15 -1 -15 -2 -15 0 -15 -1 -15 0 -15 49 0 0 14 1 14 0 14 1 14 2 14 1 14 2 15 2 15 3 15 2 15 3 15 3 15 4 15 4 15 4 16 4 15 5 16 5 15 5 16 6 16 6 16 6 15 6 16 7 16 7 16 7 16 7 16 8 16 8 16 9 15 8 16 9 16 0 0 -42 25zm0 0l42 -25c7,12 3,27 -9,33 -11,7 -26,3 -33,-8zm368 387l0 0 -13 -7 -13 -8 -12 -8 -13 -9 -12 -8 -13 -10 -12 -9 -12 -10 -13 -10 -12 -10 -12 -11 -12 -11 -12 -11 -12 -11 -12 -12 -12 -12 -11 -13 -12 -12 -11 -13 -12 -14 -11 -13 -11 -14 -11 -14 -11 -14 -11 -15 -10 -14 -11 -16 -10 -15 -10 -15 -10 -16 -10 -16 -9 -16 42 -25 10 16 9 15 10 15 9 15 10 15 10 14 10 15 10 14 11 13 10 14 11 13 11 13 11 12 11 13 11 12 11 12 11 11 11 12 12 11 11 10 12 11 11 10 12 10 11 9 12 9 12 9 11 9 12 8 12 8 12 7 11 8 12 7 0 0 -24 42zm0 0l24 -42c12,6 16,21 9,33 -7,12 -22,16 -33,9z"/>
    </g>
    <g>
     <path class="fil2" d="M1861 2663l24 -43c12,7 16,22 9,34 -6,11 -21,15 -33,9zm-645 -372l25 -43 644 372 -24 43 -645 -372zm25 -43l-25 43c-12,-7 -16,-22 -9,-34 7,-12 22,-16 34,-9z"/>
    </g>
    <g>
     <path class="fil2" d="M1780 2709l25 -42c11,7 15,22 9,33 -7,12 -22,16 -34,9zm-483 -279l24 -42 484 279 -25 42 -483 -279zm24 -42l-24 42c-12,-7 -16,-22 -9,-33 7,-12 22,-16 33,-9z"/>
    </g>
    <g>
     <path class="fil2" d="M1780 2802l25 -42c11,7 15,22 9,33 -7,12 -22,16 -34,9zm-242 -139l25 -43 242 140 -25 42 -242 -139zm25 -43l-25 43c-11,-7 -15,-22 -8,-34 6,-12 21,-16 33,-9z"/>
    </g>
    <g>
     <path class="fil2" d="M1700 3686l24 -42c12,6 16,21 9,33 -7,12 -22,16 -33,9zm-403 -232l24 -43 403 233 -24 42 -403 -232zm24 -43l-24 43c-12,-7 -16,-22 -9,-34 7,-12 22,-16 33,-9z"/>
    </g>
    <g>
     <path class="fil2" d="M1700 3762l23 -43c12,6 17,21 11,33 -7,12 -22,17 -34,10zm-403 -215l24 -43 402 215 -23 43 -403 -215zm24 -43l-24 43c-11,-6 -16,-21 -10,-33 7,-12 22,-17 34,-10z"/>
    </g>
    <path class="fil0" d="M1538 2215c0,26 36,46 80,46 44,0 79,-20 79,-46l0 -1436c0,-26 -35,-46 -79,-46 -44,0 -80,20 -80,46l0 1436z"/>
   </g>
   <polygon class="fil3" points="40,6766 -6,6766 -6,6226 40,6226 "/>
   <polygon id="1" class="fil3" points="588,6766 543,6766 232,6304 232,6766 186,6766 186,6226 232,6226 543,6688 543,6226 588,6226 "/>
   <polygon id="2" class="fil3" points="1023,6513 771,6513 771,6766 725,6766 725,6226 1060,6226 1060,6265 771,6265 771,6474 1023,6474 "/>
   <path id="3" class="fil3" d="M1552 6525c0,50 -9,93 -26,131 -17,38 -42,67 -74,87 -32,20 -68,30 -110,30 -63,0 -114,-22 -153,-67 -39,-46 -58,-106 -58,-183l0 -56c0,-49 9,-93 26,-131 17,-38 42,-67 74,-87 32,-21 69,-31 110,-31 42,0 78,10 110,30 32,20 56,49 74,85 17,37 26,79 27,127l0 65zm-46 -58c0,-65 -15,-116 -44,-153 -29,-37 -70,-56 -121,-56 -50,0 -90,19 -120,56 -30,37 -45,89 -45,155l0 56c0,64 15,115 45,153 30,37 70,56 121,56 51,0 92,-19 121,-56 29,-37 43,-88 43,-154l0 -57z"/>
   <path id="4" class="fil3" d="M1868 6541l-157 0 0 225 -45 0 0 -540 175 0c58,0 103,14 135,42 32,28 49,67 49,117 0,34 -11,65 -31,91 -20,27 -47,45 -82,55l136 230 0 5 -49 0 -131 -225zm-157 -39l140 0c39,0 69,-11 93,-32 23,-22 35,-50 35,-85 0,-38 -13,-68 -37,-89 -24,-21 -58,-31 -102,-31l-129 0 0 237z"/>
   <polygon id="5" class="fil3" points="2209,6226 2408,6702 2608,6226 2669,6226 2669,6766 2623,6766 2623,6531 2627,6290 2426,6766 2391,6766 2191,6291 2194,6529 2194,6766 2149,6766 2149,6226 "/>
   <path id="6" class="fil3" d="M3104 6614l-245 0 -56 152 -48 0 205 -540 43 0 205 540 -48 0 -56 -152zm-231 -39l217 0 -109 -294 -108 294z"/>
   <polygon id="7" class="fil3" points="3333,6727 3599,6727 3599,6766 3287,6766 3287,6226 3333,6226 "/>
   <path id="8" class="fil3" d="M3992 6633c0,-30 -10,-54 -31,-71 -21,-17 -60,-34 -116,-50 -55,-15 -96,-33 -122,-51 -37,-26 -55,-61 -55,-103 0,-42 17,-75 51,-101 34,-26 77,-39 130,-39 36,0 68,7 97,21 28,14 50,33 66,58 15,25 23,52 23,83l-46 0c0,-37 -13,-67 -38,-89 -25,-23 -59,-34 -102,-34 -41,0 -74,9 -98,28 -25,18 -37,42 -37,72 0,27 11,50 33,67 22,17 57,32 106,46 48,13 85,27 110,41 25,14 44,31 56,51 13,20 19,43 19,70 0,43 -17,77 -51,103 -34,25 -79,38 -134,38 -38,0 -73,-6 -105,-20 -32,-14 -56,-33 -72,-57 -17,-25 -25,-53 -25,-84l46 0c0,38 14,68 42,90 29,22 67,33 114,33 42,0 76,-10 101,-28 26,-19 38,-43 38,-74z"/>
  </g>
 </g>
</svg>
