<?xml version="1.0" encoding="UTF-8"?>
<!DOCTYPE svg PUBLIC "-//W3C//DTD SVG 1.1//EN" "http://www.w3.org/Graphics/SVG/1.1/DTD/svg11.dtd">
<!-- Creator: CorelDRAW X7 -->
<svg xmlns="http://www.w3.org/2000/svg" xml:space="preserve" width="62.2298mm" height="67.7332mm" version="1.1" style="shape-rendering:geometricPrecision; text-rendering:geometricPrecision; image-rendering:optimizeQuality; fill-rule:evenodd; clip-rule:evenodd"
viewBox="0 0 6223 6773"
 xmlns:xlink="http://www.w3.org/1999/xlink">
 <defs>
  <style type="text/css">
   <![CDATA[
    .fil0 {fill:#FFF4F0}
    .fil1 {fill:#61003F;fill-rule:nonzero}
    .fil2 {fill:#61003F;fill-rule:nonzero}
   ]]>
  </style>
     <clipPath id="id0">
      <path d="M3831 4619c0,231 -322,417 -720,417 -397,0 -719,-186 -719,-417l0 -1413c0,-230 322,-416 719,-416 398,0 720,186 720,416l0 1413z"/>
     </clipPath>
 </defs>
 <g id="Layer_x0020_1">
  <metadata id="CorelCorpID_0Corel-Layer"/>
  <g id="_1891000303216">
   <g>
    <g>
     <path class="fil0" d="M3111 4c1034,0 1871,838 1871,1871 0,1033 -837,1870 -1871,1870 -1033,0 -1870,-837 -1870,-1870 0,-1033 837,-1871 1870,-1871z"/>
     <path id="1" class="fil1" d="M5005 1875l-46 0 0 0 -3 -95 -7 -94 -11 -93 -17 -91 -20 -89 -25 -88 -29 -86 -33 -83 -37 -82 -41 -80 -45 -77 -48 -75 -51 -73 -55 -69 -58 -67 -61 -65 -64 -61 -67 -58 -70 -55 -73 -51 -75 -48 -77 -45 -80 -41 -81 -37 -84 -33 -86 -29 -88 -25 -89 -20 -91 -16 -93 -12 -93 -7 -96 -3 0 -46 98 2 96 7 95 13 93 16 92 21 90 26 88 30 86 34 84 37 81 42 80 46 76 49 75 53 71 56 69 60 66 62 62 66 60 69 56 71 53 75 49 77 46 79 42 82 38 83 33 86 30 88 26 90 21 92 17 93 12 95 7 96 2 98 0 0zm-1894 1894l0 -47 0 0 96 -2 93 -8 93 -11 91 -17 89 -20 88 -25 86 -29 84 -33 81 -37 80 -41 77 -44 75 -48 73 -52 70 -55 67 -58 64 -61 61 -64 58 -67 55 -70 51 -73 48 -74 45 -78 41 -79 37 -82 33 -84 29 -86 25 -88 20 -89 17 -91 11 -92 7 -94 3 -95 46 0 -2 97 -7 96 -12 95 -17 93 -21 92 -26 90 -30 88 -33 86 -38 84 -42 81 -46 80 -49 77 -53 74 -56 71 -60 69 -62 66 -66 63 -69 59 -71 56 -75 53 -76 49 -80 46 -81 42 -84 38 -86 34 -88 29 -90 26 -92 21 -93 17 -95 12 -96 7 -98 3 0 0zm-1893 -1894l46 0 0 0 3 95 7 94 11 92 17 91 20 89 25 88 29 86 33 84 37 82 41 79 45 78 48 74 51 73 55 70 58 67 61 64 64 61 67 58 70 55 73 52 75 48 77 44 80 41 81 37 84 33 86 29 88 25 89 20 91 17 93 11 93 8 95 2 0 47 -97 -3 -96 -7 -95 -12 -93 -17 -92 -21 -90 -26 -88 -29 -86 -34 -84 -38 -81 -42 -80 -46 -76 -49 -75 -53 -71 -56 -69 -59 -66 -63 -62 -66 -60 -69 -56 -71 -53 -74 -49 -77 -46 -80 -42 -81 -38 -84 -34 -86 -29 -88 -26 -90 -21 -92 -17 -93 -12 -95 -7 -96 -2 -97 0 0zm1893 -1894l0 46 0 0 -95 3 -93 7 -93 12 -91 16 -89 20 -88 25 -86 29 -84 33 -81 37 -80 41 -77 45 -75 48 -73 51 -70 55 -67 58 -64 61 -61 65 -58 67 -55 69 -51 73 -48 75 -45 77 -41 80 -37 82 -33 83 -29 86 -25 88 -20 89 -17 91 -11 93 -7 94 -3 95 -46 0 2 -98 7 -96 12 -95 17 -93 21 -92 26 -90 29 -88 34 -86 38 -83 42 -82 46 -79 49 -77 53 -75 56 -71 60 -69 62 -66 66 -62 69 -60 71 -56 75 -53 76 -49 80 -46 81 -42 84 -37 86 -34 88 -30 90 -26 92 -21 93 -16 95 -13 96 -7 97 -2 0 0z"/>
    </g>
    <path class="fil0" d="M3831 4619c0,231 -322,417 -720,417 -397,0 -719,-186 -719,-417l0 -1413c0,-230 322,-416 719,-416 398,0 720,186 720,416l0 1413z"/>
    <g style="clip-path:url(#id0)">
     <g>
      <g>
       <path id="1" class="fil0" d="M3113 4203c397,0 719,186 719,416 0,231 -322,417 -719,417 -397,0 -719,-186 -719,-417 0,-230 322,-416 719,-416z"/>
       <path id="2" class="fil1" d="M3858 4619l-51 0 0 0 -1 -19 -3 -19 -4 -19 -5 -18 -8 -19 -9 -18 -10 -18 -12 -17 -13 -17 -15 -17 -17 -17 -17 -16 -19 -15 -21 -15 -21 -15 -23 -14 -24 -13 -26 -13 -26 -12 -27 -11 -29 -10 -29 -10 -30 -9 -31 -8 -32 -8 -33 -6 -33 -5 -34 -5 -35 -4 -35 -2 -36 -2 -36 0 0 -51 38 1 37 2 37 2 36 4 35 5 35 6 35 6 33 8 33 8 31 10 31 10 30 11 29 12 28 13 27 14 26 14 25 15 24 16 22 16 21 17 20 18 18 19 17 19 15 19 14 21 12 21 11 21 8 22 7 23 5 23 3 23 2 23 0 0zm-745 443l0 -51 0 0 36 0 36 -2 35 -2 35 -4 34 -5 33 -5 33 -7 32 -7 31 -8 30 -9 29 -10 29 -10 27 -11 26 -12 26 -13 24 -13 23 -14 21 -15 21 -15 19 -15 17 -16 17 -17 15 -17 13 -17 12 -18 10 -17 9 -18 8 -19 5 -18 4 -19 3 -19 1 -20 51 0 -2 24 -3 23 -5 23 -7 23 -8 22 -11 21 -12 21 -14 20 -15 20 -17 19 -18 19 -20 18 -21 17 -22 16 -24 16 -25 15 -26 14 -27 14 -28 13 -29 12 -30 11 -31 10 -31 9 -33 9 -33 8 -35 6 -35 6 -35 5 -36 4 -37 2 -37 2 -38 1 0 0zm-745 -443l51 0 0 0 1 20 3 19 4 19 5 18 8 19 9 18 10 17 12 18 13 17 15 17 17 17 17 16 19 15 21 15 21 15 23 14 24 13 26 13 26 12 27 11 29 10 29 10 30 9 31 8 32 7 33 7 33 5 34 5 35 4 35 2 36 2 36 0 0 51 -38 -1 -37 -2 -37 -2 -36 -4 -36 -5 -34 -6 -35 -6 -33 -8 -33 -9 -32 -9 -30 -10 -30 -11 -29 -12 -29 -13 -26 -14 -26 -14 -25 -15 -24 -16 -22 -16 -21 -17 -20 -18 -18 -19 -17 -19 -15 -20 -14 -20 -12 -21 -11 -21 -9 -22 -6 -23 -5 -23 -4 -23 -1 -24 0 0zm745 -442l0 51 0 0 -36 0 -36 2 -35 2 -35 4 -34 5 -33 5 -33 6 -32 8 -31 8 -30 9 -29 10 -29 10 -27 11 -26 12 -26 13 -24 13 -23 14 -21 15 -21 15 -19 15 -17 16 -17 17 -15 17 -13 17 -12 17 -10 18 -9 18 -8 19 -5 18 -4 19 -3 19 -1 19 -51 0 1 -23 4 -23 5 -23 6 -23 9 -22 11 -21 12 -21 14 -21 15 -19 17 -19 18 -19 20 -18 21 -17 22 -16 24 -16 25 -15 26 -14 26 -14 29 -13 29 -12 30 -11 30 -10 32 -10 33 -8 33 -8 35 -6 34 -6 36 -5 36 -4 37 -2 37 -2 38 -1 0 0z"/>
      </g>
      <g>
       <path class="fil0" d="M3113 4001c397,0 719,186 719,417 0,230 -322,417 -719,417 -397,0 -719,-187 -719,-417 0,-231 322,-417 719,-417z"/>
       <path id="1" class="fil1" d="M3858 4418l-51 0 0 0 -1 -20 -3 -19 -4 -19 -5 -18 -8 -19 -9 -18 -10 -17 -12 -18 -13 -17 -15 -17 -17 -17 -17 -16 -19 -15 -21 -15 -21 -15 -23 -14 -24 -13 -26 -12 -26 -12 -27 -12 -29 -10 -29 -10 -30 -9 -31 -8 -32 -7 -33 -7 -33 -5 -34 -5 -35 -3 -35 -3 -36 -2 -36 0 0 -50 38 0 37 2 37 2 36 4 35 5 35 6 35 6 33 8 33 9 31 9 31 10 30 11 29 12 28 13 27 14 26 14 25 15 24 16 22 16 21 17 20 18 18 19 17 19 15 20 14 20 12 21 11 21 8 22 7 23 5 23 3 23 2 24 0 0zm-745 442l0 -51 0 0 36 0 36 -2 35 -2 35 -4 34 -4 33 -6 33 -6 32 -8 31 -8 30 -9 29 -10 29 -10 27 -11 26 -12 26 -13 24 -13 23 -14 21 -15 21 -15 19 -15 17 -16 17 -17 15 -17 13 -17 12 -17 10 -18 9 -18 8 -19 5 -18 4 -19 3 -19 1 -19 51 0 -2 23 -3 24 -5 22 -7 23 -8 22 -11 21 -12 21 -14 21 -15 19 -17 19 -18 19 -20 18 -21 17 -22 16 -24 16 -25 15 -26 14 -27 14 -28 13 -29 12 -30 11 -31 10 -31 10 -33 8 -33 8 -35 6 -35 6 -35 5 -36 4 -37 2 -37 2 -38 1 0 0zm-745 -442l51 0 0 0 1 19 3 19 4 19 5 18 8 19 9 18 10 18 12 17 13 17 15 17 17 17 17 16 19 15 21 15 21 15 23 14 24 13 26 13 26 12 27 11 29 10 29 10 30 9 31 8 32 8 33 6 33 6 34 4 35 4 35 2 36 2 36 0 0 51 -38 -1 -37 -2 -37 -2 -36 -4 -36 -5 -34 -6 -35 -6 -33 -8 -33 -8 -32 -10 -30 -10 -30 -11 -29 -12 -29 -13 -26 -14 -26 -14 -25 -15 -24 -16 -22 -16 -21 -17 -20 -18 -18 -19 -17 -19 -15 -19 -14 -21 -12 -21 -11 -21 -9 -22 -6 -23 -5 -22 -4 -24 -1 -23 0 0zm745 -442l0 50 0 0 -36 0 -36 2 -35 3 -35 3 -34 5 -33 5 -33 7 -32 7 -31 8 -30 9 -29 10 -29 10 -27 12 -26 12 -26 12 -24 13 -23 14 -21 15 -21 15 -19 15 -17 16 -17 17 -15 17 -13 17 -12 18 -10 17 -9 18 -8 19 -5 18 -4 19 -3 19 -1 20 -51 0 1 -24 4 -23 5 -23 6 -23 9 -22 11 -21 12 -21 14 -20 15 -20 17 -19 18 -19 20 -18 21 -17 22 -16 24 -16 25 -15 26 -14 26 -14 29 -13 29 -12 30 -11 30 -10 32 -9 33 -9 33 -8 35 -6 34 -6 36 -5 36 -4 37 -2 37 -2 38 0 0 0z"/>
      </g>
      <g>
       <path class="fil0" d="M3113 3799c397,0 719,186 719,417 0,230 -322,417 -719,417 -397,0 -719,-187 -719,-417 0,-231 322,-417 719,-417z"/>
       <path id="1" class="fil1" d="M3858 4216l-51 0 0 0 -1 -20 -3 -19 -4 -18 -5 -19 -8 -18 -9 -18 -10 -18 -12 -18 -13 -17 -15 -17 -17 -16 -17 -16 -19 -16 -21 -15 -21 -14 -23 -14 -24 -14 -26 -12 -26 -12 -27 -12 -29 -10 -29 -10 -30 -9 -31 -8 -32 -7 -33 -7 -33 -5 -34 -5 -35 -3 -35 -3 -36 -2 -36 0 0 -50 38 0 37 2 37 3 36 3 35 5 35 6 35 7 33 7 33 9 31 9 31 10 30 12 29 12 28 12 27 14 26 14 25 15 24 16 22 16 21 18 20 17 18 19 17 19 15 20 14 20 12 21 11 21 8 22 7 23 5 23 3 23 2 24 0 0zm-745 442l0 -51 0 0 36 0 36 -2 35 -2 35 -4 34 -4 33 -6 33 -6 32 -8 31 -8 30 -9 29 -9 29 -11 27 -11 26 -12 26 -13 24 -13 23 -14 21 -15 21 -15 19 -15 17 -16 17 -17 15 -16 13 -18 12 -17 10 -18 9 -18 8 -19 5 -18 4 -19 3 -19 1 -19 51 0 -2 23 -3 24 -5 23 -7 22 -8 22 -11 21 -12 21 -14 21 -15 19 -17 20 -18 18 -20 18 -21 17 -22 16 -24 16 -25 15 -26 15 -27 13 -28 13 -29 12 -30 11 -31 10 -31 10 -33 8 -33 8 -35 7 -35 5 -35 5 -36 4 -37 3 -37 1 -38 1 0 0zm-745 -442l51 0 0 0 1 19 3 19 4 19 5 18 8 19 9 18 10 18 12 17 13 18 15 16 17 17 17 16 19 15 21 15 21 15 23 14 24 13 26 13 26 12 27 11 29 11 29 9 30 9 31 8 32 8 33 6 33 6 34 4 35 4 35 2 36 2 36 0 0 51 -38 -1 -37 -1 -37 -3 -36 -4 -36 -5 -34 -5 -35 -7 -33 -8 -33 -8 -32 -10 -30 -10 -30 -11 -29 -12 -29 -13 -26 -13 -26 -15 -25 -15 -24 -16 -22 -16 -21 -17 -20 -18 -18 -18 -17 -20 -15 -19 -14 -21 -12 -21 -11 -21 -9 -22 -6 -22 -5 -23 -4 -24 -1 -23 0 0zm745 -442l0 50 0 0 -36 0 -36 2 -35 3 -35 3 -34 5 -33 5 -33 7 -32 7 -31 8 -30 9 -29 10 -29 10 -27 12 -26 12 -26 12 -24 14 -23 14 -21 14 -21 15 -19 16 -17 16 -17 16 -15 17 -13 17 -12 18 -10 18 -9 18 -8 18 -5 19 -4 18 -3 19 -1 20 -51 0 1 -24 4 -23 5 -23 6 -23 9 -22 11 -21 12 -21 14 -20 15 -20 17 -19 18 -19 20 -17 21 -18 22 -16 24 -16 25 -15 26 -14 26 -14 29 -12 29 -12 30 -12 30 -10 32 -9 33 -9 33 -7 35 -7 34 -6 36 -5 36 -3 37 -3 37 -2 38 0 0 0z"/>
      </g>
      <g>
       <path class="fil0" d="M3113 3597c397,0 719,187 719,417 0,230 -322,417 -719,417 -397,0 -719,-187 -719,-417 0,-230 322,-417 719,-417z"/>
       <path id="1" class="fil1" d="M3858 4014l-51 0 0 0 -1 -19 -3 -19 -4 -19 -5 -19 -8 -18 -9 -18 -10 -18 -12 -18 -13 -17 -15 -17 -17 -16 -17 -16 -19 -16 -21 -15 -21 -14 -23 -14 -24 -14 -26 -12 -26 -12 -27 -11 -29 -11 -29 -10 -30 -9 -31 -8 -32 -7 -33 -7 -33 -5 -34 -5 -35 -3 -35 -3 -36 -1 -36 -1 0 -50 38 0 37 2 37 3 36 3 35 5 35 6 35 7 33 7 33 9 31 9 31 11 30 11 29 12 28 12 27 14 26 14 25 15 24 16 22 17 21 17 20 18 18 18 17 19 15 20 14 20 12 21 11 22 8 22 7 22 5 23 3 23 2 24 0 0zm-745 442l0 -50 0 0 36 -1 36 -1 35 -3 35 -4 34 -4 33 -6 33 -6 32 -7 31 -9 30 -9 29 -9 29 -11 27 -11 26 -12 26 -13 24 -13 23 -14 21 -14 21 -16 19 -15 17 -16 17 -17 15 -16 13 -18 12 -17 10 -18 9 -18 8 -18 5 -19 4 -19 3 -19 1 -19 51 0 -2 23 -3 24 -5 23 -7 22 -8 22 -11 22 -12 21 -14 20 -15 20 -17 19 -18 18 -20 18 -21 17 -22 17 -24 15 -25 15 -26 15 -27 13 -28 13 -29 12 -30 11 -31 10 -31 10 -33 8 -33 8 -35 7 -35 5 -35 5 -36 4 -37 3 -37 1 -38 1 0 0zm-745 -442l51 0 0 0 1 19 3 19 4 19 5 19 8 18 9 18 10 18 12 17 13 18 15 16 17 17 17 16 19 15 21 16 21 14 23 14 24 13 26 13 26 12 27 11 29 11 29 9 30 9 31 9 32 7 33 6 33 6 34 4 35 4 35 3 36 1 36 1 0 50 -38 -1 -37 -1 -37 -3 -36 -4 -36 -5 -34 -5 -35 -7 -33 -8 -33 -8 -32 -10 -30 -10 -30 -11 -29 -12 -29 -13 -26 -13 -26 -15 -25 -15 -24 -15 -22 -17 -21 -17 -20 -18 -18 -18 -17 -19 -15 -20 -14 -20 -12 -21 -11 -22 -9 -22 -6 -22 -5 -23 -4 -24 -1 -23 0 0zm745 -442l0 50 0 0 -36 1 -36 1 -35 3 -35 3 -34 5 -33 5 -33 7 -32 7 -31 8 -30 9 -29 10 -29 11 -27 11 -26 12 -26 12 -24 14 -23 14 -21 14 -21 15 -19 16 -17 16 -17 16 -15 17 -13 17 -12 18 -10 18 -9 18 -8 18 -5 19 -4 19 -3 19 -1 19 -51 0 1 -24 4 -23 5 -23 6 -22 9 -22 11 -22 12 -21 14 -20 15 -20 17 -19 18 -18 20 -18 21 -17 22 -17 24 -16 25 -15 26 -14 26 -14 29 -12 29 -12 30 -11 30 -11 32 -9 33 -9 33 -7 35 -7 34 -6 36 -5 36 -3 37 -3 37 -2 38 0 0 0z"/>
      </g>
      <g>
       <path class="fil0" d="M3113 3395c397,0 719,187 719,417 0,230 -322,417 -719,417 -397,0 -719,-187 -719,-417 0,-230 322,-417 719,-417z"/>
       <path id="1" class="fil1" d="M3858 3812l-51 0 0 0 -1 -19 -3 -19 -4 -19 -5 -19 -8 -18 -9 -18 -10 -18 -12 -18 -13 -17 -15 -17 -17 -16 -17 -16 -19 -16 -21 -15 -21 -14 -23 -14 -24 -13 -26 -13 -26 -12 -27 -11 -29 -11 -29 -10 -30 -9 -31 -8 -32 -7 -33 -6 -33 -6 -34 -5 -35 -3 -35 -3 -36 -1 -36 -1 0 -50 38 0 37 2 37 3 36 4 35 4 35 6 35 7 33 7 33 9 31 9 31 11 30 11 29 12 28 13 27 13 26 14 25 16 24 15 22 17 21 17 20 18 18 18 17 19 15 20 14 20 12 21 11 22 8 22 7 22 5 23 3 23 2 24 0 0zm-745 442l0 -50 0 0 36 -1 36 -1 35 -3 35 -4 34 -4 33 -6 33 -6 32 -7 31 -8 30 -9 29 -10 29 -11 27 -11 26 -12 26 -13 24 -13 23 -14 21 -14 21 -15 19 -16 17 -16 17 -16 15 -17 13 -17 12 -18 10 -18 9 -18 8 -18 5 -19 4 -19 3 -19 1 -19 51 0 -2 24 -3 23 -5 23 -7 22 -8 22 -11 22 -12 21 -14 20 -15 20 -17 19 -18 18 -20 18 -21 17 -22 17 -24 15 -25 15 -26 15 -27 13 -28 13 -29 12 -30 11 -31 11 -31 9 -33 9 -33 7 -35 7 -35 6 -35 4 -36 4 -37 3 -37 1 -38 1 0 0zm-745 -442l51 0 0 0 1 19 3 19 4 19 5 19 8 18 9 18 10 18 12 18 13 17 15 17 17 16 17 16 19 16 21 15 21 14 23 14 24 13 26 13 26 12 27 11 29 11 29 10 30 9 31 8 32 7 33 6 33 6 34 4 35 4 35 3 36 1 36 1 0 50 -38 -1 -37 -1 -37 -3 -36 -4 -36 -4 -34 -6 -35 -7 -33 -7 -33 -9 -32 -9 -30 -11 -30 -11 -29 -12 -29 -13 -26 -13 -26 -15 -25 -15 -24 -15 -22 -17 -21 -17 -20 -18 -18 -18 -17 -19 -15 -20 -14 -20 -12 -21 -11 -22 -9 -22 -6 -22 -5 -23 -4 -23 -1 -24 0 0zm745 -442l0 50 0 0 -36 1 -36 1 -35 3 -35 3 -34 5 -33 6 -33 6 -32 7 -31 8 -30 9 -29 10 -29 11 -27 11 -26 12 -26 13 -24 13 -23 14 -21 14 -21 15 -19 16 -17 16 -17 16 -15 17 -13 17 -12 18 -10 18 -9 18 -8 18 -5 19 -4 19 -3 19 -1 19 -51 0 1 -24 4 -23 5 -23 6 -22 9 -22 11 -22 12 -21 14 -20 15 -20 17 -19 18 -18 20 -18 21 -17 22 -17 24 -15 25 -16 26 -14 26 -13 29 -13 29 -12 30 -11 30 -11 32 -9 33 -9 33 -7 35 -7 34 -6 36 -4 36 -4 37 -3 37 -2 38 0 0 0z"/>
      </g>
      <g>
       <path class="fil0" d="M3113 3193c397,0 719,187 719,417 0,230 -322,417 -719,417 -397,0 -719,-187 -719,-417 0,-230 322,-417 719,-417z"/>
       <path id="1" class="fil1" d="M3858 3610l-51 0 0 0 -1 -19 -3 -19 -4 -19 -5 -19 -8 -18 -9 -18 -10 -18 -12 -17 -13 -18 -15 -17 -17 -16 -17 -16 -19 -16 -21 -15 -21 -14 -23 -14 -24 -13 -26 -13 -26 -12 -27 -11 -29 -11 -29 -10 -30 -9 -31 -8 -32 -7 -33 -6 -33 -6 -34 -4 -35 -4 -35 -3 -36 -1 -36 -1 0 -50 38 1 37 1 37 3 36 4 35 4 35 6 35 7 33 8 33 8 31 10 31 10 30 11 29 12 28 13 27 13 26 15 25 15 24 15 22 17 21 17 20 18 18 18 17 19 15 20 14 20 12 21 11 22 8 22 7 22 5 23 3 23 2 24 0 0zm-745 442l0 -50 0 0 36 -1 36 -1 35 -3 35 -3 34 -5 33 -5 33 -7 32 -7 31 -8 30 -9 29 -10 29 -11 27 -11 26 -12 26 -12 24 -14 23 -14 21 -14 21 -15 19 -16 17 -16 17 -16 15 -17 13 -17 12 -18 10 -18 9 -18 8 -18 5 -19 4 -19 3 -19 1 -19 51 0 -2 24 -3 23 -5 23 -7 22 -8 22 -11 22 -12 21 -14 20 -15 20 -17 19 -18 18 -20 18 -21 17 -22 17 -24 16 -25 15 -26 14 -27 13 -28 13 -29 12 -30 11 -31 11 -31 9 -33 9 -33 7 -35 7 -35 6 -35 4 -36 4 -37 3 -37 2 -38 0 0 0zm-745 -442l51 0 0 0 1 19 3 19 4 19 5 19 8 18 9 18 10 18 12 18 13 17 15 17 17 16 17 16 19 16 21 15 21 14 23 14 24 14 26 12 26 12 27 11 29 11 29 10 30 9 31 8 32 7 33 7 33 5 34 5 35 3 35 3 36 1 36 1 0 50 -38 0 -37 -2 -37 -3 -36 -4 -36 -4 -34 -6 -35 -7 -33 -7 -33 -9 -32 -9 -30 -11 -30 -11 -29 -12 -29 -13 -26 -13 -26 -14 -25 -15 -24 -16 -22 -17 -21 -17 -20 -18 -18 -18 -17 -19 -15 -20 -14 -20 -12 -21 -11 -22 -9 -22 -6 -22 -5 -23 -4 -23 -1 -24 0 0zm745 -442l0 50 0 0 -36 1 -36 1 -35 3 -35 4 -34 4 -33 6 -33 6 -32 7 -31 8 -30 9 -29 10 -29 11 -27 11 -26 12 -26 13 -24 13 -23 14 -21 14 -21 15 -19 16 -17 16 -17 16 -15 17 -13 18 -12 17 -10 18 -9 18 -8 18 -5 19 -4 19 -3 19 -1 19 -51 0 1 -24 4 -23 5 -23 6 -22 9 -22 11 -22 12 -21 14 -20 15 -20 17 -19 18 -18 20 -18 21 -17 22 -17 24 -15 25 -15 26 -15 26 -13 29 -13 29 -12 30 -11 30 -10 32 -10 33 -8 33 -8 35 -7 34 -6 36 -4 36 -4 37 -3 37 -1 38 -1 0 0z"/>
      </g>
      <g>
       <path class="fil0" d="M3113 2991c397,0 719,187 719,417 0,231 -322,417 -719,417 -397,0 -719,-186 -719,-417 0,-230 322,-417 719,-417z"/>
       <path id="1" class="fil1" d="M3858 3408l-51 0 0 0 -1 -19 -3 -19 -4 -19 -5 -19 -8 -18 -9 -18 -10 -18 -12 -17 -13 -18 -15 -16 -17 -17 -17 -16 -19 -15 -21 -15 -21 -15 -23 -14 -24 -13 -26 -13 -26 -12 -27 -11 -29 -11 -29 -9 -30 -9 -31 -9 -32 -7 -33 -6 -33 -6 -34 -4 -35 -4 -35 -2 -36 -2 -36 -1 0 -50 38 1 37 1 37 3 36 4 35 5 35 5 35 7 33 8 33 8 31 10 31 10 30 11 29 12 28 13 27 13 26 15 25 15 24 16 22 16 21 17 20 18 18 18 17 19 15 20 14 21 12 20 11 22 8 22 7 22 5 23 3 24 2 23 0 0zm-745 442l0 -50 0 0 36 -1 36 -1 35 -3 35 -3 34 -5 33 -5 33 -7 32 -7 31 -8 30 -9 29 -10 29 -10 27 -12 26 -12 26 -12 24 -14 23 -14 21 -14 21 -15 19 -16 17 -16 17 -16 15 -17 13 -17 12 -18 10 -18 9 -18 8 -18 5 -19 4 -18 3 -19 1 -20 51 0 -2 24 -3 23 -5 23 -7 23 -8 22 -11 21 -12 21 -14 20 -15 20 -17 19 -18 19 -20 17 -21 17 -22 17 -24 16 -25 15 -26 14 -27 14 -28 12 -29 12 -30 11 -31 11 -31 9 -33 9 -33 7 -35 7 -35 6 -35 5 -36 3 -37 3 -37 2 -38 0 0 0zm-745 -442l51 0 0 0 1 20 3 19 4 18 5 19 8 18 9 18 10 18 12 18 13 17 15 17 17 16 17 16 19 16 21 15 21 14 23 14 24 14 26 12 26 12 27 12 29 10 29 10 30 9 31 8 32 7 33 7 33 5 34 5 35 3 35 3 36 1 36 1 0 50 -38 0 -37 -2 -37 -3 -36 -3 -36 -5 -34 -6 -35 -7 -33 -7 -33 -9 -32 -9 -30 -11 -30 -11 -29 -12 -29 -12 -26 -14 -26 -14 -25 -15 -24 -16 -22 -17 -21 -17 -20 -17 -18 -19 -17 -19 -15 -20 -14 -20 -12 -21 -11 -21 -9 -22 -6 -23 -5 -23 -4 -23 -1 -24 0 0zm745 -442l0 50 0 0 -36 1 -36 2 -35 2 -35 4 -34 4 -33 6 -33 6 -32 7 -31 9 -30 9 -29 9 -29 11 -27 11 -26 12 -26 13 -24 13 -23 14 -21 15 -21 15 -19 15 -17 16 -17 17 -15 16 -13 18 -12 17 -10 18 -9 18 -8 18 -5 19 -4 19 -3 19 -1 19 -51 0 1 -23 4 -24 5 -23 6 -22 9 -22 11 -22 12 -20 14 -21 15 -20 17 -19 18 -18 20 -18 21 -17 22 -16 24 -16 25 -15 26 -15 26 -13 29 -13 29 -12 30 -11 30 -10 32 -10 33 -8 33 -8 35 -7 34 -5 36 -5 36 -4 37 -3 37 -1 38 -1 0 0z"/>
      </g>
      <g>
       <path class="fil0" d="M3113 2790c397,0 719,186 719,416 0,231 -322,417 -719,417 -397,0 -719,-186 -719,-417 0,-230 322,-416 719,-416z"/>
       <path id="1" class="fil1" d="M3857 3206l-50 0 0 0 -1 -19 -3 -19 -4 -19 -6 -18 -7 -19 -9 -18 -10 -18 -12 -17 -13 -17 -15 -17 -17 -17 -17 -16 -19 -15 -21 -15 -21 -15 -23 -14 -24 -13 -26 -13 -26 -12 -27 -11 -29 -10 -29 -10 -30 -9 -31 -8 -32 -8 -33 -6 -33 -5 -34 -5 -35 -4 -35 -2 -36 -2 -36 0 0 -51 38 1 37 2 37 2 36 4 35 5 35 6 35 6 33 8 33 8 31 10 31 10 30 11 29 12 28 13 27 14 26 14 25 15 24 16 22 16 21 17 20 18 18 19 17 19 15 19 14 21 12 21 11 21 8 22 7 23 5 23 3 23 1 23 0 0zm-744 443l0 -51 0 0 36 0 36 -2 35 -2 35 -4 34 -5 33 -5 33 -6 32 -8 31 -8 30 -9 29 -10 29 -10 27 -11 26 -12 26 -13 24 -13 23 -14 21 -15 21 -15 19 -15 17 -16 17 -17 15 -17 13 -17 12 -17 10 -18 9 -18 7 -19 6 -18 4 -19 3 -19 1 -20 50 0 -1 24 -3 23 -5 23 -7 23 -8 22 -11 21 -12 21 -14 21 -15 19 -17 19 -18 19 -20 18 -21 17 -22 16 -24 16 -25 15 -26 14 -27 14 -28 13 -29 12 -30 11 -31 10 -31 9 -33 9 -33 8 -35 6 -35 6 -35 5 -36 4 -37 2 -37 2 -38 1 0 0zm-745 -443l51 0 0 0 1 20 3 19 4 19 5 18 8 19 9 18 10 18 12 17 13 17 15 17 17 17 17 16 19 15 21 15 21 15 23 14 24 13 26 13 26 12 27 11 29 10 29 10 30 9 31 8 32 8 33 6 33 5 34 5 35 4 35 2 36 2 36 0 0 51 -38 -1 -37 -2 -37 -2 -36 -4 -36 -5 -34 -6 -35 -6 -33 -8 -33 -9 -32 -9 -30 -10 -30 -11 -30 -12 -28 -13 -27 -14 -25 -14 -25 -15 -24 -16 -22 -16 -21 -17 -20 -18 -18 -19 -17 -19 -15 -19 -14 -21 -12 -21 -11 -21 -9 -22 -6 -23 -6 -23 -3 -23 -1 -24 0 0zm745 -442l0 51 0 0 -36 0 -36 2 -35 2 -35 4 -34 5 -33 5 -33 6 -32 8 -31 8 -30 9 -29 10 -29 10 -27 11 -26 12 -26 13 -24 13 -23 14 -21 15 -21 15 -19 15 -17 16 -17 17 -15 17 -13 17 -12 17 -10 18 -9 18 -8 19 -5 18 -4 19 -3 19 -1 19 -51 0 1 -23 3 -23 6 -23 6 -23 9 -22 11 -21 12 -21 14 -21 15 -19 17 -19 18 -19 20 -18 21 -17 22 -16 24 -16 25 -15 25 -14 27 -14 28 -13 30 -12 30 -11 30 -10 32 -10 33 -8 33 -8 35 -6 34 -6 36 -5 36 -4 37 -2 37 -2 38 -1 0 0z"/>
      </g>
     </g>
    </g>
    <g>
     <path class="fil1" d="M3111 5062l0 -51 0 0 37 0 36 -2 35 -2 34 -4 34 -5 34 -5 32 -7 32 -7 31 -8 31 -9 29 -10 28 -10 28 -11 26 -12 25 -13 24 -13 23 -14 22 -15 20 -15 19 -15 18 -16 16 -17 15 -17 14 -17 11 -18 11 -17 9 -18 7 -19 6 -18 4 -19 2 -19 1 -20 51 0 -1 24 -3 23 -5 23 -7 23 -9 22 -10 21 -12 21 -14 20 -16 20 -17 19 -18 19 -20 18 -21 17 -22 16 -23 16 -25 15 -26 14 -27 14 -28 13 -29 12 -30 11 -31 10 -32 9 -32 9 -34 8 -34 6 -35 6 -36 5 -36 4 -36 2 -38 2 -38 1 0 0zm-744 -443l51 0 0 0 1 20 2 19 4 19 6 18 7 19 9 18 11 17 11 18 14 17 15 17 16 17 18 16 19 15 20 15 22 15 23 14 24 13 25 13 26 12 28 11 28 10 29 10 31 9 31 8 32 7 32 7 34 5 34 5 34 4 35 2 36 2 36 0 0 51 -37 -1 -38 -2 -36 -2 -36 -4 -36 -5 -35 -6 -34 -6 -34 -8 -32 -9 -32 -9 -31 -10 -30 -11 -29 -12 -28 -13 -27 -14 -26 -14 -25 -15 -23 -16 -22 -16 -21 -17 -20 -18 -18 -19 -17 -19 -16 -20 -14 -20 -12 -21 -10 -21 -9 -22 -7 -23 -5 -23 -3 -23 -1 -24 0 0zm0 0c0,-13 11,-25 25,-25 14,0 26,12 26,25l-51 0zm51 -1413l0 1413 -51 0 0 -1413 0 0 51 0zm-51 0c0,-13 11,-25 25,-25 14,0 26,12 26,25l-51 0zm744 -442l0 51 0 0 -36 0 -36 2 -35 2 -34 4 -34 5 -34 5 -32 6 -32 8 -31 8 -31 9 -29 10 -28 10 -28 11 -26 12 -25 13 -24 13 -23 14 -22 15 -20 15 -19 15 -18 16 -16 17 -15 17 -14 17 -11 17 -11 18 -9 18 -7 19 -6 18 -4 19 -2 19 -1 19 -51 0 1 -23 3 -23 5 -23 7 -23 9 -22 10 -21 12 -21 14 -21 16 -19 17 -19 18 -19 20 -18 21 -17 22 -16 23 -16 25 -15 26 -14 27 -14 28 -13 29 -12 30 -11 31 -10 32 -10 32 -8 34 -8 34 -6 35 -6 36 -5 36 -4 36 -2 38 -2 37 -1 0 0zm745 442l-51 0 0 0 -1 -19 -2 -19 -4 -19 -6 -18 -7 -19 -9 -18 -11 -18 -11 -17 -14 -17 -15 -17 -16 -17 -18 -16 -19 -15 -20 -15 -22 -15 -23 -14 -24 -13 -25 -13 -26 -12 -28 -11 -28 -10 -29 -10 -31 -9 -31 -8 -32 -8 -32 -6 -34 -5 -34 -5 -34 -4 -35 -2 -36 -2 -37 0 0 -51 38 1 38 2 36 2 36 4 36 5 35 6 34 6 34 8 32 8 32 10 31 10 30 11 29 12 28 13 27 14 26 14 25 15 23 16 22 16 21 17 20 18 18 19 17 19 16 19 14 21 12 21 10 21 9 22 7 23 5 23 3 23 1 23 0 0zm0 0c0,14 -11,26 -25,26 -14,0 -26,-12 -26,-26l51 0zm-51 1413l0 -1413 51 0 0 1413 0 0 -51 0zm51 0c0,14 -11,26 -25,26 -14,0 -26,-12 -26,-26l51 0z"/>
    </g>
    <g>
     <path class="fil1" d="M2931 3184c2,13 -7,24 -20,26 -13,2 -24,-7 -26,-20l46 -6zm-213 -1524l213 1524 -46 6 -213 -1524 46 -6zm-46 6c-1,-13 7,-24 20,-26 13,-2 25,7 26,20l-46 6z"/>
    </g>
    <g>
     <path class="fil1" d="M3338 3192c-3,12 -15,21 -28,18 -12,-3 -20,-15 -18,-28l46 10zm311 -1524l-311 1524 -46 -10 311 -1524 46 10zm-46 -10c3,-12 15,-20 28,-18 12,3 20,15 18,28l-46 -10z"/>
    </g>
    <g>
     <path class="fil1" d="M2707 1683c-11,6 -25,3 -32,-8 -6,-12 -2,-26 9,-32l23 40zm233 -134l-233 134 -23 -40 232 -135 35 21 -11 20zm-24 -41c11,-6 26,-2 32,9 7,11 3,25 -8,32l-24 -41zm-11 289l0 -268 46 0 0 268 -3 12 -43 -12zm46 0c0,13 -10,23 -23,23 -13,0 -23,-10 -23,-23l46 0zm230 -391l-233 403 -40 -23 232 -403 44 11 -3 12zm-41 -23c7,-12 21,-15 32,-9 11,7 15,21 9,32l-41 -23zm-3 549l0 -538 47 0 0 538 -3 11 -44 -11zm47 0c0,12 -10,23 -23,23 -13,0 -24,-11 -24,-23l47 0zm229 -392l-232 403 -41 -23 233 -403 44 12 -4 11zm-40 -23c7,-11 21,-15 32,-9 11,7 15,21 8,32l-40 -23zm-3 280l0 -268 47 0 0 268 -12 20 -35 -20zm47 0c0,13 -11,23 -24,23 -13,0 -23,-10 -23,-23l47 0zm221 -114l-233 134 -23 -40 232 -134 24 40zm-24 -40c11,-7 26,-3 32,8 7,11 3,26 -8,32l-24 -40z"/>
    </g>
    <g>
     <path class="fil1" d="M5005 1875l-46 0 0 0 -3 -95 -7 -94 -11 -93 -17 -91 -20 -89 -25 -88 -29 -86 -33 -83 -37 -82 -41 -80 -45 -77 -48 -75 -51 -73 -55 -69 -58 -67 -61 -65 -64 -61 -67 -58 -70 -55 -73 -51 -75 -48 -77 -45 -80 -41 -81 -37 -84 -33 -86 -29 -88 -25 -89 -20 -91 -16 -93 -12 -93 -7 -96 -3 0 -46 98 2 96 7 95 13 93 16 92 21 90 26 88 30 86 34 84 37 81 42 80 46 76 49 75 53 71 56 69 60 66 62 62 66 60 69 56 71 53 75 49 77 46 79 42 82 38 83 33 86 30 88 26 90 21 92 17 93 12 95 7 96 2 98 0 0zm-1894 1894l0 -47 0 0 96 -2 93 -8 93 -11 91 -17 89 -20 88 -25 86 -29 84 -33 81 -37 80 -41 77 -44 75 -48 73 -52 70 -55 67 -58 64 -61 61 -64 58 -67 55 -70 51 -73 48 -74 45 -78 41 -79 37 -82 33 -84 29 -86 25 -88 20 -89 17 -91 11 -92 7 -94 3 -95 46 0 -2 97 -7 96 -12 95 -17 93 -21 92 -26 90 -30 88 -33 86 -38 84 -42 81 -46 80 -49 77 -53 74 -56 71 -60 69 -62 66 -66 63 -69 59 -71 56 -75 53 -76 49 -80 46 -81 42 -84 38 -86 34 -88 29 -90 26 -92 21 -93 17 -95 12 -96 7 -98 3 0 0zm-1893 -1894l46 0 0 0 3 95 7 94 11 92 17 91 20 89 25 88 29 86 33 84 37 82 41 79 45 78 48 74 51 73 55 70 58 67 61 64 64 61 67 58 70 55 73 52 75 48 77 44 80 41 81 37 84 33 86 29 88 25 89 20 91 17 93 11 93 8 95 2 0 47 -97 -3 -96 -7 -95 -12 -93 -17 -92 -21 -90 -26 -88 -29 -86 -34 -84 -38 -81 -42 -80 -46 -76 -49 -75 -53 -71 -56 -69 -59 -66 -63 -62 -66 -60 -69 -56 -71 -53 -74 -49 -77 -46 -80 -42 -81 -38 -84 -34 -86 -29 -88 -26 -90 -21 -92 -17 -93 -12 -95 -7 -96 -2 -97 0 0zm1893 -1894l0 46 0 0 -95 3 -93 7 -93 12 -91 16 -89 20 -88 25 -86 29 -84 33 -81 37 -80 41 -77 45 -75 48 -73 51 -70 55 -67 58 -64 61 -61 65 -58 67 -55 69 -51 73 -48 75 -45 77 -41 80 -37 82 -33 83 -29 86 -25 88 -20 89 -17 91 -11 93 -7 94 -3 95 -46 0 2 -98 7 -96 12 -95 17 -93 21 -92 26 -90 29 -88 34 -86 38 -83 42 -82 46 -79 49 -77 53 -75 56 -71 60 -69 62 -66 66 -62 69 -60 71 -56 75 -53 76 -49 80 -46 81 -42 84 -37 86 -34 88 -30 90 -26 92 -21 93 -16 95 -13 96 -7 97 -2 0 0z"/>
    </g>
   </g>
   <polygon class="fil2" points="45,6770 -1,6770 -1,6230 45,6230 "/>
   <polygon id="1" class="fil2" points="593,6770 547,6770 237,6308 237,6770 191,6770 191,6230 237,6230 547,6692 547,6230 593,6230 "/>
   <polygon id="2" class="fil2" points="1085,6269 900,6269 900,6770 854,6770 854,6269 670,6269 670,6230 1085,6230 "/>
   <polygon id="3" class="fil2" points="1470,6511 1217,6511 1217,6731 1507,6731 1507,6770 1172,6770 1172,6230 1506,6230 1506,6269 1217,6269 1217,6472 1470,6472 "/>
   <path id="4" class="fil2" d="M1805 6545l-157 0 0 225 -46 0 0 -540 175 0c58,0 103,14 135,42 33,28 49,67 49,117 0,35 -10,65 -31,92 -20,26 -47,44 -81,55l135 229 0 5 -49 0 -130 -225zm-157 -38l140 0c38,0 69,-11 92,-33 23,-22 35,-50 35,-85 0,-38 -12,-67 -36,-88 -25,-21 -59,-32 -102,-32l-129 0 0 238z"/>
   <polygon id="5" class="fil2" points="2486,6770 2441,6770 2131,6308 2131,6770 2085,6770 2085,6230 2131,6230 2441,6692 2441,6230 2486,6230 "/>
   <path id="6" class="fil2" d="M2928 6637c0,-30 -10,-53 -31,-71 -21,-17 -59,-34 -115,-49 -56,-16 -97,-33 -122,-52 -37,-26 -55,-60 -55,-103 0,-41 17,-75 51,-100 34,-26 77,-39 130,-39 36,0 68,7 96,21 28,13 50,33 66,57 15,25 23,53 23,83l-46 0c0,-37 -13,-66 -38,-89 -25,-22 -59,-33 -101,-33 -41,0 -74,9 -99,27 -24,19 -36,43 -36,72 0,28 11,50 33,67 22,18 57,33 105,46 49,13 85,27 110,41 25,14 44,31 56,51 13,20 19,43 19,70 0,43 -17,77 -51,103 -34,25 -78,38 -134,38 -38,0 -73,-7 -104,-20 -32,-14 -56,-33 -73,-57 -16,-25 -24,-53 -24,-84l45 0c0,38 15,68 43,90 28,22 66,33 113,33 42,0 76,-10 101,-28 26,-19 38,-43 38,-74z"/>
   <polygon id="7" class="fil2" points="3472,6770 3426,6770 3426,6511 3118,6511 3118,6770 3073,6770 3073,6230 3118,6230 3118,6472 3426,6472 3426,6230 3472,6230 "/>
   <polygon id="8" class="fil2" points="3665,6770 3619,6770 3619,6230 3665,6230 "/>
   <path id="9" class="fil2" d="M3857 6551l0 219 -46 0 0 -540 184 0c56,0 100,15 133,43 32,29 49,69 49,119 0,50 -16,90 -47,117 -32,28 -77,42 -136,42l-137 0zm0 -39l138 0c44,0 78,-11 101,-32 23,-21 35,-50 35,-88 0,-37 -12,-67 -35,-89 -23,-22 -55,-33 -98,-34l-141 0 0 243z"/>
   <polygon id="10" class="fil2" points="4760,6511 4508,6511 4508,6731 4798,6731 4798,6770 4463,6770 4463,6230 4796,6230 4796,6269 4508,6269 4508,6472 4760,6472 "/>
   <polygon id="11" class="fil2" points="5058,6459 5210,6230 5265,6230 5086,6496 5270,6770 5215,6770 5058,6534 4900,6770 4846,6770 5031,6496 4852,6230 4906,6230 "/>
   <path id="12" class="fil2" d="M5404 6551l0 219 -46 0 0 -540 184 0c56,0 100,15 133,43 32,29 49,69 49,119 0,50 -16,90 -47,117 -32,28 -77,42 -136,42l-137 0zm0 -39l138 0c44,0 78,-11 101,-32 23,-21 35,-50 35,-88 0,-37 -12,-67 -35,-89 -23,-22 -55,-33 -98,-34l-141 0 0 243z"/>
   <path id="13" class="fil2" d="M6224 6529c0,50 -9,94 -26,131 -17,38 -42,67 -73,87 -32,20 -69,30 -111,30 -63,0 -114,-22 -152,-67 -39,-45 -59,-106 -59,-183l0 -55c0,-50 9,-93 27,-131 17,-38 42,-67 73,-88 32,-20 69,-30 110,-30 42,0 79,10 110,30 32,20 56,48 74,85 17,36 26,79 27,127l0 64zm-46 -58c0,-65 -14,-116 -44,-153 -29,-37 -69,-55 -121,-55 -50,0 -90,18 -119,55 -30,37 -45,89 -45,155l0 57c0,63 15,114 44,152 30,37 70,56 121,56 52,0 92,-19 121,-56 29,-37 43,-88 43,-154l0 -57z"/>
  </g>
 </g>
</svg>
