<?xml version="1.0" encoding="UTF-8"?>
<!DOCTYPE svg PUBLIC "-//W3C//DTD SVG 1.1//EN" "http://www.w3.org/Graphics/SVG/1.1/DTD/svg11.dtd">
<!-- Creator: CorelDRAW X7 -->
<svg xmlns="http://www.w3.org/2000/svg" xml:space="preserve" width="3.92681in" height="0.932677in" version="1.1" style="shape-rendering:geometricPrecision; text-rendering:geometricPrecision; image-rendering:optimizeQuality; fill-rule:evenodd; clip-rule:evenodd"
viewBox="0 0 3927 933"
 xmlns:xlink="http://www.w3.org/1999/xlink">
 <defs>
  <style type="text/css">
   <![CDATA[
    .fil0 {fill:#E6E7E8;fill-rule:nonzero}
   ]]>
  </style>
 </defs>
 <g id="Layer_x0020_1">
  <metadata id="CorelCorpID_0Corel-Layer"/>
  <path class="fil0" d="M240 554c-8,16 -19,28 -31,37 -14,11 -31,19 -49,23 -18,4 -37,4 -58,0 -21,-3 -37,-12 -46,-25 -9,-13 -14,-30 -13,-52 1,-19 8,-34 22,-45 12,-9 28,-17 49,-22 15,-4 32,-6 52,-7 15,-1 31,-2 47,-1 11,0 23,1 36,2 2,0 6,1 9,1l0 13 0 14 0 14 -2 8c-4,15 -9,29 -16,40zm1515 248l1365 0 0 30 -1365 0 0 -30zm-1755 0l1538 0 0 30 -1538 0 0 -30zm3276 103l74 -110 0 0c6,-10 9,-21 9,-32 0,-17 -6,-31 -18,-43 -12,-12 -26,-18 -43,-18 -14,0 -25,3 -36,11 -11,8 -18,18 -23,30 0,2 0,3 2,3l23 7c1,0 2,0 2,-1 3,-7 7,-12 12,-16 6,-4 13,-7 20,-7 9,0 17,4 23,10 7,7 10,15 10,24 0,6 -1,12 -4,17l-101 149c0,1 0,2 0,3 1,0 1,1 2,1l137 0c1,0 1,-1 1,-2l0 -24c0,-1 0,-2 -1,-2l-89 0zm248 -176c-24,0 -45,9 -62,26 -8,8 -14,17 -19,28 -4,11 -7,22 -7,34 0,25 9,45 26,63 8,8 17,14 28,18 11,5 22,7 34,7 25,0 45,-8 63,-25 8,-9 14,-18 19,-28 4,-11 7,-23 7,-35 0,-24 -9,-45 -26,-62 -8,-8 -18,-15 -28,-19 -11,-5 -23,-7 -35,-7zm0 204c-15,0 -30,-3 -45,-9 -13,-6 -26,-15 -36,-25 -11,-11 -19,-23 -25,-37 -6,-14 -9,-29 -9,-45 0,-15 3,-30 9,-45 6,-14 14,-26 25,-36 10,-11 23,-19 36,-25 15,-6 30,-9 45,-9 16,0 31,3 45,9 14,6 26,14 37,25 11,10 19,22 25,36 6,15 9,30 9,45 0,16 -3,31 -9,45 -6,14 -14,26 -25,37 -11,10 -23,19 -37,25 -14,6 -29,9 -45,9zm153 -198c-1,1 -1,2 0,3l16 17c1,1 2,1 3,0l10 -9 0 185c0,1 0,2 2,2l23 0c2,0 2,-1 2,-2l0 -227c0,-1 0,-2 -2,-2l-21 0c0,0 -1,0 -1,1l-32 32zm181 170c-11,0 -21,-4 -29,-12 -8,-8 -12,-18 -12,-29 0,-7 2,-13 5,-19l0 0 0 -1 3 -4c4,-5 8,-9 14,-12 6,-3 12,-5 19,-5 11,0 21,4 29,12 8,8 12,18 12,29l0 0c0,12 -5,21 -12,29 -8,8 -18,12 -29,12zm-4 -110l58 -90c0,-1 0,-2 0,-2 -1,-1 -2,-1 -2,-1l-28 0c-1,0 -2,0 -2,1l-78 120c-1,3 -3,5 -4,8l-1 0c-5,11 -8,21 -8,33 0,19 7,35 20,49 14,13 30,20 49,20 19,0 35,-7 48,-20 14,-14 20,-30 21,-48l0 -1 0 0c0,-19 -7,-35 -20,-49 -14,-13 -30,-20 -49,-20l-4 0zm-3547 -135c5,0 7,-3 6,-7 -3,-27 -6,-52 -8,-76 -2,-33 -4,-61 -4,-85 0,-8 0,-18 1,-28l0 -22 0 -23c-1,-17 -2,-32 -4,-45 -5,-33 -17,-59 -35,-77 -24,-25 -59,-37 -105,-37 -33,0 -63,6 -90,19 -10,4 -19,10 -28,15 -3,3 -7,5 -10,8 -2,1 -4,3 -6,5 -4,3 -4,7 0,10l22 21c3,2 6,2 9,0 1,-2 3,-3 5,-5 2,-1 5,-3 7,-5 7,-4 14,-8 22,-11 21,-9 44,-14 69,-14 34,0 58,8 74,24 17,17 26,50 27,97l0 0 -7 -1c-7,-1 -13,-1 -18,-1 -7,0 -14,-1 -21,-1 -16,0 -33,0 -49,1 -23,1 -43,4 -60,8 -27,7 -48,17 -65,31 -12,9 -20,20 -26,32 -7,12 -11,26 -12,41 -2,32 5,59 20,80 9,12 20,22 33,30 12,6 25,10 40,13 27,4 52,3 76,-2 25,-6 46,-17 64,-32 11,-8 21,-19 29,-31 2,20 4,40 7,63 0,3 2,5 6,5l31 0zm299 -43c-43,0 -80,-16 -111,-46 -30,-31 -46,-68 -46,-111 0,-43 16,-80 46,-111 31,-30 68,-46 111,-46 43,0 80,16 111,46 30,31 46,68 46,111 0,43 -16,80 -46,111 -31,30 -68,46 -111,46zm21 -355c-35,-4 -68,1 -100,15 -31,13 -57,33 -78,59l0 -329c0,-4 -2,-6 -6,-6l-30 0c-5,0 -7,2 -7,6l0 647c0,4 2,6 7,6l30 0c4,0 6,-2 6,-6l0 -70c19,24 42,42 69,55 28,14 57,21 88,21 29,0 57,-6 83,-18 25,-11 47,-27 65,-48 19,-21 33,-45 42,-71 9,-28 12,-57 9,-86 -6,-46 -25,-86 -58,-119 -34,-33 -74,-52 -120,-56zm643 376c-1,-27 -1,-61 -1,-102 0,-19 0,-36 0,-50 0,-19 0,-38 0,-56l0 -7 0 -8c-1,-6 -1,-12 -2,-17 -2,-11 -5,-23 -9,-33 -9,-23 -22,-42 -40,-58 -17,-17 -36,-29 -59,-36 -11,-4 -22,-6 -33,-7l-5 -1 -4 0c-1,0 -3,0 -4,0l-4 0c-6,-1 -11,-1 -17,0 -21,2 -41,8 -60,18 -17,9 -31,21 -44,35l-4 5 0 -315c0,-4 -2,-6 -6,-6l-30 0c-5,0 -7,2 -7,6l0 646c0,4 2,6 7,6l30 0c4,0 6,-2 6,-6l0 -210 0 0 1 -18c0,-2 0,-4 0,-8l1 -3c0,-1 0,-2 0,-4 1,-3 1,-7 2,-10 1,-9 5,-18 9,-26 5,-11 12,-21 20,-30 9,-11 21,-20 34,-27 14,-7 29,-11 45,-13 4,0 8,0 12,0l4 0c1,0 2,0 3,0l3 0 3 0c9,2 17,4 25,7 17,5 31,14 44,27 13,12 22,26 29,43 3,8 5,16 6,24 1,4 1,9 2,13l0 6 0 7c0,43 0,78 -1,106 0,41 0,75 0,102l0 16c0,4 2,6 6,6l31 0c4,0 7,-2 7,-6l0 -16zm136 22c-3,0 -5,-2 -5,-6l0 -386c0,-5 2,-7 5,-7l31 0c5,0 7,2 7,7l0 386c0,4 -2,6 -7,6l-31 0zm47 -527c0,9 -3,16 -9,22 -6,7 -13,10 -22,10 -9,0 -16,-3 -22,-10 -6,-6 -9,-13 -9,-22 0,-8 3,-16 9,-22 6,-6 13,-9 22,-9 9,0 16,3 22,9 6,6 9,14 9,22zm209 697c-1,3 -3,4 -6,4l-33 0c-2,0 -4,-1 -6,-2 -1,-2 -1,-4 0,-6l66 -165 -163 -394c-1,-2 -1,-4 0,-6 2,-2 3,-3 5,-3l34 0c3,0 5,2 6,4l141 341 137 -341c2,-2 4,-4 6,-4l34 0c2,0 3,1 5,3 1,2 1,4 0,6l-226 563zm515 -276c-9,16 -19,28 -31,37 -15,11 -31,19 -49,23 -18,4 -38,4 -59,0 -21,-3 -36,-12 -45,-25 -10,-13 -14,-30 -13,-52 0,-19 8,-34 22,-45 11,-9 27,-17 48,-22 16,-4 33,-6 53,-7 15,-1 30,-2 46,-1 11,0 23,1 36,2 3,0 6,1 10,1l0 13 -1 14 1 14 -3 8c-4,15 -9,29 -15,40zm67 106c4,0 7,-3 6,-7 -3,-27 -6,-52 -8,-76 -3,-33 -4,-61 -4,-85 0,-8 0,-18 0,-28l0 -22 0 -23c0,-17 -1,-32 -3,-45 -5,-33 -17,-59 -35,-77 -24,-25 -59,-37 -106,-37 -32,0 -62,6 -90,19 -9,4 -19,10 -27,15 -4,3 -7,5 -10,8 -2,1 -5,3 -7,5 -3,3 -3,7 0,10l23 21c3,2 6,2 8,0 2,-2 4,-3 5,-5 3,-1 6,-3 8,-5 7,-4 14,-8 22,-11 20,-9 43,-14 68,-14 35,0 59,8 75,24 17,17 26,50 26,97l0 0 -7 -1c-7,-1 -13,-1 -17,-1 -7,0 -14,-1 -21,-1 -17,0 -33,0 -50,1 -22,1 -42,4 -59,8 -27,7 -49,17 -65,31 -12,9 -21,20 -27,32 -6,12 -10,26 -11,41 -2,32 4,59 19,80 9,12 20,22 34,30 11,6 24,10 40,13 26,4 52,3 76,-2 24,-6 46,-17 64,-32 11,-8 20,-19 29,-31 1,20 4,40 6,63 1,3 3,5 7,5l31 0zm429 -22c0,-27 0,-60 0,-101 0,-7 0,-15 0,-24l0 -12 0 -13c0,-11 0,-20 0,-27 0,-10 0,-19 0,-27l0 -15c-1,-6 -1,-11 -2,-17 -1,-11 -4,-22 -7,-33 -8,-22 -19,-42 -36,-59 -16,-16 -36,-29 -58,-37 -10,-4 -21,-7 -33,-9l-4 0 -4 0 -5 -1c-1,0 -3,0 -4,0l-3 0 -4 0 -5 0 -4 1c-21,1 -41,7 -60,16 -17,9 -31,20 -44,34l-3 4 0 -53c0,-4 -2,-6 -6,-6l-31 0c-4,0 -6,2 -6,6l0 389c0,4 2,6 6,6l31 0c4,0 6,-2 6,-6l0 -224 1 -10c0,-2 0,-4 0,-7l0 -3 1 -4c0,-4 0,-7 1,-11 2,-8 5,-17 9,-25 5,-11 12,-21 20,-29 9,-11 21,-19 33,-25 14,-8 29,-12 45,-13l3 0 3 0 1 0 2 0 3 0c1,0 2,0 4,0l2 1 3 0 3 1c9,1 17,3 25,6 16,6 30,16 42,28 12,13 21,27 26,44 3,8 5,16 6,24 0,4 0,8 0,12l0 15c0,16 0,34 0,54 0,8 0,16 0,25l0 13 0 11c0,41 0,74 -1,101l0 16c0,4 3,6 7,6l31 0c4,0 6,-2 6,-6l0 -16zm297 -32c-2,-3 -5,-3 -9,-1 -21,13 -40,16 -57,7 -19,-10 -29,-29 -29,-58l0 -250 63 0c4,0 6,-2 6,-7l0 -30c0,-5 -2,-7 -6,-7l-63 0 0 -113c0,-5 -2,-7 -6,-7l-31 0c-5,0 -7,2 -7,7l1 113 -56 0c-4,0 -6,2 -6,7l0 30c0,5 2,7 6,7l56 0 0 250c0,22 4,41 14,59 9,17 22,29 39,37 12,7 26,10 40,10 21,0 42,-7 62,-20 3,-2 4,-5 1,-9l-18 -25zm288 -342c-9,-1 -17,-2 -26,-2 -45,0 -83,17 -114,50l0 -46c0,-4 -2,-7 -6,-7l-31 0c-4,0 -6,3 -6,7l0 388c0,4 2,6 6,6l31 0c4,0 6,-2 6,-6l0 -234c0,-32 11,-59 33,-81 23,-23 50,-34 81,-34 6,0 12,1 17,2 4,0 7,-1 8,-5l6 -30c1,-4 -1,-7 -5,-8zm64 396c-3,0 -6,-2 -6,-6l0 -386c0,-5 3,-7 6,-7l31 0c5,0 7,2 7,7l0 386c0,4 -2,6 -7,6l-31 0zm47 -527c0,9 -3,16 -9,22 -6,7 -13,10 -22,10 -9,0 -16,-3 -22,-10 -6,-6 -9,-13 -9,-22 0,-8 3,-16 9,-22 6,-6 13,-9 22,-9 9,0 16,3 22,9 6,6 9,14 9,22zm260 282l147 -142c3,-2 3,-4 2,-7 -1,-2 -3,-4 -6,-4l-43 0c-1,0 -3,1 -4,2l-170 162 0 -417c0,-5 -2,-7 -6,-7l-31 0c-4,0 -6,2 -6,7l0 645c0,4 2,6 6,6l31 0c4,0 6,-2 6,-6l0 -168 43 -41 176 213c1,1 2,2 5,2l39 0c3,0 5,-1 6,-4 1,-2 1,-4 -1,-7l-194 -234zm245 245c-4,0 -6,-2 -6,-6l0 -386c0,-5 2,-7 6,-7l31 0c4,0 6,2 6,7l0 386c0,4 -2,6 -6,6l-31 0zm47 -527c0,9 -3,16 -10,22 -6,7 -13,10 -21,10 -9,0 -17,-3 -23,-10 -6,-6 -9,-13 -9,-22 0,-8 3,-16 9,-22 6,-6 14,-9 23,-9 8,0 15,3 21,9 7,6 10,14 10,22z"/>
 </g>
</svg>
