<svg id="Layer_1" data-name="Layer 1" xmlns="http://www.w3.org/2000/svg" viewBox="0 0 110 85.58"><defs><style>.cls-1{fill:#403092;}.cls-1,.cls-2,.cls-3,.cls-4{fill-rule:evenodd;}.cls-2{fill:#fff;}.cls-3{fill:#fae00b;}.cls-4{fill:#24b34b;}</style></defs><title>BalajiWafers</title><path class="cls-1" d="M106,42.36a4,4,0,1,1-4,4,4,4,0,0,1,4-4Zm0,.5a3.53,3.53,0,1,1-3.52,3.53A3.54,3.54,0,0,1,106,42.86Zm-1.18,3.86h1.64c.8,0,.88.48.88.9a5.47,5.47,0,0,0,.13,1.25h.82v-.11c-.2-.12-.24-.23-.25-.5l-.05-.91c0-.7-.3-.82-.58-.94a1.24,1.24,0,0,0,.69-1.19c0-1.06-.83-1.35-1.64-1.35h-2.32v5h.68Zm0-2.27h1.68c.34,0,.91.06.91.84s-.53.86-1,.86h-1.57Z" transform="translate(0 -12.21)"/><path class="cls-1" d="M0,74.35A14.38,14.38,0,0,1,10.52,84.71h10l6.73,12.91A63.15,63.15,0,0,1,54,91.22c9.64,0,19.56,3.08,26.6,6.57l6.58-13.08h10a14.4,14.4,0,0,1,10.52-10.36V55.23A14.52,14.52,0,0,1,97.1,44.79H71.3a20.37,20.37,0,0,0,3.92-12h0A20.55,20.55,0,0,0,54.68,12.21h0A20.57,20.57,0,0,0,34.14,32.74h0a20.5,20.5,0,0,0,3.91,12H10.52A14.39,14.39,0,0,1,0,55.14Z" transform="translate(0 -12.21)"/><path class="cls-2" d="M6.37,76.18l.4.33.39.35.38.36.37.36.35.39.34.4.32.4.32.42.3.43.29.44.27.44.26.46.23.47.24.48.2.48.19.49.18.5,0,.12h8.48l-.58-1.1H12.21L12.05,82l-.23-.52-.24-.51-.26-.5-.27-.5-.3-.47-.3-.47-.32-.46-.33-.45-.36-.42-.36-.43-.38-.41-.39-.4-.4-.38-.42-.37-.43-.36L6.61,75l-.44-.33-.47-.31L5.23,74l-.49-.28-.49-.27-.51-.25L3.24,73l-.53-.21-.4-.15V56.85l.4-.15.53-.22.5-.22L4.25,56l.49-.26.49-.29.47-.29.47-.32.44-.32.45-.35.43-.36.42-.36.4-.39.39-.4.38-.4.36-.43.36-.43.33-.44.32-.46.3-.48.3-.48.27-.49.26-.5.24-.5.23-.52.16-.43H40c-.35-.36-.68-.72-1-1.1H11.44l0,.11-.18.5L11,47.1l-.2.49-.24.48-.23.46L10.1,49l-.27.45-.29.44-.3.42-.32.42-.32.41-.34.4-.35.37-.37.38-.38.35L6.77,53l-.4.34L6,53.63l-.41.31-.44.29-.44.29-.46.25L3.74,55l-.46.23-.48.21-.49.21-.5.18-.5.17-.1,0V73.43l.1,0,.5.16.5.2L2.8,74l.48.23.46.23.46.24.46.27.44.28.44.29.41.3ZM87.74,83.5h8.44l0-.12.18-.5.19-.49.21-.48.23-.48.23-.47.27-.46.26-.44.29-.44.3-.43.32-.42.32-.4.35-.4.34-.39.37-.36.39-.36.38-.35.4-.33.42-.33.41-.3.44-.29L103,75l.45-.27.46-.24.47-.23.48-.23.49-.19.49-.2.5-.16.1,0V56.14l-.1,0-.5-.17-.5-.18-.49-.21-.48-.22-.46-.23-.47-.26-.45-.26-.45-.29-.43-.29-.42-.31-.41-.32-.41-.34-.38-.36-.38-.35-.37-.38-.35-.38-.34-.4-.32-.42-.32-.41-.3-.43-.29-.45L97.53,49l-.27-.46L97,48.08l-.23-.48-.21-.49-.19-.5-.18-.5,0-.11H70.36c-.33.38-.66.74-1,1.1H95.41l.16.43.23.52.24.5.25.51.28.49.28.48.31.48.32.46.34.44.35.44.36.43.38.42.4.39.39.39.42.38.44.36.44.35.44.32.47.33.47.29.49.29.5.27.49.26.52.23.52.22.41.16v15.7l-.4.15-.52.21-.51.24-.5.25-.5.27-.48.28-.48.3-.47.31L101,75l-.44.34-.44.36-.42.37-.39.38-.4.4-.38.41-.36.43-.35.42-.33.45-.33.46-.31.47-.29.47-.28.5-.25.5-.24.51-.23.52-.16.43H88.29Z" transform="translate(0 -12.21)"/><path class="cls-2" d="M54.68,14.63A18.12,18.12,0,1,1,36.56,32.75,18.16,18.16,0,0,1,54.68,14.63Zm0-1.19A19.31,19.31,0,1,1,35.37,32.75,19.35,19.35,0,0,1,54.68,13.44Z" transform="translate(0 -12.21)"/><path class="cls-2" d="M54.68,40.9a5.74,5.74,0,0,1-5.16,1.61c-12.64-4.86-17.89-11.87-1.43-19.33,1.95-.71,4.19-.26,6.53,1.56l.06,0,.06,0c2.34-1.82,4.58-2.27,6.53-1.56,16.47,7.46,11.21,14.47-1.43,19.33a5.74,5.74,0,0,1-5.15-1.6Z" transform="translate(0 -12.21)"/><path class="cls-1" d="M43.3,29H66.05a3.62,3.62,0,0,1,3.55,3.66h0a3.62,3.62,0,0,1-3.55,3.67H43.3a3.61,3.61,0,0,1-3.54-3.67h0A3.62,3.62,0,0,1,43.3,29Z" transform="translate(0 -12.21)"/><path class="cls-2" d="M42.46,31.86v2.19a1,1,0,0,1-.29.32c-.26.32,0,.71.45.69h3.05A1.35,1.35,0,0,0,46.6,33a2.33,2.33,0,0,0-.8-.58c-.09,0-.1-.14,0-.24,1-.61.54-1.61-.37-1.82a2.5,2.5,0,0,0-1.29.21.33.33,0,0,1-.43-.06.49.49,0,0,0-.63-.09l-.79.34a.34.34,0,0,0-.08.57.76.76,0,0,1,.25.52Zm1.67.23c-.14,0-.24-.05-.25-.2v-.5c.06-.23.57-.34.79-.24a.41.41,0,0,1,.18.68.88.88,0,0,1-.72.26Zm-.25,2V33c0-.21.12-.26.31-.25.54-.06.91.07,1.06.44a.82.82,0,0,1-.21,1c-.4.3-1.07.26-1.16-.18Zm3.23.09,1.29-2.51a.21.21,0,0,0-.08-.32c-.17-.14-.39-.34-.08-.58a3.24,3.24,0,0,0,.95-.33.39.39,0,0,1,.49.07c.27.34,1.29,2.3,1.93,3.45.57.61.4.89,0,1a3.49,3.49,0,0,0-1.26,0c-.31,0-.48-.14-.43-.39l.18-.35c.1-.31,0-.48-.23-.46H48.37a.4.4,0,0,0-.14.58c.53.44.13.85-.37.69a2.39,2.39,0,0,0-.81,0c-.32,0-.49-.19-.26-.54a1.05,1.05,0,0,0,.32-.31ZM48.68,33l.46-1,.53,1Zm8.37,1.14,1.29-2.51a.21.21,0,0,0-.08-.32c-.17-.14-.39-.34-.08-.58a3.14,3.14,0,0,0,1-.33.39.39,0,0,1,.49.07c.27.34,1.29,2.3,1.93,3.45.57.61.4.89,0,1a3.43,3.43,0,0,0-1.25,0c-.32,0-.49-.14-.44-.39l.18-.35c.1-.31,0-.48-.23-.46H58.31a.4.4,0,0,0-.14.58c.53.44.13.85-.37.69A2.39,2.39,0,0,0,57,35c-.32,0-.49-.19-.25-.54a1.14,1.14,0,0,0,.31-.31ZM58.62,33l.46-1,.54,1Zm-5.93-1.57v2.38a.47.47,0,0,1-.22.42c-.42.27-.27.66.09.79a3.75,3.75,0,0,0,.68,0,14.83,14.83,0,0,1,2.12,0c.5,0,.76,0,1-.27a1.88,1.88,0,0,0,.44-1c0-.36-.41-.48-.78-.28a.9.9,0,0,0-.33.36,1,1,0,0,1-1.18.49.57.57,0,0,1-.41-.63V31.5c0-.26.05-.35.25-.59a.38.38,0,0,0-.38-.54,2.54,2.54,0,0,1-1.13,0c-.35,0-.49.21-.4.52,0,.13.27.19.3.55Zm10.75.34v2.06a.49.49,0,0,1-.51.47,1.37,1.37,0,0,1-.45,0,.29.29,0,0,0-.17.52,1.88,1.88,0,0,0,1.38.23,1.47,1.47,0,0,0,1.12-1.37V30.83c0-.41-.26-.65-.69-.49a4.53,4.53,0,0,1-.86.32.38.38,0,0,0-.16.64c.22.17.34.28.34.49Zm2.24,2.15v-2.4a.74.74,0,0,0-.3-.58.35.35,0,0,1-.08-.22.38.38,0,0,1,.39-.39h.09a2.28,2.28,0,0,0,.9,0c.43-.07.65.22.51.58a.4.4,0,0,1-.1.15.54.54,0,0,0-.09.35v2.39a.53.53,0,0,0,.11.34c.28.27.29.82-.29.79A2,2,0,0,0,66,35c-.27,0-.44,0-.55-.15a.32.32,0,0,1,0-.34c.08-.19.29-.29.29-.53Z" transform="translate(0 -12.21)"/><path class="cls-3" d="M8.69,60.66v8.06a4.15,4.15,0,0,1-1,1.16c-1,1.13.05,2.59,1.65,2.51H20.46c3.84-.49,5.22-5.36,3.39-7.48a8.45,8.45,0,0,0-3-2.13c-.34-.2-.36-.54,0-.89,3.53-2.22,2-5.9-1.33-6.63a9.24,9.24,0,0,0-4.74.71,1.18,1.18,0,0,1-1.56-.16,1.79,1.79,0,0,0-2.3-.36L8.05,56.69a1.3,1.3,0,0,0-.29,2.1,2.76,2.76,0,0,1,.93,1.87Zm6.1.87c-.52,0-.87-.19-.87-.73V59c.17-.85,2.05-1.25,2.86-.91a1.52,1.52,0,0,1,.66,2.5,3.15,3.15,0,0,1-2.65,1Zm-.87,7.24V64.92c0-.74.4-.93,1.11-.88,2-.23,3.28.25,3.87,1.6a3,3,0,0,1-.76,3.79c-1.46,1.12-4,1-4.22-.66Zm11.79.34,4.7-9.17a.78.78,0,0,0-.29-1.2c-.61-.52-1.41-1.24-.29-2.11a11.7,11.7,0,0,0,3.46-1.22,1.5,1.5,0,0,1,1.83.28c1,1.22,4.67,8.41,7,12.62,2.09,2.23,1.52,3.22-.1,3.72a12.83,12.83,0,0,0-4.58,0c-1.16.16-1.77-.52-1.59-1.43l.66-1.29c.36-1.11,0-1.73-.86-1.66l-5.35,0a1.46,1.46,0,0,0-.53,2.13c1.95,1.58.51,3.06-1.33,2.52a8.78,8.78,0,0,0-3-.13c-1.14-.07-1.77-.73-.94-2a4.1,4.1,0,0,0,1.18-1.13Zm5.73-4.18,1.7-3.52,2,3.52Zm30.63,4.18,4.71-9.17a.79.79,0,0,0-.31-1.2c-.61-.52-1.4-1.24-.28-2.11a11.87,11.87,0,0,0,3.47-1.22,1.49,1.49,0,0,1,1.82.28c.94,1.22,4.68,8.41,7,12.62C80.57,70.54,80,71.53,78.4,72a12.88,12.88,0,0,0-4.59,0c-1.16.16-1.77-.52-1.59-1.43l.66-1.29c.37-1.11,0-1.73-.86-1.66l-5.34,0a1.45,1.45,0,0,0-.54,2.13c2,1.58.5,3.06-1.33,2.52a8.83,8.83,0,0,0-3-.13c-1.13-.07-1.76-.73-.92-2a4.2,4.2,0,0,0,1.17-1.13Zm5.73-4.18,1.69-3.52,2,3.52ZM46.09,59.19l0,8.7a1.67,1.67,0,0,1-.8,1.52c-1.51,1-1,2.44.34,2.9a11.89,11.89,0,0,0,2.48-.17,55.39,55.39,0,0,1,7.77.1c1.81.16,2.77-.08,3.47-1a6.58,6.58,0,0,0,1.6-3.55c-.1-1.29-1.46-1.72-2.83-1A3.15,3.15,0,0,0,56.87,68a3.78,3.78,0,0,1-4.32,1.81,2.09,2.09,0,0,1-1.46-2.32v-8.1c-.1-1,.19-1.3.9-2.17a1.37,1.37,0,0,0-1.39-2,9.3,9.3,0,0,1-4.13,0c-1.27,0-1.78.72-1.48,1.9.21.48,1,.7,1.1,2Zm39.35,1.24V68a1.84,1.84,0,0,1-1.87,1.74,5.85,5.85,0,0,1-1.66-.13,1.05,1.05,0,0,0-.61,1.88,6.71,6.71,0,0,0,5,.87,5.38,5.38,0,0,0,4.1-5V56.91c0-1.48-1-2.36-2.54-1.78a14.87,14.87,0,0,1-3.13,1.15,1.41,1.41,0,0,0-.57,2.37c.78.63,1.24,1.05,1.24,1.78Zm8.18,7.86V59.51a2.76,2.76,0,0,0-1.1-2.11,1.44,1.44,0,0,1-.27-.83,1.4,1.4,0,0,1,1.4-1.39,1.75,1.75,0,0,1,.33,0,9.11,9.11,0,0,0,3.29,0c1.6-.29,2.35.76,1.89,2.1a1.72,1.72,0,0,1-.38.58,1.79,1.79,0,0,0-.32,1.26v8.73a1.74,1.74,0,0,0,.41,1.23c1,1,1,3-1.09,2.92a6.39,6.39,0,0,0-3,0c-1,.15-1.66,0-2-.57a1.19,1.19,0,0,1-.15-1.24c.3-.69,1.06-1,1.06-1.94Z" transform="translate(0 -12.21)"/><path class="cls-4" d="M80,96.06c-7-3.77-16.43-5.93-26-5.93s-19.18,2.16-26.18,5.93l-7-13.88c9.48-5,21.32-7.7,33.18-7.7a73.78,73.78,0,0,1,33,7.7Z" transform="translate(0 -12.21)"/><path class="cls-2" d="M32.4,90.27c-.69-1.3-1.36-2.6-2-3.92l-2-3.92,1.1-.26c.41.87.82,1.73,1.24,2.6s.82,1.72,1.24,2.58c.26.55.51,1.09.73,1.63,0-.94,0-1.49,0-1.63,0-1,.09-2,.13-3s.09-2,.14-3l1.3-.31c.34.66.7,1.33,1.06,2s.71,1.32,1.06,2a25.49,25.49,0,0,1,1.31,2.8c0-.55,0-1.19,0-1.91,0-.94,0-1.89,0-2.83l0-2.84L38.78,80c-.06,1.48-.12,3-.17,4.44s-.11,3-.16,4.45l-1,.24-1.57-3-1.58-3c-.27-.5-.43-.81-.48-.92,0,.41,0,.76,0,1,0,1.13-.09,2.26-.14,3.39s-.08,2.26-.13,3.39l-1.09.25Zm8-1.84c.39-1.49.77-3,1.15-4.44l1.14-4.43,1.19-.14L46,83.5c.71,1.37,1.44,2.73,2.16,4.08l-1.25.15-1.26-2.49-3.45.38-.65,2.68-1.17.13Zm2-3.76,2.82-.31c-.38-.75-.76-1.51-1.12-2.27s-.6-1.25-.78-1.7a10.88,10.88,0,0,1-.27,1.68c-.21.87-.44,1.73-.65,2.6Zm6.72,2.78c0-1.43-.07-2.86-.09-4.29S49,80.3,49,78.88c1.87,0,3.76-.08,5.63-.11,0,.34,0,.68,0,1l-4.53.08.06,2.66,3.91-.06c0,.33,0,.67,0,1l-3.92.08c0,.65,0,1.3,0,1.94s0,1.3,0,2l-1.1,0Zm7.09-.06c.07-1.42.13-2.85.2-4.27s.13-2.86.2-4.29l6,.33c0,.34,0,.67,0,1L57.7,79.9c0,.88-.09,1.75-.12,2.63l4.6.24c0,.34,0,.67,0,1l-4.61-.25c-.05,1-.1,1.94-.14,2.92l5.11.27c0,.34,0,.67,0,1-2.07-.1-4.14-.23-6.21-.34Zm7.76.45c.18-1.42.38-2.83.56-4.24s.39-2.84.57-4.26c1.22.19,2.44.36,3.66.53a5,5,0,0,1,1.65.47,1.82,1.82,0,0,1,.81,1,2.39,2.39,0,0,1,.18,1.33,2.07,2.07,0,0,1-.78,1.43,2.79,2.79,0,0,1-1.86.54,3.12,3.12,0,0,1,.61.52,6.28,6.28,0,0,1,.76,1.26l1.12,2.52-1.37-.2c-.29-.64-.58-1.29-.86-1.93s-.46-1-.63-1.28a3,3,0,0,0-.48-.64,2.12,2.12,0,0,0-.47-.31,4.11,4.11,0,0,0-.6-.12l-1.27-.18c-.09.63-.19,1.25-.26,1.88s-.17,1.26-.25,1.88L64,87.84Zm1.72-4.59,2.36.34a3.38,3.38,0,0,0,1.19,0,1.23,1.23,0,0,0,.71-.42,1.34,1.34,0,0,0,.32-.72A1.29,1.29,0,0,0,70,81.4a2,2,0,0,0-1.29-.58l-2.62-.38c-.13.94-.25,1.87-.38,2.81Zm6.83,3.23,1,.17a2.34,2.34,0,0,0,.1,1.11,1.8,1.8,0,0,0,.66.85,3,3,0,0,0,1.18.57,3.18,3.18,0,0,0,1.13.09,1.65,1.65,0,0,0,.82-.33,1.32,1.32,0,0,0,.4-.65,1.2,1.2,0,0,0-.06-.75,1.87,1.87,0,0,0-.61-.68c-.2-.14-.65-.39-1.35-.77a7.38,7.38,0,0,1-1.43-.92,2.19,2.19,0,0,1-.68-1,2,2,0,0,1,0-1.1A2.12,2.12,0,0,1,74.32,82a2.19,2.19,0,0,1,1.21-.58,3.92,3.92,0,0,1,1.55.1,4.32,4.32,0,0,1,1.53.7,2.5,2.5,0,0,1,.85,1.15,2.72,2.72,0,0,1,.08,1.42l-1.05-.19a1.76,1.76,0,0,0-.28-1.33,2.18,2.18,0,0,0-1.31-.77,2.15,2.15,0,0,0-1.5,0,1.14,1.14,0,0,0-.67.76,1,1,0,0,0,.15.82,4.26,4.26,0,0,0,1.47,1,10.24,10.24,0,0,1,1.67,1,2.52,2.52,0,0,1,.83,1.12,2.18,2.18,0,0,1,.07,1.27,2.47,2.47,0,0,1-.68,1.15,2.4,2.4,0,0,1-1.28.64,3.67,3.67,0,0,1-1.64-.07,4.84,4.84,0,0,1-1.77-.8,2.8,2.8,0,0,1-.92-1.29,2.92,2.92,0,0,1-.08-1.61Z" transform="translate(0 -12.21)"/></svg>