<svg xmlns="http://www.w3.org/2000/svg" width="280" height="40" viewBox="0 0 280 40"><g fill="none" fill-rule="nonzero"><path fill="#54616C" d="M135.933 18.933c0 .559.067 1.134.067 1.734 0 8-3.608 12.766-12.075 12.766h-6.817V7.5h6.225c8.242 0 12.142 3.85 12.584 11.433h.016zm-39.1 3.45h-9.616l3.533-9.458c.45-1.233.853-2.48 1.208-3.742.45 1.311.97 2.761 1.559 4.35l3.316 8.85zm46.017-1.55c0-12.591-7.092-19.716-19.683-19.716h-13.334v35.075L95.525 1.1h-7.108L76.092 33.192h-6.575c-8.467 0-12.075-4.767-12.075-12.767C57.45 11.858 61.308 7.5 70.075 7.5h5.35l.967-6.383h-6.134c-12.6.008-19.691 7.133-19.691 19.716 0 11.917 6.883 18.734 18.783 18.734h11.667L85 28.392h14.167l4.266 11.183h20.65c11.909 0 18.784-6.817 18.784-18.733l-.017-.009zm29.408 18.65h6.909V1.1h-8.142l-8.942 14.567L153.175 1.1H145v38.383h6.9V10.617h.142l10 16.916 10-16.916h.141l.075 28.866zm31.25-17.191h-9.65l3.534-9.459c.45-1.233.852-2.48 1.208-3.741.45 1.31.97 2.76 1.558 4.35l3.35 8.85zm14.325 17.191L202.2 1.1H195l-14.717 38.383h7.384l4-11.15h14.125l4.266 11.184 7.775-.034zm8.784-32.408h11.766V1.1h-30.325v5.975h11.775v32.5h6.784v-32.5zm14.883 32.5h6.783V1.1H241.5v38.475zm17.175-19.5c0-8.567 3.858-12.917 12.625-12.917h5.367l.95-6.408h-6.134c-12.6 0-19.683 7.133-19.683 19.717 0 11.916 6.883 18.733 18.792 18.733h9.333v-6.375h-9.167c-8.466 0-12.075-4.767-12.075-12.775l-.008.025z"/><path fill="#ED7004" d="M39.417 2.5V0H0v39.392h10C5.833 35.758 3.517 31.6 3.517 27.117 3.533 15.775 18.6 6.533 39.417 2.5zm0 15.533v-13.2C19.617 8.825 6.383 17.567 6.383 27.117c0 4.391 2.792 8.608 7.742 12.275h7.033c-4.1-2.242-6.491-4.9-6.491-7.875 0-6.167 10.308-10.992 24.75-13.509v.025zm0 21.359V20.367C25.95 22.808 17.5 27.175 17.5 31.517c0 2.783 3.467 5.583 9.508 7.875h12.409z"/><path fill="#FFF" d="M39.417 4.833V2.5C18.583 6.558 3.533 15.833 3.533 27.142c0 4.483 2.35 8.641 6.484 12.275h4.1c-4.95-3.692-7.734-7.909-7.734-12.3 0-9.55 13.234-18.334 33.034-22.284m0 15.534v-2.359c-14.442 2.5-24.75 7.342-24.75 13.509 0 2.975 2.391 5.633 6.491 7.875h5.834C20.983 37.1 17.5 34.308 17.5 31.517c0-4.342 8.433-8.709 21.9-11.159"/></g></svg>