<?xml version="1.0" encoding="utf-8"?>
<!-- Generator: Adobe Illustrator 19.0.0, SVG Export Plug-In . SVG Version: 6.00 Build 0)  -->
<svg version="1.1" id="Layer_1" xmlns="http://www.w3.org/2000/svg" xmlns:xlink="http://www.w3.org/1999/xlink" x="0px" y="0px"
	 viewBox="0 0 608.9 125.2" style="enable-background:new 0 0 608.9 125.2;" xml:space="preserve">
<style type="text/css">
	.st0{fill:#FF3300;}
	.st1{opacity:0.5;fill:#FF3300;}
	.st2{display:none;}
	.st3{display:inline;fill:#FF3300;}
</style>
<path id="XMLID_74_" class="st0" d="M89.9,7.3L77.6,19.2c0,0-15.1-5.7-28.9-0.9c0,0-10.6,2.9-17.7,9.9c0,0-12.8,11.1-14.5,29.1
	c0,0-3.8,22.9,17.3,40c0,0,9,7.4,22.5,9.2l0.2,16.1c0,0-35.7,0.3-53.5-41.4c0,0-8.3-24.4,2.9-46.2c0,0,12.8-31.5,50.4-34.8
	C56.3,0.2,74.8-1.9,89.9,7.3z"/>
<polygon id="XMLID_56_" class="st1" points="44.9,80.4 87.1,80.4 87.1,121.4 104.4,104.1 104.4,63.6 57,63.6 "/>
<polygon id="XMLID_55_" class="st0" points="44.9,72.1 87.1,72.1 87.1,113.1 104.4,95.8 104.4,55.3 57,55.3 "/>
<polygon id="XMLID_54_" class="st1" points="173.3,81.5 131.1,81.5 131.1,122.4 113.8,105.1 113.8,64.6 161.3,64.6 "/>
<polygon id="XMLID_53_" class="st0" points="173.3,72.1 131.1,72.1 131.1,113.1 113.8,95.8 113.8,55.3 161.3,55.3 "/>
<path id="XMLID_50_" class="st0" d="M210.9,51.8c-18.8,0-34.1,16.4-34.1,36.7s15.3,36.7,34.1,36.7c18.8,0,34.1-16.4,34.1-36.7
	S229.7,51.8,210.9,51.8z M211,108.2c-8.7,0-15.8-8.6-15.8-19.2c0-10.6,7.1-19.2,15.8-19.2c8.7,0,15.8,8.6,15.8,19.2
	C226.8,99.6,219.7,108.2,211,108.2z"/>
<polygon id="XMLID_49_" class="st0" points="240.8,53.9 261.3,123.6 277.5,123.6 286.7,90.9 296.1,123.6 312.3,123.6 331.9,53.9 
	313.7,53.9 304.3,89 294.5,53.9 280,53.9 269.7,89.7 259.6,53.9 "/>
<polygon id="XMLID_48_" class="st0" points="332.9,53.9 332.9,123.6 349.9,123.6 349.9,98 371.5,97.7 371.5,80.9 350.4,81.2 
	350.2,71 373.3,71 373.3,53.9 "/>
<rect id="XMLID_47_" x="378.5" y="53.9" class="st0" width="17.5" height="69.8"/>
<polygon id="XMLID_46_" class="st0" points="399.4,53.9 501.3,54 501.3,70.8 484,70.8 484.2,123.8 466.8,123.8 466.8,70.7 
	433.8,70.6 433.8,123.8 416.4,123.8 416.1,70.6 399.4,70.6 "/>
<polyline id="XMLID_45_" class="st0" points="506.5,53.7 506.6,123.6 548.4,123.7 548.4,107 523.9,107.1 523.9,96.5 545.4,96.7 
	545.3,79.9 524,80 523.9,70.6 547.1,70.6 547.1,53.7 "/>
<path id="XMLID_42_" class="st0" d="M589.3,92.6c0,0,10-6.7,8.7-19.1c0,0-0.1-17.6-20.7-19.6h-25.8l-0.1,70h17.8v-25
	c0,0,3.5-1.5,7.2,5.3l11.7,19.7h20.9L589.3,92.6z M579.9,78c-1.6,5.5-10.9,3.8-10.9,3.8V70.7h6.7C582.2,71.8,579.9,78,579.9,78z"/>
<g id="XMLID_69_" class="st2">
	<path id="XMLID_70_" class="st3" d="M3.4,164.8v-27.5h5.3v27.5H3.4z"/>
	<path id="XMLID_72_" class="st3" d="M11,164.8v-27.5h5.7l2.5,13.2v-13.2h5.3v27.5h-5.4L16.4,151v13.8H11z"/>
	<path id="XMLID_75_" class="st3" d="M26.9,137.3h7.6c2,0,3.4,0.5,4.4,1.6c1,1.1,1.5,2.7,1.5,4.8l0.1,12.9c0,2.7-0.4,4.8-1.4,6.1
		c-1,1.4-2.6,2.1-4.8,2.1h-7.4V137.3z M33.5,159.9c1,0,1.5-0.5,1.5-1.5v-14.2c0-0.6,0-1.1-0.1-1.4c-0.1-0.3-0.3-0.5-0.5-0.6
		c-0.3-0.1-0.7-0.2-1.2-0.2h-0.6v17.9H33.5z"/>
	<path id="XMLID_78_" class="st3" d="M42.5,164.8v-27.5h5.3v27.5H42.5z"/>
	<path id="XMLID_80_" class="st3" d="M49.3,164.8l2.7-27.5h9.3l2.6,27.5h-5.2l-0.4-4.5H55l-0.3,4.5H49.3z M55.4,156h2.5l-1.2-14
		h-0.3L55.4,156z"/>
	<path id="XMLID_83_" class="st3" d="M66.1,145.4l1-3.7h-2V137H71v4.5l-1.6,3.8H66.1z"/>
	<path id="XMLID_85_" class="st3" d="M74.1,163.2c-1.1-1.2-1.7-3.2-1.7-6v-2.7h5.4v3.4c0,1.4,0.4,2.1,1.3,2.1c0.5,0,0.8-0.1,1-0.4
		c0.2-0.3,0.3-0.8,0.3-1.5c0-0.9-0.1-1.6-0.3-2.2c-0.2-0.6-0.5-1.1-0.8-1.5c-0.3-0.4-0.9-1-1.8-1.8l-2.4-2.4c-1.8-1.8-2.8-3.8-2.8-6
		c0-2.4,0.5-4.1,1.6-5.4c1.1-1.2,2.7-1.8,4.7-1.8c2.5,0,4.3,0.7,5.4,2c1.1,1.3,1.6,3.4,1.6,6.2h-5.6l0-1.9c0-0.4-0.1-0.7-0.3-0.9
		c-0.2-0.2-0.5-0.3-0.8-0.3c-0.4,0-0.7,0.1-1,0.4c-0.2,0.2-0.3,0.6-0.3,1c0,0.9,0.5,1.8,1.5,2.8l3.2,3.1c0.7,0.7,1.4,1.4,1.9,2.1
		c0.5,0.7,0.9,1.4,1.2,2.3c0.3,0.9,0.4,1.9,0.4,3.2c0,2.7-0.5,4.8-1.5,6.2c-1,1.4-2.6,2.1-4.9,2.1C77.1,165.1,75.3,164.5,74.1,163.2
		z"/>
	<path id="XMLID_87_" class="st3" d="M95.3,137.3h7.5c2,0,3.5,0.5,4.4,1.5c0.9,1,1.4,2.6,1.4,4.8v1.2c0,2.6-0.9,4.2-2.8,4.7
		c1.2,0.3,2,1,2.4,2.1c0.5,1.1,0.7,2.5,0.7,4.3c0,2.9-0.4,5.1-1.3,6.7c-0.9,1.5-2.5,2.3-4.7,2.3h-7.5V137.3z M101.8,147.6
		c0.5,0,0.8-0.2,1-0.5c0.2-0.4,0.3-0.8,0.3-1.5v-2.8c0-0.9-0.4-1.3-1.2-1.3h-1.2v6.1H101.8z M103.4,157.9v-3.4
		c0-0.8-0.1-1.5-0.4-1.9c-0.2-0.4-0.7-0.6-1.3-0.6h-1v8l0.5,0C102.7,160,103.4,159.3,103.4,157.9z"/>
	<path id="XMLID_91_" class="st3" d="M110.4,164.8v-27.5h5.3v27.5H110.4z"/>
	<path id="XMLID_93_" class="st3" d="M119.2,163c-1-1.4-1.5-3.5-1.5-6.4v-11.9c0-2.5,0.6-4.5,1.7-5.8s2.8-2,5.1-2
		c1.8,0,3.2,0.4,4.2,1.1c1,0.7,1.7,1.8,2.1,3.2c0.4,1.4,0.6,3.2,0.6,5.4H126v-2.5c0-0.7-0.1-1.2-0.3-1.5c-0.2-0.4-0.5-0.5-1-0.5
		c-1,0-1.6,0.7-1.6,2.1v13.3c0,0.8,0.1,1.5,0.3,1.9c0.2,0.4,0.6,0.6,1.1,0.6s0.9-0.2,1.1-0.6c0.2-0.4,0.3-1.1,0.3-1.9v-3.9h-1.5
		v-4.7h6.7v16h-2.2l-0.9-2.3c-1,1.7-2.5,2.6-4.6,2.6C121.6,165.1,120.1,164.4,119.2,163z"/>
	<path id="XMLID_95_" class="st3" d="M134.7,163c-1-1.4-1.5-3.5-1.5-6.4v-11.9c0-2.5,0.6-4.5,1.7-5.8s2.8-2,5.1-2
		c1.8,0,3.2,0.4,4.2,1.1c1,0.7,1.7,1.8,2.1,3.2c0.4,1.4,0.6,3.2,0.6,5.4h-5.4v-2.5c0-0.7-0.1-1.2-0.3-1.5c-0.2-0.4-0.5-0.5-1-0.5
		c-1,0-1.6,0.7-1.6,2.1v13.3c0,0.8,0.1,1.5,0.3,1.9c0.2,0.4,0.6,0.6,1.1,0.6s0.9-0.2,1.1-0.6c0.2-0.4,0.3-1.1,0.3-1.9v-3.9h-1.5
		v-4.7h6.7v16h-2.2l-0.9-2.3c-1,1.7-2.5,2.6-4.6,2.6C137.2,165.1,135.7,164.4,134.7,163z"/>
	<path id="XMLID_97_" class="st3" d="M149,164.8v-27.5h11v5.3h-5.4v5.4h5.2v5.2h-5.2v6.3h5.8v5.4H149z"/>
	<path id="XMLID_99_" class="st3" d="M163.4,163.2c-1.1-1.2-1.7-3.2-1.7-6v-2.7h5.4v3.4c0,1.4,0.4,2.1,1.3,2.1c0.5,0,0.8-0.1,1-0.4
		c0.2-0.3,0.3-0.8,0.3-1.5c0-0.9-0.1-1.6-0.3-2.2c-0.2-0.6-0.5-1.1-0.8-1.5c-0.3-0.4-0.9-1-1.8-1.8l-2.4-2.4c-1.8-1.8-2.8-3.8-2.8-6
		c0-2.4,0.5-4.1,1.6-5.4c1.1-1.2,2.7-1.8,4.7-1.8c2.5,0,4.3,0.7,5.4,2c1.1,1.3,1.6,3.4,1.6,6.2h-5.6l0-1.9c0-0.4-0.1-0.7-0.3-0.9
		c-0.2-0.2-0.5-0.3-0.8-0.3c-0.4,0-0.7,0.1-1,0.4c-0.2,0.2-0.3,0.6-0.3,1c0,0.9,0.5,1.8,1.5,2.8l3.2,3.1c0.7,0.7,1.4,1.4,1.9,2.1
		c0.5,0.7,0.9,1.4,1.2,2.3c0.3,0.9,0.4,1.9,0.4,3.2c0,2.7-0.5,4.8-1.5,6.2c-1,1.4-2.6,2.1-4.9,2.1
		C166.3,165.1,164.5,164.5,163.4,163.2z"/>
	<path id="XMLID_101_" class="st3" d="M179.4,164.8v-22.3h-3.3v-5.3h12.1v5.3h-3.3v22.3H179.4z"/>
	<path id="XMLID_103_" class="st3" d="M197,164.8v-27.5h5.3v27.5H197z"/>
	<path id="XMLID_105_" class="st3" d="M204.5,164.8v-27.5h5.7l2.5,13.2v-13.2h5.3v27.5h-5.4l-2.8-13.8v13.8H204.5z"/>
	<path id="XMLID_107_" class="st3" d="M222,163.2c-1.2-1.3-1.8-3-1.8-5.2v-12.7c0-2.7,0.5-4.8,1.6-6.2c1.1-1.4,2.8-2.1,5.1-2.1
		c2,0,3.7,0.6,4.9,1.7c1.2,1.1,1.9,2.7,1.9,4.8v4.7h-5.5v-4.1c0-0.8-0.1-1.3-0.3-1.6c-0.2-0.3-0.5-0.4-1-0.4c-0.5,0-0.8,0.2-1,0.5
		c-0.2,0.3-0.3,0.8-0.3,1.5v13.8c0,0.7,0.1,1.3,0.3,1.6c0.2,0.3,0.5,0.5,1,0.5c0.9,0,1.3-0.7,1.3-2.1v-5h5.5v5.2
		c0,4.6-2.3,6.9-7,6.9C224.9,165.1,223.3,164.4,222,163.2z"/>
	<path id="XMLID_109_" class="st3" d="M235.7,164.8v-27.5h11v5.3h-5.4v5.4h5.2v5.2h-5.2v6.3h5.8v5.4H235.7z"/>
	<path id="XMLID_111_" class="st3" d="M248.9,164.8v-27.5h5.7l2.5,13.2v-13.2h5.3v27.5H257l-2.8-13.8v13.8H248.9z"/>
	<path id="XMLID_113_" class="st3" d="M267.2,164.8v-22.3h-3.3v-5.3H276v5.3h-3.3v22.3H267.2z"/>
	<path id="XMLID_115_" class="st3" d="M277.3,164.8v-27.5h5.3v27.5H277.3z"/>
	<path id="XMLID_117_" class="st3" d="M287.3,164.8l-3.4-27.6h5.3l2,18.8l1.8-18.8h5.3l-3.4,27.6H287.3z"/>
	<path id="XMLID_119_" class="st3" d="M299.6,164.8v-27.5h5.3v27.5H299.6z"/>
	<path id="XMLID_121_" class="st3" d="M308.2,163.2c-1.1-1.2-1.7-3.2-1.7-6v-2.7h5.4v3.4c0,1.4,0.4,2.1,1.3,2.1c0.5,0,0.8-0.1,1-0.4
		c0.2-0.3,0.3-0.8,0.3-1.5c0-0.9-0.1-1.6-0.3-2.2s-0.5-1.1-0.8-1.5c-0.3-0.4-0.9-1-1.8-1.8l-2.4-2.4c-1.8-1.8-2.8-3.8-2.8-6
		c0-2.4,0.5-4.1,1.6-5.4c1.1-1.2,2.7-1.8,4.7-1.8c2.5,0,4.3,0.7,5.4,2c1.1,1.3,1.6,3.4,1.6,6.2h-5.6l0-1.9c0-0.4-0.1-0.7-0.3-0.9
		c-0.2-0.2-0.5-0.3-0.8-0.3c-0.4,0-0.7,0.1-1,0.4c-0.2,0.2-0.3,0.6-0.3,1c0,0.9,0.5,1.8,1.5,2.8l3.2,3.1c0.7,0.7,1.4,1.4,1.9,2.1
		c0.5,0.7,0.9,1.4,1.2,2.3c0.3,0.9,0.4,1.9,0.4,3.2c0,2.7-0.5,4.8-1.5,6.2c-1,1.4-2.6,2.1-4.9,2.1
		C311.2,165.1,309.4,164.5,308.2,163.2z"/>
	<path id="XMLID_123_" class="st3" d="M321.9,164.8v-27.5h11v5.3h-5.4v5.4h5.2v5.2h-5.2v6.3h5.8v5.4H321.9z"/>
	<path id="XMLID_125_" class="st3" d="M335.1,137.3h7.6c2,0,3.4,0.5,4.4,1.6c1,1.1,1.5,2.7,1.5,4.8l0.1,12.9c0,2.7-0.4,4.8-1.4,6.1
		c-1,1.4-2.6,2.1-4.8,2.1h-7.4V137.3z M341.6,159.9c1,0,1.5-0.5,1.5-1.5v-14.2c0-0.6,0-1.1-0.1-1.4c-0.1-0.3-0.3-0.5-0.5-0.6
		c-0.3-0.1-0.7-0.2-1.2-0.2h-0.6v17.9H341.6z"/>
	<path id="XMLID_128_" class="st3" d="M360.6,164.8l-2.9-27.5h5.4l1.5,17.4l1.5-17.4h5.1l1.5,17.4l1.5-17.4h5.5l-3,27.5H370
		l-1.4-13.3l-1.3,13.3H360.6z"/>
	<path id="XMLID_130_" class="st3" d="M381.2,164.8v-27.5h11v5.3h-5.4v5.4h5.2v5.2h-5.2v6.3h5.8v5.4H381.2z"/>
	<path id="XMLID_132_" class="st3" d="M394.5,164.8v-27.5h5.5v22.9h5.7v4.7H394.5z"/>
	<path id="XMLID_134_" class="st3" d="M407.2,164.8v-27.5h5.5v22.9h5.7v4.7H407.2z"/>
	<path id="XMLID_136_" class="st3" d="M419.9,164.8v-27.5h5.7l2.5,13.2v-13.2h5.3v27.5H428l-2.8-13.8v13.8H419.9z"/>
	<path id="XMLID_138_" class="st3" d="M435.9,164.8v-27.5h11v5.3h-5.4v5.4h5.2v5.2h-5.2v6.3h5.8v5.4H435.9z"/>
	<path id="XMLID_140_" class="st3" d="M450.2,163.2c-1.1-1.2-1.7-3.2-1.7-6v-2.7h5.4v3.4c0,1.4,0.4,2.1,1.3,2.1c0.5,0,0.8-0.1,1-0.4
		c0.2-0.3,0.3-0.8,0.3-1.5c0-0.9-0.1-1.6-0.3-2.2s-0.5-1.1-0.8-1.5c-0.3-0.4-0.9-1-1.8-1.8l-2.4-2.4c-1.8-1.8-2.8-3.8-2.8-6
		c0-2.4,0.5-4.1,1.6-5.4c1.1-1.2,2.7-1.8,4.7-1.8c2.5,0,4.3,0.7,5.4,2c1.1,1.3,1.6,3.4,1.6,6.2h-5.6l0-1.9c0-0.4-0.1-0.7-0.3-0.9
		c-0.2-0.2-0.5-0.3-0.8-0.3c-0.4,0-0.7,0.1-1,0.4c-0.2,0.2-0.3,0.6-0.3,1c0,0.9,0.5,1.8,1.5,2.8l3.2,3.1c0.7,0.7,1.4,1.4,1.9,2.1
		c0.5,0.7,0.9,1.4,1.2,2.3c0.3,0.9,0.4,1.9,0.4,3.2c0,2.7-0.5,4.8-1.5,6.2c-1,1.4-2.6,2.1-4.9,2.1
		C453.1,165.1,451.3,164.5,450.2,163.2z"/>
	<path id="XMLID_142_" class="st3" d="M465,163.2c-1.1-1.2-1.7-3.2-1.7-6v-2.7h5.4v3.4c0,1.4,0.4,2.1,1.3,2.1c0.5,0,0.8-0.1,1-0.4
		c0.2-0.3,0.3-0.8,0.3-1.5c0-0.9-0.1-1.6-0.3-2.2s-0.5-1.1-0.8-1.5c-0.3-0.4-0.9-1-1.8-1.8l-2.4-2.4c-1.8-1.8-2.8-3.8-2.8-6
		c0-2.4,0.5-4.1,1.6-5.4c1.1-1.2,2.7-1.8,4.7-1.8c2.5,0,4.3,0.7,5.4,2c1.1,1.3,1.6,3.4,1.6,6.2H471l0-1.9c0-0.4-0.1-0.7-0.3-0.9
		c-0.2-0.2-0.5-0.3-0.8-0.3c-0.4,0-0.7,0.1-1,0.4c-0.2,0.2-0.3,0.6-0.3,1c0,0.9,0.5,1.8,1.5,2.8l3.2,3.1c0.7,0.7,1.4,1.4,1.9,2.1
		c0.5,0.7,0.9,1.4,1.2,2.3c0.3,0.9,0.4,1.9,0.4,3.2c0,2.7-0.5,4.8-1.5,6.2c-1,1.4-2.6,2.1-4.9,2.1
		C467.9,165.1,466.1,164.5,465,163.2z"/>
	<path id="XMLID_144_" class="st3" d="M486.1,137.3h7.3c2.2,0,3.8,0.7,4.7,2.1c0.9,1.4,1.4,3.5,1.4,6.2c0,2.7-0.4,4.8-1.3,6.2
		c-0.8,1.4-2.3,2.1-4.5,2.1h-2.2v10.9h-5.4V137.3z M491.9,148.9c0.7,0,1.1-0.1,1.5-0.4c0.3-0.2,0.5-0.6,0.6-1.1
		c0.1-0.5,0.1-1.1,0.1-2c0-1.2-0.1-2-0.4-2.5c-0.3-0.5-0.8-0.8-1.5-0.8h-0.6v6.7H491.9z"/>
	<path id="XMLID_147_" class="st3" d="M501.3,164.8v-27.5h5.5v22.9h5.7v4.7H501.3z"/>
	<path id="XMLID_149_" class="st3" d="M513.3,164.8l2.7-27.5h9.3l2.6,27.5h-5.2l-0.4-4.5h-3.3l-0.3,4.5H513.3z M519.4,156h2.5
		l-1.2-14h-0.3L519.4,156z"/>
	<path id="XMLID_152_" class="st3" d="M531.9,164.8v-22.3h-3.3v-5.3h12.1v5.3h-3.3v22.3H531.9z"/>
	<path id="XMLID_154_" class="st3" d="M542.2,164.8v-27.5h11v5.4h-5.5v4.4h5.2v5.3h-5.2v12.5H542.2z"/>
	<path id="XMLID_156_" class="st3" d="M556.5,163c-1.2-1.4-1.7-3.3-1.7-5.7v-13.1c0-2.4,0.6-4.2,1.7-5.4c1.2-1.2,2.8-1.8,5.1-1.8
		c2.2,0,3.9,0.6,5.1,1.8c1.2,1.2,1.7,3,1.7,5.4v13.1c0,2.5-0.6,4.4-1.7,5.7c-1.2,1.3-2.8,2-5.1,2C559.4,165.1,557.7,164.4,556.5,163
		z M562.6,159.4c0.2-0.4,0.3-1,0.3-1.8v-13.5c0-0.6-0.1-1.1-0.2-1.5c-0.2-0.4-0.5-0.6-1-0.6c-0.9,0-1.4,0.7-1.4,2.1v13.4
		c0,0.8,0.1,1.4,0.3,1.8c0.2,0.4,0.5,0.6,1.1,0.6C562.1,160,562.4,159.8,562.6,159.4z"/>
	<path id="XMLID_159_" class="st3" d="M570.6,137.3h8.5c1.3,0,2.4,0.3,3.1,0.9c0.7,0.6,1.2,1.5,1.5,2.6c0.3,1.1,0.4,2.5,0.4,4.2
		c0,1.6-0.2,2.8-0.6,3.7s-1.1,1.5-2.1,1.8c0.8,0.2,1.4,0.6,1.8,1.3c0.4,0.7,0.6,1.6,0.6,2.7l-0.1,10.4h-5.4V154
		c0-0.8-0.1-1.3-0.4-1.5c-0.3-0.2-0.8-0.3-1.6-0.3v12.6h-5.6V137.3z M577.5,147.5c0.8,0,1.2-0.8,1.2-2.5c0-0.7,0-1.3-0.1-1.6
		c-0.1-0.4-0.2-0.6-0.4-0.8s-0.4-0.2-0.7-0.2h-1.3v5.1H577.5z"/>
	<path id="XMLID_162_" class="st3" d="M585.9,164.8v-27.5h8.4l2.3,16.8l2.3-16.8h8.5v27.5h-5V145l-3.2,19.8h-4.9l-3.4-19.8v19.8
		H585.9z"/>
</g>
</svg>
