<?xml version="1.0" encoding="UTF-8"?>
<!DOCTYPE svg PUBLIC "-//W3C//DTD SVG 1.1//EN" "http://www.w3.org/Graphics/SVG/1.1/DTD/svg11.dtd">
<!-- Creator: CorelDRAW 2020 (64-Bit) -->
<svg xmlns="http://www.w3.org/2000/svg" xml:space="preserve" width="506.184mm" height="212.072mm" version="1.1" style="shape-rendering:geometricPrecision; text-rendering:geometricPrecision; image-rendering:optimizeQuality; fill-rule:evenodd; clip-rule:evenodd"
viewBox="0 0 50618.44 21207.18"
 xmlns:xlink="http://www.w3.org/1999/xlink"
 xmlns:xodm="http://www.corel.com/coreldraw/odm/2003">
 <defs>
  <style type="text/css">
   <![CDATA[
    .fil7 {fill:none}
    .fil0 {fill:#40AAE0}
    .fil1 {fill:#216DB4}
    .fil3 {fill:#35305B}
    .fil2 {fill:#38337A}
    .fil4 {fill:#FEFEFE;fill-rule:nonzero}
    .fil5 {fill:#015EAB;fill-rule:nonzero}
    .fil6 {fill:#9FB0B4;fill-rule:nonzero}
   ]]>
  </style>
 </defs>
 <g id="Layer_x0020_1">
  <metadata id="CorelCorpID_0Corel-Layer"/>
  <g id="_1991364031184">
   <g>
    <g>
     <circle class="fil0" cx="6387.91" cy="10603.59" r="4566.56"/>
     <circle class="fil1" cx="6387.91" cy="10603.59" r="4241.81"/>
     <circle class="fil2" cx="6387.91" cy="10603.59" r="3891.28"/>
     <circle class="fil3" cx="6387.91" cy="10603.59" r="3526.73"/>
     <path class="fil4" d="M5083.17 10158.29l0 -1304.16 492.39 0c86.51,0 152.69,4.26 198.53,12.45 64.06,10.63 117.79,30.96 161.2,60.71 43.41,30.07 78.32,71.96 104.74,125.69 26.41,53.74 39.46,112.93 39.46,177.59 0,110.51 -35.22,204.3 -105.95,280.81 -70.44,76.8 -198.24,115.06 -382.8,115.06l-334.55 0 0 531.85 -173.02 0zm173.02 -684.86l336.98 0c111.71,0 190.63,-20.64 237.68,-62.22 46.76,-41.61 70.13,-99.88 70.13,-175.48 0,-54.35 -13.66,-101.09 -41.27,-139.94 -27.63,-38.86 -64.05,-64.66 -108.98,-77.12 -29.15,-7.59 -82.88,-11.54 -160.91,-11.54l-333.63 0 0 466.3zm1413.46 684.86l-503.93 -1304.16 186.99 0 338.79 947.76c27.01,75.91 50.09,146.93 68.3,213.42 20.04,-71.33 43.41,-142.38 70.13,-213.42l351.53 -947.76 176.08 0 -508.48 1304.16 -179.41 0z"/>
     <path class="fil4" d="M3602.72 11804.79l0 -986.62 130.91 0 0 870.87 485.03 0 0 115.75 -615.94 0zm1418.13 -986.62l130.91 0 0 569.8c0,99.21 -11.25,177.98 -33.53,236.3 -22.5,58.12 -62.92,105.66 -121.26,142.18 -58.57,36.51 -135.04,54.88 -230.12,54.88 -92.09,0 -167.64,-15.85 -226.21,-47.76 -58.79,-31.94 -100.59,-77.88 -125.61,-138.27 -25.05,-60.4 -37.68,-142.85 -37.68,-247.33l0 -569.8 130.91 0 0 569.56c0,85.66 8.03,149.05 23.88,189.47 15.85,40.64 42.94,72.11 81.76,93.94 38.59,22.03 85.9,33.06 141.7,33.06 95.53,0 163.74,-21.81 204.41,-65.22 40.64,-43.64 60.84,-127.22 60.84,-251.25l0 -569.56zm346.09 986.62l0 -986.62 195.68 0 233.33 698.41c21.58,64.99 37.2,113.67 47.07,146.06 11.27,-35.82 28.95,-88.66 52.83,-158.25l237.46 -686.22 174.78 0 0 986.62 -125.39 0 0 -825.38 -287.99 825.38 -117.6 0 -284.78 -840.56 0 840.56 -125.39 0zm1153.35 0l0 -986.62 712.4 0 0 115.75 -581.5 0 0 303.15 544.29 0 0 115.75 -544.29 0 0 336.22 604.93 0 0 115.75 -735.83 0zm914.97 0l0 -986.62 134.12 0 517.66 774.43 0 -774.43 125.39 0 0 986.62 -134.12 0 -517.66 -774.4 0 774.4 -125.39 0zm953.76 -316.94l122.63 -11c5.76,49.59 19.3,90.24 40.66,122.18 21.36,31.69 54.42,57.4 99.22,77.16 44.77,19.5 95.3,29.39 151.35,29.39 49.81,0 93.69,-7.34 131.82,-22.27 38.12,-14.94 66.35,-35.38 84.97,-61.32 18.59,-25.95 28.01,-54.21 28.01,-84.52 0,-30.78 -8.95,-57.65 -26.88,-80.84 -17.9,-22.97 -47.54,-42.25 -88.87,-58.1 -26.41,-10.11 -84.97,-26.18 -175.68,-48.01 -90.73,-21.81 -154.1,-42.25 -190.39,-61.54 -47.09,-24.79 -82,-55.57 -104.94,-92.09 -23.22,-36.51 -34.69,-77.62 -34.69,-122.87 0,-50.06 14.24,-96.69 42.48,-139.85 28.25,-43.41 69.36,-76.27 123.78,-98.77 54.21,-22.49 114.61,-33.77 180.99,-33.77 73.03,0 137.56,11.72 193.36,35.38 55.82,23.44 98.76,58.1 128.85,104.03 30.08,45.71 46.15,97.61 48.45,155.48l-125.39 9.64c-6.67,-62.22 -29.39,-109.3 -68.21,-140.99 -38.81,-31.94 -96.24,-47.79 -172.02,-47.79 -79.01,0 -136.64,14.49 -172.7,43.42 -36.05,28.94 -54.2,63.85 -54.2,104.72 0,35.38 12.86,64.53 38.35,87.49 25.26,22.75 90.73,46.41 196.81,70.29 106.11,24.1 178.92,45.02 218.42,62.92 57.19,26.42 99.66,59.72 127,100.37 27.32,40.42 40.87,87.05 40.87,139.85 0,52.59 -14.93,101.74 -45,148.14 -30.08,46.38 -73.05,82.45 -129.29,108.16 -56.27,25.73 -119.44,38.59 -189.95,38.59 -89.1,0 -163.73,-13.1 -223.91,-39.04 -60.39,-25.95 -107.49,-64.99 -141.7,-117.35 -34.44,-52.14 -52.37,-111.15 -54.2,-177.09z"/>
    </g>
    <g>
     <circle class="fil0" cx="6387.91" cy="10603.59" r="4566.56"/>
     <circle class="fil1" cx="6387.91" cy="10603.59" r="4241.81"/>
     <circle class="fil2" cx="6387.91" cy="10603.59" r="3891.28"/>
     <circle class="fil3" cx="6387.91" cy="10603.59" r="3526.73"/>
     <path class="fil4" d="M5083.17 10158.29l0 -1304.16 492.39 0c86.51,0 152.69,4.26 198.53,12.45 64.06,10.63 117.79,30.96 161.2,60.71 43.41,30.07 78.32,71.96 104.74,125.69 26.41,53.74 39.46,112.93 39.46,177.59 0,110.51 -35.22,204.3 -105.95,280.81 -70.44,76.8 -198.24,115.06 -382.8,115.06l-334.55 0 0 531.85 -173.02 0zm173.02 -684.86l336.98 0c111.71,0 190.63,-20.64 237.68,-62.22 46.76,-41.61 70.13,-99.88 70.13,-175.48 0,-54.35 -13.66,-101.09 -41.27,-139.94 -27.63,-38.86 -64.05,-64.66 -108.98,-77.12 -29.15,-7.59 -82.88,-11.54 -160.91,-11.54l-333.63 0 0 466.3zm1413.46 684.86l-503.93 -1304.16 186.99 0 338.79 947.76c27.01,75.91 50.09,146.93 68.3,213.42 20.04,-71.33 43.41,-142.38 70.13,-213.42l351.53 -947.76 176.08 0 -508.48 1304.16 -179.41 0z"/>
     <path class="fil4" d="M3602.72 11804.79l0 -986.62 130.91 0 0 870.87 485.03 0 0 115.75 -615.94 0zm1418.13 -986.62l130.91 0 0 569.8c0,99.21 -11.25,177.98 -33.53,236.3 -22.5,58.12 -62.92,105.66 -121.26,142.18 -58.57,36.51 -135.04,54.88 -230.12,54.88 -92.09,0 -167.64,-15.85 -226.21,-47.76 -58.79,-31.94 -100.59,-77.88 -125.61,-138.27 -25.05,-60.4 -37.68,-142.85 -37.68,-247.33l0 -569.8 130.91 0 0 569.56c0,85.66 8.03,149.05 23.88,189.47 15.85,40.64 42.94,72.11 81.76,93.94 38.59,22.03 85.9,33.06 141.7,33.06 95.53,0 163.74,-21.81 204.41,-65.22 40.64,-43.64 60.84,-127.22 60.84,-251.25l0 -569.56zm346.09 986.62l0 -986.62 195.68 0 233.33 698.41c21.58,64.99 37.2,113.67 47.07,146.06 11.27,-35.82 28.95,-88.66 52.83,-158.25l237.46 -686.22 174.78 0 0 986.62 -125.39 0 0 -825.38 -287.99 825.38 -117.6 0 -284.78 -840.56 0 840.56 -125.39 0zm1153.35 0l0 -986.62 712.4 0 0 115.75 -581.5 0 0 303.15 544.29 0 0 115.75 -544.29 0 0 336.22 604.93 0 0 115.75 -735.83 0zm914.97 0l0 -986.62 134.12 0 517.66 774.43 0 -774.43 125.39 0 0 986.62 -134.12 0 -517.66 -774.4 0 774.4 -125.39 0zm953.76 -316.94l122.63 -11c5.76,49.59 19.3,90.24 40.66,122.18 21.36,31.69 54.42,57.4 99.22,77.16 44.77,19.5 95.3,29.39 151.35,29.39 49.81,0 93.69,-7.34 131.82,-22.27 38.12,-14.94 66.35,-35.38 84.97,-61.32 18.59,-25.95 28.01,-54.21 28.01,-84.52 0,-30.78 -8.95,-57.65 -26.88,-80.84 -17.9,-22.97 -47.54,-42.25 -88.87,-58.1 -26.41,-10.11 -84.97,-26.18 -175.68,-48.01 -90.73,-21.81 -154.1,-42.25 -190.39,-61.54 -47.09,-24.79 -82,-55.57 -104.94,-92.09 -23.22,-36.51 -34.69,-77.62 -34.69,-122.87 0,-50.06 14.24,-96.69 42.48,-139.85 28.25,-43.41 69.36,-76.27 123.78,-98.77 54.21,-22.49 114.61,-33.77 180.99,-33.77 73.03,0 137.56,11.72 193.36,35.38 55.82,23.44 98.76,58.1 128.85,104.03 30.08,45.71 46.15,97.61 48.45,155.48l-125.39 9.64c-6.67,-62.22 -29.39,-109.3 -68.21,-140.99 -38.81,-31.94 -96.24,-47.79 -172.02,-47.79 -79.01,0 -136.64,14.49 -172.7,43.42 -36.05,28.94 -54.2,63.85 -54.2,104.72 0,35.38 12.86,64.53 38.35,87.49 25.26,22.75 90.73,46.41 196.81,70.29 106.11,24.1 178.92,45.02 218.42,62.92 57.19,26.42 99.66,59.72 127,100.37 27.32,40.42 40.87,87.05 40.87,139.85 0,52.59 -14.93,101.74 -45,148.14 -30.08,46.38 -73.05,82.45 -129.29,108.16 -56.27,25.73 -119.44,38.59 -189.95,38.59 -89.1,0 -163.73,-13.1 -223.91,-39.04 -60.39,-25.95 -107.49,-64.99 -141.7,-117.35 -34.44,-52.14 -52.37,-111.15 -54.2,-177.09z"/>
    </g>
   </g>
   <path class="fil5" d="M17370.13 10189.08c0,363.69 -143.91,670.09 -431.74,919.26 -287.78,249.12 -640.74,373.73 -1058.83,373.73l-240.59 0 0 661.51 -1056.69 0 0 -3075.68 1550.69 0c406.68,0 717.38,100.23 932.18,300.69 203.34,194.72 304.98,468.21 304.98,820.49zm-1189.87 502.58l0 -687.3c0,-211.92 -15.8,-349.4 -47.29,-412.39 -68.69,-137.48 -183.26,-206.21 -343.65,-206.21l-137.43 0 0 1799.9 90.19 0c120.27,0 223.38,-47.97 309.28,-143.92 85.9,-95.94 128.9,-212.65 128.9,-350.08zm4042.18 -1619.47l-1241.46 3071.39 -231.96 0 -1267.2 -3075.68 1146.93 0 632.16 1504.9 626.46 -1504.9 335.07 4.29zm3707.15 3071.39l-2250.9 0 0 -3075.68 1099.64 0 0 2732.03 1151.26 0 0 343.65zm3067.1 -893.52c0,340.82 -107.39,587.11 -322.19,738.88 -203.34,146.06 -521.2,219.08 -953.63,219.08 -432.43,0 -774.66,-70.15 -1026.66,-210.5 -292.12,-163.22 -438.13,-412.39 -438.13,-747.46l0 -2182.16 1099.64 0 0 2319.64c0,183.3 51.58,313.57 154.69,390.89 103.06,77.32 269.16,115.98 498.29,115.98 203.29,0 367.24,-45.78 491.85,-137.43 124.56,-91.66 186.82,-214.8 186.82,-369.44l0 -2319.64 309.32 0 0 2182.16zm3556.77 893.52l-1056.74 0 0 -2427.78 -1069.61 1671.74 -786.07 -811.86 0 1567.9 -309.28 0 0 -3075.68 412.35 0 1039.57 1103.97 713.04 -1103.97 1056.74 0 0 3075.68zm2723.45 -2461.42l-115.98 352.28 -124.56 -51.58 -1039.58 0 0 1838.57 1207.09 0 0 322.15 -2306.73 0 0 -3075.68 2259.49 0 77.32 322.19 -1237.17 0 0 292.07 1280.12 0zm2946.83 2461.42l-412.39 0 -1881.47 -1597.98 0 1597.98 -322.19 0 0 -3075.68 343.64 0 1950.26 1593.68 0 -1593.68 322.15 0 0 3075.68zm3020.54 -1078.19c0,349.35 -115.25,627.14 -345.79,833.35 -230.55,206.18 -543.39,309.28 -938.61,309.28 -435.31,0 -778.95,-80.19 -1030.95,-240.58 -272.04,-171.8 -408.1,-419.51 -408.1,-743.12 0,-214.8 87.36,-378.02 262.04,-489.71 174.68,54.41 346.52,160.35 515.5,317.86l-154.64 81.61c-94.53,48.7 -141.77,140.35 -141.77,274.96 0,128.85 85.21,242.68 255.6,341.5 170.39,98.77 378.7,148.2 625,148.2 214.79,0 383.77,-37.97 506.87,-113.83 123.14,-75.9 184.71,-178.28 184.71,-307.18 0,-220.5 -141.72,-373.68 -425.26,-459.63l-635.76 -193.3c-544.12,-220.5 -816.15,-536.95 -816.15,-949.34 0,-584.19 356.52,-876.3 1069.61,-876.3 294.94,0 581.36,75.9 859.14,227.67 83.03,45.82 163.22,130.31 240.54,253.45 -34.37,37.25 -75.9,71.57 -124.56,103.11 -91.65,60.11 -163.27,90.19 -214.8,90.19 -14.33,0 -25.79,-5.02 -34.37,-15.01 -8.58,-10.05 -37.2,-50.85 -85.9,-122.46 -37.24,-57.24 -118.85,-109.5 -244.87,-156.79 -125.98,-47.24 -250.54,-70.88 -373.69,-70.88 -80.19,0 -148.93,18.62 -206.21,55.86 -57.29,37.25 -85.9,81.61 -85.9,133.15 0,111.68 61.57,184.71 184.71,219.08l704.47 193.3c272.08,74.49 485.41,221.97 640.05,442.47 146.06,206.17 219.09,443.88 219.09,713.09zm3861.07 1078.19l-2250.91 0 0 -3075.68 1099.64 0 0 2732.03 1151.27 0 0 343.65zm2577.39 0l-2250.9 0 0 -3075.68 1099.64 0 0 2732.03 1151.26 0 0 343.65zm3114.34 -1954.5c0,363.69 -143.91,670.09 -431.74,919.26 -287.78,249.12 -640.74,373.73 -1058.84,373.73l-240.58 0 0 661.51 -1056.69 0 0 -3075.68 1550.69 0c406.68,0 717.37,100.23 932.17,300.69 203.34,194.72 304.99,468.21 304.99,820.49zm-1189.88 502.58l0 -687.3c0,-211.92 -15.79,-349.4 -47.28,-412.39 -68.7,-137.48 -183.26,-206.21 -343.65,-206.21l-137.44 0 0 1799.9 90.2 0c120.27,0 223.37,-47.97 309.28,-143.92 85.9,-95.94 128.89,-212.65 128.89,-350.08z"/>
   <path class="fil6" d="M12647.97 7939.16c0,-39.06 31.68,-70.75 70.75,-70.75 39.07,0 70.76,31.69 70.76,70.75l0 5328.85c0,39.07 -31.69,70.76 -70.76,70.76 -39.07,0 -70.75,-31.69 -70.75,-70.76l0 -5328.85z"/>
  </g>
  <rect class="fil7" width="50618.44" height="21207.18"/>
 </g>
</svg>
