<?xml version="1.0" encoding="UTF-8"?>
<!DOCTYPE svg PUBLIC "-//W3C//DTD SVG 1.1//EN" "http://www.w3.org/Graphics/SVG/1.1/DTD/svg11.dtd">
<!-- Creator: CorelDRAW X7 -->
<svg xmlns="http://www.w3.org/2000/svg" xml:space="preserve" width="56.3032mm" height="90.2546mm" version="1.1" style="shape-rendering:geometricPrecision; text-rendering:geometricPrecision; image-rendering:optimizeQuality; fill-rule:evenodd; clip-rule:evenodd"
viewBox="0 0 5630 9025"
 xmlns:xlink="http://www.w3.org/1999/xlink">
 <defs>
  <style type="text/css">
   <![CDATA[
    .str3 {stroke:#61003F;stroke-width:16.93;stroke-linecap:round;stroke-linejoin:round}
    .str13 {stroke:#61003F;stroke-width:29.04;stroke-linecap:round;stroke-linejoin:round}
    .str12 {stroke:#61003F;stroke-width:29.04;stroke-linecap:round;stroke-linejoin:round}
    .str18 {stroke:#6E144E;stroke-width:16.72;stroke-linecap:round;stroke-linejoin:round}
    .str27 {stroke:#6E144E;stroke-width:16.72;stroke-linecap:round;stroke-linejoin:round}
    .str28 {stroke:#6E144E;stroke-width:16.72;stroke-linecap:round;stroke-linejoin:round}
    .str21 {stroke:#61003F;stroke-width:16.73;stroke-linecap:round;stroke-linejoin:round}
    .str20 {stroke:#61003F;stroke-width:16.73;stroke-linecap:round;stroke-linejoin:round}
    .str19 {stroke:#61003F;stroke-width:16.73;stroke-linecap:round;stroke-linejoin:round}
    .str22 {stroke:#61003F;stroke-width:16.73;stroke-linecap:round;stroke-linejoin:round}
    .str25 {stroke:#61003F;stroke-width:16.73;stroke-linecap:round;stroke-linejoin:round}
    .str23 {stroke:#61003F;stroke-width:16.73;stroke-linecap:round;stroke-linejoin:round}
    .str24 {stroke:#61003F;stroke-width:16.73;stroke-linecap:round;stroke-linejoin:round}
    .str26 {stroke:#61003F;stroke-width:16.73;stroke-linecap:round;stroke-linejoin:round}
    .str7 {stroke:#61003F;stroke-width:24.54;stroke-linecap:round;stroke-linejoin:round}
    .str8 {stroke:#61003F;stroke-width:24.54;stroke-linecap:round;stroke-linejoin:round}
    .str10 {stroke:#61003F;stroke-width:24.54;stroke-linecap:round;stroke-linejoin:round}
    .str9 {stroke:#61003F;stroke-width:24.54;stroke-linecap:round;stroke-linejoin:round}
    .str11 {stroke:#61003F;stroke-width:25.17;stroke-linecap:round;stroke-linejoin:round}
    .str6 {stroke:#61003F;stroke-width:25.17;stroke-linecap:round;stroke-linejoin:round}
    .str4 {stroke:#61003F;stroke-width:30.57;stroke-linecap:round;stroke-linejoin:round}
    .str17 {stroke:#61003F;stroke-width:30.57;stroke-linecap:round;stroke-linejoin:round}
    .str16 {stroke:#61003F;stroke-width:30.57;stroke-linecap:round;stroke-linejoin:round}
    .str2 {stroke:#61003F;stroke-width:30.57;stroke-linecap:round;stroke-linejoin:round}
    .str5 {stroke:#61003F;stroke-width:30.57;stroke-linecap:round;stroke-linejoin:round}
    .str0 {stroke:#61003F;stroke-width:30.57;stroke-linecap:round;stroke-linejoin:round}
    .str1 {stroke:#61003F;stroke-width:30.57;stroke-linecap:round;stroke-linejoin:round}
    .str15 {stroke:#61003F;stroke-width:30.57;stroke-linecap:round;stroke-linejoin:round}
    .str14 {stroke:#61003F;stroke-width:30.57;stroke-linecap:round;stroke-linejoin:round}
    .fil2 {fill:none}
    .fil1 {fill:#61003F}
    .fil3 {fill:#DB4C1C}
    .fil0 {fill:#FFF4F0}
   ]]>
  </style>
    <clipPath id="id0">
     <path d="M1761 7245c45,0 81,21 81,47 0,26 -36,47 -81,47 -44,0 -81,-21 -81,-47 0,-26 37,-47 81,-47z"/>
    </clipPath>
    <clipPath id="id1">
     <path d="M3274 5286c67,38 134,48 186,18 51,-30 76,-92 76,-170 0,-77 -25,-169 -76,-257 -51,-89 -118,-157 -185,-195 -67,-39 -134,-48 -185,-18 -51,29 -77,92 -77,169 0,77 25,169 76,258 51,88 118,156 185,195z"/>
    </clipPath>
    <clipPath id="id2">
     <path d="M2608 4901c67,39 134,48 185,18 51,-29 77,-92 77,-169 0,-78 -25,-170 -76,-258 -51,-88 -118,-156 -185,-195 -67,-39 -134,-48 -186,-18 -51,29 -76,92 -76,170 0,77 25,169 76,257 51,88 118,156 185,195z"/>
    </clipPath>
    <clipPath id="id3">
     <path d="M4835 1136c63,36 126,45 175,17 48,-28 72,-87 72,-160 0,-73 -24,-159 -72,-243 -48,-83 -111,-147 -174,-183 -63,-37 -126,-45 -175,-18 -48,28 -72,87 -72,160 0,73 24,160 72,243 48,83 111,147 174,184z"/>
    </clipPath>
 </defs>
 <g id="Layer_x0020_1">
  <metadata id="CorelCorpID_0Corel-Layer"/>
  <g id="_2595167162864">
   <path class="fil0 str0" d="M632 6612c-140,81 -550,430 -632,301l0 86c0,14 9,26 23,36l1199 692c16,7 36,11 58,11 21,0 41,-4 57,-11l1007 -581c12,-10 19,-21 19,-34l0 -86c-64,116 -1426,-309 -1608,-414 -17,-8 -38,-13 -62,-13 -23,0 -44,5 -61,13z"/>
   <path class="fil0 str1" d="M1021 6297l-998 581c-14,9 -23,22 -23,35 0,14 9,26 23,36l1199 692c16,7 36,11 58,11 21,0 41,-4 57,-11l1005 -584c12,-10 19,-21 19,-34 0,-13 -7,-24 -19,-34l-1199 -692c-16,-8 -38,-13 -61,-13 -23,0 -45,5 -61,13z"/>
   <polygon class="fil0 str2" points="1133,7548 144,6977 1196,6363 2185,6934 "/>
   <path class="fil1" d="M588 6637c-4,2 -9,4 -14,4 -11,0 -20,-6 -20,-12 0,-3 3,-6 6,-8l147 -84c3,-3 8,-4 14,-4 10,0 19,5 19,12 0,3 -2,6 -6,8l0 0 -146 84z"/>
   <path class="fil1" d="M525 6646c11,0 20,5 20,11 0,7 -9,12 -20,12 -10,0 -19,-5 -19,-12 0,-6 9,-11 19,-11z"/>
   <path class="fil0" d="M1761 7245c45,0 81,21 81,47 0,26 -36,47 -81,47 -44,0 -81,-21 -81,-47 0,-26 37,-47 81,-47z"/>
   <g style="clip-path:url(#id0)">
    <g>
     <ellipse class="fil2 str3" cx="1761" cy="7319" rx="81" ry="47"/>
    </g>
   </g>
   <path class="fil2 str4" d="M1761 7245c45,0 81,21 81,47 0,26 -36,47 -81,47 -44,0 -81,-21 -81,-47 0,-26 37,-47 81,-47z"/>
   <line class="fil2 str5" x1="23" y1="6949" x2="23" y2= "7035" />
   <line class="fil2 str5" x1="1222" y1="7641" x2="1222" y2= "7727" />
   <line class="fil2 str5" x1="1280" y1="7652" x2="1280" y2= "7738" />
   <line class="fil2 str5" x1="1337" y1="7641" x2="1337" y2= "7727" />
   <polygon class="fil0 str6" points="5233,7832 4248,7264 4248,8173 5233,8742 "/>
   <polyline class="fil2 str6" points="4248,7264 4642,7946 5233,7832 "/>
   <line class="fil2 str6" x1="4445" y1="7946" x2="5036" y2= "8287" />
   <line class="fil2 str6" x1="4445" y1="8059" x2="4839" y2= "8287" />
   <line class="fil2 str6" x1="4445" y1="8173" x2="4938" y2= "8457" />
   <path class="fil3" d="M3330 7457c139,0 253,66 253,147 0,81 -114,146 -253,146 -140,0 -253,-65 -253,-146 0,-81 113,-147 253,-147z"/>
   <path class="fil1" d="M3330 7234c139,0 253,66 253,147 0,81 -114,147 -253,147 -140,0 -253,-66 -253,-147 0,-81 113,-147 253,-147z"/>
   <path class="fil3" d="M3330 7012c139,0 253,65 253,146 0,81 -114,147 -253,147 -140,0 -253,-66 -253,-147 0,-81 113,-146 253,-146z"/>
   <path class="fil1" d="M3330 6789c139,0 253,65 253,146 0,81 -114,147 -253,147 -140,0 -253,-66 -253,-147 0,-81 113,-146 253,-146z"/>
   <path class="fil3" d="M3330 6566c139,0 253,65 253,146 0,81 -114,147 -253,147 -140,0 -253,-66 -253,-147 0,-81 113,-146 253,-146z"/>
   <path class="fil1" d="M3330 6343c139,0 253,66 253,147 0,81 -114,146 -253,146 -140,0 -253,-65 -253,-146 0,-81 113,-147 253,-147z"/>
   <path class="fil3" d="M3330 6120c139,0 253,66 253,147 0,81 -114,146 -253,146 -140,0 -253,-65 -253,-146 0,-81 113,-147 253,-147z"/>
   <path class="fil1" d="M3330 5897c139,0 253,66 253,147 0,81 -114,146 -253,146 -140,0 -253,-65 -253,-146 0,-81 113,-147 253,-147z"/>
   <path class="fil1" d="M3297 6136c0,13 18,23 40,23 23,0 41,-10 41,-23l0 -740c0,-13 -18,-24 -41,-24 -22,0 -40,11 -40,24l0 740z"/>
   <path class="fil1" d="M3300 4700c0,24 17,44 39,44 22,0 39,-20 39,-44l0 -1347c0,-56 -16,-103 -49,-130l0 0c-22,-18 -48,-26 -75,-24 -1,0 -3,0 -4,0l0 0c-10,1 -21,3 -32,6l0 0 0 0c-18,5 -36,13 -54,23 -55,32 -110,88 -152,160 -42,73 -63,148 -63,212l82 0c0,-228 269,-457 269,-247l0 1347z"/>
   <polygon class="fil0 str7" points="2374,3936 3702,4703 3702,5566 3619,5614 3537,5470 2374,4799 2374,4130 2291,3984 "/>
   <polygon class="fil0 str8" points="2291,3984 3619,4751 3619,5614 2291,4847 "/>
   <path class="fil0" d="M3274 5286c67,38 134,48 186,18 51,-30 76,-92 76,-170 0,-77 -25,-169 -76,-257 -51,-89 -118,-157 -185,-195 -67,-39 -134,-48 -185,-18 -51,29 -77,92 -77,169 0,77 25,169 76,258 51,88 118,156 185,195z"/>
   <g style="clip-path:url(#id1)">
    <g>
     <path id="1" class="fil2 str3" d="M3291 5260c67,39 134,48 185,19 52,-30 77,-93 77,-170 0,-77 -25,-169 -76,-258 -51,-88 -118,-156 -185,-195 -67,-38 -134,-47 -185,-18 -52,30 -77,92 -77,170 0,77 25,169 76,257 51,89 118,157 185,195z"/>
     <polygon class="fil2 str3" points="3229,4707 3354,4779 3354,4922 3478,4994 3478,5138 3354,5066 3354,5210 3229,5138 3229,4994 3105,4922 3105,4779 3229,4851 "/>
    </g>
   </g>
   <path class="fil2 str9" d="M3274 5286c67,38 134,48 186,18 51,-30 76,-92 76,-170 0,-77 -25,-169 -76,-257 -51,-89 -118,-157 -185,-195 -67,-39 -134,-48 -185,-18 -51,29 -77,92 -77,169 0,77 25,169 76,258 51,88 118,156 185,195z"/>
   <path class="fil0" d="M2608 4901c67,39 134,48 185,18 51,-29 77,-92 77,-169 0,-78 -25,-170 -76,-258 -51,-88 -118,-156 -185,-195 -67,-39 -134,-48 -186,-18 -51,29 -76,92 -76,170 0,77 25,169 76,257 51,88 118,156 185,195z"/>
   <g style="clip-path:url(#id2)">
    <g>
     <path id="1" class="fil2 str3" d="M2625 4876c67,38 134,47 185,18 51,-30 77,-92 77,-170 0,-77 -26,-169 -77,-257 -51,-89 -117,-157 -184,-195 -67,-39 -134,-48 -186,-19 -51,30 -76,93 -77,170 0,77 26,169 77,258 51,88 118,156 185,195z"/>
     <g>
      <path class="fil2 str3" d="M2478 4591c18,10 35,12 48,5 13,-8 20,-24 20,-44 0,-20 -7,-43 -20,-66 -13,-23 -30,-40 -47,-50 -18,-10 -35,-13 -48,-5 -13,8 -20,24 -20,44 0,20 7,43 20,66 13,23 30,40 47,50z"/>
      <path class="fil2 str3" d="M2613 4513c17,10 35,13 48,5 13,-8 20,-24 20,-44 0,-19 -7,-43 -20,-66 -13,-23 -30,-40 -48,-50 -17,-10 -34,-12 -47,-5 -14,8 -20,24 -20,44 0,20 6,43 20,66 13,23 30,40 47,50z"/>
      <path class="fil2 str3" d="M2748 4747c17,10 34,12 47,4 14,-7 20,-23 20,-43 0,-20 -6,-44 -19,-67 -14,-22 -31,-40 -48,-50 -17,-10 -34,-12 -48,-4 -13,7 -19,23 -19,43 0,20 6,44 19,67 13,22 31,40 48,50z"/>
      <path class="fil2 str3" d="M2613 4824c17,10 35,13 48,5 13,-7 20,-24 20,-43 0,-20 -7,-44 -20,-67 -13,-22 -30,-40 -48,-50 -17,-10 -34,-12 -47,-5 -14,8 -20,24 -20,44 0,20 6,44 20,66 13,23 30,41 47,50z"/>
     </g>
    </g>
   </g>
   <path class="fil2 str10" d="M2608 4901c67,39 134,48 185,18 51,-29 77,-92 77,-169 0,-78 -25,-170 -76,-258 -51,-88 -118,-156 -185,-195 -67,-39 -134,-48 -186,-18 -51,29 -76,92 -76,170 0,77 25,169 76,257 51,88 118,156 185,195z"/>
   <line class="fil2 str8" x1="3121" y1="4559" x2="2789" y2= "4368" />
   <line class="fil2 str8" x1="3080" y1="4583" x2="2831" y2= "4440" />
   <line class="fil2 str8" x1="3080" y1="4631" x2="2955" y2= "4559" />
   <line class="fil2 str8" x1="3038" y1="5086" x2="2831" y2= "4967" />
   <line class="fil2 str8" x1="3038" y1="5125" x2="2831" y2= "5015" />
   <path class="fil1" d="M2949 4340c0,13 18,24 41,24 23,0 41,-11 41,-24l0 -740c0,-13 -18,-24 -41,-24 -23,0 -41,11 -41,24l0 740z"/>
   <polygon class="fil0 str11" points="4938,8116 3953,7548 3953,8457 4938,9026 "/>
   <polyline class="fil2 str11" points="3953,7548 4347,8230 4938,8116 "/>
   <line class="fil2 str11" x1="4150" y1="8230" x2="4741" y2= "8571" />
   <line class="fil2 str11" x1="4150" y1="8344" x2="4544" y2= "8571" />
   <line class="fil2 str11" x1="4150" y1="8457" x2="4642" y2= "8742" />
   <polygon class="fil0 str12" points="3966,3720 3966,2915 5219,2192 5219,2996 "/>
   <polygon class="fil0 str13" points="5076,2429 4101,2992 4101,3474 5076,2911 "/>
   <polygon class="fil0 str12" points="3966,2915 3966,3720 3827,3639 3827,2835 "/>
   <polygon class="fil0 str12" points="3966,2915 3827,2835 5080,2111 5219,2192 "/>
   <path class="fil0 str14" d="M4310 3256c-32,19 -64,23 -88,9 -25,-14 -37,-44 -37,-81 0,-37 12,-80 36,-123 25,-42 56,-74 88,-92 32,-19 64,-23 89,-9 24,14 36,44 36,81 0,36 -12,80 -36,122 -25,42 -56,75 -88,93z"/>
   <path class="fil0 str15" d="M4855 2954c-33,19 -66,24 -91,9 -25,-14 -38,-45 -38,-83 0,-38 13,-83 38,-127 25,-43 58,-76 91,-95 33,-19 66,-24 91,-9 25,14 37,45 37,83 0,38 -12,83 -37,127 -25,43 -58,76 -91,95z"/>
   <path class="fil0 str16" d="M4310 3202c-20,12 -40,14 -55,6 -16,-9 -23,-28 -23,-51 0,-23 7,-50 22,-76 16,-27 36,-47 55,-59 20,-11 40,-14 56,-5 15,9 22,28 22,51 0,23 -7,50 -22,76 -15,26 -35,47 -55,58z"/>
   <path class="fil0 str17" d="M4855 2896c-20,11 -40,14 -55,5 -15,-9 -23,-27 -23,-50 0,-23 8,-51 23,-77 15,-26 35,-46 55,-58 20,-11 40,-14 55,-5 15,8 23,27 23,50 0,23 -8,51 -23,77 -15,26 -35,46 -55,58z"/>
   <line class="fil2 str13" x1="4309" y1="2969" x2="4855" y2= "2658" />
   <line class="fil2 str13" x1="4310" y1="3256" x2="4864" y2= "2949" />
   <polygon class="fil0 str18" points="5289,1113 5062,1505 4609,1244 4382,589 4609,197 5062,459 "/>
   <path class="fil0" d="M4835 1136c63,36 126,45 175,17 48,-28 72,-87 72,-160 0,-73 -24,-159 -72,-243 -48,-83 -111,-147 -174,-183 -63,-37 -126,-45 -175,-18 -48,28 -72,87 -72,160 0,73 24,160 72,243 48,83 111,147 174,184z"/>
   <g style="clip-path:url(#id3)">
    <g>
     <path id="1" class="fil2 str19" d="M4873 1114c63,36 126,45 175,17 48,-28 72,-87 72,-160 0,-73 -24,-159 -72,-243 -48,-83 -111,-147 -174,-183 -63,-37 -126,-45 -175,-18 -48,28 -72,87 -72,160 0,73 24,160 72,243 48,83 111,147 174,184z"/>
     <path class="fil2 str20" d="M4911 1092c63,36 126,45 175,17 48,-28 72,-87 72,-160 0,-73 -24,-159 -72,-242 -48,-84 -111,-148 -174,-184 -63,-37 -127,-45 -175,-17 -48,27 -72,87 -72,159 0,73 24,160 72,243 48,83 111,148 174,184z"/>
     <path class="fil2 str21" d="M4949 1070c63,36 126,45 175,17 48,-28 72,-87 72,-160 0,-72 -24,-159 -72,-242 -48,-84 -111,-148 -174,-184 -63,-37 -127,-45 -175,-17 -48,28 -72,87 -72,160 0,72 24,159 72,242 48,84 111,148 174,184z"/>
     <path class="fil2 str22" d="M4987 1048c63,37 126,45 175,17 48,-28 72,-87 72,-160 0,-72 -24,-159 -72,-242 -48,-84 -111,-148 -174,-184 -63,-36 -127,-45 -175,-17 -48,28 -72,87 -72,160 0,72 24,159 72,242 48,84 111,148 174,184z"/>
     <path class="fil2 str23" d="M5028 1025c63,36 126,45 174,17 49,-28 73,-87 73,-160 0,-73 -24,-160 -72,-243 -48,-83 -112,-147 -175,-184 -63,-36 -126,-45 -174,-17 -48,28 -73,87 -73,160 0,73 24,160 72,243 48,83 112,147 175,184z"/>
     <path class="fil2 str24" d="M5066 1003c63,36 126,45 174,17 48,-28 73,-87 73,-160 0,-73 -24,-159 -72,-243 -49,-83 -112,-147 -175,-183 -63,-37 -126,-46 -174,-18 -49,28 -73,87 -73,160 0,73 24,160 72,243 48,83 111,147 175,184z"/>
     <path class="fil2 str25" d="M5103 981c64,36 127,45 175,17 48,-28 73,-87 73,-160 0,-73 -24,-159 -73,-243 -48,-83 -111,-147 -174,-183 -63,-37 -126,-45 -174,-18 -49,28 -73,87 -73,160 0,73 24,160 72,243 48,83 111,147 174,184z"/>
     <path class="fil2 str26" d="M5141 959c64,36 127,45 175,17 48,-28 72,-87 73,-160 0,-73 -24,-159 -73,-242 -48,-84 -111,-148 -174,-184 -63,-37 -126,-45 -174,-17 -49,27 -73,86 -73,159 0,73 24,160 72,243 48,83 111,147 174,184z"/>
    </g>
   </g>
   <path class="fil2 str27" d="M4835 1136c63,36 126,45 175,17 48,-28 72,-87 72,-160 0,-73 -24,-159 -72,-243 -48,-83 -111,-147 -174,-183 -63,-37 -126,-45 -175,-18 -48,28 -72,87 -72,160 0,73 24,160 72,243 48,83 111,147 174,184z"/>
   <polygon class="fil0 str28" points="5062,459 4609,197 4950,0 5404,261 5630,916 5404,1308 5062,1505 5291,1114 "/>
   <polygon class="fil0 str28" points="5630,916 5404,261 5062,459 5291,1114 "/>
  </g>
 </g>
</svg>
