<?xml version="1.0" encoding="UTF-8"?>
<!DOCTYPE svg PUBLIC "-//W3C//DTD SVG 1.1//EN" "http://www.w3.org/Graphics/SVG/1.1/DTD/svg11.dtd">
<!-- Creator: CorelDRAW X7 -->
<svg xmlns="http://www.w3.org/2000/svg" xml:space="preserve" width="58.1658mm" height="67.7332mm" version="1.1" style="shape-rendering:geometricPrecision; text-rendering:geometricPrecision; image-rendering:optimizeQuality; fill-rule:evenodd; clip-rule:evenodd"
viewBox="0 0 5817 6773"
 xmlns:xlink="http://www.w3.org/1999/xlink">
 <defs>
  <style type="text/css">
   <![CDATA[
    .str4 {stroke:#61003F;stroke-width:42.29;stroke-linecap:round;stroke-linejoin:round}
    .str1 {stroke:#61003F;stroke-width:42.29;stroke-linecap:round;stroke-linejoin:round}
    .str5 {stroke:#61003F;stroke-width:42.29;stroke-linecap:round;stroke-linejoin:round}
    .str0 {stroke:#61003F;stroke-width:42.29;stroke-linecap:round;stroke-linejoin:round}
    .str3 {stroke:#61003F;stroke-width:42.29;stroke-linecap:round;stroke-linejoin:round}
    .str2 {stroke:#61003F;stroke-width:42.29;stroke-linecap:round;stroke-linejoin:round}
    .fil1 {fill:none}
    .fil0 {fill:#FFF4F0}
    .fil2 {fill:#61003F;fill-rule:nonzero}
   ]]>
  </style>
 </defs>
 <g id="Layer_x0020_1">
  <metadata id="CorelCorpID_0Corel-Layer"/>
  <g id="_1890935593200">
   <g>
    <polygon class="fil0 str0" points="3781,3359 5817,2183 4945,0 2908,1176 "/>
    <line class="fil1 str0" x1="3199" y1="1008" x2="4072" y2= "3191" />
    <line class="fil1 str0" x1="3490" y1="840" x2="4363" y2= "3023" />
    <line class="fil1 str0" x1="3781" y1="672" x2="4654" y2= "2855" />
    <line class="fil1 str0" x1="4072" y1="504" x2="4945" y2= "2687" />
    <line class="fil1 str0" x1="4363" y1="336" x2="5235" y2= "2519" />
    <line class="fil1 str0" x1="4654" y1="168" x2="5526" y2= "2351" />
    <line class="fil1 str0" x1="3017" y1="1449" x2="5054" y2= "273" />
    <line class="fil1 str0" x1="3126" y1="1721" x2="5163" y2= "546" />
    <line class="fil1 str0" x1="3236" y1="1994" x2="5272" y2= "819" />
    <line class="fil1 str0" x1="3345" y1="2267" x2="5381" y2= "1092" />
    <line class="fil1 str0" x1="3454" y1="2540" x2="5490" y2= "1365" />
    <line class="fil1 str0" x1="3563" y1="2813" x2="5599" y2= "1637" />
    <line class="fil1 str0" x1="3672" y1="3086" x2="5708" y2= "1910" />
    <path class="fil0 str1" d="M1622 2732c-115,-66 -172,-206 -172,-380 0,-172 57,-378 171,-576 114,-198 264,-350 414,-436 150,-87 300,-107 414,-41l1452 844 -822 1424 -1457 -835z"/>
    <path class="fil0 str2" d="M3253 3605c-19,1 -36,1 -54,-1l0 0c-43,-4 -83,-16 -120,-37 -114,-66 -171,-205 -171,-377 0,-172 57,-376 170,-573 114,-196 262,-347 411,-433 149,-86 298,-106 412,-41 38,22 69,52 94,89l217 373 -574 1002 -385 -2z"/>
    <path class="fil0 str3" d="M4800 4085l-5 3 -5 3 -5 2 -5 3 -5 2 -5 3 -5 2 -5 3 -5 2 0 0 -4 2 -5 2 -5 2 -5 2 0 0 -5 2 -5 2 -5 2 -5 1 0 0 -4 2 -5 2 -5 1 0 0 -5 1 -5 2 -5 1 -4 1 -5 1 0 0 -5 1 0 0 -5 1 0 0 -4 1 -5 1 -5 0 -4 1 -5 1 -5 0 -4 0 -5 1 0 0 -4 0 0 0 -5 0 0 0 -5 0 -4 0 -5 0 -4 0 -4 0 0 0 -5 -1 -4 0 -5 -1 -4 0 0 0 -4 -1 -5 -1 0 0 -4 0 -4 -1 -4 -1 -5 -1 -4 -2 -4 -1 -4 -1 -4 -2 -4 -1 -4 -2 -4 -2 -4 -1 -4 -2 -4 -2 -3 -2 -4 -2 0 0 -1 1 -1015 -592c-80,-46 -120,-144 -120,-265 0,-121 39,-264 119,-402 79,-138 184,-244 288,-304 104,-60 207,-75 287,-30l0 0 1 0 1 1 1 1 1019 584 0 0 4 2 0 0 4 2 0 0 3 3 0 0 4 2 4 3 0 0 3 2 3 3 4 3 0 0c2,2 4,3 6,5 2,2 4,4 6,6l0 0c2,2 4,4 6,7l0 0c2,2 4,4 6,6l0 0 3 3 3 4 0 0c2,2 3,4 5,7l3 3 0 0c1,3 3,5 5,8l0 0 2 4 0 0 2 3 0 0 3 4 2 4 2 4 0 0 2 4 2 4 0 1 2 4 2 4 0 0 2 4 2 5 0 0 1 4 2 4 0 0 2 5 1 5 2 4 1 5 2 5 1 4 1 5 1 5 1 5 0 0 1 3c16,38 24,83 24,132 0,104 -35,228 -103,347 -44,75 -96,140 -152,190l-1 1 -4 5 -5 5 -5 5 0 0 -4 5 0 0 -5 5 -5 4 -4 5 -5 5 -5 4 0 0 -5 5 -4 4 -5 4 -5 5 -5 4 0 0 -4 4 -5 4 -5 4 -5 4 -5 4 -5 4 -5 4 0 0 -4 3 -5 4 -5 4 -5 3 -5 4 -5 3 -5 4 -5 3 -5 3 -5 3 -4 3 -5 3 -5 3 -5 3z"/>
    <path class="fil0 str3" d="M4800 4085c-105,61 -211,75 -291,29 -81,-47 -121,-145 -121,-267 0,-121 40,-265 120,-404 80,-139 185,-246 290,-306 106,-61 211,-76 291,-29 58,33 95,92 111,168 16,38 24,83 24,132 0,104 -35,228 -103,347 -44,75 -96,140 -152,190 -54,59 -111,107 -169,140z"/>
    <path class="fil0 str4" d="M4872 4017c-90,52 -180,64 -249,24 -69,-40 -103,-124 -103,-228 0,-104 34,-227 103,-346 68,-119 158,-210 248,-262 90,-52 180,-64 249,-25 69,40 104,124 104,228 0,104 -35,228 -103,347 -69,118 -159,210 -249,262z"/>
    <polygon class="fil0 str5" points="872,5038 2908,3863 2036,1679 -1,2855 "/>
    <line class="fil1 str5" x1="290" y1="2687" x2="1163" y2= "4870" />
    <line class="fil1 str5" x1="581" y1="2519" x2="1454" y2= "4702" />
    <line class="fil1 str5" x1="872" y1="2351" x2="1745" y2= "4534" />
    <line class="fil1 str5" x1="1163" y1="2183" x2="2036" y2= "4367" />
    <line class="fil1 str5" x1="1454" y1="2015" x2="2327" y2= "4199" />
    <line class="fil1 str5" x1="1745" y1="1847" x2="2617" y2= "4031" />
    <line class="fil1 str5" x1="109" y1="3128" x2="2145" y2= "1952" />
    <line class="fil1 str5" x1="218" y1="3401" x2="2254" y2= "2225" />
    <line class="fil1 str5" x1="327" y1="3674" x2="2363" y2= "2498" />
    <line class="fil1 str5" x1="436" y1="3947" x2="2472" y2= "2771" />
    <line class="fil1 str5" x1="545" y1="4220" x2="2581" y2= "3044" />
    <line class="fil1 str5" x1="654" y1="4493" x2="2690" y2= "3317" />
    <line class="fil1 str5" x1="763" y1="4765" x2="2799" y2= "3590" />
   </g>
   <polygon class="fil2" points="1367,6267 1182,6267 1182,6769 1137,6769 1137,6267 952,6267 952,6229 1367,6229 "/>
   <polygon id="1" class="fil2" points="1753,6510 1500,6510 1500,6730 1790,6730 1790,6769 1454,6769 1454,6229 1789,6229 1789,6267 1500,6267 1500,6471 1753,6471 "/>
   <path id="2" class="fil2" d="M2268 6600c-6,57 -26,101 -61,131 -34,30 -80,45 -137,45 -40,0 -76,-10 -106,-30 -31,-20 -55,-48 -72,-85 -17,-37 -25,-79 -25,-126l0 -70c0,-48 8,-91 25,-128 17,-37 41,-65 72,-86 32,-20 68,-30 109,-30 58,0 104,16 137,47 34,31 53,74 58,129l-45 0c-12,-91 -62,-137 -150,-137 -49,0 -88,18 -117,55 -29,36 -43,87 -43,152l0 66c0,62 14,112 42,149 28,37 67,56 115,56 47,0 83,-12 108,-35 24,-23 39,-57 45,-103l45 0z"/>
   <polygon id="3" class="fil2" points="2780,6769 2734,6769 2734,6510 2425,6510 2425,6769 2379,6769 2379,6229 2425,6229 2425,6471 2734,6471 2734,6229 2780,6229 "/>
   <polygon id="4" class="fil2" points="3400,6510 3147,6510 3147,6730 3437,6730 3437,6769 3101,6769 3101,6229 3436,6229 3436,6267 3147,6267 3147,6471 3400,6471 "/>
   <polygon id="5" class="fil2" points="3698,6457 3850,6229 3904,6229 3726,6495 3910,6769 3855,6769 3698,6533 3540,6769 3486,6769 3670,6495 3491,6229 3546,6229 "/>
   <path id="6" class="fil2" d="M4044 6549l0 220 -46 0 0 -540 184 0c56,0 101,14 133,43 33,29 49,68 49,118 0,51 -16,90 -47,118 -31,27 -77,41 -136,41l-137 0zm0 -38l138 0c44,0 78,-11 101,-32 24,-21 35,-51 35,-88 0,-38 -11,-67 -35,-89 -23,-23 -55,-34 -98,-35l-141 0 0 244z"/>
   <path id="7" class="fil2" d="M4865 6528c0,50 -9,93 -26,131 -17,38 -42,67 -74,87 -32,20 -68,30 -110,30 -63,0 -114,-22 -153,-67 -39,-46 -58,-106 -58,-183l0 -56c0,-49 9,-93 26,-131 17,-38 42,-67 74,-87 32,-21 69,-31 110,-31 42,0 78,10 110,30 32,20 56,49 74,85 17,37 26,79 27,127l0 65zm-46 -58c0,-65 -15,-116 -44,-153 -29,-37 -70,-56 -121,-56 -50,0 -90,19 -120,56 -30,37 -45,89 -45,155l0 56c0,64 15,115 45,153 30,37 70,56 121,56 51,0 92,-19 121,-56 29,-37 43,-88 43,-154l0 -57z"/>
  </g>
 </g>
</svg>
